<?xml version="1.0" standalone="no"?>
 <!DOCTYPE svg PUBLIC "-//W3C//DTD SVG 1.1//EN" 
 "http://www.w3.org/Graphics/SVG/1.1/DTD/svg11.dtd"> 
<svg
  xmlns:svg="http://www.w3.org/2000/svg"
  xmlns="http://www.w3.org/2000/svg"
  xmlns:xlink="http://www.w3.org/1999/xlink"
  version="1.1"
  width="297.0022mm" height="210.0072mm" viewBox="0.0000 0.0000 297.0022 210.0072">
<title>SVG Image created as sht31-break-F_Paste.svg date 2025/05/09 13:14:19 </title>
  <desc>Image generated by PCBNEW </desc>
<g style="fill:#000000; fill-opacity:1.0000;stroke:#000000; stroke-opacity:1.0000;
stroke-linecap:round; stroke-linejoin:round;"
 transform="translate(0 0) scale(1 1)">
<path style="fill:#000000; fill-opacity:1.0000; stroke:none;fill-rule:evenodd;"
d="M 194.3095,114.2219
195.2095,114.2219
195.2095,112.8919
194.9395,112.6219
194.3095,112.6219
Z" /> 
<path style="fill:#000000; fill-opacity:1.0000; stroke:none;fill-rule:evenodd;"
d="M 196.2095,112.7969
196.2095,112.5469
195.6595,112.5469
195.6595,112.7969
Z" /> 
<path style="fill:#000000; fill-opacity:1.0000; stroke:none;fill-rule:evenodd;"
d="M 196.2095,113.2969
196.2095,113.0469
195.6595,113.0469
195.6595,113.2969
Z" /> 
<path style="fill:#000000; fill-opacity:1.0000; stroke:none;fill-rule:evenodd;"
d="M 196.2095,113.7969
196.2095,113.5469
195.6595,113.5469
195.6595,113.7969
Z" /> 
<path style="fill:#000000; fill-opacity:1.0000; stroke:none;fill-rule:evenodd;"
d="M 195.6595,114.0469
195.6595,114.2969
196.2095,114.2969
196.2095,114.0469
Z" /> 
<path style="fill:#000000; fill-opacity:1.0000; stroke:none;fill-rule:evenodd;"
d="M 193.8595,114.2969
193.8595,114.0469
193.3095,114.0469
193.3095,114.2969
Z" /> 
<path style="fill:#000000; fill-opacity:1.0000; stroke:none;fill-rule:evenodd;"
d="M 193.8595,113.7969
193.8595,113.5469
193.3095,113.5469
193.3095,113.7969
Z" /> 
<path style="fill:#000000; fill-opacity:1.0000; stroke:none;fill-rule:evenodd;"
d="M 193.8595,113.2969
193.8595,113.0469
193.3095,113.0469
193.3095,113.2969
Z" /> 
<path style="fill:#000000; fill-opacity:1.0000; stroke:none;fill-rule:evenodd;"
d="M 193.8595,112.7969
193.8595,112.5469
193.3095,112.5469
193.3095,112.7969
Z" /> 
<path style="fill:#000000; fill-opacity:1.0000; stroke:none;fill-rule:evenodd;"
d="M 193.3915,116.7970
193.4096,116.8879
193.4611,116.9649
193.5381,117.0164
193.6290,117.0345
194.2290,117.0345
194.3199,117.0164
194.3969,116.9649
194.4484,116.8879
194.4665,116.7970
194.4665,116.3220
194.4484,116.2311
194.3969,116.1541
194.3199,116.1026
194.2290,116.0845
193.6290,116.0845
193.5381,116.1026
193.4611,116.1541
193.4096,116.2311
193.3915,116.3220
Z" /> 
<path style="fill:#000000; fill-opacity:1.0000; stroke:none;fill-rule:evenodd;"
d="M 195.1165,116.7970
195.1346,116.8879
195.1861,116.9649
195.2631,117.0164
195.3540,117.0345
195.9540,117.0345
196.0449,117.0164
196.1219,116.9649
196.1734,116.8879
196.1915,116.7970
196.1915,116.3220
196.1734,116.2311
196.1219,116.1541
196.0449,116.1026
195.9540,116.0845
195.3540,116.0845
195.2631,116.1026
195.1861,116.1541
195.1346,116.2311
195.1165,116.3220
Z" /> 
<path style="fill:none; 
stroke:#000000; stroke-width:0.0500; stroke-opacity:1; 
stroke-linecap:round; stroke-linejoin:round;fill:none"
d="M 216.0310,105.1632
191.1310,105.1632
191.1310,121.0632
216.0310,121.0632
Z" /> 
</g> 
</svg>
