999
dxflib 3.26.4.0
  0
SECTION
  2
HEADER
  9
$ACADVER
  1
AC1015
  9
$HANDSEED
  5
FFFF
  9
$DIMADEC
 70
0
  9
$DIMASZ
 40
2.5
  9
$DIMATFIT
 70
0
  9
$DIMAUNIT
 70
0
  9
$DIMAZIN
 70
2
  9
$DIMBLK
  1
0
  9
$DIMBLK1
  1
0
  9
$DIMBLK2
  1
0
  9
$DIMDEC
 70
4
  9
$DIMDLI
 40
5.0
  9
$DIMDSEP
 70
46
  9
$DIMEXE
 40
1.25
  9
$DIMEXO
 40
0.625
  9
$DIMGAP
 40
0.625
  9
$DIMLFAC
 40
1.0
  9
$DIMLUNIT
 70
2
  9
$DIMSCALE
 40
1.0
  9
$DIMTAD
 70
1
  9
$DIMTIH
 70
0
  9
$DIMTSZ
 40
0.0
  9
$DIMTXT
 40
2.5
  9
$DIMZIN
 70
8
  9
$DWGCODEPAGE
  3
ANSI_1252
  9
$INSUNITS
 70
4
  9
$LTSCALE
 40
1.0
  9
$MAXACTVP
 70
64
  9
$MEASUREMENT
 70
1
  9
$MIRRTEXT
 70
0
  9
$PDMODE
 70
0
  9
$PDSIZE
 40
0.0
  0
ENDSEC
  0
SECTION
  2
TABLES
  0
TABLE
  2
VPORT
  5
8
100
AcDbSymbolTable
 70
1
  0
VPORT
  5
30
100
AcDbSymbolTableRecord
100
AcDbViewportTableRecord
  2
*Active
 70
0
 10
0.0
 20
0.0
 11
1.0
 21
1.0
 12
286.3055555555554861
 22
148.5
 13
0.0
 23
0.0
 14
10.0
 24
10.0
 15
10.0
 25
10.0
 16
0.0
 26
0.0
 36
1.0
 17
0.0
 27
0.0
 37
0.0
 40
297.0
 41
1.92798353909465
 42
50.0
 43
0.0
 44
0.0
 50
0.0
 51
0.0
 71
0
 72
100
 73
1
 74
3
 75
1
 76
1
 77
0
 78
0
281
0
 65
1
110
0.0
120
0.0
130
0.0
111
1.0
121
0.0
131
0.0
112
0.0
122
1.0
132
0.0
 79
0
146
0.0
  0
ENDTAB
  0
TABLE
  2
LTYPE
  5
5
100
AcDbSymbolTable
 70
41
  0
LTYPE
  5
16
100
AcDbSymbolTableRecord
100
AcDbLinetypeTableRecord
  2
Continuous
 70
0
  3
Solid line
 72
65
 73
0
 40
0.0
  0
LTYPE
  5
31
100
AcDbSymbolTableRecord
100
AcDbLinetypeTableRecord
  2
BORDERX2
 70
0
  3
Border (2x) ____  ____  .  ____  ____  .  ___
 72
65
 73
6
 40
88.8999999999999773
 49
25.3999999999999986
 74
0
 49
-12.6999999999999993
 74
0
 49
25.3999999999999986
 74
0
 49
-12.6499999999999986
 74
0
 49
0.1
 74
0
 49
-12.6499999999999986
 74
0
  0
LTYPE
  5
32
100
AcDbSymbolTableRecord
100
AcDbLinetypeTableRecord
  2
DASHDOTX2
 70
0
  3
Dash dot (2x) ____  .  ____  .  ____  .  ___
 72
65
 73
4
 40
50.7999999999999972
 49
25.3999999999999986
 74
0
 49
-12.6499999999999986
 74
0
 49
0.1
 74
0
 49
-12.6499999999999986
 74
0
  0
LTYPE
  5
33
100
AcDbSymbolTableRecord
100
AcDbLinetypeTableRecord
  2
HIDDENX2
 70
0
  3
Hidden (2x) ____ ____ ____ ____ ____ ____ ____ 
 72
65
 73
2
 40
19.0499999999999972
 49
12.6999999999999993
 74
0
 49
-6.3499999999999996
 74
0
  0
LTYPE
  5
34
100
AcDbSymbolTableRecord
100
AcDbLinetypeTableRecord
  2
CENTER
 70
0
  3
Center ____ _ ____ _ ____ _ ____ _ ____ _ ____
 72
65
 73
4
 40
50.8000000000000043
 49
31.75
 74
0
 49
-6.3499999999999996
 74
0
 49
6.3499999999999996
 74
0
 49
-6.3499999999999996
 74
0
  0
LTYPE
  5
35
100
AcDbSymbolTableRecord
100
AcDbLinetypeTableRecord
  2
ACAD_ISO14W100
 70
0
  3
ISO dash triple-dot __ . . . __ . . . __ . . . _
 72
65
 73
8
 40
24.0000000000000036
 49
12.0
 74
0
 49
-2.9500000000000002
 74
0
 49
0.1
 74
0
 49
-2.9000000000000004
 74
0
 49
0.1
 74
0
 49
-2.9000000000000004
 74
0
 49
0.1
 74
0
 49
-2.9500000000000002
 74
0
  0
LTYPE
  5
36
100
AcDbSymbolTableRecord
100
AcDbLinetypeTableRecord
  2
ACAD_ISO15W100
 70
0
  3
ISO double-dash triple-dot __ __ . . . __ __ . .
 72
65
 73
10
 40
39.0000000000000071
 49
12.0
 74
0
 49
-3.0
 74
0
 49
12.0
 74
0
 49
-2.9500000000000002
 74
0
 49
0.1
 74
0
 49
-2.9000000000000004
 74
0
 49
0.1
 74
0
 49
-2.9000000000000004
 74
0
 49
0.1
 74
0
 49
-2.9500000000000002
 74
0
  0
LTYPE
  5
37
100
AcDbSymbolTableRecord
100
AcDbLinetypeTableRecord
  2
ACAD_ISO08W100
 70
0
  3
ISO long-dash short-dash ____ __ ____ __ ____ _
 72
65
 73
4
 40
36.0
 49
24.0
 74
0
 49
-3.0
 74
0
 49
6.0
 74
0
 49
-3.0
 74
0
  0
LTYPE
  5
38
100
AcDbSymbolTableRecord
100
AcDbLinetypeTableRecord
  2
CENTERX2
 70
0
  3
Center (2x) ________  __  ________  __  _____
 72
65
 73
4
 40
101.6000000000000085
 49
63.5
 74
0
 49
-12.6999999999999993
 74
0
 49
12.6999999999999993
 74
0
 49
-12.6999999999999993
 74
0
  0
LTYPE
  5
39
100
AcDbSymbolTableRecord
100
AcDbLinetypeTableRecord
  2
BORDER2
 70
0
  3
Border (.5x) __.__.__.__.__.__.__.__.__.__.__.
 72
65
 73
6
 40
22.2250000000000014
 49
6.3499999999999996
 74
0
 49
-3.1749999999999998
 74
0
 49
6.3499999999999996
 74
0
 49
-3.125
 74
0
 49
0.1
 74
0
 49
-3.125
 74
0
  0
LTYPE
  5
3A
100
AcDbSymbolTableRecord
100
AcDbLinetypeTableRecord
  2
BORDER
 70
0
  3
Border __ __ . __ __ . __ __ . __ __ . __ __ .
 72
65
 73
6
 40
44.4499999999999957
 49
12.6999999999999993
 74
0
 49
-6.3499999999999996
 74
0
 49
12.6999999999999993
 74
0
 49
-6.2999999999999998
 74
0
 49
0.1
 74
0
 49
-6.2999999999999998
 74
0
  0
LTYPE
  5
3B
100
AcDbSymbolTableRecord
100
AcDbLinetypeTableRecord
  2
ACAD_ISO13W100
 70
0
  3
ISO double-dash double-dot __ __ . . __ __ . . _
 72
65
 73
8
 40
36.0000000000000071
 49
12.0
 74
0
 49
-3.0
 74
0
 49
12.0
 74
0
 49
-2.9500000000000002
 74
0
 49
0.1
 74
0
 49
-2.9000000000000004
 74
0
 49
0.1
 74
0
 49
-2.9500000000000002
 74
0
  0
LTYPE
  5
3C
100
AcDbSymbolTableRecord
100
AcDbLinetypeTableRecord
  2
DOT2
 70
0
  3
Dot (.5x) ........................................
 72
65
 73
2
 40
3.1749999999999998
 49
0.1
 74
0
 49
-3.0749999999999997
 74
0
  0
LTYPE
  5
3D
100
AcDbSymbolTableRecord
100
AcDbLinetypeTableRecord
  2
ACAD_ISO07W100
 70
0
  3
ISO dot . . . . . . . . . . . . . . . . . . . . 
 72
65
 73
2
 40
3.0
 49
0.1
 74
0
 49
-2.8999999999999999
 74
0
  0
LTYPE
  5
3E
100
AcDbSymbolTableRecord
100
AcDbLinetypeTableRecord
  2
ACAD_ISO09W100
 70
0
  3
ISO long-dash double-short-dash ____ __ __ ____
 72
65
 73
6
 40
45.0
 49
24.0
 74
0
 49
-3.0
 74
0
 49
6.0
 74
0
 49
-3.0
 74
0
 49
6.0
 74
0
 49
-3.0
 74
0
  0
LTYPE
  5
3F
100
AcDbSymbolTableRecord
100
AcDbLinetypeTableRecord
  2
DASHED
 70
0
  3
Dashed __ __ __ __ __ __ __ __ __ __ __ __ __ _
 72
65
 73
2
 40
19.0499999999999972
 49
12.6999999999999993
 74
0
 49
-6.3499999999999996
 74
0
  0
LTYPE
  5
40
100
AcDbSymbolTableRecord
100
AcDbLinetypeTableRecord
  2
PHANTOM
 70
0
  3
Phantom ______  __  __  ______  __  __  ______ 
 72
65
 73
6
 40
63.5000000000000071
 49
31.75
 74
0
 49
-6.3499999999999996
 74
0
 49
6.3499999999999996
 74
0
 49
-6.3499999999999996
 74
0
 49
6.3499999999999996
 74
0
 49
-6.3499999999999996
 74
0
  0
LTYPE
  5
41
100
AcDbSymbolTableRecord
100
AcDbLinetypeTableRecord
  2
DASHDOT
 70
0
  3
Dash dot __ . __ . __ . __ . __ . __ . __ . __
 72
65
 73
4
 40
25.4000000000000021
 49
12.6999999999999993
 74
0
 49
-6.2999999999999998
 74
0
 49
0.1
 74
0
 49
-6.2999999999999998
 74
0
  0
LTYPE
  5
15
100
AcDbSymbolTableRecord
100
AcDbLinetypeTableRecord
  2
BYLAYER
 70
0
  3

 72
65
 73
0
 40
0.0
  0
LTYPE
  5
42
100
AcDbSymbolTableRecord
100
AcDbLinetypeTableRecord
  2
ACAD_ISO03W100
 70
0
  3
ISO dash space __    __    __    __    __    __
 72
65
 73
2
 40
30.0
 49
12.0
 74
0
 49
-18.0
 74
0
  0
LTYPE
  5
43
100
AcDbSymbolTableRecord
100
AcDbLinetypeTableRecord
  2
DASHEDX2
 70
0
  3
Dashed (2x) ____  ____  ____  ____  ____  ___
 72
65
 73
2
 40
38.0999999999999943
 49
25.3999999999999986
 74
0
 49
-12.6999999999999993
 74
0
  0
LTYPE
  5
44
100
AcDbSymbolTableRecord
100
AcDbLinetypeTableRecord
  2
ACAD_ISO02W100
 70
0
  3
ISO dash __ __ __ __ __ __ __ __ __ __ __ __ __
 72
65
 73
2
 40
15.0
 49
12.0
 74
0
 49
-3.0
 74
0
  0
LTYPE
  5
45
100
AcDbSymbolTableRecord
100
AcDbLinetypeTableRecord
  2
ACAD_ISO05W100
 70
0
  3
ISO long-dash double-dot ____ .. ____ .. ____ . 
 72
65
 73
6
 40
33.0000000000000071
 49
24.0
 74
0
 49
-2.9500000000000002
 74
0
 49
0.1
 74
0
 49
-2.9000000000000004
 74
0
 49
0.1
 74
0
 49
-2.9500000000000002
 74
0
  0
LTYPE
  5
46
100
AcDbSymbolTableRecord
100
AcDbLinetypeTableRecord
  2
ACAD_ISO11W100
 70
0
  3
ISO double-dash dot __ __ . __ __ . __ __ . __ _
 72
65
 73
6
 40
33.0
 49
12.0
 74
0
 49
-3.0
 74
0
 49
12.0
 74
0
 49
-2.9500000000000002
 74
0
 49
0.1
 74
0
 49
-2.9500000000000002
 74
0
  0
LTYPE
  5
47
100
AcDbSymbolTableRecord
100
AcDbLinetypeTableRecord
  2
ACAD_ISO10W100
 70
0
  3
ISO dash dot __ . __ . __ . __ . __ . __ . __ . 
 72
65
 73
4
 40
18.0
 49
12.0
 74
0
 49
-2.9500000000000002
 74
0
 49
0.1
 74
0
 49
-2.9500000000000002
 74
0
  0
LTYPE
  5
48
100
AcDbSymbolTableRecord
100
AcDbLinetypeTableRecord
  2
ACAD_ISO04W100
 70
0
  3
ISO long-dash dot ____ . ____ . ____ . ____ . _
 72
65
 73
4
 40
30.0
 49
24.0
 74
0
 49
-2.9500000000000002
 74
0
 49
0.1
 74
0
 49
-2.9500000000000002
 74
0
  0
LTYPE
  5
49
100
AcDbSymbolTableRecord
100
AcDbLinetypeTableRecord
  2
DASHED2
 70
0
  3
Dashed (.5x) _ _ _ _ _ _ _ _ _ _ _ _ _ _ _ _ _ 
 72
65
 73
2
 40
9.5249999999999986
 49
6.3499999999999996
 74
0
 49
-3.1749999999999998
 74
0
  0
LTYPE
  5
4A
100
AcDbSymbolTableRecord
100
AcDbLinetypeTableRecord
  2
PHANTOM2
 70
0
  3
Phantom (.5x) ___ _ _ ___ _ _ ___ _ _ ___ _ _
 72
65
 73
6
 40
31.7500000000000036
 49
15.875
 74
0
 49
-3.1749999999999998
 74
0
 49
3.1749999999999998
 74
0
 49
-3.1749999999999998
 74
0
 49
3.1749999999999998
 74
0
 49
-3.1749999999999998
 74
0
  0
LTYPE
  5
14
100
AcDbSymbolTableRecord
100
AcDbLinetypeTableRecord
  2
BYBLOCK
 70
0
  3

 72
65
 73
0
 40
0.0
  0
LTYPE
  5
4B
100
AcDbSymbolTableRecord
100
AcDbLinetypeTableRecord
  2
HIDDEN2
 70
0
  3
Hidden (.5x) _ _ _ _ _ _ _ _ _ _ _ _ _ _ _ _ _ 
 72
65
 73
2
 40
4.7624999999999993
 49
3.1749999999999998
 74
0
 49
-1.5874999999999999
 74
0
  0
LTYPE
  5
4C
100
AcDbSymbolTableRecord
100
AcDbLinetypeTableRecord
  2
PHANTOMX2
 70
0
  3
Phantom (2x) ____________    ____    ____   _
 72
65
 73
6
 40
127.0000000000000142
 49
63.5
 74
0
 49
-12.6999999999999993
 74
0
 49
12.6999999999999993
 74
0
 49
-12.6999999999999993
 74
0
 49
12.6999999999999993
 74
0
 49
-12.6999999999999993
 74
0
  0
LTYPE
  5
4D
100
AcDbSymbolTableRecord
100
AcDbLinetypeTableRecord
  2
DIVIDE
 70
0
  3
Divide ____ . . ____ . . ____ . . ____ . . ____
 72
65
 73
6
 40
31.7500000000000036
 49
12.6999999999999993
 74
0
 49
-6.2999999999999998
 74
0
 49
0.1
 74
0
 49
-6.25
 74
0
 49
0.1
 74
0
 49
-6.2999999999999998
 74
0
  0
LTYPE
  5
4E
100
AcDbSymbolTableRecord
100
AcDbLinetypeTableRecord
  2
HIDDEN
 70
0
  3
Hidden __ __ __ __ __ __ __ __ __ __ __ __ __ __
 72
65
 73
2
 40
9.5249999999999986
 49
6.3499999999999996
 74
0
 49
-3.1749999999999998
 74
0
  0
LTYPE
  5
4F
100
AcDbSymbolTableRecord
100
AcDbLinetypeTableRecord
  2
ACAD_ISO06W100
 70
0
  3
ISO long-dash triple-dot ____ ... ____ ... ____
 72
65
 73
8
 40
36.0000000000000071
 49
24.0
 74
0
 49
-2.9500000000000002
 74
0
 49
0.1
 74
0
 49
-2.9000000000000004
 74
0
 49
0.1
 74
0
 49
-2.9000000000000004
 74
0
 49
0.1
 74
0
 49
-2.9500000000000002
 74
0
  0
LTYPE
  5
50
100
AcDbSymbolTableRecord
100
AcDbLinetypeTableRecord
  2
DIVIDE2
 70
0
  3
Divide (.5x) __..__..__..__..__..__..__..__.._
 72
65
 73
6
 40
15.8749999999999982
 49
6.3499999999999996
 74
0
 49
-3.125
 74
0
 49
0.1
 74
0
 49
-3.0750000000000002
 74
0
 49
0.1
 74
0
 49
-3.125
 74
0
  0
LTYPE
  5
51
100
AcDbSymbolTableRecord
100
AcDbLinetypeTableRecord
  2
DASHDOT2
 70
0
  3
Dash dot (.5x) _._._._._._._._._._._._._._._.
 72
65
 73
4
 40
12.6999999999999993
 49
6.3499999999999996
 74
0
 49
-3.125
 74
0
 49
0.1
 74
0
 49
-3.125
 74
0
  0
LTYPE
  5
52
100
AcDbSymbolTableRecord
100
AcDbLinetypeTableRecord
  2
DOTX2
 70
0
  3
Dot (2x) .  .  .  .  .  .  .  .  .  .  .  .  .  .
 72
65
 73
2
 40
12.6999999999999993
 49
0.1
 74
0
 49
-12.5999999999999996
 74
0
  0
LTYPE
  5
53
100
AcDbSymbolTableRecord
100
AcDbLinetypeTableRecord
  2
DIVIDEX2
 70
0
  3
Divide (2x) ________  .  .  ________  .  .  _
 72
65
 73
6
 40
63.5
 49
25.3999999999999986
 74
0
 49
-12.6499999999999986
 74
0
 49
0.1
 74
0
 49
-12.5999999999999979
 74
0
 49
0.1
 74
0
 49
-12.6499999999999986
 74
0
  0
LTYPE
  5
54
100
AcDbSymbolTableRecord
100
AcDbLinetypeTableRecord
  2
DOT
 70
0
  3
Dot . . . . . . . . . . . . . . . . . . . . . . . .
 72
65
 73
2
 40
6.3499999999999996
 49
0.1
 74
0
 49
-6.25
 74
0
  0
LTYPE
  5
55
100
AcDbSymbolTableRecord
100
AcDbLinetypeTableRecord
  2
ACAD_ISO12W100
 70
0
  3
ISO dash double-dot __ . . __ . . __ . . __ . . 
 72
65
 73
6
 40
21.0
 49
12.0
 74
0
 49
-2.9500000000000002
 74
0
 49
0.1
 74
0
 49
-2.9000000000000004
 74
0
 49
0.1
 74
0
 49
-2.9500000000000002
 74
0
  0
LTYPE
  5
56
100
AcDbSymbolTableRecord
100
AcDbLinetypeTableRecord
  2
CENTER2
 70
0
  3
Center (.5x) ___ _ ___ _ ___ _ ___ _ ___ _ ___
 72
65
 73
4
 40
28.5750000000000028
 49
19.0500000000000007
 74
0
 49
-3.1749999999999998
 74
0
 49
3.1749999999999998
 74
0
 49
-3.1749999999999998
 74
0
  0
ENDTAB
  0
TABLE
  2
LAYER
  5
2
100
AcDbSymbolTable
 70
11
  0
LAYER
  5
57
100
AcDbSymbolTableRecord
100
AcDbLayerTableRecord
  2
passage_bielles
 70
0
 62
2
420
16776960
  6
Continuous
370
25
390
F
  0
LAYER
  5
58
100
AcDbSymbolTableRecord
100
AcDbLayerTableRecord
  2
trappe
 70
0
 62
7
420
0
  6
Continuous
370
25
390
F
  0
LAYER
  5
59
100
AcDbSymbolTableRecord
100
AcDbLayerTableRecord
  2
bielle
 70
0
 62
7
420
0
  6
Continuous
370
25
390
F
  0
LAYER
  5
5A
100
AcDbSymbolTableRecord
100
AcDbLayerTableRecord
  2
gabari
 70
0
 62
3
420
65280
  6
Continuous
370
25
390
F
  0
LAYER
  5
5B
100
AcDbSymbolTableRecord
100
AcDbLayerTableRecord
  2
moteur
 70
0
 62
30
420
16744192
  6
Continuous
370
25
390
F
  0
LAYER
  5
5C
100
AcDbSymbolTableRecord
100
AcDbLayerTableRecord
  2
trappe_o
 70
0
 62
9
420
12632256
  6
ACAD_ISO07W100
370
13
390
F
  0
LAYER
  5
5D
100
AcDbSymbolTableRecord
100
AcDbLayerTableRecord
  2
bielle_o
 70
0
 62
9
420
12632256
  6
ACAD_ISO07W100
370
13
390
F
  0
LAYER
  5
10
100
AcDbSymbolTableRecord
100
AcDbLayerTableRecord
  2
0
 70
0
 62
7
420
16777215
  6
Continuous
370
25
390
F
  0
LAYER
  5
5E
100
AcDbSymbolTableRecord
100
AcDbLayerTableRecord
  2
supports
 70
0
 62
6
420
16711935
  6
Continuous
370
25
390
F
  0
LAYER
  5
5F
100
AcDbSymbolTableRecord
100
AcDbLayerTableRecord
  2
passage
 70
0
 62
2
420
16776960
  6
Continuous
370
25
390
F
  0
LAYER
  5
60
100
AcDbSymbolTableRecord
100
AcDbLayerTableRecord
  2
cotes
 70
0
 62
54
420
8421376
  6
BORDER2
370
25
390
F
  0
ENDTAB
  0
TABLE
  2
STYLE
  5
3
100
AcDbSymbolTable
 70
1
  0
STYLE
  5
61
100
AcDbSymbolTableRecord
100
AcDbTextStyleTableRecord
  2
Standard
 70
0
 40
0.0
 41
1.0
 50
0.0
 71
0
 42
2.5
  3

  4

1001
ACAD
1000
txt
1071
0
  0
ENDTAB
  0
TABLE
  2
VIEW
  5
6
100
AcDbSymbolTable
 70
0
  0
ENDTAB
  0
TABLE
  2
UCS
  5
7
100
AcDbSymbolTable
 70
0
  0
ENDTAB
  0
TABLE
  2
APPID
  5
9
100
AcDbSymbolTable
 70
1
  0
APPID
  5
12
100
AcDbSymbolTableRecord
100
AcDbRegAppTableRecord
  2
ACAD
 70
0
  0
APPID
  5
62
100
AcDbSymbolTableRecord
100
AcDbRegAppTableRecord
  2
QCAD
 70
0
  0
ENDTAB
  0
TABLE
  2
DIMSTYLE
  5
A
100
AcDbSymbolTable
 70
1
100
AcDbDimStyleTable
 71
0
  0
DIMSTYLE
105
27
100
AcDbSymbolTableRecord
100
AcDbDimStyleTableRecord
  2
Standard
 41
2.5
 42
0.625
 43
3.75
 44
1.25
 70
0
 73
0
 74
0
 77
1
 78
8
140
2.5
141
2.5
143
0.03937007874016
147
0.625
171
3
172
1
271
2
272
2
274
3
278
44
283
0
284
8
340
61
  0
ENDTAB
  0
TABLE
  2
BLOCK_RECORD
  5
1
100
AcDbSymbolTable
 70
1
  0
BLOCK_RECORD
  5
1F
100
AcDbSymbolTableRecord
100
AcDbBlockTableRecord
  2
*Model_Space
340
22
  0
BLOCK_RECORD
  5
1B
100
AcDbSymbolTableRecord
100
AcDbBlockTableRecord
  2
*Paper_Space
340
1E
  0
BLOCK_RECORD
  5
23
100
AcDbSymbolTableRecord
100
AcDbBlockTableRecord
  2
*Paper_Space0
340
26
  0
BLOCK_RECORD
  5
63
100
AcDbSymbolTableRecord
100
AcDbBlockTableRecord
  2
passage_bielles
340
0
  0
BLOCK_RECORD
  5
64
100
AcDbSymbolTableRecord
100
AcDbBlockTableRecord
  2
trappe
340
0
  0
BLOCK_RECORD
  5
65
100
AcDbSymbolTableRecord
100
AcDbBlockTableRecord
  2
support_trappe
340
0
  0
BLOCK_RECORD
  5
66
100
AcDbSymbolTableRecord
100
AcDbBlockTableRecord
  2
moteur
340
0
  0
BLOCK_RECORD
  5
67
100
AcDbSymbolTableRecord
100
AcDbBlockTableRecord
  2
trappe_o
340
0
  0
BLOCK_RECORD
  5
68
100
AcDbSymbolTableRecord
100
AcDbBlockTableRecord
  2
support_moteur
340
0
  0
ENDTAB
  0
ENDSEC
  0
SECTION
  2
BLOCKS
  0
BLOCK
  5
20
100
AcDbEntity
  8
0
100
AcDbBlockBegin
  2
*Model_Space
 70
0
 10
0.0
 20
0.0
 30
0.0
  3
*Model_Space
  1

  0
ENDBLK
  5
21
100
AcDbEntity
  8
0
100
AcDbBlockEnd
  0
BLOCK
  5
1C
100
AcDbEntity
 67
1
  8
0
100
AcDbBlockBegin
  2
*Paper_Space
 70
0
 10
0.0
 20
0.0
 30
0.0
  3
*Paper_Space
  1

  0
ENDBLK
  5
1D
100
AcDbEntity
 67
1
  8
0
100
AcDbBlockEnd
  0
BLOCK
  5
24
100
AcDbEntity
  8
0
100
AcDbBlockBegin
  2
*Paper_Space0
 70
0
 10
0.0
 20
0.0
 30
0.0
  3
*Paper_Space0
  1

  0
ENDBLK
  5
25
100
AcDbEntity
  8
0
100
AcDbBlockEnd
  0
BLOCK
  5
69
100
AcDbEntity
  8
0
100
AcDbBlockBegin
  2
passage_bielles
 70
0
 10
0.0
 20
0.0
 30
0.0
  3
passage_bielles
  1

  0
LINE
  5
6A
100
AcDbEntity
  8
passage_bielles
 62
256
370
-1
 48
1.0
  6
BYLAYER
100
AcDbLine
 10
1.8699600213238412
 20
7.5
 30
0.0
 11
-21.2014958791557788
 21
19.767310704446885
 31
0.0
  0
LINE
  5
6B
100
AcDbEntity
  8
passage_bielles
 62
256
370
-1
 48
1.0
  6
BYLAYER
100
AcDbLine
 10
28.0
 20
7.5
 30
0.0
 11
1.8699600213238483
 21
7.5
 31
0.0
  0
LINE
  5
6C
100
AcDbEntity
  8
passage_bielles
 62
256
370
-1
 48
1.0
  6
BYLAYER
100
AcDbLine
 10
-1.8699600213238412
 20
-7.5
 30
0.0
 11
21.2014958791557788
 21
-19.767310704446885
 31
0.0
  0
LINE
  5
6D
100
AcDbEntity
  8
passage_bielles
 62
256
370
-1
 48
1.0
  6
BYLAYER
100
AcDbLine
 10
-28.0
 20
-7.5
 30
0.0
 11
-1.8699600213238483
 21
-7.5
 31
0.0
  0
LINE
  5
6E
100
AcDbEntity
  8
passage_bielles
 62
256
370
-1
 48
1.0
  6
BYLAYER
100
AcDbLine
 10
-21.2014958791557788
 20
19.767310704446885
 30
0.0
 11
-28.0
 21
-7.5
 31
0.0
  0
LINE
  5
6F
100
AcDbEntity
  8
passage_bielles
 62
256
370
-1
 48
1.0
  6
BYLAYER
100
AcDbLine
 10
28.0
 20
7.5
 30
0.0
 11
21.2014958791557788
 21
-19.767310704446885
 31
0.0
  0
ENDBLK
  5
70
100
AcDbEntity
  8
0
100
AcDbBlockEnd
  0
BLOCK
  5
71
100
AcDbEntity
  8
0
100
AcDbBlockBegin
  2
trappe
 70
0
 10
0.0
 20
0.0
 30
0.0
  3
trappe
  1

  0
LINE
  5
72
100
AcDbEntity
  8
trappe
 62
256
370
-1
 48
1.0
  6
BYLAYER
100
AcDbLine
 10
188.0
 20
-26.5
 30
0.0
 11
354.5
 21
-26.5
 31
0.0
  0
LINE
  5
73
100
AcDbEntity
  8
trappe
 62
256
370
-1
 48
1.0
  6
BYLAYER
100
AcDbLine
 10
356.5
 20
-24.5
 30
0.0
 11
356.5
 21
4.5
 31
0.0
  0
LINE
  5
74
100
AcDbEntity
  8
trappe
 62
256
370
-1
 48
1.0
  6
BYLAYER
100
AcDbLine
 10
176.5
 20
-6.5
 30
0.0
 11
176.5
 21
-14.9999999999999982
 31
0.0
  0
LINE
  5
75
100
AcDbEntity
  8
trappe
 62
256
370
-1
 48
1.0
  6
BYLAYER
100
AcDbLine
 10
0.0
 20
-6.5
 30
0.0
 11
176.5
 21
-6.5
 31
0.0
  0
LINE
  5
76
100
AcDbEntity
  8
trappe
 62
256
370
-1
 48
1.0
  6
BYLAYER
100
AcDbLine
 10
354.5
 20
6.5
 30
0.0
 11
0.0
 21
6.5
 31
0.0
  0
ARC
  5
77
100
AcDbEntity
  8
trappe
 62
256
370
-1
 48
1.0
  6
BYLAYER
100
AcDbCircle
 10
0.0
 20
0.0
 30
0.0
 40
6.5
100
AcDbArc
 50
90.0
 51
270.0
  0
CIRCLE
  5
78
100
AcDbEntity
  8
trappe
 62
256
370
-1
 48
1.0
  6
BYLAYER
100
AcDbCircle
 10
0.0
 20
0.0
 30
0.0
 40
2.5
  0
ARC
  5
79
100
AcDbEntity
  8
trappe
 62
256
370
-1
 48
1.0
  6
BYLAYER
100
AcDbCircle
 10
188.0
 20
-14.9999999999999964
 30
0.0
 40
11.5000000000000036
100
AcDbArc
 50
180.0
 51
270.0
  0
CIRCLE
  5
7A
100
AcDbEntity
  8
trappe
 62
256
370
-1
 48
1.0
  6
BYLAYER
100
AcDbCircle
 10
150.0
 20
0.0
 30
0.0
 40
2.5
  0
ARC
  5
7B
100
AcDbEntity
  8
trappe
 62
256
370
-1
 48
1.0
  6
BYLAYER
100
AcDbCircle
 10
354.5
 20
4.5
 30
0.0
 40
2.0
100
AcDbArc
 50
0.0
 51
90.0
  0
ARC
  5
7C
100
AcDbEntity
  8
trappe
 62
256
370
-1
 48
1.0
  6
BYLAYER
100
AcDbCircle
 10
354.5
 20
-24.5
 30
0.0
 40
2.0
100
AcDbArc
 50
270.0
 51
0.0
  0
ENDBLK
  5
7D
100
AcDbEntity
  8
0
100
AcDbBlockEnd
  0
BLOCK
  5
7E
100
AcDbEntity
  8
0
100
AcDbBlockBegin
  2
support_trappe
 70
0
 10
0.0
 20
0.0
 30
0.0
  3
support_trappe
  1

  0
LINE
  5
7F
100
AcDbEntity
  8
supports
 62
256
370
-1
 48
1.0
  6
BYLAYER
100
AcDbLine
 10
-28.5
 20
-28.5
 30
0.0
 11
51.5
 21
-28.5
 31
0.0
  0
LINE
  5
80
100
AcDbEntity
  8
supports
 62
256
370
-1
 48
1.0
  6
BYLAYER
100
AcDbLine
 10
-2.5
 20
0.0
 30
0.0
 11
-2.4950700000000001
 21
-0.156976
 31
0.0
  0
LINE
  5
81
100
AcDbEntity
  8
supports
 62
256
370
-1
 48
1.0
  6
BYLAYER
100
AcDbLine
 10
51.5
 20
-28.5
 30
0.0
 11
51.5
 21
-8.5
 31
0.0
  0
LINE
  5
82
100
AcDbEntity
  8
supports
 62
256
370
-1
 48
1.0
  6
BYLAYER
100
AcDbLine
 10
-2.4950700000000001
 20
-0.156976
 30
0.0
 11
-2.4802900000000001
 21
-0.313333
 31
0.0
  0
LINE
  5
83
100
AcDbEntity
  8
supports
 62
256
370
-1
 48
1.0
  6
BYLAYER
100
AcDbLine
 10
51.5
 20
-8.5
 30
0.0
 11
-8.5
 21
-8.5
 31
0.0
  0
LINE
  5
84
100
AcDbEntity
  8
supports
 62
256
370
-1
 48
1.0
  6
BYLAYER
100
AcDbLine
 10
-2.4802900000000001
 20
-0.313333
 30
0.0
 11
-2.4557199999999999
 21
-0.468452
 31
0.0
  0
LINE
  5
85
100
AcDbEntity
  8
supports
 62
256
370
-1
 48
1.0
  6
BYLAYER
100
AcDbLine
 10
-8.5
 20
-8.5
 30
0.0
 11
-8.5
 21
6.5
 31
0.0
  0
LINE
  5
86
100
AcDbEntity
  8
supports
 62
256
370
-1
 48
1.0
  6
BYLAYER
100
AcDbLine
 10
-2.4557199999999999
 20
-0.468452
 30
0.0
 11
-2.4214600000000002
 21
-0.6217240000000001
 31
0.0
  0
LINE
  5
87
100
AcDbEntity
  8
supports
 62
256
370
-1
 48
1.0
  6
BYLAYER
100
AcDbLine
 10
-8.5
 20
6.5
 30
0.0
 11
-28.5
 21
6.5
 31
0.0
  0
LINE
  5
88
100
AcDbEntity
  8
supports
 62
256
370
-1
 48
1.0
  6
BYLAYER
100
AcDbLine
 10
-2.4214600000000002
 20
-0.6217240000000001
 30
0.0
 11
-2.37764
 21
-0.772542
 31
0.0
  0
LINE
  5
89
100
AcDbEntity
  8
supports
 62
256
370
-1
 48
1.0
  6
BYLAYER
100
AcDbLine
 10
-28.5
 20
6.5
 30
0.0
 11
-28.5
 21
-28.5
 31
0.0
  0
LINE
  5
8A
100
AcDbEntity
  8
supports
 62
256
370
-1
 48
1.0
  6
BYLAYER
100
AcDbLine
 10
-2.37764
 20
-0.772542
 30
0.0
 11
-2.3244400000000001
 21
-0.920311
 31
0.0
  0
LINE
  5
8B
100
AcDbEntity
  8
supports
 62
256
370
-1
 48
1.0
  6
BYLAYER
100
AcDbLine
 10
-2.4500000000000002
 20
0.0
 30
0.0
 11
-2.44516
 21
-0.153836
 31
0.0
  0
LINE
  5
8C
100
AcDbEntity
  8
supports
 62
256
370
-1
 48
1.0
  6
BYLAYER
100
AcDbLine
 10
-2.3244400000000001
 20
-0.920311
 30
0.0
 11
-2.26207
 21
-1.0644499999999999
 31
0.0
  0
LINE
  5
8D
100
AcDbEntity
  8
supports
 62
256
370
-1
 48
1.0
  6
BYLAYER
100
AcDbLine
 10
-2.44516
 20
-0.153836
 30
0.0
 11
-2.4306800000000002
 21
-0.307066
 31
0.0
  0
LINE
  5
8E
100
AcDbEntity
  8
supports
 62
256
370
-1
 48
1.0
  6
BYLAYER
100
AcDbLine
 10
-2.26207
 20
-1.0644499999999999
 30
0.0
 11
-2.1907700000000001
 21
-1.20438
 31
0.0
  0
LINE
  5
8F
100
AcDbEntity
  8
supports
 62
256
370
-1
 48
1.0
  6
BYLAYER
100
AcDbLine
 10
-2.4306800000000002
 20
-0.307066
 30
0.0
 11
-2.4066000000000001
 21
-0.459084
 31
0.0
  0
LINE
  5
90
100
AcDbEntity
  8
supports
 62
256
370
-1
 48
1.0
  6
BYLAYER
100
AcDbLine
 10
-2.1907700000000001
 20
-1.20438
 30
0.0
 11
-2.1108199999999999
 21
-1.3395699999999999
 31
0.0
  0
LINE
  5
91
100
AcDbEntity
  8
supports
 62
256
370
-1
 48
1.0
  6
BYLAYER
100
AcDbLine
 10
-2.4066000000000001
 20
-0.459084
 30
0.0
 11
-2.37303
 21
-0.60929
 31
0.0
  0
LINE
  5
92
100
AcDbEntity
  8
supports
 62
256
370
-1
 48
1.0
  6
BYLAYER
100
AcDbLine
 10
-2.1108199999999999
 20
-1.3395699999999999
 30
0.0
 11
-2.0225399999999998
 21
-1.46946
 31
0.0
  0
LINE
  5
93
100
AcDbEntity
  8
supports
 62
256
370
-1
 48
1.0
  6
BYLAYER
100
AcDbLine
 10
-2.37303
 20
-0.60929
 30
0.0
 11
-2.3300900000000002
 21
-0.757092
 31
0.0
  0
LINE
  5
94
100
AcDbEntity
  8
supports
 62
256
370
-1
 48
1.0
  6
BYLAYER
100
AcDbLine
 10
-2.0225399999999998
 20
-1.46946
 30
0.0
 11
-1.92628
 21
-1.5935600000000001
 31
0.0
  0
LINE
  5
95
100
AcDbEntity
  8
supports
 62
256
370
-1
 48
1.0
  6
BYLAYER
100
AcDbLine
 10
-2.3300900000000002
 20
-0.757092
 30
0.0
 11
-2.2779500000000001
 21
-0.901905
 31
0.0
  0
LINE
  5
96
100
AcDbEntity
  8
supports
 62
256
370
-1
 48
1.0
  6
BYLAYER
100
AcDbLine
 10
-1.92628
 20
-1.5935600000000001
 30
0.0
 11
-1.8224199999999999
 21
-1.7113700000000001
 31
0.0
  0
LINE
  5
97
100
AcDbEntity
  8
supports
 62
256
370
-1
 48
1.0
  6
BYLAYER
100
AcDbLine
 10
-2.2779500000000001
 20
-0.901905
 30
0.0
 11
-2.2168299999999999
 21
-1.0431600000000001
 31
0.0
  0
LINE
  5
98
100
AcDbEntity
  8
supports
 62
256
370
-1
 48
1.0
  6
BYLAYER
100
AcDbLine
 10
-1.8224199999999999
 20
-1.7113700000000001
 30
0.0
 11
-1.7113700000000001
 21
-1.8224199999999999
 31
0.0
  0
LINE
  5
99
100
AcDbEntity
  8
supports
 62
256
370
-1
 48
1.0
  6
BYLAYER
100
AcDbLine
 10
-2.2168299999999999
 20
-1.0431600000000001
 30
0.0
 11
-2.1469499999999999
 21
-1.1802999999999999
 31
0.0
  0
LINE
  5
9A
100
AcDbEntity
  8
supports
 62
256
370
-1
 48
1.0
  6
BYLAYER
100
AcDbLine
 10
-1.7113700000000001
 20
-1.8224199999999999
 30
0.0
 11
-1.5935600000000001
 21
-1.92628
 31
0.0
  0
LINE
  5
9B
100
AcDbEntity
  8
supports
 62
256
370
-1
 48
1.0
  6
BYLAYER
100
AcDbLine
 10
-2.1469499999999999
 20
-1.1802999999999999
 30
0.0
 11
-2.0686
 21
-1.3127800000000001
 31
0.0
  0
LINE
  5
9C
100
AcDbEntity
  8
supports
 62
256
370
-1
 48
1.0
  6
BYLAYER
100
AcDbLine
 10
-1.5935600000000001
 20
-1.92628
 30
0.0
 11
-1.46946
 21
-2.0225399999999998
 31
0.0
  0
LINE
  5
9D
100
AcDbEntity
  8
supports
 62
256
370
-1
 48
1.0
  6
BYLAYER
100
AcDbLine
 10
-2.0686
 20
-1.3127800000000001
 30
0.0
 11
-1.9820899999999999
 21
-1.44007
 31
0.0
  0
LINE
  5
9E
100
AcDbEntity
  8
supports
 62
256
370
-1
 48
1.0
  6
BYLAYER
100
AcDbLine
 10
-1.46946
 20
-2.0225399999999998
 30
0.0
 11
-1.3395699999999999
 21
-2.1108199999999999
 31
0.0
  0
LINE
  5
9F
100
AcDbEntity
  8
supports
 62
256
370
-1
 48
1.0
  6
BYLAYER
100
AcDbLine
 10
-1.9820899999999999
 20
-1.44007
 30
0.0
 11
-1.8877600000000001
 21
-1.56169
 31
0.0
  0
LINE
  5
A0
100
AcDbEntity
  8
supports
 62
256
370
-1
 48
1.0
  6
BYLAYER
100
AcDbLine
 10
-1.3395699999999999
 20
-2.1108199999999999
 30
0.0
 11
-1.20438
 21
-2.1907700000000001
 31
0.0
  0
LINE
  5
A1
100
AcDbEntity
  8
supports
 62
256
370
-1
 48
1.0
  6
BYLAYER
100
AcDbLine
 10
-1.8877600000000001
 20
-1.56169
 30
0.0
 11
-1.7859700000000001
 21
-1.6771400000000001
 31
0.0
  0
LINE
  5
A2
100
AcDbEntity
  8
supports
 62
256
370
-1
 48
1.0
  6
BYLAYER
100
AcDbLine
 10
-1.20438
 20
-2.1907700000000001
 30
0.0
 11
-1.0644499999999999
 21
-2.26207
 31
0.0
  0
LINE
  5
A3
100
AcDbEntity
  8
supports
 62
256
370
-1
 48
1.0
  6
BYLAYER
100
AcDbLine
 10
-1.7859700000000001
 20
-1.6771400000000001
 30
0.0
 11
-1.6771400000000001
 21
-1.7859700000000001
 31
0.0
  0
LINE
  5
A4
100
AcDbEntity
  8
supports
 62
256
370
-1
 48
1.0
  6
BYLAYER
100
AcDbLine
 10
-1.0644499999999999
 20
-2.26207
 30
0.0
 11
-0.920311
 21
-2.3244400000000001
 31
0.0
  0
LINE
  5
A5
100
AcDbEntity
  8
supports
 62
256
370
-1
 48
1.0
  6
BYLAYER
100
AcDbLine
 10
-1.6771400000000001
 20
-1.7859700000000001
 30
0.0
 11
-1.56169
 21
-1.8877600000000001
 31
0.0
  0
LINE
  5
A6
100
AcDbEntity
  8
supports
 62
256
370
-1
 48
1.0
  6
BYLAYER
100
AcDbLine
 10
-0.920311
 20
-2.3244400000000001
 30
0.0
 11
-0.772542
 21
-2.37764
 31
0.0
  0
LINE
  5
A7
100
AcDbEntity
  8
supports
 62
256
370
-1
 48
1.0
  6
BYLAYER
100
AcDbLine
 10
-1.56169
 20
-1.8877600000000001
 30
0.0
 11
-1.44007
 21
-1.9820899999999999
 31
0.0
  0
LINE
  5
A8
100
AcDbEntity
  8
supports
 62
256
370
-1
 48
1.0
  6
BYLAYER
100
AcDbLine
 10
-0.772542
 20
-2.37764
 30
0.0
 11
-0.6217240000000001
 21
-2.4214600000000002
 31
0.0
  0
LINE
  5
A9
100
AcDbEntity
  8
supports
 62
256
370
-1
 48
1.0
  6
BYLAYER
100
AcDbLine
 10
-1.44007
 20
-1.9820899999999999
 30
0.0
 11
-1.3127800000000001
 21
-2.0686
 31
0.0
  0
LINE
  5
AA
100
AcDbEntity
  8
supports
 62
256
370
-1
 48
1.0
  6
BYLAYER
100
AcDbLine
 10
-0.6217240000000001
 20
-2.4214600000000002
 30
0.0
 11
-0.468452
 21
-2.4557199999999999
 31
0.0
  0
LINE
  5
AB
100
AcDbEntity
  8
supports
 62
256
370
-1
 48
1.0
  6
BYLAYER
100
AcDbLine
 10
-1.3127800000000001
 20
-2.0686
 30
0.0
 11
-1.1802999999999999
 21
-2.1469499999999999
 31
0.0
  0
LINE
  5
AC
100
AcDbEntity
  8
supports
 62
256
370
-1
 48
1.0
  6
BYLAYER
100
AcDbLine
 10
-0.468452
 20
-2.4557199999999999
 30
0.0
 11
-0.313333
 21
-2.4802900000000001
 31
0.0
  0
LINE
  5
AD
100
AcDbEntity
  8
supports
 62
256
370
-1
 48
1.0
  6
BYLAYER
100
AcDbLine
 10
-1.1802999999999999
 20
-2.1469499999999999
 30
0.0
 11
-1.0431600000000001
 21
-2.2168299999999999
 31
0.0
  0
LINE
  5
AE
100
AcDbEntity
  8
supports
 62
256
370
-1
 48
1.0
  6
BYLAYER
100
AcDbLine
 10
-0.313333
 20
-2.4802900000000001
 30
0.0
 11
-0.156976
 21
-2.4950700000000001
 31
0.0
  0
LINE
  5
AF
100
AcDbEntity
  8
supports
 62
256
370
-1
 48
1.0
  6
BYLAYER
100
AcDbLine
 10
-1.0431600000000001
 20
-2.2168299999999999
 30
0.0
 11
-0.901905
 21
-2.2779500000000001
 31
0.0
  0
LINE
  5
B0
100
AcDbEntity
  8
supports
 62
256
370
-1
 48
1.0
  6
BYLAYER
100
AcDbLine
 10
-0.156976
 20
-2.4950700000000001
 30
0.0
 11
0.0
 21
-2.5
 31
0.0
  0
LINE
  5
B1
100
AcDbEntity
  8
supports
 62
256
370
-1
 48
1.0
  6
BYLAYER
100
AcDbLine
 10
-0.901905
 20
-2.2779500000000001
 30
0.0
 11
-0.757092
 21
-2.3300900000000002
 31
0.0
  0
LINE
  5
B2
100
AcDbEntity
  8
supports
 62
256
370
-1
 48
1.0
  6
BYLAYER
100
AcDbLine
 10
0.0
 20
-2.5
 30
0.0
 11
0.156976
 21
-2.4950700000000001
 31
0.0
  0
LINE
  5
B3
100
AcDbEntity
  8
supports
 62
256
370
-1
 48
1.0
  6
BYLAYER
100
AcDbLine
 10
-0.757092
 20
-2.3300900000000002
 30
0.0
 11
-0.60929
 21
-2.37303
 31
0.0
  0
LINE
  5
B4
100
AcDbEntity
  8
supports
 62
256
370
-1
 48
1.0
  6
BYLAYER
100
AcDbLine
 10
0.156976
 20
-2.4950700000000001
 30
0.0
 11
0.313333
 21
-2.4802900000000001
 31
0.0
  0
LINE
  5
B5
100
AcDbEntity
  8
supports
 62
256
370
-1
 48
1.0
  6
BYLAYER
100
AcDbLine
 10
-0.60929
 20
-2.37303
 30
0.0
 11
-0.459084
 21
-2.4066000000000001
 31
0.0
  0
LINE
  5
B6
100
AcDbEntity
  8
supports
 62
256
370
-1
 48
1.0
  6
BYLAYER
100
AcDbLine
 10
0.313333
 20
-2.4802900000000001
 30
0.0
 11
0.468452
 21
-2.4557199999999999
 31
0.0
  0
LINE
  5
B7
100
AcDbEntity
  8
supports
 62
256
370
-1
 48
1.0
  6
BYLAYER
100
AcDbLine
 10
-0.459084
 20
-2.4066000000000001
 30
0.0
 11
-0.307066
 21
-2.4306800000000002
 31
0.0
  0
LINE
  5
B8
100
AcDbEntity
  8
supports
 62
256
370
-1
 48
1.0
  6
BYLAYER
100
AcDbLine
 10
0.468452
 20
-2.4557199999999999
 30
0.0
 11
0.6217240000000001
 21
-2.4214600000000002
 31
0.0
  0
LINE
  5
B9
100
AcDbEntity
  8
supports
 62
256
370
-1
 48
1.0
  6
BYLAYER
100
AcDbLine
 10
-0.307066
 20
-2.4306800000000002
 30
0.0
 11
-0.153836
 21
-2.44516
 31
0.0
  0
LINE
  5
BA
100
AcDbEntity
  8
supports
 62
256
370
-1
 48
1.0
  6
BYLAYER
100
AcDbLine
 10
0.6217240000000001
 20
-2.4214600000000002
 30
0.0
 11
0.772542
 21
-2.37764
 31
0.0
  0
LINE
  5
BB
100
AcDbEntity
  8
supports
 62
256
370
-1
 48
1.0
  6
BYLAYER
100
AcDbLine
 10
-0.153836
 20
-2.44516
 30
0.0
 11
0.0
 21
-2.4500000000000002
 31
0.0
  0
LINE
  5
BC
100
AcDbEntity
  8
supports
 62
256
370
-1
 48
1.0
  6
BYLAYER
100
AcDbLine
 10
0.772542
 20
-2.37764
 30
0.0
 11
0.920311
 21
-2.3244400000000001
 31
0.0
  0
LINE
  5
BD
100
AcDbEntity
  8
supports
 62
256
370
-1
 48
1.0
  6
BYLAYER
100
AcDbLine
 10
0.0
 20
-2.4500000000000002
 30
0.0
 11
0.153836
 21
-2.44516
 31
0.0
  0
LINE
  5
BE
100
AcDbEntity
  8
supports
 62
256
370
-1
 48
1.0
  6
BYLAYER
100
AcDbLine
 10
0.920311
 20
-2.3244400000000001
 30
0.0
 11
1.0644499999999999
 21
-2.26207
 31
0.0
  0
LINE
  5
BF
100
AcDbEntity
  8
supports
 62
256
370
-1
 48
1.0
  6
BYLAYER
100
AcDbLine
 10
0.153836
 20
-2.44516
 30
0.0
 11
0.307066
 21
-2.4306800000000002
 31
0.0
  0
LINE
  5
C0
100
AcDbEntity
  8
supports
 62
256
370
-1
 48
1.0
  6
BYLAYER
100
AcDbLine
 10
1.0644499999999999
 20
-2.26207
 30
0.0
 11
1.20438
 21
-2.1907700000000001
 31
0.0
  0
LINE
  5
C1
100
AcDbEntity
  8
supports
 62
256
370
-1
 48
1.0
  6
BYLAYER
100
AcDbLine
 10
0.307066
 20
-2.4306800000000002
 30
0.0
 11
0.459084
 21
-2.4066000000000001
 31
0.0
  0
LINE
  5
C2
100
AcDbEntity
  8
supports
 62
256
370
-1
 48
1.0
  6
BYLAYER
100
AcDbLine
 10
1.20438
 20
-2.1907700000000001
 30
0.0
 11
1.3395699999999999
 21
-2.1108199999999999
 31
0.0
  0
LINE
  5
C3
100
AcDbEntity
  8
supports
 62
256
370
-1
 48
1.0
  6
BYLAYER
100
AcDbLine
 10
0.459084
 20
-2.4066000000000001
 30
0.0
 11
0.60929
 21
-2.37303
 31
0.0
  0
LINE
  5
C4
100
AcDbEntity
  8
supports
 62
256
370
-1
 48
1.0
  6
BYLAYER
100
AcDbLine
 10
1.3395699999999999
 20
-2.1108199999999999
 30
0.0
 11
1.46946
 21
-2.0225399999999998
 31
0.0
  0
LINE
  5
C5
100
AcDbEntity
  8
supports
 62
256
370
-1
 48
1.0
  6
BYLAYER
100
AcDbLine
 10
0.60929
 20
-2.37303
 30
0.0
 11
0.757092
 21
-2.3300900000000002
 31
0.0
  0
LINE
  5
C6
100
AcDbEntity
  8
supports
 62
256
370
-1
 48
1.0
  6
BYLAYER
100
AcDbLine
 10
1.46946
 20
-2.0225399999999998
 30
0.0
 11
1.5935600000000001
 21
-1.92628
 31
0.0
  0
LINE
  5
C7
100
AcDbEntity
  8
supports
 62
256
370
-1
 48
1.0
  6
BYLAYER
100
AcDbLine
 10
0.757092
 20
-2.3300900000000002
 30
0.0
 11
0.901905
 21
-2.2779500000000001
 31
0.0
  0
LINE
  5
C8
100
AcDbEntity
  8
supports
 62
256
370
-1
 48
1.0
  6
BYLAYER
100
AcDbLine
 10
1.5935600000000001
 20
-1.92628
 30
0.0
 11
1.7113700000000001
 21
-1.8224199999999999
 31
0.0
  0
LINE
  5
C9
100
AcDbEntity
  8
supports
 62
256
370
-1
 48
1.0
  6
BYLAYER
100
AcDbLine
 10
0.901905
 20
-2.2779500000000001
 30
0.0
 11
1.0431600000000001
 21
-2.2168299999999999
 31
0.0
  0
LINE
  5
CA
100
AcDbEntity
  8
supports
 62
256
370
-1
 48
1.0
  6
BYLAYER
100
AcDbLine
 10
1.7113700000000001
 20
-1.8224199999999999
 30
0.0
 11
1.8224199999999999
 21
-1.7113700000000001
 31
0.0
  0
LINE
  5
CB
100
AcDbEntity
  8
supports
 62
256
370
-1
 48
1.0
  6
BYLAYER
100
AcDbLine
 10
1.0431600000000001
 20
-2.2168299999999999
 30
0.0
 11
1.1802999999999999
 21
-2.1469499999999999
 31
0.0
  0
LINE
  5
CC
100
AcDbEntity
  8
supports
 62
256
370
-1
 48
1.0
  6
BYLAYER
100
AcDbLine
 10
1.8224199999999999
 20
-1.7113700000000001
 30
0.0
 11
1.92628
 21
-1.5935600000000001
 31
0.0
  0
LINE
  5
CD
100
AcDbEntity
  8
supports
 62
256
370
-1
 48
1.0
  6
BYLAYER
100
AcDbLine
 10
1.1802999999999999
 20
-2.1469499999999999
 30
0.0
 11
1.3127800000000001
 21
-2.0686
 31
0.0
  0
LINE
  5
CE
100
AcDbEntity
  8
supports
 62
256
370
-1
 48
1.0
  6
BYLAYER
100
AcDbLine
 10
1.92628
 20
-1.5935600000000001
 30
0.0
 11
2.0225399999999998
 21
-1.46946
 31
0.0
  0
LINE
  5
CF
100
AcDbEntity
  8
supports
 62
256
370
-1
 48
1.0
  6
BYLAYER
100
AcDbLine
 10
1.3127800000000001
 20
-2.0686
 30
0.0
 11
1.44007
 21
-1.9820899999999999
 31
0.0
  0
LINE
  5
D0
100
AcDbEntity
  8
supports
 62
256
370
-1
 48
1.0
  6
BYLAYER
100
AcDbLine
 10
2.0225399999999998
 20
-1.46946
 30
0.0
 11
2.1108199999999999
 21
-1.3395699999999999
 31
0.0
  0
LINE
  5
D1
100
AcDbEntity
  8
supports
 62
256
370
-1
 48
1.0
  6
BYLAYER
100
AcDbLine
 10
1.44007
 20
-1.9820899999999999
 30
0.0
 11
1.56169
 21
-1.8877600000000001
 31
0.0
  0
LINE
  5
D2
100
AcDbEntity
  8
supports
 62
256
370
-1
 48
1.0
  6
BYLAYER
100
AcDbLine
 10
2.1108199999999999
 20
-1.3395699999999999
 30
0.0
 11
2.1907700000000001
 21
-1.20438
 31
0.0
  0
LINE
  5
D3
100
AcDbEntity
  8
supports
 62
256
370
-1
 48
1.0
  6
BYLAYER
100
AcDbLine
 10
1.56169
 20
-1.8877600000000001
 30
0.0
 11
1.6771400000000001
 21
-1.7859700000000001
 31
0.0
  0
LINE
  5
D4
100
AcDbEntity
  8
supports
 62
256
370
-1
 48
1.0
  6
BYLAYER
100
AcDbLine
 10
2.1907700000000001
 20
-1.20438
 30
0.0
 11
2.26207
 21
-1.0644499999999999
 31
0.0
  0
LINE
  5
D5
100
AcDbEntity
  8
supports
 62
256
370
-1
 48
1.0
  6
BYLAYER
100
AcDbLine
 10
1.6771400000000001
 20
-1.7859700000000001
 30
0.0
 11
1.7859700000000001
 21
-1.6771400000000001
 31
0.0
  0
LINE
  5
D6
100
AcDbEntity
  8
supports
 62
256
370
-1
 48
1.0
  6
BYLAYER
100
AcDbLine
 10
2.26207
 20
-1.0644499999999999
 30
0.0
 11
2.3244400000000001
 21
-0.920311
 31
0.0
  0
LINE
  5
D7
100
AcDbEntity
  8
supports
 62
256
370
-1
 48
1.0
  6
BYLAYER
100
AcDbLine
 10
1.7859700000000001
 20
-1.6771400000000001
 30
0.0
 11
1.8877600000000001
 21
-1.56169
 31
0.0
  0
LINE
  5
D8
100
AcDbEntity
  8
supports
 62
256
370
-1
 48
1.0
  6
BYLAYER
100
AcDbLine
 10
2.3244400000000001
 20
-0.920311
 30
0.0
 11
2.37764
 21
-0.772542
 31
0.0
  0
LINE
  5
D9
100
AcDbEntity
  8
supports
 62
256
370
-1
 48
1.0
  6
BYLAYER
100
AcDbLine
 10
1.8877600000000001
 20
-1.56169
 30
0.0
 11
1.9820899999999999
 21
-1.44007
 31
0.0
  0
LINE
  5
DA
100
AcDbEntity
  8
supports
 62
256
370
-1
 48
1.0
  6
BYLAYER
100
AcDbLine
 10
2.37764
 20
-0.772542
 30
0.0
 11
2.4214600000000002
 21
-0.6217240000000001
 31
0.0
  0
LINE
  5
DB
100
AcDbEntity
  8
supports
 62
256
370
-1
 48
1.0
  6
BYLAYER
100
AcDbLine
 10
1.9820899999999999
 20
-1.44007
 30
0.0
 11
2.0686
 21
-1.3127800000000001
 31
0.0
  0
LINE
  5
DC
100
AcDbEntity
  8
supports
 62
256
370
-1
 48
1.0
  6
BYLAYER
100
AcDbLine
 10
2.4214600000000002
 20
-0.6217240000000001
 30
0.0
 11
2.4557199999999999
 21
-0.468452
 31
0.0
  0
LINE
  5
DD
100
AcDbEntity
  8
supports
 62
256
370
-1
 48
1.0
  6
BYLAYER
100
AcDbLine
 10
2.0686
 20
-1.3127800000000001
 30
0.0
 11
2.1469499999999999
 21
-1.1802999999999999
 31
0.0
  0
LINE
  5
DE
100
AcDbEntity
  8
supports
 62
256
370
-1
 48
1.0
  6
BYLAYER
100
AcDbLine
 10
2.4557199999999999
 20
-0.468452
 30
0.0
 11
2.4802900000000001
 21
-0.313333
 31
0.0
  0
LINE
  5
DF
100
AcDbEntity
  8
supports
 62
256
370
-1
 48
1.0
  6
BYLAYER
100
AcDbLine
 10
2.1469499999999999
 20
-1.1802999999999999
 30
0.0
 11
2.2168299999999999
 21
-1.0431600000000001
 31
0.0
  0
LINE
  5
E0
100
AcDbEntity
  8
supports
 62
256
370
-1
 48
1.0
  6
BYLAYER
100
AcDbLine
 10
2.4802900000000001
 20
-0.313333
 30
0.0
 11
2.4950700000000001
 21
-0.156976
 31
0.0
  0
LINE
  5
E1
100
AcDbEntity
  8
supports
 62
256
370
-1
 48
1.0
  6
BYLAYER
100
AcDbLine
 10
2.2168299999999999
 20
-1.0431600000000001
 30
0.0
 11
2.2779500000000001
 21
-0.901905
 31
0.0
  0
LINE
  5
E2
100
AcDbEntity
  8
supports
 62
256
370
-1
 48
1.0
  6
BYLAYER
100
AcDbLine
 10
2.4950700000000001
 20
-0.156976
 30
0.0
 11
2.5
 21
0.0
 31
0.0
  0
LINE
  5
E3
100
AcDbEntity
  8
supports
 62
256
370
-1
 48
1.0
  6
BYLAYER
100
AcDbLine
 10
2.2779500000000001
 20
-0.901905
 30
0.0
 11
2.3300900000000002
 21
-0.757092
 31
0.0
  0
LINE
  5
E4
100
AcDbEntity
  8
supports
 62
256
370
-1
 48
1.0
  6
BYLAYER
100
AcDbLine
 10
2.5
 20
0.0
 30
0.0
 11
2.4950700000000001
 21
0.156976
 31
0.0
  0
LINE
  5
E5
100
AcDbEntity
  8
supports
 62
256
370
-1
 48
1.0
  6
BYLAYER
100
AcDbLine
 10
2.3300900000000002
 20
-0.757092
 30
0.0
 11
2.37303
 21
-0.60929
 31
0.0
  0
LINE
  5
E6
100
AcDbEntity
  8
supports
 62
256
370
-1
 48
1.0
  6
BYLAYER
100
AcDbLine
 10
2.4950700000000001
 20
0.156976
 30
0.0
 11
2.4802900000000001
 21
0.313333
 31
0.0
  0
LINE
  5
E7
100
AcDbEntity
  8
supports
 62
256
370
-1
 48
1.0
  6
BYLAYER
100
AcDbLine
 10
2.37303
 20
-0.60929
 30
0.0
 11
2.4066000000000001
 21
-0.459084
 31
0.0
  0
LINE
  5
E8
100
AcDbEntity
  8
supports
 62
256
370
-1
 48
1.0
  6
BYLAYER
100
AcDbLine
 10
2.4802900000000001
 20
0.313333
 30
0.0
 11
2.4557199999999999
 21
0.468452
 31
0.0
  0
LINE
  5
E9
100
AcDbEntity
  8
supports
 62
256
370
-1
 48
1.0
  6
BYLAYER
100
AcDbLine
 10
2.4066000000000001
 20
-0.459084
 30
0.0
 11
2.4306800000000002
 21
-0.307066
 31
0.0
  0
LINE
  5
EA
100
AcDbEntity
  8
supports
 62
256
370
-1
 48
1.0
  6
BYLAYER
100
AcDbLine
 10
2.4557199999999999
 20
0.468452
 30
0.0
 11
2.4214600000000002
 21
0.6217240000000001
 31
0.0
  0
LINE
  5
EB
100
AcDbEntity
  8
supports
 62
256
370
-1
 48
1.0
  6
BYLAYER
100
AcDbLine
 10
2.4306800000000002
 20
-0.307066
 30
0.0
 11
2.44516
 21
-0.153836
 31
0.0
  0
LINE
  5
EC
100
AcDbEntity
  8
supports
 62
256
370
-1
 48
1.0
  6
BYLAYER
100
AcDbLine
 10
2.4214600000000002
 20
0.6217240000000001
 30
0.0
 11
2.37764
 21
0.772542
 31
0.0
  0
LINE
  5
ED
100
AcDbEntity
  8
supports
 62
256
370
-1
 48
1.0
  6
BYLAYER
100
AcDbLine
 10
2.44516
 20
-0.153836
 30
0.0
 11
2.4500000000000002
 21
0.0
 31
0.0
  0
LINE
  5
EE
100
AcDbEntity
  8
supports
 62
256
370
-1
 48
1.0
  6
BYLAYER
100
AcDbLine
 10
2.37764
 20
0.772542
 30
0.0
 11
2.3244400000000001
 21
0.920311
 31
0.0
  0
LINE
  5
EF
100
AcDbEntity
  8
supports
 62
256
370
-1
 48
1.0
  6
BYLAYER
100
AcDbLine
 10
2.4500000000000002
 20
0.0
 30
0.0
 11
2.44516
 21
0.153836
 31
0.0
  0
LINE
  5
F0
100
AcDbEntity
  8
supports
 62
256
370
-1
 48
1.0
  6
BYLAYER
100
AcDbLine
 10
2.3244400000000001
 20
0.920311
 30
0.0
 11
2.26207
 21
1.0644499999999999
 31
0.0
  0
LINE
  5
F1
100
AcDbEntity
  8
supports
 62
256
370
-1
 48
1.0
  6
BYLAYER
100
AcDbLine
 10
2.44516
 20
0.153836
 30
0.0
 11
2.4306800000000002
 21
0.307066
 31
0.0
  0
LINE
  5
F2
100
AcDbEntity
  8
supports
 62
256
370
-1
 48
1.0
  6
BYLAYER
100
AcDbLine
 10
2.26207
 20
1.0644499999999999
 30
0.0
 11
2.1907700000000001
 21
1.20438
 31
0.0
  0
LINE
  5
F3
100
AcDbEntity
  8
supports
 62
256
370
-1
 48
1.0
  6
BYLAYER
100
AcDbLine
 10
2.4306800000000002
 20
0.307066
 30
0.0
 11
2.4066000000000001
 21
0.459084
 31
0.0
  0
LINE
  5
F4
100
AcDbEntity
  8
supports
 62
256
370
-1
 48
1.0
  6
BYLAYER
100
AcDbLine
 10
2.1907700000000001
 20
1.20438
 30
0.0
 11
2.1108199999999999
 21
1.3395699999999999
 31
0.0
  0
LINE
  5
F5
100
AcDbEntity
  8
supports
 62
256
370
-1
 48
1.0
  6
BYLAYER
100
AcDbLine
 10
2.4066000000000001
 20
0.459084
 30
0.0
 11
2.37303
 21
0.60929
 31
0.0
  0
LINE
  5
F6
100
AcDbEntity
  8
supports
 62
256
370
-1
 48
1.0
  6
BYLAYER
100
AcDbLine
 10
2.1108199999999999
 20
1.3395699999999999
 30
0.0
 11
2.0225399999999998
 21
1.46946
 31
0.0
  0
LINE
  5
F7
100
AcDbEntity
  8
supports
 62
256
370
-1
 48
1.0
  6
BYLAYER
100
AcDbLine
 10
2.37303
 20
0.60929
 30
0.0
 11
2.3300900000000002
 21
0.757092
 31
0.0
  0
LINE
  5
F8
100
AcDbEntity
  8
supports
 62
256
370
-1
 48
1.0
  6
BYLAYER
100
AcDbLine
 10
2.0225399999999998
 20
1.46946
 30
0.0
 11
1.92628
 21
1.5935600000000001
 31
0.0
  0
LINE
  5
F9
100
AcDbEntity
  8
supports
 62
256
370
-1
 48
1.0
  6
BYLAYER
100
AcDbLine
 10
2.3300900000000002
 20
0.757092
 30
0.0
 11
2.2779500000000001
 21
0.901905
 31
0.0
  0
LINE
  5
FA
100
AcDbEntity
  8
supports
 62
256
370
-1
 48
1.0
  6
BYLAYER
100
AcDbLine
 10
1.92628
 20
1.5935600000000001
 30
0.0
 11
1.8224199999999999
 21
1.7113700000000001
 31
0.0
  0
LINE
  5
FB
100
AcDbEntity
  8
supports
 62
256
370
-1
 48
1.0
  6
BYLAYER
100
AcDbLine
 10
2.2779500000000001
 20
0.901905
 30
0.0
 11
2.2168299999999999
 21
1.0431600000000001
 31
0.0
  0
LINE
  5
FC
100
AcDbEntity
  8
supports
 62
256
370
-1
 48
1.0
  6
BYLAYER
100
AcDbLine
 10
1.8224199999999999
 20
1.7113700000000001
 30
0.0
 11
1.7113700000000001
 21
1.8224199999999999
 31
0.0
  0
LINE
  5
FD
100
AcDbEntity
  8
supports
 62
256
370
-1
 48
1.0
  6
BYLAYER
100
AcDbLine
 10
2.2168299999999999
 20
1.0431600000000001
 30
0.0
 11
2.1469499999999999
 21
1.1802999999999999
 31
0.0
  0
LINE
  5
FE
100
AcDbEntity
  8
supports
 62
256
370
-1
 48
1.0
  6
BYLAYER
100
AcDbLine
 10
1.7113700000000001
 20
1.8224199999999999
 30
0.0
 11
1.5935600000000001
 21
1.92628
 31
0.0
  0
LINE
  5
FF
100
AcDbEntity
  8
supports
 62
256
370
-1
 48
1.0
  6
BYLAYER
100
AcDbLine
 10
2.1469499999999999
 20
1.1802999999999999
 30
0.0
 11
2.0686
 21
1.3127800000000001
 31
0.0
  0
LINE
  5
100
100
AcDbEntity
  8
supports
 62
256
370
-1
 48
1.0
  6
BYLAYER
100
AcDbLine
 10
1.5935600000000001
 20
1.92628
 30
0.0
 11
1.46946
 21
2.0225399999999998
 31
0.0
  0
LINE
  5
101
100
AcDbEntity
  8
supports
 62
256
370
-1
 48
1.0
  6
BYLAYER
100
AcDbLine
 10
2.0686
 20
1.3127800000000001
 30
0.0
 11
1.9820899999999999
 21
1.44007
 31
0.0
  0
LINE
  5
102
100
AcDbEntity
  8
supports
 62
256
370
-1
 48
1.0
  6
BYLAYER
100
AcDbLine
 10
1.46946
 20
2.0225399999999998
 30
0.0
 11
1.3395699999999999
 21
2.1108199999999999
 31
0.0
  0
LINE
  5
103
100
AcDbEntity
  8
supports
 62
256
370
-1
 48
1.0
  6
BYLAYER
100
AcDbLine
 10
1.9820899999999999
 20
1.44007
 30
0.0
 11
1.8877600000000001
 21
1.56169
 31
0.0
  0
LINE
  5
104
100
AcDbEntity
  8
supports
 62
256
370
-1
 48
1.0
  6
BYLAYER
100
AcDbLine
 10
1.3395699999999999
 20
2.1108199999999999
 30
0.0
 11
1.20438
 21
2.1907700000000001
 31
0.0
  0
LINE
  5
105
100
AcDbEntity
  8
supports
 62
256
370
-1
 48
1.0
  6
BYLAYER
100
AcDbLine
 10
1.8877600000000001
 20
1.56169
 30
0.0
 11
1.7859700000000001
 21
1.6771400000000001
 31
0.0
  0
LINE
  5
106
100
AcDbEntity
  8
supports
 62
256
370
-1
 48
1.0
  6
BYLAYER
100
AcDbLine
 10
1.20438
 20
2.1907700000000001
 30
0.0
 11
1.0644499999999999
 21
2.26207
 31
0.0
  0
LINE
  5
107
100
AcDbEntity
  8
supports
 62
256
370
-1
 48
1.0
  6
BYLAYER
100
AcDbLine
 10
1.7859700000000001
 20
1.6771400000000001
 30
0.0
 11
1.6771400000000001
 21
1.7859700000000001
 31
0.0
  0
LINE
  5
108
100
AcDbEntity
  8
supports
 62
256
370
-1
 48
1.0
  6
BYLAYER
100
AcDbLine
 10
1.0644499999999999
 20
2.26207
 30
0.0
 11
0.920311
 21
2.3244400000000001
 31
0.0
  0
LINE
  5
109
100
AcDbEntity
  8
supports
 62
256
370
-1
 48
1.0
  6
BYLAYER
100
AcDbLine
 10
1.6771400000000001
 20
1.7859700000000001
 30
0.0
 11
1.56169
 21
1.8877600000000001
 31
0.0
  0
LINE
  5
10A
100
AcDbEntity
  8
supports
 62
256
370
-1
 48
1.0
  6
BYLAYER
100
AcDbLine
 10
0.920311
 20
2.3244400000000001
 30
0.0
 11
0.772542
 21
2.37764
 31
0.0
  0
LINE
  5
10B
100
AcDbEntity
  8
supports
 62
256
370
-1
 48
1.0
  6
BYLAYER
100
AcDbLine
 10
1.56169
 20
1.8877600000000001
 30
0.0
 11
1.44007
 21
1.9820899999999999
 31
0.0
  0
LINE
  5
10C
100
AcDbEntity
  8
supports
 62
256
370
-1
 48
1.0
  6
BYLAYER
100
AcDbLine
 10
0.772542
 20
2.37764
 30
0.0
 11
0.6217240000000001
 21
2.4214600000000002
 31
0.0
  0
LINE
  5
10D
100
AcDbEntity
  8
supports
 62
256
370
-1
 48
1.0
  6
BYLAYER
100
AcDbLine
 10
1.44007
 20
1.9820899999999999
 30
0.0
 11
1.3127800000000001
 21
2.0686
 31
0.0
  0
LINE
  5
10E
100
AcDbEntity
  8
supports
 62
256
370
-1
 48
1.0
  6
BYLAYER
100
AcDbLine
 10
0.6217240000000001
 20
2.4214600000000002
 30
0.0
 11
0.468452
 21
2.4557199999999999
 31
0.0
  0
LINE
  5
10F
100
AcDbEntity
  8
supports
 62
256
370
-1
 48
1.0
  6
BYLAYER
100
AcDbLine
 10
1.3127800000000001
 20
2.0686
 30
0.0
 11
1.1802999999999999
 21
2.1469499999999999
 31
0.0
  0
LINE
  5
110
100
AcDbEntity
  8
supports
 62
256
370
-1
 48
1.0
  6
BYLAYER
100
AcDbLine
 10
0.468452
 20
2.4557199999999999
 30
0.0
 11
0.313333
 21
2.4802900000000001
 31
0.0
  0
LINE
  5
111
100
AcDbEntity
  8
supports
 62
256
370
-1
 48
1.0
  6
BYLAYER
100
AcDbLine
 10
1.1802999999999999
 20
2.1469499999999999
 30
0.0
 11
1.0431600000000001
 21
2.2168299999999999
 31
0.0
  0
LINE
  5
112
100
AcDbEntity
  8
supports
 62
256
370
-1
 48
1.0
  6
BYLAYER
100
AcDbLine
 10
0.313333
 20
2.4802900000000001
 30
0.0
 11
0.156976
 21
2.4950700000000001
 31
0.0
  0
LINE
  5
113
100
AcDbEntity
  8
supports
 62
256
370
-1
 48
1.0
  6
BYLAYER
100
AcDbLine
 10
1.0431600000000001
 20
2.2168299999999999
 30
0.0
 11
0.901905
 21
2.2779500000000001
 31
0.0
  0
LINE
  5
114
100
AcDbEntity
  8
supports
 62
256
370
-1
 48
1.0
  6
BYLAYER
100
AcDbLine
 10
0.156976
 20
2.4950700000000001
 30
0.0
 11
0.0
 21
2.5
 31
0.0
  0
LINE
  5
115
100
AcDbEntity
  8
supports
 62
256
370
-1
 48
1.0
  6
BYLAYER
100
AcDbLine
 10
0.901905
 20
2.2779500000000001
 30
0.0
 11
0.757092
 21
2.3300900000000002
 31
0.0
  0
LINE
  5
116
100
AcDbEntity
  8
supports
 62
256
370
-1
 48
1.0
  6
BYLAYER
100
AcDbLine
 10
0.0
 20
2.5
 30
0.0
 11
-0.156976
 21
2.4950700000000001
 31
0.0
  0
LINE
  5
117
100
AcDbEntity
  8
supports
 62
256
370
-1
 48
1.0
  6
BYLAYER
100
AcDbLine
 10
0.757092
 20
2.3300900000000002
 30
0.0
 11
0.60929
 21
2.37303
 31
0.0
  0
LINE
  5
118
100
AcDbEntity
  8
supports
 62
256
370
-1
 48
1.0
  6
BYLAYER
100
AcDbLine
 10
-0.156976
 20
2.4950700000000001
 30
0.0
 11
-0.313333
 21
2.4802900000000001
 31
0.0
  0
LINE
  5
119
100
AcDbEntity
  8
supports
 62
256
370
-1
 48
1.0
  6
BYLAYER
100
AcDbLine
 10
0.60929
 20
2.37303
 30
0.0
 11
0.459084
 21
2.4066000000000001
 31
0.0
  0
LINE
  5
11A
100
AcDbEntity
  8
supports
 62
256
370
-1
 48
1.0
  6
BYLAYER
100
AcDbLine
 10
-0.313333
 20
2.4802900000000001
 30
0.0
 11
-0.468452
 21
2.4557199999999999
 31
0.0
  0
LINE
  5
11B
100
AcDbEntity
  8
supports
 62
256
370
-1
 48
1.0
  6
BYLAYER
100
AcDbLine
 10
0.459084
 20
2.4066000000000001
 30
0.0
 11
0.307066
 21
2.4306800000000002
 31
0.0
  0
LINE
  5
11C
100
AcDbEntity
  8
supports
 62
256
370
-1
 48
1.0
  6
BYLAYER
100
AcDbLine
 10
-0.468452
 20
2.4557199999999999
 30
0.0
 11
-0.6217240000000001
 21
2.4214600000000002
 31
0.0
  0
LINE
  5
11D
100
AcDbEntity
  8
supports
 62
256
370
-1
 48
1.0
  6
BYLAYER
100
AcDbLine
 10
0.307066
 20
2.4306800000000002
 30
0.0
 11
0.153836
 21
2.44516
 31
0.0
  0
LINE
  5
11E
100
AcDbEntity
  8
supports
 62
256
370
-1
 48
1.0
  6
BYLAYER
100
AcDbLine
 10
-0.6217240000000001
 20
2.4214600000000002
 30
0.0
 11
-0.772542
 21
2.37764
 31
0.0
  0
LINE
  5
11F
100
AcDbEntity
  8
supports
 62
256
370
-1
 48
1.0
  6
BYLAYER
100
AcDbLine
 10
0.153836
 20
2.44516
 30
0.0
 11
0.0
 21
2.4500000000000002
 31
0.0
  0
LINE
  5
120
100
AcDbEntity
  8
supports
 62
256
370
-1
 48
1.0
  6
BYLAYER
100
AcDbLine
 10
-0.772542
 20
2.37764
 30
0.0
 11
-0.920311
 21
2.3244400000000001
 31
0.0
  0
LINE
  5
121
100
AcDbEntity
  8
supports
 62
256
370
-1
 48
1.0
  6
BYLAYER
100
AcDbLine
 10
0.0
 20
2.4500000000000002
 30
0.0
 11
-0.153836
 21
2.44516
 31
0.0
  0
LINE
  5
122
100
AcDbEntity
  8
supports
 62
256
370
-1
 48
1.0
  6
BYLAYER
100
AcDbLine
 10
-0.920311
 20
2.3244400000000001
 30
0.0
 11
-1.0644499999999999
 21
2.26207
 31
0.0
  0
LINE
  5
123
100
AcDbEntity
  8
supports
 62
256
370
-1
 48
1.0
  6
BYLAYER
100
AcDbLine
 10
-0.153836
 20
2.44516
 30
0.0
 11
-0.307066
 21
2.4306800000000002
 31
0.0
  0
LINE
  5
124
100
AcDbEntity
  8
supports
 62
256
370
-1
 48
1.0
  6
BYLAYER
100
AcDbLine
 10
-1.0644499999999999
 20
2.26207
 30
0.0
 11
-1.20438
 21
2.1907700000000001
 31
0.0
  0
LINE
  5
125
100
AcDbEntity
  8
supports
 62
256
370
-1
 48
1.0
  6
BYLAYER
100
AcDbLine
 10
-0.307066
 20
2.4306800000000002
 30
0.0
 11
-0.459084
 21
2.4066000000000001
 31
0.0
  0
LINE
  5
126
100
AcDbEntity
  8
supports
 62
256
370
-1
 48
1.0
  6
BYLAYER
100
AcDbLine
 10
-1.20438
 20
2.1907700000000001
 30
0.0
 11
-1.3395699999999999
 21
2.1108199999999999
 31
0.0
  0
LINE
  5
127
100
AcDbEntity
  8
supports
 62
256
370
-1
 48
1.0
  6
BYLAYER
100
AcDbLine
 10
-0.459084
 20
2.4066000000000001
 30
0.0
 11
-0.60929
 21
2.37303
 31
0.0
  0
LINE
  5
128
100
AcDbEntity
  8
supports
 62
256
370
-1
 48
1.0
  6
BYLAYER
100
AcDbLine
 10
-1.3395699999999999
 20
2.1108199999999999
 30
0.0
 11
-1.46946
 21
2.0225399999999998
 31
0.0
  0
LINE
  5
129
100
AcDbEntity
  8
supports
 62
256
370
-1
 48
1.0
  6
BYLAYER
100
AcDbLine
 10
-0.60929
 20
2.37303
 30
0.0
 11
-0.757092
 21
2.3300900000000002
 31
0.0
  0
LINE
  5
12A
100
AcDbEntity
  8
supports
 62
256
370
-1
 48
1.0
  6
BYLAYER
100
AcDbLine
 10
-1.46946
 20
2.0225399999999998
 30
0.0
 11
-1.5935600000000001
 21
1.92628
 31
0.0
  0
LINE
  5
12B
100
AcDbEntity
  8
supports
 62
256
370
-1
 48
1.0
  6
BYLAYER
100
AcDbLine
 10
-0.757092
 20
2.3300900000000002
 30
0.0
 11
-0.901905
 21
2.2779500000000001
 31
0.0
  0
LINE
  5
12C
100
AcDbEntity
  8
supports
 62
256
370
-1
 48
1.0
  6
BYLAYER
100
AcDbLine
 10
-1.5935600000000001
 20
1.92628
 30
0.0
 11
-1.7113700000000001
 21
1.8224199999999999
 31
0.0
  0
LINE
  5
12D
100
AcDbEntity
  8
supports
 62
256
370
-1
 48
1.0
  6
BYLAYER
100
AcDbLine
 10
-0.901905
 20
2.2779500000000001
 30
0.0
 11
-1.0431600000000001
 21
2.2168299999999999
 31
0.0
  0
LINE
  5
12E
100
AcDbEntity
  8
supports
 62
256
370
-1
 48
1.0
  6
BYLAYER
100
AcDbLine
 10
-1.7113700000000001
 20
1.8224199999999999
 30
0.0
 11
-1.8224199999999999
 21
1.7113700000000001
 31
0.0
  0
LINE
  5
12F
100
AcDbEntity
  8
supports
 62
256
370
-1
 48
1.0
  6
BYLAYER
100
AcDbLine
 10
-1.0431600000000001
 20
2.2168299999999999
 30
0.0
 11
-1.1802999999999999
 21
2.1469499999999999
 31
0.0
  0
LINE
  5
130
100
AcDbEntity
  8
supports
 62
256
370
-1
 48
1.0
  6
BYLAYER
100
AcDbLine
 10
-1.8224199999999999
 20
1.7113700000000001
 30
0.0
 11
-1.92628
 21
1.5935600000000001
 31
0.0
  0
LINE
  5
131
100
AcDbEntity
  8
supports
 62
256
370
-1
 48
1.0
  6
BYLAYER
100
AcDbLine
 10
-1.1802999999999999
 20
2.1469499999999999
 30
0.0
 11
-1.3127800000000001
 21
2.0686
 31
0.0
  0
LINE
  5
132
100
AcDbEntity
  8
supports
 62
256
370
-1
 48
1.0
  6
BYLAYER
100
AcDbLine
 10
-1.92628
 20
1.5935600000000001
 30
0.0
 11
-2.0225399999999998
 21
1.46946
 31
0.0
  0
LINE
  5
133
100
AcDbEntity
  8
supports
 62
256
370
-1
 48
1.0
  6
BYLAYER
100
AcDbLine
 10
-1.3127800000000001
 20
2.0686
 30
0.0
 11
-1.44007
 21
1.9820899999999999
 31
0.0
  0
LINE
  5
134
100
AcDbEntity
  8
supports
 62
256
370
-1
 48
1.0
  6
BYLAYER
100
AcDbLine
 10
-2.0225399999999998
 20
1.46946
 30
0.0
 11
-2.1108199999999999
 21
1.3395699999999999
 31
0.0
  0
LINE
  5
135
100
AcDbEntity
  8
supports
 62
256
370
-1
 48
1.0
  6
BYLAYER
100
AcDbLine
 10
-1.44007
 20
1.9820899999999999
 30
0.0
 11
-1.56169
 21
1.8877600000000001
 31
0.0
  0
LINE
  5
136
100
AcDbEntity
  8
supports
 62
256
370
-1
 48
1.0
  6
BYLAYER
100
AcDbLine
 10
-2.1108199999999999
 20
1.3395699999999999
 30
0.0
 11
-2.1907700000000001
 21
1.20438
 31
0.0
  0
LINE
  5
137
100
AcDbEntity
  8
supports
 62
256
370
-1
 48
1.0
  6
BYLAYER
100
AcDbLine
 10
-1.56169
 20
1.8877600000000001
 30
0.0
 11
-1.6771400000000001
 21
1.7859700000000001
 31
0.0
  0
LINE
  5
138
100
AcDbEntity
  8
supports
 62
256
370
-1
 48
1.0
  6
BYLAYER
100
AcDbLine
 10
-2.1907700000000001
 20
1.20438
 30
0.0
 11
-2.26207
 21
1.0644499999999999
 31
0.0
  0
LINE
  5
139
100
AcDbEntity
  8
supports
 62
256
370
-1
 48
1.0
  6
BYLAYER
100
AcDbLine
 10
-1.6771400000000001
 20
1.7859700000000001
 30
0.0
 11
-1.7859700000000001
 21
1.6771400000000001
 31
0.0
  0
LINE
  5
13A
100
AcDbEntity
  8
supports
 62
256
370
-1
 48
1.0
  6
BYLAYER
100
AcDbLine
 10
-2.26207
 20
1.0644499999999999
 30
0.0
 11
-2.3244400000000001
 21
0.920311
 31
0.0
  0
LINE
  5
13B
100
AcDbEntity
  8
supports
 62
256
370
-1
 48
1.0
  6
BYLAYER
100
AcDbLine
 10
-1.7859700000000001
 20
1.6771400000000001
 30
0.0
 11
-1.8877600000000001
 21
1.56169
 31
0.0
  0
LINE
  5
13C
100
AcDbEntity
  8
supports
 62
256
370
-1
 48
1.0
  6
BYLAYER
100
AcDbLine
 10
-2.3244400000000001
 20
0.920311
 30
0.0
 11
-2.37764
 21
0.772542
 31
0.0
  0
LINE
  5
13D
100
AcDbEntity
  8
supports
 62
256
370
-1
 48
1.0
  6
BYLAYER
100
AcDbLine
 10
-1.8877600000000001
 20
1.56169
 30
0.0
 11
-1.9820899999999999
 21
1.44007
 31
0.0
  0
LINE
  5
13E
100
AcDbEntity
  8
supports
 62
256
370
-1
 48
1.0
  6
BYLAYER
100
AcDbLine
 10
-2.37764
 20
0.772542
 30
0.0
 11
-2.4214600000000002
 21
0.6217240000000001
 31
0.0
  0
LINE
  5
13F
100
AcDbEntity
  8
supports
 62
256
370
-1
 48
1.0
  6
BYLAYER
100
AcDbLine
 10
-1.9820899999999999
 20
1.44007
 30
0.0
 11
-2.0686
 21
1.3127800000000001
 31
0.0
  0
LINE
  5
140
100
AcDbEntity
  8
supports
 62
256
370
-1
 48
1.0
  6
BYLAYER
100
AcDbLine
 10
-2.4214600000000002
 20
0.6217240000000001
 30
0.0
 11
-2.4557199999999999
 21
0.468452
 31
0.0
  0
LINE
  5
141
100
AcDbEntity
  8
supports
 62
256
370
-1
 48
1.0
  6
BYLAYER
100
AcDbLine
 10
-2.0686
 20
1.3127800000000001
 30
0.0
 11
-2.1469499999999999
 21
1.1802999999999999
 31
0.0
  0
LINE
  5
142
100
AcDbEntity
  8
supports
 62
256
370
-1
 48
1.0
  6
BYLAYER
100
AcDbLine
 10
-2.4557199999999999
 20
0.468452
 30
0.0
 11
-2.4802900000000001
 21
0.313333
 31
0.0
  0
LINE
  5
143
100
AcDbEntity
  8
supports
 62
256
370
-1
 48
1.0
  6
BYLAYER
100
AcDbLine
 10
-2.1469499999999999
 20
1.1802999999999999
 30
0.0
 11
-2.2168299999999999
 21
1.0431600000000001
 31
0.0
  0
LINE
  5
144
100
AcDbEntity
  8
supports
 62
256
370
-1
 48
1.0
  6
BYLAYER
100
AcDbLine
 10
-2.4802900000000001
 20
0.313333
 30
0.0
 11
-2.4950700000000001
 21
0.156976
 31
0.0
  0
LINE
  5
145
100
AcDbEntity
  8
supports
 62
256
370
-1
 48
1.0
  6
BYLAYER
100
AcDbLine
 10
-2.2168299999999999
 20
1.0431600000000001
 30
0.0
 11
-2.2779500000000001
 21
0.901905
 31
0.0
  0
LINE
  5
146
100
AcDbEntity
  8
supports
 62
256
370
-1
 48
1.0
  6
BYLAYER
100
AcDbLine
 10
-2.4950700000000001
 20
0.156976
 30
0.0
 11
-2.5
 21
0.0
 31
0.0
  0
LINE
  5
147
100
AcDbEntity
  8
supports
 62
256
370
-1
 48
1.0
  6
BYLAYER
100
AcDbLine
 10
-2.2779500000000001
 20
0.901905
 30
0.0
 11
-2.3300900000000002
 21
0.757092
 31
0.0
  0
LINE
  5
148
100
AcDbEntity
  8
supports
 62
256
370
-1
 48
1.0
  6
BYLAYER
100
AcDbLine
 10
42.5
 20
-25.0
 30
0.0
 11
42.5048999999999992
 21
-25.157
 31
0.0
  0
LINE
  5
149
100
AcDbEntity
  8
supports
 62
256
370
-1
 48
1.0
  6
BYLAYER
100
AcDbLine
 10
-2.3300900000000002
 20
0.757092
 30
0.0
 11
-2.37303
 21
0.60929
 31
0.0
  0
LINE
  5
14A
100
AcDbEntity
  8
supports
 62
256
370
-1
 48
1.0
  6
BYLAYER
100
AcDbLine
 10
42.5048999999999992
 20
-25.157
 30
0.0
 11
42.5197000000000003
 21
-25.3133000000000017
 31
0.0
  0
LINE
  5
14B
100
AcDbEntity
  8
supports
 62
256
370
-1
 48
1.0
  6
BYLAYER
100
AcDbLine
 10
-2.37303
 20
0.60929
 30
0.0
 11
-2.4066000000000001
 21
0.459084
 31
0.0
  0
LINE
  5
14C
100
AcDbEntity
  8
supports
 62
256
370
-1
 48
1.0
  6
BYLAYER
100
AcDbLine
 10
42.5197000000000003
 20
-25.3133000000000017
 30
0.0
 11
42.5442999999999998
 21
-25.4684999999999988
 31
0.0
  0
LINE
  5
14D
100
AcDbEntity
  8
supports
 62
256
370
-1
 48
1.0
  6
BYLAYER
100
AcDbLine
 10
-2.4066000000000001
 20
0.459084
 30
0.0
 11
-2.4306800000000002
 21
0.307066
 31
0.0
  0
LINE
  5
14E
100
AcDbEntity
  8
supports
 62
256
370
-1
 48
1.0
  6
BYLAYER
100
AcDbLine
 10
42.5442999999999998
 20
-25.4684999999999988
 30
0.0
 11
42.5784999999999982
 21
-25.6217000000000006
 31
0.0
  0
LINE
  5
14F
100
AcDbEntity
  8
supports
 62
256
370
-1
 48
1.0
  6
BYLAYER
100
AcDbLine
 10
-2.4306800000000002
 20
0.307066
 30
0.0
 11
-2.44516
 21
0.153836
 31
0.0
  0
LINE
  5
150
100
AcDbEntity
  8
supports
 62
256
370
-1
 48
1.0
  6
BYLAYER
100
AcDbLine
 10
42.5784999999999982
 20
-25.6217000000000006
 30
0.0
 11
42.622399999999999
 21
-25.7725000000000009
 31
0.0
  0
LINE
  5
151
100
AcDbEntity
  8
supports
 62
256
370
-1
 48
1.0
  6
BYLAYER
100
AcDbLine
 10
-2.44516
 20
0.153836
 30
0.0
 11
-2.4500000000000002
 21
0.0
 31
0.0
  0
LINE
  5
152
100
AcDbEntity
  8
supports
 62
256
370
-1
 48
1.0
  6
BYLAYER
100
AcDbLine
 10
42.622399999999999
 20
-25.7725000000000009
 30
0.0
 11
42.6756000000000029
 21
-25.920300000000001
 31
0.0
  0
LINE
  5
153
100
AcDbEntity
  8
supports
 62
256
370
-1
 48
1.0
  6
BYLAYER
100
AcDbLine
 10
42.6756000000000029
 20
-25.920300000000001
 30
0.0
 11
42.7379000000000033
 21
-26.0643999999999991
 31
0.0
  0
LINE
  5
154
100
AcDbEntity
  8
supports
 62
256
370
-1
 48
1.0
  6
BYLAYER
100
AcDbLine
 10
42.7379000000000033
 20
-26.0643999999999991
 30
0.0
 11
42.809199999999997
 21
-26.2043999999999997
 31
0.0
  0
LINE
  5
155
100
AcDbEntity
  8
supports
 62
256
370
-1
 48
1.0
  6
BYLAYER
100
AcDbLine
 10
42.809199999999997
 20
-26.2043999999999997
 30
0.0
 11
42.8892000000000024
 21
-26.3396000000000008
 31
0.0
  0
LINE
  5
156
100
AcDbEntity
  8
supports
 62
256
370
-1
 48
1.0
  6
BYLAYER
100
AcDbLine
 10
42.8892000000000024
 20
-26.3396000000000008
 30
0.0
 11
42.9774999999999991
 21
-26.4695
 31
0.0
  0
LINE
  5
157
100
AcDbEntity
  8
supports
 62
256
370
-1
 48
1.0
  6
BYLAYER
100
AcDbLine
 10
42.9774999999999991
 20
-26.4695
 30
0.0
 11
43.0737000000000023
 21
-26.5935999999999986
 31
0.0
  0
LINE
  5
158
100
AcDbEntity
  8
supports
 62
256
370
-1
 48
1.0
  6
BYLAYER
100
AcDbLine
 10
43.0737000000000023
 20
-26.5935999999999986
 30
0.0
 11
43.1775999999999982
 21
-26.7114000000000011
 31
0.0
  0
LINE
  5
159
100
AcDbEntity
  8
supports
 62
256
370
-1
 48
1.0
  6
BYLAYER
100
AcDbLine
 10
43.1775999999999982
 20
-26.7114000000000011
 30
0.0
 11
43.2886000000000024
 21
-26.8223999999999982
 31
0.0
  0
LINE
  5
15A
100
AcDbEntity
  8
supports
 62
256
370
-1
 48
1.0
  6
BYLAYER
100
AcDbLine
 10
43.2886000000000024
 20
-26.8223999999999982
 30
0.0
 11
43.4063999999999979
 21
-26.9263000000000012
 31
0.0
  0
LINE
  5
15B
100
AcDbEntity
  8
supports
 62
256
370
-1
 48
1.0
  6
ACAD_ISO07W100
100
AcDbLine
 10
-8.5
 20
6.5
 30
0.0
 11
51.5
 21
6.5
 31
0.0
  0
LINE
  5
15C
100
AcDbEntity
  8
supports
 62
256
370
-1
 48
1.0
  6
BYLAYER
100
AcDbLine
 10
43.4063999999999979
 20
-26.9263000000000012
 30
0.0
 11
43.5305000000000035
 21
-27.0225000000000009
 31
0.0
  0
LINE
  5
15D
100
AcDbEntity
  8
supports
 62
256
370
-1
 48
1.0
  6
ACAD_ISO07W100
100
AcDbLine
 10
51.5
 20
6.5
 30
0.0
 11
51.5
 21
-8.5
 31
0.0
  0
LINE
  5
15E
100
AcDbEntity
  8
supports
 62
256
370
-1
 48
1.0
  6
BYLAYER
100
AcDbLine
 10
43.5305000000000035
 20
-27.0225000000000009
 30
0.0
 11
43.6604000000000028
 21
-27.1108000000000011
 31
0.0
  0
LINE
  5
15F
100
AcDbEntity
  8
supports
 62
256
370
-1
 48
1.0
  6
BYLAYER
100
AcDbLine
 10
43.6604000000000028
 20
-27.1108000000000011
 30
0.0
 11
43.7956000000000003
 21
-27.1907999999999994
 31
0.0
  0
LINE
  5
160
100
AcDbEntity
  8
supports
 62
256
370
-1
 48
1.0
  6
BYLAYER
100
AcDbLine
 10
43.7956000000000003
 20
-27.1907999999999994
 30
0.0
 11
43.9356000000000009
 21
-27.2621000000000002
 31
0.0
  0
LINE
  5
161
100
AcDbEntity
  8
supports
 62
256
370
-1
 48
1.0
  6
BYLAYER
100
AcDbLine
 10
43.9356000000000009
 20
-27.2621000000000002
 30
0.0
 11
44.0797000000000025
 21
-27.3244000000000007
 31
0.0
  0
LINE
  5
162
100
AcDbEntity
  8
supports
 62
256
370
-1
 48
1.0
  6
BYLAYER
100
AcDbLine
 10
44.0797000000000025
 20
-27.3244000000000007
 30
0.0
 11
44.2274999999999991
 21
-27.377600000000001
 31
0.0
  0
LINE
  5
163
100
AcDbEntity
  8
supports
 62
256
370
-1
 48
1.0
  6
BYLAYER
100
AcDbLine
 10
44.2274999999999991
 20
-27.377600000000001
 30
0.0
 11
44.378300000000003
 21
-27.4215000000000018
 31
0.0
  0
LINE
  5
164
100
AcDbEntity
  8
supports
 62
256
370
-1
 48
1.0
  6
BYLAYER
100
AcDbLine
 10
44.378300000000003
 20
-27.4215000000000018
 30
0.0
 11
44.5315000000000012
 21
-27.4557000000000002
 31
0.0
  0
LINE
  5
165
100
AcDbEntity
  8
supports
 62
256
370
-1
 48
1.0
  6
BYLAYER
100
AcDbLine
 10
44.5315000000000012
 20
-27.4557000000000002
 30
0.0
 11
44.6867000000000019
 21
-27.4802999999999997
 31
0.0
  0
LINE
  5
166
100
AcDbEntity
  8
supports
 62
256
370
-1
 48
1.0
  6
BYLAYER
100
AcDbLine
 10
44.6867000000000019
 20
-27.4802999999999997
 30
0.0
 11
44.8430000000000035
 21
-27.4951000000000008
 31
0.0
  0
LINE
  5
167
100
AcDbEntity
  8
supports
 62
256
370
-1
 48
1.0
  6
BYLAYER
100
AcDbLine
 10
44.8430000000000035
 20
-27.4951000000000008
 30
0.0
 11
45.0
 21
-27.5
 31
0.0
  0
LINE
  5
168
100
AcDbEntity
  8
supports
 62
256
370
-1
 48
1.0
  6
BYLAYER
100
AcDbLine
 10
45.0
 20
-27.5
 30
0.0
 11
45.1569999999999965
 21
-27.4951000000000008
 31
0.0
  0
LINE
  5
169
100
AcDbEntity
  8
supports
 62
256
370
-1
 48
1.0
  6
BYLAYER
100
AcDbLine
 10
45.1569999999999965
 20
-27.4951000000000008
 30
0.0
 11
45.3132999999999981
 21
-27.4802999999999997
 31
0.0
  0
LINE
  5
16A
100
AcDbEntity
  8
supports
 62
256
370
-1
 48
1.0
  6
BYLAYER
100
AcDbLine
 10
45.3132999999999981
 20
-27.4802999999999997
 30
0.0
 11
45.4684999999999988
 21
-27.4557000000000002
 31
0.0
  0
LINE
  5
16B
100
AcDbEntity
  8
supports
 62
256
370
-1
 48
1.0
  6
BYLAYER
100
AcDbLine
 10
45.4684999999999988
 20
-27.4557000000000002
 30
0.0
 11
45.621699999999997
 21
-27.4215000000000018
 31
0.0
  0
LINE
  5
16C
100
AcDbEntity
  8
supports
 62
256
370
-1
 48
1.0
  6
BYLAYER
100
AcDbLine
 10
45.621699999999997
 20
-27.4215000000000018
 30
0.0
 11
45.7725000000000009
 21
-27.377600000000001
 31
0.0
  0
LINE
  5
16D
100
AcDbEntity
  8
supports
 62
256
370
-1
 48
1.0
  6
BYLAYER
100
AcDbLine
 10
45.7725000000000009
 20
-27.377600000000001
 30
0.0
 11
45.9202999999999975
 21
-27.3244000000000007
 31
0.0
  0
LINE
  5
16E
100
AcDbEntity
  8
supports
 62
256
370
-1
 48
1.0
  6
BYLAYER
100
AcDbLine
 10
45.9202999999999975
 20
-27.3244000000000007
 30
0.0
 11
46.0643999999999991
 21
-27.2621000000000002
 31
0.0
  0
LINE
  5
16F
100
AcDbEntity
  8
supports
 62
256
370
-1
 48
1.0
  6
BYLAYER
100
AcDbLine
 10
46.0643999999999991
 20
-27.2621000000000002
 30
0.0
 11
46.2043999999999997
 21
-27.1907999999999994
 31
0.0
  0
LINE
  5
170
100
AcDbEntity
  8
supports
 62
256
370
-1
 48
1.0
  6
BYLAYER
100
AcDbLine
 10
46.2043999999999997
 20
-27.1907999999999994
 30
0.0
 11
46.3395999999999972
 21
-27.1108000000000011
 31
0.0
  0
LINE
  5
171
100
AcDbEntity
  8
supports
 62
256
370
-1
 48
1.0
  6
BYLAYER
100
AcDbLine
 10
46.3395999999999972
 20
-27.1108000000000011
 30
0.0
 11
46.4694999999999965
 21
-27.0225000000000009
 31
0.0
  0
LINE
  5
172
100
AcDbEntity
  8
supports
 62
256
370
-1
 48
1.0
  6
BYLAYER
100
AcDbLine
 10
46.4694999999999965
 20
-27.0225000000000009
 30
0.0
 11
46.5936000000000021
 21
-26.9263000000000012
 31
0.0
  0
LINE
  5
173
100
AcDbEntity
  8
supports
 62
256
370
-1
 48
1.0
  6
BYLAYER
100
AcDbLine
 10
46.5936000000000021
 20
-26.9263000000000012
 30
0.0
 11
46.7113999999999976
 21
-26.8223999999999982
 31
0.0
  0
LINE
  5
174
100
AcDbEntity
  8
supports
 62
256
370
-1
 48
1.0
  6
BYLAYER
100
AcDbLine
 10
46.7113999999999976
 20
-26.8223999999999982
 30
0.0
 11
46.8224000000000018
 21
-26.7114000000000011
 31
0.0
  0
LINE
  5
175
100
AcDbEntity
  8
supports
 62
256
370
-1
 48
1.0
  6
BYLAYER
100
AcDbLine
 10
46.8224000000000018
 20
-26.7114000000000011
 30
0.0
 11
46.9262999999999977
 21
-26.5935999999999986
 31
0.0
  0
LINE
  5
176
100
AcDbEntity
  8
supports
 62
256
370
-1
 48
1.0
  6
BYLAYER
100
AcDbLine
 10
46.9262999999999977
 20
-26.5935999999999986
 30
0.0
 11
47.0225000000000009
 21
-26.4695
 31
0.0
  0
LINE
  5
177
100
AcDbEntity
  8
supports
 62
256
370
-1
 48
1.0
  6
BYLAYER
100
AcDbLine
 10
47.0225000000000009
 20
-26.4695
 30
0.0
 11
47.1107999999999976
 21
-26.3396000000000008
 31
0.0
  0
LINE
  5
178
100
AcDbEntity
  8
supports
 62
256
370
-1
 48
1.0
  6
BYLAYER
100
AcDbLine
 10
47.1107999999999976
 20
-26.3396000000000008
 30
0.0
 11
47.190800000000003
 21
-26.2043999999999997
 31
0.0
  0
LINE
  5
179
100
AcDbEntity
  8
supports
 62
256
370
-1
 48
1.0
  6
BYLAYER
100
AcDbLine
 10
47.190800000000003
 20
-26.2043999999999997
 30
0.0
 11
47.2620999999999967
 21
-26.0643999999999991
 31
0.0
  0
LINE
  5
17A
100
AcDbEntity
  8
supports
 62
256
370
-1
 48
1.0
  6
BYLAYER
100
AcDbLine
 10
47.2620999999999967
 20
-26.0643999999999991
 30
0.0
 11
47.3243999999999971
 21
-25.920300000000001
 31
0.0
  0
LINE
  5
17B
100
AcDbEntity
  8
supports
 62
256
370
-1
 48
1.0
  6
BYLAYER
100
AcDbLine
 10
47.3243999999999971
 20
-25.920300000000001
 30
0.0
 11
47.377600000000001
 21
-25.7725000000000009
 31
0.0
  0
LINE
  5
17C
100
AcDbEntity
  8
supports
 62
256
370
-1
 48
1.0
  6
BYLAYER
100
AcDbLine
 10
47.377600000000001
 20
-25.7725000000000009
 30
0.0
 11
47.4215000000000018
 21
-25.6217000000000006
 31
0.0
  0
LINE
  5
17D
100
AcDbEntity
  8
supports
 62
256
370
-1
 48
1.0
  6
BYLAYER
100
AcDbLine
 10
47.4215000000000018
 20
-25.6217000000000006
 30
0.0
 11
47.4557000000000002
 21
-25.4684999999999988
 31
0.0
  0
LINE
  5
17E
100
AcDbEntity
  8
supports
 62
256
370
-1
 48
1.0
  6
BYLAYER
100
AcDbLine
 10
47.4557000000000002
 20
-25.4684999999999988
 30
0.0
 11
47.4802999999999997
 21
-25.3133000000000017
 31
0.0
  0
LINE
  5
17F
100
AcDbEntity
  8
supports
 62
256
370
-1
 48
1.0
  6
BYLAYER
100
AcDbLine
 10
47.4802999999999997
 20
-25.3133000000000017
 30
0.0
 11
47.4951000000000008
 21
-25.157
 31
0.0
  0
LINE
  5
180
100
AcDbEntity
  8
supports
 62
256
370
-1
 48
1.0
  6
BYLAYER
100
AcDbLine
 10
47.4951000000000008
 20
-25.157
 30
0.0
 11
47.5
 21
-25.0
 31
0.0
  0
LINE
  5
181
100
AcDbEntity
  8
supports
 62
256
370
-1
 48
1.0
  6
BYLAYER
100
AcDbLine
 10
47.5
 20
-25.0
 30
0.0
 11
47.4951000000000008
 21
-24.843
 31
0.0
  0
LINE
  5
182
100
AcDbEntity
  8
supports
 62
256
370
-1
 48
1.0
  6
BYLAYER
100
AcDbLine
 10
47.4951000000000008
 20
-24.843
 30
0.0
 11
47.4802999999999997
 21
-24.6866999999999983
 31
0.0
  0
LINE
  5
183
100
AcDbEntity
  8
supports
 62
256
370
-1
 48
1.0
  6
BYLAYER
100
AcDbLine
 10
47.4802999999999997
 20
-24.6866999999999983
 30
0.0
 11
47.4557000000000002
 21
-24.5315000000000012
 31
0.0
  0
LINE
  5
184
100
AcDbEntity
  8
supports
 62
256
370
-1
 48
1.0
  6
BYLAYER
100
AcDbLine
 10
47.4557000000000002
 20
-24.5315000000000012
 30
0.0
 11
47.4215000000000018
 21
-24.3782999999999994
 31
0.0
  0
LINE
  5
185
100
AcDbEntity
  8
supports
 62
256
370
-1
 48
1.0
  6
BYLAYER
100
AcDbLine
 10
47.4215000000000018
 20
-24.3782999999999994
 30
0.0
 11
47.377600000000001
 21
-24.2274999999999991
 31
0.0
  0
LINE
  5
186
100
AcDbEntity
  8
supports
 62
256
370
-1
 48
1.0
  6
BYLAYER
100
AcDbLine
 10
47.377600000000001
 20
-24.2274999999999991
 30
0.0
 11
47.3243999999999971
 21
-24.079699999999999
 31
0.0
  0
LINE
  5
187
100
AcDbEntity
  8
supports
 62
256
370
-1
 48
1.0
  6
BYLAYER
100
AcDbLine
 10
47.3243999999999971
 20
-24.079699999999999
 30
0.0
 11
47.2620999999999967
 21
-23.9356000000000009
 31
0.0
  0
LINE
  5
188
100
AcDbEntity
  8
supports
 62
256
370
-1
 48
1.0
  6
BYLAYER
100
AcDbLine
 10
47.2620999999999967
 20
-23.9356000000000009
 30
0.0
 11
47.190800000000003
 21
-23.7956000000000003
 31
0.0
  0
LINE
  5
189
100
AcDbEntity
  8
supports
 62
256
370
-1
 48
1.0
  6
BYLAYER
100
AcDbLine
 10
47.190800000000003
 20
-23.7956000000000003
 30
0.0
 11
47.1107999999999976
 21
-23.6603999999999992
 31
0.0
  0
LINE
  5
18A
100
AcDbEntity
  8
supports
 62
256
370
-1
 48
1.0
  6
BYLAYER
100
AcDbLine
 10
47.1107999999999976
 20
-23.6603999999999992
 30
0.0
 11
47.0225000000000009
 21
-23.5305
 31
0.0
  0
LINE
  5
18B
100
AcDbEntity
  8
supports
 62
256
370
-1
 48
1.0
  6
BYLAYER
100
AcDbLine
 10
47.0225000000000009
 20
-23.5305
 30
0.0
 11
46.9262999999999977
 21
-23.4064000000000014
 31
0.0
  0
LINE
  5
18C
100
AcDbEntity
  8
supports
 62
256
370
-1
 48
1.0
  6
BYLAYER
100
AcDbLine
 10
46.9262999999999977
 20
-23.4064000000000014
 30
0.0
 11
46.8224000000000018
 21
-23.2885999999999989
 31
0.0
  0
LINE
  5
18D
100
AcDbEntity
  8
supports
 62
256
370
-1
 48
1.0
  6
BYLAYER
100
AcDbLine
 10
46.8224000000000018
 20
-23.2885999999999989
 30
0.0
 11
46.7113999999999976
 21
-23.1776000000000018
 31
0.0
  0
LINE
  5
18E
100
AcDbEntity
  8
supports
 62
256
370
-1
 48
1.0
  6
BYLAYER
100
AcDbLine
 10
46.7113999999999976
 20
-23.1776000000000018
 30
0.0
 11
46.5936000000000021
 21
-23.0736999999999988
 31
0.0
  0
LINE
  5
18F
100
AcDbEntity
  8
supports
 62
256
370
-1
 48
1.0
  6
BYLAYER
100
AcDbLine
 10
46.5936000000000021
 20
-23.0736999999999988
 30
0.0
 11
46.4694999999999965
 21
-22.9774999999999991
 31
0.0
  0
LINE
  5
190
100
AcDbEntity
  8
supports
 62
256
370
-1
 48
1.0
  6
BYLAYER
100
AcDbLine
 10
46.4694999999999965
 20
-22.9774999999999991
 30
0.0
 11
46.3395999999999972
 21
-22.8891999999999989
 31
0.0
  0
LINE
  5
191
100
AcDbEntity
  8
supports
 62
256
370
-1
 48
1.0
  6
BYLAYER
100
AcDbLine
 10
46.3395999999999972
 20
-22.8891999999999989
 30
0.0
 11
46.2043999999999997
 21
-22.8092000000000006
 31
0.0
  0
LINE
  5
192
100
AcDbEntity
  8
supports
 62
256
370
-1
 48
1.0
  6
BYLAYER
100
AcDbLine
 10
46.2043999999999997
 20
-22.8092000000000006
 30
0.0
 11
46.0643999999999991
 21
-22.7378999999999998
 31
0.0
  0
LINE
  5
193
100
AcDbEntity
  8
supports
 62
256
370
-1
 48
1.0
  6
BYLAYER
100
AcDbLine
 10
46.0643999999999991
 20
-22.7378999999999998
 30
0.0
 11
45.9202999999999975
 21
-22.6755999999999993
 31
0.0
  0
LINE
  5
194
100
AcDbEntity
  8
supports
 62
256
370
-1
 48
1.0
  6
BYLAYER
100
AcDbLine
 10
45.9202999999999975
 20
-22.6755999999999993
 30
0.0
 11
45.7725000000000009
 21
-22.622399999999999
 31
0.0
  0
LINE
  5
195
100
AcDbEntity
  8
supports
 62
256
370
-1
 48
1.0
  6
BYLAYER
100
AcDbLine
 10
45.7725000000000009
 20
-22.622399999999999
 30
0.0
 11
45.621699999999997
 21
-22.5784999999999982
 31
0.0
  0
LINE
  5
196
100
AcDbEntity
  8
supports
 62
256
370
-1
 48
1.0
  6
BYLAYER
100
AcDbLine
 10
45.621699999999997
 20
-22.5784999999999982
 30
0.0
 11
45.4684999999999988
 21
-22.5442999999999998
 31
0.0
  0
LINE
  5
197
100
AcDbEntity
  8
supports
 62
256
370
-1
 48
1.0
  6
BYLAYER
100
AcDbLine
 10
45.4684999999999988
 20
-22.5442999999999998
 30
0.0
 11
45.3132999999999981
 21
-22.5197000000000003
 31
0.0
  0
LINE
  5
198
100
AcDbEntity
  8
supports
 62
256
370
-1
 48
1.0
  6
BYLAYER
100
AcDbLine
 10
45.3132999999999981
 20
-22.5197000000000003
 30
0.0
 11
45.1569999999999965
 21
-22.5048999999999992
 31
0.0
  0
LINE
  5
199
100
AcDbEntity
  8
supports
 62
256
370
-1
 48
1.0
  6
BYLAYER
100
AcDbLine
 10
45.1569999999999965
 20
-22.5048999999999992
 30
0.0
 11
45.0
 21
-22.5
 31
0.0
  0
LINE
  5
19A
100
AcDbEntity
  8
supports
 62
256
370
-1
 48
1.0
  6
BYLAYER
100
AcDbLine
 10
45.0
 20
-22.5
 30
0.0
 11
44.8430000000000035
 21
-22.5048999999999992
 31
0.0
  0
LINE
  5
19B
100
AcDbEntity
  8
supports
 62
256
370
-1
 48
1.0
  6
BYLAYER
100
AcDbLine
 10
44.8430000000000035
 20
-22.5048999999999992
 30
0.0
 11
44.6867000000000019
 21
-22.5197000000000003
 31
0.0
  0
LINE
  5
19C
100
AcDbEntity
  8
supports
 62
256
370
-1
 48
1.0
  6
BYLAYER
100
AcDbLine
 10
44.6867000000000019
 20
-22.5197000000000003
 30
0.0
 11
44.5315000000000012
 21
-22.5442999999999998
 31
0.0
  0
LINE
  5
19D
100
AcDbEntity
  8
supports
 62
256
370
-1
 48
1.0
  6
BYLAYER
100
AcDbLine
 10
44.5315000000000012
 20
-22.5442999999999998
 30
0.0
 11
44.378300000000003
 21
-22.5784999999999982
 31
0.0
  0
LINE
  5
19E
100
AcDbEntity
  8
supports
 62
256
370
-1
 48
1.0
  6
BYLAYER
100
AcDbLine
 10
44.378300000000003
 20
-22.5784999999999982
 30
0.0
 11
44.2274999999999991
 21
-22.622399999999999
 31
0.0
  0
LINE
  5
19F
100
AcDbEntity
  8
supports
 62
256
370
-1
 48
1.0
  6
BYLAYER
100
AcDbLine
 10
44.2274999999999991
 20
-22.622399999999999
 30
0.0
 11
44.0797000000000025
 21
-22.6755999999999993
 31
0.0
  0
LINE
  5
1A0
100
AcDbEntity
  8
supports
 62
256
370
-1
 48
1.0
  6
BYLAYER
100
AcDbLine
 10
44.0797000000000025
 20
-22.6755999999999993
 30
0.0
 11
43.9356000000000009
 21
-22.7378999999999998
 31
0.0
  0
LINE
  5
1A1
100
AcDbEntity
  8
supports
 62
256
370
-1
 48
1.0
  6
BYLAYER
100
AcDbLine
 10
43.9356000000000009
 20
-22.7378999999999998
 30
0.0
 11
43.7956000000000003
 21
-22.8092000000000006
 31
0.0
  0
LINE
  5
1A2
100
AcDbEntity
  8
supports
 62
256
370
-1
 48
1.0
  6
BYLAYER
100
AcDbLine
 10
43.7956000000000003
 20
-22.8092000000000006
 30
0.0
 11
43.6604000000000028
 21
-22.8891999999999989
 31
0.0
  0
LINE
  5
1A3
100
AcDbEntity
  8
supports
 62
256
370
-1
 48
1.0
  6
BYLAYER
100
AcDbLine
 10
43.6604000000000028
 20
-22.8891999999999989
 30
0.0
 11
43.5305000000000035
 21
-22.9774999999999991
 31
0.0
  0
LINE
  5
1A4
100
AcDbEntity
  8
supports
 62
256
370
-1
 48
1.0
  6
BYLAYER
100
AcDbLine
 10
43.5305000000000035
 20
-22.9774999999999991
 30
0.0
 11
43.4063999999999979
 21
-23.0736999999999988
 31
0.0
  0
LINE
  5
1A5
100
AcDbEntity
  8
supports
 62
256
370
-1
 48
1.0
  6
BYLAYER
100
AcDbLine
 10
43.4063999999999979
 20
-23.0736999999999988
 30
0.0
 11
43.2886000000000024
 21
-23.1776000000000018
 31
0.0
  0
LINE
  5
1A6
100
AcDbEntity
  8
supports
 62
256
370
-1
 48
1.0
  6
BYLAYER
100
AcDbLine
 10
43.2886000000000024
 20
-23.1776000000000018
 30
0.0
 11
43.1775999999999982
 21
-23.2885999999999989
 31
0.0
  0
LINE
  5
1A7
100
AcDbEntity
  8
supports
 62
256
370
-1
 48
1.0
  6
BYLAYER
100
AcDbLine
 10
43.1775999999999982
 20
-23.2885999999999989
 30
0.0
 11
43.0737000000000023
 21
-23.4064000000000014
 31
0.0
  0
LINE
  5
1A8
100
AcDbEntity
  8
supports
 62
256
370
-1
 48
1.0
  6
BYLAYER
100
AcDbLine
 10
43.0737000000000023
 20
-23.4064000000000014
 30
0.0
 11
42.9774999999999991
 21
-23.5305
 31
0.0
  0
LINE
  5
1A9
100
AcDbEntity
  8
supports
 62
256
370
-1
 48
1.0
  6
BYLAYER
100
AcDbLine
 10
42.9774999999999991
 20
-23.5305
 30
0.0
 11
42.8892000000000024
 21
-23.6603999999999992
 31
0.0
  0
LINE
  5
1AA
100
AcDbEntity
  8
supports
 62
256
370
-1
 48
1.0
  6
BYLAYER
100
AcDbLine
 10
42.8892000000000024
 20
-23.6603999999999992
 30
0.0
 11
42.809199999999997
 21
-23.7956000000000003
 31
0.0
  0
LINE
  5
1AB
100
AcDbEntity
  8
supports
 62
256
370
-1
 48
1.0
  6
BYLAYER
100
AcDbLine
 10
42.809199999999997
 20
-23.7956000000000003
 30
0.0
 11
42.7379000000000033
 21
-23.9356000000000009
 31
0.0
  0
LINE
  5
1AC
100
AcDbEntity
  8
supports
 62
256
370
-1
 48
1.0
  6
BYLAYER
100
AcDbLine
 10
42.7379000000000033
 20
-23.9356000000000009
 30
0.0
 11
42.6756000000000029
 21
-24.079699999999999
 31
0.0
  0
LINE
  5
1AD
100
AcDbEntity
  8
supports
 62
256
370
-1
 48
1.0
  6
BYLAYER
100
AcDbLine
 10
42.6756000000000029
 20
-24.079699999999999
 30
0.0
 11
42.622399999999999
 21
-24.2274999999999991
 31
0.0
  0
LINE
  5
1AE
100
AcDbEntity
  8
supports
 62
256
370
-1
 48
1.0
  6
BYLAYER
100
AcDbLine
 10
42.622399999999999
 20
-24.2274999999999991
 30
0.0
 11
42.5784999999999982
 21
-24.3782999999999994
 31
0.0
  0
LINE
  5
1AF
100
AcDbEntity
  8
supports
 62
256
370
-1
 48
1.0
  6
BYLAYER
100
AcDbLine
 10
42.5784999999999982
 20
-24.3782999999999994
 30
0.0
 11
42.5442999999999998
 21
-24.5315000000000012
 31
0.0
  0
LINE
  5
1B0
100
AcDbEntity
  8
supports
 62
256
370
-1
 48
1.0
  6
BYLAYER
100
AcDbLine
 10
42.5442999999999998
 20
-24.5315000000000012
 30
0.0
 11
42.5197000000000003
 21
-24.6866999999999983
 31
0.0
  0
LINE
  5
1B1
100
AcDbEntity
  8
supports
 62
256
370
-1
 48
1.0
  6
BYLAYER
100
AcDbLine
 10
42.5197000000000003
 20
-24.6866999999999983
 30
0.0
 11
42.5048999999999992
 21
-24.843
 31
0.0
  0
LINE
  5
1B2
100
AcDbEntity
  8
supports
 62
256
370
-1
 48
1.0
  6
BYLAYER
100
AcDbLine
 10
42.5048999999999992
 20
-24.843
 30
0.0
 11
42.5
 21
-25.0
 31
0.0
  0
ENDBLK
  5
1B3
100
AcDbEntity
  8
0
100
AcDbBlockEnd
  0
BLOCK
  5
1B4
100
AcDbEntity
  8
0
100
AcDbBlockBegin
  2
moteur
 70
0
 10
0.0
 20
0.0
 30
0.0
  3
moteur
  1

  0
CIRCLE
  5
1B5
100
AcDbEntity
  8
supports
 62
256
370
-1
 48
1.0
  6
BYLAYER
100
AcDbCircle
 10
0.0
 20
0.0
 30
0.0
 40
2.5
  0
CIRCLE
  5
1B6
100
AcDbEntity
  8
moteur
 62
256
370
-1
 48
1.0
  6
BYLAYER
100
AcDbCircle
 10
0.0
 20
0.0
 30
0.0
 40
4.5
  0
CIRCLE
  5
1B7
100
AcDbEntity
  8
moteur
 62
256
370
-1
 48
1.0
  6
BYLAYER
100
AcDbCircle
 10
8.0
 20
-0.000000000000002
 30
0.0
 40
14.0
  0
CIRCLE
  5
1B8
100
AcDbEntity
  8
moteur
 62
256
370
-1
 48
1.0
  6
BYLAYER
100
AcDbCircle
 10
7.9999999999999982
 20
-17.5
 30
0.0
 40
1.75
  0
CIRCLE
  5
1B9
100
AcDbEntity
  8
moteur
 62
256
370
-1
 48
1.0
  6
BYLAYER
100
AcDbCircle
 10
8.0000000000000071
 20
17.4999999999999964
 30
0.0
 40
1.75
  0
CIRCLE
  5
1BA
100
AcDbEntity
  8
moteur
 62
256
370
-1
 48
1.0
  6
BYLAYER
100
AcDbCircle
 10
8.0000000000000071
 20
17.4999999999999964
 30
0.0
 40
3.5
  0
CIRCLE
  5
1BB
100
AcDbEntity
  8
moteur
 62
256
370
-1
 48
1.0
  6
BYLAYER
100
AcDbCircle
 10
7.9999999999999982
 20
-17.5
 30
0.0
 40
3.5
  0
LINE
  5
1BC
100
AcDbEntity
  8
moteur
 62
256
370
-1
 48
1.0
  6
BYLAYER
100
AcDbLine
 10
24.9999999999999964
 20
-7.3000000000000078
 30
0.0
 11
25.0
 21
7.2999999999999963
 31
0.0
  0
LINE
  5
1BD
100
AcDbEntity
  8
moteur
 62
256
370
-1
 48
1.0
  6
BYLAYER
100
AcDbLine
 10
25.0
 20
7.2999999999999963
 30
0.0
 11
19.9461290801665143
 21
7.2999999999999874
 31
0.0
  0
LINE
  5
1BE
100
AcDbEntity
  8
moteur
 62
256
370
-1
 48
1.0
  6
BYLAYER
100
AcDbLine
 10
19.9461290801665179
 20
-7.3000000000000007
 30
0.0
 11
24.9999999999999964
 21
-7.3000000000000078
 31
0.0
  0
LINE
  5
1BF
100
AcDbEntity
  8
moteur
 62
256
370
-1
 48
1.0
  6
BYLAYER
100
AcDbLine
 10
4.4999999999999947
 20
-17.5000000000000036
 30
0.0
 11
4.5000000000000009
 21
-13.5554417117259565
 31
0.0
  0
LINE
  5
1C0
100
AcDbEntity
  8
moteur
 62
256
370
-1
 48
1.0
  6
BYLAYER
100
AcDbLine
 10
11.4999999999999929
 20
-17.5000000000000036
 30
0.0
 11
11.4999999999999929
 21
-13.5554417117259582
 31
0.0
  0
LINE
  5
1C1
100
AcDbEntity
  8
moteur
 62
256
370
-1
 48
1.0
  6
BYLAYER
100
AcDbLine
 10
4.500000000000008
 20
13.5554417117259565
 30
0.0
 11
4.5000000000000027
 21
17.5
 31
0.0
  0
LINE
  5
1C2
100
AcDbEntity
  8
moteur
 62
256
370
-1
 48
1.0
  6
BYLAYER
100
AcDbLine
 10
11.5000000000000036
 20
13.5554417117259547
 30
0.0
 11
11.5000000000000018
 21
17.5
 31
0.0
  0
LINE
  5
1C3
100
AcDbEntity
  8
supports
 62
256
370
-1
 48
1.0
  6
BYLAYER
100
AcDbLine
 10
2.0000000000000009
 20
1.4999999999999991
 30
0.0
 11
-1.9999999999999993
 21
1.5000000000000009
 31
0.0
  0
LINE
  5
1C4
100
AcDbEntity
  8
supports
 62
256
370
-1
 48
1.0
  6
BYLAYER
100
AcDbLine
 10
-2.0000000000000004
 20
-1.4999999999999993
 30
0.0
 11
1.9999999999999998
 21
-1.5000000000000002
 31
0.0
  0
ENDBLK
  5
1C5
100
AcDbEntity
  8
0
100
AcDbBlockEnd
  0
BLOCK
  5
1C6
100
AcDbEntity
  8
0
100
AcDbBlockBegin
  2
trappe_o
 70
0
 10
0.0
 20
0.0
 30
0.0
  3
trappe_o
  1

  0
LINE
  5
1C7
100
AcDbEntity
  8
trappe_o
 62
256
370
-1
 48
1.0
  6
BYLAYER
100
AcDbLine
 10
189.5942304240610952
 20
-10.0138798628715673
 30
0.0
 11
355.4606476563366755
 21
4.4975513046134985
 31
0.0
  0
LINE
  5
1C8
100
AcDbEntity
  8
trappe_o
 62
256
370
-1
 48
1.0
  6
BYLAYER
100
AcDbLine
 10
357.2787255670249351
 20
6.6642521862923116
 30
0.0
 11
355.7099221975670389
 21
24.5957567519443643
 31
0.0
  0
LINE
  5
1C9
100
AcDbEntity
  8
trappe_o
 62
256
370
-1
 48
1.0
  6
BYLAYER
100
AcDbLine
 10
176.3948765410528665
 20
8.9077230573652404
 30
0.0
 11
177.1357003544079589
 21
0.4400681235854574
 31
0.0
  0
LINE
  5
1CA
100
AcDbEntity
  8
trappe_o
 62
256
370
-1
 48
1.0
  6
BYLAYER
100
AcDbLine
 10
0.5665123278597762
 20
-6.4752655375963464
 30
0.0
 11
176.3948765410528665
 21
8.9077230573652404
 31
0.0
  0
LINE
  5
1CB
100
AcDbEntity
  8
trappe_o
 62
256
370
-1
 48
1.0
  6
BYLAYER
100
AcDbLine
 10
355.7099221975670389
 20
24.5957567519443643
 30
0.0
 11
354.7512090273428953
 21
35.5538984309523727
 31
0.0
  0
LINE
  5
1CC
100
AcDbEntity
  8
trappe_o
 62
256
370
-1
 48
1.0
  6
BYLAYER
100
AcDbLine
 10
352.5845081456641879
 20
37.3719763416405542
 30
0.0
 11
-0.5665123278597771
 21
6.4752655375963464
 31
0.0
  0
ARC
  5
1CD
100
AcDbEntity
  8
trappe_o
 62
256
370
-1
 48
1.0
  6
BYLAYER
100
AcDbCircle
 10
0.0
 20
0.0
 30
0.0
 40
6.5
100
AcDbArc
 50
95.0
 51
275.0
  0
CIRCLE
  5
1CE
100
AcDbEntity
  8
trappe_o
 62
256
370
-1
 48
1.0
  6
BYLAYER
100
AcDbCircle
 10
0.0
 20
0.0
 30
0.0
 40
2.5
  0
ARC
  5
1CF
100
AcDbEntity
  8
trappe_o
 62
256
370
-1
 48
1.0
  6
BYLAYER
100
AcDbCircle
 10
188.5919393824630106
 20
1.4423591651836536
 30
0.0
 40
11.5000000000000036
100
AcDbArc
 50
184.9999999999999716
 51
275.0
  0
CIRCLE
  5
1D0
100
AcDbEntity
  8
trappe_o
 62
256
370
-1
 48
1.0
  6
BYLAYER
100
AcDbCircle
 10
149.429204713761834
 20
13.0733614121487243
 30
0.0
 40
2.5
  0
ARC
  5
1D1
100
AcDbEntity
  8
trappe_o
 62
256
370
-1
 48
1.0
  6
BYLAYER
100
AcDbCircle
 10
352.758819631159497
 20
35.3795869454570635
 30
0.0
 40
2.0
100
AcDbArc
 50
5.0000000000000639
 51
94.999999999999801
  0
ARC
  5
1D2
100
AcDbEntity
  8
trappe_o
 62
256
370
-1
 48
1.0
  6
BYLAYER
100
AcDbCircle
 10
355.2863361708413663
 20
6.48994070079699
 30
0.0
 40
2.0
100
AcDbArc
 50
274.9999999999997726
 51
4.9999999999999183
  0
ENDBLK
  5
1D3
100
AcDbEntity
  8
0
100
AcDbBlockEnd
  0
BLOCK
  5
1D4
100
AcDbEntity
  8
0
100
AcDbBlockBegin
  2
support_moteur
 70
0
 10
0.0
 20
0.0
 30
0.0
  3
support_moteur
  1

  0
LINE
  5
1D5
100
AcDbEntity
  8
supports
 62
256
370
-1
 48
1.0
  6
BYLAYER
100
AcDbLine
 10
-8.0
 20
-22.0
 30
0.0
 11
17.0
 21
-22.0
 31
0.0
  0
LINE
  5
1D6
100
AcDbEntity
  8
supports
 62
256
370
-1
 48
1.0
  6
BYLAYER
100
AcDbLine
 10
-6.5
 20
-19.0
 30
0.0
 11
-5.7677699999999996
 21
-20.7678000000000011
 31
0.0
  0
LINE
  5
1D7
100
AcDbEntity
  8
supports
 62
256
370
-1
 48
1.0
  6
BYLAYER
100
AcDbLine
 10
17.0
 20
-22.0
 30
0.0
 11
17.0
 21
-17.5336999999999996
 31
0.0
  0
LINE
  5
1D8
100
AcDbEntity
  8
supports
 62
256
370
-1
 48
1.0
  6
BYLAYER
100
AcDbLine
 10
-5.7677699999999996
 20
-20.7678000000000011
 30
0.0
 11
-4.0
 21
-21.5
 31
0.0
  0
LINE
  5
1D9
100
AcDbEntity
  8
supports
 62
256
370
-1
 48
1.0
  6
BYLAYER
100
AcDbLine
 10
17.0
 20
-17.5336999999999996
 30
0.0
 11
-1.87012
 21
-7.5
 31
0.0
  0
LINE
  5
1DA
100
AcDbEntity
  8
supports
 62
256
370
-1
 48
1.0
  6
BYLAYER
100
AcDbLine
 10
-4.0
 20
-21.5
 30
0.0
 11
-2.2322299999999999
 21
-20.7678000000000011
 31
0.0
  0
LINE
  5
1DB
100
AcDbEntity
  8
supports
 62
256
370
-1
 48
1.0
  6
BYLAYER
100
AcDbLine
 10
-1.87012
 20
-7.5
 30
0.0
 11
-8.0
 21
-7.5
 31
0.0
  0
LINE
  5
1DC
100
AcDbEntity
  8
supports
 62
256
370
-1
 48
1.0
  6
BYLAYER
100
AcDbLine
 10
-2.2322299999999999
 20
-20.7678000000000011
 30
0.0
 11
-1.5
 21
-19.0
 31
0.0
  0
LINE
  5
1DD
100
AcDbEntity
  8
supports
 62
256
370
-1
 48
1.0
  6
BYLAYER
100
AcDbLine
 10
-8.0
 20
-7.5
 30
0.0
 11
-8.0
 21
-22.0
 31
0.0
  0
LINE
  5
1DE
100
AcDbEntity
  8
supports
 62
256
370
-1
 48
1.0
  6
BYLAYER
100
AcDbLine
 10
-1.5
 20
-19.0
 30
0.0
 11
-2.2322299999999999
 21
-17.2321999999999989
 31
0.0
  0
LINE
  5
1DF
100
AcDbEntity
  8
supports
 62
256
370
-1
 48
1.0
  6
BYLAYER
100
AcDbLine
 10
5.5
 20
-17.5
 30
0.0
 11
6.2322300000000004
 21
-15.7322000000000006
 31
0.0
  0
LINE
  5
1E0
100
AcDbEntity
  8
supports
 62
256
370
-1
 48
1.0
  6
BYLAYER
100
AcDbLine
 10
-2.2322299999999999
 20
-17.2321999999999989
 30
0.0
 11
-4.0
 21
-16.5
 31
0.0
  0
LINE
  5
1E1
100
AcDbEntity
  8
supports
 62
256
370
-1
 48
1.0
  6
BYLAYER
100
AcDbLine
 10
6.2322300000000004
 20
-15.7322000000000006
 30
0.0
 11
8.0
 21
-15.0
 31
0.0
  0
LINE
  5
1E2
100
AcDbEntity
  8
supports
 62
256
370
-1
 48
1.0
  6
BYLAYER
100
AcDbLine
 10
-4.0
 20
-16.5
 30
0.0
 11
-5.7677699999999996
 21
-17.2321999999999989
 31
0.0
  0
LINE
  5
1E3
100
AcDbEntity
  8
supports
 62
256
370
-1
 48
1.0
  6
BYLAYER
100
AcDbLine
 10
8.0
 20
-15.0
 30
0.0
 11
9.7677700000000005
 21
-15.7322000000000006
 31
0.0
  0
LINE
  5
1E4
100
AcDbEntity
  8
supports
 62
256
370
-1
 48
1.0
  6
BYLAYER
100
AcDbLine
 10
-5.7677699999999996
 20
-17.2321999999999989
 30
0.0
 11
-6.5
 21
-19.0
 31
0.0
  0
LINE
  5
1E5
100
AcDbEntity
  8
supports
 62
256
370
-1
 48
1.0
  6
BYLAYER
100
AcDbLine
 10
9.7677700000000005
 20
-15.7322000000000006
 30
0.0
 11
10.5
 21
-17.5
 31
0.0
  0
LINE
  5
1E6
100
AcDbEntity
  8
supports
 62
256
370
-1
 48
1.0
  6
BYLAYER
100
AcDbLine
 10
-6.5
 20
19.0
 30
0.0
 11
-5.7677699999999996
 21
17.2321999999999989
 31
0.0
  0
LINE
  5
1E7
100
AcDbEntity
  8
supports
 62
256
370
-1
 48
1.0
  6
BYLAYER
100
AcDbLine
 10
10.5
 20
-17.5
 30
0.0
 11
9.7677700000000005
 21
-19.2678000000000011
 31
0.0
  0
LINE
  5
1E8
100
AcDbEntity
  8
supports
 62
256
370
-1
 48
1.0
  6
BYLAYER
100
AcDbLine
 10
-5.7677699999999996
 20
17.2321999999999989
 30
0.0
 11
-4.0
 21
16.5
 31
0.0
  0
LINE
  5
1E9
100
AcDbEntity
  8
supports
 62
256
370
-1
 48
1.0
  6
BYLAYER
100
AcDbLine
 10
9.7677700000000005
 20
-19.2678000000000011
 30
0.0
 11
8.0
 21
-20.0
 31
0.0
  0
LINE
  5
1EA
100
AcDbEntity
  8
supports
 62
256
370
-1
 48
1.0
  6
BYLAYER
100
AcDbLine
 10
-4.0
 20
16.5
 30
0.0
 11
-2.2322299999999999
 21
17.2321999999999989
 31
0.0
  0
LINE
  5
1EB
100
AcDbEntity
  8
supports
 62
256
370
-1
 48
1.0
  6
BYLAYER
100
AcDbLine
 10
8.0
 20
-20.0
 30
0.0
 11
6.2322300000000004
 21
-19.2678000000000011
 31
0.0
  0
LINE
  5
1EC
100
AcDbEntity
  8
supports
 62
256
370
-1
 48
1.0
  6
BYLAYER
100
AcDbLine
 10
-2.2322299999999999
 20
17.2321999999999989
 30
0.0
 11
-1.5
 21
19.0
 31
0.0
  0
LINE
  5
1ED
100
AcDbEntity
  8
supports
 62
256
370
-1
 48
1.0
  6
BYLAYER
100
AcDbLine
 10
6.2322300000000004
 20
-19.2678000000000011
 30
0.0
 11
5.5
 21
-17.5
 31
0.0
  0
LINE
  5
1EE
100
AcDbEntity
  8
supports
 62
256
370
-1
 48
1.0
  6
BYLAYER
100
AcDbLine
 10
-1.5
 20
19.0
 30
0.0
 11
-2.2322299999999999
 21
20.7678000000000011
 31
0.0
  0
LINE
  5
1EF
100
AcDbEntity
  8
supports
 62
256
370
-1
 48
1.0
  6
BYLAYER
100
AcDbLine
 10
-8.0
 20
12.7482000000000006
 30
0.0
 11
1.87012
 21
7.5
 31
0.0
  0
LINE
  5
1F0
100
AcDbEntity
  8
supports
 62
256
370
-1
 48
1.0
  6
BYLAYER
100
AcDbLine
 10
-2.2322299999999999
 20
20.7678000000000011
 30
0.0
 11
-4.0
 21
21.5
 31
0.0
  0
LINE
  5
1F1
100
AcDbEntity
  8
supports
 62
256
370
-1
 48
1.0
  6
BYLAYER
100
AcDbLine
 10
1.87012
 20
7.5
 30
0.0
 11
17.0
 21
7.5
 31
0.0
  0
LINE
  5
1F2
100
AcDbEntity
  8
supports
 62
256
370
-1
 48
1.0
  6
BYLAYER
100
AcDbLine
 10
-4.0
 20
21.5
 30
0.0
 11
-5.7677699999999996
 21
20.7678000000000011
 31
0.0
  0
LINE
  5
1F3
100
AcDbEntity
  8
supports
 62
256
370
-1
 48
1.0
  6
BYLAYER
100
AcDbLine
 10
17.0
 20
7.5
 30
0.0
 11
17.0
 21
22.0
 31
0.0
  0
LINE
  5
1F4
100
AcDbEntity
  8
supports
 62
256
370
-1
 48
1.0
  6
BYLAYER
100
AcDbLine
 10
-5.7677699999999996
 20
20.7678000000000011
 30
0.0
 11
-6.5
 21
19.0
 31
0.0
  0
LINE
  5
1F5
100
AcDbEntity
  8
supports
 62
256
370
-1
 48
1.0
  6
BYLAYER
100
AcDbLine
 10
17.0
 20
22.0
 30
0.0
 11
-8.0
 21
22.0
 31
0.0
  0
LINE
  5
1F6
100
AcDbEntity
  8
supports
 62
256
370
-1
 48
1.0
  6
BYLAYER
100
AcDbLine
 10
11.5
 20
-19.0
 30
0.0
 11
12.2322000000000006
 21
-20.7678000000000011
 31
0.0
  0
LINE
  5
1F7
100
AcDbEntity
  8
supports
 62
256
370
-1
 48
1.0
  6
BYLAYER
100
AcDbLine
 10
-8.0
 20
22.0
 30
0.0
 11
-8.0
 21
12.7482000000000006
 31
0.0
  0
LINE
  5
1F8
100
AcDbEntity
  8
supports
 62
256
370
-1
 48
1.0
  6
BYLAYER
100
AcDbLine
 10
12.2322000000000006
 20
-20.7678000000000011
 30
0.0
 11
14.0
 21
-21.5
 31
0.0
  0
LINE
  5
1F9
100
AcDbEntity
  8
supports
 62
256
370
-1
 48
1.0
  6
BYLAYER
100
AcDbLine
 10
5.5
 20
17.5
 30
0.0
 11
6.2322300000000004
 21
19.2678000000000011
 31
0.0
  0
LINE
  5
1FA
100
AcDbEntity
  8
supports
 62
256
370
-1
 48
1.0
  6
BYLAYER
100
AcDbLine
 10
14.0
 20
-21.5
 30
0.0
 11
15.7677999999999994
 21
-20.7678000000000011
 31
0.0
  0
LINE
  5
1FB
100
AcDbEntity
  8
supports
 62
256
370
-1
 48
1.0
  6
BYLAYER
100
AcDbLine
 10
6.2322300000000004
 20
19.2678000000000011
 30
0.0
 11
8.0
 21
20.0
 31
0.0
  0
LINE
  5
1FC
100
AcDbEntity
  8
supports
 62
256
370
-1
 48
1.0
  6
BYLAYER
100
AcDbLine
 10
15.7677999999999994
 20
-20.7678000000000011
 30
0.0
 11
16.5
 21
-19.0
 31
0.0
  0
LINE
  5
1FD
100
AcDbEntity
  8
supports
 62
256
370
-1
 48
1.0
  6
BYLAYER
100
AcDbLine
 10
8.0
 20
20.0
 30
0.0
 11
9.7677700000000005
 21
19.2678000000000011
 31
0.0
  0
LINE
  5
1FE
100
AcDbEntity
  8
supports
 62
256
370
-1
 48
1.0
  6
BYLAYER
100
AcDbLine
 10
16.5
 20
-19.0
 30
0.0
 11
15.7677999999999994
 21
-17.2321999999999989
 31
0.0
  0
LINE
  5
1FF
100
AcDbEntity
  8
supports
 62
256
370
-1
 48
1.0
  6
BYLAYER
100
AcDbLine
 10
9.7677700000000005
 20
19.2678000000000011
 30
0.0
 11
10.5
 21
17.5
 31
0.0
  0
LINE
  5
200
100
AcDbEntity
  8
supports
 62
256
370
-1
 48
1.0
  6
BYLAYER
100
AcDbLine
 10
15.7677999999999994
 20
-17.2321999999999989
 30
0.0
 11
14.0
 21
-16.5
 31
0.0
  0
LINE
  5
201
100
AcDbEntity
  8
supports
 62
256
370
-1
 48
1.0
  6
BYLAYER
100
AcDbLine
 10
10.5
 20
17.5
 30
0.0
 11
9.7677700000000005
 21
15.7322000000000006
 31
0.0
  0
LINE
  5
202
100
AcDbEntity
  8
supports
 62
256
370
-1
 48
1.0
  6
BYLAYER
100
AcDbLine
 10
14.0
 20
-16.5
 30
0.0
 11
12.2322000000000006
 21
-17.2321999999999989
 31
0.0
  0
LINE
  5
203
100
AcDbEntity
  8
supports
 62
256
370
-1
 48
1.0
  6
BYLAYER
100
AcDbLine
 10
9.7677700000000005
 20
15.7322000000000006
 30
0.0
 11
8.0
 21
15.0
 31
0.0
  0
LINE
  5
204
100
AcDbEntity
  8
supports
 62
256
370
-1
 48
1.0
  6
BYLAYER
100
AcDbLine
 10
12.2322000000000006
 20
-17.2321999999999989
 30
0.0
 11
11.5
 21
-19.0
 31
0.0
  0
LINE
  5
205
100
AcDbEntity
  8
supports
 62
256
370
-1
 48
1.0
  6
BYLAYER
100
AcDbLine
 10
8.0
 20
15.0
 30
0.0
 11
6.2322300000000004
 21
15.7322000000000006
 31
0.0
  0
LINE
  5
206
100
AcDbEntity
  8
supports
 62
256
370
-1
 48
1.0
  6
BYLAYER
100
AcDbLine
 10
11.5
 20
19.0
 30
0.0
 11
12.2322000000000006
 21
17.2321999999999989
 31
0.0
  0
LINE
  5
207
100
AcDbEntity
  8
supports
 62
256
370
-1
 48
1.0
  6
BYLAYER
100
AcDbLine
 10
6.2322300000000004
 20
15.7322000000000006
 30
0.0
 11
5.5
 21
17.5
 31
0.0
  0
LINE
  5
208
100
AcDbEntity
  8
supports
 62
256
370
-1
 48
1.0
  6
BYLAYER
100
AcDbLine
 10
12.2322000000000006
 20
17.2321999999999989
 30
0.0
 11
14.0
 21
16.5
 31
0.0
  0
LINE
  5
209
100
AcDbEntity
  8
supports
 62
256
370
-1
 48
1.0
  6
BYLAYER
100
AcDbLine
 10
14.0
 20
16.5
 30
0.0
 11
15.7677999999999994
 21
17.2321999999999989
 31
0.0
  0
LINE
  5
20A
100
AcDbEntity
  8
supports
 62
256
370
-1
 48
1.0
  6
BYLAYER
100
AcDbLine
 10
15.7677999999999994
 20
17.2321999999999989
 30
0.0
 11
16.5
 21
19.0
 31
0.0
  0
LINE
  5
20B
100
AcDbEntity
  8
supports
 62
256
370
-1
 48
1.0
  6
BYLAYER
100
AcDbLine
 10
16.5
 20
19.0
 30
0.0
 11
15.7677999999999994
 21
20.7678000000000011
 31
0.0
  0
LINE
  5
20C
100
AcDbEntity
  8
supports
 62
256
370
-1
 48
1.0
  6
BYLAYER
100
AcDbLine
 10
15.7677999999999994
 20
20.7678000000000011
 30
0.0
 11
14.0
 21
21.5
 31
0.0
  0
LINE
  5
20D
100
AcDbEntity
  8
supports
 62
256
370
-1
 48
1.0
  6
BYLAYER
100
AcDbLine
 10
14.0
 20
21.5
 30
0.0
 11
12.2322000000000006
 21
20.7678000000000011
 31
0.0
  0
LINE
  5
20E
100
AcDbEntity
  8
supports
 62
256
370
-1
 48
1.0
  6
BYLAYER
100
AcDbLine
 10
12.2322000000000006
 20
20.7678000000000011
 30
0.0
 11
11.5
 21
19.0
 31
0.0
  0
LINE
  5
20F
100
AcDbEntity
  8
supports
 62
256
370
-1
 48
1.0
  6
ACAD_ISO07W100
100
AcDbLine
 10
17.0
 20
7.4999999999999991
 30
0.0
 11
17.0
 21
-17.5336999999999996
 31
0.0
  0
LINE
  5
210
100
AcDbEntity
  8
supports
 62
256
370
-1
 48
1.0
  6
ACAD_ISO07W100
100
AcDbLine
 10
-8.0
 20
12.7482000000000006
 30
0.0
 11
-8.0
 21
-7.5
 31
0.0
  0
ENDBLK
  5
211
100
AcDbEntity
  8
0
100
AcDbBlockEnd
  0
ENDSEC
  0
SECTION
  2
ENTITIES
  0
ARC
  5
212
100
AcDbEntity
  8
trappe
 62
256
370
-1
 48
1.0
  6
BYLAYER
100
AcDbCircle
 10
0.0
 20
-70.0
 30
0.0
 40
2.5
100
AcDbArc
 50
143.13010235415598
 51
216.86989764584402
  0
ARC
  5
213
100
AcDbEntity
  8
trappe
 62
256
370
-1
 48
1.0
  6
BYLAYER
100
AcDbCircle
 10
0.0
 20
-70.0
 30
0.0
 40
2.5
100
AcDbArc
 50
323.1301023541559516
 51
36.8698976458440129
  0
LINE
  5
214
100
AcDbEntity
  8
trappe
 62
256
370
-1
 48
1.0
  6
BYLAYER
100
AcDbLine
 10
2.0
 20
-68.5
 30
0.0
 11
-2.0
 21
-68.5
 31
0.0
  0
LINE
  5
215
100
AcDbEntity
  8
trappe
 62
256
370
-1
 48
1.0
  6
BYLAYER
100
AcDbLine
 10
-2.0
 20
-71.5
 30
0.0
 11
2.0
 21
-71.5
 31
0.0
  0
LINE
  5
216
100
AcDbEntity
  8
passage
 62
256
370
-1
 48
1.0
  6
BYLAYER
100
AcDbLine
 10
-171.0
 20
-6.5
 30
0.0
 11
-13.0000000000000018
 21
-6.5
 31
0.0
  0
LINE
  5
217
100
AcDbEntity
  8
gabari
 62
256
370
-1
 48
1.0
  6
BYLAYER
100
AcDbLine
 10
-171.0
 20
-6.5
 30
0.0
 11
-13.0000000000000018
 21
-6.5
 31
0.0
  0
ARC
  5
218
100
AcDbEntity
  8
passage
 62
256
370
-1
 48
1.0
  6
BYLAYER
100
AcDbCircle
 10
-13.0
 20
0.0
 30
0.0
 40
6.5
100
AcDbArc
 50
270.0
 51
0.0
  0
ARC
  5
219
100
AcDbEntity
  8
gabari
 62
256
370
-1
 48
1.0
  6
BYLAYER
100
AcDbCircle
 10
-13.0
 20
0.0
 30
0.0
 40
6.5
100
AcDbArc
 50
270.0
 51
0.0
  0
LINE
  5
21A
100
AcDbEntity
  8
passage
 62
256
370
-1
 48
1.0
  6
BYLAYER
100
AcDbLine
 10
-6.5
 20
0.0
 30
0.0
 11
-6.5
 21
0.0
 31
0.0
  0
LINE
  5
21B
100
AcDbEntity
  8
gabari
 62
256
370
-1
 48
1.0
  6
BYLAYER
100
AcDbLine
 10
-6.5
 20
0.0
 30
0.0
 11
-6.5
 21
0.0
 31
0.0
  0
ARC
  5
21C
100
AcDbEntity
  8
passage
 62
256
370
-1
 48
1.0
  6
BYLAYER
100
AcDbCircle
 10
-13.0
 20
0.0
 30
0.0
 40
6.5
100
AcDbArc
 50
0.0
 51
90.0
  0
ARC
  5
21D
100
AcDbEntity
  8
gabari
 62
256
370
-1
 48
1.0
  6
BYLAYER
100
AcDbCircle
 10
-13.0
 20
0.0
 30
0.0
 40
6.5
100
AcDbArc
 50
0.0
 51
90.0
  0
LINE
  5
21E
100
AcDbEntity
  8
passage
 62
256
370
-1
 48
1.0
  6
BYLAYER
100
AcDbLine
 10
-13.0
 20
6.5
 30
0.0
 11
-171.0
 21
6.5
 31
0.0
  0
LINE
  5
21F
100
AcDbEntity
  8
gabari
 62
256
370
-1
 48
1.0
  6
BYLAYER
100
AcDbLine
 10
-13.0
 20
6.5
 30
0.0
 11
-171.0
 21
6.5
 31
0.0
  0
ARC
  5
220
100
AcDbEntity
  8
passage
 62
256
370
-1
 48
1.0
  6
BYLAYER
100
AcDbCircle
 10
-171.0
 20
0.0
 30
0.0
 40
6.5
100
AcDbArc
 50
90.0
 51
180.0
  0
ARC
  5
221
100
AcDbEntity
  8
gabari
 62
256
370
-1
 48
1.0
  6
BYLAYER
100
AcDbCircle
 10
-171.0
 20
0.0
 30
0.0
 40
6.5
100
AcDbArc
 50
90.0
 51
180.0
  0
LINE
  5
222
100
AcDbEntity
  8
passage
 62
256
370
-1
 48
1.0
  6
BYLAYER
100
AcDbLine
 10
-177.5
 20
0.0000000000000008
 30
0.0
 11
-177.5
 21
0.0000000000000008
 31
0.0
  0
LINE
  5
223
100
AcDbEntity
  8
gabari
 62
256
370
-1
 48
1.0
  6
BYLAYER
100
AcDbLine
 10
-177.5
 20
0.0000000000000008
 30
0.0
 11
-177.5
 21
0.0000000000000008
 31
0.0
  0
ARC
  5
224
100
AcDbEntity
  8
passage
 62
256
370
-1
 48
1.0
  6
BYLAYER
100
AcDbCircle
 10
-171.0
 20
0.0
 30
0.0
 40
6.5
100
AcDbArc
 50
180.0
 51
270.0
  0
ARC
  5
225
100
AcDbEntity
  8
gabari
 62
256
370
-1
 48
1.0
  6
BYLAYER
100
AcDbCircle
 10
-171.0
 20
0.0
 30
0.0
 40
6.5
100
AcDbArc
 50
180.0
 51
270.0
  0
LINE
  5
226
100
AcDbEntity
  8
passage
 62
256
370
-1
 48
1.0
  6
BYLAYER
100
AcDbLine
 10
12.9999999999999982
 20
-6.5
 30
0.0
 11
171.0
 21
-6.5
 31
0.0
  0
LINE
  5
227
100
AcDbEntity
  8
gabari
 62
256
370
-1
 48
1.0
  6
BYLAYER
100
AcDbLine
 10
12.9999999999999982
 20
-6.5
 30
0.0
 11
171.0
 21
-6.5
 31
0.0
  0
ARC
  5
228
100
AcDbEntity
  8
passage
 62
256
370
-1
 48
1.0
  6
BYLAYER
100
AcDbCircle
 10
171.0
 20
0.0
 30
0.0
 40
6.5
100
AcDbArc
 50
270.0
 51
0.0
  0
ARC
  5
229
100
AcDbEntity
  8
gabari
 62
256
370
-1
 48
1.0
  6
BYLAYER
100
AcDbCircle
 10
171.0
 20
0.0
 30
0.0
 40
6.5
100
AcDbArc
 50
270.0
 51
0.0
  0
LINE
  5
22A
100
AcDbEntity
  8
passage
 62
256
370
-1
 48
1.0
  6
BYLAYER
100
AcDbLine
 10
177.5
 20
0.0
 30
0.0
 11
177.5
 21
0.0
 31
0.0
  0
LINE
  5
22B
100
AcDbEntity
  8
gabari
 62
256
370
-1
 48
1.0
  6
BYLAYER
100
AcDbLine
 10
177.5
 20
0.0
 30
0.0
 11
177.5
 21
0.0
 31
0.0
  0
ARC
  5
22C
100
AcDbEntity
  8
passage
 62
256
370
-1
 48
1.0
  6
BYLAYER
100
AcDbCircle
 10
171.0
 20
0.0
 30
0.0
 40
6.5
100
AcDbArc
 50
0.0
 51
90.0
  0
ARC
  5
22D
100
AcDbEntity
  8
gabari
 62
256
370
-1
 48
1.0
  6
BYLAYER
100
AcDbCircle
 10
171.0
 20
0.0
 30
0.0
 40
6.5
100
AcDbArc
 50
0.0
 51
90.0
  0
LINE
  5
22E
100
AcDbEntity
  8
passage
 62
256
370
-1
 48
1.0
  6
BYLAYER
100
AcDbLine
 10
171.0
 20
6.5
 30
0.0
 11
13.0
 21
6.5
 31
0.0
  0
LINE
  5
22F
100
AcDbEntity
  8
gabari
 62
256
370
-1
 48
1.0
  6
BYLAYER
100
AcDbLine
 10
171.0
 20
6.5
 30
0.0
 11
13.0
 21
6.5
 31
0.0
  0
ARC
  5
230
100
AcDbEntity
  8
passage
 62
256
370
-1
 48
1.0
  6
BYLAYER
100
AcDbCircle
 10
13.0
 20
0.0
 30
0.0
 40
6.5
100
AcDbArc
 50
90.0
 51
180.0
  0
ARC
  5
231
100
AcDbEntity
  8
gabari
 62
256
370
-1
 48
1.0
  6
BYLAYER
100
AcDbCircle
 10
13.0
 20
0.0
 30
0.0
 40
6.5
100
AcDbArc
 50
90.0
 51
180.0
  0
LINE
  5
232
100
AcDbEntity
  8
passage
 62
256
370
-1
 48
1.0
  6
BYLAYER
100
AcDbLine
 10
6.5
 20
0.0000000000000008
 30
0.0
 11
6.5
 21
0.0000000000000008
 31
0.0
  0
LINE
  5
233
100
AcDbEntity
  8
gabari
 62
256
370
-1
 48
1.0
  6
BYLAYER
100
AcDbLine
 10
6.5
 20
0.0000000000000008
 30
0.0
 11
6.5
 21
0.0000000000000008
 31
0.0
  0
ARC
  5
234
100
AcDbEntity
  8
passage
 62
256
370
-1
 48
1.0
  6
BYLAYER
100
AcDbCircle
 10
13.0
 20
0.0
 30
0.0
 40
6.5
100
AcDbArc
 50
180.0
 51
270.0
  0
ARC
  5
235
100
AcDbEntity
  8
gabari
 62
256
370
-1
 48
1.0
  6
BYLAYER
100
AcDbCircle
 10
13.0
 20
0.0
 30
0.0
 40
6.5
100
AcDbArc
 50
180.0
 51
270.0
  0
INSERT
  5
236
100
AcDbEntity
  8
0
 62
256
370
-1
 48
1.0
  6
BYLAYER
100
AcDbBlockReference
  2
moteur
 10
0.0
 20
-70.0
 30
0.0
  0
INSERT
  5
237
100
AcDbEntity
  8
trappe
 62
256
370
-1
 48
1.0
  6
BYLAYER
100
AcDbBlockReference
  2
trappe
 10
-175.0
 20
16.5
 30
0.0
  0
INSERT
  5
238
100
AcDbEntity
  8
trappe
 62
256
370
-1
 48
1.0
  6
BYLAYER
100
AcDbBlockReference
  2
trappe
 10
175.0
 20
-16.4999999999997726
 30
0.0
 50
180.0
  0
LINE
  5
239
100
AcDbEntity
  8
cotes
 62
256
370
-1
 48
1.0
  6
BYLAYER
100
AcDbLine
 10
-175.0
 20
16.5
 30
0.0
 11
13.0
 21
-10.0
 31
0.0
  0
LINE
  5
23A
100
AcDbEntity
  8
cotes
 62
256
370
-1
 48
1.0
  6
BYLAYER
100
AcDbLine
 10
13.0
 20
-10.0
 30
0.0
 11
-175.0
 21
16.5
 31
0.0
  0
LINE
  5
23B
100
AcDbEntity
  8
cotes
 62
256
370
-1
 48
1.0
  6
BYLAYER
100
AcDbLine
 10
-175.0
 20
16.5
 30
0.0
 11
13.0
 21
6.5
 31
0.0
  0
DIMENSION
  5
23C
100
AcDbEntity
  8
cotes
 62
256
370
-1
 48
1.0
  6
Continuous
100
AcDbDimension
 10
13.0
 20
6.5
 30
0.0
 11
17.1589315318998992
 21
-2.1182067679899137
 31
0.0
 70
2
 71
8
 72
2
 74
0
 75
0
 41
1.0
 42
0.0
  1

  3
Standard
100
AcDb2LineAngularDimension
 13
13.0
 23
-10.0
 33
0.0
 14
-175.0
 24
16.5
 34
0.0
 15
-175.0
 25
16.5
 35
0.0
 16
18.7031703211576144
 26
-5.3691666235842916
 36
0.0
  0
DIMENSION
  5
23D
100
AcDbEntity
  8
cotes
 62
256
370
-1
 48
1.0
  6
BYLAYER
100
AcDbDimension
 10
19.6585975058084159
 20
6.1458192816058226
 30
0.0
 11
17.1589315318998992
 21
-2.1182067679899066
 31
0.0
 70
2
 71
8
 72
2
 74
0
 75
0
 41
1.0
 42
0.0
  1

  3
Standard
100
AcDb2LineAngularDimension
 13
-175.0
 23
16.5
 33
0.0
 14
18.0255989508281118
 24
-10.7083955967922897
 34
0.0
 15
-175.0
 25
16.5
 35
0.0
 16
19.0251921409918054
 26
-2.2990280580857103
 36
0.0
  0
CIRCLE
  5
23E
100
AcDbEntity
  8
trappe
 62
256
370
-1
 48
1.0
  6
BYLAYER
100
AcDbCircle
 10
28.0
 20
-70.0
 30
0.0
 40
2.5
  0
CIRCLE
  5
23F
100
AcDbEntity
  8
trappe_o
 62
256
370
-1
 48
1.0
  6
BYLAYER
100
AcDbCircle
 10
24.7225326000499557
 20
-83.1452037580049392
 30
0.0
 40
1.5
  0
CIRCLE
  5
240
100
AcDbEntity
  8
bielle
 62
256
370
-1
 48
1.0
  6
BYLAYER
100
AcDbCircle
 10
-28.0
 20
-70.0
 30
0.0
 40
2.5
  0
CIRCLE
  5
241
100
AcDbEntity
  8
bielle
 62
256
370
-1
 48
1.0
  6
BYLAYER
100
AcDbCircle
 10
28.0
 20
-70.0
 30
0.0
 40
2.5
  0
CIRCLE
  5
242
100
AcDbEntity
  8
bielle
 62
256
370
-1
 48
1.0
  6
BYLAYER
100
AcDbCircle
 10
24.9999999999999929
 20
-16.5000000000000107
 30
0.0
 40
2.5
  0
CIRCLE
  5
243
100
AcDbEntity
  8
trappe
 62
256
370
-1
 48
1.0
  6
BYLAYER
100
AcDbCircle
 10
-28.0
 20
-70.0
 30
0.0
 40
2.5
  0
CIRCLE
  5
244
100
AcDbEntity
  8
trappe_o
 62
256
370
-1
 48
1.0
  6
BYLAYER
100
AcDbCircle
 10
-24.7225326000499557
 20
-56.8547962419950608
 30
0.0
 40
1.5
  0
LINE
  5
245
100
AcDbEntity
  8
trappe
 62
256
370
-1
 48
1.0
  6
BYLAYER
100
AcDbLine
 10
-28.0
 20
-76.5
 30
0.0
 11
28.0
 21
-76.5
 31
0.0
  0
LINE
  5
246
100
AcDbEntity
  8
trappe_o
 62
256
370
-1
 48
1.0
  6
BYLAYER
100
AcDbLine
 10
-27.7740977581582413
 20
-62.5939555955780804
 30
0.0
 11
21.67096744194167
 21
-88.8843631115879589
 31
0.0
  0
LINE
  5
247
100
AcDbEntity
  8
trappe
 62
256
370
-1
 48
1.0
  6
BYLAYER
100
AcDbLine
 10
28.0
 20
-63.5
 30
0.0
 11
-28.0
 21
-63.5
 31
0.0
  0
LINE
  5
248
100
AcDbEntity
  8
trappe_o
 62
256
370
-1
 48
1.0
  6
BYLAYER
100
AcDbLine
 10
27.7740977581582413
 20
-77.4060444044219196
 30
0.0
 11
-21.67096744194167
 21
-51.1156368884120411
 31
0.0
  0
ARC
  5
249
100
AcDbEntity
  8
trappe
 62
256
370
-1
 48
1.0
  6
BYLAYER
100
AcDbCircle
 10
-28.0
 20
-70.0
 30
0.0
 40
6.5
100
AcDbArc
 50
90.0
 51
270.0
  0
ARC
  5
24A
100
AcDbEntity
  8
trappe_o
 62
256
370
-1
 48
1.0
  6
BYLAYER
100
AcDbCircle
 10
-24.7225326000499557
 20
-56.8547962419950608
 30
0.0
 40
6.5
100
AcDbArc
 50
62.0
 51
242.0000000000000284
  0
ARC
  5
24B
100
AcDbEntity
  8
trappe
 62
256
370
-1
 48
1.0
  6
BYLAYER
100
AcDbCircle
 10
28.0
 20
-70.0
 30
0.0
 40
6.5
100
AcDbArc
 50
270.0
 51
90.0
  0
ARC
  5
24C
100
AcDbEntity
  8
trappe_o
 62
256
370
-1
 48
1.0
  6
BYLAYER
100
AcDbCircle
 10
24.7225326000499557
 20
-83.1452037580049392
 30
0.0
 40
6.5
100
AcDbArc
 50
242.0000000000000284
 51
62.0
  0
CIRCLE
  5
24D
100
AcDbEntity
  8
trappe
 62
256
370
-1
 48
1.0
  6
BYLAYER
100
AcDbCircle
 10
-25.0
 20
16.5
 30
0.0
 40
2.5
  0
CIRCLE
  5
24E
100
AcDbEntity
  8
trappe
 62
256
370
-1
 48
1.0
  6
BYLAYER
100
AcDbCircle
 10
24.9999999999999929
 20
-16.5000000000000107
 30
0.0
 40
2.5
  0
CIRCLE
  5
24F
100
AcDbEntity
  8
bielle
 62
256
370
-1
 48
1.0
  6
BYLAYER
100
AcDbCircle
 10
-25.0
 20
16.5
 30
0.0
 40
6.5
  0
CIRCLE
  5
250
100
AcDbEntity
  8
bielle
 62
256
370
-1
 48
1.0
  6
BYLAYER
100
AcDbCircle
 10
-28.0
 20
-70.0
 30
0.0
 40
6.5
  0
CIRCLE
  5
251
100
AcDbEntity
  8
bielle
 62
256
370
-1
 48
1.0
  6
BYLAYER
100
AcDbCircle
 10
24.9999999999999929
 20
-16.5000000000000107
 30
0.0
 40
6.5
  0
CIRCLE
  5
252
100
AcDbEntity
  8
bielle
 62
256
370
-1
 48
1.0
  6
BYLAYER
100
AcDbCircle
 10
28.0
 20
-70.0
 30
0.0
 40
6.5
  0
LINE
  5
253
100
AcDbEntity
  8
bielle
 62
256
370
-1
 48
1.0
  6
BYLAYER
100
AcDbLine
 10
-31.4960942712456884
 20
16.7252980672108365
 30
0.0
 11
-34.4960942712456884
 21
-69.7747019327891707
 31
0.0
  0
LINE
  5
254
100
AcDbEntity
  8
bielle
 62
256
370
-1
 48
1.0
  6
BYLAYER
100
AcDbLine
 10
-18.5039057287543116
 20
16.2747019327891635
 30
0.0
 11
-21.5039057287543116
 21
-70.2252980672108436
 31
0.0
  0
CIRCLE
  5
255
100
AcDbEntity
  8
bielle
 62
256
370
-1
 48
1.0
  6
BYLAYER
100
AcDbCircle
 10
-25.0
 20
16.5
 30
0.0
 40
1.5
  0
INSERT
  5
256
100
AcDbEntity
  8
trappe_o
 62
256
370
-1
 48
1.0
  6
BYLAYER
100
AcDbBlockReference
  2
trappe_o
 10
-175.0
 20
16.5
 30
0.0
  0
INSERT
  5
257
100
AcDbEntity
  8
trappe_o
 62
256
370
-1
 48
1.0
  6
BYLAYER
100
AcDbBlockReference
  2
trappe_o
 10
175.0
 20
-16.4999999999997726
 30
0.0
 50
180.0
  0
CIRCLE
  5
258
100
AcDbEntity
  8
bielle_o
 62
256
370
-1
 48
1.0
  6
BYLAYER
100
AcDbCircle
 10
-25.570795286238166
 20
29.5733614121487243
 30
0.0
 40
1.5
  0
CIRCLE
  5
259
100
AcDbEntity
  8
cotes
 62
256
370
-1
 48
1.0
  6
BYLAYER
100
AcDbCircle
 10
-25.570795286238166
 20
29.5733614121487278
 30
0.0
 40
86.5
  0
CIRCLE
  5
25A
100
AcDbEntity
  8
cotes
 62
256
370
-1
 48
1.0
  6
BYLAYER
100
AcDbCircle
 10
0.0
 20
-70.0
 30
0.0
 40
28.0
  0
CIRCLE
  5
25B
100
AcDbEntity
  8
bielle_o
 62
256
370
-1
 48
1.0
  6
BYLAYER
100
AcDbCircle
 10
-24.7585844006306459
 20
-56.9228252869035103
 30
0.0
 40
2.5
  0
CIRCLE
  5
25C
100
AcDbEntity
  8
bielle_o
 62
256
370
-1
 48
1.0
  6
BYLAYER
100
AcDbCircle
 10
-24.7585844006306459
 20
-56.9228252869035103
 30
0.0
 40
6.5
  0
CIRCLE
  5
25D
100
AcDbEntity
  8
bielle_o
 62
256
370
-1
 48
1.0
  6
BYLAYER
100
AcDbCircle
 10
24.7225326000499557
 20
-83.1452037580049392
 30
0.0
 40
6.5
  0
CIRCLE
  5
25E
100
AcDbEntity
  8
bielle_o
 62
256
370
-1
 48
1.0
  6
BYLAYER
100
AcDbCircle
 10
25.570795286238166
 20
-29.5733614121484649
 30
0.0
 40
6.5
  0
CIRCLE
  5
25F
100
AcDbEntity
  8
bielle_o
 62
256
370
-1
 48
1.0
  6
BYLAYER
100
AcDbCircle
 10
-25.570795286238166
 20
29.5733614121487278
 30
0.0
 40
6.5
  0
LINE
  5
260
100
AcDbEntity
  8
bielle_o
 62
256
370
-1
 48
1.0
  6
BYLAYER
100
AcDbLine
 10
-31.2582978520045138
 20
-56.9838584748393373
 30
0.0
 11
-32.0705087376120304
 21
29.5123282242129044
 31
0.0
  0
LINE
  5
261
100
AcDbEntity
  8
bielle_o
 62
256
370
-1
 48
1.0
  6
BYLAYER
100
AcDbLine
 10
-18.258870949256778
 20
-56.8617920989676833
 30
0.0
 11
-19.0710818348642981
 21
29.6343946000845548
 31
0.0
  0
LINE
  5
262
100
AcDbEntity
  8
cotes
 62
256
370
-1
 48
1.0
  6
BYLAYER
100
AcDbLine
 10
0.0
 20
-70.0
 30
0.0
 11
-24.7585844006306459
 21
-56.9228252869035103
 31
0.0
  0
LINE
  5
263
100
AcDbEntity
  8
cotes
 62
256
370
-1
 48
1.0
  6
BYLAYER
100
AcDbLine
 10
0.0
 20
-70.0
 30
0.0
 11
-28.0
 21
-70.0
 31
0.0
  0
DIMENSION
  5
264
100
AcDbEntity
  8
cotes
 62
256
370
-1
 48
1.0
  6
Continuous
100
AcDbDimension
 10
-28.0
 20
-70.0
 30
0.0
 11
-18.7712054540478306
 21
-65.3472153188575788
 31
0.0
 70
2
 71
8
 72
2
 74
0
 75
0
 41
1.0
 42
0.0
  1

  3
Standard
100
AcDb2LineAngularDimension
 13
-24.7585844006306459
 23
-56.9228252869035103
 33
0.0
 14
0.0
 24
-70.0
 34
0.0
 15
0.0
 25
-70.0
 35
0.0
 16
-17.0
 26
-66.0
 36
0.0
  0
LINE
  5
265
100
AcDbEntity
  8
bielle
 62
256
370
-1
 48
1.0
  6
BYLAYER
100
AcDbLine
 10
34.4894712405561989
 20
-69.6301851571475368
 30
0.0
 11
31.4898048220119477
 21
-16.1360860373793784
 31
0.0
  0
LINE
  5
266
100
AcDbEntity
  8
bielle
 62
256
370
-1
 48
1.0
  6
BYLAYER
100
AcDbLine
 10
18.4999999999999929
 20
-16.5000000000000107
 30
0.0
 11
21.5101265380783175
 21
-70.3626878109954532
 31
0.0
  0
LINE
  5
267
100
AcDbEntity
  8
bielle_o
 62
256
370
-1
 48
1.0
  6
BYLAYER
100
AcDbLine
 10
32.070795286238166
 20
-29.5733614121484649
 30
0.0
 11
31.2217194769218551
 21
-83.2480139690543268
 31
0.0
  0
LINE
  5
268
100
AcDbEntity
  8
bielle_o
 62
256
370
-1
 48
1.0
  6
BYLAYER
100
AcDbLine
 10
19.070795286238166
 20
-29.5733614121484649
 30
0.0
 11
18.2233488527414238
 21
-83.042195900436937
 31
0.0
  0
DIMENSION
  5
269
100
AcDbEntity
  8
cotes
 62
256
370
-1
 48
1.0
  6
BYLAYER
100
AcDbDimension
 10
-37.4705350954318632
 20
16.9325041073560243
 30
0.0
 11
-40.8444084429065839
 21
-26.252506065563928
 31
0.0
 70
1
 71
8
 72
2
 74
0
 75
0
 41
1.0
 42
0.0
  1

  3
Standard
100
AcDbAlignedDimension
 13
-25.0
 23
16.5
 33
0.0
 14
-28.0
 24
-70.0
 34
0.0
1001
ACAD
1000
DSTYLE
1002
{
1070
144
1040
1.0
1070
40
1040
1.0
1002
}
  0
DIMENSION
  5
26A
100
AcDbEntity
  8
cotes
 62
256
370
-1
 48
1.0
  6
BYLAYER
100
AcDbDimension
 10
37.4747932085328657
 20
-15.8004788855028462
 30
0.0
 11
40.8468522865414201
 21
-42.445503610100495
 31
0.0
 70
1
 71
8
 72
2
 74
0
 75
0
 41
1.0
 42
0.0
  1

  3
Standard
100
AcDbAlignedDimension
 13
24.9999999999999929
 23
-16.5000000000000107
 33
0.0
 14
28.0
 24
-70.0
 34
0.0
1001
ACAD
1000
DSTYLE
1002
{
1070
144
1040
1.0
1070
40
1040
1.0
1002
}
  0
INSERT
  5
26B
100
AcDbEntity
  8
supports
 62
256
370
-1
 48
1.0
  6
BYLAYER
100
AcDbBlockReference
  2
support_trappe
 10
-175.0
 20
16.5
 30
0.0
 50
-90.0
  0
INSERT
  5
26C
100
AcDbEntity
  8
supports
 62
256
370
-1
 48
1.0
  6
BYLAYER
100
AcDbBlockReference
  2
support_trappe
 10
175.0
 20
-16.4999999999997726
 30
0.0
 50
90.0
  0
INSERT
  5
26D
100
AcDbEntity
  8
passage_bielles
 62
256
370
-1
 48
1.0
  6
BYLAYER
100
AcDbBlockReference
  2
passage_bielles
 10
0.0
 20
-70.0
 30
0.0
  0
INSERT
  5
26E
100
AcDbEntity
  8
0
 62
256
370
-1
 48
1.0
  6
BYLAYER
100
AcDbBlockReference
  2
support_moteur
 10
0.0
 20
-70.0
 30
0.0
  0
CIRCLE
  5
26F
100
AcDbEntity
  8
passage
 62
256
370
-1
 48
1.0
  6
BYLAYER
100
AcDbCircle
 10
-200.0000167970350162
 20
-28.5000005276109754
 30
0.0
 40
2.5
  0
CIRCLE
  5
270
100
AcDbEntity
  8
gabari
 62
256
370
-1
 48
1.0
  6
BYLAYER
100
AcDbCircle
 10
-200.0000167970350162
 20
-28.5000005276109754
 30
0.0
 40
2.5
  0
CIRCLE
  5
271
100
AcDbEntity
  8
passage
 62
256
370
-1
 48
1.0
  6
BYLAYER
100
AcDbCircle
 10
-174.9791870709995578
 20
16.5286455462415915
 30
0.0
 40
2.5
  0
CIRCLE
  5
272
100
AcDbEntity
  8
gabari
 62
256
370
-1
 48
1.0
  6
BYLAYER
100
AcDbCircle
 10
-174.9791870709995578
 20
16.5286455462415915
 30
0.0
 40
2.5
  0
CIRCLE
  5
273
100
AcDbEntity
  8
passage
 62
256
370
-1
 48
1.0
  6
BYLAYER
100
AcDbCircle
 10
200.0000038752245075
 20
28.5000028000912913
 30
0.0
 40
2.5
  0
CIRCLE
  5
274
100
AcDbEntity
  8
gabari
 62
256
370
-1
 48
1.0
  6
BYLAYER
100
AcDbCircle
 10
200.0000038752245075
 20
28.5000028000912913
 30
0.0
 40
2.5
  0
CIRCLE
  5
275
100
AcDbEntity
  8
passage
 62
256
370
-1
 48
1.0
  6
BYLAYER
100
AcDbCircle
 10
175.0349854120178748
 20
-16.5044193408164759
 30
0.0
 40
2.5
  0
CIRCLE
  5
276
100
AcDbEntity
  8
gabari
 62
256
370
-1
 48
1.0
  6
BYLAYER
100
AcDbCircle
 10
175.0349854120178748
 20
-16.5044193408164759
 30
0.0
 40
2.5
  0
CIRCLE
  5
277
100
AcDbEntity
  8
passage
 62
256
370
-1
 48
1.0
  6
BYLAYER
100
AcDbCircle
 10
-4.0000105717355652
 20
-50.9999894282644419
 30
0.0
 40
2.5
  0
CIRCLE
  5
278
100
AcDbEntity
  8
gabari
 62
256
370
-1
 48
1.0
  6
BYLAYER
100
AcDbCircle
 10
-4.0000105717355652
 20
-50.9999894282644419
 30
0.0
 40
2.5
  0
CIRCLE
  5
279
100
AcDbEntity
  8
passage
 62
256
370
-1
 48
1.0
  6
BYLAYER
100
AcDbCircle
 10
13.9999806415269408
 20
-50.9999806415269461
 30
0.0
 40
2.5
  0
CIRCLE
  5
27A
100
AcDbEntity
  8
gabari
 62
256
370
-1
 48
1.0
  6
BYLAYER
100
AcDbCircle
 10
13.9999806415269408
 20
-50.9999806415269461
 30
0.0
 40
2.5
  0
CIRCLE
  5
27B
100
AcDbEntity
  8
passage
 62
256
370
-1
 48
1.0
  6
BYLAYER
100
AcDbCircle
 10
-3.9999850492294602
 20
-88.9999999999999716
 30
0.0
 40
2.5
  0
CIRCLE
  5
27C
100
AcDbEntity
  8
gabari
 62
256
370
-1
 48
1.0
  6
BYLAYER
100
AcDbCircle
 10
-3.9999850492294602
 20
-88.9999999999999716
 30
0.0
 40
2.5
  0
CIRCLE
  5
27D
100
AcDbEntity
  8
passage
 62
256
370
-1
 48
1.0
  6
BYLAYER
100
AcDbCircle
 10
13.9999806415269443
 20
-89.0000193584730397
 30
0.0
 40
2.5
  0
CIRCLE
  5
27E
100
AcDbEntity
  8
gabari
 62
256
370
-1
 48
1.0
  6
BYLAYER
100
AcDbCircle
 10
13.9999806415269443
 20
-89.0000193584730397
 30
0.0
 40
2.5
  0
LINE
  5
27F
100
AcDbEntity
  8
gabari
 62
256
370
-1
 48
1.0
  6
BYLAYER
100
AcDbLine
 10
-166.5
 20
25.0
 30
0.0
 11
181.5
 21
24.999999999999833
 31
0.0
  0
LINE
  5
280
100
AcDbEntity
  8
gabari
 62
256
370
-1
 48
1.0
  6
BYLAYER
100
AcDbLine
 10
-166.5
 20
-19.9511302262575576
 30
0.0
 11
-10.0000000000004263
 21
-19.9511302262575576
 31
0.0
  0
LINE
  5
281
100
AcDbEntity
  8
gabari
 62
256
370
-1
 48
1.0
  6
BYLAYER
100
AcDbLine
 10
-205.5000000000000568
 20
47.0
 30
0.0
 11
-166.5
 21
47.0
 31
0.0
  0
LINE
  5
282
100
AcDbEntity
  8
gabari
 62
256
370
-1
 48
1.0
  6
BYLAYER
100
AcDbLine
 10
-205.5000000000000568
 20
-36.9999999999999787
 30
0.0
 11
-205.5000000000000284
 21
46.9999999999999787
 31
0.0
  0
LINE
  5
283
100
AcDbEntity
  8
gabari
 62
256
370
-1
 48
1.0
  6
BYLAYER
100
AcDbLine
 10
-166.5000000000000284
 20
-37.0000000000000071
 30
0.0
 11
-205.5000000000000568
 21
-36.9999999999999787
 31
0.0
  0
LINE
  5
284
100
AcDbEntity
  8
gabari
 62
256
370
-1
 48
1.0
  6
BYLAYER
100
AcDbLine
 10
-166.5
 20
-19.9511302262575576
 30
0.0
 11
-166.5
 21
-37.0
 31
0.0
  0
LINE
  5
285
100
AcDbEntity
  8
gabari
 62
256
370
-1
 48
1.0
  6
BYLAYER
100
AcDbLine
 10
-166.5
 20
47.0000000000000071
 30
0.0
 11
-166.5
 21
25.0000000000000036
 31
0.0
  0
LINE
  5
286
100
AcDbEntity
  8
gabari
 62
256
370
-1
 48
1.0
  6
BYLAYER
100
AcDbLine
 10
181.4999999999999716
 20
24.999999999999833
 30
0.0
 11
181.5000000000000284
 21
37.0000000000002203
 31
0.0
  0
LINE
  5
287
100
AcDbEntity
  8
gabari
 62
256
370
-1
 48
1.0
  6
BYLAYER
100
AcDbLine
 10
181.5000000000000853
 20
37.0000000000002132
 30
0.0
 11
205.5000000000000284
 21
37.000000000000199
 31
0.0
  0
LINE
  5
288
100
AcDbEntity
  8
gabari
 62
256
370
-1
 48
1.0
  6
BYLAYER
100
AcDbLine
 10
205.5000000000000284
 20
37.000000000000199
 30
0.0
 11
205.4999999999999432
 21
-46.9999999999997726
 31
0.0
  0
LINE
  5
289
100
AcDbEntity
  8
gabari
 62
256
370
-1
 48
1.0
  6
BYLAYER
100
AcDbLine
 10
205.4999999999999432
 20
-46.9999999999997797
 30
0.0
 11
166.5
 21
-46.9999999999997797
 31
0.0
  0
LINE
  5
28A
100
AcDbEntity
  8
gabari
 62
256
370
-1
 48
1.0
  6
BYLAYER
100
AcDbLine
 10
166.5
 20
-46.9999999999997797
 30
0.0
 11
166.5
 21
-23.5935052569500066
 31
0.0
  0
LINE
  5
28B
100
AcDbEntity
  8
gabari
 62
256
370
-1
 48
1.0
  6
BYLAYER
100
AcDbLine
 10
19.0
 20
-23.5935052569500101
 30
0.0
 11
19.0
 21
-94.0000000000000142
 31
0.0
  0
LINE
  5
28C
100
AcDbEntity
  8
gabari
 62
256
370
-1
 48
1.0
  6
BYLAYER
100
AcDbLine
 10
-9.9999999999999893
 20
-94.0
 30
0.0
 11
-10.0000000000004157
 21
-19.9511302262575612
 31
0.0
  0
LINE
  5
28D
100
AcDbEntity
  8
gabari
 62
256
370
-1
 48
1.0
  6
BYLAYER
100
AcDbLine
 10
19.0
 20
-94.0
 30
0.0
 11
-9.9999999999999858
 21
-94.0
 31
0.0
  0
LINE
  5
28E
100
AcDbEntity
  8
gabari
 62
256
370
-1
 48
1.0
  6
BYLAYER
100
AcDbLine
 10
166.5
 20
-23.5935052569500101
 30
0.0
 11
19.0
 21
-23.5935052569500101
 31
0.0
  0
ENDSEC
  0
SECTION
  2
OBJECTS
  0
DICTIONARY
  5
C
100
AcDbDictionary
280
0
281
1
  3
ACAD_GROUP
350
D
  3
ACAD_LAYOUT
350
1A
  3
ACAD_MLINESTYLE
350
17
  3
ACAD_PLOTSETTINGS
350
19
  3
ACAD_PLOTSTYLENAME
350
E
  3
AcDbVariableDictionary
350
28F
  3
QCAD_OBJECTS
350
290
  0
DICTIONARY
  5
D
100
AcDbDictionary
280
0
281
1
  0
ACDBDICTIONARYWDFLT
  5
E
100
AcDbDictionary
281
1
  3
Normal
350
F
100
AcDbDictionaryWithDefault
340
F
  0
ACDBPLACEHOLDER
  5
F
  0
DICTIONARY
  5
17
100
AcDbDictionary
280
0
281
1
  3
Standard
350
18
  0
MLINESTYLE
  5
18
100
AcDbMlineStyle
  2
STANDARD
 70
0
  3

 62
256
 51
90.0
 52
90.0
 71
2
 49
0.5
 62
256
  6
BYLAYER
 49
-0.5
 62
256
  6
BYLAYER
  0
DICTIONARY
  5
19
100
AcDbDictionary
280
0
281
1
  0
DICTIONARY
  5
1A
100
AcDbDictionary
281
1
  3
Layout1
350
1E
  3
Layout2
350
26
  3
Model
350
22
  0
LAYOUT
  5
1E
100
AcDbPlotSettings
  1

  2
none_device
  4

  6

 40
0.0
 41
0.0
 42
0.0
 43
0.0
 44
0.0
 45
0.0
 46
0.0
 47
0.0
 48
0.0
 49
0.0
140
0.0
141
0.0
142
1.0
143
1.0
 70
688
 72
0
 73
0
 74
5
  7

 75
16
147
1.0
148
0.0
149
0.0
100
AcDbLayout
  1
Layout1
 70
1
 71
1
 10
0.0
 20
0.0
 11
420.0
 21
297.0
 12
0.0
 22
0.0
 32
0.0
 14
100000000000000000000.0
 24
100000000000000000000.0
 34
100000000000000000000.0
 15
-100000000000000000000.0
 25
-100000000000000000000.0
 35
-100000000000000000000.0
146
0.0
 13
0.0
 23
0.0
 33
0.0
 16
1.0
 26
0.0
 36
0.0
 17
0.0
 27
1.0
 37
0.0
 76
0
330
1B
  0
LAYOUT
  5
22
100
AcDbPlotSettings
  1

  2
none_device
  4

  6

 40
0.0
 41
0.0
 42
0.0
 43
0.0
 44
0.0
 45
0.0
 46
0.0
 47
0.0
 48
0.0
 49
0.0
140
0.0
141
0.0
142
1.0
143
1.0
 70
1712
 72
0
 73
0
 74
0
  7

 75
0
147
1.0
148
0.0
149
0.0
100
AcDbLayout
  1
Model
 70
1
 71
0
 10
0.0
 20
0.0
 11
12.0
 21
9.0
 12
0.0
 22
0.0
 32
0.0
 14
0.0
 24
0.0
 34
0.0
 15
0.0
 25
0.0
 35
0.0
146
0.0
 13
0.0
 23
0.0
 33
0.0
 16
1.0
 26
0.0
 36
0.0
 17
0.0
 27
1.0
 37
0.0
 76
0
330
1F
  0
LAYOUT
  5
26
100
AcDbPlotSettings
  1

  2
none_device
  4

  6

 40
0.0
 41
0.0
 42
0.0
 43
0.0
 44
0.0
 45
0.0
 46
0.0
 47
0.0
 48
0.0
 49
0.0
140
0.0
141
0.0
142
1.0
143
1.0
 70
688
 72
0
 73
0
 74
5
  7

 75
16
147
1.0
148
0.0
149
0.0
100
AcDbLayout
  1
Layout2
 70
1
 71
2
 10
0.0
 20
0.0
 11
12.0
 21
9.0
 12
0.0
 22
0.0
 32
0.0
 14
0.0
 24
0.0
 34
0.0
 15
0.0
 25
0.0
 35
0.0
146
0.0
 13
0.0
 23
0.0
 33
0.0
 16
1.0
 26
0.0
 36
0.0
 17
0.0
 27
1.0
 37
0.0
 76
0
330
23
  0
DICTIONARY
  5
28F
100
AcDbDictionary
281
1
  3
DIMASSOC
350
292
  3
HIDETEXT
350
291
  0
DICTIONARYVAR
  5
291
100
DictionaryVariables
280
0
  1
2
  0
DICTIONARYVAR
  5
292
100
DictionaryVariables
280
0
  1
1
  0
DICTIONARY
  5
290
100
AcDbDictionary
281
1
  3
ColorSettings/BackgroundColor
350
293
  3
ColorSettings/ColorMode
350
294
  3
Grid/DisplayGrid00
350
295
  3
Grid/DisplayGrid01
350
296
  3
Grid/DisplayGrid02
350
297
  3
Grid/DisplayGrid03
350
298
  3
Grid/GridSpacingX00
350
299
  3
Grid/GridSpacingX01
350
29A
  3
Grid/GridSpacingX02
350
29B
  3
Grid/GridSpacingX03
350
29C
  3
Grid/GridSpacingY00
350
29D
  3
Grid/GridSpacingY01
350
29E
  3
Grid/GridSpacingY02
350
29F
  3
Grid/GridSpacingY03
350
2A0
  3
Grid/IsometricGrid00
350
2A1
  3
Grid/IsometricGrid01
350
2A2
  3
Grid/IsometricGrid02
350
2A3
  3
Grid/IsometricGrid03
350
2A4
  3
Grid/IsometricProjection00
350
2A5
  3
Grid/IsometricProjection01
350
2A6
  3
Grid/IsometricProjection02
350
2A7
  3
Grid/IsometricProjection03
350
2A8
  3
Grid/MetaGridSpacingX00
350
2A9
  3
Grid/MetaGridSpacingX01
350
2AA
  3
Grid/MetaGridSpacingX02
350
2AB
  3
Grid/MetaGridSpacingX03
350
2AC
  3
Grid/MetaGridSpacingY00
350
2AD
  3
Grid/MetaGridSpacingY01
350
2AE
  3
Grid/MetaGridSpacingY02
350
2AF
  3
Grid/MetaGridSpacingY03
350
2B0
  3
MultiPageSettings/Columns
350
2B1
  3
MultiPageSettings/GlueMarginsBottom
350
2B2
  3
MultiPageSettings/GlueMarginsLeft
350
2B3
  3
MultiPageSettings/GlueMarginsRight
350
2B4
  3
MultiPageSettings/GlueMarginsTop
350
2B5
  3
MultiPageSettings/PrintCropMarks
350
2B6
  3
MultiPageSettings/Rows
350
2B7
  3
PageSettings/OffsetX
350
2B8
  3
PageSettings/OffsetY
350
2B9
  3
PageSettings/PageOrientation
350
2BA
  3
PageSettings/PaperHeight
350
2BB
  3
PageSettings/PaperWidth
350
2BC
  3
PageSettings/Scale
350
2BD
  3
PageSettings/ShowPaperBorders
350
2BE
  3
PageTagSettings/EnablePageTags
350
2BF
  3
PageTagSettings/TagAlignment
350
2C0
  3
PageTagSettings/TagFont
350
2C1
  3
PageTagSettings/TagPosition
350
2C2
  3
QCADVersion
350
2C3
  3
UnitSettings/PaperUnit
350
2C4
  3
ViewportCenter
350
2C5
  3
ViewportHeight
350
2C6
  3
ViewportWidth
350
2C7
  0
XRECORD
  5
293
330
290
100
AcDbXrecord
280
1
1000
Blanc
  0
XRECORD
  5
294
330
290
100
AcDbXrecord
280
1
1000
FullColor
  0
XRECORD
  5
295
330
290
100
AcDbXrecord
280
1
290
1
  0
XRECORD
  5
296
330
290
100
AcDbXrecord
280
1
290
1
  0
XRECORD
  5
297
330
290
100
AcDbXrecord
280
1
290
1
  0
XRECORD
  5
298
330
290
100
AcDbXrecord
280
1
290
1
  0
XRECORD
  5
299
330
290
100
AcDbXrecord
280
1
1000
auto
  0
XRECORD
  5
29A
330
290
100
AcDbXrecord
280
1
1000
auto
  0
XRECORD
  5
29B
330
290
100
AcDbXrecord
280
1
1000
auto
  0
XRECORD
  5
29C
330
290
100
AcDbXrecord
280
1
1000
auto
  0
XRECORD
  5
29D
330
290
100
AcDbXrecord
280
1
1000
auto
  0
XRECORD
  5
29E
330
290
100
AcDbXrecord
280
1
1000
auto
  0
XRECORD
  5
29F
330
290
100
AcDbXrecord
280
1
1000
auto
  0
XRECORD
  5
2A0
330
290
100
AcDbXrecord
280
1
1000
auto
  0
XRECORD
  5
2A1
330
290
100
AcDbXrecord
280
1
290
0
  0
XRECORD
  5
2A2
330
290
100
AcDbXrecord
280
1
290
0
  0
XRECORD
  5
2A3
330
290
100
AcDbXrecord
280
1
290
0
  0
XRECORD
  5
2A4
330
290
100
AcDbXrecord
280
1
290
0
  0
XRECORD
  5
2A5
330
290
100
AcDbXrecord
280
1
 90
65537
  0
XRECORD
  5
2A6
330
290
100
AcDbXrecord
280
1
 90
65537
  0
XRECORD
  5
2A7
330
290
100
AcDbXrecord
280
1
 90
65537
  0
XRECORD
  5
2A8
330
290
100
AcDbXrecord
280
1
 90
65537
  0
XRECORD
  5
2A9
330
290
100
AcDbXrecord
280
1
1000
auto
  0
XRECORD
  5
2AA
330
290
100
AcDbXrecord
280
1
1000
auto
  0
XRECORD
  5
2AB
330
290
100
AcDbXrecord
280
1
1000
auto
  0
XRECORD
  5
2AC
330
290
100
AcDbXrecord
280
1
1000
auto
  0
XRECORD
  5
2AD
330
290
100
AcDbXrecord
280
1
1000
auto
  0
XRECORD
  5
2AE
330
290
100
AcDbXrecord
280
1
1000
auto
  0
XRECORD
  5
2AF
330
290
100
AcDbXrecord
280
1
1000
auto
  0
XRECORD
  5
2B0
330
290
100
AcDbXrecord
280
1
1000
auto
  0
XRECORD
  5
2B1
330
290
100
AcDbXrecord
280
1
 90
1
  0
XRECORD
  5
2B2
330
290
100
AcDbXrecord
280
1
 40
10.0
  0
XRECORD
  5
2B3
330
290
100
AcDbXrecord
280
1
 40
10.0
  0
XRECORD
  5
2B4
330
290
100
AcDbXrecord
280
1
 40
10.0
  0
XRECORD
  5
2B5
330
290
100
AcDbXrecord
280
1
 40
10.0
  0
XRECORD
  5
2B6
330
290
100
AcDbXrecord
280
1
290
0
  0
XRECORD
  5
2B7
330
290
100
AcDbXrecord
280
1
 90
1
  0
XRECORD
  5
2B8
330
290
100
AcDbXrecord
280
1
 40
0.0
  0
XRECORD
  5
2B9
330
290
100
AcDbXrecord
280
1
 40
0.0
  0
XRECORD
  5
2BA
330
290
100
AcDbXrecord
280
1
1000
Portrait
  0
XRECORD
  5
2BB
330
290
100
AcDbXrecord
280
1
 40
297.0
  0
XRECORD
  5
2BC
330
290
100
AcDbXrecord
280
1
 40
210.0
  0
XRECORD
  5
2BD
330
290
100
AcDbXrecord
280
1
1000
1:1
  0
XRECORD
  5
2BE
330
290
100
AcDbXrecord
280
1
290
1
  0
XRECORD
  5
2BF
330
290
100
AcDbXrecord
280
1
290
0
  0
XRECORD
  5
2C0
330
290
100
AcDbXrecord
280
1
1000
Inside
  0
XRECORD
  5
2C1
330
290
100
AcDbXrecord
280
1
1000
Arial,10,-1,5,50,0,0,0,0,0
  0
XRECORD
  5
2C2
330
290
100
AcDbXrecord
280
1
1000
TopLeft
  0
XRECORD
  5
2C3
330
290
100
AcDbXrecord
280
1
1000
3.28.2.2
  0
XRECORD
  5
2C4
330
290
100
AcDbXrecord
280
1
 90
4
  0
XRECORD
  5
2C6
330
290
100
AcDbXrecord
280
1
 40
235.8108388006297673
  0
XRECORD
  5
2C7
330
290
100
AcDbXrecord
280
1
 40
421.2047458955768207
  0
ENDSEC
  0
EOF
