999
dxflib 3.26.4.0
  0
SECTION
  2
HEADER
  9
$ACADVER
  1
AC1015
  9
$HANDSEED
  5
FFFF
  9
$DIMADEC
 70
0
  9
$DIMASZ
 40
2.5
  9
$DIMATFIT
 70
0
  9
$DIMAUNIT
 70
0
  9
$DIMAZIN
 70
2
  9
$DIMBLK
  1
0
  9
$DIMBLK1
  1
0
  9
$DIMBLK2
  1
0
  9
$DIMDEC
 70
4
  9
$DIMDLI
 40
5.0
  9
$DIMDSEP
 70
46
  9
$DIMEXE
 40
1.25
  9
$DIMEXO
 40
0.625
  9
$DIMGAP
 40
0.625
  9
$DIMLFAC
 40
1.0
  9
$DIMLUNIT
 70
2
  9
$DIMSCALE
 40
1.0
  9
$DIMTAD
 70
1
  9
$DIMTIH
 70
0
  9
$DIMTSZ
 40
0.0
  9
$DIMTXT
 40
2.5
  9
$DIMZIN
 70
8
  9
$DWGCODEPAGE
  3
ANSI_1252
  9
$INSUNITS
 70
4
  9
$LTSCALE
 40
1.0
  9
$MAXACTVP
 70
64
  9
$MEASUREMENT
 70
1
  9
$MIRRTEXT
 70
0
  9
$PDMODE
 70
0
  9
$PDSIZE
 40
0.0
  0
ENDSEC
  0
SECTION
  2
TABLES
  0
TABLE
  2
VPORT
  5
8
100
AcDbSymbolTable
 70
1
  0
VPORT
  5
30
100
AcDbSymbolTableRecord
100
AcDbViewportTableRecord
  2
*Active
 70
0
 10
0.0
 20
0.0
 11
1.0
 21
1.0
 12
286.3055555555554861
 22
148.5
 13
0.0
 23
0.0
 14
10.0
 24
10.0
 15
10.0
 25
10.0
 16
0.0
 26
0.0
 36
1.0
 17
0.0
 27
0.0
 37
0.0
 40
297.0
 41
1.92798353909465
 42
50.0
 43
0.0
 44
0.0
 50
0.0
 51
0.0
 71
0
 72
100
 73
1
 74
3
 75
1
 76
1
 77
0
 78
0
281
0
 65
1
110
0.0
120
0.0
130
0.0
111
1.0
121
0.0
131
0.0
112
0.0
122
1.0
132
0.0
 79
0
146
0.0
  0
ENDTAB
  0
TABLE
  2
LTYPE
  5
5
100
AcDbSymbolTable
 70
41
  0
LTYPE
  5
16
100
AcDbSymbolTableRecord
100
AcDbLinetypeTableRecord
  2
Continuous
 70
0
  3
Solid line
 72
65
 73
0
 40
0.0
  0
LTYPE
  5
31
100
AcDbSymbolTableRecord
100
AcDbLinetypeTableRecord
  2
ACAD_ISO04W100
 70
0
  3
ISO long-dash dot ____ . ____ . ____ . ____ . _
 72
65
 73
4
 40
30.0
 49
24.0
 74
0
 49
-2.9500000000000002
 74
0
 49
0.1
 74
0
 49
-2.9500000000000002
 74
0
  0
LTYPE
  5
15
100
AcDbSymbolTableRecord
100
AcDbLinetypeTableRecord
  2
BYLAYER
 70
0
  3

 72
65
 73
0
 40
0.0
  0
LTYPE
  5
32
100
AcDbSymbolTableRecord
100
AcDbLinetypeTableRecord
  2
DASHED2
 70
0
  3
Dashed (.5x) _ _ _ _ _ _ _ _ _ _ _ _ _ _ _ _ _ 
 72
65
 73
2
 40
9.5249999999999986
 49
6.3499999999999996
 74
0
 49
-3.1749999999999998
 74
0
  0
LTYPE
  5
33
100
AcDbSymbolTableRecord
100
AcDbLinetypeTableRecord
  2
HIDDEN2
 70
0
  3
Hidden (.5x) _ _ _ _ _ _ _ _ _ _ _ _ _ _ _ _ _ 
 72
65
 73
2
 40
4.7624999999999993
 49
3.1749999999999998
 74
0
 49
-1.5874999999999999
 74
0
  0
LTYPE
  5
34
100
AcDbSymbolTableRecord
100
AcDbLinetypeTableRecord
  2
PHANTOM2
 70
0
  3
Phantom (.5x) ___ _ _ ___ _ _ ___ _ _ ___ _ _
 72
65
 73
6
 40
31.7500000000000036
 49
15.875
 74
0
 49
-3.1749999999999998
 74
0
 49
3.1749999999999998
 74
0
 49
-3.1749999999999998
 74
0
 49
3.1749999999999998
 74
0
 49
-3.1749999999999998
 74
0
  0
LTYPE
  5
35
100
AcDbSymbolTableRecord
100
AcDbLinetypeTableRecord
  2
ACAD_ISO09W100
 70
0
  3
ISO long-dash double-short-dash ____ __ __ ____
 72
65
 73
6
 40
45.0
 49
24.0
 74
0
 49
-3.0
 74
0
 49
6.0
 74
0
 49
-3.0
 74
0
 49
6.0
 74
0
 49
-3.0
 74
0
  0
LTYPE
  5
36
100
AcDbSymbolTableRecord
100
AcDbLinetypeTableRecord
  2
DIVIDEX2
 70
0
  3
Divide (2x) ________  .  .  ________  .  .  _
 72
65
 73
6
 40
63.5
 49
25.3999999999999986
 74
0
 49
-12.6499999999999986
 74
0
 49
0.1
 74
0
 49
-12.5999999999999979
 74
0
 49
0.1
 74
0
 49
-12.6499999999999986
 74
0
  0
LTYPE
  5
37
100
AcDbSymbolTableRecord
100
AcDbLinetypeTableRecord
  2
ACAD_ISO13W100
 70
0
  3
ISO double-dash double-dot __ __ . . __ __ . . _
 72
65
 73
8
 40
36.0000000000000071
 49
12.0
 74
0
 49
-3.0
 74
0
 49
12.0
 74
0
 49
-2.9500000000000002
 74
0
 49
0.1
 74
0
 49
-2.9000000000000004
 74
0
 49
0.1
 74
0
 49
-2.9500000000000002
 74
0
  0
LTYPE
  5
38
100
AcDbSymbolTableRecord
100
AcDbLinetypeTableRecord
  2
ACAD_ISO14W100
 70
0
  3
ISO dash triple-dot __ . . . __ . . . __ . . . _
 72
65
 73
8
 40
24.0000000000000036
 49
12.0
 74
0
 49
-2.9500000000000002
 74
0
 49
0.1
 74
0
 49
-2.9000000000000004
 74
0
 49
0.1
 74
0
 49
-2.9000000000000004
 74
0
 49
0.1
 74
0
 49
-2.9500000000000002
 74
0
  0
LTYPE
  5
39
100
AcDbSymbolTableRecord
100
AcDbLinetypeTableRecord
  2
DASHDOT
 70
0
  3
Dash dot __ . __ . __ . __ . __ . __ . __ . __
 72
65
 73
4
 40
25.4000000000000021
 49
12.6999999999999993
 74
0
 49
-6.2999999999999998
 74
0
 49
0.1
 74
0
 49
-6.2999999999999998
 74
0
  0
LTYPE
  5
3A
100
AcDbSymbolTableRecord
100
AcDbLinetypeTableRecord
  2
ACAD_ISO12W100
 70
0
  3
ISO dash double-dot __ . . __ . . __ . . __ . . 
 72
65
 73
6
 40
21.0
 49
12.0
 74
0
 49
-2.9500000000000002
 74
0
 49
0.1
 74
0
 49
-2.9000000000000004
 74
0
 49
0.1
 74
0
 49
-2.9500000000000002
 74
0
  0
LTYPE
  5
3B
100
AcDbSymbolTableRecord
100
AcDbLinetypeTableRecord
  2
DASHDOT2
 70
0
  3
Dash dot (.5x) _._._._._._._._._._._._._._._.
 72
65
 73
4
 40
12.6999999999999993
 49
6.3499999999999996
 74
0
 49
-3.125
 74
0
 49
0.1
 74
0
 49
-3.125
 74
0
  0
LTYPE
  5
3C
100
AcDbSymbolTableRecord
100
AcDbLinetypeTableRecord
  2
BORDERX2
 70
0
  3
Border (2x) ____  ____  .  ____  ____  .  ___
 72
65
 73
6
 40
88.8999999999999773
 49
25.3999999999999986
 74
0
 49
-12.6999999999999993
 74
0
 49
25.3999999999999986
 74
0
 49
-12.6499999999999986
 74
0
 49
0.1
 74
0
 49
-12.6499999999999986
 74
0
  0
LTYPE
  5
3D
100
AcDbSymbolTableRecord
100
AcDbLinetypeTableRecord
  2
PHANTOMX2
 70
0
  3
Phantom (2x) ____________    ____    ____   _
 72
65
 73
6
 40
127.0000000000000142
 49
63.5
 74
0
 49
-12.6999999999999993
 74
0
 49
12.6999999999999993
 74
0
 49
-12.6999999999999993
 74
0
 49
12.6999999999999993
 74
0
 49
-12.6999999999999993
 74
0
  0
LTYPE
  5
3E
100
AcDbSymbolTableRecord
100
AcDbLinetypeTableRecord
  2
DIVIDE
 70
0
  3
Divide ____ . . ____ . . ____ . . ____ . . ____
 72
65
 73
6
 40
31.7500000000000036
 49
12.6999999999999993
 74
0
 49
-6.2999999999999998
 74
0
 49
0.1
 74
0
 49
-6.25
 74
0
 49
0.1
 74
0
 49
-6.2999999999999998
 74
0
  0
LTYPE
  5
3F
100
AcDbSymbolTableRecord
100
AcDbLinetypeTableRecord
  2
CENTER
 70
0
  3
Center ____ _ ____ _ ____ _ ____ _ ____ _ ____
 72
65
 73
4
 40
50.8000000000000043
 49
31.75
 74
0
 49
-6.3499999999999996
 74
0
 49
6.3499999999999996
 74
0
 49
-6.3499999999999996
 74
0
  0
LTYPE
  5
40
100
AcDbSymbolTableRecord
100
AcDbLinetypeTableRecord
  2
ACAD_ISO10W100
 70
0
  3
ISO dash dot __ . __ . __ . __ . __ . __ . __ . 
 72
65
 73
4
 40
18.0
 49
12.0
 74
0
 49
-2.9500000000000002
 74
0
 49
0.1
 74
0
 49
-2.9500000000000002
 74
0
  0
LTYPE
  5
41
100
AcDbSymbolTableRecord
100
AcDbLinetypeTableRecord
  2
PHANTOM
 70
0
  3
Phantom ______  __  __  ______  __  __  ______ 
 72
65
 73
6
 40
63.5000000000000071
 49
31.75
 74
0
 49
-6.3499999999999996
 74
0
 49
6.3499999999999996
 74
0
 49
-6.3499999999999996
 74
0
 49
6.3499999999999996
 74
0
 49
-6.3499999999999996
 74
0
  0
LTYPE
  5
42
100
AcDbSymbolTableRecord
100
AcDbLinetypeTableRecord
  2
ACAD_ISO07W100
 70
0
  3
ISO dot . . . . . . . . . . . . . . . . . . . . 
 72
65
 73
2
 40
3.0
 49
0.1
 74
0
 49
-2.8999999999999999
 74
0
  0
LTYPE
  5
14
100
AcDbSymbolTableRecord
100
AcDbLinetypeTableRecord
  2
BYBLOCK
 70
0
  3

 72
65
 73
0
 40
0.0
  0
LTYPE
  5
43
100
AcDbSymbolTableRecord
100
AcDbLinetypeTableRecord
  2
HIDDEN
 70
0
  3
Hidden __ __ __ __ __ __ __ __ __ __ __ __ __ __
 72
65
 73
2
 40
9.5249999999999986
 49
6.3499999999999996
 74
0
 49
-3.1749999999999998
 74
0
  0
LTYPE
  5
44
100
AcDbSymbolTableRecord
100
AcDbLinetypeTableRecord
  2
ACAD_ISO08W100
 70
0
  3
ISO long-dash short-dash ____ __ ____ __ ____ _
 72
65
 73
4
 40
36.0
 49
24.0
 74
0
 49
-3.0
 74
0
 49
6.0
 74
0
 49
-3.0
 74
0
  0
LTYPE
  5
45
100
AcDbSymbolTableRecord
100
AcDbLinetypeTableRecord
  2
CENTERX2
 70
0
  3
Center (2x) ________  __  ________  __  _____
 72
65
 73
4
 40
101.6000000000000085
 49
63.5
 74
0
 49
-12.6999999999999993
 74
0
 49
12.6999999999999993
 74
0
 49
-12.6999999999999993
 74
0
  0
LTYPE
  5
46
100
AcDbSymbolTableRecord
100
AcDbLinetypeTableRecord
  2
ACAD_ISO06W100
 70
0
  3
ISO long-dash triple-dot ____ ... ____ ... ____
 72
65
 73
8
 40
36.0000000000000071
 49
24.0
 74
0
 49
-2.9500000000000002
 74
0
 49
0.1
 74
0
 49
-2.9000000000000004
 74
0
 49
0.1
 74
0
 49
-2.9000000000000004
 74
0
 49
0.1
 74
0
 49
-2.9500000000000002
 74
0
  0
LTYPE
  5
47
100
AcDbSymbolTableRecord
100
AcDbLinetypeTableRecord
  2
BORDER
 70
0
  3
Border __ __ . __ __ . __ __ . __ __ . __ __ .
 72
65
 73
6
 40
44.4499999999999957
 49
12.6999999999999993
 74
0
 49
-6.3499999999999996
 74
0
 49
12.6999999999999993
 74
0
 49
-6.2999999999999998
 74
0
 49
0.1
 74
0
 49
-6.2999999999999998
 74
0
  0
LTYPE
  5
48
100
AcDbSymbolTableRecord
100
AcDbLinetypeTableRecord
  2
DIVIDE2
 70
0
  3
Divide (.5x) __..__..__..__..__..__..__..__.._
 72
65
 73
6
 40
15.8749999999999982
 49
6.3499999999999996
 74
0
 49
-3.125
 74
0
 49
0.1
 74
0
 49
-3.0750000000000002
 74
0
 49
0.1
 74
0
 49
-3.125
 74
0
  0
LTYPE
  5
49
100
AcDbSymbolTableRecord
100
AcDbLinetypeTableRecord
  2
ACAD_ISO03W100
 70
0
  3
ISO dash space __    __    __    __    __    __
 72
65
 73
2
 40
30.0
 49
12.0
 74
0
 49
-18.0
 74
0
  0
LTYPE
  5
4A
100
AcDbSymbolTableRecord
100
AcDbLinetypeTableRecord
  2
DASHED
 70
0
  3
Dashed __ __ __ __ __ __ __ __ __ __ __ __ __ _
 72
65
 73
2
 40
19.0499999999999972
 49
12.6999999999999993
 74
0
 49
-6.3499999999999996
 74
0
  0
LTYPE
  5
4B
100
AcDbSymbolTableRecord
100
AcDbLinetypeTableRecord
  2
DASHDOTX2
 70
0
  3
Dash dot (2x) ____  .  ____  .  ____  .  ___
 72
65
 73
4
 40
50.7999999999999972
 49
25.3999999999999986
 74
0
 49
-12.6499999999999986
 74
0
 49
0.1
 74
0
 49
-12.6499999999999986
 74
0
  0
LTYPE
  5
4C
100
AcDbSymbolTableRecord
100
AcDbLinetypeTableRecord
  2
DASHEDX2
 70
0
  3
Dashed (2x) ____  ____  ____  ____  ____  ___
 72
65
 73
2
 40
38.0999999999999943
 49
25.3999999999999986
 74
0
 49
-12.6999999999999993
 74
0
  0
LTYPE
  5
4D
100
AcDbSymbolTableRecord
100
AcDbLinetypeTableRecord
  2
DOT2
 70
0
  3
Dot (.5x) ........................................
 72
65
 73
2
 40
3.1749999999999998
 49
0.1
 74
0
 49
-3.0749999999999997
 74
0
  0
LTYPE
  5
4E
100
AcDbSymbolTableRecord
100
AcDbLinetypeTableRecord
  2
CENTER2
 70
0
  3
Center (.5x) ___ _ ___ _ ___ _ ___ _ ___ _ ___
 72
65
 73
4
 40
28.5750000000000028
 49
19.0500000000000007
 74
0
 49
-3.1749999999999998
 74
0
 49
3.1749999999999998
 74
0
 49
-3.1749999999999998
 74
0
  0
LTYPE
  5
4F
100
AcDbSymbolTableRecord
100
AcDbLinetypeTableRecord
  2
HIDDENX2
 70
0
  3
Hidden (2x) ____ ____ ____ ____ ____ ____ ____ 
 72
65
 73
2
 40
19.0499999999999972
 49
12.6999999999999993
 74
0
 49
-6.3499999999999996
 74
0
  0
LTYPE
  5
50
100
AcDbSymbolTableRecord
100
AcDbLinetypeTableRecord
  2
DOTX2
 70
0
  3
Dot (2x) .  .  .  .  .  .  .  .  .  .  .  .  .  .
 72
65
 73
2
 40
12.6999999999999993
 49
0.1
 74
0
 49
-12.5999999999999996
 74
0
  0
LTYPE
  5
51
100
AcDbSymbolTableRecord
100
AcDbLinetypeTableRecord
  2
ACAD_ISO11W100
 70
0
  3
ISO double-dash dot __ __ . __ __ . __ __ . __ _
 72
65
 73
6
 40
33.0
 49
12.0
 74
0
 49
-3.0
 74
0
 49
12.0
 74
0
 49
-2.9500000000000002
 74
0
 49
0.1
 74
0
 49
-2.9500000000000002
 74
0
  0
LTYPE
  5
52
100
AcDbSymbolTableRecord
100
AcDbLinetypeTableRecord
  2
DOT
 70
0
  3
Dot . . . . . . . . . . . . . . . . . . . . . . . .
 72
65
 73
2
 40
6.3499999999999996
 49
0.1
 74
0
 49
-6.25
 74
0
  0
LTYPE
  5
53
100
AcDbSymbolTableRecord
100
AcDbLinetypeTableRecord
  2
ACAD_ISO05W100
 70
0
  3
ISO long-dash double-dot ____ .. ____ .. ____ . 
 72
65
 73
6
 40
33.0000000000000071
 49
24.0
 74
0
 49
-2.9500000000000002
 74
0
 49
0.1
 74
0
 49
-2.9000000000000004
 74
0
 49
0.1
 74
0
 49
-2.9500000000000002
 74
0
  0
LTYPE
  5
54
100
AcDbSymbolTableRecord
100
AcDbLinetypeTableRecord
  2
ACAD_ISO15W100
 70
0
  3
ISO double-dash triple-dot __ __ . . . __ __ . .
 72
65
 73
10
 40
39.0000000000000071
 49
12.0
 74
0
 49
-3.0
 74
0
 49
12.0
 74
0
 49
-2.9500000000000002
 74
0
 49
0.1
 74
0
 49
-2.9000000000000004
 74
0
 49
0.1
 74
0
 49
-2.9000000000000004
 74
0
 49
0.1
 74
0
 49
-2.9500000000000002
 74
0
  0
LTYPE
  5
55
100
AcDbSymbolTableRecord
100
AcDbLinetypeTableRecord
  2
BORDER2
 70
0
  3
Border (.5x) __.__.__.__.__.__.__.__.__.__.__.
 72
65
 73
6
 40
22.2250000000000014
 49
6.3499999999999996
 74
0
 49
-3.1749999999999998
 74
0
 49
6.3499999999999996
 74
0
 49
-3.125
 74
0
 49
0.1
 74
0
 49
-3.125
 74
0
  0
LTYPE
  5
56
100
AcDbSymbolTableRecord
100
AcDbLinetypeTableRecord
  2
ACAD_ISO02W100
 70
0
  3
ISO dash __ __ __ __ __ __ __ __ __ __ __ __ __
 72
65
 73
2
 40
15.0
 49
12.0
 74
0
 49
-3.0
 74
0
  0
ENDTAB
  0
TABLE
  2
LAYER
  5
2
100
AcDbSymbolTable
 70
8
  0
LAYER
  5
57
100
AcDbSymbolTableRecord
100
AcDbLayerTableRecord
  2
cotes
 70
0
 62
54
420
8421376
  6
BORDER2
370
25
390
F
  0
LAYER
  5
58
100
AcDbSymbolTableRecord
100
AcDbLayerTableRecord
  2
trappe
 70
0
 62
7
420
0
  6
Continuous
370
25
390
F
  0
LAYER
  5
59
100
AcDbSymbolTableRecord
100
AcDbLayerTableRecord
  2
moteur
 70
0
 62
30
420
16744192
  6
Continuous
370
25
390
F
  0
LAYER
  5
5A
100
AcDbSymbolTableRecord
100
AcDbLayerTableRecord
  2
bielle
 70
0
 62
7
420
0
  6
Continuous
370
25
390
F
  0
LAYER
  5
5B
100
AcDbSymbolTableRecord
100
AcDbLayerTableRecord
  2
trappe_o
 70
0
 62
9
420
12632256
  6
ACAD_ISO07W100
370
13
390
F
  0
LAYER
  5
5C
100
AcDbSymbolTableRecord
100
AcDbLayerTableRecord
  2
passage
 70
0
 62
2
420
16776960
  6
Continuous
370
25
390
F
  0
LAYER
  5
5D
100
AcDbSymbolTableRecord
100
AcDbLayerTableRecord
  2
bielle_o
 70
0
 62
9
420
12632256
  6
ACAD_ISO07W100
370
13
390
F
  0
LAYER
  5
10
100
AcDbSymbolTableRecord
100
AcDbLayerTableRecord
  2
0
 70
0
 62
7
420
16777215
  6
Continuous
370
25
390
F
  0
ENDTAB
  0
TABLE
  2
STYLE
  5
3
100
AcDbSymbolTable
 70
1
  0
STYLE
  5
5E
100
AcDbSymbolTableRecord
100
AcDbTextStyleTableRecord
  2
Standard
 70
0
 40
0.0
 41
1.0
 50
0.0
 71
0
 42
2.5
  3

  4

1001
ACAD
1000
txt
1071
0
  0
ENDTAB
  0
TABLE
  2
VIEW
  5
6
100
AcDbSymbolTable
 70
0
  0
ENDTAB
  0
TABLE
  2
UCS
  5
7
100
AcDbSymbolTable
 70
0
  0
ENDTAB
  0
TABLE
  2
APPID
  5
9
100
AcDbSymbolTable
 70
1
  0
APPID
  5
12
100
AcDbSymbolTableRecord
100
AcDbRegAppTableRecord
  2
ACAD
 70
0
  0
APPID
  5
5F
100
AcDbSymbolTableRecord
100
AcDbRegAppTableRecord
  2
QCAD
 70
0
  0
ENDTAB
  0
TABLE
  2
DIMSTYLE
  5
A
100
AcDbSymbolTable
 70
1
100
AcDbDimStyleTable
 71
0
  0
DIMSTYLE
105
27
100
AcDbSymbolTableRecord
100
AcDbDimStyleTableRecord
  2
Standard
 41
2.5
 42
0.625
 43
3.75
 44
1.25
 70
0
 73
0
 74
0
 77
1
 78
8
140
2.5
141
2.5
143
0.03937007874016
147
0.625
171
3
172
1
271
2
272
2
274
3
278
44
283
0
284
8
340
5E
  0
ENDTAB
  0
TABLE
  2
BLOCK_RECORD
  5
1
100
AcDbSymbolTable
 70
1
  0
BLOCK_RECORD
  5
1F
100
AcDbSymbolTableRecord
100
AcDbBlockTableRecord
  2
*Model_Space
340
22
  0
BLOCK_RECORD
  5
1B
100
AcDbSymbolTableRecord
100
AcDbBlockTableRecord
  2
*Paper_Space
340
1E
  0
BLOCK_RECORD
  5
23
100
AcDbSymbolTableRecord
100
AcDbBlockTableRecord
  2
*Paper_Space0
340
26
  0
BLOCK_RECORD
  5
60
100
AcDbSymbolTableRecord
100
AcDbBlockTableRecord
  2
trappe
340
0
  0
BLOCK_RECORD
  5
61
100
AcDbSymbolTableRecord
100
AcDbBlockTableRecord
  2
moteur
340
0
  0
BLOCK_RECORD
  5
62
100
AcDbSymbolTableRecord
100
AcDbBlockTableRecord
  2
trappe_o
340
0
  0
ENDTAB
  0
ENDSEC
  0
SECTION
  2
BLOCKS
  0
BLOCK
  5
20
100
AcDbEntity
  8
0
100
AcDbBlockBegin
  2
*Model_Space
 70
0
 10
0.0
 20
0.0
 30
0.0
  3
*Model_Space
  1

  0
ENDBLK
  5
21
100
AcDbEntity
  8
0
100
AcDbBlockEnd
  0
BLOCK
  5
1C
100
AcDbEntity
 67
1
  8
0
100
AcDbBlockBegin
  2
*Paper_Space
 70
0
 10
0.0
 20
0.0
 30
0.0
  3
*Paper_Space
  1

  0
ENDBLK
  5
1D
100
AcDbEntity
 67
1
  8
0
100
AcDbBlockEnd
  0
BLOCK
  5
24
100
AcDbEntity
  8
0
100
AcDbBlockBegin
  2
*Paper_Space0
 70
0
 10
0.0
 20
0.0
 30
0.0
  3
*Paper_Space0
  1

  0
ENDBLK
  5
25
100
AcDbEntity
  8
0
100
AcDbBlockEnd
  0
BLOCK
  5
63
100
AcDbEntity
  8
0
100
AcDbBlockBegin
  2
trappe
 70
0
 10
0.0
 20
0.0
 30
0.0
  3
trappe
  1

  0
LINE
  5
64
100
AcDbEntity
  8
trappe
 62
256
370
-1
 48
1.0
  6
BYLAYER
100
AcDbLine
 10
188.0
 20
-26.5
 30
0.0
 11
356.5
 21
-26.5
 31
0.0
  0
LINE
  5
65
100
AcDbEntity
  8
trappe
 62
256
370
-1
 48
1.0
  6
BYLAYER
100
AcDbLine
 10
356.5
 20
-26.5
 30
0.0
 11
356.5
 21
-6.5
 31
0.0
  0
LINE
  5
66
100
AcDbEntity
  8
trappe
 62
256
370
-1
 48
1.0
  6
BYLAYER
100
AcDbLine
 10
176.5
 20
-6.5
 30
0.0
 11
176.5
 21
-14.9999999999999982
 31
0.0
  0
LINE
  5
67
100
AcDbEntity
  8
trappe
 62
256
370
-1
 48
1.0
  6
BYLAYER
100
AcDbLine
 10
0.0
 20
-6.5
 30
0.0
 11
176.5
 21
-6.5
 31
0.0
  0
LINE
  5
68
100
AcDbEntity
  8
trappe
 62
256
370
-1
 48
1.0
  6
BYLAYER
100
AcDbLine
 10
356.5
 20
-6.5
 30
0.0
 11
356.5
 21
6.5
 31
0.0
  0
LINE
  5
69
100
AcDbEntity
  8
trappe
 62
256
370
-1
 48
1.0
  6
BYLAYER
100
AcDbLine
 10
356.5
 20
6.5
 30
0.0
 11
0.0
 21
6.5
 31
0.0
  0
ARC
  5
6A
100
AcDbEntity
  8
trappe
 62
256
370
-1
 48
1.0
  6
BYLAYER
100
AcDbCircle
 10
0.0
 20
0.0
 30
0.0
 40
6.5
100
AcDbArc
 50
90.0
 51
270.0
  0
CIRCLE
  5
6B
100
AcDbEntity
  8
trappe
 62
256
370
-1
 48
1.0
  6
BYLAYER
100
AcDbCircle
 10
0.0
 20
0.0
 30
0.0
 40
2.5
  0
ARC
  5
6C
100
AcDbEntity
  8
trappe
 62
256
370
-1
 48
1.0
  6
BYLAYER
100
AcDbCircle
 10
188.0
 20
-14.9999999999999964
 30
0.0
 40
11.5000000000000036
100
AcDbArc
 50
180.0
 51
270.0
  0
CIRCLE
  5
6D
100
AcDbEntity
  8
trappe
 62
256
370
-1
 48
1.0
  6
BYLAYER
100
AcDbCircle
 10
150.0
 20
0.0
 30
0.0
 40
2.5
  0
ENDBLK
  5
6E
100
AcDbEntity
  8
0
100
AcDbBlockEnd
  0
BLOCK
  5
6F
100
AcDbEntity
  8
0
100
AcDbBlockBegin
  2
moteur
 70
0
 10
0.0
 20
0.0
 30
0.0
  3
moteur
  1

  0
CIRCLE
  5
70
100
AcDbEntity
  8
moteur
 62
256
370
-1
 48
1.0
  6
BYLAYER
100
AcDbCircle
 10
0.0
 20
0.0
 30
0.0
 40
2.5
  0
CIRCLE
  5
71
100
AcDbEntity
  8
moteur
 62
256
370
-1
 48
1.0
  6
BYLAYER
100
AcDbCircle
 10
0.0
 20
0.0
 30
0.0
 40
4.5
  0
CIRCLE
  5
72
100
AcDbEntity
  8
moteur
 62
256
370
-1
 48
1.0
  6
BYLAYER
100
AcDbCircle
 10
8.0
 20
-0.000000000000002
 30
0.0
 40
14.0
  0
CIRCLE
  5
73
100
AcDbEntity
  8
moteur
 62
256
370
-1
 48
1.0
  6
BYLAYER
100
AcDbCircle
 10
7.9999999999999982
 20
-17.5
 30
0.0
 40
1.75
  0
CIRCLE
  5
74
100
AcDbEntity
  8
moteur
 62
256
370
-1
 48
1.0
  6
BYLAYER
100
AcDbCircle
 10
8.0000000000000071
 20
17.4999999999999964
 30
0.0
 40
1.75
  0
CIRCLE
  5
75
100
AcDbEntity
  8
moteur
 62
256
370
-1
 48
1.0
  6
BYLAYER
100
AcDbCircle
 10
8.0000000000000071
 20
17.4999999999999964
 30
0.0
 40
3.5
  0
CIRCLE
  5
76
100
AcDbEntity
  8
moteur
 62
256
370
-1
 48
1.0
  6
BYLAYER
100
AcDbCircle
 10
7.9999999999999982
 20
-17.5
 30
0.0
 40
3.5
  0
LINE
  5
77
100
AcDbEntity
  8
moteur
 62
256
370
-1
 48
1.0
  6
BYLAYER
100
AcDbLine
 10
24.9999999999999964
 20
-7.3000000000000078
 30
0.0
 11
25.0
 21
7.2999999999999963
 31
0.0
  0
LINE
  5
78
100
AcDbEntity
  8
moteur
 62
256
370
-1
 48
1.0
  6
BYLAYER
100
AcDbLine
 10
25.0
 20
7.2999999999999963
 30
0.0
 11
19.9461290801665143
 21
7.2999999999999874
 31
0.0
  0
LINE
  5
79
100
AcDbEntity
  8
moteur
 62
256
370
-1
 48
1.0
  6
BYLAYER
100
AcDbLine
 10
19.9461290801665179
 20
-7.3000000000000007
 30
0.0
 11
24.9999999999999964
 21
-7.3000000000000078
 31
0.0
  0
LINE
  5
7A
100
AcDbEntity
  8
moteur
 62
256
370
-1
 48
1.0
  6
BYLAYER
100
AcDbLine
 10
4.4999999999999947
 20
-17.5000000000000036
 30
0.0
 11
4.5000000000000009
 21
-13.5554417117259565
 31
0.0
  0
LINE
  5
7B
100
AcDbEntity
  8
moteur
 62
256
370
-1
 48
1.0
  6
BYLAYER
100
AcDbLine
 10
11.4999999999999929
 20
-17.5000000000000036
 30
0.0
 11
11.4999999999999929
 21
-13.5554417117259582
 31
0.0
  0
LINE
  5
7C
100
AcDbEntity
  8
moteur
 62
256
370
-1
 48
1.0
  6
BYLAYER
100
AcDbLine
 10
4.500000000000008
 20
13.5554417117259565
 30
0.0
 11
4.5000000000000027
 21
17.5
 31
0.0
  0
LINE
  5
7D
100
AcDbEntity
  8
moteur
 62
256
370
-1
 48
1.0
  6
BYLAYER
100
AcDbLine
 10
11.5000000000000036
 20
13.5554417117259547
 30
0.0
 11
11.5000000000000018
 21
17.5
 31
0.0
  0
LINE
  5
7E
100
AcDbEntity
  8
moteur
 62
256
370
-1
 48
1.0
  6
BYLAYER
100
AcDbLine
 10
1.4999999999999993
 20
-2.0000000000000004
 30
0.0
 11
1.5000000000000004
 21
1.9999999999999998
 31
0.0
  0
LINE
  5
7F
100
AcDbEntity
  8
moteur
 62
256
370
-1
 48
1.0
  6
BYLAYER
100
AcDbLine
 10
-1.4999999999999996
 20
2.0000000000000004
 30
0.0
 11
-1.5000000000000002
 21
-1.9999999999999998
 31
0.0
  0
ENDBLK
  5
80
100
AcDbEntity
  8
0
100
AcDbBlockEnd
  0
BLOCK
  5
81
100
AcDbEntity
  8
0
100
AcDbBlockBegin
  2
trappe_o
 70
0
 10
0.0
 20
0.0
 30
0.0
  3
trappe_o
  1

  0
LINE
  5
82
100
AcDbEntity
  8
trappe_o
 62
256
370
-1
 48
1.0
  6
BYLAYER
100
AcDbLine
 10
189.5942304240610952
 20
-10.0138798628715673
 30
0.0
 11
357.4530370525202443
 21
4.6718627901088201
 31
0.0
  0
LINE
  5
83
100
AcDbEntity
  8
trappe_o
 62
256
370
-1
 48
1.0
  6
BYLAYER
100
AcDbLine
 10
357.4530370525202443
 20
4.6718627901088201
 30
0.0
 11
355.7099221975670389
 21
24.5957567519443643
 31
0.0
  0
LINE
  5
84
100
AcDbEntity
  8
trappe_o
 62
256
370
-1
 48
1.0
  6
BYLAYER
100
AcDbLine
 10
176.3948765410528665
 20
8.9077230573652404
 30
0.0
 11
177.1357003544079589
 21
0.4400681235854574
 31
0.0
  0
LINE
  5
85
100
AcDbEntity
  8
trappe_o
 62
256
370
-1
 48
1.0
  6
BYLAYER
100
AcDbLine
 10
0.5665123278597762
 20
-6.4752655375963464
 30
0.0
 11
176.3948765410528665
 21
8.9077230573652404
 31
0.0
  0
LINE
  5
86
100
AcDbEntity
  8
trappe_o
 62
256
370
-1
 48
1.0
  6
BYLAYER
100
AcDbLine
 10
355.7099221975670389
 20
24.5957567519443643
 30
0.0
 11
354.5768975418475861
 21
37.5462878271358562
 31
0.0
  0
LINE
  5
87
100
AcDbEntity
  8
trappe_o
 62
256
370
-1
 48
1.0
  6
BYLAYER
100
AcDbLine
 10
354.5768975418475861
 20
37.5462878271358562
 30
0.0
 11
-0.5665123278597771
 21
6.4752655375963464
 31
0.0
  0
ARC
  5
88
100
AcDbEntity
  8
trappe_o
 62
256
370
-1
 48
1.0
  6
BYLAYER
100
AcDbCircle
 10
0.0
 20
0.0
 30
0.0
 40
6.5
100
AcDbArc
 50
95.0
 51
275.0
  0
CIRCLE
  5
89
100
AcDbEntity
  8
trappe_o
 62
256
370
-1
 48
1.0
  6
BYLAYER
100
AcDbCircle
 10
0.0
 20
0.0
 30
0.0
 40
2.5
  0
ARC
  5
8A
100
AcDbEntity
  8
trappe_o
 62
256
370
-1
 48
1.0
  6
BYLAYER
100
AcDbCircle
 10
188.5919393824630106
 20
1.4423591651836536
 30
0.0
 40
11.5000000000000036
100
AcDbArc
 50
184.9999999999999716
 51
275.0
  0
CIRCLE
  5
8B
100
AcDbEntity
  8
trappe_o
 62
256
370
-1
 48
1.0
  6
BYLAYER
100
AcDbCircle
 10
149.429204713761834
 20
13.0733614121487243
 30
0.0
 40
2.5
  0
ENDBLK
  5
8C
100
AcDbEntity
  8
0
100
AcDbBlockEnd
  0
ENDSEC
  0
SECTION
  2
ENTITIES
  0
LINE
  5
8D
100
AcDbEntity
  8
passage
 62
256
370
-1
 48
1.0
  6
BYLAYER
100
AcDbLine
 10
-171.0
 20
-6.5
 30
0.0
 11
-13.0000000000000018
 21
-6.5
 31
0.0
  0
ARC
  5
8E
100
AcDbEntity
  8
passage
 62
256
370
-1
 48
1.0
  6
BYLAYER
100
AcDbCircle
 10
-13.0
 20
0.0
 30
0.0
 40
6.5
100
AcDbArc
 50
270.0
 51
0.0
  0
LINE
  5
8F
100
AcDbEntity
  8
passage
 62
256
370
-1
 48
1.0
  6
BYLAYER
100
AcDbLine
 10
-6.5
 20
0.0
 30
0.0
 11
-6.5
 21
0.0
 31
0.0
  0
ARC
  5
90
100
AcDbEntity
  8
passage
 62
256
370
-1
 48
1.0
  6
BYLAYER
100
AcDbCircle
 10
-13.0
 20
0.0
 30
0.0
 40
6.5
100
AcDbArc
 50
0.0
 51
90.0
  0
LINE
  5
91
100
AcDbEntity
  8
passage
 62
256
370
-1
 48
1.0
  6
BYLAYER
100
AcDbLine
 10
-13.0
 20
6.5
 30
0.0
 11
-171.0
 21
6.5
 31
0.0
  0
ARC
  5
92
100
AcDbEntity
  8
passage
 62
256
370
-1
 48
1.0
  6
BYLAYER
100
AcDbCircle
 10
-171.0
 20
0.0
 30
0.0
 40
6.5
100
AcDbArc
 50
90.0
 51
180.0
  0
LINE
  5
93
100
AcDbEntity
  8
passage
 62
256
370
-1
 48
1.0
  6
BYLAYER
100
AcDbLine
 10
-177.5
 20
0.0000000000000008
 30
0.0
 11
-177.5
 21
0.0000000000000008
 31
0.0
  0
ARC
  5
94
100
AcDbEntity
  8
passage
 62
256
370
-1
 48
1.0
  6
BYLAYER
100
AcDbCircle
 10
-171.0
 20
0.0
 30
0.0
 40
6.5
100
AcDbArc
 50
180.0
 51
270.0
  0
LINE
  5
95
100
AcDbEntity
  8
passage
 62
256
370
-1
 48
1.0
  6
BYLAYER
100
AcDbLine
 10
12.9999999999999982
 20
-6.5
 30
0.0
 11
171.0
 21
-6.5
 31
0.0
  0
ARC
  5
96
100
AcDbEntity
  8
passage
 62
256
370
-1
 48
1.0
  6
BYLAYER
100
AcDbCircle
 10
171.0
 20
0.0
 30
0.0
 40
6.5
100
AcDbArc
 50
270.0
 51
0.0
  0
LINE
  5
97
100
AcDbEntity
  8
passage
 62
256
370
-1
 48
1.0
  6
BYLAYER
100
AcDbLine
 10
177.5
 20
0.0
 30
0.0
 11
177.5
 21
0.0
 31
0.0
  0
ARC
  5
98
100
AcDbEntity
  8
passage
 62
256
370
-1
 48
1.0
  6
BYLAYER
100
AcDbCircle
 10
171.0
 20
0.0
 30
0.0
 40
6.5
100
AcDbArc
 50
0.0
 51
90.0
  0
LINE
  5
99
100
AcDbEntity
  8
passage
 62
256
370
-1
 48
1.0
  6
BYLAYER
100
AcDbLine
 10
171.0
 20
6.5
 30
0.0
 11
13.0
 21
6.5
 31
0.0
  0
ARC
  5
9A
100
AcDbEntity
  8
passage
 62
256
370
-1
 48
1.0
  6
BYLAYER
100
AcDbCircle
 10
13.0
 20
0.0
 30
0.0
 40
6.5
100
AcDbArc
 50
90.0
 51
180.0
  0
LINE
  5
9B
100
AcDbEntity
  8
passage
 62
256
370
-1
 48
1.0
  6
BYLAYER
100
AcDbLine
 10
6.5
 20
0.0000000000000008
 30
0.0
 11
6.5
 21
0.0000000000000008
 31
0.0
  0
ARC
  5
9C
100
AcDbEntity
  8
passage
 62
256
370
-1
 48
1.0
  6
BYLAYER
100
AcDbCircle
 10
13.0
 20
0.0
 30
0.0
 40
6.5
100
AcDbArc
 50
180.0
 51
270.0
  0
INSERT
  5
9D
100
AcDbEntity
  8
0
 62
256
370
-1
 48
1.0
  6
BYLAYER
100
AcDbBlockReference
  2
moteur
 10
0.0
 20
-70.0
 30
0.0
  0
INSERT
  5
9E
100
AcDbEntity
  8
trappe
 62
256
370
-1
 48
1.0
  6
BYLAYER
100
AcDbBlockReference
  2
trappe
 10
-175.0
 20
16.5
 30
0.0
  0
INSERT
  5
9F
100
AcDbEntity
  8
trappe
 62
256
370
-1
 48
1.0
  6
BYLAYER
100
AcDbBlockReference
  2
trappe
 10
175.0
 20
-16.4999999999997726
 30
0.0
 50
180.0
  0
LINE
  5
A0
100
AcDbEntity
  8
cotes
 62
256
370
-1
 48
1.0
  6
BYLAYER
100
AcDbLine
 10
-175.0
 20
16.5
 30
0.0
 11
13.0
 21
-10.0
 31
0.0
  0
LINE
  5
A1
100
AcDbEntity
  8
cotes
 62
256
370
-1
 48
1.0
  6
BYLAYER
100
AcDbLine
 10
13.0
 20
-10.0
 30
0.0
 11
-175.0
 21
16.5
 31
0.0
  0
LINE
  5
A2
100
AcDbEntity
  8
cotes
 62
256
370
-1
 48
1.0
  6
BYLAYER
100
AcDbLine
 10
-175.0
 20
16.5
 30
0.0
 11
13.0
 21
6.5
 31
0.0
  0
DIMENSION
  5
A3
100
AcDbEntity
  8
cotes
 62
256
370
-1
 48
1.0
  6
Continuous
100
AcDbDimension
 10
13.0
 20
6.5
 30
0.0
 11
17.1589315318998992
 21
-2.1182067679899137
 31
0.0
 70
2
 71
8
 72
2
 74
0
 75
0
 41
1.0
 42
0.0
  1

  3
Standard
100
AcDb2LineAngularDimension
 13
13.0
 23
-10.0
 33
0.0
 14
-175.0
 24
16.5
 34
0.0
 15
-175.0
 25
16.5
 35
0.0
 16
18.7031703211576144
 26
-5.3691666235842916
 36
0.0
  0
DIMENSION
  5
A4
100
AcDbEntity
  8
cotes
 62
256
370
-1
 48
1.0
  6
BYLAYER
100
AcDbDimension
 10
19.6585975058084159
 20
6.1458192816058226
 30
0.0
 11
17.1589315318998992
 21
-2.1182067679899066
 31
0.0
 70
2
 71
8
 72
2
 74
0
 75
0
 41
1.0
 42
0.0
  1

  3
Standard
100
AcDb2LineAngularDimension
 13
-175.0
 23
16.5
 33
0.0
 14
18.0255989508281118
 24
-10.7083955967922897
 34
0.0
 15
-175.0
 25
16.5
 35
0.0
 16
19.0251921409918054
 26
-2.2990280580857103
 36
0.0
  0
CIRCLE
  5
A5
100
AcDbEntity
  8
trappe
 62
256
370
-1
 48
1.0
  6
BYLAYER
100
AcDbCircle
 10
28.0
 20
-70.0
 30
0.0
 40
1.5
  0
CIRCLE
  5
A6
100
AcDbEntity
  8
trappe_o
 62
256
370
-1
 48
1.0
  6
BYLAYER
100
AcDbCircle
 10
24.7225326000499557
 20
-83.1452037580049392
 30
0.0
 40
1.5
  0
CIRCLE
  5
A7
100
AcDbEntity
  8
bielle
 62
256
370
-1
 48
1.0
  6
BYLAYER
100
AcDbCircle
 10
-28.0
 20
-70.0
 30
0.0
 40
2.5
  0
CIRCLE
  5
A8
100
AcDbEntity
  8
trappe
 62
256
370
-1
 48
1.0
  6
BYLAYER
100
AcDbCircle
 10
-28.0
 20
-70.0
 30
0.0
 40
1.5
  0
CIRCLE
  5
A9
100
AcDbEntity
  8
trappe_o
 62
256
370
-1
 48
1.0
  6
BYLAYER
100
AcDbCircle
 10
-24.7225326000499557
 20
-56.8547962419950608
 30
0.0
 40
1.5
  0
LINE
  5
AA
100
AcDbEntity
  8
trappe
 62
256
370
-1
 48
1.0
  6
BYLAYER
100
AcDbLine
 10
-28.0
 20
-76.5
 30
0.0
 11
28.0
 21
-76.5
 31
0.0
  0
LINE
  5
AB
100
AcDbEntity
  8
trappe_o
 62
256
370
-1
 48
1.0
  6
BYLAYER
100
AcDbLine
 10
-27.7740977581582413
 20
-62.5939555955780804
 30
0.0
 11
21.67096744194167
 21
-88.8843631115879589
 31
0.0
  0
LINE
  5
AC
100
AcDbEntity
  8
trappe
 62
256
370
-1
 48
1.0
  6
BYLAYER
100
AcDbLine
 10
28.0
 20
-63.5
 30
0.0
 11
-28.0
 21
-63.5
 31
0.0
  0
LINE
  5
AD
100
AcDbEntity
  8
trappe_o
 62
256
370
-1
 48
1.0
  6
BYLAYER
100
AcDbLine
 10
27.7740977581582413
 20
-77.4060444044219196
 30
0.0
 11
-21.67096744194167
 21
-51.1156368884120411
 31
0.0
  0
ARC
  5
AE
100
AcDbEntity
  8
trappe
 62
256
370
-1
 48
1.0
  6
BYLAYER
100
AcDbCircle
 10
-28.0
 20
-70.0
 30
0.0
 40
6.5
100
AcDbArc
 50
90.0
 51
270.0
  0
ARC
  5
AF
100
AcDbEntity
  8
trappe_o
 62
256
370
-1
 48
1.0
  6
BYLAYER
100
AcDbCircle
 10
-24.7225326000499557
 20
-56.8547962419950608
 30
0.0
 40
6.5
100
AcDbArc
 50
62.0
 51
242.0000000000000284
  0
ARC
  5
B0
100
AcDbEntity
  8
trappe
 62
256
370
-1
 48
1.0
  6
BYLAYER
100
AcDbCircle
 10
28.0
 20
-70.0
 30
0.0
 40
6.5
100
AcDbArc
 50
270.0
 51
90.0
  0
ARC
  5
B1
100
AcDbEntity
  8
trappe_o
 62
256
370
-1
 48
1.0
  6
BYLAYER
100
AcDbCircle
 10
24.7225326000499557
 20
-83.1452037580049392
 30
0.0
 40
6.5
100
AcDbArc
 50
242.0000000000000284
 51
62.0
  0
CIRCLE
  5
B2
100
AcDbEntity
  8
trappe
 62
256
370
-1
 48
1.0
  6
BYLAYER
100
AcDbCircle
 10
-25.0
 20
16.5
 30
0.0
 40
2.5
  0
CIRCLE
  5
B3
100
AcDbEntity
  8
trappe
 62
256
370
-1
 48
1.0
  6
BYLAYER
100
AcDbCircle
 10
24.9999999999999929
 20
-16.5000000000000107
 30
0.0
 40
2.5
  0
CIRCLE
  5
B4
100
AcDbEntity
  8
bielle
 62
256
370
-1
 48
1.0
  6
BYLAYER
100
AcDbCircle
 10
-25.0
 20
16.5
 30
0.0
 40
6.5
  0
CIRCLE
  5
B5
100
AcDbEntity
  8
bielle
 62
256
370
-1
 48
1.0
  6
BYLAYER
100
AcDbCircle
 10
-28.0
 20
-70.0
 30
0.0
 40
6.5
  0
LINE
  5
B6
100
AcDbEntity
  8
bielle
 62
256
370
-1
 48
1.0
  6
BYLAYER
100
AcDbLine
 10
-31.4960942712456884
 20
16.7252980672108365
 30
0.0
 11
-34.4960942712456884
 21
-69.7747019327891707
 31
0.0
  0
LINE
  5
B7
100
AcDbEntity
  8
bielle
 62
256
370
-1
 48
1.0
  6
BYLAYER
100
AcDbLine
 10
-18.5039057287543116
 20
16.2747019327891635
 30
0.0
 11
-21.5039057287543116
 21
-70.2252980672108436
 31
0.0
  0
CIRCLE
  5
B8
100
AcDbEntity
  8
bielle
 62
256
370
-1
 48
1.0
  6
BYLAYER
100
AcDbCircle
 10
-25.0
 20
16.5
 30
0.0
 40
1.5
  0
INSERT
  5
B9
100
AcDbEntity
  8
trappe_o
 62
256
370
-1
 48
1.0
  6
BYLAYER
100
AcDbBlockReference
  2
trappe_o
 10
-175.0
 20
16.5
 30
0.0
  0
INSERT
  5
BA
100
AcDbEntity
  8
trappe_o
 62
256
370
-1
 48
1.0
  6
BYLAYER
100
AcDbBlockReference
  2
trappe_o
 10
175.0
 20
-16.4999999999997726
 30
0.0
 50
180.0
  0
CIRCLE
  5
BB
100
AcDbEntity
  8
bielle_o
 62
256
370
-1
 48
1.0
  6
BYLAYER
100
AcDbCircle
 10
-25.570795286238166
 20
29.5733614121487243
 30
0.0
 40
1.5
  0
CIRCLE
  5
BC
100
AcDbEntity
  8
cotes
 62
256
370
-1
 48
1.0
  6
BYLAYER
100
AcDbCircle
 10
-25.570795286238166
 20
29.5733614121487278
 30
0.0
 40
86.5
  0
CIRCLE
  5
BD
100
AcDbEntity
  8
cotes
 62
256
370
-1
 48
1.0
  6
BYLAYER
100
AcDbCircle
 10
0.0
 20
-70.0
 30
0.0
 40
28.0
  0
CIRCLE
  5
BE
100
AcDbEntity
  8
bielle_o
 62
256
370
-1
 48
1.0
  6
BYLAYER
100
AcDbCircle
 10
-24.7585844006306459
 20
-56.9228252869035103
 30
0.0
 40
2.5
  0
CIRCLE
  5
BF
100
AcDbEntity
  8
bielle_o
 62
256
370
-1
 48
1.0
  6
BYLAYER
100
AcDbCircle
 10
-24.7585844006306459
 20
-56.9228252869035103
 30
0.0
 40
6.5
  0
CIRCLE
  5
C0
100
AcDbEntity
  8
bielle_o
 62
256
370
-1
 48
1.0
  6
BYLAYER
100
AcDbCircle
 10
-25.570795286238166
 20
29.5733614121487278
 30
0.0
 40
6.5
  0
LINE
  5
C1
100
AcDbEntity
  8
bielle_o
 62
256
370
-1
 48
1.0
  6
BYLAYER
100
AcDbLine
 10
-31.2582978520045138
 20
-56.9838584748393373
 30
0.0
 11
-32.0705087376120304
 21
29.5123282242129044
 31
0.0
  0
LINE
  5
C2
100
AcDbEntity
  8
bielle_o
 62
256
370
-1
 48
1.0
  6
BYLAYER
100
AcDbLine
 10
-18.258870949256778
 20
-56.8617920989676833
 30
0.0
 11
-19.0710818348642981
 21
29.6343946000845548
 31
0.0
  0
LINE
  5
C3
100
AcDbEntity
  8
cotes
 62
256
370
-1
 48
1.0
  6
BYLAYER
100
AcDbLine
 10
0.0
 20
-70.0
 30
0.0
 11
-24.7585844006306459
 21
-56.9228252869035103
 31
0.0
  0
LINE
  5
C4
100
AcDbEntity
  8
cotes
 62
256
370
-1
 48
1.0
  6
BYLAYER
100
AcDbLine
 10
0.0
 20
-70.0
 30
0.0
 11
-28.0
 21
-70.0
 31
0.0
  0
DIMENSION
  5
C5
100
AcDbEntity
  8
cotes
 62
256
370
-1
 48
1.0
  6
Continuous
100
AcDbDimension
 10
-28.0
 20
-70.0
 30
0.0
 11
-18.7712054540478306
 21
-65.3472153188575788
 31
0.0
 70
2
 71
8
 72
2
 74
0
 75
0
 41
1.0
 42
0.0
  1

  3
Standard
100
AcDb2LineAngularDimension
 13
-24.7585844006306459
 23
-56.9228252869035103
 33
0.0
 14
0.0
 24
-70.0
 34
0.0
 15
0.0
 25
-70.0
 35
0.0
 16
-17.0
 26
-66.0
 36
0.0
  0
ENDSEC
  0
SECTION
  2
OBJECTS
  0
DICTIONARY
  5
C
100
AcDbDictionary
280
0
281
1
  3
ACAD_GROUP
350
D
  3
ACAD_LAYOUT
350
1A
  3
ACAD_MLINESTYLE
350
17
  3
ACAD_PLOTSETTINGS
350
19
  3
ACAD_PLOTSTYLENAME
350
E
  3
AcDbVariableDictionary
350
C6
  3
QCAD_OBJECTS
350
C7
  0
DICTIONARY
  5
D
100
AcDbDictionary
280
0
281
1
  0
ACDBDICTIONARYWDFLT
  5
E
100
AcDbDictionary
281
1
  3
Normal
350
F
100
AcDbDictionaryWithDefault
340
F
  0
ACDBPLACEHOLDER
  5
F
  0
DICTIONARY
  5
17
100
AcDbDictionary
280
0
281
1
  3
Standard
350
18
  0
MLINESTYLE
  5
18
100
AcDbMlineStyle
  2
STANDARD
 70
0
  3

 62
256
 51
90.0
 52
90.0
 71
2
 49
0.5
 62
256
  6
BYLAYER
 49
-0.5
 62
256
  6
BYLAYER
  0
DICTIONARY
  5
19
100
AcDbDictionary
280
0
281
1
  0
DICTIONARY
  5
1A
100
AcDbDictionary
281
1
  3
Layout1
350
1E
  3
Layout2
350
26
  3
Model
350
22
  0
LAYOUT
  5
1E
100
AcDbPlotSettings
  1

  2
none_device
  4

  6

 40
0.0
 41
0.0
 42
0.0
 43
0.0
 44
0.0
 45
0.0
 46
0.0
 47
0.0
 48
0.0
 49
0.0
140
0.0
141
0.0
142
1.0
143
1.0
 70
688
 72
0
 73
0
 74
5
  7

 75
16
147
1.0
148
0.0
149
0.0
100
AcDbLayout
  1
Layout1
 70
1
 71
1
 10
0.0
 20
0.0
 11
420.0
 21
297.0
 12
0.0
 22
0.0
 32
0.0
 14
100000000000000000000.0
 24
100000000000000000000.0
 34
100000000000000000000.0
 15
-100000000000000000000.0
 25
-100000000000000000000.0
 35
-100000000000000000000.0
146
0.0
 13
0.0
 23
0.0
 33
0.0
 16
1.0
 26
0.0
 36
0.0
 17
0.0
 27
1.0
 37
0.0
 76
0
330
1B
  0
LAYOUT
  5
22
100
AcDbPlotSettings
  1

  2
none_device
  4

  6

 40
0.0
 41
0.0
 42
0.0
 43
0.0
 44
0.0
 45
0.0
 46
0.0
 47
0.0
 48
0.0
 49
0.0
140
0.0
141
0.0
142
1.0
143
1.0
 70
1712
 72
0
 73
0
 74
0
  7

 75
0
147
1.0
148
0.0
149
0.0
100
AcDbLayout
  1
Model
 70
1
 71
0
 10
0.0
 20
0.0
 11
12.0
 21
9.0
 12
0.0
 22
0.0
 32
0.0
 14
0.0
 24
0.0
 34
0.0
 15
0.0
 25
0.0
 35
0.0
146
0.0
 13
0.0
 23
0.0
 33
0.0
 16
1.0
 26
0.0
 36
0.0
 17
0.0
 27
1.0
 37
0.0
 76
0
330
1F
  0
LAYOUT
  5
26
100
AcDbPlotSettings
  1

  2
none_device
  4

  6

 40
0.0
 41
0.0
 42
0.0
 43
0.0
 44
0.0
 45
0.0
 46
0.0
 47
0.0
 48
0.0
 49
0.0
140
0.0
141
0.0
142
1.0
143
1.0
 70
688
 72
0
 73
0
 74
5
  7

 75
16
147
1.0
148
0.0
149
0.0
100
AcDbLayout
  1
Layout2
 70
1
 71
2
 10
0.0
 20
0.0
 11
12.0
 21
9.0
 12
0.0
 22
0.0
 32
0.0
 14
0.0
 24
0.0
 34
0.0
 15
0.0
 25
0.0
 35
0.0
146
0.0
 13
0.0
 23
0.0
 33
0.0
 16
1.0
 26
0.0
 36
0.0
 17
0.0
 27
1.0
 37
0.0
 76
0
330
23
  0
DICTIONARY
  5
C6
100
AcDbDictionary
281
1
  3
DIMASSOC
350
C9
  3
HIDETEXT
350
C8
  0
DICTIONARYVAR
  5
C8
100
DictionaryVariables
280
0
  1
2
  0
DICTIONARYVAR
  5
C9
100
DictionaryVariables
280
0
  1
1
  0
DICTIONARY
  5
C7
100
AcDbDictionary
281
1
  3
ColorSettings/BackgroundColor
350
CA
  3
ColorSettings/ColorMode
350
CB
  3
Grid/DisplayGrid00
350
CC
  3
Grid/DisplayGrid01
350
CD
  3
Grid/DisplayGrid02
350
CE
  3
Grid/DisplayGrid03
350
CF
  3
Grid/GridSpacingX00
350
D0
  3
Grid/GridSpacingX01
350
D1
  3
Grid/GridSpacingX02
350
D2
  3
Grid/GridSpacingX03
350
D3
  3
Grid/GridSpacingY00
350
D4
  3
Grid/GridSpacingY01
350
D5
  3
Grid/GridSpacingY02
350
D6
  3
Grid/GridSpacingY03
350
D7
  3
Grid/IsometricGrid00
350
D8
  3
Grid/IsometricGrid01
350
D9
  3
Grid/IsometricGrid02
350
DA
  3
Grid/IsometricGrid03
350
DB
  3
Grid/IsometricProjection00
350
DC
  3
Grid/IsometricProjection01
350
DD
  3
Grid/IsometricProjection02
350
DE
  3
Grid/IsometricProjection03
350
DF
  3
Grid/MetaGridSpacingX00
350
E0
  3
Grid/MetaGridSpacingX01
350
E1
  3
Grid/MetaGridSpacingX02
350
E2
  3
Grid/MetaGridSpacingX03
350
E3
  3
Grid/MetaGridSpacingY00
350
E4
  3
Grid/MetaGridSpacingY01
350
E5
  3
Grid/MetaGridSpacingY02
350
E6
  3
Grid/MetaGridSpacingY03
350
E7
  3
MultiPageSettings/Columns
350
E8
  3
MultiPageSettings/GlueMarginsBottom
350
E9
  3
MultiPageSettings/GlueMarginsLeft
350
EA
  3
MultiPageSettings/GlueMarginsRight
350
EB
  3
MultiPageSettings/GlueMarginsTop
350
EC
  3
MultiPageSettings/PrintCropMarks
350
ED
  3
MultiPageSettings/Rows
350
EE
  3
PageSettings/OffsetX
350
EF
  3
PageSettings/OffsetY
350
F0
  3
PageSettings/PageOrientation
350
F1
  3
PageSettings/PaperHeight
350
F2
  3
PageSettings/PaperWidth
350
F3
  3
PageSettings/Scale
350
F4
  3
PageSettings/ShowPaperBorders
350
F5
  3
PageTagSettings/EnablePageTags
350
F6
  3
PageTagSettings/TagAlignment
350
F7
  3
PageTagSettings/TagFont
350
F8
  3
PageTagSettings/TagPosition
350
F9
  3
QCADVersion
350
FA
  3
UnitSettings/PaperUnit
350
FB
  3
ViewportCenter
350
FC
  3
ViewportHeight
350
FD
  3
ViewportWidth
350
FE
  0
XRECORD
  5
CA
330
C7
100
AcDbXrecord
280
1
1000
Blanc
  0
XRECORD
  5
CB
330
C7
100
AcDbXrecord
280
1
1000
FullColor
  0
XRECORD
  5
CC
330
C7
100
AcDbXrecord
280
1
290
1
  0
XRECORD
  5
CD
330
C7
100
AcDbXrecord
280
1
290
1
  0
XRECORD
  5
CE
330
C7
100
AcDbXrecord
280
1
290
1
  0
XRECORD
  5
CF
330
C7
100
AcDbXrecord
280
1
290
1
  0
XRECORD
  5
D0
330
C7
100
AcDbXrecord
280
1
1000
auto
  0
XRECORD
  5
D1
330
C7
100
AcDbXrecord
280
1
1000
auto
  0
XRECORD
  5
D2
330
C7
100
AcDbXrecord
280
1
1000
auto
  0
XRECORD
  5
D3
330
C7
100
AcDbXrecord
280
1
1000
auto
  0
XRECORD
  5
D4
330
C7
100
AcDbXrecord
280
1
1000
auto
  0
XRECORD
  5
D5
330
C7
100
AcDbXrecord
280
1
1000
auto
  0
XRECORD
  5
D6
330
C7
100
AcDbXrecord
280
1
1000
auto
  0
XRECORD
  5
D7
330
C7
100
AcDbXrecord
280
1
1000
auto
  0
XRECORD
  5
D8
330
C7
100
AcDbXrecord
280
1
290
0
  0
XRECORD
  5
D9
330
C7
100
AcDbXrecord
280
1
290
0
  0
XRECORD
  5
DA
330
C7
100
AcDbXrecord
280
1
290
0
  0
XRECORD
  5
DB
330
C7
100
AcDbXrecord
280
1
290
0
  0
XRECORD
  5
DC
330
C7
100
AcDbXrecord
280
1
 90
65537
  0
XRECORD
  5
DD
330
C7
100
AcDbXrecord
280
1
 90
65537
  0
XRECORD
  5
DE
330
C7
100
AcDbXrecord
280
1
 90
65537
  0
XRECORD
  5
DF
330
C7
100
AcDbXrecord
280
1
 90
65537
  0
XRECORD
  5
E0
330
C7
100
AcDbXrecord
280
1
1000
auto
  0
XRECORD
  5
E1
330
C7
100
AcDbXrecord
280
1
1000
auto
  0
XRECORD
  5
E2
330
C7
100
AcDbXrecord
280
1
1000
auto
  0
XRECORD
  5
E3
330
C7
100
AcDbXrecord
280
1
1000
auto
  0
XRECORD
  5
E4
330
C7
100
AcDbXrecord
280
1
1000
auto
  0
XRECORD
  5
E5
330
C7
100
AcDbXrecord
280
1
1000
auto
  0
XRECORD
  5
E6
330
C7
100
AcDbXrecord
280
1
1000
auto
  0
XRECORD
  5
E7
330
C7
100
AcDbXrecord
280
1
1000
auto
  0
XRECORD
  5
E8
330
C7
100
AcDbXrecord
280
1
 90
1
  0
XRECORD
  5
E9
330
C7
100
AcDbXrecord
280
1
 40
10.0
  0
XRECORD
  5
EA
330
C7
100
AcDbXrecord
280
1
 40
10.0
  0
XRECORD
  5
EB
330
C7
100
AcDbXrecord
280
1
 40
10.0
  0
XRECORD
  5
EC
330
C7
100
AcDbXrecord
280
1
 40
10.0
  0
XRECORD
  5
ED
330
C7
100
AcDbXrecord
280
1
290
0
  0
XRECORD
  5
EE
330
C7
100
AcDbXrecord
280
1
 90
1
  0
XRECORD
  5
EF
330
C7
100
AcDbXrecord
280
1
 40
0.0
  0
XRECORD
  5
F0
330
C7
100
AcDbXrecord
280
1
 40
0.0
  0
XRECORD
  5
F1
330
C7
100
AcDbXrecord
280
1
1000
Portrait
  0
XRECORD
  5
F2
330
C7
100
AcDbXrecord
280
1
 40
297.0
  0
XRECORD
  5
F3
330
C7
100
AcDbXrecord
280
1
 40
210.0
  0
XRECORD
  5
F4
330
C7
100
AcDbXrecord
280
1
1000
1:1
  0
XRECORD
  5
F5
330
C7
100
AcDbXrecord
280
1
290
1
  0
XRECORD
  5
F6
330
C7
100
AcDbXrecord
280
1
290
0
  0
XRECORD
  5
F7
330
C7
100
AcDbXrecord
280
1
1000
Inside
  0
XRECORD
  5
F8
330
C7
100
AcDbXrecord
280
1
1000
Arial,10,-1,5,50,0,0,0,0,0
  0
XRECORD
  5
F9
330
C7
100
AcDbXrecord
280
1
1000
TopLeft
  0
XRECORD
  5
FA
330
C7
100
AcDbXrecord
280
1
1000
3.28.2.2
  0
XRECORD
  5
FB
330
C7
100
AcDbXrecord
280
1
 90
4
  0
XRECORD
  5
FD
330
C7
100
AcDbXrecord
280
1
 40
57.7059602649006607
  0
XRECORD
  5
FE
330
C7
100
AcDbXrecord
280
1
 40
70.9086092715231899
  0
ENDSEC
  0
EOF
