%TF.GenerationSoftware,KiCad,Pcbnew,8.0.2*%
%TF.CreationDate,2024-12-10T14:01:00+01:00*%
%TF.ProjectId,energie,656e6572-6769-4652-9e6b-696361645f70,rev?*%
%TF.SameCoordinates,Original*%
%TF.FileFunction,Soldermask,Top*%
%TF.FilePolarity,Negative*%
%FSLAX46Y46*%
G04 Gerber Fmt 4.6, Leading zero omitted, Abs format (unit mm)*
G04 Created by KiCad (PCBNEW 8.0.2) date 2024-12-10 14:01:00*
%MOMM*%
%LPD*%
G01*
G04 APERTURE LIST*
G04 Aperture macros list*
%AMRoundRect*
0 Rectangle with rounded corners*
0 $1 Rounding radius*
0 $2 $3 $4 $5 $6 $7 $8 $9 X,Y pos of 4 corners*
0 Add a 4 corners polygon primitive as box body*
4,1,4,$2,$3,$4,$5,$6,$7,$8,$9,$2,$3,0*
0 Add four circle primitives for the rounded corners*
1,1,$1+$1,$2,$3*
1,1,$1+$1,$4,$5*
1,1,$1+$1,$6,$7*
1,1,$1+$1,$8,$9*
0 Add four rect primitives between the rounded corners*
20,1,$1+$1,$2,$3,$4,$5,0*
20,1,$1+$1,$4,$5,$6,$7,0*
20,1,$1+$1,$6,$7,$8,$9,0*
20,1,$1+$1,$8,$9,$2,$3,0*%
G04 Aperture macros list end*
%ADD10RoundRect,0.237500X0.237500X-0.287500X0.237500X0.287500X-0.237500X0.287500X-0.237500X-0.287500X0*%
%ADD11RoundRect,0.347223X0.902777X1.652777X-0.902777X1.652777X-0.902777X-1.652777X0.902777X-1.652777X0*%
%ADD12O,2.500000X4.000000*%
%ADD13R,1.000000X2.510000*%
%ADD14RoundRect,0.250000X0.650000X1.550000X-0.650000X1.550000X-0.650000X-1.550000X0.650000X-1.550000X0*%
%ADD15O,1.800000X3.600000*%
%ADD16RoundRect,0.250000X-0.450000X0.350000X-0.450000X-0.350000X0.450000X-0.350000X0.450000X0.350000X0*%
%ADD17RoundRect,0.237500X0.300000X0.237500X-0.300000X0.237500X-0.300000X-0.237500X0.300000X-0.237500X0*%
%ADD18RoundRect,0.237500X-0.287500X-0.237500X0.287500X-0.237500X0.287500X0.237500X-0.287500X0.237500X0*%
%ADD19RoundRect,0.250000X0.350000X0.450000X-0.350000X0.450000X-0.350000X-0.450000X0.350000X-0.450000X0*%
%ADD20RoundRect,0.250000X-0.337500X-0.475000X0.337500X-0.475000X0.337500X0.475000X-0.337500X0.475000X0*%
%ADD21RoundRect,0.237500X-0.300000X-0.237500X0.300000X-0.237500X0.300000X0.237500X-0.300000X0.237500X0*%
%ADD22RoundRect,0.250000X0.450000X-0.350000X0.450000X0.350000X-0.450000X0.350000X-0.450000X-0.350000X0*%
%ADD23RoundRect,0.347223X-0.902777X-1.652777X0.902777X-1.652777X0.902777X1.652777X-0.902777X1.652777X0*%
%ADD24O,2.500000X1.700000*%
%ADD25RoundRect,0.150000X0.150000X-0.587500X0.150000X0.587500X-0.150000X0.587500X-0.150000X-0.587500X0*%
%ADD26R,2.510000X1.000000*%
%ADD27RoundRect,0.150000X0.587500X0.150000X-0.587500X0.150000X-0.587500X-0.150000X0.587500X-0.150000X0*%
%ADD28RoundRect,0.237500X0.237500X-0.300000X0.237500X0.300000X-0.237500X0.300000X-0.237500X-0.300000X0*%
%ADD29RoundRect,0.150000X-0.150000X0.750000X-0.150000X-0.750000X0.150000X-0.750000X0.150000X0.750000X0*%
%ADD30RoundRect,0.150000X0.150000X-0.825000X0.150000X0.825000X-0.150000X0.825000X-0.150000X-0.825000X0*%
%ADD31R,2.300000X2.000000*%
%ADD32C,2.300000*%
%ADD33RoundRect,0.250000X-0.350000X-0.450000X0.350000X-0.450000X0.350000X0.450000X-0.350000X0.450000X0*%
G04 APERTURE END LIST*
D10*
%TO.C,D27*%
X108204000Y-83267000D03*
X108204000Y-81517000D03*
%TD*%
D11*
%TO.C,J4*%
X153812000Y-130429000D03*
D12*
X150312000Y-130429000D03*
X146812000Y-130429000D03*
X143312000Y-130429000D03*
%TD*%
D13*
%TO.C,J6*%
X156591000Y-98929000D03*
X154051000Y-102239000D03*
%TD*%
D10*
%TO.C,D28*%
X89408000Y-83267000D03*
X89408000Y-81517000D03*
%TD*%
D14*
%TO.C,J9*%
X88773000Y-130429000D03*
D15*
X85273000Y-130429000D03*
%TD*%
D10*
%TO.C,D14*%
X127458000Y-83267000D03*
X127458000Y-81517000D03*
%TD*%
D16*
%TO.C,R7*%
X164084000Y-80550000D03*
X164084000Y-82550000D03*
%TD*%
D17*
%TO.C,C8*%
X160120500Y-119634000D03*
X158395500Y-119634000D03*
%TD*%
D18*
%TO.C,D7*%
X144272000Y-104394000D03*
X146022000Y-104394000D03*
%TD*%
D19*
%TO.C,R11*%
X150860000Y-104394000D03*
X148860000Y-104394000D03*
%TD*%
%TO.C,R17*%
X136331200Y-118872000D03*
X134331200Y-118872000D03*
%TD*%
D20*
%TO.C,C11*%
X146028500Y-117983000D03*
X148103500Y-117983000D03*
%TD*%
D21*
%TO.C,C7*%
X156871500Y-117856000D03*
X158596500Y-117856000D03*
%TD*%
%TO.C,C9*%
X153315500Y-119634000D03*
X155040500Y-119634000D03*
%TD*%
D10*
%TO.C,D26*%
X105614000Y-83267000D03*
X105614000Y-81517000D03*
%TD*%
D22*
%TO.C,R9*%
X168402000Y-80502000D03*
X168402000Y-78502000D03*
%TD*%
D23*
%TO.C,J1*%
X133950000Y-57000000D03*
D12*
X137450000Y-57000000D03*
X140950000Y-57000000D03*
X144450000Y-57000000D03*
X147950000Y-57000000D03*
X151450000Y-57000000D03*
X154950000Y-57000000D03*
X158450000Y-57000000D03*
X161950000Y-57000000D03*
X165450000Y-57000000D03*
X168950000Y-57000000D03*
X172450000Y-57000000D03*
%TD*%
D24*
%TO.C,J2*%
X173990000Y-92964000D03*
X173990000Y-90424000D03*
X173990000Y-87884000D03*
X173990000Y-85344000D03*
X173990000Y-82804000D03*
%TD*%
D10*
%TO.C,D15*%
X130048000Y-83267000D03*
X130048000Y-81517000D03*
%TD*%
D25*
%TO.C,U3*%
X170942000Y-74773000D03*
X172842000Y-74773000D03*
X171892000Y-72898000D03*
%TD*%
D26*
%TO.C,J7*%
X139577000Y-88011000D03*
X136267000Y-85471000D03*
%TD*%
D10*
%TO.C,D24*%
X120346000Y-83267000D03*
X120346000Y-81517000D03*
%TD*%
%TO.C,D16*%
X112980000Y-83267000D03*
X112980000Y-81517000D03*
%TD*%
D27*
%TO.C,Q1*%
X146260000Y-101296000D03*
X146260000Y-99396000D03*
X144385000Y-100346000D03*
%TD*%
D23*
%TO.C,J5*%
X81964500Y-57000000D03*
D12*
X85464500Y-57000000D03*
X88964500Y-57000000D03*
X92464500Y-57000000D03*
X95964500Y-57000000D03*
X99464500Y-57000000D03*
X102964500Y-57000000D03*
X106464500Y-57000000D03*
X109964500Y-57000000D03*
X113464500Y-57000000D03*
X116964500Y-57000000D03*
X120464500Y-57000000D03*
%TD*%
D11*
%TO.C,J3*%
X166060000Y-130429000D03*
D12*
X162560000Y-130429000D03*
%TD*%
D10*
%TO.C,D25*%
X122936000Y-83267000D03*
X122936000Y-81517000D03*
%TD*%
D28*
%TO.C,C1*%
X166878000Y-84783000D03*
X166878000Y-83058000D03*
%TD*%
D29*
%TO.C,U2*%
X160387000Y-82094000D03*
X159117000Y-82094000D03*
X157847000Y-82094000D03*
X156577000Y-82094000D03*
X155307000Y-82094000D03*
X154037000Y-82094000D03*
X152767000Y-82094000D03*
X151497000Y-82094000D03*
X150227000Y-82094000D03*
X148957000Y-82094000D03*
X147687000Y-82094000D03*
X146417000Y-82094000D03*
X145147000Y-82094000D03*
X143877000Y-82094000D03*
X143877000Y-91694000D03*
X145147000Y-91694000D03*
X146417000Y-91694000D03*
X147687000Y-91694000D03*
X148957000Y-91694000D03*
X150227000Y-91694000D03*
X151497000Y-91694000D03*
X152767000Y-91694000D03*
X154037000Y-91694000D03*
X155307000Y-91694000D03*
X156577000Y-91694000D03*
X157847000Y-91694000D03*
X159117000Y-91694000D03*
X160387000Y-91694000D03*
%TD*%
D24*
%TO.C,J8*%
X173990000Y-106929000D03*
X173990000Y-109469000D03*
%TD*%
D30*
%TO.C,U4*%
X153670000Y-114808000D03*
X154940000Y-114808000D03*
X156210000Y-114808000D03*
X157480000Y-114808000D03*
X158750000Y-114808000D03*
X160020000Y-114808000D03*
X161290000Y-114808000D03*
X162560000Y-114808000D03*
X162560000Y-109858000D03*
X161290000Y-109858000D03*
X160020000Y-109858000D03*
X158750000Y-109858000D03*
X157480000Y-109858000D03*
X156210000Y-109858000D03*
X154940000Y-109858000D03*
X153670000Y-109858000D03*
%TD*%
D10*
%TO.C,D18*%
X97028000Y-83267000D03*
X97028000Y-81517000D03*
%TD*%
D28*
%TO.C,C5*%
X151130000Y-114908500D03*
X151130000Y-113183500D03*
%TD*%
D31*
%TO.C,PS1*%
X82901000Y-98943500D03*
D32*
X82901000Y-114143500D03*
X110901000Y-98943500D03*
X110901000Y-106543500D03*
%TD*%
D16*
%TO.C,R8*%
X166878000Y-90440000D03*
X166878000Y-92440000D03*
%TD*%
D33*
%TO.C,R10*%
X148860000Y-101092000D03*
X150860000Y-101092000D03*
%TD*%
D21*
%TO.C,C4*%
X171095500Y-77216000D03*
X172820500Y-77216000D03*
%TD*%
D19*
%TO.C,R20*%
X137398000Y-122377200D03*
X135398000Y-122377200D03*
%TD*%
D17*
%TO.C,C2*%
X150428000Y-94996000D03*
X148703000Y-94996000D03*
%TD*%
D21*
%TO.C,C6*%
X153569500Y-106934000D03*
X155294500Y-106934000D03*
%TD*%
D10*
%TO.C,D17*%
X115570000Y-83267000D03*
X115570000Y-81517000D03*
%TD*%
M02*
