<?xml version="1.0" encoding="UTF-8" standalone="no"?>
<svg
   version="1.1"
   width="297.0022mm"
   height="210.0072mm"
   viewBox="0.0000 0.0000 297.0022 210.0072"
   id="svg109"
   sodipodi:docname="energie-F_Paste.svg"
   inkscape:version="1.3.2 (091e20ef0f, 2023-11-25)"
   xmlns:inkscape="http://www.inkscape.org/namespaces/inkscape"
   xmlns:sodipodi="http://sodipodi.sourceforge.net/DTD/sodipodi-0.dtd"
   xmlns="http://www.w3.org/2000/svg"
   xmlns:svg="http://www.w3.org/2000/svg">
  <defs
     id="defs109" />
  <sodipodi:namedview
     id="namedview109"
     pagecolor="#ffffff"
     bordercolor="#666666"
     borderopacity="1.0"
     inkscape:showpageshadow="2"
     inkscape:pageopacity="0.0"
     inkscape:pagecheckerboard="0"
     inkscape:deskcolor="#d1d1d1"
     inkscape:document-units="mm"
     inkscape:zoom="0.69486018"
     inkscape:cx="561.26399"
     inkscape:cy="396.48264"
     inkscape:window-width="1441"
     inkscape:window-height="939"
     inkscape:window-x="259"
     inkscape:window-y="118"
     inkscape:window-maximized="0"
     inkscape:current-layer="svg109" />
  <title
     id="title1">SVG Image created as energie-F_Paste.svg date 2024/12/13 11:40:09 </title>
  <desc
     id="desc1">Image generated by PCBNEW </desc>
  <path
     style="fill:#000000;fill-opacity:1;fill-rule:evenodd;stroke:none;stroke-linecap:round;stroke-linejoin:round;stroke-opacity:1"
     d="m 107.9665,83.792 -0.0909,-0.0181 -0.077,-0.0515 -0.0515,-0.077 -0.0181,-0.0909 v -0.575 l 0.0181,-0.0909 0.0515,-0.077 0.077,-0.0515 0.0909,-0.0181 h 0.475 l 0.0909,0.0181 0.077,0.0515 0.0515,0.077 0.0181,0.0909 v 0.575 l -0.0181,0.0909 -0.0515,0.077 -0.077,0.0515 -0.0909,0.0181 z"
     id="path1" />
  <path
     style="fill:#000000;fill-opacity:1;fill-rule:evenodd;stroke:none;stroke-linecap:round;stroke-linejoin:round;stroke-opacity:1"
     d="m 107.9665,82.042 -0.0909,-0.0181 -0.077,-0.0515 -0.0515,-0.077 -0.0181,-0.0909 v -0.575 l 0.0181,-0.0909 0.0515,-0.077 0.077,-0.0515 0.0909,-0.0181 h 0.475 l 0.0909,0.0181 0.077,0.0515 0.0515,0.077 0.0181,0.0909 v 0.575 l -0.0181,0.0909 -0.0515,0.077 -0.077,0.0515 -0.0909,0.0181 z"
     id="path2" />
  <path
     style="fill:#000000;fill-opacity:1;fill-rule:evenodd;stroke:none;stroke-linecap:round;stroke-linejoin:round;stroke-opacity:1"
     d="m 156.091,97.674 h 1 v 2.51 h -1 z"
     id="path3" />
  <path
     style="fill:#000000;fill-opacity:1;fill-rule:evenodd;stroke:none;stroke-linecap:round;stroke-linejoin:round;stroke-opacity:1"
     d="m 153.551,100.984 h 1 v 2.51 h -1 z"
     id="path4" />
  <path
     style="fill:#000000;fill-opacity:1;fill-rule:evenodd;stroke:none;stroke-linecap:round;stroke-linejoin:round;stroke-opacity:1"
     d="m 89.1705,83.792 -0.0909,-0.0181 -0.077,-0.0515 -0.0515,-0.077 -0.0181,-0.0909 v -0.575 l 0.0181,-0.0909 0.0515,-0.077 0.077,-0.0515 0.0909,-0.0181 h 0.475 l 0.0909,0.0181 0.077,0.0515 0.0515,0.077 0.0181,0.0909 v 0.575 l -0.0181,0.0909 -0.0515,0.077 -0.077,0.0515 -0.0909,0.0181 z"
     id="path5" />
  <path
     style="fill:#000000;fill-opacity:1;fill-rule:evenodd;stroke:none;stroke-linecap:round;stroke-linejoin:round;stroke-opacity:1"
     d="m 89.1705,82.042 -0.0909,-0.0181 -0.077,-0.0515 -0.0515,-0.077 -0.0181,-0.0909 v -0.575 l 0.0181,-0.0909 0.0515,-0.077 0.077,-0.0515 0.0909,-0.0181 h 0.475 l 0.0909,0.0181 0.077,0.0515 0.0515,0.077 0.0181,0.0909 v 0.575 l -0.0181,0.0909 -0.0515,0.077 -0.077,0.0515 -0.0909,0.0181 z"
     id="path6" />
  <path
     style="fill:#000000;fill-opacity:1;fill-rule:evenodd;stroke:none;stroke-linecap:round;stroke-linejoin:round;stroke-opacity:1"
     d="m 127.2205,83.792 -0.0909,-0.0181 -0.077,-0.0515 -0.0515,-0.077 -0.0181,-0.0909 v -0.575 l 0.0181,-0.0909 0.0515,-0.077 0.077,-0.0515 0.0909,-0.0181 h 0.475 l 0.0909,0.0181 0.077,0.0515 0.0515,0.077 0.0181,0.0909 v 0.575 l -0.0181,0.0909 -0.0515,0.077 -0.077,0.0515 -0.0909,0.0181 z"
     id="path7" />
  <path
     style="fill:#000000;fill-opacity:1;fill-rule:evenodd;stroke:none;stroke-linecap:round;stroke-linejoin:round;stroke-opacity:1"
     d="m 127.2205,82.042 -0.0909,-0.0181 -0.077,-0.0515 -0.0515,-0.077 -0.0181,-0.0909 v -0.575 l 0.0181,-0.0909 0.0515,-0.077 0.077,-0.0515 0.0909,-0.0181 h 0.475 l 0.0909,0.0181 0.077,0.0515 0.0515,0.077 0.0181,0.0909 v 0.575 l -0.0181,0.0909 -0.0515,0.077 -0.077,0.0515 -0.0909,0.0181 z"
     id="path8" />
  <path
     style="fill:#000000;fill-opacity:1;fill-rule:evenodd;stroke:none;stroke-linecap:round;stroke-linejoin:round;stroke-opacity:1"
     d="m 164.534,79.95 0.0957,0.019 0.0811,0.0542 0.0542,0.0811 0.019,0.0957 v 0.7 l -0.019,0.0957 -0.0542,0.0811 -0.0811,0.0542 -0.0957,0.019 h -0.9 l -0.0957,-0.019 -0.0811,-0.0542 -0.0542,-0.0811 -0.019,-0.0957 v -0.7 l 0.019,-0.0957 0.0542,-0.0811 0.0811,-0.0542 0.0957,-0.019 z"
     id="path9" />
  <path
     style="fill:#000000;fill-opacity:1;fill-rule:evenodd;stroke:none;stroke-linecap:round;stroke-linejoin:round;stroke-opacity:1"
     d="m 164.534,81.95 0.0957,0.019 0.0811,0.0542 0.0542,0.0811 0.019,0.0957 v 0.7 l -0.019,0.0957 -0.0542,0.0811 -0.0811,0.0542 -0.0957,0.019 h -0.9 l -0.0957,-0.019 -0.0811,-0.0542 -0.0542,-0.0811 -0.019,-0.0957 v -0.7 l 0.019,-0.0957 0.0542,-0.0811 0.0811,-0.0542 0.0957,-0.019 z"
     id="path10" />
  <path
     style="fill:#000000;fill-opacity:1;fill-rule:evenodd;stroke:none;stroke-linecap:round;stroke-linejoin:round;stroke-opacity:1"
     d="m 160.658,119.8715 -0.0181,0.0909 -0.0515,0.077 -0.077,0.0515 -0.0909,0.0181 h -0.6 l -0.0909,-0.0181 -0.077,-0.0515 -0.0515,-0.077 -0.0181,-0.0909 v -0.475 l 0.0181,-0.0909 0.0515,-0.077 0.077,-0.0515 0.0909,-0.0181 h 0.6 l 0.0909,0.0181 0.077,0.0515 0.0515,0.077 0.0181,0.0909 z"
     id="path11" />
  <path
     style="fill:#000000;fill-opacity:1;fill-rule:evenodd;stroke:none;stroke-linecap:round;stroke-linejoin:round;stroke-opacity:1"
     d="m 158.933,119.8715 -0.0181,0.0909 -0.0515,0.077 -0.077,0.0515 -0.0909,0.0181 h -0.6 l -0.0909,-0.0181 -0.077,-0.0515 -0.0515,-0.077 -0.0181,-0.0909 v -0.475 l 0.0181,-0.0909 0.0515,-0.077 0.077,-0.0515 0.0909,-0.0181 h 0.6 l 0.0909,0.0181 0.077,0.0515 0.0515,0.077 0.0181,0.0909 z"
     id="path12" />
  <path
     style="fill:#000000;fill-opacity:1;fill-rule:evenodd;stroke:none;stroke-linecap:round;stroke-linejoin:round;stroke-opacity:1"
     d="m 143.747,104.1565 0.0181,-0.0909 0.0515,-0.077 0.077,-0.0515 0.0909,-0.0181 h 0.575 l 0.0909,0.0181 0.077,0.0515 0.0515,0.077 0.0181,0.0909 v 0.475 l -0.0181,0.0909 -0.0515,0.077 -0.077,0.0515 -0.0909,0.0181 h -0.575 l -0.0909,-0.0181 -0.077,-0.0515 -0.0515,-0.077 -0.0181,-0.0909 z"
     id="path13" />
  <path
     style="fill:#000000;fill-opacity:1;fill-rule:evenodd;stroke:none;stroke-linecap:round;stroke-linejoin:round;stroke-opacity:1"
     d="m 145.497,104.1565 0.0181,-0.0909 0.0515,-0.077 0.077,-0.0515 0.0909,-0.0181 h 0.575 l 0.0909,0.0181 0.077,0.0515 0.0515,0.077 0.0181,0.0909 v 0.475 l -0.0181,0.0909 -0.0515,0.077 -0.077,0.0515 -0.0909,0.0181 h -0.575 l -0.0909,-0.0181 -0.077,-0.0515 -0.0515,-0.077 -0.0181,-0.0909 z"
     id="path14" />
  <path
     style="fill:#000000;fill-opacity:1;fill-rule:evenodd;stroke:none;stroke-linecap:round;stroke-linejoin:round;stroke-opacity:1"
     d="m 151.46,104.844 -0.019,0.0957 -0.0542,0.0811 -0.0811,0.0542 -0.0957,0.019 h -0.7 l -0.0957,-0.019 -0.0811,-0.0542 -0.0542,-0.0811 -0.019,-0.0957 v -0.9 l 0.019,-0.0957 0.0542,-0.0811 0.0811,-0.0542 0.0957,-0.019 h 0.7 l 0.0957,0.019 0.0811,0.0542 0.0542,0.0811 0.019,0.0957 z"
     id="path15" />
  <path
     style="fill:#000000;fill-opacity:1;fill-rule:evenodd;stroke:none;stroke-linecap:round;stroke-linejoin:round;stroke-opacity:1"
     d="m 149.46,104.844 -0.019,0.0957 -0.0542,0.0811 -0.0811,0.0542 -0.0957,0.019 h -0.7 l -0.0957,-0.019 -0.0811,-0.0542 -0.0542,-0.0811 -0.019,-0.0957 v -0.9 l 0.019,-0.0957 0.0542,-0.0811 0.0811,-0.0542 0.0957,-0.019 h 0.7 l 0.0957,0.019 0.0811,0.0542 0.0542,0.0811 0.019,0.0957 z"
     id="path16" />
  <path
     style="fill:#000000;fill-opacity:1;fill-rule:evenodd;stroke:none;stroke-linecap:round;stroke-linejoin:round;stroke-opacity:1"
     d="m 136.9312,119.322 -0.019,0.0957 -0.0542,0.0811 -0.0811,0.0542 -0.0957,0.019 h -0.7 l -0.0957,-0.019 -0.0811,-0.0542 -0.0542,-0.0811 -0.019,-0.0957 v -0.9 l 0.019,-0.0957 0.0542,-0.0811 0.0811,-0.0542 0.0957,-0.019 h 0.7 l 0.0957,0.019 0.0811,0.0542 0.0542,0.0811 0.019,0.0957 z"
     id="path17" />
  <path
     style="fill:#000000;fill-opacity:1;fill-rule:evenodd;stroke:none;stroke-linecap:round;stroke-linejoin:round;stroke-opacity:1"
     d="m 134.9312,119.322 -0.019,0.0957 -0.0542,0.0811 -0.0811,0.0542 -0.0957,0.019 h -0.7 l -0.0957,-0.019 -0.0811,-0.0542 -0.0542,-0.0811 -0.019,-0.0957 v -0.9 l 0.019,-0.0957 0.0542,-0.0811 0.0811,-0.0542 0.0957,-0.019 h 0.7 l 0.0957,0.019 0.0811,0.0542 0.0542,0.0811 0.019,0.0957 z"
     id="path18" />
  <path
     style="fill:#000000;fill-opacity:1;fill-rule:evenodd;stroke:none;stroke-linecap:round;stroke-linejoin:round;stroke-opacity:1"
     d="m 145.441,117.508 0.019,-0.0957 0.0542,-0.0811 0.0811,-0.0542 0.0957,-0.019 h 0.675 l 0.0957,0.019 0.0811,0.0542 0.0542,0.0811 0.019,0.0957 v 0.95 l -0.019,0.0957 -0.0542,0.0811 -0.0811,0.0542 -0.0957,0.019 h -0.675 l -0.0957,-0.019 -0.0811,-0.0542 -0.0542,-0.0811 -0.019,-0.0957 z"
     id="path19" />
  <path
     style="fill:#000000;fill-opacity:1;fill-rule:evenodd;stroke:none;stroke-linecap:round;stroke-linejoin:round;stroke-opacity:1"
     d="m 147.516,117.508 0.019,-0.0957 0.0542,-0.0811 0.0811,-0.0542 0.0957,-0.019 h 0.675 l 0.0957,0.019 0.0811,0.0542 0.0542,0.0811 0.019,0.0957 v 0.95 l -0.019,0.0957 -0.0542,0.0811 -0.0811,0.0542 -0.0957,0.019 h -0.675 l -0.0957,-0.019 -0.0811,-0.0542 -0.0542,-0.0811 -0.019,-0.0957 z"
     id="path20" />
  <path
     style="fill:#000000;fill-opacity:1;fill-rule:evenodd;stroke:none;stroke-linecap:round;stroke-linejoin:round;stroke-opacity:1"
     d="m 156.334,117.6185 0.0181,-0.0909 0.0515,-0.077 0.077,-0.0515 0.0909,-0.0181 h 0.6 l 0.0909,0.0181 0.077,0.0515 0.0515,0.077 0.0181,0.0909 v 0.475 l -0.0181,0.0909 -0.0515,0.077 -0.077,0.0515 -0.0909,0.0181 h -0.6 l -0.0909,-0.0181 -0.077,-0.0515 -0.0515,-0.077 -0.0181,-0.0909 z"
     id="path21" />
  <path
     style="fill:#000000;fill-opacity:1;fill-rule:evenodd;stroke:none;stroke-linecap:round;stroke-linejoin:round;stroke-opacity:1"
     d="m 158.059,117.6185 0.0181,-0.0909 0.0515,-0.077 0.077,-0.0515 0.0909,-0.0181 h 0.6 l 0.0909,0.0181 0.077,0.0515 0.0515,0.077 0.0181,0.0909 v 0.475 l -0.0181,0.0909 -0.0515,0.077 -0.077,0.0515 -0.0909,0.0181 h -0.6 l -0.0909,-0.0181 -0.077,-0.0515 -0.0515,-0.077 -0.0181,-0.0909 z"
     id="path22" />
  <path
     style="fill:#000000;fill-opacity:1;fill-rule:evenodd;stroke:none;stroke-linecap:round;stroke-linejoin:round;stroke-opacity:1"
     d="m 152.778,119.3965 0.0181,-0.0909 0.0515,-0.077 0.077,-0.0515 0.0909,-0.0181 h 0.6 l 0.0909,0.0181 0.077,0.0515 0.0515,0.077 0.0181,0.0909 v 0.475 l -0.0181,0.0909 -0.0515,0.077 -0.077,0.0515 -0.0909,0.0181 h -0.6 l -0.0909,-0.0181 -0.077,-0.0515 -0.0515,-0.077 -0.0181,-0.0909 z"
     id="path23" />
  <path
     style="fill:#000000;fill-opacity:1;fill-rule:evenodd;stroke:none;stroke-linecap:round;stroke-linejoin:round;stroke-opacity:1"
     d="m 154.503,119.3965 0.0181,-0.0909 0.0515,-0.077 0.077,-0.0515 0.0909,-0.0181 h 0.6 l 0.0909,0.0181 0.077,0.0515 0.0515,0.077 0.0181,0.0909 v 0.475 l -0.0181,0.0909 -0.0515,0.077 -0.077,0.0515 -0.0909,0.0181 h -0.6 l -0.0909,-0.0181 -0.077,-0.0515 -0.0515,-0.077 -0.0181,-0.0909 z"
     id="path24" />
  <path
     style="fill:#000000;fill-opacity:1;fill-rule:evenodd;stroke:none;stroke-linecap:round;stroke-linejoin:round;stroke-opacity:1"
     d="m 105.3765,83.792 -0.0909,-0.0181 -0.077,-0.0515 -0.0515,-0.077 -0.0181,-0.0909 v -0.575 l 0.0181,-0.0909 0.0515,-0.077 0.077,-0.0515 0.0909,-0.0181 h 0.475 l 0.0909,0.0181 0.077,0.0515 0.0515,0.077 0.0181,0.0909 v 0.575 l -0.0181,0.0909 -0.0515,0.077 -0.077,0.0515 -0.0909,0.0181 z"
     id="path25" />
  <path
     style="fill:#000000;fill-opacity:1;fill-rule:evenodd;stroke:none;stroke-linecap:round;stroke-linejoin:round;stroke-opacity:1"
     d="m 105.3765,82.042 -0.0909,-0.0181 -0.077,-0.0515 -0.0515,-0.077 -0.0181,-0.0909 v -0.575 l 0.0181,-0.0909 0.0515,-0.077 0.077,-0.0515 0.0909,-0.0181 h 0.475 l 0.0909,0.0181 0.077,0.0515 0.0515,0.077 0.0181,0.0909 v 0.575 l -0.0181,0.0909 -0.0515,0.077 -0.077,0.0515 -0.0909,0.0181 z"
     id="path26" />
  <path
     style="fill:#000000;fill-opacity:1;fill-rule:evenodd;stroke:none;stroke-linecap:round;stroke-linejoin:round;stroke-opacity:1"
     d="m 167.952,81.102 -0.0957,-0.019 -0.0811,-0.0542 -0.0542,-0.0811 -0.019,-0.0957 v -0.7 l 0.019,-0.0957 0.0542,-0.0811 0.0811,-0.0542 0.0957,-0.019 h 0.9 l 0.0957,0.019 0.0811,0.0542 0.0542,0.0811 0.019,0.0957 v 0.7 l -0.019,0.0957 -0.0542,0.0811 -0.0811,0.0542 -0.0957,0.019 z"
     id="path27" />
  <path
     style="fill:#000000;fill-opacity:1;fill-rule:evenodd;stroke:none;stroke-linecap:round;stroke-linejoin:round;stroke-opacity:1"
     d="m 167.952,79.102 -0.0957,-0.019 -0.0811,-0.0542 -0.0542,-0.0811 -0.019,-0.0957 v -0.7 l 0.019,-0.0957 0.0542,-0.0811 0.0811,-0.0542 0.0957,-0.019 h 0.9 l 0.0957,0.019 0.0811,0.0542 0.0542,0.0811 0.019,0.0957 v 0.7 l -0.019,0.0957 -0.0542,0.0811 -0.0811,0.0542 -0.0957,0.019 z"
     id="path28" />
  <path
     style="fill:#000000;fill-opacity:1;fill-rule:evenodd;stroke:none;stroke-linecap:round;stroke-linejoin:round;stroke-opacity:1"
     d="m 129.8105,83.792 -0.0909,-0.0181 -0.077,-0.0515 -0.0515,-0.077 -0.0181,-0.0909 v -0.575 l 0.0181,-0.0909 0.0515,-0.077 0.077,-0.0515 0.0909,-0.0181 h 0.475 l 0.0909,0.0181 0.077,0.0515 0.0515,0.077 0.0181,0.0909 v 0.575 l -0.0181,0.0909 -0.0515,0.077 -0.077,0.0515 -0.0909,0.0181 z"
     id="path29" />
  <path
     style="fill:#000000;fill-opacity:1;fill-rule:evenodd;stroke:none;stroke-linecap:round;stroke-linejoin:round;stroke-opacity:1"
     d="m 129.8105,82.042 -0.0909,-0.0181 -0.077,-0.0515 -0.0515,-0.077 -0.0181,-0.0909 v -0.575 l 0.0181,-0.0909 0.0515,-0.077 0.077,-0.0515 0.0909,-0.0181 h 0.475 l 0.0909,0.0181 0.077,0.0515 0.0515,0.077 0.0181,0.0909 v 0.575 l -0.0181,0.0909 -0.0515,0.077 -0.077,0.0515 -0.0909,0.0181 z"
     id="path30" />
  <path
     style="fill:#000000;fill-opacity:1;fill-rule:evenodd;stroke:none;stroke-linecap:round;stroke-linejoin:round;stroke-opacity:1"
     d="m 170.792,75.5105 -0.0574,-0.0114 -0.0487,-0.0325 -0.0325,-0.0487 -0.0114,-0.0574 v -1.175 l 0.0114,-0.0574 0.0325,-0.0487 0.0487,-0.0325 0.0574,-0.0114 h 0.3 l 0.0574,0.0114 0.0487,0.0325 0.0325,0.0487 0.0114,0.0574 v 1.175 l -0.0114,0.0574 -0.0325,0.0487 -0.0487,0.0325 -0.0574,0.0114 z"
     id="path31" />
  <path
     style="fill:#000000;fill-opacity:1;fill-rule:evenodd;stroke:none;stroke-linecap:round;stroke-linejoin:round;stroke-opacity:1"
     d="m 172.692,75.5105 -0.0574,-0.0114 -0.0487,-0.0325 -0.0325,-0.0487 -0.0114,-0.0574 v -1.175 l 0.0114,-0.0574 0.0325,-0.0487 0.0487,-0.0325 0.0574,-0.0114 h 0.3 l 0.0574,0.0114 0.0487,0.0325 0.0325,0.0487 0.0114,0.0574 v 1.175 l -0.0114,0.0574 -0.0325,0.0487 -0.0487,0.0325 -0.0574,0.0114 z"
     id="path32" />
  <path
     style="fill:#000000;fill-opacity:1;fill-rule:evenodd;stroke:none;stroke-linecap:round;stroke-linejoin:round;stroke-opacity:1"
     d="m 171.742,73.6355 -0.0574,-0.0114 -0.0487,-0.0325 -0.0325,-0.0487 -0.0114,-0.0574 v -1.175 l 0.0114,-0.0574 0.0325,-0.0487 0.0487,-0.0325 0.0574,-0.0114 h 0.3 l 0.0574,0.0114 0.0487,0.0325 0.0325,0.0487 0.0114,0.0574 v 1.175 l -0.0114,0.0574 -0.0325,0.0487 -0.0487,0.0325 -0.0574,0.0114 z"
     id="path33" />
  <path
     style="fill:#000000;fill-opacity:1;fill-rule:evenodd;stroke:none;stroke-linecap:round;stroke-linejoin:round;stroke-opacity:1"
     d="m 140.832,87.511 v 1 h -2.51 v -1 z"
     id="path34" />
  <path
     style="fill:#000000;fill-opacity:1;fill-rule:evenodd;stroke:none;stroke-linecap:round;stroke-linejoin:round;stroke-opacity:1"
     d="m 137.522,84.971 v 1 h -2.51 v -1 z"
     id="path35" />
  <path
     style="fill:#000000;fill-opacity:1;fill-rule:evenodd;stroke:none;stroke-linecap:round;stroke-linejoin:round;stroke-opacity:1"
     d="m 120.1085,83.792 -0.0909,-0.0181 -0.077,-0.0515 -0.0515,-0.077 -0.0181,-0.0909 v -0.575 l 0.0181,-0.0909 0.0515,-0.077 0.077,-0.0515 0.0909,-0.0181 h 0.475 l 0.0909,0.0181 0.077,0.0515 0.0515,0.077 0.0181,0.0909 v 0.575 l -0.0181,0.0909 -0.0515,0.077 -0.077,0.0515 -0.0909,0.0181 z"
     id="path36" />
  <path
     style="fill:#000000;fill-opacity:1;fill-rule:evenodd;stroke:none;stroke-linecap:round;stroke-linejoin:round;stroke-opacity:1"
     d="m 120.1085,82.042 -0.0909,-0.0181 -0.077,-0.0515 -0.0515,-0.077 -0.0181,-0.0909 v -0.575 l 0.0181,-0.0909 0.0515,-0.077 0.077,-0.0515 0.0909,-0.0181 h 0.475 l 0.0909,0.0181 0.077,0.0515 0.0515,0.077 0.0181,0.0909 v 0.575 l -0.0181,0.0909 -0.0515,0.077 -0.077,0.0515 -0.0909,0.0181 z"
     id="path37" />
  <path
     style="fill:#000000;fill-opacity:1;fill-rule:evenodd;stroke:none;stroke-linecap:round;stroke-linejoin:round;stroke-opacity:1"
     d="m 112.7425,83.792 -0.0909,-0.0181 -0.077,-0.0515 -0.0515,-0.077 -0.0181,-0.0909 v -0.575 l 0.0181,-0.0909 0.0515,-0.077 0.077,-0.0515 0.0909,-0.0181 h 0.475 l 0.0909,0.0181 0.077,0.0515 0.0515,0.077 0.0181,0.0909 v 0.575 l -0.0181,0.0909 -0.0515,0.077 -0.077,0.0515 -0.0909,0.0181 z"
     id="path38" />
  <path
     style="fill:#000000;fill-opacity:1;fill-rule:evenodd;stroke:none;stroke-linecap:round;stroke-linejoin:round;stroke-opacity:1"
     d="m 112.7425,82.042 -0.0909,-0.0181 -0.077,-0.0515 -0.0515,-0.077 -0.0181,-0.0909 v -0.575 l 0.0181,-0.0909 0.0515,-0.077 0.077,-0.0515 0.0909,-0.0181 h 0.475 l 0.0909,0.0181 0.077,0.0515 0.0515,0.077 0.0181,0.0909 v 0.575 l -0.0181,0.0909 -0.0515,0.077 -0.077,0.0515 -0.0909,0.0181 z"
     id="path39" />
  <path
     style="fill:#000000;fill-opacity:1;fill-rule:evenodd;stroke:none;stroke-linecap:round;stroke-linejoin:round;stroke-opacity:1"
     d="m 146.9975,101.446 -0.0114,0.0574 -0.0325,0.0487 -0.0487,0.0325 -0.0574,0.0114 h -1.175 l -0.0574,-0.0114 -0.0487,-0.0325 -0.0325,-0.0487 -0.0114,-0.0574 v -0.3 l 0.0114,-0.0574 0.0325,-0.0487 0.0487,-0.0325 0.0574,-0.0114 h 1.175 l 0.0574,0.0114 0.0487,0.0325 0.0325,0.0487 0.0114,0.0574 z"
     id="path40" />
  <path
     style="fill:#000000;fill-opacity:1;fill-rule:evenodd;stroke:none;stroke-linecap:round;stroke-linejoin:round;stroke-opacity:1"
     d="m 146.9975,99.546 -0.0114,0.0574 -0.0325,0.0487 -0.0487,0.0325 -0.0574,0.0114 h -1.175 l -0.0574,-0.0114 -0.0487,-0.0325 -0.0325,-0.0487 -0.0114,-0.0574 v -0.3 l 0.0114,-0.0574 0.0325,-0.0487 0.0487,-0.0325 0.0574,-0.0114 h 1.175 l 0.0574,0.0114 0.0487,0.0325 0.0325,0.0487 0.0114,0.0574 z"
     id="path41" />
  <path
     style="fill:#000000;fill-opacity:1;fill-rule:evenodd;stroke:none;stroke-linecap:round;stroke-linejoin:round;stroke-opacity:1"
     d="m 145.1225,100.496 -0.0114,0.0574 -0.0325,0.0487 -0.0487,0.0325 -0.0574,0.0114 h -1.175 l -0.0574,-0.0114 -0.0487,-0.0325 -0.0325,-0.0487 -0.0114,-0.0574 v -0.3 l 0.0114,-0.0574 0.0325,-0.0487 0.0487,-0.0325 0.0574,-0.0114 h 1.175 l 0.0574,0.0114 0.0487,0.0325 0.0325,0.0487 0.0114,0.0574 z"
     id="path42" />
  <path
     style="fill:#000000;fill-opacity:1;fill-rule:evenodd;stroke:none;stroke-linecap:round;stroke-linejoin:round;stroke-opacity:1"
     d="m 122.6985,83.792 -0.0909,-0.0181 -0.077,-0.0515 -0.0515,-0.077 -0.0181,-0.0909 v -0.575 l 0.0181,-0.0909 0.0515,-0.077 0.077,-0.0515 0.0909,-0.0181 h 0.475 l 0.0909,0.0181 0.077,0.0515 0.0515,0.077 0.0181,0.0909 v 0.575 l -0.0181,0.0909 -0.0515,0.077 -0.077,0.0515 -0.0909,0.0181 z"
     id="path43" />
  <path
     style="fill:#000000;fill-opacity:1;fill-rule:evenodd;stroke:none;stroke-linecap:round;stroke-linejoin:round;stroke-opacity:1"
     d="m 122.6985,82.042 -0.0909,-0.0181 -0.077,-0.0515 -0.0515,-0.077 -0.0181,-0.0909 v -0.575 l 0.0181,-0.0909 0.0515,-0.077 0.077,-0.0515 0.0909,-0.0181 h 0.475 l 0.0909,0.0181 0.077,0.0515 0.0515,0.077 0.0181,0.0909 v 0.575 l -0.0181,0.0909 -0.0515,0.077 -0.077,0.0515 -0.0909,0.0181 z"
     id="path44" />
  <path
     style="fill:#000000;fill-opacity:1;fill-rule:evenodd;stroke:none;stroke-linecap:round;stroke-linejoin:round;stroke-opacity:1"
     d="m 166.6405,85.3205 -0.0909,-0.0181 -0.077,-0.0515 -0.0515,-0.077 -0.0181,-0.0909 v -0.6 l 0.0181,-0.0909 0.0515,-0.077 0.077,-0.0515 0.0909,-0.0181 h 0.475 l 0.0909,0.0181 0.077,0.0515 0.0515,0.077 0.0181,0.0909 v 0.6 l -0.0181,0.0909 -0.0515,0.077 -0.077,0.0515 -0.0909,0.0181 z"
     id="path45" />
  <path
     style="fill:#000000;fill-opacity:1;fill-rule:evenodd;stroke:none;stroke-linecap:round;stroke-linejoin:round;stroke-opacity:1"
     d="m 166.6405,83.5955 -0.0909,-0.0181 -0.077,-0.0515 -0.0515,-0.077 -0.0181,-0.0909 v -0.6 l 0.0181,-0.0909 0.0515,-0.077 0.077,-0.0515 0.0909,-0.0181 h 0.475 l 0.0909,0.0181 0.077,0.0515 0.0515,0.077 0.0181,0.0909 v 0.6 l -0.0181,0.0909 -0.0515,0.077 -0.077,0.0515 -0.0909,0.0181 z"
     id="path46" />
  <path
     style="fill:#000000;fill-opacity:1;fill-rule:evenodd;stroke:none;stroke-linecap:round;stroke-linejoin:round;stroke-opacity:1"
     d="m 160.537,81.194 0.0574,0.0114 0.0487,0.0325 0.0325,0.0487 0.0114,0.0574 v 1.5 l -0.0114,0.0574 -0.0325,0.0487 -0.0487,0.0325 -0.0574,0.0114 h -0.3 l -0.0574,-0.0114 -0.0487,-0.0325 -0.0325,-0.0487 -0.0114,-0.0574 v -1.5 l 0.0114,-0.0574 0.0325,-0.0487 0.0487,-0.0325 0.0574,-0.0114 z"
     id="path47" />
  <path
     style="fill:#000000;fill-opacity:1;fill-rule:evenodd;stroke:none;stroke-linecap:round;stroke-linejoin:round;stroke-opacity:1"
     d="m 159.267,81.194 0.0574,0.0114 0.0487,0.0325 0.0325,0.0487 0.0114,0.0574 v 1.5 l -0.0114,0.0574 -0.0325,0.0487 -0.0487,0.0325 -0.0574,0.0114 h -0.3 l -0.0574,-0.0114 -0.0487,-0.0325 -0.0325,-0.0487 -0.0114,-0.0574 v -1.5 l 0.0114,-0.0574 0.0325,-0.0487 0.0487,-0.0325 0.0574,-0.0114 z"
     id="path48" />
  <path
     style="fill:#000000;fill-opacity:1;fill-rule:evenodd;stroke:none;stroke-linecap:round;stroke-linejoin:round;stroke-opacity:1"
     d="m 157.997,81.194 0.0574,0.0114 0.0487,0.0325 0.0325,0.0487 0.0114,0.0574 v 1.5 l -0.0114,0.0574 -0.0325,0.0487 -0.0487,0.0325 -0.0574,0.0114 h -0.3 l -0.0574,-0.0114 -0.0487,-0.0325 -0.0325,-0.0487 -0.0114,-0.0574 v -1.5 l 0.0114,-0.0574 0.0325,-0.0487 0.0487,-0.0325 0.0574,-0.0114 z"
     id="path49" />
  <path
     style="fill:#000000;fill-opacity:1;fill-rule:evenodd;stroke:none;stroke-linecap:round;stroke-linejoin:round;stroke-opacity:1"
     d="m 156.727,81.194 0.0574,0.0114 0.0487,0.0325 0.0325,0.0487 0.0114,0.0574 v 1.5 l -0.0114,0.0574 -0.0325,0.0487 -0.0487,0.0325 -0.0574,0.0114 h -0.3 l -0.0574,-0.0114 -0.0487,-0.0325 -0.0325,-0.0487 -0.0114,-0.0574 v -1.5 l 0.0114,-0.0574 0.0325,-0.0487 0.0487,-0.0325 0.0574,-0.0114 z"
     id="path50" />
  <path
     style="fill:#000000;fill-opacity:1;fill-rule:evenodd;stroke:none;stroke-linecap:round;stroke-linejoin:round;stroke-opacity:1"
     d="m 155.457,81.194 0.0574,0.0114 0.0487,0.0325 0.0325,0.0487 0.0114,0.0574 v 1.5 l -0.0114,0.0574 -0.0325,0.0487 -0.0487,0.0325 -0.0574,0.0114 h -0.3 l -0.0574,-0.0114 -0.0487,-0.0325 -0.0325,-0.0487 -0.0114,-0.0574 v -1.5 l 0.0114,-0.0574 0.0325,-0.0487 0.0487,-0.0325 0.0574,-0.0114 z"
     id="path51" />
  <path
     style="fill:#000000;fill-opacity:1;fill-rule:evenodd;stroke:none;stroke-linecap:round;stroke-linejoin:round;stroke-opacity:1"
     d="m 154.187,81.194 0.0574,0.0114 0.0487,0.0325 0.0325,0.0487 0.0114,0.0574 v 1.5 l -0.0114,0.0574 -0.0325,0.0487 -0.0487,0.0325 -0.0574,0.0114 h -0.3 l -0.0574,-0.0114 -0.0487,-0.0325 -0.0325,-0.0487 -0.0114,-0.0574 v -1.5 l 0.0114,-0.0574 0.0325,-0.0487 0.0487,-0.0325 0.0574,-0.0114 z"
     id="path52" />
  <path
     style="fill:#000000;fill-opacity:1;fill-rule:evenodd;stroke:none;stroke-linecap:round;stroke-linejoin:round;stroke-opacity:1"
     d="m 152.917,81.194 0.0574,0.0114 0.0487,0.0325 0.0325,0.0487 0.0114,0.0574 v 1.5 l -0.0114,0.0574 -0.0325,0.0487 -0.0487,0.0325 -0.0574,0.0114 h -0.3 l -0.0574,-0.0114 -0.0487,-0.0325 -0.0325,-0.0487 -0.0114,-0.0574 v -1.5 l 0.0114,-0.0574 0.0325,-0.0487 0.0487,-0.0325 0.0574,-0.0114 z"
     id="path53" />
  <path
     style="fill:#000000;fill-opacity:1;fill-rule:evenodd;stroke:none;stroke-linecap:round;stroke-linejoin:round;stroke-opacity:1"
     d="m 151.647,81.194 0.0574,0.0114 0.0487,0.0325 0.0325,0.0487 0.0114,0.0574 v 1.5 l -0.0114,0.0574 -0.0325,0.0487 -0.0487,0.0325 -0.0574,0.0114 h -0.3 l -0.0574,-0.0114 -0.0487,-0.0325 -0.0325,-0.0487 -0.0114,-0.0574 v -1.5 l 0.0114,-0.0574 0.0325,-0.0487 0.0487,-0.0325 0.0574,-0.0114 z"
     id="path54" />
  <path
     style="fill:#000000;fill-opacity:1;fill-rule:evenodd;stroke:none;stroke-linecap:round;stroke-linejoin:round;stroke-opacity:1"
     d="m 150.377,81.194 0.0574,0.0114 0.0487,0.0325 0.0325,0.0487 0.0114,0.0574 v 1.5 l -0.0114,0.0574 -0.0325,0.0487 -0.0487,0.0325 -0.0574,0.0114 h -0.3 l -0.0574,-0.0114 -0.0487,-0.0325 -0.0325,-0.0487 -0.0114,-0.0574 v -1.5 l 0.0114,-0.0574 0.0325,-0.0487 0.0487,-0.0325 0.0574,-0.0114 z"
     id="path55" />
  <path
     style="fill:#000000;fill-opacity:1;fill-rule:evenodd;stroke:none;stroke-linecap:round;stroke-linejoin:round;stroke-opacity:1"
     d="m 149.107,81.194 0.0574,0.0114 0.0487,0.0325 0.0325,0.0487 0.0114,0.0574 v 1.5 l -0.0114,0.0574 -0.0325,0.0487 -0.0487,0.0325 -0.0574,0.0114 h -0.3 l -0.0574,-0.0114 -0.0487,-0.0325 -0.0325,-0.0487 -0.0114,-0.0574 v -1.5 l 0.0114,-0.0574 0.0325,-0.0487 0.0487,-0.0325 0.0574,-0.0114 z"
     id="path56" />
  <path
     style="fill:#000000;fill-opacity:1;fill-rule:evenodd;stroke:none;stroke-linecap:round;stroke-linejoin:round;stroke-opacity:1"
     d="m 147.837,81.194 0.0574,0.0114 0.0487,0.0325 0.0325,0.0487 0.0114,0.0574 v 1.5 l -0.0114,0.0574 -0.0325,0.0487 -0.0487,0.0325 -0.0574,0.0114 h -0.3 l -0.0574,-0.0114 -0.0487,-0.0325 -0.0325,-0.0487 -0.0114,-0.0574 v -1.5 l 0.0114,-0.0574 0.0325,-0.0487 0.0487,-0.0325 0.0574,-0.0114 z"
     id="path57" />
  <path
     style="fill:#000000;fill-opacity:1;fill-rule:evenodd;stroke:none;stroke-linecap:round;stroke-linejoin:round;stroke-opacity:1"
     d="m 146.567,81.194 0.0574,0.0114 0.0487,0.0325 0.0325,0.0487 0.0114,0.0574 v 1.5 l -0.0114,0.0574 -0.0325,0.0487 -0.0487,0.0325 -0.0574,0.0114 h -0.3 l -0.0574,-0.0114 -0.0487,-0.0325 -0.0325,-0.0487 -0.0114,-0.0574 v -1.5 l 0.0114,-0.0574 0.0325,-0.0487 0.0487,-0.0325 0.0574,-0.0114 z"
     id="path58" />
  <path
     style="fill:#000000;fill-opacity:1;fill-rule:evenodd;stroke:none;stroke-linecap:round;stroke-linejoin:round;stroke-opacity:1"
     d="m 145.297,81.194 0.0574,0.0114 0.0487,0.0325 0.0325,0.0487 0.0114,0.0574 v 1.5 l -0.0114,0.0574 -0.0325,0.0487 -0.0487,0.0325 -0.0574,0.0114 h -0.3 l -0.0574,-0.0114 -0.0487,-0.0325 -0.0325,-0.0487 -0.0114,-0.0574 v -1.5 l 0.0114,-0.0574 0.0325,-0.0487 0.0487,-0.0325 0.0574,-0.0114 z"
     id="path59" />
  <path
     style="fill:#000000;fill-opacity:1;fill-rule:evenodd;stroke:none;stroke-linecap:round;stroke-linejoin:round;stroke-opacity:1"
     d="m 144.027,81.194 0.0574,0.0114 0.0487,0.0325 0.0325,0.0487 0.0114,0.0574 v 1.5 l -0.0114,0.0574 -0.0325,0.0487 -0.0487,0.0325 -0.0574,0.0114 h -0.3 l -0.0574,-0.0114 -0.0487,-0.0325 -0.0325,-0.0487 -0.0114,-0.0574 v -1.5 l 0.0114,-0.0574 0.0325,-0.0487 0.0487,-0.0325 0.0574,-0.0114 z"
     id="path60" />
  <path
     style="fill:#000000;fill-opacity:1;fill-rule:evenodd;stroke:none;stroke-linecap:round;stroke-linejoin:round;stroke-opacity:1"
     d="m 144.027,90.794 0.0574,0.0114 0.0487,0.0325 0.0325,0.0487 0.0114,0.0574 v 1.5 l -0.0114,0.0574 -0.0325,0.0487 -0.0487,0.0325 -0.0574,0.0114 h -0.3 l -0.0574,-0.0114 -0.0487,-0.0325 -0.0325,-0.0487 -0.0114,-0.0574 v -1.5 l 0.0114,-0.0574 0.0325,-0.0487 0.0487,-0.0325 0.0574,-0.0114 z"
     id="path61" />
  <path
     style="fill:#000000;fill-opacity:1;fill-rule:evenodd;stroke:none;stroke-linecap:round;stroke-linejoin:round;stroke-opacity:1"
     d="m 145.297,90.794 0.0574,0.0114 0.0487,0.0325 0.0325,0.0487 0.0114,0.0574 v 1.5 l -0.0114,0.0574 -0.0325,0.0487 -0.0487,0.0325 -0.0574,0.0114 h -0.3 l -0.0574,-0.0114 -0.0487,-0.0325 -0.0325,-0.0487 -0.0114,-0.0574 v -1.5 l 0.0114,-0.0574 0.0325,-0.0487 0.0487,-0.0325 0.0574,-0.0114 z"
     id="path62" />
  <path
     style="fill:#000000;fill-opacity:1;fill-rule:evenodd;stroke:none;stroke-linecap:round;stroke-linejoin:round;stroke-opacity:1"
     d="m 146.567,90.794 0.0574,0.0114 0.0487,0.0325 0.0325,0.0487 0.0114,0.0574 v 1.5 l -0.0114,0.0574 -0.0325,0.0487 -0.0487,0.0325 -0.0574,0.0114 h -0.3 l -0.0574,-0.0114 -0.0487,-0.0325 -0.0325,-0.0487 -0.0114,-0.0574 v -1.5 l 0.0114,-0.0574 0.0325,-0.0487 0.0487,-0.0325 0.0574,-0.0114 z"
     id="path63" />
  <path
     style="fill:#000000;fill-opacity:1;fill-rule:evenodd;stroke:none;stroke-linecap:round;stroke-linejoin:round;stroke-opacity:1"
     d="m 147.837,90.794 0.0574,0.0114 0.0487,0.0325 0.0325,0.0487 0.0114,0.0574 v 1.5 l -0.0114,0.0574 -0.0325,0.0487 -0.0487,0.0325 -0.0574,0.0114 h -0.3 l -0.0574,-0.0114 -0.0487,-0.0325 -0.0325,-0.0487 -0.0114,-0.0574 v -1.5 l 0.0114,-0.0574 0.0325,-0.0487 0.0487,-0.0325 0.0574,-0.0114 z"
     id="path64" />
  <path
     style="fill:#000000;fill-opacity:1;fill-rule:evenodd;stroke:none;stroke-linecap:round;stroke-linejoin:round;stroke-opacity:1"
     d="m 149.107,90.794 0.0574,0.0114 0.0487,0.0325 0.0325,0.0487 0.0114,0.0574 v 1.5 l -0.0114,0.0574 -0.0325,0.0487 -0.0487,0.0325 -0.0574,0.0114 h -0.3 l -0.0574,-0.0114 -0.0487,-0.0325 -0.0325,-0.0487 -0.0114,-0.0574 v -1.5 l 0.0114,-0.0574 0.0325,-0.0487 0.0487,-0.0325 0.0574,-0.0114 z"
     id="path65" />
  <path
     style="fill:#000000;fill-opacity:1;fill-rule:evenodd;stroke:none;stroke-linecap:round;stroke-linejoin:round;stroke-opacity:1"
     d="m 150.377,90.794 0.0574,0.0114 0.0487,0.0325 0.0325,0.0487 0.0114,0.0574 v 1.5 l -0.0114,0.0574 -0.0325,0.0487 -0.0487,0.0325 -0.0574,0.0114 h -0.3 l -0.0574,-0.0114 -0.0487,-0.0325 -0.0325,-0.0487 -0.0114,-0.0574 v -1.5 l 0.0114,-0.0574 0.0325,-0.0487 0.0487,-0.0325 0.0574,-0.0114 z"
     id="path66" />
  <path
     style="fill:#000000;fill-opacity:1;fill-rule:evenodd;stroke:none;stroke-linecap:round;stroke-linejoin:round;stroke-opacity:1"
     d="m 151.647,90.794 0.0574,0.0114 0.0487,0.0325 0.0325,0.0487 0.0114,0.0574 v 1.5 l -0.0114,0.0574 -0.0325,0.0487 -0.0487,0.0325 -0.0574,0.0114 h -0.3 l -0.0574,-0.0114 -0.0487,-0.0325 -0.0325,-0.0487 -0.0114,-0.0574 v -1.5 l 0.0114,-0.0574 0.0325,-0.0487 0.0487,-0.0325 0.0574,-0.0114 z"
     id="path67" />
  <path
     style="fill:#000000;fill-opacity:1;fill-rule:evenodd;stroke:none;stroke-linecap:round;stroke-linejoin:round;stroke-opacity:1"
     d="m 152.917,90.794 0.0574,0.0114 0.0487,0.0325 0.0325,0.0487 0.0114,0.0574 v 1.5 l -0.0114,0.0574 -0.0325,0.0487 -0.0487,0.0325 -0.0574,0.0114 h -0.3 l -0.0574,-0.0114 -0.0487,-0.0325 -0.0325,-0.0487 -0.0114,-0.0574 v -1.5 l 0.0114,-0.0574 0.0325,-0.0487 0.0487,-0.0325 0.0574,-0.0114 z"
     id="path68" />
  <path
     style="fill:#000000;fill-opacity:1;fill-rule:evenodd;stroke:none;stroke-linecap:round;stroke-linejoin:round;stroke-opacity:1"
     d="m 154.187,90.794 0.0574,0.0114 0.0487,0.0325 0.0325,0.0487 0.0114,0.0574 v 1.5 l -0.0114,0.0574 -0.0325,0.0487 -0.0487,0.0325 -0.0574,0.0114 h -0.3 l -0.0574,-0.0114 -0.0487,-0.0325 -0.0325,-0.0487 -0.0114,-0.0574 v -1.5 l 0.0114,-0.0574 0.0325,-0.0487 0.0487,-0.0325 0.0574,-0.0114 z"
     id="path69" />
  <path
     style="fill:#000000;fill-opacity:1;fill-rule:evenodd;stroke:none;stroke-linecap:round;stroke-linejoin:round;stroke-opacity:1"
     d="m 155.457,90.794 0.0574,0.0114 0.0487,0.0325 0.0325,0.0487 0.0114,0.0574 v 1.5 l -0.0114,0.0574 -0.0325,0.0487 -0.0487,0.0325 -0.0574,0.0114 h -0.3 l -0.0574,-0.0114 -0.0487,-0.0325 -0.0325,-0.0487 -0.0114,-0.0574 v -1.5 l 0.0114,-0.0574 0.0325,-0.0487 0.0487,-0.0325 0.0574,-0.0114 z"
     id="path70" />
  <path
     style="fill:#000000;fill-opacity:1;fill-rule:evenodd;stroke:none;stroke-linecap:round;stroke-linejoin:round;stroke-opacity:1"
     d="m 156.727,90.794 0.0574,0.0114 0.0487,0.0325 0.0325,0.0487 0.0114,0.0574 v 1.5 l -0.0114,0.0574 -0.0325,0.0487 -0.0487,0.0325 -0.0574,0.0114 h -0.3 l -0.0574,-0.0114 -0.0487,-0.0325 -0.0325,-0.0487 -0.0114,-0.0574 v -1.5 l 0.0114,-0.0574 0.0325,-0.0487 0.0487,-0.0325 0.0574,-0.0114 z"
     id="path71" />
  <path
     style="fill:#000000;fill-opacity:1;fill-rule:evenodd;stroke:none;stroke-linecap:round;stroke-linejoin:round;stroke-opacity:1"
     d="m 157.997,90.794 0.0574,0.0114 0.0487,0.0325 0.0325,0.0487 0.0114,0.0574 v 1.5 l -0.0114,0.0574 -0.0325,0.0487 -0.0487,0.0325 -0.0574,0.0114 h -0.3 l -0.0574,-0.0114 -0.0487,-0.0325 -0.0325,-0.0487 -0.0114,-0.0574 v -1.5 l 0.0114,-0.0574 0.0325,-0.0487 0.0487,-0.0325 0.0574,-0.0114 z"
     id="path72" />
  <path
     style="fill:#000000;fill-opacity:1;fill-rule:evenodd;stroke:none;stroke-linecap:round;stroke-linejoin:round;stroke-opacity:1"
     d="m 159.267,90.794 0.0574,0.0114 0.0487,0.0325 0.0325,0.0487 0.0114,0.0574 v 1.5 l -0.0114,0.0574 -0.0325,0.0487 -0.0487,0.0325 -0.0574,0.0114 h -0.3 l -0.0574,-0.0114 -0.0487,-0.0325 -0.0325,-0.0487 -0.0114,-0.0574 v -1.5 l 0.0114,-0.0574 0.0325,-0.0487 0.0487,-0.0325 0.0574,-0.0114 z"
     id="path73" />
  <path
     style="fill:#000000;fill-opacity:1;fill-rule:evenodd;stroke:none;stroke-linecap:round;stroke-linejoin:round;stroke-opacity:1"
     d="m 160.537,90.794 0.0574,0.0114 0.0487,0.0325 0.0325,0.0487 0.0114,0.0574 v 1.5 l -0.0114,0.0574 -0.0325,0.0487 -0.0487,0.0325 -0.0574,0.0114 h -0.3 l -0.0574,-0.0114 -0.0487,-0.0325 -0.0325,-0.0487 -0.0114,-0.0574 v -1.5 l 0.0114,-0.0574 0.0325,-0.0487 0.0487,-0.0325 0.0574,-0.0114 z"
     id="path74" />
  <path
     style="fill:#000000;fill-opacity:1;fill-rule:evenodd;stroke:none;stroke-linecap:round;stroke-linejoin:round;stroke-opacity:1"
     d="m 153.52,115.783 -0.0574,-0.0114 -0.0487,-0.0325 -0.0325,-0.0487 -0.0114,-0.0574 v -1.65 l 0.0114,-0.0574 0.0325,-0.0487 0.0487,-0.0325 0.0574,-0.0114 h 0.3 l 0.0574,0.0114 0.0487,0.0325 0.0325,0.0487 0.0114,0.0574 v 1.65 l -0.0114,0.0574 -0.0325,0.0487 -0.0487,0.0325 -0.0574,0.0114 z"
     id="path75" />
  <path
     style="fill:#000000;fill-opacity:1;fill-rule:evenodd;stroke:none;stroke-linecap:round;stroke-linejoin:round;stroke-opacity:1"
     d="m 154.79,115.783 -0.0574,-0.0114 -0.0487,-0.0325 -0.0325,-0.0487 -0.0114,-0.0574 v -1.65 l 0.0114,-0.0574 0.0325,-0.0487 0.0487,-0.0325 0.0574,-0.0114 h 0.3 l 0.0574,0.0114 0.0487,0.0325 0.0325,0.0487 0.0114,0.0574 v 1.65 l -0.0114,0.0574 -0.0325,0.0487 -0.0487,0.0325 -0.0574,0.0114 z"
     id="path76" />
  <path
     style="fill:#000000;fill-opacity:1;fill-rule:evenodd;stroke:none;stroke-linecap:round;stroke-linejoin:round;stroke-opacity:1"
     d="m 156.06,115.783 -0.0574,-0.0114 -0.0487,-0.0325 -0.0325,-0.0487 -0.0114,-0.0574 v -1.65 l 0.0114,-0.0574 0.0325,-0.0487 0.0487,-0.0325 0.0574,-0.0114 h 0.3 l 0.0574,0.0114 0.0487,0.0325 0.0325,0.0487 0.0114,0.0574 v 1.65 l -0.0114,0.0574 -0.0325,0.0487 -0.0487,0.0325 -0.0574,0.0114 z"
     id="path77" />
  <path
     style="fill:#000000;fill-opacity:1;fill-rule:evenodd;stroke:none;stroke-linecap:round;stroke-linejoin:round;stroke-opacity:1"
     d="m 157.33,115.783 -0.0574,-0.0114 -0.0487,-0.0325 -0.0325,-0.0487 -0.0114,-0.0574 v -1.65 l 0.0114,-0.0574 0.0325,-0.0487 0.0487,-0.0325 0.0574,-0.0114 h 0.3 l 0.0574,0.0114 0.0487,0.0325 0.0325,0.0487 0.0114,0.0574 v 1.65 l -0.0114,0.0574 -0.0325,0.0487 -0.0487,0.0325 -0.0574,0.0114 z"
     id="path78" />
  <path
     style="fill:#000000;fill-opacity:1;fill-rule:evenodd;stroke:none;stroke-linecap:round;stroke-linejoin:round;stroke-opacity:1"
     d="m 158.6,115.783 -0.0574,-0.0114 -0.0487,-0.0325 -0.0325,-0.0487 -0.0114,-0.0574 v -1.65 l 0.0114,-0.0574 0.0325,-0.0487 0.0487,-0.0325 0.0574,-0.0114 h 0.3 l 0.0574,0.0114 0.0487,0.0325 0.0325,0.0487 0.0114,0.0574 v 1.65 l -0.0114,0.0574 -0.0325,0.0487 -0.0487,0.0325 -0.0574,0.0114 z"
     id="path79" />
  <path
     style="fill:#000000;fill-opacity:1;fill-rule:evenodd;stroke:none;stroke-linecap:round;stroke-linejoin:round;stroke-opacity:1"
     d="m 159.87,115.783 -0.0574,-0.0114 -0.0487,-0.0325 -0.0325,-0.0487 -0.0114,-0.0574 v -1.65 l 0.0114,-0.0574 0.0325,-0.0487 0.0487,-0.0325 0.0574,-0.0114 h 0.3 l 0.0574,0.0114 0.0487,0.0325 0.0325,0.0487 0.0114,0.0574 v 1.65 l -0.0114,0.0574 -0.0325,0.0487 -0.0487,0.0325 -0.0574,0.0114 z"
     id="path80" />
  <path
     style="fill:#000000;fill-opacity:1;fill-rule:evenodd;stroke:none;stroke-linecap:round;stroke-linejoin:round;stroke-opacity:1"
     d="m 161.14,115.783 -0.0574,-0.0114 -0.0487,-0.0325 -0.0325,-0.0487 -0.0114,-0.0574 v -1.65 l 0.0114,-0.0574 0.0325,-0.0487 0.0487,-0.0325 0.0574,-0.0114 h 0.3 l 0.0574,0.0114 0.0487,0.0325 0.0325,0.0487 0.0114,0.0574 v 1.65 l -0.0114,0.0574 -0.0325,0.0487 -0.0487,0.0325 -0.0574,0.0114 z"
     id="path81" />
  <path
     style="fill:#000000;fill-opacity:1;fill-rule:evenodd;stroke:none;stroke-linecap:round;stroke-linejoin:round;stroke-opacity:1"
     d="m 162.41,115.783 -0.0574,-0.0114 -0.0487,-0.0325 -0.0325,-0.0487 -0.0114,-0.0574 v -1.65 l 0.0114,-0.0574 0.0325,-0.0487 0.0487,-0.0325 0.0574,-0.0114 h 0.3 l 0.0574,0.0114 0.0487,0.0325 0.0325,0.0487 0.0114,0.0574 v 1.65 l -0.0114,0.0574 -0.0325,0.0487 -0.0487,0.0325 -0.0574,0.0114 z"
     id="path82" />
  <path
     style="fill:#000000;fill-opacity:1;fill-rule:evenodd;stroke:none;stroke-linecap:round;stroke-linejoin:round;stroke-opacity:1"
     d="m 162.41,110.833 -0.0574,-0.0114 -0.0487,-0.0325 -0.0325,-0.0487 -0.0114,-0.0574 v -1.65 l 0.0114,-0.0574 0.0325,-0.0487 0.0487,-0.0325 0.0574,-0.0114 h 0.3 l 0.0574,0.0114 0.0487,0.0325 0.0325,0.0487 0.0114,0.0574 v 1.65 l -0.0114,0.0574 -0.0325,0.0487 -0.0487,0.0325 -0.0574,0.0114 z"
     id="path83" />
  <path
     style="fill:#000000;fill-opacity:1;fill-rule:evenodd;stroke:none;stroke-linecap:round;stroke-linejoin:round;stroke-opacity:1"
     d="m 161.14,110.833 -0.0574,-0.0114 -0.0487,-0.0325 -0.0325,-0.0487 -0.0114,-0.0574 v -1.65 l 0.0114,-0.0574 0.0325,-0.0487 0.0487,-0.0325 0.0574,-0.0114 h 0.3 l 0.0574,0.0114 0.0487,0.0325 0.0325,0.0487 0.0114,0.0574 v 1.65 l -0.0114,0.0574 -0.0325,0.0487 -0.0487,0.0325 -0.0574,0.0114 z"
     id="path84" />
  <path
     style="fill:#000000;fill-opacity:1;fill-rule:evenodd;stroke:none;stroke-linecap:round;stroke-linejoin:round;stroke-opacity:1"
     d="m 159.87,110.833 -0.0574,-0.0114 -0.0487,-0.0325 -0.0325,-0.0487 -0.0114,-0.0574 v -1.65 l 0.0114,-0.0574 0.0325,-0.0487 0.0487,-0.0325 0.0574,-0.0114 h 0.3 l 0.0574,0.0114 0.0487,0.0325 0.0325,0.0487 0.0114,0.0574 v 1.65 l -0.0114,0.0574 -0.0325,0.0487 -0.0487,0.0325 -0.0574,0.0114 z"
     id="path85" />
  <path
     style="fill:#000000;fill-opacity:1;fill-rule:evenodd;stroke:none;stroke-linecap:round;stroke-linejoin:round;stroke-opacity:1"
     d="m 158.6,110.833 -0.0574,-0.0114 -0.0487,-0.0325 -0.0325,-0.0487 -0.0114,-0.0574 v -1.65 l 0.0114,-0.0574 0.0325,-0.0487 0.0487,-0.0325 0.0574,-0.0114 h 0.3 l 0.0574,0.0114 0.0487,0.0325 0.0325,0.0487 0.0114,0.0574 v 1.65 l -0.0114,0.0574 -0.0325,0.0487 -0.0487,0.0325 -0.0574,0.0114 z"
     id="path86" />
  <path
     style="fill:#000000;fill-opacity:1;fill-rule:evenodd;stroke:none;stroke-linecap:round;stroke-linejoin:round;stroke-opacity:1"
     d="m 157.33,110.833 -0.0574,-0.0114 -0.0487,-0.0325 -0.0325,-0.0487 -0.0114,-0.0574 v -1.65 l 0.0114,-0.0574 0.0325,-0.0487 0.0487,-0.0325 0.0574,-0.0114 h 0.3 l 0.0574,0.0114 0.0487,0.0325 0.0325,0.0487 0.0114,0.0574 v 1.65 l -0.0114,0.0574 -0.0325,0.0487 -0.0487,0.0325 -0.0574,0.0114 z"
     id="path87" />
  <path
     style="fill:#000000;fill-opacity:1;fill-rule:evenodd;stroke:none;stroke-linecap:round;stroke-linejoin:round;stroke-opacity:1"
     d="m 156.06,110.833 -0.0574,-0.0114 -0.0487,-0.0325 -0.0325,-0.0487 -0.0114,-0.0574 v -1.65 l 0.0114,-0.0574 0.0325,-0.0487 0.0487,-0.0325 0.0574,-0.0114 h 0.3 l 0.0574,0.0114 0.0487,0.0325 0.0325,0.0487 0.0114,0.0574 v 1.65 l -0.0114,0.0574 -0.0325,0.0487 -0.0487,0.0325 -0.0574,0.0114 z"
     id="path88" />
  <path
     style="fill:#000000;fill-opacity:1;fill-rule:evenodd;stroke:none;stroke-linecap:round;stroke-linejoin:round;stroke-opacity:1"
     d="m 154.79,110.833 -0.0574,-0.0114 -0.0487,-0.0325 -0.0325,-0.0487 -0.0114,-0.0574 v -1.65 l 0.0114,-0.0574 0.0325,-0.0487 0.0487,-0.0325 0.0574,-0.0114 h 0.3 l 0.0574,0.0114 0.0487,0.0325 0.0325,0.0487 0.0114,0.0574 v 1.65 l -0.0114,0.0574 -0.0325,0.0487 -0.0487,0.0325 -0.0574,0.0114 z"
     id="path89" />
  <path
     style="fill:#000000;fill-opacity:1;fill-rule:evenodd;stroke:none;stroke-linecap:round;stroke-linejoin:round;stroke-opacity:1"
     d="m 153.52,110.833 -0.0574,-0.0114 -0.0487,-0.0325 -0.0325,-0.0487 -0.0114,-0.0574 v -1.65 l 0.0114,-0.0574 0.0325,-0.0487 0.0487,-0.0325 0.0574,-0.0114 h 0.3 l 0.0574,0.0114 0.0487,0.0325 0.0325,0.0487 0.0114,0.0574 v 1.65 l -0.0114,0.0574 -0.0325,0.0487 -0.0487,0.0325 -0.0574,0.0114 z"
     id="path90" />
  <path
     style="fill:#000000;fill-opacity:1;fill-rule:evenodd;stroke:none;stroke-linecap:round;stroke-linejoin:round;stroke-opacity:1"
     d="m 96.7905,83.792 -0.0909,-0.0181 -0.077,-0.0515 -0.0515,-0.077 -0.0181,-0.0909 v -0.575 l 0.0181,-0.0909 0.0515,-0.077 0.077,-0.0515 0.0909,-0.0181 h 0.475 l 0.0909,0.0181 0.077,0.0515 0.0515,0.077 0.0181,0.0909 v 0.575 l -0.0181,0.0909 -0.0515,0.077 -0.077,0.0515 -0.0909,0.0181 z"
     id="path91" />
  <path
     style="fill:#000000;fill-opacity:1;fill-rule:evenodd;stroke:none;stroke-linecap:round;stroke-linejoin:round;stroke-opacity:1"
     d="m 96.7905,82.042 -0.0909,-0.0181 -0.077,-0.0515 -0.0515,-0.077 -0.0181,-0.0909 v -0.575 l 0.0181,-0.0909 0.0515,-0.077 0.077,-0.0515 0.0909,-0.0181 h 0.475 l 0.0909,0.0181 0.077,0.0515 0.0515,0.077 0.0181,0.0909 v 0.575 l -0.0181,0.0909 -0.0515,0.077 -0.077,0.0515 -0.0909,0.0181 z"
     id="path92" />
  <path
     style="fill:#000000;fill-opacity:1;fill-rule:evenodd;stroke:none;stroke-linecap:round;stroke-linejoin:round;stroke-opacity:1"
     d="m 150.8925,115.446 -0.0909,-0.0181 -0.077,-0.0515 -0.0515,-0.077 -0.0181,-0.0909 v -0.6 l 0.0181,-0.0909 0.0515,-0.077 0.077,-0.0515 0.0909,-0.0181 h 0.475 l 0.0909,0.0181 0.077,0.0515 0.0515,0.077 0.0181,0.0909 v 0.6 l -0.0181,0.0909 -0.0515,0.077 -0.077,0.0515 -0.0909,0.0181 z"
     id="path93" />
  <path
     style="fill:#000000;fill-opacity:1;fill-rule:evenodd;stroke:none;stroke-linecap:round;stroke-linejoin:round;stroke-opacity:1"
     d="m 150.8925,113.721 -0.0909,-0.0181 -0.077,-0.0515 -0.0515,-0.077 -0.0181,-0.0909 v -0.6 l 0.0181,-0.0909 0.0515,-0.077 0.077,-0.0515 0.0909,-0.0181 h 0.475 l 0.0909,0.0181 0.077,0.0515 0.0515,0.077 0.0181,0.0909 v 0.6 l -0.0181,0.0909 -0.0515,0.077 -0.077,0.0515 -0.0909,0.0181 z"
     id="path94" />
  <path
     style="fill:#000000;fill-opacity:1;fill-rule:evenodd;stroke:none;stroke-linecap:round;stroke-linejoin:round;stroke-opacity:1"
     d="m 167.328,89.84 0.0957,0.019 0.0811,0.0542 0.0542,0.0811 0.019,0.0957 v 0.7 l -0.019,0.0957 -0.0542,0.0811 -0.0811,0.0542 -0.0957,0.019 h -0.9 l -0.0957,-0.019 -0.0811,-0.0542 -0.0542,-0.0811 -0.019,-0.0957 v -0.7 l 0.019,-0.0957 0.0542,-0.0811 0.0811,-0.0542 0.0957,-0.019 z"
     id="path95" />
  <path
     style="fill:#000000;fill-opacity:1;fill-rule:evenodd;stroke:none;stroke-linecap:round;stroke-linejoin:round;stroke-opacity:1"
     d="m 167.328,91.84 0.0957,0.019 0.0811,0.0542 0.0542,0.0811 0.019,0.0957 v 0.7 l -0.019,0.0957 -0.0542,0.0811 -0.0811,0.0542 -0.0957,0.019 h -0.9 l -0.0957,-0.019 -0.0811,-0.0542 -0.0542,-0.0811 -0.019,-0.0957 v -0.7 l 0.019,-0.0957 0.0542,-0.0811 0.0811,-0.0542 0.0957,-0.019 z"
     id="path96" />
  <path
     style="fill:#000000;fill-opacity:1;fill-rule:evenodd;stroke:none;stroke-linecap:round;stroke-linejoin:round;stroke-opacity:1"
     d="m 148.26,100.642 0.019,-0.0957 0.0542,-0.0811 0.0811,-0.0542 0.0957,-0.019 h 0.7 l 0.0957,0.019 0.0811,0.0542 0.0542,0.0811 0.019,0.0957 v 0.9 l -0.019,0.0957 -0.0542,0.0811 -0.0811,0.0542 -0.0957,0.019 h -0.7 l -0.0957,-0.019 -0.0811,-0.0542 -0.0542,-0.0811 -0.019,-0.0957 z"
     id="path97" />
  <path
     style="fill:#000000;fill-opacity:1;fill-rule:evenodd;stroke:none;stroke-linecap:round;stroke-linejoin:round;stroke-opacity:1"
     d="m 150.26,100.642 0.019,-0.0957 0.0542,-0.0811 0.0811,-0.0542 0.0957,-0.019 h 0.7 l 0.0957,0.019 0.0811,0.0542 0.0542,0.0811 0.019,0.0957 v 0.9 l -0.019,0.0957 -0.0542,0.0811 -0.0811,0.0542 -0.0957,0.019 h -0.7 l -0.0957,-0.019 -0.0811,-0.0542 -0.0542,-0.0811 -0.019,-0.0957 z"
     id="path98" />
  <path
     style="fill:#000000;fill-opacity:1;fill-rule:evenodd;stroke:none;stroke-linecap:round;stroke-linejoin:round;stroke-opacity:1"
     d="m 170.558,76.9785 0.0181,-0.0909 0.0515,-0.077 0.077,-0.0515 0.0909,-0.0181 h 0.6 l 0.0909,0.0181 0.077,0.0515 0.0515,0.077 0.0181,0.0909 v 0.475 l -0.0181,0.0909 -0.0515,0.077 -0.077,0.0515 -0.0909,0.0181 h -0.6 l -0.0909,-0.0181 -0.077,-0.0515 -0.0515,-0.077 -0.0181,-0.0909 z"
     id="path99" />
  <path
     style="fill:#000000;fill-opacity:1;fill-rule:evenodd;stroke:none;stroke-linecap:round;stroke-linejoin:round;stroke-opacity:1"
     d="m 172.283,76.9785 0.0181,-0.0909 0.0515,-0.077 0.077,-0.0515 0.0909,-0.0181 h 0.6 l 0.0909,0.0181 0.077,0.0515 0.0515,0.077 0.0181,0.0909 v 0.475 l -0.0181,0.0909 -0.0515,0.077 -0.077,0.0515 -0.0909,0.0181 h -0.6 l -0.0909,-0.0181 -0.077,-0.0515 -0.0515,-0.077 -0.0181,-0.0909 z"
     id="path100" />
  <path
     style="fill:#000000;fill-opacity:1;fill-rule:evenodd;stroke:none;stroke-linecap:round;stroke-linejoin:round;stroke-opacity:1"
     d="m 137.998,122.8272 -0.019,0.0957 -0.0542,0.0811 -0.0811,0.0542 -0.0957,0.019 h -0.7 l -0.0957,-0.019 -0.0811,-0.0542 -0.0542,-0.0811 -0.019,-0.0957 v -0.9 l 0.019,-0.0957 0.0542,-0.0811 0.0811,-0.0542 0.0957,-0.019 h 0.7 l 0.0957,0.019 0.0811,0.0542 0.0542,0.0811 0.019,0.0957 z"
     id="path101" />
  <path
     style="fill:#000000;fill-opacity:1;fill-rule:evenodd;stroke:none;stroke-linecap:round;stroke-linejoin:round;stroke-opacity:1"
     d="m 135.998,122.8272 -0.019,0.0957 -0.0542,0.0811 -0.0811,0.0542 -0.0957,0.019 h -0.7 l -0.0957,-0.019 -0.0811,-0.0542 -0.0542,-0.0811 -0.019,-0.0957 v -0.9 l 0.019,-0.0957 0.0542,-0.0811 0.0811,-0.0542 0.0957,-0.019 h 0.7 l 0.0957,0.019 0.0811,0.0542 0.0542,0.0811 0.019,0.0957 z"
     id="path102" />
  <path
     style="fill:#000000;fill-opacity:1;fill-rule:evenodd;stroke:none;stroke-linecap:round;stroke-linejoin:round;stroke-opacity:1"
     d="m 150.9655,95.2335 -0.0181,0.0909 -0.0515,0.077 -0.077,0.0515 -0.0909,0.0181 h -0.6 l -0.0909,-0.0181 -0.077,-0.0515 -0.0515,-0.077 -0.0181,-0.0909 v -0.475 l 0.0181,-0.0909 0.0515,-0.077 0.077,-0.0515 0.0909,-0.0181 h 0.6 l 0.0909,0.0181 0.077,0.0515 0.0515,0.077 0.0181,0.0909 z"
     id="path103" />
  <path
     style="fill:#000000;fill-opacity:1;fill-rule:evenodd;stroke:none;stroke-linecap:round;stroke-linejoin:round;stroke-opacity:1"
     d="m 149.2405,95.2335 -0.0181,0.0909 -0.0515,0.077 -0.077,0.0515 -0.0909,0.0181 h -0.6 l -0.0909,-0.0181 -0.077,-0.0515 -0.0515,-0.077 -0.0181,-0.0909 v -0.475 l 0.0181,-0.0909 0.0515,-0.077 0.077,-0.0515 0.0909,-0.0181 h 0.6 l 0.0909,0.0181 0.077,0.0515 0.0515,0.077 0.0181,0.0909 z"
     id="path104" />
  <path
     style="fill:#000000;fill-opacity:1;fill-rule:evenodd;stroke:none;stroke-linecap:round;stroke-linejoin:round;stroke-opacity:1"
     d="m 153.032,106.6965 0.0181,-0.0909 0.0515,-0.077 0.077,-0.0515 0.0909,-0.0181 h 0.6 l 0.0909,0.0181 0.077,0.0515 0.0515,0.077 0.0181,0.0909 v 0.475 l -0.0181,0.0909 -0.0515,0.077 -0.077,0.0515 -0.0909,0.0181 h -0.6 l -0.0909,-0.0181 -0.077,-0.0515 -0.0515,-0.077 -0.0181,-0.0909 z"
     id="path105" />
  <path
     style="fill:#000000;fill-opacity:1;fill-rule:evenodd;stroke:none;stroke-linecap:round;stroke-linejoin:round;stroke-opacity:1"
     d="m 154.757,106.6965 0.0181,-0.0909 0.0515,-0.077 0.077,-0.0515 0.0909,-0.0181 h 0.6 l 0.0909,0.0181 0.077,0.0515 0.0515,0.077 0.0181,0.0909 v 0.475 l -0.0181,0.0909 -0.0515,0.077 -0.077,0.0515 -0.0909,0.0181 h -0.6 l -0.0909,-0.0181 -0.077,-0.0515 -0.0515,-0.077 -0.0181,-0.0909 z"
     id="path106" />
  <path
     style="fill:#000000;fill-opacity:1;fill-rule:evenodd;stroke:none;stroke-linecap:round;stroke-linejoin:round;stroke-opacity:1"
     d="m 115.3325,83.792 -0.0909,-0.0181 -0.077,-0.0515 -0.0515,-0.077 -0.0181,-0.0909 v -0.575 l 0.0181,-0.0909 0.0515,-0.077 0.077,-0.0515 0.0909,-0.0181 h 0.475 l 0.0909,0.0181 0.077,0.0515 0.0515,0.077 0.0181,0.0909 v 0.575 l -0.0181,0.0909 -0.0515,0.077 -0.077,0.0515 -0.0909,0.0181 z"
     id="path107" />
  <path
     style="fill:#000000;fill-opacity:1;fill-rule:evenodd;stroke:none;stroke-linecap:round;stroke-linejoin:round;stroke-opacity:1"
     d="m 115.3325,82.042 -0.0909,-0.0181 -0.077,-0.0515 -0.0515,-0.077 -0.0181,-0.0909 v -0.575 l 0.0181,-0.0909 0.0515,-0.077 0.077,-0.0515 0.0909,-0.0181 h 0.475 l 0.0909,0.0181 0.077,0.0515 0.0515,0.077 0.0181,0.0909 v 0.575 l -0.0181,0.0909 -0.0515,0.077 -0.077,0.0515 -0.0909,0.0181 z"
     id="path108" />
  <path
     style="fill:none;fill-opacity:1;stroke:#ff0000;stroke-width:0.26458332;stroke-linecap:round;stroke-linejoin:round;stroke-opacity:1;stroke-dasharray:none"
     d="m 75.7,50.8 h 103 v 87 h -103 z"
     id="path109" />
</svg>
