M48
; DRILL file {KiCad 8.0.2} date 2024-12-10T14:01:21+0100
; FORMAT={-:-/ absolute / inch / decimal}
; #@! TF.CreationDate,2024-12-10T14:01:21+01:00
; #@! TF.GenerationSoftware,Kicad,Pcbnew,8.0.2
; #@! TF.FileFunction,Plated,1,2,PTH
FMAT,2
INCH
; #@! TA.AperFunction,Plated,PTH,ViaDrill
T1C0.0157
; #@! TA.AperFunction,Plated,PTH,ViaDrill
T2C0.0236
; #@! TA.AperFunction,Plated,PTH,ComponentDrill
T3C0.0299
; #@! TA.AperFunction,Plated,PTH,ComponentDrill
T4C0.0315
; #@! TA.AperFunction,Plated,PTH,ComponentDrill
T5C0.0354
; #@! TA.AperFunction,Plated,PTH,ComponentDrill
T6C0.0394
; #@! TA.AperFunction,Plated,PTH,ComponentDrill
T7C0.0472
%
G90
G05
T1
X3.46Y-4.045
X3.5579Y-4.0469
X4.085Y-3.6599
X4.2191Y-3.5919
X4.2791Y-3.5919
X4.3391Y-3.5919
X4.6296Y-4.49
X4.68Y-4.53
X4.7Y-4.62
X4.8219Y-3.6024
X4.84Y-4.57
X4.8819Y-3.6024
X4.9439Y-3.6002
X5.12Y-4.59
X5.2Y-3.5991
X5.29Y-4.5039
X5.29Y-4.57
X5.865Y-2.92
X5.92Y-4.85
X5.98Y-2.92
X6.06Y-4.81
X6.065Y-2.92
X6.2Y-2.92
X6.34Y-3.74
X6.38Y-2.92
X6.49Y-2.92
X6.67Y-3.26
X6.67Y-3.46
X6.67Y-3.56
X6.79Y-3.135
T2
X4.15Y-3.725
X4.365Y-4.86
X4.3662Y-3.7138
X5.4439Y-4.5039
X5.58Y-4.71
X5.7417Y-4.5383
X6.285Y-4.125
X6.3228Y-3.1428
X6.67Y-3.36
X6.715Y-3.89
T3
X4.3662Y-3.8954
X4.3662Y-4.1946
T4
X3.2638Y-3.8954
X3.2638Y-4.4938
T5
X6.85Y-4.2098
X6.85Y-4.3098
T6
X6.85Y-3.26
X6.85Y-3.36
X6.85Y-3.46
X6.85Y-3.56
X6.85Y-3.66
T7
X3.2269Y-2.2441
X3.3572Y-5.135
X3.3647Y-2.2441
X3.495Y-5.135
X3.5025Y-2.2441
X3.6403Y-2.2441
X3.7781Y-2.2441
X3.9159Y-2.2441
X4.0537Y-2.2441
X4.1915Y-2.2441
X4.3293Y-2.2441
X4.4671Y-2.2441
X4.6049Y-2.2441
X4.7427Y-2.2441
X5.2736Y-2.2441
X5.4114Y-2.2441
X5.5492Y-2.2441
X5.6422Y-5.135
X5.687Y-2.2441
X5.78Y-5.135
X5.8248Y-2.2441
X5.9178Y-5.135
X5.9626Y-2.2441
X6.0556Y-5.135
X6.1004Y-2.2441
X6.2382Y-2.2441
X6.376Y-2.2441
X6.4Y-5.135
X6.5138Y-2.2441
X6.5378Y-5.135
X6.6516Y-2.2441
X6.7894Y-2.2441
M30
