<?xml version="1.0" encoding="UTF-8" standalone="no"?>
<svg
   version="1.1"
   width="297.0022mm"
   height="210.0072mm"
   viewBox="0.0000 0.0000 297.0022 210.0072"
   id="svg150"
   sodipodi:docname="energie-B_Paste.svg"
   inkscape:version="1.3.2 (091e20ef0f, 2023-11-25)"
   xmlns:inkscape="http://www.inkscape.org/namespaces/inkscape"
   xmlns:sodipodi="http://sodipodi.sourceforge.net/DTD/sodipodi-0.dtd"
   xmlns="http://www.w3.org/2000/svg"
   xmlns:svg="http://www.w3.org/2000/svg">
  <defs
     id="defs150" />
  <sodipodi:namedview
     id="namedview150"
     pagecolor="#ffffff"
     bordercolor="#666666"
     borderopacity="1.0"
     inkscape:showpageshadow="2"
     inkscape:pageopacity="0.0"
     inkscape:pagecheckerboard="0"
     inkscape:deskcolor="#d1d1d1"
     inkscape:document-units="mm"
     inkscape:zoom="0.69486018"
     inkscape:cx="561.26399"
     inkscape:cy="397.20221"
     inkscape:window-width="1447"
     inkscape:window-height="1200"
     inkscape:window-x="58"
     inkscape:window-y="-39"
     inkscape:window-maximized="0"
     inkscape:current-layer="svg150" />
  <title
     id="title1">SVG Image created as energie-B_Paste.svg date 2024/12/13 11:40:10 </title>
  <desc
     id="desc1">Image generated by PCBNEW </desc>
  <path
     style="fill:#000000;fill-opacity:1;fill-rule:evenodd;stroke:none;stroke-linecap:round;stroke-linejoin:round;stroke-opacity:1"
     d="m 150.417,65.315 -0.0765,-0.0152 -0.0649,-0.0434 -0.0434,-0.0649 -0.0152,-0.0765 v -1.5 l 0.0152,-0.0765 0.0434,-0.0649 0.0649,-0.0434 0.0765,-0.0152 h 0.4 l 0.0765,0.0152 0.0649,0.0434 0.0434,0.0649 0.0152,0.0765 v 1.5 l -0.0152,0.0765 -0.0434,0.0649 -0.0649,0.0434 -0.0765,0.0152 z"
     id="path1" />
  <path
     style="fill:#000000;fill-opacity:1;fill-rule:evenodd;stroke:none;stroke-linecap:round;stroke-linejoin:round;stroke-opacity:1"
     d="m 148.517,65.315 -0.0765,-0.0152 -0.0649,-0.0434 -0.0434,-0.0649 -0.0152,-0.0765 v -1.5 l 0.0152,-0.0765 0.0434,-0.0649 0.0649,-0.0434 0.0765,-0.0152 h 0.4 l 0.0765,0.0152 0.0649,0.0434 0.0434,0.0649 0.0152,0.0765 v 1.5 l -0.0152,0.0765 -0.0434,0.0649 -0.0649,0.0434 -0.0765,0.0152 z"
     id="path2" />
  <path
     style="fill:#000000;fill-opacity:1;fill-rule:evenodd;stroke:none;stroke-linecap:round;stroke-linejoin:round;stroke-opacity:1"
     d="m 149.467,62.315 -0.0765,-0.0152 -0.0649,-0.0434 -0.0434,-0.0649 -0.0152,-0.0765 v -1.5 l 0.0152,-0.0765 0.0434,-0.0649 0.0649,-0.0434 0.0765,-0.0152 h 0.4 l 0.0765,0.0152 0.0649,0.0434 0.0434,0.0649 0.0152,0.0765 v 1.5 l -0.0152,0.0765 -0.0434,0.0649 -0.0649,0.0434 -0.0765,0.0152 z"
     id="path3" />
  <path
     style="fill:#000000;fill-opacity:1;fill-rule:evenodd;stroke:none;stroke-linecap:round;stroke-linejoin:round;stroke-opacity:1"
     d="m 107.312,125.021 v 0.91 h -1.14 v -0.91 z"
     id="path4" />
  <path
     style="fill:#000000;fill-opacity:1;fill-rule:evenodd;stroke:none;stroke-linecap:round;stroke-linejoin:round;stroke-opacity:1"
     d="m 107.312,127.561 v 0.91 h -1.14 v -0.91 z"
     id="path5" />
  <path
     style="fill:#000000;fill-opacity:1;fill-rule:evenodd;stroke:none;stroke-linecap:round;stroke-linejoin:round;stroke-opacity:1"
     d="m 101.092,127.561 v 0.91 h -1.14 v -0.91 z"
     id="path6" />
  <path
     style="fill:#000000;fill-opacity:1;fill-rule:evenodd;stroke:none;stroke-linecap:round;stroke-linejoin:round;stroke-opacity:1"
     d="m 101.092,125.021 v 0.91 h -1.14 v -0.91 z"
     id="path7" />
  <path
     style="fill:#000000;fill-opacity:1;fill-rule:evenodd;stroke:none;stroke-linecap:round;stroke-linejoin:round;stroke-opacity:1"
     d="m 153.612,66.737 0.0957,0.019 0.0811,0.0542 0.0542,0.0811 0.019,0.0957 v 0.7 l -0.019,0.0957 -0.0542,0.0811 -0.0811,0.0542 -0.0957,0.019 h -0.9 l -0.0957,-0.019 -0.0811,-0.0542 -0.0542,-0.0811 -0.019,-0.0957 v -0.7 l 0.019,-0.0957 0.0542,-0.0811 0.0811,-0.0542 0.0957,-0.019 z"
     id="path8" />
  <path
     style="fill:#000000;fill-opacity:1;fill-rule:evenodd;stroke:none;stroke-linecap:round;stroke-linejoin:round;stroke-opacity:1"
     d="m 153.612,68.737 0.0957,0.019 0.0811,0.0542 0.0542,0.0811 0.019,0.0957 v 0.7 l -0.019,0.0957 -0.0542,0.0811 -0.0811,0.0542 -0.0957,0.019 h -0.9 l -0.0957,-0.019 -0.0811,-0.0542 -0.0542,-0.0811 -0.019,-0.0957 v -0.7 l 0.019,-0.0957 0.0542,-0.0811 0.0811,-0.0542 0.0957,-0.019 z"
     id="path9" />
  <path
     style="fill:#000000;fill-opacity:1;fill-rule:evenodd;stroke:none;stroke-linecap:round;stroke-linejoin:round;stroke-opacity:1"
     d="m 138.826,96.677 0.0957,0.019 0.0811,0.0542 0.0542,0.0811 0.019,0.0957 v 2 l -0.019,0.0957 -0.0542,0.0811 -0.0811,0.0542 -0.0957,0.019 h -1.3 l -0.0957,-0.019 -0.0811,-0.0542 -0.0542,-0.0811 -0.019,-0.0957 v -2 l 0.019,-0.0957 0.0542,-0.0811 0.0811,-0.0542 0.0957,-0.019 z"
     id="path10" />
  <path
     style="fill:#000000;fill-opacity:1;fill-rule:evenodd;stroke:none;stroke-linecap:round;stroke-linejoin:round;stroke-opacity:1"
     d="m 138.826,100.677 0.0957,0.019 0.0811,0.0542 0.0542,0.0811 0.019,0.0957 v 2 l -0.019,0.0957 -0.0542,0.0811 -0.0811,0.0542 -0.0957,0.019 h -1.3 l -0.0957,-0.019 -0.0811,-0.0542 -0.0542,-0.0811 -0.019,-0.0957 v -2 l 0.019,-0.0957 0.0542,-0.0811 0.0811,-0.0542 0.0957,-0.019 z"
     id="path11" />
  <path
     style="fill:#000000;fill-opacity:1;fill-rule:evenodd;stroke:none;stroke-linecap:round;stroke-linejoin:round;stroke-opacity:1"
     d="m 172.288,70.935 -0.019,0.0957 -0.0542,0.0811 -0.0811,0.0542 -0.0957,0.019 h -0.7 l -0.0957,-0.019 -0.0811,-0.0542 -0.0542,-0.0811 -0.019,-0.0957 v -0.9 l 0.019,-0.0957 0.0542,-0.0811 0.0811,-0.0542 0.0957,-0.019 h 0.7 l 0.0957,0.019 0.0811,0.0542 0.0542,0.0811 0.019,0.0957 z"
     id="path12" />
  <path
     style="fill:#000000;fill-opacity:1;fill-rule:evenodd;stroke:none;stroke-linecap:round;stroke-linejoin:round;stroke-opacity:1"
     d="m 170.288,70.935 -0.019,0.0957 -0.0542,0.0811 -0.0811,0.0542 -0.0957,0.019 h -0.7 l -0.0957,-0.019 -0.0811,-0.0542 -0.0542,-0.0811 -0.019,-0.0957 v -0.9 l 0.019,-0.0957 0.0542,-0.0811 0.0811,-0.0542 0.0957,-0.019 h 0.7 l 0.0957,0.019 0.0811,0.0542 0.0542,0.0811 0.019,0.0957 z"
     id="path13" />
  <path
     style="fill:#000000;fill-opacity:1;fill-rule:evenodd;stroke:none;stroke-linecap:round;stroke-linejoin:round;stroke-opacity:1"
     d="m 141.148,66.987 0.019,-0.0957 0.0542,-0.0811 0.0811,-0.0542 0.0957,-0.019 h 0.7 l 0.0957,0.019 0.0811,0.0542 0.0542,0.0811 0.019,0.0957 v 0.9 l -0.019,0.0957 -0.0542,0.0811 -0.0811,0.0542 -0.0957,0.019 h -0.7 l -0.0957,-0.019 -0.0811,-0.0542 -0.0542,-0.0811 -0.019,-0.0957 z"
     id="path14" />
  <path
     style="fill:#000000;fill-opacity:1;fill-rule:evenodd;stroke:none;stroke-linecap:round;stroke-linejoin:round;stroke-opacity:1"
     d="m 143.148,66.987 0.019,-0.0957 0.0542,-0.0811 0.0811,-0.0542 0.0957,-0.019 h 0.7 l 0.0957,0.019 0.0811,0.0542 0.0542,0.0811 0.019,0.0957 v 0.9 l -0.019,0.0957 -0.0542,0.0811 -0.0811,0.0542 -0.0957,0.019 h -0.7 l -0.0957,-0.019 -0.0811,-0.0542 -0.0542,-0.0811 -0.019,-0.0957 z"
     id="path15" />
  <path
     style="fill:#000000;fill-opacity:1;fill-rule:evenodd;stroke:none;stroke-linecap:round;stroke-linejoin:round;stroke-opacity:1"
     d="m 79.943,82.268 0.019,-0.0957 0.0542,-0.0811 0.0811,-0.0542 0.0957,-0.019 h 0.9 l 0.0957,0.019 0.0811,0.0542 0.0542,0.0811 0.019,0.0957 v 2.85 l -0.019,0.0957 -0.0542,0.0811 -0.0811,0.0542 -0.0957,0.019 h -0.9 L 80.0973,85.349 80.0162,85.2948 79.962,85.2137 79.943,85.118 Z"
     id="path16" />
  <path
     style="fill:#000000;fill-opacity:1;fill-rule:evenodd;stroke:none;stroke-linecap:round;stroke-linejoin:round;stroke-opacity:1"
     d="m 86.043,82.268 0.019,-0.0957 0.0542,-0.0811 0.0811,-0.0542 0.0957,-0.019 h 0.9 l 0.0957,0.019 0.0811,0.0542 0.0542,0.0811 0.019,0.0957 v 2.85 l -0.019,0.0957 -0.0542,0.0811 -0.0811,0.0542 -0.0957,0.019 h -0.9 L 86.1973,85.349 86.1162,85.2948 86.062,85.2137 86.043,85.118 Z"
     id="path17" />
  <path
     style="fill:#000000;fill-opacity:1;fill-rule:evenodd;stroke:none;stroke-linecap:round;stroke-linejoin:round;stroke-opacity:1"
     d="m 164.403,65.315 -0.0765,-0.0152 -0.0649,-0.0434 -0.0434,-0.0649 -0.0152,-0.0765 v -1.5 l 0.0152,-0.0765 0.0434,-0.0649 0.0649,-0.0434 0.0765,-0.0152 h 0.4 l 0.0765,0.0152 0.0649,0.0434 0.0434,0.0649 0.0152,0.0765 v 1.5 l -0.0152,0.0765 -0.0434,0.0649 -0.0649,0.0434 -0.0765,0.0152 z"
     id="path18" />
  <path
     style="fill:#000000;fill-opacity:1;fill-rule:evenodd;stroke:none;stroke-linecap:round;stroke-linejoin:round;stroke-opacity:1"
     d="m 162.503,65.315 -0.0765,-0.0152 -0.0649,-0.0434 -0.0434,-0.0649 -0.0152,-0.0765 v -1.5 l 0.0152,-0.0765 0.0434,-0.0649 0.0649,-0.0434 0.0765,-0.0152 h 0.4 l 0.0765,0.0152 0.0649,0.0434 0.0434,0.0649 0.0152,0.0765 v 1.5 l -0.0152,0.0765 -0.0434,0.0649 -0.0649,0.0434 -0.0765,0.0152 z"
     id="path19" />
  <path
     style="fill:#000000;fill-opacity:1;fill-rule:evenodd;stroke:none;stroke-linecap:round;stroke-linejoin:round;stroke-opacity:1"
     d="m 163.453,62.315 -0.0765,-0.0152 -0.0649,-0.0434 -0.0434,-0.0649 -0.0152,-0.0765 v -1.5 l 0.0152,-0.0765 0.0434,-0.0649 0.0649,-0.0434 0.0765,-0.0152 h 0.4 l 0.0765,0.0152 0.0649,0.0434 0.0434,0.0649 0.0152,0.0765 v 1.5 l -0.0152,0.0765 -0.0434,0.0649 -0.0649,0.0434 -0.0765,0.0152 z"
     id="path20" />
  <path
     style="fill:#000000;fill-opacity:1;fill-rule:evenodd;stroke:none;stroke-linecap:round;stroke-linejoin:round;stroke-opacity:1"
     d="M 110.05,78.85 109.9543,78.831 109.8732,78.7768 109.819,78.6957 109.8,78.6 v -2 l 0.019,-0.0957 0.0542,-0.0811 0.0811,-0.0542 0.0957,-0.019 h 1.3 l 0.0957,0.019 0.0811,0.0542 0.0542,0.0811 0.019,0.0957 v 2 l -0.019,0.0957 -0.0542,0.0811 -0.0811,0.0542 -0.0957,0.019 z"
     id="path21" />
  <path
     style="fill:#000000;fill-opacity:1;fill-rule:evenodd;stroke:none;stroke-linecap:round;stroke-linejoin:round;stroke-opacity:1"
     d="M 110.05,74.85 109.9543,74.831 109.8732,74.7768 109.819,74.6957 109.8,74.6 v -2 l 0.019,-0.0957 0.0542,-0.0811 0.0811,-0.0542 0.0957,-0.019 h 1.3 l 0.0957,0.019 0.0811,0.0542 0.0542,0.0811 0.019,0.0957 v 2 l -0.019,0.0957 -0.0542,0.0811 -0.0811,0.0542 -0.0957,0.019 z"
     id="path22" />
  <path
     style="fill:#000000;fill-opacity:1;fill-rule:evenodd;stroke:none;stroke-linecap:round;stroke-linejoin:round;stroke-opacity:1"
     d="m 122.051,96.328 0.0957,0.019 0.0811,0.0542 0.0542,0.0811 0.019,0.0957 v 2 l -0.019,0.0957 -0.0542,0.0811 -0.0811,0.0542 -0.0957,0.019 h -1.3 l -0.0957,-0.019 -0.0811,-0.0542 -0.0542,-0.0811 -0.019,-0.0957 v -2 l 0.019,-0.0957 0.0542,-0.0811 0.0811,-0.0542 0.0957,-0.019 z"
     id="path23" />
  <path
     style="fill:#000000;fill-opacity:1;fill-rule:evenodd;stroke:none;stroke-linecap:round;stroke-linejoin:round;stroke-opacity:1"
     d="m 122.051,100.328 0.0957,0.019 0.0811,0.0542 0.0542,0.0811 0.019,0.0957 v 2 l -0.019,0.0957 -0.0542,0.0811 -0.0811,0.0542 -0.0957,0.019 h -1.3 l -0.0957,-0.019 -0.0811,-0.0542 -0.0542,-0.0811 -0.019,-0.0957 v -2 l 0.019,-0.0957 0.0542,-0.0811 0.0811,-0.0542 0.0957,-0.019 z"
     id="path24" />
  <path
     style="fill:#000000;fill-opacity:1;fill-rule:evenodd;stroke:none;stroke-linecap:round;stroke-linejoin:round;stroke-opacity:1"
     d="m 133.025,89.546 h -0.91 v -1.14 h 0.91 z"
     id="path25" />
  <path
     style="fill:#000000;fill-opacity:1;fill-rule:evenodd;stroke:none;stroke-linecap:round;stroke-linejoin:round;stroke-opacity:1"
     d="m 130.485,89.546 h -0.91 v -1.14 h 0.91 z"
     id="path26" />
  <path
     style="fill:#000000;fill-opacity:1;fill-rule:evenodd;stroke:none;stroke-linecap:round;stroke-linejoin:round;stroke-opacity:1"
     d="m 130.485,83.326 h -0.91 v -1.14 h 0.91 z"
     id="path27" />
  <path
     style="fill:#000000;fill-opacity:1;fill-rule:evenodd;stroke:none;stroke-linecap:round;stroke-linejoin:round;stroke-opacity:1"
     d="m 133.025,83.326 h -0.91 v -1.14 h 0.91 z"
     id="path28" />
  <path
     style="fill:#000000;fill-opacity:1;fill-rule:evenodd;stroke:none;stroke-linecap:round;stroke-linejoin:round;stroke-opacity:1"
     d="m 113.209,89.517 h -0.91 v -1.14 h 0.91 z"
     id="path29" />
  <path
     style="fill:#000000;fill-opacity:1;fill-rule:evenodd;stroke:none;stroke-linecap:round;stroke-linejoin:round;stroke-opacity:1"
     d="m 110.669,89.517 h -0.91 v -1.14 h 0.91 z"
     id="path30" />
  <path
     style="fill:#000000;fill-opacity:1;fill-rule:evenodd;stroke:none;stroke-linecap:round;stroke-linejoin:round;stroke-opacity:1"
     d="m 110.669,83.297 h -0.91 v -1.14 h 0.91 z"
     id="path31" />
  <path
     style="fill:#000000;fill-opacity:1;fill-rule:evenodd;stroke:none;stroke-linecap:round;stroke-linejoin:round;stroke-opacity:1"
     d="m 113.209,83.297 h -0.91 v -1.14 h 0.91 z"
     id="path32" />
  <path
     style="fill:#000000;fill-opacity:1;fill-rule:evenodd;stroke:none;stroke-linecap:round;stroke-linejoin:round;stroke-opacity:1"
     d="M 86.01,78.316 85.9143,78.297 85.8332,78.2428 85.779,78.1617 85.76,78.066 v -1.7 l 0.019,-0.0957 0.0542,-0.0811 0.0811,-0.0542 0.0957,-0.019 h 0.7 l 0.0957,0.019 0.0811,0.0542 0.0542,0.0811 0.019,0.0957 v 1.7 l -0.019,0.0957 -0.0542,0.0811 -0.0811,0.0542 -0.0957,0.019 z"
     id="path33" />
  <path
     style="fill:#000000;fill-opacity:1;fill-rule:evenodd;stroke:none;stroke-linecap:round;stroke-linejoin:round;stroke-opacity:1"
     d="M 81.43,74.116 81.3343,74.097 81.2532,74.0428 81.199,73.9617 81.18,73.866 v -2.55 l 0.019,-0.0957 0.0542,-0.0811 0.0811,-0.0542 0.0957,-0.019 h 2.25 l 0.0957,0.019 0.0811,0.0542 0.0542,0.0811 0.019,0.0957 v 2.55 l -0.019,0.0957 -0.0542,0.0811 -0.0811,0.0542 -0.0957,0.019 z"
     id="path34" />
  <path
     style="fill:#000000;fill-opacity:1;fill-rule:evenodd;stroke:none;stroke-linecap:round;stroke-linejoin:round;stroke-opacity:1"
     d="M 84.48,74.116 84.3843,74.097 84.3032,74.0428 84.249,73.9617 84.23,73.866 v -2.55 l 0.019,-0.0957 0.0542,-0.0811 0.0811,-0.0542 0.0957,-0.019 h 2.25 l 0.0957,0.019 0.0811,0.0542 0.0542,0.0811 0.019,0.0957 v 2.55 l -0.019,0.0957 -0.0542,0.0811 -0.0811,0.0542 -0.0957,0.019 z"
     id="path35" />
  <path
     style="fill:#000000;fill-opacity:1;fill-rule:evenodd;stroke:none;stroke-linecap:round;stroke-linejoin:round;stroke-opacity:1"
     d="M 81.43,70.766 81.3343,70.747 81.2532,70.6928 81.199,70.6117 81.18,70.516 v -2.55 l 0.019,-0.0957 0.0542,-0.0811 0.0811,-0.0542 0.0957,-0.019 h 2.25 l 0.0957,0.019 0.0811,0.0542 0.0542,0.0811 0.019,0.0957 v 2.55 l -0.019,0.0957 -0.0542,0.0811 -0.0811,0.0542 -0.0957,0.019 z"
     id="path36" />
  <path
     style="fill:#000000;fill-opacity:1;fill-rule:evenodd;stroke:none;stroke-linecap:round;stroke-linejoin:round;stroke-opacity:1"
     d="M 84.48,70.766 84.3843,70.747 84.3032,70.6928 84.249,70.6117 84.23,70.516 v -2.55 l 0.019,-0.0957 0.0542,-0.0811 0.0811,-0.0542 0.0957,-0.019 h 2.25 l 0.0957,0.019 0.0811,0.0542 0.0542,0.0811 0.019,0.0957 v 2.55 l -0.019,0.0957 -0.0542,0.0811 -0.0811,0.0542 -0.0957,0.019 z"
     id="path37" />
  <path
     style="fill:#000000;fill-opacity:1;fill-rule:evenodd;stroke:none;stroke-linecap:round;stroke-linejoin:round;stroke-opacity:1"
     d="M 81.45,78.316 81.3543,78.297 81.2732,78.2428 81.219,78.1617 81.2,78.066 v -1.7 l 0.019,-0.0957 0.0542,-0.0811 0.0811,-0.0542 0.0957,-0.019 h 0.7 l 0.0957,0.019 0.0811,0.0542 0.0542,0.0811 0.019,0.0957 v 1.7 l -0.019,0.0957 -0.0542,0.0811 -0.0811,0.0542 -0.0957,0.019 z"
     id="path38" />
  <path
     style="fill:#000000;fill-opacity:1;fill-rule:evenodd;stroke:none;stroke-linecap:round;stroke-linejoin:round;stroke-opacity:1"
     d="m 90.357,119.352 0.019,-0.0957 0.0542,-0.0811 0.0811,-0.0542 0.0957,-0.019 h 0.9 l 0.0957,0.019 0.0811,0.0542 0.0542,0.0811 0.019,0.0957 v 2.85 l -0.019,0.0957 -0.0542,0.0811 -0.0811,0.0542 -0.0957,0.019 h -0.9 l -0.0957,-0.019 -0.0811,-0.0542 -0.0542,-0.0811 -0.019,-0.0957 z"
     id="path39" />
  <path
     style="fill:#000000;fill-opacity:1;fill-rule:evenodd;stroke:none;stroke-linecap:round;stroke-linejoin:round;stroke-opacity:1"
     d="m 96.457,119.352 0.019,-0.0957 0.0542,-0.0811 0.0811,-0.0542 0.0957,-0.019 h 0.9 l 0.0957,0.019 0.0811,0.0542 0.0542,0.0811 0.019,0.0957 v 2.85 l -0.019,0.0957 -0.0542,0.0811 -0.0811,0.0542 -0.0957,0.019 h -0.9 l -0.0957,-0.019 -0.0811,-0.0542 -0.0542,-0.0811 -0.019,-0.0957 z"
     id="path40" />
  <path
     style="fill:#000000;fill-opacity:1;fill-rule:evenodd;stroke:none;stroke-linecap:round;stroke-linejoin:round;stroke-opacity:1"
     d="m 146.5,72.044 0.0957,0.019 0.0811,0.0542 0.0542,0.0811 0.019,0.0957 v 0.7 l -0.019,0.0957 -0.0542,0.0811 -0.0811,0.0542 -0.0957,0.019 h -0.9 l -0.0957,-0.019 -0.0811,-0.0542 -0.0542,-0.0811 -0.019,-0.0957 v -0.7 l 0.019,-0.0957 0.0542,-0.0811 0.0811,-0.0542 0.0957,-0.019 z"
     id="path41" />
  <path
     style="fill:#000000;fill-opacity:1;fill-rule:evenodd;stroke:none;stroke-linecap:round;stroke-linejoin:round;stroke-opacity:1"
     d="m 146.5,74.044 0.0957,0.019 0.0811,0.0542 0.0542,0.0811 0.019,0.0957 v 0.7 l -0.019,0.0957 -0.0542,0.0811 -0.0811,0.0542 -0.0957,0.019 h -0.9 l -0.0957,-0.019 -0.0811,-0.0542 -0.0542,-0.0811 -0.019,-0.0957 v -0.7 l 0.019,-0.0957 0.0542,-0.0811 0.0811,-0.0542 0.0957,-0.019 z"
     id="path42" />
  <path
     style="fill:#000000;fill-opacity:1;fill-rule:evenodd;stroke:none;stroke-linecap:round;stroke-linejoin:round;stroke-opacity:1"
     d="m 167.455,66.737 0.0957,0.019 0.0811,0.0542 0.0542,0.0811 0.019,0.0957 v 0.7 l -0.019,0.0957 -0.0542,0.0811 -0.0811,0.0542 -0.0957,0.019 h -0.9 l -0.0957,-0.019 -0.0811,-0.0542 -0.0542,-0.0811 -0.019,-0.0957 v -0.7 l 0.019,-0.0957 0.0542,-0.0811 0.0811,-0.0542 0.0957,-0.019 z"
     id="path43" />
  <path
     style="fill:#000000;fill-opacity:1;fill-rule:evenodd;stroke:none;stroke-linecap:round;stroke-linejoin:round;stroke-opacity:1"
     d="m 167.455,68.737 0.0957,0.019 0.0811,0.0542 0.0542,0.0811 0.019,0.0957 v 0.7 l -0.019,0.0957 -0.0542,0.0811 -0.0811,0.0542 -0.0957,0.019 h -0.9 l -0.0957,-0.019 -0.0811,-0.0542 -0.0542,-0.0811 -0.019,-0.0957 v -0.7 l 0.019,-0.0957 0.0542,-0.0811 0.0811,-0.0542 0.0957,-0.019 z"
     id="path44" />
  <path
     style="fill:#000000;fill-opacity:1;fill-rule:evenodd;stroke:none;stroke-linecap:round;stroke-linejoin:round;stroke-opacity:1"
     d="m 125.913,89.546 h -0.91 v -1.14 h 0.91 z"
     id="path45" />
  <path
     style="fill:#000000;fill-opacity:1;fill-rule:evenodd;stroke:none;stroke-linecap:round;stroke-linejoin:round;stroke-opacity:1"
     d="m 123.373,89.546 h -0.91 v -1.14 h 0.91 z"
     id="path46" />
  <path
     style="fill:#000000;fill-opacity:1;fill-rule:evenodd;stroke:none;stroke-linecap:round;stroke-linejoin:round;stroke-opacity:1"
     d="m 123.373,83.326 h -0.91 v -1.14 h 0.91 z"
     id="path47" />
  <path
     style="fill:#000000;fill-opacity:1;fill-rule:evenodd;stroke:none;stroke-linecap:round;stroke-linejoin:round;stroke-opacity:1"
     d="m 125.913,83.326 h -0.91 v -1.14 h 0.91 z"
     id="path48" />
  <path
     style="fill:#000000;fill-opacity:1;fill-rule:evenodd;stroke:none;stroke-linecap:round;stroke-linejoin:round;stroke-opacity:1"
     d="m 171.499,65.315 -0.0765,-0.0152 -0.0649,-0.0434 -0.0434,-0.0649 -0.0152,-0.0765 v -1.5 l 0.0152,-0.0765 0.0434,-0.0649 0.0649,-0.0434 0.0765,-0.0152 h 0.4 l 0.0765,0.0152 0.0649,0.0434 0.0434,0.0649 0.0152,0.0765 v 1.5 l -0.0152,0.0765 -0.0434,0.0649 -0.0649,0.0434 -0.0765,0.0152 z"
     id="path49" />
  <path
     style="fill:#000000;fill-opacity:1;fill-rule:evenodd;stroke:none;stroke-linecap:round;stroke-linejoin:round;stroke-opacity:1"
     d="m 169.599,65.315 -0.0765,-0.0152 -0.0649,-0.0434 -0.0434,-0.0649 -0.0152,-0.0765 v -1.5 l 0.0152,-0.0765 0.0434,-0.0649 0.0649,-0.0434 0.0765,-0.0152 h 0.4 l 0.0765,0.0152 0.0649,0.0434 0.0434,0.0649 0.0152,0.0765 v 1.5 l -0.0152,0.0765 -0.0434,0.0649 -0.0649,0.0434 -0.0765,0.0152 z"
     id="path50" />
  <path
     style="fill:#000000;fill-opacity:1;fill-rule:evenodd;stroke:none;stroke-linecap:round;stroke-linejoin:round;stroke-opacity:1"
     d="m 170.549,62.315 -0.0765,-0.0152 -0.0649,-0.0434 -0.0434,-0.0649 -0.0152,-0.0765 v -1.5 l 0.0152,-0.0765 0.0434,-0.0649 0.0649,-0.0434 0.0765,-0.0152 h 0.4 l 0.0765,0.0152 0.0649,0.0434 0.0434,0.0649 0.0152,0.0765 v 1.5 l -0.0152,0.0765 -0.0434,0.0649 -0.0649,0.0434 -0.0765,0.0152 z"
     id="path51" />
  <path
     style="fill:#000000;fill-opacity:1;fill-rule:evenodd;stroke:none;stroke-linecap:round;stroke-linejoin:round;stroke-opacity:1"
     d="m 166.954,102.304 -0.019,0.0957 -0.0542,0.0811 -0.0811,0.0542 -0.0957,0.019 h -0.7 l -0.0957,-0.019 -0.0811,-0.0542 -0.0542,-0.0811 -0.019,-0.0957 v -0.9 l 0.019,-0.0957 0.0542,-0.0811 0.0811,-0.0542 0.0957,-0.019 h 0.7 l 0.0957,0.019 0.0811,0.0542 0.0542,0.0811 0.019,0.0957 z"
     id="path52" />
  <path
     style="fill:#000000;fill-opacity:1;fill-rule:evenodd;stroke:none;stroke-linecap:round;stroke-linejoin:round;stroke-opacity:1"
     d="m 164.954,102.304 -0.019,0.0957 -0.0542,0.0811 -0.0811,0.0542 -0.0957,0.019 h -0.7 l -0.0957,-0.019 -0.0811,-0.0542 -0.0542,-0.0811 -0.019,-0.0957 v -0.9 l 0.019,-0.0957 0.0542,-0.0811 0.0811,-0.0542 0.0957,-0.019 h 0.7 l 0.0957,0.019 0.0811,0.0542 0.0542,0.0811 0.019,0.0957 z"
     id="path53" />
  <path
     style="fill:#000000;fill-opacity:1;fill-rule:evenodd;stroke:none;stroke-linecap:round;stroke-linejoin:round;stroke-opacity:1"
     d="m 142.606,103.082 -0.0957,-0.019 -0.0811,-0.0542 -0.0542,-0.0811 -0.019,-0.0957 v -2 l 0.019,-0.0957 0.0542,-0.0811 0.0811,-0.0542 0.0957,-0.019 h 1.3 l 0.0957,0.019 0.0811,0.0542 0.0542,0.0811 0.019,0.0957 v 2 l -0.019,0.0957 -0.0542,0.0811 -0.0811,0.0542 -0.0957,0.019 z"
     id="path54" />
  <path
     style="fill:#000000;fill-opacity:1;fill-rule:evenodd;stroke:none;stroke-linecap:round;stroke-linejoin:round;stroke-opacity:1"
     d="m 142.606,99.082 -0.0957,-0.019 -0.0811,-0.0542 -0.0542,-0.0811 -0.019,-0.0957 v -2 l 0.019,-0.0957 0.0542,-0.0811 0.0811,-0.0542 0.0957,-0.019 h 1.3 l 0.0957,0.019 0.0811,0.0542 0.0542,0.0811 0.019,0.0957 v 2 l -0.019,0.0957 -0.0542,0.0811 -0.0811,0.0542 -0.0957,0.019 z"
     id="path55" />
  <path
     style="fill:#000000;fill-opacity:1;fill-rule:evenodd;stroke:none;stroke-linecap:round;stroke-linejoin:round;stroke-opacity:1"
     d="m 105.0822,115.8604 -0.019,0.0957 -0.0542,0.0811 -0.0811,0.0542 -0.0957,0.019 h -1.225 l -0.0957,-0.019 -0.0811,-0.0542 -0.0542,-0.0811 -0.019,-0.0957 v -1.8 l 0.019,-0.0957 0.0542,-0.0811 0.0811,-0.0542 0.0957,-0.019 h 1.225 l 0.0957,0.019 0.0811,0.0542 0.0542,0.0811 0.019,0.0957 z"
     id="path56" />
  <path
     style="fill:#000000;fill-opacity:1;fill-rule:evenodd;stroke:none;stroke-linecap:round;stroke-linejoin:round;stroke-opacity:1"
     d="m 100.7572,115.8604 -0.019,0.0957 -0.0542,0.0811 -0.0811,0.0542 -0.0957,0.019 h -1.225 l -0.0957,-0.019 -0.0811,-0.0542 -0.0542,-0.0811 -0.019,-0.0957 v -1.8 l 0.019,-0.0957 0.0542,-0.0811 0.0811,-0.0542 0.0957,-0.019 h 1.225 l 0.0957,0.019 0.0811,0.0542 0.0542,0.0811 0.019,0.0957 z"
     id="path57" />
  <path
     style="fill:#000000;fill-opacity:1;fill-rule:evenodd;stroke:none;stroke-linecap:round;stroke-linejoin:round;stroke-opacity:1"
     d="m 158.302,120.241 0.019,-0.0957 0.0542,-0.0811 0.0811,-0.0542 0.0957,-0.019 h 0.9 l 0.0957,0.019 0.0811,0.0542 0.0542,0.0811 0.019,0.0957 v 2.85 l -0.019,0.0957 -0.0542,0.0811 -0.0811,0.0542 -0.0957,0.019 h -0.9 l -0.0957,-0.019 -0.0811,-0.0542 -0.0542,-0.0811 -0.019,-0.0957 z"
     id="path58" />
  <path
     style="fill:#000000;fill-opacity:1;fill-rule:evenodd;stroke:none;stroke-linecap:round;stroke-linejoin:round;stroke-opacity:1"
     d="m 164.402,120.241 0.019,-0.0957 0.0542,-0.0811 0.0811,-0.0542 0.0957,-0.019 h 0.9 l 0.0957,0.019 0.0811,0.0542 0.0542,0.0811 0.019,0.0957 v 2.85 l -0.019,0.0957 -0.0542,0.0811 -0.0811,0.0542 -0.0957,0.019 h -0.9 l -0.0957,-0.019 -0.0811,-0.0542 -0.0542,-0.0811 -0.019,-0.0957 z"
     id="path59" />
  <path
     style="fill:#000000;fill-opacity:1;fill-rule:evenodd;stroke:none;stroke-linecap:round;stroke-linejoin:round;stroke-opacity:1"
     d="m 99.3126,110.627 -0.0957,-0.019 -0.0811,-0.0542 -0.0542,-0.0811 -0.019,-0.0957 v -1.7 l 0.019,-0.0957 0.0542,-0.0811 0.0811,-0.0542 0.0957,-0.019 h 0.7 l 0.0957,0.019 0.0811,0.0542 0.0542,0.0811 0.019,0.0957 v 1.7 l -0.019,0.0957 -0.0542,0.0811 -0.0811,0.0542 -0.0957,0.019 z"
     id="path60" />
  <path
     style="fill:#000000;fill-opacity:1;fill-rule:evenodd;stroke:none;stroke-linecap:round;stroke-linejoin:round;stroke-opacity:1"
     d="m 94.7326,106.427 -0.0957,-0.019 -0.0811,-0.0542 -0.0542,-0.0811 -0.019,-0.0957 v -2.55 l 0.019,-0.0957 0.0542,-0.0811 0.0811,-0.0542 0.0957,-0.019 h 2.25 l 0.0957,0.019 0.0811,0.0542 0.0542,0.0811 0.019,0.0957 v 2.55 l -0.019,0.0957 -0.0542,0.0811 -0.0811,0.0542 -0.0957,0.019 z"
     id="path61" />
  <path
     style="fill:#000000;fill-opacity:1;fill-rule:evenodd;stroke:none;stroke-linecap:round;stroke-linejoin:round;stroke-opacity:1"
     d="m 97.7826,106.427 -0.0957,-0.019 -0.0811,-0.0542 -0.0542,-0.0811 -0.019,-0.0957 v -2.55 l 0.019,-0.0957 0.0542,-0.0811 0.0811,-0.0542 0.0957,-0.019 h 2.25 l 0.0957,0.019 0.0811,0.0542 0.0542,0.0811 0.019,0.0957 v 2.55 l -0.019,0.0957 -0.0542,0.0811 -0.0811,0.0542 -0.0957,0.019 z"
     id="path62" />
  <path
     style="fill:#000000;fill-opacity:1;fill-rule:evenodd;stroke:none;stroke-linecap:round;stroke-linejoin:round;stroke-opacity:1"
     d="m 94.7326,103.077 -0.0957,-0.019 -0.0811,-0.0542 -0.0542,-0.0811 -0.019,-0.0957 v -2.55 l 0.019,-0.0957 0.0542,-0.0811 0.0811,-0.0542 0.0957,-0.019 h 2.25 l 0.0957,0.019 0.0811,0.0542 0.0542,0.0811 0.019,0.0957 v 2.55 l -0.019,0.0957 -0.0542,0.0811 -0.0811,0.0542 -0.0957,0.019 z"
     id="path63" />
  <path
     style="fill:#000000;fill-opacity:1;fill-rule:evenodd;stroke:none;stroke-linecap:round;stroke-linejoin:round;stroke-opacity:1"
     d="m 97.7826,103.077 -0.0957,-0.019 -0.0811,-0.0542 -0.0542,-0.0811 -0.019,-0.0957 v -2.55 l 0.019,-0.0957 0.0542,-0.0811 0.0811,-0.0542 0.0957,-0.019 h 2.25 l 0.0957,0.019 0.0811,0.0542 0.0542,0.0811 0.019,0.0957 v 2.55 l -0.019,0.0957 -0.0542,0.0811 -0.0811,0.0542 -0.0957,0.019 z"
     id="path64" />
  <path
     style="fill:#000000;fill-opacity:1;fill-rule:evenodd;stroke:none;stroke-linecap:round;stroke-linejoin:round;stroke-opacity:1"
     d="m 94.7526,110.627 -0.0957,-0.019 -0.0811,-0.0542 -0.0542,-0.0811 -0.019,-0.0957 v -1.7 l 0.019,-0.0957 0.0542,-0.0811 0.0811,-0.0542 0.0957,-0.019 h 0.7 l 0.0957,0.019 0.0811,0.0542 0.0542,0.0811 0.019,0.0957 v 1.7 l -0.019,0.0957 -0.0542,0.0811 -0.0811,0.0542 -0.0957,0.019 z"
     id="path65" />
  <path
     style="fill:#000000;fill-opacity:1;fill-rule:evenodd;stroke:none;stroke-linecap:round;stroke-linejoin:round;stroke-opacity:1"
     d="m 146.627,66.737 0.0957,0.019 0.0811,0.0542 0.0542,0.0811 0.019,0.0957 v 0.7 l -0.019,0.0957 -0.0542,0.0811 -0.0811,0.0542 -0.0957,0.019 h -0.9 l -0.0957,-0.019 -0.0811,-0.0542 -0.0542,-0.0811 -0.019,-0.0957 v -0.7 l 0.019,-0.0957 0.0542,-0.0811 0.0811,-0.0542 0.0957,-0.019 z"
     id="path66" />
  <path
     style="fill:#000000;fill-opacity:1;fill-rule:evenodd;stroke:none;stroke-linecap:round;stroke-linejoin:round;stroke-opacity:1"
     d="m 146.627,68.737 0.0957,0.019 0.0811,0.0542 0.0542,0.0811 0.019,0.0957 v 0.7 l -0.019,0.0957 -0.0542,0.0811 -0.0811,0.0542 -0.0957,0.019 h -0.9 l -0.0957,-0.019 -0.0811,-0.0542 -0.0542,-0.0811 -0.019,-0.0957 v -0.7 l 0.019,-0.0957 0.0542,-0.0811 0.0811,-0.0542 0.0957,-0.019 z"
     id="path67" />
  <path
     style="fill:#000000;fill-opacity:1;fill-rule:evenodd;stroke:none;stroke-linecap:round;stroke-linejoin:round;stroke-opacity:1"
     d="m 143.559,65.315 -0.0765,-0.0152 -0.0649,-0.0434 -0.0434,-0.0649 -0.0152,-0.0765 v -1.5 l 0.0152,-0.0765 0.0434,-0.0649 0.0649,-0.0434 0.0765,-0.0152 h 0.4 l 0.0765,0.0152 0.0649,0.0434 0.0434,0.0649 0.0152,0.0765 v 1.5 l -0.0152,0.0765 -0.0434,0.0649 -0.0649,0.0434 -0.0765,0.0152 z"
     id="path68" />
  <path
     style="fill:#000000;fill-opacity:1;fill-rule:evenodd;stroke:none;stroke-linecap:round;stroke-linejoin:round;stroke-opacity:1"
     d="m 141.659,65.315 -0.0765,-0.0152 -0.0649,-0.0434 -0.0434,-0.0649 -0.0152,-0.0765 v -1.5 l 0.0152,-0.0765 0.0434,-0.0649 0.0649,-0.0434 0.0765,-0.0152 h 0.4 l 0.0765,0.0152 0.0649,0.0434 0.0434,0.0649 0.0152,0.0765 v 1.5 l -0.0152,0.0765 -0.0434,0.0649 -0.0649,0.0434 -0.0765,0.0152 z"
     id="path69" />
  <path
     style="fill:#000000;fill-opacity:1;fill-rule:evenodd;stroke:none;stroke-linecap:round;stroke-linejoin:round;stroke-opacity:1"
     d="m 142.609,62.315 -0.0765,-0.0152 -0.0649,-0.0434 -0.0434,-0.0649 -0.0152,-0.0765 v -1.5 l 0.0152,-0.0765 0.0434,-0.0649 0.0649,-0.0434 0.0765,-0.0152 h 0.4 l 0.0765,0.0152 0.0649,0.0434 0.0434,0.0649 0.0152,0.0765 v 1.5 l -0.0152,0.0765 -0.0434,0.0649 -0.0649,0.0434 -0.0765,0.0152 z"
     id="path70" />
  <path
     style="fill:#000000;fill-opacity:1;fill-rule:evenodd;stroke:none;stroke-linecap:round;stroke-linejoin:round;stroke-opacity:1"
     d="m 125.6,72.424 0.0957,0.019 0.0811,0.0542 0.0542,0.0811 0.019,0.0957 v 2 l -0.019,0.0957 -0.0542,0.0811 -0.0811,0.0542 -0.0957,0.019 h -1.3 l -0.0957,-0.019 -0.0811,-0.0542 -0.0542,-0.0811 -0.019,-0.0957 v -2 l 0.019,-0.0957 0.0542,-0.0811 0.0811,-0.0542 0.0957,-0.019 z"
     id="path71" />
  <path
     style="fill:#000000;fill-opacity:1;fill-rule:evenodd;stroke:none;stroke-linecap:round;stroke-linejoin:round;stroke-opacity:1"
     d="m 125.6,76.424 0.0957,0.019 0.0811,0.0542 0.0542,0.0811 0.019,0.0957 v 2 l -0.019,0.0957 -0.0542,0.0811 -0.0811,0.0542 -0.0957,0.019 h -1.3 l -0.0957,-0.019 -0.0811,-0.0542 -0.0542,-0.0811 -0.019,-0.0957 v -2 l 0.019,-0.0957 0.0542,-0.0811 0.0811,-0.0542 0.0957,-0.019 z"
     id="path72" />
  <path
     style="fill:#000000;fill-opacity:1;fill-rule:evenodd;stroke:none;stroke-linecap:round;stroke-linejoin:round;stroke-opacity:1"
     d="m 166.627,82.5335 -0.0181,0.0909 -0.0515,0.077 -0.077,0.0515 -0.0909,0.0181 h -0.6 l -0.0909,-0.0181 -0.077,-0.0515 -0.0515,-0.077 -0.0181,-0.0909 v -0.475 l 0.0181,-0.0909 0.0515,-0.077 0.077,-0.0515 0.0909,-0.0181 h 0.6 l 0.0909,0.0181 0.077,0.0515 0.0515,0.077 0.0181,0.0909 z"
     id="path73" />
  <path
     style="fill:#000000;fill-opacity:1;fill-rule:evenodd;stroke:none;stroke-linecap:round;stroke-linejoin:round;stroke-opacity:1"
     d="m 164.902,82.5335 -0.0181,0.0909 -0.0515,0.077 -0.077,0.0515 -0.0909,0.0181 h -0.6 l -0.0909,-0.0181 -0.077,-0.0515 -0.0515,-0.077 -0.0181,-0.0909 v -0.475 l 0.0181,-0.0909 0.0515,-0.077 0.077,-0.0515 0.0909,-0.0181 h 0.6 l 0.0909,0.0181 0.077,0.0515 0.0515,0.077 0.0181,0.0909 z"
     id="path74" />
  <path
     style="fill:#000000;fill-opacity:1;fill-rule:evenodd;stroke:none;stroke-linecap:round;stroke-linejoin:round;stroke-opacity:1"
     d="m 148.03,124.348 -0.019,0.0957 -0.0542,0.0811 -0.0811,0.0542 -0.0957,0.019 h -2 l -0.0957,-0.019 -0.0811,-0.0542 -0.0542,-0.0811 -0.019,-0.0957 v -1.3 l 0.019,-0.0957 0.0542,-0.0811 0.0811,-0.0542 0.0957,-0.019 h 2 l 0.0957,0.019 0.0811,0.0542 0.0542,0.0811 0.019,0.0957 z"
     id="path75" />
  <path
     style="fill:#000000;fill-opacity:1;fill-rule:evenodd;stroke:none;stroke-linecap:round;stroke-linejoin:round;stroke-opacity:1"
     d="m 144.03,124.348 -0.019,0.0957 -0.0542,0.0811 -0.0811,0.0542 -0.0957,0.019 h -2 l -0.0957,-0.019 -0.0811,-0.0542 -0.0542,-0.0811 -0.019,-0.0957 v -1.3 l 0.019,-0.0957 0.0542,-0.0811 0.0811,-0.0542 0.0957,-0.019 h 2 l 0.0957,0.019 0.0811,0.0542 0.0542,0.0811 0.019,0.0957 z"
     id="path76" />
  <path
     style="fill:#000000;fill-opacity:1;fill-rule:evenodd;stroke:none;stroke-linecap:round;stroke-linejoin:round;stroke-opacity:1"
     d="m 90.879,100.962 h -0.91 v -1.14 h 0.91 z"
     id="path77" />
  <path
     style="fill:#000000;fill-opacity:1;fill-rule:evenodd;stroke:none;stroke-linecap:round;stroke-linejoin:round;stroke-opacity:1"
     d="m 88.339,100.962 h -0.91 v -1.14 h 0.91 z"
     id="path78" />
  <path
     style="fill:#000000;fill-opacity:1;fill-rule:evenodd;stroke:none;stroke-linecap:round;stroke-linejoin:round;stroke-opacity:1"
     d="m 88.339,94.742 h -0.91 v -1.14 h 0.91 z"
     id="path79" />
  <path
     style="fill:#000000;fill-opacity:1;fill-rule:evenodd;stroke:none;stroke-linecap:round;stroke-linejoin:round;stroke-opacity:1"
     d="m 90.879,94.742 h -0.91 v -1.14 h 0.91 z"
     id="path80" />
  <path
     style="fill:#000000;fill-opacity:1;fill-rule:evenodd;stroke:none;stroke-linecap:round;stroke-linejoin:round;stroke-opacity:1"
     d="m 167.768,116.509 h -1.78 v -2 h 1.78 z"
     id="path81" />
  <path
     style="fill:#000000;fill-opacity:1;fill-rule:evenodd;stroke:none;stroke-linecap:round;stroke-linejoin:round;stroke-opacity:1"
     d="m 165.228,116.509 h -1.78 v -2 h 1.78 z"
     id="path82" />
  <path
     style="fill:#000000;fill-opacity:1;fill-rule:evenodd;stroke:none;stroke-linecap:round;stroke-linejoin:round;stroke-opacity:1"
     d="m 165.228,106.979 h -1.78 v -2 h 1.78 z"
     id="path83" />
  <path
     style="fill:#000000;fill-opacity:1;fill-rule:evenodd;stroke:none;stroke-linecap:round;stroke-linejoin:round;stroke-opacity:1"
     d="m 167.768,106.979 h -1.78 v -2 h 1.78 z"
     id="path84" />
  <path
     style="fill:#000000;fill-opacity:1;fill-rule:evenodd;stroke:none;stroke-linecap:round;stroke-linejoin:round;stroke-opacity:1"
     d="m 87.443,91.087 -0.019,0.0957 -0.0542,0.0811 -0.0811,0.0542 -0.0957,0.019 h -0.9 L 86.1973,91.318 86.1162,91.2638 86.062,91.1827 86.043,91.087 v -2.85 l 0.019,-0.0957 0.0542,-0.0811 0.0811,-0.0542 0.0957,-0.019 h 0.9 l 0.0957,0.019 0.0811,0.0542 0.0542,0.0811 0.019,0.0957 z"
     id="path85" />
  <path
     style="fill:#000000;fill-opacity:1;fill-rule:evenodd;stroke:none;stroke-linecap:round;stroke-linejoin:round;stroke-opacity:1"
     d="m 81.343,91.087 -0.019,0.0957 -0.0542,0.0811 -0.0811,0.0542 -0.0957,0.019 h -0.9 L 80.0973,91.318 80.0162,91.2638 79.962,91.1827 79.943,91.087 v -2.85 l 0.019,-0.0957 0.0542,-0.0811 0.0811,-0.0542 0.0957,-0.019 h 0.9 l 0.0957,0.019 0.0811,0.0542 0.0542,0.0811 0.019,0.0957 z"
     id="path86" />
  <path
     style="fill:#000000;fill-opacity:1;fill-rule:evenodd;stroke:none;stroke-linecap:round;stroke-linejoin:round;stroke-opacity:1"
     d="m 161.992,66.987 0.019,-0.0957 0.0542,-0.0811 0.0811,-0.0542 0.0957,-0.019 h 0.7 l 0.0957,0.019 0.0811,0.0542 0.0542,0.0811 0.019,0.0957 v 0.9 l -0.019,0.0957 -0.0542,0.0811 -0.0811,0.0542 -0.0957,0.019 h -0.7 l -0.0957,-0.019 -0.0811,-0.0542 -0.0542,-0.0811 -0.019,-0.0957 z"
     id="path87" />
  <path
     style="fill:#000000;fill-opacity:1;fill-rule:evenodd;stroke:none;stroke-linecap:round;stroke-linejoin:round;stroke-opacity:1"
     d="m 163.992,66.987 0.019,-0.0957 0.0542,-0.0811 0.0811,-0.0542 0.0957,-0.019 h 0.7 l 0.0957,0.019 0.0811,0.0542 0.0542,0.0811 0.019,0.0957 v 0.9 l -0.019,0.0957 -0.0542,0.0811 -0.0811,0.0542 -0.0957,0.019 h -0.7 l -0.0957,-0.019 -0.0811,-0.0542 -0.0542,-0.0811 -0.019,-0.0957 z"
     id="path88" />
  <path
     style="fill:#000000;fill-opacity:1;fill-rule:evenodd;stroke:none;stroke-linecap:round;stroke-linejoin:round;stroke-opacity:1"
     d="m 129.38,78.879 -0.0957,-0.019 -0.0811,-0.0542 -0.0542,-0.0811 -0.019,-0.0957 v -2 l 0.019,-0.0957 0.0542,-0.0811 0.0811,-0.0542 0.0957,-0.019 h 1.3 l 0.0957,0.019 0.0811,0.0542 0.0542,0.0811 0.019,0.0957 v 2 l -0.019,0.0957 -0.0542,0.0811 -0.0811,0.0542 -0.0957,0.019 z"
     id="path89" />
  <path
     style="fill:#000000;fill-opacity:1;fill-rule:evenodd;stroke:none;stroke-linecap:round;stroke-linejoin:round;stroke-opacity:1"
     d="m 129.38,74.879 -0.0957,-0.019 -0.0811,-0.0542 -0.0542,-0.0811 -0.019,-0.0957 v -2 l 0.019,-0.0957 0.0542,-0.0811 0.0811,-0.0542 0.0957,-0.019 h 1.3 l 0.0957,0.019 0.0811,0.0542 0.0542,0.0811 0.019,0.0957 v 2 l -0.019,0.0957 -0.0542,0.0811 -0.0811,0.0542 -0.0957,0.019 z"
     id="path90" />
  <path
     style="fill:#000000;fill-opacity:1;fill-rule:evenodd;stroke:none;stroke-linecap:round;stroke-linejoin:round;stroke-opacity:1"
     d="m 145.489,113.132 h -0.91 v -1.14 h 0.91 z"
     id="path91" />
  <path
     style="fill:#000000;fill-opacity:1;fill-rule:evenodd;stroke:none;stroke-linecap:round;stroke-linejoin:round;stroke-opacity:1"
     d="m 142.949,113.132 h -0.91 v -1.14 h 0.91 z"
     id="path92" />
  <path
     style="fill:#000000;fill-opacity:1;fill-rule:evenodd;stroke:none;stroke-linecap:round;stroke-linejoin:round;stroke-opacity:1"
     d="m 142.949,106.912 h -0.91 v -1.14 h 0.91 z"
     id="path93" />
  <path
     style="fill:#000000;fill-opacity:1;fill-rule:evenodd;stroke:none;stroke-linecap:round;stroke-linejoin:round;stroke-opacity:1"
     d="m 145.489,106.912 h -0.91 v -1.14 h 0.91 z"
     id="path94" />
  <path
     style="fill:#000000;fill-opacity:1;fill-rule:evenodd;stroke:none;stroke-linecap:round;stroke-linejoin:round;stroke-opacity:1"
     d="m 174.729,122.439 -0.019,0.0957 -0.0542,0.0811 -0.0811,0.0542 -0.0957,0.019 h -1.225 l -0.0957,-0.019 -0.0811,-0.0542 -0.0542,-0.0811 -0.019,-0.0957 v -1.8 l 0.019,-0.0957 0.0542,-0.0811 0.0811,-0.0542 0.0957,-0.019 h 1.225 l 0.0957,0.019 0.0811,0.0542 0.0542,0.0811 0.019,0.0957 z"
     id="path95" />
  <path
     style="fill:#000000;fill-opacity:1;fill-rule:evenodd;stroke:none;stroke-linecap:round;stroke-linejoin:round;stroke-opacity:1"
     d="m 170.404,122.439 -0.019,0.0957 -0.0542,0.0811 -0.0811,0.0542 -0.0957,0.019 h -1.225 l -0.0957,-0.019 -0.0811,-0.0542 -0.0542,-0.0811 -0.019,-0.0957 v -1.8 l 0.019,-0.0957 0.0542,-0.0811 0.0811,-0.0542 0.0957,-0.019 h 1.225 l 0.0957,0.019 0.0811,0.0542 0.0542,0.0811 0.019,0.0957 z"
     id="path96" />
  <path
     style="fill:#000000;fill-opacity:1;fill-rule:evenodd;stroke:none;stroke-linecap:round;stroke-linejoin:round;stroke-opacity:1"
     d="m 157.658,100.769 0.019,-0.0957 0.0542,-0.0811 0.0811,-0.0542 0.0957,-0.019 h 0.7 l 0.0957,0.019 0.0811,0.0542 0.0542,0.0811 0.019,0.0957 v 0.9 l -0.019,0.0957 -0.0542,0.0811 -0.0811,0.0542 -0.0957,0.019 h -0.7 l -0.0957,-0.019 -0.0811,-0.0542 -0.0542,-0.0811 -0.019,-0.0957 z"
     id="path97" />
  <path
     style="fill:#000000;fill-opacity:1;fill-rule:evenodd;stroke:none;stroke-linecap:round;stroke-linejoin:round;stroke-opacity:1"
     d="m 159.658,100.769 0.019,-0.0957 0.0542,-0.0811 0.0811,-0.0542 0.0957,-0.019 h 0.7 l 0.0957,0.019 0.0811,0.0542 0.0542,0.0811 0.019,0.0957 v 0.9 l -0.019,0.0957 -0.0542,0.0811 -0.0811,0.0542 -0.0957,0.019 h -0.7 l -0.0957,-0.019 -0.0811,-0.0542 -0.0542,-0.0811 -0.019,-0.0957 z"
     id="path98" />
  <path
     style="fill:#000000;fill-opacity:1;fill-rule:evenodd;stroke:none;stroke-linecap:round;stroke-linejoin:round;stroke-opacity:1"
     d="m 122.11,113.07 h -0.91 v -1.14 h 0.91 z"
     id="path99" />
  <path
     style="fill:#000000;fill-opacity:1;fill-rule:evenodd;stroke:none;stroke-linecap:round;stroke-linejoin:round;stroke-opacity:1"
     d="m 119.57,113.07 h -0.91 v -1.14 h 0.91 z"
     id="path100" />
  <path
     style="fill:#000000;fill-opacity:1;fill-rule:evenodd;stroke:none;stroke-linecap:round;stroke-linejoin:round;stroke-opacity:1"
     d="m 119.57,106.85 h -0.91 v -1.14 h 0.91 z"
     id="path101" />
  <path
     style="fill:#000000;fill-opacity:1;fill-rule:evenodd;stroke:none;stroke-linecap:round;stroke-linejoin:round;stroke-opacity:1"
     d="m 122.11,106.85 h -0.91 v -1.14 h 0.91 z"
     id="path102" />
  <path
     style="fill:#000000;fill-opacity:1;fill-rule:evenodd;stroke:none;stroke-linecap:round;stroke-linejoin:round;stroke-opacity:1"
     d="m 157.529,65.315 -0.0765,-0.0152 -0.0649,-0.0434 -0.0434,-0.0649 -0.0152,-0.0765 v -1.5 l 0.0152,-0.0765 0.0434,-0.0649 0.0649,-0.0434 0.0765,-0.0152 h 0.4 l 0.0765,0.0152 0.0649,0.0434 0.0434,0.0649 0.0152,0.0765 v 1.5 l -0.0152,0.0765 -0.0434,0.0649 -0.0649,0.0434 -0.0765,0.0152 z"
     id="path103" />
  <path
     style="fill:#000000;fill-opacity:1;fill-rule:evenodd;stroke:none;stroke-linecap:round;stroke-linejoin:round;stroke-opacity:1"
     d="m 155.629,65.315 -0.0765,-0.0152 -0.0649,-0.0434 -0.0434,-0.0649 -0.0152,-0.0765 v -1.5 l 0.0152,-0.0765 0.0434,-0.0649 0.0649,-0.0434 0.0765,-0.0152 h 0.4 l 0.0765,0.0152 0.0649,0.0434 0.0434,0.0649 0.0152,0.0765 v 1.5 l -0.0152,0.0765 -0.0434,0.0649 -0.0649,0.0434 -0.0765,0.0152 z"
     id="path104" />
  <path
     style="fill:#000000;fill-opacity:1;fill-rule:evenodd;stroke:none;stroke-linecap:round;stroke-linejoin:round;stroke-opacity:1"
     d="m 156.579,62.315 -0.0765,-0.0152 -0.0649,-0.0434 -0.0434,-0.0649 -0.0152,-0.0765 v -1.5 l 0.0152,-0.0765 0.0434,-0.0649 0.0649,-0.0434 0.0765,-0.0152 h 0.4 l 0.0765,0.0152 0.0649,0.0434 0.0434,0.0649 0.0152,0.0765 v 1.5 l -0.0152,0.0765 -0.0434,0.0649 -0.0649,0.0434 -0.0765,0.0152 z"
     id="path105" />
  <path
     style="fill:#000000;fill-opacity:1;fill-rule:evenodd;stroke:none;stroke-linecap:round;stroke-linejoin:round;stroke-opacity:1"
     d="m 155.118,66.987 0.019,-0.0957 0.0542,-0.0811 0.0811,-0.0542 0.0957,-0.019 h 0.7 l 0.0957,0.019 0.0811,0.0542 0.0542,0.0811 0.019,0.0957 v 0.9 l -0.019,0.0957 -0.0542,0.0811 -0.0811,0.0542 -0.0957,0.019 h -0.7 l -0.0957,-0.019 -0.0811,-0.0542 -0.0542,-0.0811 -0.019,-0.0957 z"
     id="path106" />
  <path
     style="fill:#000000;fill-opacity:1;fill-rule:evenodd;stroke:none;stroke-linecap:round;stroke-linejoin:round;stroke-opacity:1"
     d="m 157.118,66.987 0.019,-0.0957 0.0542,-0.0811 0.0811,-0.0542 0.0957,-0.019 h 0.7 l 0.0957,0.019 0.0811,0.0542 0.0542,0.0811 0.019,0.0957 v 0.9 l -0.019,0.0957 -0.0542,0.0811 -0.0811,0.0542 -0.0957,0.019 h -0.7 l -0.0957,-0.019 -0.0811,-0.0542 -0.0542,-0.0811 -0.019,-0.0957 z"
     id="path107" />
  <path
     style="fill:#000000;fill-opacity:1;fill-rule:evenodd;stroke:none;stroke-linecap:round;stroke-linejoin:round;stroke-opacity:1"
     d="m 136.463,65.315 -0.0765,-0.0152 -0.0649,-0.0434 -0.0434,-0.0649 -0.0152,-0.0765 v -1.5 l 0.0152,-0.0765 0.0434,-0.0649 0.0649,-0.0434 0.0765,-0.0152 h 0.4 l 0.0765,0.0152 0.0649,0.0434 0.0434,0.0649 0.0152,0.0765 v 1.5 l -0.0152,0.0765 -0.0434,0.0649 -0.0649,0.0434 -0.0765,0.0152 z"
     id="path108" />
  <path
     style="fill:#000000;fill-opacity:1;fill-rule:evenodd;stroke:none;stroke-linecap:round;stroke-linejoin:round;stroke-opacity:1"
     d="m 134.563,65.315 -0.0765,-0.0152 -0.0649,-0.0434 -0.0434,-0.0649 -0.0152,-0.0765 v -1.5 l 0.0152,-0.0765 0.0434,-0.0649 0.0649,-0.0434 0.0765,-0.0152 h 0.4 l 0.0765,0.0152 0.0649,0.0434 0.0434,0.0649 0.0152,0.0765 v 1.5 l -0.0152,0.0765 -0.0434,0.0649 -0.0649,0.0434 -0.0765,0.0152 z"
     id="path109" />
  <path
     style="fill:#000000;fill-opacity:1;fill-rule:evenodd;stroke:none;stroke-linecap:round;stroke-linejoin:round;stroke-opacity:1"
     d="m 135.513,62.315 -0.0765,-0.0152 -0.0649,-0.0434 -0.0434,-0.0649 -0.0152,-0.0765 v -1.5 l 0.0152,-0.0765 0.0434,-0.0649 0.0649,-0.0434 0.0765,-0.0152 h 0.4 l 0.0765,0.0152 0.0649,0.0434 0.0434,0.0649 0.0152,0.0765 v 1.5 l -0.0152,0.0765 -0.0434,0.0649 -0.0649,0.0434 -0.0765,0.0152 z"
     id="path110" />
  <path
     style="fill:#000000;fill-opacity:1;fill-rule:evenodd;stroke:none;stroke-linecap:round;stroke-linejoin:round;stroke-opacity:1"
     d="m 89.3156,113.5862 0.019,-0.0957 0.0542,-0.0811 0.0811,-0.0542 0.0957,-0.019 h 0.9 l 0.0957,0.019 0.0811,0.0542 0.0542,0.0811 0.019,0.0957 v 2.85 l -0.019,0.0957 -0.0542,0.0811 -0.0811,0.0542 -0.0957,0.019 h -0.9 l -0.0957,-0.019 -0.0811,-0.0542 -0.0542,-0.0811 -0.019,-0.0957 z"
     id="path111" />
  <path
     style="fill:#000000;fill-opacity:1;fill-rule:evenodd;stroke:none;stroke-linecap:round;stroke-linejoin:round;stroke-opacity:1"
     d="m 95.4156,113.5862 0.019,-0.0957 0.0542,-0.0811 0.0811,-0.0542 0.0957,-0.019 h 0.9 l 0.0957,0.019 0.0811,0.0542 0.0542,0.0811 0.019,0.0957 v 2.85 l -0.019,0.0957 -0.0542,0.0811 -0.0811,0.0542 -0.0957,0.019 h -0.9 l -0.0957,-0.019 -0.0811,-0.0542 -0.0542,-0.0811 -0.019,-0.0957 z"
     id="path112" />
  <path
     style="fill:#000000;fill-opacity:1;fill-rule:evenodd;stroke:none;stroke-linecap:round;stroke-linejoin:round;stroke-opacity:1"
     d="m 106.292,72.395 0.0957,0.019 0.0811,0.0542 0.0542,0.0811 0.019,0.0957 v 2 l -0.019,0.0957 -0.0542,0.0811 -0.0811,0.0542 -0.0957,0.019 h -1.3 l -0.0957,-0.019 -0.0811,-0.0542 -0.0542,-0.0811 -0.019,-0.0957 v -2 l 0.019,-0.0957 0.0542,-0.0811 0.0811,-0.0542 0.0957,-0.019 z"
     id="path113" />
  <path
     style="fill:#000000;fill-opacity:1;fill-rule:evenodd;stroke:none;stroke-linecap:round;stroke-linejoin:round;stroke-opacity:1"
     d="m 106.292,76.395 0.0957,0.019 0.0811,0.0542 0.0542,0.0811 0.019,0.0957 v 2 l -0.019,0.0957 -0.0542,0.0811 -0.0811,0.0542 -0.0957,0.019 h -1.3 l -0.0957,-0.019 -0.0811,-0.0542 -0.0542,-0.0811 -0.019,-0.0957 v -2 l 0.019,-0.0957 0.0542,-0.0811 0.0811,-0.0542 0.0957,-0.019 z"
     id="path114" />
  <path
     style="fill:#000000;fill-opacity:1;fill-rule:evenodd;stroke:none;stroke-linecap:round;stroke-linejoin:round;stroke-opacity:1"
     d="m 143.187,75.26 -0.0957,-0.019 -0.0811,-0.0542 -0.0542,-0.0811 -0.019,-0.0957 v -0.7 l 0.019,-0.0957 0.0542,-0.0811 0.0811,-0.0542 0.0957,-0.019 h 0.9 l 0.0957,0.019 0.0811,0.0542 0.0542,0.0811 0.019,0.0957 v 0.7 l -0.019,0.0957 -0.0542,0.0811 -0.0811,0.0542 -0.0957,0.019 z"
     id="path115" />
  <path
     style="fill:#000000;fill-opacity:1;fill-rule:evenodd;stroke:none;stroke-linecap:round;stroke-linejoin:round;stroke-opacity:1"
     d="m 143.187,73.26 -0.0957,-0.019 -0.0811,-0.0542 -0.0542,-0.0811 -0.019,-0.0957 v -0.7 l 0.019,-0.0957 0.0542,-0.0811 0.0811,-0.0542 0.0957,-0.019 h 0.9 l 0.0957,0.019 0.0811,0.0542 0.0542,0.0811 0.019,0.0957 v 0.7 l -0.019,0.0957 -0.0542,0.0811 -0.0811,0.0542 -0.0957,0.019 z"
     id="path116" />
  <path
     style="fill:#000000;fill-opacity:1;fill-rule:evenodd;stroke:none;stroke-linecap:round;stroke-linejoin:round;stroke-opacity:1"
     d="m 169.947,76.731 -0.0114,0.0574 -0.0325,0.0487 -0.0487,0.0325 -0.0574,0.0114 h -1.65 l -0.0574,-0.0114 -0.0487,-0.0325 -0.0325,-0.0487 -0.0114,-0.0574 v -0.3 l 0.0114,-0.0574 0.0325,-0.0487 0.0487,-0.0325 0.0574,-0.0114 h 1.65 l 0.0574,0.0114 0.0487,0.0325 0.0325,0.0487 0.0114,0.0574 z"
     id="path117" />
  <path
     style="fill:#000000;fill-opacity:1;fill-rule:evenodd;stroke:none;stroke-linecap:round;stroke-linejoin:round;stroke-opacity:1"
     d="m 169.947,78.001 -0.0114,0.0574 -0.0325,0.0487 -0.0487,0.0325 -0.0574,0.0114 h -1.65 l -0.0574,-0.0114 -0.0487,-0.0325 -0.0325,-0.0487 -0.0114,-0.0574 v -0.3 l 0.0114,-0.0574 0.0325,-0.0487 0.0487,-0.0325 0.0574,-0.0114 h 1.65 l 0.0574,0.0114 0.0487,0.0325 0.0325,0.0487 0.0114,0.0574 z"
     id="path118" />
  <path
     style="fill:#000000;fill-opacity:1;fill-rule:evenodd;stroke:none;stroke-linecap:round;stroke-linejoin:round;stroke-opacity:1"
     d="m 169.947,79.271 -0.0114,0.0574 -0.0325,0.0487 -0.0487,0.0325 -0.0574,0.0114 h -1.65 l -0.0574,-0.0114 -0.0487,-0.0325 -0.0325,-0.0487 -0.0114,-0.0574 v -0.3 l 0.0114,-0.0574 0.0325,-0.0487 0.0487,-0.0325 0.0574,-0.0114 h 1.65 l 0.0574,0.0114 0.0487,0.0325 0.0325,0.0487 0.0114,0.0574 z"
     id="path119" />
  <path
     style="fill:#000000;fill-opacity:1;fill-rule:evenodd;stroke:none;stroke-linecap:round;stroke-linejoin:round;stroke-opacity:1"
     d="m 169.947,80.541 -0.0114,0.0574 -0.0325,0.0487 -0.0487,0.0325 -0.0574,0.0114 h -1.65 l -0.0574,-0.0114 -0.0487,-0.0325 -0.0325,-0.0487 -0.0114,-0.0574 v -0.3 l 0.0114,-0.0574 0.0325,-0.0487 0.0487,-0.0325 0.0574,-0.0114 h 1.65 l 0.0574,0.0114 0.0487,0.0325 0.0325,0.0487 0.0114,0.0574 z"
     id="path120" />
  <path
     style="fill:#000000;fill-opacity:1;fill-rule:evenodd;stroke:none;stroke-linecap:round;stroke-linejoin:round;stroke-opacity:1"
     d="m 164.997,80.541 -0.0114,0.0574 -0.0325,0.0487 -0.0487,0.0325 -0.0574,0.0114 h -1.65 l -0.0574,-0.0114 -0.0487,-0.0325 -0.0325,-0.0487 -0.0114,-0.0574 v -0.3 l 0.0114,-0.0574 0.0325,-0.0487 0.0487,-0.0325 0.0574,-0.0114 h 1.65 l 0.0574,0.0114 0.0487,0.0325 0.0325,0.0487 0.0114,0.0574 z"
     id="path121" />
  <path
     style="fill:#000000;fill-opacity:1;fill-rule:evenodd;stroke:none;stroke-linecap:round;stroke-linejoin:round;stroke-opacity:1"
     d="m 164.997,79.271 -0.0114,0.0574 -0.0325,0.0487 -0.0487,0.0325 -0.0574,0.0114 h -1.65 l -0.0574,-0.0114 -0.0487,-0.0325 -0.0325,-0.0487 -0.0114,-0.0574 v -0.3 l 0.0114,-0.0574 0.0325,-0.0487 0.0487,-0.0325 0.0574,-0.0114 h 1.65 l 0.0574,0.0114 0.0487,0.0325 0.0325,0.0487 0.0114,0.0574 z"
     id="path122" />
  <path
     style="fill:#000000;fill-opacity:1;fill-rule:evenodd;stroke:none;stroke-linecap:round;stroke-linejoin:round;stroke-opacity:1"
     d="m 164.997,78.001 -0.0114,0.0574 -0.0325,0.0487 -0.0487,0.0325 -0.0574,0.0114 h -1.65 l -0.0574,-0.0114 -0.0487,-0.0325 -0.0325,-0.0487 -0.0114,-0.0574 v -0.3 l 0.0114,-0.0574 0.0325,-0.0487 0.0487,-0.0325 0.0574,-0.0114 h 1.65 l 0.0574,0.0114 0.0487,0.0325 0.0325,0.0487 0.0114,0.0574 z"
     id="path123" />
  <path
     style="fill:#000000;fill-opacity:1;fill-rule:evenodd;stroke:none;stroke-linecap:round;stroke-linejoin:round;stroke-opacity:1"
     d="m 164.997,76.731 -0.0114,0.0574 -0.0325,0.0487 -0.0487,0.0325 -0.0574,0.0114 h -1.65 l -0.0574,-0.0114 -0.0487,-0.0325 -0.0325,-0.0487 -0.0114,-0.0574 v -0.3 l 0.0114,-0.0574 0.0325,-0.0487 0.0487,-0.0325 0.0574,-0.0114 h 1.65 l 0.0574,0.0114 0.0487,0.0325 0.0325,0.0487 0.0114,0.0574 z"
     id="path124" />
  <path
     style="fill:#000000;fill-opacity:1;fill-rule:evenodd;stroke:none;stroke-linecap:round;stroke-linejoin:round;stroke-opacity:1"
     d="m 169.088,66.987 0.019,-0.0957 0.0542,-0.0811 0.0811,-0.0542 0.0957,-0.019 h 0.7 l 0.0957,0.019 0.0811,0.0542 0.0542,0.0811 0.019,0.0957 v 0.9 l -0.019,0.0957 -0.0542,0.0811 -0.0811,0.0542 -0.0957,0.019 h -0.7 l -0.0957,-0.019 -0.0811,-0.0542 -0.0542,-0.0811 -0.019,-0.0957 z"
     id="path125" />
  <path
     style="fill:#000000;fill-opacity:1;fill-rule:evenodd;stroke:none;stroke-linecap:round;stroke-linejoin:round;stroke-opacity:1"
     d="m 171.088,66.987 0.019,-0.0957 0.0542,-0.0811 0.0811,-0.0542 0.0957,-0.019 h 0.7 l 0.0957,0.019 0.0811,0.0542 0.0542,0.0811 0.019,0.0957 v 0.9 l -0.019,0.0957 -0.0542,0.0811 -0.0811,0.0542 -0.0957,0.019 h -0.7 l -0.0957,-0.019 -0.0811,-0.0542 -0.0542,-0.0811 -0.019,-0.0957 z"
     id="path126" />
  <path
     style="fill:#000000;fill-opacity:1;fill-rule:evenodd;stroke:none;stroke-linecap:round;stroke-linejoin:round;stroke-opacity:1"
     d="m 125.831,102.828 -0.0957,-0.019 -0.0811,-0.0542 -0.0542,-0.0811 -0.019,-0.0957 v -2 l 0.019,-0.0957 0.0542,-0.0811 0.0811,-0.0542 0.0957,-0.019 h 1.3 l 0.0957,0.019 0.0811,0.0542 0.0542,0.0811 0.019,0.0957 v 2 l -0.019,0.0957 -0.0542,0.0811 -0.0811,0.0542 -0.0957,0.019 z"
     id="path127" />
  <path
     style="fill:#000000;fill-opacity:1;fill-rule:evenodd;stroke:none;stroke-linecap:round;stroke-linejoin:round;stroke-opacity:1"
     d="m 125.831,98.828 -0.0957,-0.019 -0.0811,-0.0542 -0.0542,-0.0811 -0.019,-0.0957 v -2 l 0.019,-0.0957 0.0542,-0.0811 0.0811,-0.0542 0.0957,-0.019 h 1.3 l 0.0957,0.019 0.0811,0.0542 0.0542,0.0811 0.019,0.0957 v 2 l -0.019,0.0957 -0.0542,0.0811 -0.0811,0.0542 -0.0957,0.019 z"
     id="path128" />
  <path
     style="fill:#000000;fill-opacity:1;fill-rule:evenodd;stroke:none;stroke-linecap:round;stroke-linejoin:round;stroke-opacity:1"
     d="m 166.088,99.5435 -0.0574,-0.0114 -0.0487,-0.0325 -0.0325,-0.0487 -0.0114,-0.0574 v -1.175 l 0.0114,-0.0574 0.0325,-0.0487 0.0487,-0.0325 0.0574,-0.0114 h 0.3 l 0.0574,0.0114 0.0487,0.0325 0.0325,0.0487 0.0114,0.0574 v 1.175 l -0.0114,0.0574 -0.0325,0.0487 -0.0487,0.0325 -0.0574,0.0114 z"
     id="path129" />
  <path
     style="fill:#000000;fill-opacity:1;fill-rule:evenodd;stroke:none;stroke-linecap:round;stroke-linejoin:round;stroke-opacity:1"
     d="m 164.188,99.5435 -0.0574,-0.0114 -0.0487,-0.0325 -0.0325,-0.0487 -0.0114,-0.0574 v -1.175 l 0.0114,-0.0574 0.0325,-0.0487 0.0487,-0.0325 0.0574,-0.0114 h 0.3 l 0.0574,0.0114 0.0487,0.0325 0.0325,0.0487 0.0114,0.0574 v 1.175 l -0.0114,0.0574 -0.0325,0.0487 -0.0487,0.0325 -0.0574,0.0114 z"
     id="path130" />
  <path
     style="fill:#000000;fill-opacity:1;fill-rule:evenodd;stroke:none;stroke-linecap:round;stroke-linejoin:round;stroke-opacity:1"
     d="m 165.138,97.6685 -0.0574,-0.0114 -0.0487,-0.0325 -0.0325,-0.0487 -0.0114,-0.0574 v -1.175 l 0.0114,-0.0574 0.0325,-0.0487 0.0487,-0.0325 0.0574,-0.0114 h 0.3 l 0.0574,0.0114 0.0487,0.0325 0.0325,0.0487 0.0114,0.0574 v 1.175 l -0.0114,0.0574 -0.0325,0.0487 -0.0487,0.0325 -0.0574,0.0114 z"
     id="path131" />
  <path
     style="fill:#000000;fill-opacity:1;fill-rule:evenodd;stroke:none;stroke-linecap:round;stroke-linejoin:round;stroke-opacity:1"
     d="m 92.34,81.43 0.0957,0.019 0.0811,0.0542 0.0542,0.0811 0.019,0.0957 v 1.225 l -0.019,0.0957 -0.0542,0.0811 -0.0811,0.0542 -0.0957,0.019 h -1.8 L 90.4443,83.136 90.3632,83.0818 90.309,83.0007 90.29,82.905 V 81.68 l 0.019,-0.0957 0.0542,-0.0811 0.0811,-0.0542 0.0957,-0.019 z"
     id="path132" />
  <path
     style="fill:#000000;fill-opacity:1;fill-rule:evenodd;stroke:none;stroke-linecap:round;stroke-linejoin:round;stroke-opacity:1"
     d="m 92.34,85.755 0.0957,0.019 0.0811,0.0542 0.0542,0.0811 0.019,0.0957 v 1.225 l -0.019,0.0957 -0.0542,0.0811 -0.0811,0.0542 -0.0957,0.019 h -1.8 L 90.4443,87.461 90.3632,87.4068 90.309,87.3257 90.29,87.23 v -1.225 l 0.019,-0.0957 0.0542,-0.0811 0.0811,-0.0542 0.0957,-0.019 z"
     id="path133" />
  <path
     style="fill:#000000;fill-opacity:1;fill-rule:evenodd;stroke:none;stroke-linecap:round;stroke-linejoin:round;stroke-opacity:1"
     d="m 129.476,113.07 h -0.91 v -1.14 h 0.91 z"
     id="path134" />
  <path
     style="fill:#000000;fill-opacity:1;fill-rule:evenodd;stroke:none;stroke-linecap:round;stroke-linejoin:round;stroke-opacity:1"
     d="m 126.936,113.07 h -0.91 v -1.14 h 0.91 z"
     id="path135" />
  <path
     style="fill:#000000;fill-opacity:1;fill-rule:evenodd;stroke:none;stroke-linecap:round;stroke-linejoin:round;stroke-opacity:1"
     d="m 126.936,106.85 h -0.91 v -1.14 h 0.91 z"
     id="path136" />
  <path
     style="fill:#000000;fill-opacity:1;fill-rule:evenodd;stroke:none;stroke-linecap:round;stroke-linejoin:round;stroke-opacity:1"
     d="m 129.476,106.85 h -0.91 v -1.14 h 0.91 z"
     id="path137" />
  <path
     style="fill:#000000;fill-opacity:1;fill-rule:evenodd;stroke:none;stroke-linecap:round;stroke-linejoin:round;stroke-opacity:1"
     d="m 160.597,66.737 0.0957,0.019 0.0811,0.0542 0.0542,0.0811 0.019,0.0957 v 0.7 l -0.019,0.0957 -0.0542,0.0811 -0.0811,0.0542 -0.0957,0.019 h -0.9 l -0.0957,-0.019 -0.0811,-0.0542 -0.0542,-0.0811 -0.019,-0.0957 v -0.7 l 0.019,-0.0957 0.0542,-0.0811 0.0811,-0.0542 0.0957,-0.019 z"
     id="path138" />
  <path
     style="fill:#000000;fill-opacity:1;fill-rule:evenodd;stroke:none;stroke-linecap:round;stroke-linejoin:round;stroke-opacity:1"
     d="m 160.597,68.737 0.0957,0.019 0.0811,0.0542 0.0542,0.0811 0.019,0.0957 v 0.7 l -0.019,0.0957 -0.0542,0.0811 -0.0811,0.0542 -0.0957,0.019 h -0.9 l -0.0957,-0.019 -0.0811,-0.0542 -0.0542,-0.0811 -0.019,-0.0957 v -0.7 l 0.019,-0.0957 0.0542,-0.0811 0.0811,-0.0542 0.0957,-0.019 z"
     id="path139" />
  <path
     style="fill:#000000;fill-opacity:1;fill-rule:evenodd;stroke:none;stroke-linecap:round;stroke-linejoin:round;stroke-opacity:1"
     d="m 139.139,113.07 h -0.91 v -1.14 h 0.91 z"
     id="path140" />
  <path
     style="fill:#000000;fill-opacity:1;fill-rule:evenodd;stroke:none;stroke-linecap:round;stroke-linejoin:round;stroke-opacity:1"
     d="m 136.599,113.07 h -0.91 v -1.14 h 0.91 z"
     id="path141" />
  <path
     style="fill:#000000;fill-opacity:1;fill-rule:evenodd;stroke:none;stroke-linecap:round;stroke-linejoin:round;stroke-opacity:1"
     d="m 136.599,106.85 h -0.91 v -1.14 h 0.91 z"
     id="path142" />
  <path
     style="fill:#000000;fill-opacity:1;fill-rule:evenodd;stroke:none;stroke-linecap:round;stroke-linejoin:round;stroke-opacity:1"
     d="m 139.139,106.85 h -0.91 v -1.14 h 0.91 z"
     id="path143" />
  <path
     style="fill:#000000;fill-opacity:1;fill-rule:evenodd;stroke:none;stroke-linecap:round;stroke-linejoin:round;stroke-opacity:1"
     d="m 106.605,89.517 h -0.91 v -1.14 h 0.91 z"
     id="path144" />
  <path
     style="fill:#000000;fill-opacity:1;fill-rule:evenodd;stroke:none;stroke-linecap:round;stroke-linejoin:round;stroke-opacity:1"
     d="m 104.065,89.517 h -0.91 v -1.14 h 0.91 z"
     id="path145" />
  <path
     style="fill:#000000;fill-opacity:1;fill-rule:evenodd;stroke:none;stroke-linecap:round;stroke-linejoin:round;stroke-opacity:1"
     d="m 104.065,83.297 h -0.91 v -1.14 h 0.91 z"
     id="path146" />
  <path
     style="fill:#000000;fill-opacity:1;fill-rule:evenodd;stroke:none;stroke-linecap:round;stroke-linejoin:round;stroke-opacity:1"
     d="m 106.605,83.297 h -0.91 v -1.14 h 0.91 z"
     id="path147" />
  <path
     style="fill:#000000;fill-opacity:1;fill-rule:evenodd;stroke:none;stroke-linecap:round;stroke-linejoin:round;stroke-opacity:1"
     d="m 148.006,66.987 0.019,-0.0957 0.0542,-0.0811 0.0811,-0.0542 0.0957,-0.019 h 0.7 l 0.0957,0.019 0.0811,0.0542 0.0542,0.0811 0.019,0.0957 v 0.9 l -0.019,0.0957 -0.0542,0.0811 -0.0811,0.0542 -0.0957,0.019 h -0.7 l -0.0957,-0.019 -0.0811,-0.0542 -0.0542,-0.0811 -0.019,-0.0957 z"
     id="path148" />
  <path
     style="fill:#000000;fill-opacity:1;fill-rule:evenodd;stroke:none;stroke-linecap:round;stroke-linejoin:round;stroke-opacity:1"
     d="m 150.006,66.987 0.019,-0.0957 0.0542,-0.0811 0.0811,-0.0542 0.0957,-0.019 h 0.7 l 0.0957,0.019 0.0811,0.0542 0.0542,0.0811 0.019,0.0957 v 0.9 l -0.019,0.0957 -0.0542,0.0811 -0.0811,0.0542 -0.0957,0.019 h -0.7 l -0.0957,-0.019 -0.0811,-0.0542 -0.0542,-0.0811 -0.019,-0.0957 z"
     id="path149" />
  <path
     style="fill:none;fill-opacity:1;stroke:#ff0000;stroke-width:0.26458333;stroke-linecap:round;stroke-linejoin:round;stroke-opacity:1;stroke-dasharray:none"
     d="m 75.7,50.8 h 103 v 87 h -103 z"
     id="path150" />
</svg>
