%TF.GenerationSoftware,KiCad,Pcbnew,8.0.6*%
%TF.CreationDate,2025-03-31T10:23:45+02:00*%
%TF.ProjectId,ventil,76656e74-696c-42e6-9b69-6361645f7063,rev?*%
%TF.SameCoordinates,Original*%
%TF.FileFunction,Copper,L1,Top*%
%TF.FilePolarity,Positive*%
%FSLAX46Y46*%
G04 Gerber Fmt 4.6, Leading zero omitted, Abs format (unit mm)*
G04 Created by KiCad (PCBNEW 8.0.6) date 2025-03-31 10:23:45*
%MOMM*%
%LPD*%
G01*
G04 APERTURE LIST*
G04 Aperture macros list*
%AMRoundRect*
0 Rectangle with rounded corners*
0 $1 Rounding radius*
0 $2 $3 $4 $5 $6 $7 $8 $9 X,Y pos of 4 corners*
0 Add a 4 corners polygon primitive as box body*
4,1,4,$2,$3,$4,$5,$6,$7,$8,$9,$2,$3,0*
0 Add four circle primitives for the rounded corners*
1,1,$1+$1,$2,$3*
1,1,$1+$1,$4,$5*
1,1,$1+$1,$6,$7*
1,1,$1+$1,$8,$9*
0 Add four rect primitives between the rounded corners*
20,1,$1+$1,$2,$3,$4,$5,0*
20,1,$1+$1,$4,$5,$6,$7,0*
20,1,$1+$1,$6,$7,$8,$9,0*
20,1,$1+$1,$8,$9,$2,$3,0*%
%AMFreePoly0*
4,1,6,0.500000,-0.850000,-0.500000,-0.850000,-0.500000,0.550000,-0.200000,0.850000,0.500000,0.850000,0.500000,-0.850000,0.500000,-0.850000,$1*%
G04 Aperture macros list end*
%TA.AperFunction,SMDPad,CuDef*%
%ADD10RoundRect,0.237500X0.237500X-0.300000X0.237500X0.300000X-0.237500X0.300000X-0.237500X-0.300000X0*%
%TD*%
%TA.AperFunction,SMDPad,CuDef*%
%ADD11RoundRect,0.250000X-0.350000X-0.450000X0.350000X-0.450000X0.350000X0.450000X-0.350000X0.450000X0*%
%TD*%
%TA.AperFunction,SMDPad,CuDef*%
%ADD12RoundRect,0.237500X-0.300000X-0.237500X0.300000X-0.237500X0.300000X0.237500X-0.300000X0.237500X0*%
%TD*%
%TA.AperFunction,SMDPad,CuDef*%
%ADD13RoundRect,0.150000X0.825000X0.150000X-0.825000X0.150000X-0.825000X-0.150000X0.825000X-0.150000X0*%
%TD*%
%TA.AperFunction,SMDPad,CuDef*%
%ADD14RoundRect,0.212500X0.212500X1.562500X-0.212500X1.562500X-0.212500X-1.562500X0.212500X-1.562500X0*%
%TD*%
%TA.AperFunction,SMDPad,CuDef*%
%ADD15RoundRect,0.212500X0.212500X1.112500X-0.212500X1.112500X-0.212500X-1.112500X0.212500X-1.112500X0*%
%TD*%
%TA.AperFunction,SMDPad,CuDef*%
%ADD16RoundRect,0.250000X0.350000X0.450000X-0.350000X0.450000X-0.350000X-0.450000X0.350000X-0.450000X0*%
%TD*%
%TA.AperFunction,SMDPad,CuDef*%
%ADD17RoundRect,0.250000X-0.475000X0.337500X-0.475000X-0.337500X0.475000X-0.337500X0.475000X0.337500X0*%
%TD*%
%TA.AperFunction,SMDPad,CuDef*%
%ADD18RoundRect,0.237500X0.300000X0.237500X-0.300000X0.237500X-0.300000X-0.237500X0.300000X-0.237500X0*%
%TD*%
%TA.AperFunction,SMDPad,CuDef*%
%ADD19RoundRect,0.250000X-1.500000X-0.900000X1.500000X-0.900000X1.500000X0.900000X-1.500000X0.900000X0*%
%TD*%
%TA.AperFunction,SMDPad,CuDef*%
%ADD20RoundRect,0.150000X-0.825000X-0.150000X0.825000X-0.150000X0.825000X0.150000X-0.825000X0.150000X0*%
%TD*%
%TA.AperFunction,SMDPad,CuDef*%
%ADD21RoundRect,0.237500X-0.287500X-0.237500X0.287500X-0.237500X0.287500X0.237500X-0.287500X0.237500X0*%
%TD*%
%TA.AperFunction,SMDPad,CuDef*%
%ADD22R,0.850000X2.650000*%
%TD*%
%TA.AperFunction,SMDPad,CuDef*%
%ADD23R,0.850000X3.550000*%
%TD*%
%TA.AperFunction,SMDPad,CuDef*%
%ADD24RoundRect,0.150000X0.150000X-0.587500X0.150000X0.587500X-0.150000X0.587500X-0.150000X-0.587500X0*%
%TD*%
%TA.AperFunction,SMDPad,CuDef*%
%ADD25RoundRect,0.250000X0.450000X-0.350000X0.450000X0.350000X-0.450000X0.350000X-0.450000X-0.350000X0*%
%TD*%
%TA.AperFunction,SMDPad,CuDef*%
%ADD26RoundRect,0.250000X-0.412500X-1.100000X0.412500X-1.100000X0.412500X1.100000X-0.412500X1.100000X0*%
%TD*%
%TA.AperFunction,SMDPad,CuDef*%
%ADD27RoundRect,0.250000X-0.450000X0.350000X-0.450000X-0.350000X0.450000X-0.350000X0.450000X0.350000X0*%
%TD*%
%TA.AperFunction,SMDPad,CuDef*%
%ADD28RoundRect,0.150000X-0.150000X0.825000X-0.150000X-0.825000X0.150000X-0.825000X0.150000X0.825000X0*%
%TD*%
%TA.AperFunction,SMDPad,CuDef*%
%ADD29RoundRect,0.250000X0.850000X0.350000X-0.850000X0.350000X-0.850000X-0.350000X0.850000X-0.350000X0*%
%TD*%
%TA.AperFunction,SMDPad,CuDef*%
%ADD30RoundRect,0.250000X1.275000X1.125000X-1.275000X1.125000X-1.275000X-1.125000X1.275000X-1.125000X0*%
%TD*%
%TA.AperFunction,SMDPad,CuDef*%
%ADD31RoundRect,0.249997X2.950003X2.650003X-2.950003X2.650003X-2.950003X-2.650003X2.950003X-2.650003X0*%
%TD*%
%TA.AperFunction,SMDPad,CuDef*%
%ADD32R,0.550000X0.250000*%
%TD*%
%TA.AperFunction,SMDPad,CuDef*%
%ADD33FreePoly0,0.000000*%
%TD*%
%TA.AperFunction,SMDPad,CuDef*%
%ADD34RoundRect,0.250000X0.475000X-0.337500X0.475000X0.337500X-0.475000X0.337500X-0.475000X-0.337500X0*%
%TD*%
%TA.AperFunction,ComponentPad*%
%ADD35RoundRect,0.250000X0.725000X-0.600000X0.725000X0.600000X-0.725000X0.600000X-0.725000X-0.600000X0*%
%TD*%
%TA.AperFunction,ComponentPad*%
%ADD36O,1.950000X1.700000*%
%TD*%
%TA.AperFunction,ViaPad*%
%ADD37C,1.600000*%
%TD*%
%TA.AperFunction,Conductor*%
%ADD38C,0.800000*%
%TD*%
%TA.AperFunction,Conductor*%
%ADD39C,0.500000*%
%TD*%
%TA.AperFunction,Conductor*%
%ADD40C,0.300000*%
%TD*%
%TA.AperFunction,Conductor*%
%ADD41C,0.200000*%
%TD*%
%TA.AperFunction,Conductor*%
%ADD42C,0.600000*%
%TD*%
G04 APERTURE END LIST*
D10*
%TO.P,C7,1*%
%TO.N,/Lbus*%
X145694400Y-154634100D03*
%TO.P,C7,2*%
%TO.N,GND*%
X145694400Y-152909100D03*
%TD*%
D11*
%TO.P,R14,1*%
%TO.N,Lrx*%
X157089600Y-143205200D03*
%TO.P,R14,2*%
%TO.N,+5V*%
X159089600Y-143205200D03*
%TD*%
D12*
%TO.P,C3,1*%
%TO.N,+5V*%
X154942200Y-128371600D03*
%TO.P,C3,2*%
%TO.N,GND*%
X156667200Y-128371600D03*
%TD*%
D13*
%TO.P,U6,1,I1*%
%TO.N,Net-(U2-RC2{slash}CxIN2-)*%
X144729200Y-134493000D03*
%TO.P,U6,2,I2*%
%TO.N,Net-(U2-RC3{slash}CxIN3-)*%
X144729200Y-133223000D03*
%TO.P,U6,3,I3*%
%TO.N,Net-(U2-RC4)*%
X144729200Y-131953000D03*
%TO.P,U6,4,I4*%
%TO.N,Net-(U2-RC5)*%
X144729200Y-130683000D03*
%TO.P,U6,5,I5*%
%TO.N,GND*%
X144729200Y-129413000D03*
%TO.P,U6,6,I6*%
X144729200Y-128143000D03*
%TO.P,U6,7,I7*%
X144729200Y-126873000D03*
%TO.P,U6,8,GND*%
X144729200Y-125603000D03*
%TO.P,U6,9,COM*%
%TO.N,+12V*%
X139779200Y-125603000D03*
%TO.P,U6,10,O7*%
%TO.N,unconnected-(U6-O7-Pad10)*%
X139779200Y-126873000D03*
%TO.P,U6,11,O6*%
%TO.N,unconnected-(U6-O6-Pad11)*%
X139779200Y-128143000D03*
%TO.P,U6,12,O5*%
%TO.N,unconnected-(U6-O5-Pad12)*%
X139779200Y-129413000D03*
%TO.P,U6,13,O4*%
%TO.N,Net-(J2-Pin_5)*%
X139779200Y-130683000D03*
%TO.P,U6,14,O3*%
%TO.N,Net-(J2-Pin_4)*%
X139779200Y-131953000D03*
%TO.P,U6,15,O2*%
%TO.N,Net-(J2-Pin_3)*%
X139779200Y-133223000D03*
%TO.P,U6,16,O1*%
%TO.N,Net-(J2-Pin_2)*%
X139779200Y-134493000D03*
%TD*%
D14*
%TO.P,J3,1,Pin_1*%
%TO.N,/Lbus*%
X133690800Y-152606200D03*
D15*
X133690800Y-148706200D03*
D14*
%TO.P,J3,2,Pin_2*%
%TO.N,unconnected-(J3-Pin_2-Pad2)*%
X135190800Y-152606200D03*
D15*
%TO.N,unconnected-(J3-Pin_2-Pad2)_1*%
X135190800Y-148706200D03*
D14*
%TO.P,J3,3,Pin_3*%
%TO.N,+12V*%
X136690800Y-152606200D03*
D15*
X136690800Y-148706200D03*
D14*
%TO.P,J3,4,Pin_4*%
%TO.N,GND*%
X138190800Y-152606200D03*
D15*
X138190800Y-148706200D03*
%TD*%
D16*
%TO.P,R3,1*%
%TO.N,Net-(J4-Pin_3)*%
X165658800Y-143205200D03*
%TO.P,R3,2*%
%TO.N,+5V*%
X163658800Y-143205200D03*
%TD*%
D10*
%TO.P,C2,1*%
%TO.N,GND*%
X158851600Y-150265300D03*
%TO.P,C2,2*%
%TO.N,~{MCLR}*%
X158851600Y-148540300D03*
%TD*%
D17*
%TO.P,C6,1*%
%TO.N,+12V*%
X149047200Y-149330500D03*
%TO.P,C6,2*%
%TO.N,GND*%
X149047200Y-151405500D03*
%TD*%
D18*
%TO.P,C1,1*%
%TO.N,+5V*%
X171487544Y-139141200D03*
%TO.P,C1,2*%
%TO.N,GND*%
X169762544Y-139141200D03*
%TD*%
D19*
%TO.P,D2,1,A1*%
%TO.N,+12V*%
X137355600Y-143002000D03*
%TO.P,D2,2,A2*%
%TO.N,GND*%
X142755600Y-143002000D03*
%TD*%
D11*
%TO.P,R6,1*%
%TO.N,/PGD*%
X162610800Y-117144800D03*
%TO.P,R6,2*%
%TO.N,GND*%
X164610800Y-117144800D03*
%TD*%
D20*
%TO.P,U2,1,Vdd*%
%TO.N,+5V*%
X153495200Y-132181600D03*
%TO.P,U2,2,RA5/OSC1*%
%TO.N,Lrx*%
X153495200Y-133451600D03*
%TO.P,U2,3,RA4/OSC2*%
%TO.N,Ltx*%
X153495200Y-134721600D03*
%TO.P,U2,4,RA3/~{MCLR}*%
%TO.N,~{MCLR}*%
X153495200Y-135991600D03*
%TO.P,U2,5,RC5*%
%TO.N,Net-(U2-RC5)*%
X153495200Y-137261600D03*
%TO.P,U2,6,RC4*%
%TO.N,Net-(U2-RC4)*%
X153495200Y-138531600D03*
%TO.P,U2,7,RC3/CxIN3-*%
%TO.N,Net-(U2-RC3{slash}CxIN3-)*%
X153495200Y-139801600D03*
%TO.P,U2,8,RC2/CxIN2-*%
%TO.N,Net-(U2-RC2{slash}CxIN2-)*%
X158445200Y-139801600D03*
%TO.P,U2,9,RC1/CxIN1-/SDA*%
%TO.N,Net-(J4-Pin_3)*%
X158445200Y-138531600D03*
%TO.P,U2,10,RC0/C2IN0+/SCL*%
%TO.N,Net-(J4-Pin_4)*%
X158445200Y-137261600D03*
%TO.P,U2,11,RA2/VREF-*%
%TO.N,/LED*%
X158445200Y-135991600D03*
%TO.P,U2,12,RA1/VREF+/CxIN0-/ICSPCLK*%
%TO.N,/PGC*%
X158445200Y-134721600D03*
%TO.P,U2,13,RA0/C1IN0+/ICSPDAT*%
%TO.N,/PGD*%
X158445200Y-133451600D03*
%TO.P,U2,14,Vss*%
%TO.N,GND*%
X158445200Y-132181600D03*
%TD*%
D21*
%TO.P,D1,1,K*%
%TO.N,Net-(D1-K)*%
X164350000Y-123815600D03*
%TO.P,D1,2,A*%
%TO.N,Net-(D1-A)*%
X166100000Y-123815600D03*
%TD*%
D12*
%TO.P,C5,1*%
%TO.N,+12V*%
X142266500Y-122174000D03*
%TO.P,C5,2*%
%TO.N,GND*%
X143991500Y-122174000D03*
%TD*%
D16*
%TO.P,R7,1*%
%TO.N,+5V*%
X165118800Y-132400800D03*
%TO.P,R7,2*%
%TO.N,/LED*%
X163118800Y-132400800D03*
%TD*%
D22*
%TO.P,J1,1,Pin_1*%
%TO.N,~{MCLR}*%
X153490800Y-118629600D03*
D23*
X153490800Y-122529600D03*
D22*
%TO.P,J1,2,Pin_2*%
%TO.N,+5V*%
X154990800Y-118629600D03*
D23*
X154990800Y-122529600D03*
D22*
%TO.P,J1,3,Pin_3*%
%TO.N,GND*%
X156490800Y-118629600D03*
D23*
X156490800Y-122529600D03*
D22*
%TO.P,J1,4,Pin_4*%
%TO.N,/PGD*%
X157990800Y-118629600D03*
D23*
X157990800Y-122529600D03*
D22*
%TO.P,J1,5,Pin_5*%
%TO.N,/PGC*%
X159490800Y-118629600D03*
D23*
X159490800Y-122529600D03*
%TD*%
D24*
%TO.P,Q1,1,G*%
%TO.N,/LED*%
X163450800Y-128586200D03*
%TO.P,Q1,2,S*%
%TO.N,GND*%
X165350800Y-128586200D03*
%TO.P,Q1,3,D*%
%TO.N,Net-(D1-K)*%
X164400800Y-126711200D03*
%TD*%
D25*
%TO.P,R5,1*%
%TO.N,+5V*%
X167573200Y-128524000D03*
%TO.P,R5,2*%
%TO.N,Net-(D1-A)*%
X167573200Y-126524000D03*
%TD*%
D26*
%TO.P,C8,1*%
%TO.N,+12V*%
X137718800Y-138226800D03*
%TO.P,C8,2*%
%TO.N,GND*%
X140843800Y-138226800D03*
%TD*%
D27*
%TO.P,R13,1*%
%TO.N,Net-(U4-~{WAKE})*%
X149047200Y-145050000D03*
%TO.P,R13,2*%
%TO.N,+12V*%
X149047200Y-147050000D03*
%TD*%
D28*
%TO.P,U4,1,RXD*%
%TO.N,Lrx*%
X156718000Y-146332400D03*
%TO.P,U4,2,CS*%
%TO.N,~{MCLR}*%
X155448000Y-146332400D03*
%TO.P,U4,3,~{WAKE}*%
%TO.N,Net-(U4-~{WAKE})*%
X154178000Y-146332400D03*
%TO.P,U4,4,TXD*%
%TO.N,Ltx*%
X152908000Y-146332400D03*
%TO.P,U4,5,VSS*%
%TO.N,GND*%
X152908000Y-151282400D03*
%TO.P,U4,6,LBUS*%
%TO.N,/Lbus*%
X154178000Y-151282400D03*
%TO.P,U4,7,VBB*%
%TO.N,+12V*%
X155448000Y-151282400D03*
%TO.P,U4,8,WREN*%
%TO.N,unconnected-(U4-WREN-Pad8)*%
X156718000Y-151282400D03*
%TD*%
D16*
%TO.P,R1,1*%
%TO.N,+5V*%
X152469600Y-128473200D03*
%TO.P,R1,2*%
%TO.N,~{MCLR}*%
X150469600Y-128473200D03*
%TD*%
D29*
%TO.P,U5,1,IN*%
%TO.N,+12V*%
X135290700Y-123960000D03*
%TO.P,U5,2,GND*%
%TO.N,GND*%
X135290700Y-121680000D03*
D30*
X130665700Y-123205000D03*
X130665700Y-120155000D03*
D31*
X128990700Y-121680000D03*
D30*
X127315700Y-123205000D03*
X127315700Y-120155000D03*
D29*
%TO.P,U5,3,OUT*%
%TO.N,+5V*%
X135290700Y-119400000D03*
%TD*%
D32*
%TO.P,U1,1,SDA*%
%TO.N,Net-(J4-Pin_4)*%
X169393744Y-134450000D03*
%TO.P,U1,2,ADDR*%
%TO.N,GND*%
X169393744Y-134950000D03*
%TO.P,U1,3,ALERT*%
%TO.N,unconnected-(U1-ALERT-Pad3)*%
X169393744Y-135450000D03*
%TO.P,U1,4,SCL*%
%TO.N,Net-(J4-Pin_3)*%
X169393744Y-135950000D03*
%TO.P,U1,5,VDD*%
%TO.N,+5V*%
X171743744Y-135950000D03*
%TO.P,U1,6,~{RESET}*%
%TO.N,unconnected-(U1-~{RESET}-Pad6)*%
X171743744Y-135450000D03*
%TO.P,U1,7,R*%
%TO.N,GND*%
X171743744Y-134950000D03*
%TO.P,U1,8,VSS*%
X171743744Y-134450000D03*
D33*
%TO.P,U1,9,VSS*%
X170568744Y-135200000D03*
%TD*%
D16*
%TO.P,R2,1*%
%TO.N,Net-(J4-Pin_4)*%
X165658800Y-145592800D03*
%TO.P,R2,2*%
%TO.N,+5V*%
X163658800Y-145592800D03*
%TD*%
D34*
%TO.P,C9,1*%
%TO.N,+5V*%
X138811000Y-119401500D03*
%TO.P,C9,2*%
%TO.N,GND*%
X138811000Y-117326500D03*
%TD*%
D14*
%TO.P,J4,1,Pin_1*%
%TO.N,+5V*%
X161122800Y-152606200D03*
D15*
X161122800Y-148706200D03*
D14*
%TO.P,J4,2,Pin_2*%
%TO.N,GND*%
X162622800Y-152606200D03*
D15*
X162622800Y-148706200D03*
D14*
%TO.P,J4,3,Pin_3*%
%TO.N,Net-(J4-Pin_3)*%
X164122800Y-152606200D03*
D15*
X164122800Y-148706200D03*
D14*
%TO.P,J4,4,Pin_4*%
%TO.N,Net-(J4-Pin_4)*%
X165622800Y-152606200D03*
D15*
X165622800Y-148706200D03*
%TD*%
D35*
%TO.P,J2,1,Pin_1*%
%TO.N,+12V*%
X125933200Y-141325600D03*
D36*
%TO.P,J2,2,Pin_2*%
%TO.N,Net-(J2-Pin_2)*%
X125933200Y-138825600D03*
%TO.P,J2,3,Pin_3*%
%TO.N,Net-(J2-Pin_3)*%
X125933200Y-136325600D03*
%TO.P,J2,4,Pin_4*%
%TO.N,Net-(J2-Pin_4)*%
X125933200Y-133825600D03*
%TO.P,J2,5,Pin_5*%
%TO.N,Net-(J2-Pin_5)*%
X125933200Y-131325600D03*
%TD*%
D37*
%TO.N,+5V*%
X150237100Y-119612500D03*
X163118800Y-119612500D03*
%TO.N,GND*%
X142900400Y-146507200D03*
X129946400Y-146558000D03*
%TO.N,+12V*%
X129946400Y-149402800D03*
X142900400Y-149402800D03*
%TO.N,Net-(U2-RC2{slash}CxIN2-)*%
X148894800Y-140868400D03*
X161290000Y-140868400D03*
%TD*%
D38*
%TO.N,+5V*%
X150230900Y-119606300D02*
X139015800Y-119606300D01*
D39*
X161122800Y-145440400D02*
X161122800Y-143372400D01*
X152469600Y-128473200D02*
X154840600Y-128473200D01*
D38*
X163692582Y-119612500D02*
X168873200Y-124793118D01*
D39*
X154942200Y-131925400D02*
X154686000Y-132181600D01*
D38*
X168873200Y-127233010D02*
X167582210Y-128524000D01*
X154448000Y-116636800D02*
X151231600Y-116636800D01*
D40*
X173380400Y-133248400D02*
X171551600Y-131419600D01*
D38*
X135292200Y-119401500D02*
X135290700Y-119400000D01*
D39*
X161122800Y-152606200D02*
X161122800Y-148706200D01*
D38*
X150237100Y-119612500D02*
X150266400Y-119583200D01*
D40*
X171743744Y-135950000D02*
X171743744Y-138885000D01*
D38*
X150237100Y-119612500D02*
X150230900Y-119606300D01*
D39*
X161290000Y-143205200D02*
X163658800Y-143205200D01*
D38*
X151231600Y-116636800D02*
X150266400Y-117602000D01*
D39*
X161275200Y-145592800D02*
X161122800Y-145440400D01*
D40*
X173380400Y-135091436D02*
X173380400Y-133248400D01*
D38*
X168873200Y-124793118D02*
X168873200Y-127233010D01*
X154990800Y-118629600D02*
X154990800Y-117179600D01*
D39*
X154942200Y-122578200D02*
X154990800Y-122529600D01*
X154990800Y-122529600D02*
X154990800Y-118629600D01*
X166592000Y-132400800D02*
X167573200Y-131419600D01*
X155092400Y-132181600D02*
X157020200Y-134109400D01*
X154942200Y-128371600D02*
X154942200Y-131925400D01*
D38*
X163118800Y-119612500D02*
X163692582Y-119612500D01*
X139015800Y-119606300D02*
X138811000Y-119401500D01*
D39*
X167573200Y-131419600D02*
X167573200Y-128524000D01*
X154840600Y-128473200D02*
X154942200Y-128371600D01*
D38*
X138811000Y-119401500D02*
X135292200Y-119401500D01*
D39*
X159089600Y-143205200D02*
X161290000Y-143205200D01*
D40*
X171743744Y-138885000D02*
X171487544Y-139141200D01*
D39*
X161122800Y-143372400D02*
X161290000Y-143205200D01*
X154942200Y-128371600D02*
X154942200Y-122578200D01*
D38*
X150266400Y-117602000D02*
X150266400Y-119583200D01*
D40*
X171743744Y-135953364D02*
X172518472Y-135953364D01*
D39*
X154686000Y-132181600D02*
X153495200Y-132181600D01*
X157020200Y-140204284D02*
X159089600Y-142273684D01*
D38*
X154990800Y-117179600D02*
X154448000Y-116636800D01*
D39*
X157020200Y-134109400D02*
X157020200Y-140204284D01*
X161122800Y-145440400D02*
X161122800Y-148706200D01*
D40*
X171551600Y-131419600D02*
X167573200Y-131419600D01*
X172518472Y-135953364D02*
X173380400Y-135091436D01*
D39*
X163658800Y-145592800D02*
X161275200Y-145592800D01*
X153495200Y-132181600D02*
X155092400Y-132181600D01*
X165118800Y-132400800D02*
X166592000Y-132400800D01*
X159089600Y-142273684D02*
X159089600Y-143205200D01*
D38*
X168376210Y-127695200D02*
X168367200Y-127695200D01*
D40*
%TO.N,GND*%
X164168800Y-133587200D02*
X164642800Y-134061200D01*
X171102400Y-155236800D02*
X174955200Y-151384000D01*
D41*
X169393744Y-134950000D02*
X170318744Y-134950000D01*
D40*
X133210925Y-155562925D02*
X154076400Y-155562925D01*
X171613456Y-133513456D02*
X171743744Y-133643744D01*
D39*
X156490800Y-118629600D02*
X156490800Y-122529600D01*
D40*
X165350800Y-128586200D02*
X164168800Y-129768200D01*
D41*
X171743744Y-134950000D02*
X170818744Y-134950000D01*
D40*
X166420800Y-133513456D02*
X171613456Y-133513456D01*
D41*
X170568744Y-137177656D02*
X169762544Y-137983856D01*
D40*
X174955200Y-147218400D02*
X169762544Y-142025744D01*
D39*
X162622800Y-152606200D02*
X162622800Y-148706200D01*
D40*
X163021200Y-155236800D02*
X171102400Y-155236800D01*
X170318744Y-134950000D02*
X170568744Y-135200000D01*
D38*
X131418300Y-121686200D02*
X131419600Y-121687500D01*
D41*
X170568744Y-135795000D02*
X170930944Y-135432800D01*
D40*
X174955200Y-151384000D02*
X174955200Y-147218400D01*
D38*
X135290700Y-121680000D02*
X127100700Y-121680000D01*
X138190800Y-148706200D02*
X138190800Y-152606200D01*
D41*
X169762544Y-137983856D02*
X169762544Y-139141200D01*
X170568744Y-135200000D02*
X170568744Y-137177656D01*
X170858000Y-134450000D02*
X171743744Y-134450000D01*
D40*
X170568744Y-135200000D02*
X170568744Y-134739256D01*
X162622800Y-154838400D02*
X163021200Y-155236800D01*
X170586400Y-135182344D02*
X170568744Y-135200000D01*
X170818744Y-134950000D02*
X170568744Y-135200000D01*
X164168800Y-129768200D02*
X164168800Y-133587200D01*
X133146800Y-155498800D02*
X133210925Y-155562925D01*
X171743744Y-133643744D02*
X171743744Y-134885056D01*
X164642800Y-134061200D02*
X166674800Y-134061200D01*
D41*
X170318744Y-134967600D02*
X170568744Y-135217600D01*
D40*
X162622800Y-152606200D02*
X162622800Y-154838400D01*
X169762544Y-142025744D02*
X169762544Y-139141200D01*
D41*
X170568744Y-134739256D02*
X170858000Y-134450000D01*
D39*
%TO.N,~{MCLR}*%
X147828000Y-145389600D02*
X147828000Y-144472322D01*
X154920200Y-141091400D02*
X154920200Y-136441601D01*
X155498800Y-148477200D02*
X158788500Y-148477200D01*
X150469600Y-128473200D02*
X150469600Y-134366000D01*
X153490800Y-122529600D02*
X153490800Y-124740800D01*
X153490800Y-124740800D02*
X150469600Y-127762000D01*
X152095200Y-135991600D02*
X153495200Y-135991600D01*
X155448000Y-148426400D02*
X155498800Y-148477200D01*
X153998148Y-148477200D02*
X152235166Y-148477200D01*
X154920200Y-136441601D02*
X154470199Y-135991600D01*
X155448000Y-146332400D02*
X155448000Y-148426400D01*
X154470199Y-135991600D02*
X153495200Y-135991600D01*
X154158200Y-141853400D02*
X154920200Y-141091400D01*
D40*
X147828000Y-145389600D02*
X147828000Y-145486256D01*
D39*
X150446922Y-141853400D02*
X154158200Y-141853400D01*
D40*
X149757966Y-146000000D02*
X150138783Y-146380817D01*
X148341744Y-146000000D02*
X149757966Y-146000000D01*
D39*
X150469600Y-134366000D02*
X152095200Y-135991600D01*
D40*
X147828000Y-145486256D02*
X148341744Y-146000000D01*
D39*
X152235166Y-148477200D02*
X150138783Y-146380817D01*
X150469600Y-127762000D02*
X150469600Y-128473200D01*
X158788500Y-148477200D02*
X158851600Y-148540300D01*
X153998148Y-148477200D02*
X155498800Y-148477200D01*
X147828000Y-144472322D02*
X150446922Y-141853400D01*
X153490800Y-122529600D02*
X153490800Y-118629600D01*
D38*
%TO.N,+12V*%
X136690800Y-148706200D02*
X136690800Y-152606200D01*
X125171200Y-125831600D02*
X132486400Y-125831600D01*
D39*
X155448000Y-151282400D02*
X155448000Y-150307401D01*
D42*
X139779200Y-124661300D02*
X139779200Y-125603000D01*
D38*
X136690800Y-148706200D02*
X136690800Y-143666800D01*
X137718800Y-138226800D02*
X132232400Y-143713200D01*
X123393200Y-139700000D02*
X123393200Y-130886200D01*
X136690800Y-143666800D02*
X137355600Y-143002000D01*
D39*
X149047200Y-147050000D02*
X149047200Y-149330500D01*
D38*
X135966200Y-125603000D02*
X139779200Y-125603000D01*
X137355600Y-143002000D02*
X137355600Y-138590000D01*
D39*
X154471099Y-149330500D02*
X149047200Y-149330500D01*
D38*
X126314200Y-127965200D02*
X133604000Y-127965200D01*
X132232400Y-148234400D02*
X131064000Y-149402800D01*
X125018800Y-141325600D02*
X123393200Y-139700000D01*
X134358000Y-123960000D02*
X135290700Y-123960000D01*
X129032000Y-138226800D02*
X137718800Y-138226800D01*
X125933200Y-141325600D02*
X125018800Y-141325600D01*
X133604000Y-127965200D02*
X135966200Y-125603000D01*
X125933200Y-141325600D02*
X129032000Y-138226800D01*
X132232400Y-143713200D02*
X124053600Y-143713200D01*
X123393200Y-130886200D02*
X126314200Y-127965200D01*
X137355600Y-138590000D02*
X137718800Y-138226800D01*
D39*
X149047200Y-149330500D02*
X142972700Y-149330500D01*
D38*
X131064000Y-149402800D02*
X129946400Y-149402800D01*
X132232400Y-143713200D02*
X132232400Y-148234400D01*
X121005600Y-129997200D02*
X125171200Y-125831600D01*
D42*
X142266500Y-122174000D02*
X139779200Y-124661300D01*
D38*
X124053600Y-143713200D02*
X121005600Y-140665200D01*
D39*
X142972700Y-149330500D02*
X142900400Y-149402800D01*
D38*
X132486400Y-125831600D02*
X134358000Y-123960000D01*
X121005600Y-140665200D02*
X121005600Y-129997200D01*
D39*
X155448000Y-150307401D02*
X154471099Y-149330500D01*
D42*
%TO.N,/Lbus*%
X133690800Y-154381199D02*
X134190801Y-154881200D01*
X152916000Y-154881200D02*
X154178000Y-153619200D01*
X154178000Y-153619200D02*
X154178000Y-151282400D01*
X134190801Y-154881200D02*
X152916000Y-154881200D01*
D38*
X133690800Y-148706200D02*
X133690800Y-152606200D01*
D39*
%TO.N,Net-(D1-A)*%
X167573200Y-126524000D02*
X167573200Y-124695200D01*
X167573200Y-124695200D02*
X166693600Y-123815600D01*
%TO.N,Net-(D1-K)*%
X164400800Y-126711200D02*
X164400800Y-123866400D01*
%TO.N,/PGC*%
X159490800Y-118629600D02*
X159490800Y-122529600D01*
X159420199Y-134721600D02*
X160883600Y-133258199D01*
X160883600Y-133258199D02*
X160883600Y-127152400D01*
X159490800Y-125759600D02*
X159490800Y-122529600D01*
X160883600Y-127152400D02*
X159490800Y-125759600D01*
X158445200Y-134721600D02*
X159420199Y-134721600D01*
%TO.N,/PGD*%
X157990800Y-118629600D02*
X157990800Y-117479600D01*
X162052000Y-116687600D02*
X162610800Y-117246400D01*
X160070800Y-132800999D02*
X160070800Y-127711200D01*
X160070800Y-127711200D02*
X157990800Y-125631200D01*
X158782800Y-116687600D02*
X162052000Y-116687600D01*
X157990800Y-117479600D02*
X158782800Y-116687600D01*
X157990800Y-125631200D02*
X157990800Y-122529600D01*
X158445200Y-133451600D02*
X159420199Y-133451600D01*
X157990800Y-118629600D02*
X157990800Y-122529600D01*
X159420199Y-133451600D02*
X160070800Y-132800999D01*
D38*
%TO.N,Net-(J2-Pin_3)*%
X125933200Y-136325600D02*
X129035800Y-133223000D01*
X129035800Y-133223000D02*
X139779200Y-133223000D01*
%TO.N,Net-(J2-Pin_2)*%
X130265800Y-134493000D02*
X139779200Y-134493000D01*
X125933200Y-138825600D02*
X130265800Y-134493000D01*
%TO.N,Net-(J2-Pin_4)*%
X127805800Y-131953000D02*
X139779200Y-131953000D01*
X125933200Y-133825600D02*
X127805800Y-131953000D01*
D39*
%TO.N,Net-(J4-Pin_4)*%
X165622800Y-152606200D02*
X165622800Y-148706200D01*
X164401175Y-140144825D02*
X166708800Y-142452450D01*
X161517950Y-137261600D02*
X164401175Y-140144825D01*
X166708800Y-142452450D02*
X166708800Y-144542800D01*
D40*
X169393744Y-134450000D02*
X168927600Y-134450000D01*
D39*
X165658800Y-145592800D02*
X165658800Y-148670200D01*
X165658800Y-148670200D02*
X165622800Y-148706200D01*
X166708800Y-144542800D02*
X165658800Y-145592800D01*
D40*
X164401175Y-138976425D02*
X164401175Y-140144825D01*
D39*
X158445200Y-137261600D02*
X161517950Y-137261600D01*
D40*
X168927600Y-134450000D02*
X164401175Y-138976425D01*
D39*
%TO.N,Net-(J4-Pin_3)*%
X161798000Y-138531600D02*
X164702239Y-141435839D01*
X164122800Y-152606200D02*
X164122800Y-148706200D01*
X164702239Y-141435839D02*
X164702239Y-142451761D01*
D40*
X164693600Y-146213456D02*
X164693600Y-145592800D01*
X166562144Y-154736800D02*
X168035344Y-153263600D01*
X164122800Y-154420000D02*
X164439600Y-154736800D01*
X164693600Y-143052800D02*
X164693600Y-142460400D01*
X168035344Y-137014563D02*
X169099907Y-135950000D01*
D39*
X164134800Y-148694200D02*
X164134800Y-146772256D01*
D40*
X169393744Y-135950000D02*
X169099907Y-135950000D01*
X164693600Y-145592800D02*
X164693600Y-143052800D01*
D39*
X158445200Y-138531600D02*
X161798000Y-138531600D01*
D40*
X164846000Y-143205200D02*
X165658800Y-143205200D01*
X164439600Y-154736800D02*
X166562144Y-154736800D01*
X164122800Y-152606200D02*
X164122800Y-154420000D01*
X164693600Y-143052800D02*
X164846000Y-143205200D01*
X164134800Y-146772256D02*
X164693600Y-146213456D01*
X168035344Y-153263600D02*
X168035344Y-137014563D01*
X164122800Y-148706200D02*
X164134800Y-148694200D01*
D39*
%TO.N,/LED*%
X163052000Y-128985000D02*
X163450800Y-128586200D01*
X161696400Y-135991600D02*
X163118800Y-134569200D01*
X163118800Y-134604000D02*
X163118800Y-132400800D01*
X158445200Y-135991600D02*
X161696400Y-135991600D01*
X163052000Y-132146800D02*
X163052000Y-128985000D01*
%TO.N,Net-(U4-~{WAKE})*%
X154178000Y-147307399D02*
X153708199Y-147777200D01*
X154178000Y-146332400D02*
X154178000Y-147307399D01*
X149797916Y-145050000D02*
X149047200Y-145050000D01*
X153708199Y-147777200D02*
X152525116Y-147777200D01*
X152525116Y-147777200D02*
X149797916Y-145050000D01*
%TO.N,Lrx*%
X154470199Y-133451600D02*
X156320200Y-135301601D01*
X156718000Y-143205200D02*
X157089600Y-143205200D01*
X156718000Y-143205200D02*
X156718000Y-146332400D01*
X156320200Y-135301601D02*
X156320200Y-142807400D01*
X153495200Y-133451600D02*
X154470199Y-133451600D01*
X156320200Y-142807400D02*
X156718000Y-143205200D01*
D42*
%TO.N,Net-(U2-RC5)*%
X153495200Y-137261600D02*
X152282799Y-137261600D01*
X152282799Y-137261600D02*
X145704199Y-130683000D01*
X145704199Y-130683000D02*
X144729200Y-130683000D01*
D39*
%TO.N,Net-(U2-RC2{slash}CxIN2-)*%
X160223200Y-139801600D02*
X161290000Y-140868400D01*
X148894800Y-138658600D02*
X144729200Y-134493000D01*
X148894800Y-140868400D02*
X148894800Y-138658600D01*
X144754600Y-134594600D02*
X144729200Y-134569200D01*
X158445200Y-139801600D02*
X160223200Y-139801600D01*
D42*
%TO.N,Net-(U2-RC4)*%
X153495200Y-138531600D02*
X152282799Y-138531600D01*
X152282799Y-138531600D02*
X145704199Y-131953000D01*
X145704199Y-131953000D02*
X144729200Y-131953000D01*
D39*
%TO.N,Ltx*%
X154533600Y-134721600D02*
X155620200Y-135808200D01*
X155620200Y-142677400D02*
X152908000Y-145389600D01*
X155620200Y-135808200D02*
X155620200Y-142677400D01*
X152908000Y-145389600D02*
X152908000Y-146332400D01*
X153495200Y-134721600D02*
X154533600Y-134721600D01*
D42*
%TO.N,Net-(U2-RC3{slash}CxIN3-)*%
X145704199Y-133223000D02*
X144729200Y-133223000D01*
X152282799Y-139801600D02*
X145704199Y-133223000D01*
X153495200Y-139801600D02*
X152282799Y-139801600D01*
D38*
%TO.N,Net-(J2-Pin_5)*%
X125933200Y-131325600D02*
X126575800Y-130683000D01*
X126575800Y-130683000D02*
X139779200Y-130683000D01*
%TD*%
%TA.AperFunction,Conductor*%
%TO.N,GND*%
G36*
X175617023Y-114733110D02*
G01*
X175662778Y-114785914D01*
X175673984Y-114837425D01*
X175673984Y-155588425D01*
X175654299Y-155655464D01*
X175601495Y-155701219D01*
X175549984Y-155712425D01*
X153516216Y-155712425D01*
X153449177Y-155692740D01*
X153403422Y-155639936D01*
X153393478Y-155570778D01*
X153422503Y-155507222D01*
X153428535Y-155500744D01*
X154799786Y-154129492D01*
X154799789Y-154129489D01*
X154887394Y-153998379D01*
X154947738Y-153852697D01*
X154978500Y-153698042D01*
X154978500Y-153540357D01*
X154978500Y-152857126D01*
X154998185Y-152790087D01*
X155050989Y-152744332D01*
X155120147Y-152734388D01*
X155137095Y-152738050D01*
X155195426Y-152754997D01*
X155195429Y-152754997D01*
X155195431Y-152754998D01*
X155232306Y-152757900D01*
X155232314Y-152757900D01*
X155663686Y-152757900D01*
X155663694Y-152757900D01*
X155700569Y-152754998D01*
X155700571Y-152754997D01*
X155700573Y-152754997D01*
X155771508Y-152734388D01*
X155858398Y-152709144D01*
X155999865Y-152625481D01*
X155999870Y-152625475D01*
X156006031Y-152620698D01*
X156007933Y-152623150D01*
X156056579Y-152596555D01*
X156126274Y-152601504D01*
X156158695Y-152622340D01*
X156159969Y-152620698D01*
X156166132Y-152625478D01*
X156166135Y-152625481D01*
X156307602Y-152709144D01*
X156349224Y-152721236D01*
X156465426Y-152754997D01*
X156465429Y-152754997D01*
X156465431Y-152754998D01*
X156502306Y-152757900D01*
X156502314Y-152757900D01*
X156933686Y-152757900D01*
X156933694Y-152757900D01*
X156970569Y-152754998D01*
X156970571Y-152754997D01*
X156970573Y-152754997D01*
X157041508Y-152734388D01*
X157128398Y-152709144D01*
X157269865Y-152625481D01*
X157386081Y-152509265D01*
X157469744Y-152367798D01*
X157515598Y-152209969D01*
X157518500Y-152173094D01*
X157518500Y-150614454D01*
X157876601Y-150614454D01*
X157886919Y-150715452D01*
X157941146Y-150879100D01*
X157941151Y-150879111D01*
X158031652Y-151025834D01*
X158031655Y-151025838D01*
X158153561Y-151147744D01*
X158153565Y-151147747D01*
X158300288Y-151238248D01*
X158300299Y-151238253D01*
X158463947Y-151292480D01*
X158564952Y-151302799D01*
X158601600Y-151302799D01*
X159101600Y-151302799D01*
X159138240Y-151302799D01*
X159138254Y-151302798D01*
X159239252Y-151292480D01*
X159402900Y-151238253D01*
X159402911Y-151238248D01*
X159549634Y-151147747D01*
X159549638Y-151147744D01*
X159671544Y-151025838D01*
X159671547Y-151025834D01*
X159762048Y-150879111D01*
X159762053Y-150879100D01*
X159816280Y-150715452D01*
X159826599Y-150614454D01*
X159826600Y-150614441D01*
X159826600Y-150515300D01*
X159101600Y-150515300D01*
X159101600Y-151302799D01*
X158601600Y-151302799D01*
X158601600Y-150515300D01*
X157876601Y-150515300D01*
X157876601Y-150614454D01*
X157518500Y-150614454D01*
X157518500Y-150391706D01*
X157515598Y-150354831D01*
X157511178Y-150339619D01*
X157469745Y-150197006D01*
X157469744Y-150197003D01*
X157469744Y-150197002D01*
X157386081Y-150055535D01*
X157386078Y-150055532D01*
X157386076Y-150055529D01*
X157269870Y-149939323D01*
X157269862Y-149939317D01*
X157128396Y-149855655D01*
X157128393Y-149855654D01*
X156970573Y-149809802D01*
X156970567Y-149809801D01*
X156933701Y-149806900D01*
X156933694Y-149806900D01*
X156502306Y-149806900D01*
X156502298Y-149806900D01*
X156465432Y-149809801D01*
X156465426Y-149809802D01*
X156307606Y-149855654D01*
X156307605Y-149855654D01*
X156223100Y-149905630D01*
X156155376Y-149922812D01*
X156089114Y-149900652D01*
X156056879Y-149867789D01*
X156048772Y-149855656D01*
X156030952Y-149828986D01*
X155853454Y-149651488D01*
X155641348Y-149439381D01*
X155607863Y-149378058D01*
X155612847Y-149308366D01*
X155654719Y-149252433D01*
X155720183Y-149228016D01*
X155729029Y-149227700D01*
X157916749Y-149227700D01*
X157983788Y-149247385D01*
X158022288Y-149286604D01*
X158031259Y-149301149D01*
X158045582Y-149315472D01*
X158079067Y-149376795D01*
X158074083Y-149446487D01*
X158045585Y-149490832D01*
X158031652Y-149504765D01*
X157941151Y-149651488D01*
X157941146Y-149651499D01*
X157886919Y-149815147D01*
X157876600Y-149916145D01*
X157876600Y-150015300D01*
X159826599Y-150015300D01*
X159826599Y-149916160D01*
X159826598Y-149916145D01*
X159816280Y-149815147D01*
X159762053Y-149651499D01*
X159762048Y-149651488D01*
X159671547Y-149504765D01*
X159671544Y-149504761D01*
X159657617Y-149490834D01*
X159624132Y-149429511D01*
X159629116Y-149359819D01*
X159657617Y-149315472D01*
X159671940Y-149301150D01*
X159762508Y-149154316D01*
X159816774Y-148990553D01*
X159827100Y-148889477D01*
X159827099Y-148191124D01*
X159825560Y-148176061D01*
X159816774Y-148090047D01*
X159784520Y-147992712D01*
X159762508Y-147926284D01*
X159671940Y-147779450D01*
X159549950Y-147657460D01*
X159403116Y-147566892D01*
X159239353Y-147512626D01*
X159239351Y-147512625D01*
X159138278Y-147502300D01*
X158564930Y-147502300D01*
X158564912Y-147502301D01*
X158463847Y-147512625D01*
X158300084Y-147566892D01*
X158300081Y-147566893D01*
X158153248Y-147657461D01*
X158120329Y-147690381D01*
X158059006Y-147723866D01*
X158032648Y-147726700D01*
X157504455Y-147726700D01*
X157437416Y-147707015D01*
X157391661Y-147654211D01*
X157381717Y-147585053D01*
X157397723Y-147539579D01*
X157413663Y-147512626D01*
X157469744Y-147417798D01*
X157515598Y-147259969D01*
X157518500Y-147223094D01*
X157518500Y-145441706D01*
X157515598Y-145404831D01*
X157515597Y-145404826D01*
X157473424Y-145259665D01*
X157468500Y-145225070D01*
X157468500Y-144519833D01*
X157488185Y-144452794D01*
X157540989Y-144407039D01*
X157579901Y-144396475D01*
X157592397Y-144395199D01*
X157758934Y-144340014D01*
X157908256Y-144247912D01*
X158001919Y-144154249D01*
X158063242Y-144120764D01*
X158132934Y-144125748D01*
X158177281Y-144154249D01*
X158270944Y-144247912D01*
X158420266Y-144340014D01*
X158586803Y-144395199D01*
X158689591Y-144405700D01*
X159489608Y-144405699D01*
X159489616Y-144405698D01*
X159489619Y-144405698D01*
X159561051Y-144398401D01*
X159592397Y-144395199D01*
X159758934Y-144340014D01*
X159908256Y-144247912D01*
X160032312Y-144123856D01*
X160099699Y-144014602D01*
X160151647Y-143967879D01*
X160205238Y-143955700D01*
X160248300Y-143955700D01*
X160315339Y-143975385D01*
X160361094Y-144028189D01*
X160372300Y-144079700D01*
X160372300Y-147073621D01*
X160352615Y-147140660D01*
X160348216Y-147146820D01*
X160259704Y-147290319D01*
X160259702Y-147290324D01*
X160207276Y-147448535D01*
X160197300Y-147546179D01*
X160197300Y-149866205D01*
X160197301Y-149866223D01*
X160207275Y-149963862D01*
X160207276Y-149963865D01*
X160259702Y-150122075D01*
X160259704Y-150122080D01*
X160289539Y-150170450D01*
X160346472Y-150262753D01*
X160350996Y-150270086D01*
X160349302Y-150271130D01*
X160371706Y-150326655D01*
X160372300Y-150338778D01*
X160372300Y-150523621D01*
X160352615Y-150590660D01*
X160348216Y-150596820D01*
X160259704Y-150740319D01*
X160259702Y-150740324D01*
X160207276Y-150898535D01*
X160197300Y-150996179D01*
X160197300Y-154216205D01*
X160197301Y-154216223D01*
X160207275Y-154313862D01*
X160207276Y-154313865D01*
X160259702Y-154472075D01*
X160259703Y-154472078D01*
X160347204Y-154613939D01*
X160465061Y-154731796D01*
X160606922Y-154819297D01*
X160765137Y-154871724D01*
X160862787Y-154881700D01*
X161382812Y-154881699D01*
X161382820Y-154881698D01*
X161382823Y-154881698D01*
X161436289Y-154876236D01*
X161480463Y-154871724D01*
X161638678Y-154819297D01*
X161780539Y-154731796D01*
X161785473Y-154726862D01*
X161846796Y-154693377D01*
X161916488Y-154698361D01*
X161960835Y-154726862D01*
X161965372Y-154731399D01*
X162107132Y-154818838D01*
X162107137Y-154818840D01*
X162265238Y-154871229D01*
X162362825Y-154881199D01*
X162882765Y-154881199D01*
X162882781Y-154881198D01*
X162980362Y-154871229D01*
X163138462Y-154818840D01*
X163138467Y-154818838D01*
X163280227Y-154731399D01*
X163284765Y-154726862D01*
X163346088Y-154693377D01*
X163415780Y-154698361D01*
X163460127Y-154726862D01*
X163465061Y-154731796D01*
X163585223Y-154805913D01*
X163613210Y-154830367D01*
X163613216Y-154830362D01*
X163613297Y-154830443D01*
X163615975Y-154832783D01*
X163617522Y-154834668D01*
X164024925Y-155242072D01*
X164024926Y-155242073D01*
X164024929Y-155242075D01*
X164024931Y-155242077D01*
X164131473Y-155313265D01*
X164249856Y-155362301D01*
X164249860Y-155362301D01*
X164249861Y-155362302D01*
X164375528Y-155387300D01*
X164375531Y-155387300D01*
X166626215Y-155387300D01*
X166710759Y-155370482D01*
X166751888Y-155362301D01*
X166870271Y-155313265D01*
X166976813Y-155242077D01*
X168540620Y-153678270D01*
X168611809Y-153571727D01*
X168660845Y-153453344D01*
X168674300Y-153385702D01*
X168685844Y-153327669D01*
X168685844Y-151091636D01*
X169323984Y-151091636D01*
X169323984Y-151334213D01*
X169355645Y-151574710D01*
X169418431Y-151809029D01*
X169471085Y-151936146D01*
X169511260Y-152033137D01*
X169632548Y-152243214D01*
X169632550Y-152243217D01*
X169632551Y-152243218D01*
X169780217Y-152435661D01*
X169780223Y-152435668D01*
X169951740Y-152607185D01*
X169951747Y-152607191D01*
X170039064Y-152674191D01*
X170144195Y-152754861D01*
X170354272Y-152876149D01*
X170578384Y-152968979D01*
X170812695Y-153031763D01*
X170993070Y-153055509D01*
X171053195Y-153063425D01*
X171053196Y-153063425D01*
X171295773Y-153063425D01*
X171343872Y-153057092D01*
X171536273Y-153031763D01*
X171770584Y-152968979D01*
X171994696Y-152876149D01*
X172204773Y-152754861D01*
X172397222Y-152607190D01*
X172568749Y-152435663D01*
X172716420Y-152243214D01*
X172837708Y-152033137D01*
X172930538Y-151809025D01*
X172993322Y-151574714D01*
X173024984Y-151334213D01*
X173024984Y-151091637D01*
X172993322Y-150851136D01*
X172930538Y-150616825D01*
X172837708Y-150392713D01*
X172716420Y-150182636D01*
X172618892Y-150055535D01*
X172568750Y-149990188D01*
X172568744Y-149990181D01*
X172397227Y-149818664D01*
X172397220Y-149818658D01*
X172204777Y-149670992D01*
X172204776Y-149670991D01*
X172204773Y-149670989D01*
X171994696Y-149549701D01*
X171994689Y-149549698D01*
X171770588Y-149456872D01*
X171568790Y-149402800D01*
X171536273Y-149394087D01*
X171536272Y-149394086D01*
X171536269Y-149394086D01*
X171295773Y-149362425D01*
X171295772Y-149362425D01*
X171053196Y-149362425D01*
X171053195Y-149362425D01*
X170812698Y-149394086D01*
X170578379Y-149456872D01*
X170354278Y-149549698D01*
X170354269Y-149549702D01*
X170144190Y-149670992D01*
X169951747Y-149818658D01*
X169951740Y-149818664D01*
X169780223Y-149990181D01*
X169780217Y-149990188D01*
X169632551Y-150182631D01*
X169632548Y-150182635D01*
X169632548Y-150182636D01*
X169622056Y-150200809D01*
X169511261Y-150392710D01*
X169511257Y-150392719D01*
X169418431Y-150616820D01*
X169355645Y-150851139D01*
X169323984Y-151091636D01*
X168685844Y-151091636D01*
X168685844Y-139944345D01*
X168705529Y-139877306D01*
X168758333Y-139831551D01*
X168827491Y-139821607D01*
X168891047Y-139850632D01*
X168897525Y-139856664D01*
X169002005Y-139961144D01*
X169002009Y-139961147D01*
X169148732Y-140051648D01*
X169148743Y-140051653D01*
X169312391Y-140105880D01*
X169413395Y-140116199D01*
X169512544Y-140116198D01*
X169512544Y-138166199D01*
X169413404Y-138166200D01*
X169413388Y-138166201D01*
X169312391Y-138176519D01*
X169148743Y-138230746D01*
X169148732Y-138230751D01*
X169002009Y-138321252D01*
X169002005Y-138321255D01*
X168897525Y-138425736D01*
X168836202Y-138459221D01*
X168766510Y-138454237D01*
X168710577Y-138412365D01*
X168686160Y-138346901D01*
X168685844Y-138338055D01*
X168685844Y-137335371D01*
X168705529Y-137268332D01*
X168722163Y-137247690D01*
X169333034Y-136636819D01*
X169394357Y-136603334D01*
X169420715Y-136600500D01*
X169457815Y-136600500D01*
X169571519Y-136577882D01*
X169595711Y-136575499D01*
X169716615Y-136575499D01*
X169716616Y-136575499D01*
X169776227Y-136569091D01*
X169855562Y-136539500D01*
X169917433Y-136535075D01*
X169917691Y-136533282D01*
X170068745Y-136554999D01*
X170068747Y-136555000D01*
X170969244Y-136555000D01*
X171036283Y-136574685D01*
X171082038Y-136627489D01*
X171093244Y-136679000D01*
X171093244Y-138067944D01*
X171073559Y-138134983D01*
X171020755Y-138180738D01*
X171008248Y-138185650D01*
X170873530Y-138230291D01*
X170873525Y-138230293D01*
X170726692Y-138320861D01*
X170712369Y-138335184D01*
X170651045Y-138368668D01*
X170581353Y-138363682D01*
X170537009Y-138335182D01*
X170523082Y-138321255D01*
X170523078Y-138321252D01*
X170376355Y-138230751D01*
X170376344Y-138230746D01*
X170212696Y-138176519D01*
X170111698Y-138166200D01*
X170012544Y-138166200D01*
X170012544Y-140116199D01*
X170111684Y-140116199D01*
X170111698Y-140116198D01*
X170212696Y-140105880D01*
X170376344Y-140051653D01*
X170376355Y-140051648D01*
X170523079Y-139961147D01*
X170537004Y-139947221D01*
X170598326Y-139913733D01*
X170668017Y-139918714D01*
X170712371Y-139947217D01*
X170726694Y-139961540D01*
X170873528Y-140052108D01*
X171037291Y-140106374D01*
X171138367Y-140116700D01*
X171836720Y-140116699D01*
X171836728Y-140116698D01*
X171836731Y-140116698D01*
X171892074Y-140111044D01*
X171937797Y-140106374D01*
X172101560Y-140052108D01*
X172248394Y-139961540D01*
X172370384Y-139839550D01*
X172460952Y-139692716D01*
X172515218Y-139528953D01*
X172525544Y-139427877D01*
X172525543Y-138854524D01*
X172515218Y-138753447D01*
X172460952Y-138589684D01*
X172457867Y-138584682D01*
X172412705Y-138511462D01*
X172394244Y-138446366D01*
X172394244Y-136727864D01*
X172413929Y-136660825D01*
X172466733Y-136615070D01*
X172518244Y-136603864D01*
X172582543Y-136603864D01*
X172667087Y-136587046D01*
X172708216Y-136578865D01*
X172826599Y-136529829D01*
X172826604Y-136529825D01*
X172826607Y-136529824D01*
X172843109Y-136518798D01*
X172843111Y-136518797D01*
X172910480Y-136473782D01*
X172933141Y-136458641D01*
X173885676Y-135506106D01*
X173956865Y-135399563D01*
X174005901Y-135281180D01*
X174010177Y-135259684D01*
X174014437Y-135238266D01*
X174030900Y-135155507D01*
X174030900Y-133184328D01*
X174005902Y-133058661D01*
X174005901Y-133058660D01*
X174005901Y-133058656D01*
X173956865Y-132940273D01*
X173951405Y-132932102D01*
X173951405Y-132932100D01*
X173885678Y-132833732D01*
X173885672Y-132833725D01*
X171966273Y-130914326D01*
X171966269Y-130914323D01*
X171859727Y-130843135D01*
X171741344Y-130794099D01*
X171741338Y-130794097D01*
X171615671Y-130769100D01*
X171615669Y-130769100D01*
X168447700Y-130769100D01*
X168380661Y-130749415D01*
X168334906Y-130696611D01*
X168323700Y-130645100D01*
X168323700Y-129639638D01*
X168343385Y-129572599D01*
X168382601Y-129534100D01*
X168491856Y-129466712D01*
X168615912Y-129342656D01*
X168708014Y-129193334D01*
X168763199Y-129026797D01*
X168773700Y-128924009D01*
X168773699Y-128657369D01*
X168793383Y-128590331D01*
X168810013Y-128569694D01*
X169572664Y-127807045D01*
X169620568Y-127735352D01*
X169671213Y-127659557D01*
X169697068Y-127597138D01*
X169712942Y-127558815D01*
X169712942Y-127558814D01*
X169713864Y-127556587D01*
X169739095Y-127495676D01*
X169773700Y-127321701D01*
X169773700Y-127144318D01*
X169773700Y-124704427D01*
X169765290Y-124662146D01*
X169739095Y-124530452D01*
X169710373Y-124461113D01*
X169690064Y-124412082D01*
X169676770Y-124379988D01*
X169671213Y-124366571D01*
X169671212Y-124366569D01*
X169671211Y-124366567D01*
X169572665Y-124219084D01*
X169524199Y-124170618D01*
X169447235Y-124093654D01*
X168188659Y-122835078D01*
X164281219Y-118927636D01*
X169323984Y-118927636D01*
X169323984Y-119170213D01*
X169355645Y-119410710D01*
X169418431Y-119645029D01*
X169482623Y-119800001D01*
X169511260Y-119869137D01*
X169632548Y-120079214D01*
X169632550Y-120079217D01*
X169632551Y-120079218D01*
X169780217Y-120271661D01*
X169780223Y-120271668D01*
X169951740Y-120443185D01*
X169951747Y-120443191D01*
X170008452Y-120486702D01*
X170144195Y-120590861D01*
X170354272Y-120712149D01*
X170578384Y-120804979D01*
X170812695Y-120867763D01*
X170993070Y-120891509D01*
X171053195Y-120899425D01*
X171053196Y-120899425D01*
X171295773Y-120899425D01*
X171343872Y-120893092D01*
X171536273Y-120867763D01*
X171770584Y-120804979D01*
X171994696Y-120712149D01*
X172204773Y-120590861D01*
X172397222Y-120443190D01*
X172568749Y-120271663D01*
X172716420Y-120079214D01*
X172837708Y-119869137D01*
X172930538Y-119645025D01*
X172993322Y-119410714D01*
X173024984Y-119170213D01*
X173024984Y-118927637D01*
X173020977Y-118897204D01*
X173016503Y-118863214D01*
X172993322Y-118687136D01*
X172930538Y-118452825D01*
X172837708Y-118228713D01*
X172716420Y-118018636D01*
X172655069Y-117938681D01*
X172568750Y-117826188D01*
X172568744Y-117826181D01*
X172397227Y-117654664D01*
X172397220Y-117654658D01*
X172204777Y-117506992D01*
X172204776Y-117506991D01*
X172204773Y-117506989D01*
X171994696Y-117385701D01*
X171994689Y-117385698D01*
X171770588Y-117292872D01*
X171536269Y-117230086D01*
X171295773Y-117198425D01*
X171295772Y-117198425D01*
X171053196Y-117198425D01*
X171053195Y-117198425D01*
X170812698Y-117230086D01*
X170578379Y-117292872D01*
X170354278Y-117385698D01*
X170354269Y-117385702D01*
X170144190Y-117506992D01*
X169951747Y-117654658D01*
X169951740Y-117654664D01*
X169780223Y-117826181D01*
X169780217Y-117826188D01*
X169632551Y-118018631D01*
X169511261Y-118228710D01*
X169511257Y-118228719D01*
X169418431Y-118452820D01*
X169355645Y-118687139D01*
X169323984Y-118927636D01*
X164281219Y-118927636D01*
X164266623Y-118913040D01*
X164266619Y-118913037D01*
X164266618Y-118913036D01*
X164213135Y-118877300D01*
X164192054Y-118863214D01*
X164159371Y-118831235D01*
X164118846Y-118773359D01*
X163957941Y-118612454D01*
X163771534Y-118481932D01*
X163771532Y-118481931D01*
X163565297Y-118385761D01*
X163565288Y-118385758D01*
X163509264Y-118370747D01*
X163449603Y-118334382D01*
X163419074Y-118271535D01*
X163427369Y-118202160D01*
X163453673Y-118163294D01*
X163523474Y-118093493D01*
X163584795Y-118060010D01*
X163654487Y-118064994D01*
X163698834Y-118093495D01*
X163792454Y-118187115D01*
X163941675Y-118279156D01*
X163941680Y-118279158D01*
X164108102Y-118334305D01*
X164108109Y-118334306D01*
X164210819Y-118344799D01*
X164360799Y-118344799D01*
X164860800Y-118344799D01*
X165010772Y-118344799D01*
X165010786Y-118344798D01*
X165113497Y-118334305D01*
X165279919Y-118279158D01*
X165279924Y-118279156D01*
X165429145Y-118187115D01*
X165553115Y-118063145D01*
X165645156Y-117913924D01*
X165645158Y-117913919D01*
X165700305Y-117747497D01*
X165700306Y-117747490D01*
X165710799Y-117644786D01*
X165710800Y-117644773D01*
X165710800Y-117394800D01*
X164860800Y-117394800D01*
X164860800Y-118344799D01*
X164360799Y-118344799D01*
X164360800Y-118344798D01*
X164360800Y-116894800D01*
X164860800Y-116894800D01*
X165710799Y-116894800D01*
X165710799Y-116644828D01*
X165710798Y-116644813D01*
X165700305Y-116542102D01*
X165645158Y-116375680D01*
X165645156Y-116375675D01*
X165553115Y-116226454D01*
X165429145Y-116102484D01*
X165279924Y-116010443D01*
X165279919Y-116010441D01*
X165113497Y-115955294D01*
X165113490Y-115955293D01*
X165010786Y-115944800D01*
X164860800Y-115944800D01*
X164860800Y-116894800D01*
X164360800Y-116894800D01*
X164360800Y-115944800D01*
X164210827Y-115944800D01*
X164210812Y-115944801D01*
X164108102Y-115955294D01*
X163941680Y-116010441D01*
X163941675Y-116010443D01*
X163792457Y-116102482D01*
X163698834Y-116196105D01*
X163637510Y-116229589D01*
X163567819Y-116224605D01*
X163523472Y-116196104D01*
X163429457Y-116102089D01*
X163429456Y-116102088D01*
X163336688Y-116044869D01*
X163280136Y-116009987D01*
X163280131Y-116009985D01*
X163278662Y-116009498D01*
X163113597Y-115954801D01*
X163113595Y-115954800D01*
X163010810Y-115944300D01*
X162210798Y-115944300D01*
X162210773Y-115944302D01*
X162197156Y-115945693D01*
X162160366Y-115943952D01*
X162125920Y-115937100D01*
X162125918Y-115937100D01*
X158708882Y-115937100D01*
X158708880Y-115937100D01*
X158563892Y-115965940D01*
X158563882Y-115965943D01*
X158427311Y-116022512D01*
X158427299Y-116022519D01*
X158367068Y-116062765D01*
X158367067Y-116062766D01*
X158304381Y-116104650D01*
X158304380Y-116104651D01*
X157641249Y-116767781D01*
X157579926Y-116801266D01*
X157553571Y-116804100D01*
X157517931Y-116804100D01*
X157517922Y-116804101D01*
X157458316Y-116810508D01*
X157323471Y-116860802D01*
X157323466Y-116860805D01*
X157314690Y-116867375D01*
X157249225Y-116891789D01*
X157180952Y-116876935D01*
X157166076Y-116867374D01*
X157157895Y-116861250D01*
X157157886Y-116861245D01*
X157023179Y-116811003D01*
X157023172Y-116811001D01*
X156963644Y-116804600D01*
X156740800Y-116804600D01*
X156740800Y-124804600D01*
X156963628Y-124804600D01*
X156963644Y-124804599D01*
X157023172Y-124798198D01*
X157023176Y-124798197D01*
X157072966Y-124779627D01*
X157142658Y-124774643D01*
X157203981Y-124808128D01*
X157237466Y-124869451D01*
X157240300Y-124895809D01*
X157240300Y-125705118D01*
X157240300Y-125705120D01*
X157240299Y-125705120D01*
X157269140Y-125850107D01*
X157269143Y-125850117D01*
X157325713Y-125986690D01*
X157325714Y-125986692D01*
X157354349Y-126029547D01*
X157354350Y-126029549D01*
X157407843Y-126109610D01*
X157407847Y-126109615D01*
X157407848Y-126109616D01*
X158362932Y-127064700D01*
X159283981Y-127985748D01*
X159317466Y-128047071D01*
X159320300Y-128073429D01*
X159320300Y-131257600D01*
X159300615Y-131324639D01*
X159247811Y-131370394D01*
X159196300Y-131381600D01*
X158695200Y-131381600D01*
X158695200Y-132307600D01*
X158675515Y-132374639D01*
X158622711Y-132420394D01*
X158571200Y-132431600D01*
X156972905Y-132431600D01*
X156972904Y-132431601D01*
X156973099Y-132434086D01*
X157018918Y-132591798D01*
X157102514Y-132733152D01*
X157107300Y-132739322D01*
X157104840Y-132741229D01*
X157131410Y-132789888D01*
X157126426Y-132859580D01*
X157105362Y-132892381D01*
X157106899Y-132893574D01*
X157102113Y-132899742D01*
X157097936Y-132906806D01*
X157046864Y-132954486D01*
X156978122Y-132966986D01*
X156913534Y-132940336D01*
X156903527Y-132931359D01*
X155903766Y-131931598D01*
X156972904Y-131931598D01*
X156972905Y-131931600D01*
X158195200Y-131931600D01*
X158195200Y-131381600D01*
X157554550Y-131381600D01*
X157517710Y-131384499D01*
X157517704Y-131384500D01*
X157360006Y-131430316D01*
X157360003Y-131430317D01*
X157218647Y-131513914D01*
X157218638Y-131513921D01*
X157102521Y-131630038D01*
X157102514Y-131630047D01*
X157018918Y-131771401D01*
X156973099Y-131929113D01*
X156972904Y-131931598D01*
X155903766Y-131931598D01*
X155729019Y-131756851D01*
X155695534Y-131695528D01*
X155692700Y-131669170D01*
X155692700Y-129276945D01*
X155712385Y-129209906D01*
X155765189Y-129164151D01*
X155834347Y-129154207D01*
X155897903Y-129183232D01*
X155904381Y-129189264D01*
X155906661Y-129191544D01*
X155906665Y-129191547D01*
X156053388Y-129282048D01*
X156053399Y-129282053D01*
X156217047Y-129336280D01*
X156318051Y-129346599D01*
X156917200Y-129346599D01*
X157016340Y-129346599D01*
X157016354Y-129346598D01*
X157117352Y-129336280D01*
X157281000Y-129282053D01*
X157281011Y-129282048D01*
X157427734Y-129191547D01*
X157427738Y-129191544D01*
X157549644Y-129069638D01*
X157549647Y-129069634D01*
X157640148Y-128922911D01*
X157640153Y-128922900D01*
X157694380Y-128759252D01*
X157704699Y-128658254D01*
X157704700Y-128658241D01*
X157704700Y-128621600D01*
X156917200Y-128621600D01*
X156917200Y-129346599D01*
X156318051Y-129346599D01*
X156417200Y-129346598D01*
X156417200Y-128121600D01*
X156917200Y-128121600D01*
X157704699Y-128121600D01*
X157704699Y-128084960D01*
X157704698Y-128084945D01*
X157694380Y-127983947D01*
X157640153Y-127820299D01*
X157640148Y-127820288D01*
X157549647Y-127673565D01*
X157549644Y-127673561D01*
X157427738Y-127551655D01*
X157427734Y-127551652D01*
X157281011Y-127461151D01*
X157281000Y-127461146D01*
X157117352Y-127406919D01*
X157016354Y-127396600D01*
X156917200Y-127396600D01*
X156917200Y-128121600D01*
X156417200Y-128121600D01*
X156417200Y-127396599D01*
X156318060Y-127396600D01*
X156318044Y-127396601D01*
X156217047Y-127406919D01*
X156053399Y-127461146D01*
X156053388Y-127461151D01*
X155906665Y-127551652D01*
X155906658Y-127551658D01*
X155904375Y-127553941D01*
X155902424Y-127555006D01*
X155900999Y-127556133D01*
X155900806Y-127555889D01*
X155843050Y-127587422D01*
X155773359Y-127582433D01*
X155717428Y-127540558D01*
X155693015Y-127475092D01*
X155692700Y-127466254D01*
X155692700Y-124877681D01*
X155712385Y-124810642D01*
X155765189Y-124764887D01*
X155834347Y-124754943D01*
X155860035Y-124761500D01*
X155958419Y-124798196D01*
X155958427Y-124798198D01*
X156017955Y-124804599D01*
X156017972Y-124804600D01*
X156240800Y-124804600D01*
X156240800Y-116804600D01*
X156017955Y-116804600D01*
X155958427Y-116811001D01*
X155958415Y-116811004D01*
X155944400Y-116816231D01*
X155874709Y-116821212D01*
X155813387Y-116787724D01*
X155793368Y-116757516D01*
X155791681Y-116758419D01*
X155788814Y-116753055D01*
X155788813Y-116753053D01*
X155716474Y-116644791D01*
X155690264Y-116605564D01*
X155022036Y-115937336D01*
X155022035Y-115937335D01*
X155022030Y-115937331D01*
X154962961Y-115897864D01*
X154962960Y-115897863D01*
X154874544Y-115838785D01*
X154874542Y-115838784D01*
X154792607Y-115804846D01*
X154792606Y-115804846D01*
X154710666Y-115770905D01*
X154710658Y-115770903D01*
X154536696Y-115736300D01*
X154536692Y-115736300D01*
X154536691Y-115736300D01*
X151320292Y-115736300D01*
X151142908Y-115736300D01*
X151142903Y-115736300D01*
X150968941Y-115770903D01*
X150968929Y-115770906D01*
X150886992Y-115804845D01*
X150886993Y-115804846D01*
X150805055Y-115838785D01*
X150716640Y-115897863D01*
X150716639Y-115897864D01*
X150657561Y-115937337D01*
X149566937Y-117027961D01*
X149549165Y-117054559D01*
X149544015Y-117062269D01*
X149543295Y-117063346D01*
X149543294Y-117063347D01*
X149468390Y-117175446D01*
X149468383Y-117175459D01*
X149445757Y-117230086D01*
X149445757Y-117230087D01*
X149400506Y-117339331D01*
X149400503Y-117339341D01*
X149380859Y-117438101D01*
X149365900Y-117513304D01*
X149365900Y-118581800D01*
X149346215Y-118648839D01*
X149293411Y-118694594D01*
X149241900Y-118705800D01*
X140016048Y-118705800D01*
X139949009Y-118686115D01*
X139910511Y-118646899D01*
X139878712Y-118595344D01*
X139754656Y-118471288D01*
X139751342Y-118469243D01*
X139749546Y-118467248D01*
X139748989Y-118466807D01*
X139749064Y-118466711D01*
X139704618Y-118417297D01*
X139693397Y-118348334D01*
X139721240Y-118284252D01*
X139751348Y-118258165D01*
X139754342Y-118256318D01*
X139878315Y-118132345D01*
X139970356Y-117983124D01*
X139970358Y-117983119D01*
X140025505Y-117816697D01*
X140025506Y-117816690D01*
X140035999Y-117713986D01*
X140036000Y-117713973D01*
X140036000Y-117576500D01*
X137586001Y-117576500D01*
X137586001Y-117713986D01*
X137596494Y-117816697D01*
X137651641Y-117983119D01*
X137651643Y-117983124D01*
X137743684Y-118132345D01*
X137867655Y-118256316D01*
X137867659Y-118256319D01*
X137870656Y-118258168D01*
X137872279Y-118259972D01*
X137873323Y-118260798D01*
X137873181Y-118260976D01*
X137917381Y-118310116D01*
X137928602Y-118379079D01*
X137900759Y-118443161D01*
X137870661Y-118469241D01*
X137867349Y-118471283D01*
X137863578Y-118474266D01*
X137798783Y-118500407D01*
X137786667Y-118501000D01*
X136704430Y-118501000D01*
X136637391Y-118481315D01*
X136616749Y-118464681D01*
X136609357Y-118457289D01*
X136609356Y-118457288D01*
X136482732Y-118379186D01*
X136460036Y-118365187D01*
X136460031Y-118365185D01*
X136401054Y-118345642D01*
X136293497Y-118310001D01*
X136293495Y-118310000D01*
X136190710Y-118299500D01*
X134390698Y-118299500D01*
X134390681Y-118299501D01*
X134287903Y-118310000D01*
X134287900Y-118310001D01*
X134121368Y-118365185D01*
X134121363Y-118365187D01*
X133972042Y-118457289D01*
X133847989Y-118581342D01*
X133755887Y-118730663D01*
X133755886Y-118730666D01*
X133700701Y-118897203D01*
X133700701Y-118897204D01*
X133700700Y-118897204D01*
X133690200Y-118999983D01*
X133690200Y-119800001D01*
X133690201Y-119800019D01*
X133700700Y-119902796D01*
X133700701Y-119902799D01*
X133752458Y-120058988D01*
X133755886Y-120069334D01*
X133847988Y-120218656D01*
X133972044Y-120342712D01*
X134111797Y-120428912D01*
X134121269Y-120434754D01*
X134167994Y-120486702D01*
X134179217Y-120555664D01*
X134151374Y-120619747D01*
X134121270Y-120645831D01*
X133972359Y-120737680D01*
X133972355Y-120737683D01*
X133848384Y-120861654D01*
X133756343Y-121010875D01*
X133756341Y-121010880D01*
X133701194Y-121177302D01*
X133701193Y-121177309D01*
X133690700Y-121280013D01*
X133690700Y-121430000D01*
X135416700Y-121430000D01*
X135483739Y-121449685D01*
X135529494Y-121502489D01*
X135540700Y-121554000D01*
X135540700Y-121806000D01*
X135521015Y-121873039D01*
X135468211Y-121918794D01*
X135416700Y-121930000D01*
X133690701Y-121930000D01*
X133690701Y-122079986D01*
X133701194Y-122182697D01*
X133756341Y-122349119D01*
X133756343Y-122349124D01*
X133848384Y-122498345D01*
X133972354Y-122622315D01*
X134121270Y-122714167D01*
X134167994Y-122766115D01*
X134179217Y-122835078D01*
X134151373Y-122899160D01*
X134121270Y-122925245D01*
X133972042Y-123017289D01*
X133847987Y-123141344D01*
X133766794Y-123272978D01*
X133748937Y-123295561D01*
X132902380Y-124142117D01*
X132841057Y-124175602D01*
X132771365Y-124170618D01*
X132715432Y-124128746D01*
X132691015Y-124063282D01*
X132690699Y-124054436D01*
X132690700Y-123455000D01*
X125290701Y-123455000D01*
X125290701Y-124379988D01*
X125301194Y-124482699D01*
X125356340Y-124649120D01*
X125356342Y-124649125D01*
X125413630Y-124742003D01*
X125432070Y-124809396D01*
X125411147Y-124876059D01*
X125357505Y-124920829D01*
X125308091Y-124931100D01*
X125082503Y-124931100D01*
X124908541Y-124965703D01*
X124908533Y-124965705D01*
X124838259Y-124994814D01*
X124744655Y-125033585D01*
X124744647Y-125033590D01*
X124674916Y-125080184D01*
X124656240Y-125092663D01*
X124650022Y-125096818D01*
X124597161Y-125132137D01*
X120306137Y-129423161D01*
X120266664Y-129482239D01*
X120266663Y-129482240D01*
X120207590Y-129570647D01*
X120207583Y-129570659D01*
X120185283Y-129624499D01*
X120185283Y-129624500D01*
X120139706Y-129734531D01*
X120139703Y-129734541D01*
X120109778Y-129884988D01*
X120109778Y-129884989D01*
X120105100Y-129908506D01*
X120105100Y-140753896D01*
X120139703Y-140927858D01*
X120139705Y-140927866D01*
X120173646Y-141009806D01*
X120173646Y-141009807D01*
X120207583Y-141091740D01*
X120207590Y-141091752D01*
X120256745Y-141165317D01*
X120256745Y-141165318D01*
X120306132Y-141239231D01*
X120306138Y-141239239D01*
X123479564Y-144412664D01*
X123479566Y-144412666D01*
X123538636Y-144452133D01*
X123538639Y-144452136D01*
X123601764Y-144494315D01*
X123627053Y-144511213D01*
X123708993Y-144545153D01*
X123708994Y-144545153D01*
X123708995Y-144545154D01*
X123720907Y-144550088D01*
X123790934Y-144579095D01*
X123964903Y-144613699D01*
X123964907Y-144613700D01*
X123964908Y-144613700D01*
X123964909Y-144613700D01*
X131207900Y-144613700D01*
X131274939Y-144633385D01*
X131320694Y-144686189D01*
X131331900Y-144737700D01*
X131331900Y-147810038D01*
X131312215Y-147877077D01*
X131295581Y-147897719D01*
X130862057Y-148331242D01*
X130800734Y-148364727D01*
X130731042Y-148359743D01*
X130703253Y-148345136D01*
X130599134Y-148272232D01*
X130599132Y-148272231D01*
X130392897Y-148176061D01*
X130392888Y-148176058D01*
X130173097Y-148117166D01*
X130173093Y-148117165D01*
X130173092Y-148117165D01*
X130173091Y-148117164D01*
X130173086Y-148117164D01*
X129946402Y-148097332D01*
X129946398Y-148097332D01*
X129719713Y-148117164D01*
X129719702Y-148117166D01*
X129499911Y-148176058D01*
X129499902Y-148176061D01*
X129293667Y-148272231D01*
X129293665Y-148272232D01*
X129107258Y-148402754D01*
X128946354Y-148563658D01*
X128815832Y-148750065D01*
X128815831Y-148750067D01*
X128719661Y-148956302D01*
X128719658Y-148956311D01*
X128660766Y-149176102D01*
X128660764Y-149176113D01*
X128640932Y-149402798D01*
X128640932Y-149402801D01*
X128660764Y-149629486D01*
X128660766Y-149629497D01*
X128719658Y-149849288D01*
X128719661Y-149849297D01*
X128815831Y-150055532D01*
X128815832Y-150055534D01*
X128946354Y-150241941D01*
X129107258Y-150402845D01*
X129107261Y-150402847D01*
X129293666Y-150533368D01*
X129499904Y-150629539D01*
X129719708Y-150688435D01*
X129881630Y-150702601D01*
X129946398Y-150708268D01*
X129946400Y-150708268D01*
X129946402Y-150708268D01*
X130003073Y-150703309D01*
X130173092Y-150688435D01*
X130392896Y-150629539D01*
X130599134Y-150533368D01*
X130785539Y-150402847D01*
X130848768Y-150339617D01*
X130910089Y-150306134D01*
X130936448Y-150303300D01*
X131152693Y-150303300D01*
X131152694Y-150303299D01*
X131326666Y-150268695D01*
X131411674Y-150233483D01*
X131490547Y-150200813D01*
X131604820Y-150124458D01*
X131638036Y-150102264D01*
X132553619Y-149186679D01*
X132614942Y-149153195D01*
X132684633Y-149158179D01*
X132740567Y-149200050D01*
X132764984Y-149265515D01*
X132765300Y-149274361D01*
X132765300Y-149866205D01*
X132765301Y-149866223D01*
X132775275Y-149963862D01*
X132780795Y-149980518D01*
X132783999Y-149990188D01*
X132784006Y-149990207D01*
X132790300Y-150029212D01*
X132790300Y-150833187D01*
X132784006Y-150872191D01*
X132775276Y-150898535D01*
X132765300Y-150996179D01*
X132765300Y-154216205D01*
X132765301Y-154216223D01*
X132775275Y-154313862D01*
X132775276Y-154313865D01*
X132827702Y-154472075D01*
X132827703Y-154472078D01*
X132915204Y-154613939D01*
X132915205Y-154613940D01*
X132915206Y-154613941D01*
X132916159Y-154615147D01*
X132933447Y-154644597D01*
X132981404Y-154760374D01*
X132981409Y-154760384D01*
X133069010Y-154891487D01*
X133069013Y-154891491D01*
X133569012Y-155391489D01*
X133678267Y-155500744D01*
X133711751Y-155562067D01*
X133706767Y-155631759D01*
X133664895Y-155687692D01*
X133599430Y-155712109D01*
X133590585Y-155712425D01*
X116798984Y-155712425D01*
X116731945Y-155692740D01*
X116686190Y-155639936D01*
X116674984Y-155588425D01*
X116674984Y-151091636D01*
X119329184Y-151091636D01*
X119329184Y-151334213D01*
X119360845Y-151574710D01*
X119423631Y-151809029D01*
X119476285Y-151936146D01*
X119516460Y-152033137D01*
X119637748Y-152243214D01*
X119637750Y-152243217D01*
X119637751Y-152243218D01*
X119785417Y-152435661D01*
X119785423Y-152435668D01*
X119956940Y-152607185D01*
X119956947Y-152607191D01*
X120044264Y-152674191D01*
X120149395Y-152754861D01*
X120359472Y-152876149D01*
X120583584Y-152968979D01*
X120817895Y-153031763D01*
X120998270Y-153055509D01*
X121058395Y-153063425D01*
X121058396Y-153063425D01*
X121300973Y-153063425D01*
X121349072Y-153057092D01*
X121541473Y-153031763D01*
X121775784Y-152968979D01*
X121999896Y-152876149D01*
X122209973Y-152754861D01*
X122402422Y-152607190D01*
X122573949Y-152435663D01*
X122721620Y-152243214D01*
X122842908Y-152033137D01*
X122935738Y-151809025D01*
X122998522Y-151574714D01*
X123030184Y-151334213D01*
X123030184Y-151091637D01*
X122998522Y-150851136D01*
X122935738Y-150616825D01*
X122842908Y-150392713D01*
X122721620Y-150182636D01*
X122624092Y-150055535D01*
X122573950Y-149990188D01*
X122573944Y-149990181D01*
X122402427Y-149818664D01*
X122402420Y-149818658D01*
X122209977Y-149670992D01*
X122209976Y-149670991D01*
X122209973Y-149670989D01*
X121999896Y-149549701D01*
X121999889Y-149549698D01*
X121775788Y-149456872D01*
X121573990Y-149402800D01*
X121541473Y-149394087D01*
X121541472Y-149394086D01*
X121541469Y-149394086D01*
X121300973Y-149362425D01*
X121300972Y-149362425D01*
X121058396Y-149362425D01*
X121058395Y-149362425D01*
X120817898Y-149394086D01*
X120583579Y-149456872D01*
X120359478Y-149549698D01*
X120359469Y-149549702D01*
X120149390Y-149670992D01*
X119956947Y-149818658D01*
X119956940Y-149818664D01*
X119785423Y-149990181D01*
X119785417Y-149990188D01*
X119637751Y-150182631D01*
X119637748Y-150182635D01*
X119637748Y-150182636D01*
X119627256Y-150200809D01*
X119516461Y-150392710D01*
X119516457Y-150392719D01*
X119423631Y-150616820D01*
X119360845Y-150851139D01*
X119329184Y-151091636D01*
X116674984Y-151091636D01*
X116674984Y-122955000D01*
X125290700Y-122955000D01*
X127065700Y-122955000D01*
X127565700Y-122955000D01*
X130415700Y-122955000D01*
X130915700Y-122955000D01*
X132690699Y-122955000D01*
X132690699Y-121930000D01*
X130915700Y-121930000D01*
X130915700Y-122955000D01*
X130415700Y-122955000D01*
X130415700Y-121930000D01*
X127565700Y-121930000D01*
X127565700Y-122955000D01*
X127065700Y-122955000D01*
X127065700Y-121930000D01*
X125290700Y-121930000D01*
X125290700Y-122955000D01*
X116674984Y-122955000D01*
X116674984Y-121430000D01*
X125290700Y-121430000D01*
X127065700Y-121430000D01*
X127565700Y-121430000D01*
X128740700Y-121430000D01*
X129240700Y-121430000D01*
X130415700Y-121430000D01*
X130915700Y-121430000D01*
X132690699Y-121430000D01*
X132690699Y-121336113D01*
X132690700Y-121336092D01*
X132690700Y-120405000D01*
X130915700Y-120405000D01*
X130915700Y-121430000D01*
X130415700Y-121430000D01*
X130415700Y-120405000D01*
X129240700Y-120405000D01*
X129240700Y-121430000D01*
X128740700Y-121430000D01*
X128740700Y-120405000D01*
X127565700Y-120405000D01*
X127565700Y-121430000D01*
X127065700Y-121430000D01*
X127065700Y-120405000D01*
X125290700Y-120405000D01*
X125290700Y-121430000D01*
X116674984Y-121430000D01*
X116674984Y-118927636D01*
X119329184Y-118927636D01*
X119329184Y-119170213D01*
X119360845Y-119410710D01*
X119423631Y-119645029D01*
X119487823Y-119800001D01*
X119516460Y-119869137D01*
X119637748Y-120079214D01*
X119637750Y-120079217D01*
X119637751Y-120079218D01*
X119785417Y-120271661D01*
X119785423Y-120271668D01*
X119956940Y-120443185D01*
X119956947Y-120443191D01*
X120013652Y-120486702D01*
X120149395Y-120590861D01*
X120359472Y-120712149D01*
X120583584Y-120804979D01*
X120817895Y-120867763D01*
X120998270Y-120891509D01*
X121058395Y-120899425D01*
X121058396Y-120899425D01*
X121300973Y-120899425D01*
X121349072Y-120893092D01*
X121541473Y-120867763D01*
X121775784Y-120804979D01*
X121999896Y-120712149D01*
X122209973Y-120590861D01*
X122402422Y-120443190D01*
X122573949Y-120271663D01*
X122721620Y-120079214D01*
X122842908Y-119869137D01*
X122935738Y-119645025D01*
X122998522Y-119410714D01*
X123030184Y-119170213D01*
X123030184Y-118980011D01*
X125290700Y-118980011D01*
X125290700Y-119905000D01*
X127065700Y-119905000D01*
X127565700Y-119905000D01*
X128740700Y-119905000D01*
X129240700Y-119905000D01*
X130415700Y-119905000D01*
X130915700Y-119905000D01*
X132690699Y-119905000D01*
X132690699Y-118980028D01*
X132690698Y-118980013D01*
X132680848Y-118883589D01*
X132680676Y-118880219D01*
X132680205Y-118877300D01*
X132625059Y-118710879D01*
X132625057Y-118710874D01*
X132533016Y-118561653D01*
X132409046Y-118437683D01*
X132259825Y-118345642D01*
X132259820Y-118345640D01*
X132093398Y-118290494D01*
X131990688Y-118280000D01*
X130915700Y-118280000D01*
X130915700Y-119905000D01*
X130415700Y-119905000D01*
X130415700Y-118280000D01*
X129240700Y-118280000D01*
X129240700Y-119905000D01*
X128740700Y-119905000D01*
X128740700Y-118280000D01*
X127565700Y-118280000D01*
X127565700Y-119905000D01*
X127065700Y-119905000D01*
X127065700Y-118280000D01*
X125989897Y-118280000D01*
X125987064Y-118280374D01*
X125888000Y-118290494D01*
X125721579Y-118345640D01*
X125721574Y-118345642D01*
X125572353Y-118437683D01*
X125448383Y-118561653D01*
X125356342Y-118710874D01*
X125356340Y-118710879D01*
X125301194Y-118877301D01*
X125290700Y-118980011D01*
X123030184Y-118980011D01*
X123030184Y-118927637D01*
X123026177Y-118897204D01*
X123021703Y-118863214D01*
X122998522Y-118687136D01*
X122935738Y-118452825D01*
X122842908Y-118228713D01*
X122721620Y-118018636D01*
X122660269Y-117938681D01*
X122573950Y-117826188D01*
X122573944Y-117826181D01*
X122402427Y-117654664D01*
X122402420Y-117654658D01*
X122209977Y-117506992D01*
X122209976Y-117506991D01*
X122209973Y-117506989D01*
X121999896Y-117385701D01*
X121999889Y-117385698D01*
X121775788Y-117292872D01*
X121541469Y-117230086D01*
X121300973Y-117198425D01*
X121300972Y-117198425D01*
X121058396Y-117198425D01*
X121058395Y-117198425D01*
X120817898Y-117230086D01*
X120583579Y-117292872D01*
X120359478Y-117385698D01*
X120359469Y-117385702D01*
X120149390Y-117506992D01*
X119956947Y-117654658D01*
X119956940Y-117654664D01*
X119785423Y-117826181D01*
X119785417Y-117826188D01*
X119637751Y-118018631D01*
X119516461Y-118228710D01*
X119516457Y-118228719D01*
X119423631Y-118452820D01*
X119360845Y-118687139D01*
X119329184Y-118927636D01*
X116674984Y-118927636D01*
X116674984Y-116939013D01*
X137586000Y-116939013D01*
X137586000Y-117076500D01*
X138561000Y-117076500D01*
X139061000Y-117076500D01*
X140035999Y-117076500D01*
X140035999Y-116939028D01*
X140035998Y-116939013D01*
X140025505Y-116836302D01*
X139970358Y-116669880D01*
X139970356Y-116669875D01*
X139878315Y-116520654D01*
X139754345Y-116396684D01*
X139605124Y-116304643D01*
X139605119Y-116304641D01*
X139438697Y-116249494D01*
X139438690Y-116249493D01*
X139335986Y-116239000D01*
X139061000Y-116239000D01*
X139061000Y-117076500D01*
X138561000Y-117076500D01*
X138561000Y-116239000D01*
X138286029Y-116239000D01*
X138286012Y-116239001D01*
X138183302Y-116249494D01*
X138016880Y-116304641D01*
X138016875Y-116304643D01*
X137867654Y-116396684D01*
X137743684Y-116520654D01*
X137651643Y-116669875D01*
X137651641Y-116669880D01*
X137596494Y-116836302D01*
X137596493Y-116836309D01*
X137586000Y-116939013D01*
X116674984Y-116939013D01*
X116674984Y-114837425D01*
X116694669Y-114770386D01*
X116747473Y-114724631D01*
X116798984Y-114713425D01*
X175549984Y-114713425D01*
X175617023Y-114733110D01*
G37*
%TD.AperFunction*%
%TA.AperFunction,Conductor*%
G36*
X148279039Y-120526485D02*
G01*
X148324794Y-120579289D01*
X148336000Y-120630800D01*
X148336000Y-131883360D01*
X148316315Y-131950399D01*
X148263511Y-131996154D01*
X148194353Y-132006098D01*
X148130797Y-131977073D01*
X148124319Y-131971041D01*
X146214491Y-130061213D01*
X146214487Y-130061210D01*
X146168886Y-130030740D01*
X146124081Y-129977127D01*
X146115374Y-129907802D01*
X146131046Y-129864516D01*
X146155481Y-129823199D01*
X146201300Y-129665486D01*
X146201495Y-129663001D01*
X146201495Y-129663000D01*
X143256905Y-129663000D01*
X143256904Y-129663001D01*
X143257099Y-129665486D01*
X143302918Y-129823198D01*
X143386514Y-129964552D01*
X143391300Y-129970722D01*
X143388840Y-129972629D01*
X143415410Y-130021288D01*
X143410426Y-130090980D01*
X143389362Y-130123781D01*
X143390899Y-130124974D01*
X143386115Y-130131140D01*
X143302455Y-130272603D01*
X143302454Y-130272606D01*
X143256602Y-130430426D01*
X143256601Y-130430432D01*
X143253700Y-130467298D01*
X143253700Y-130898701D01*
X143256601Y-130935567D01*
X143256602Y-130935573D01*
X143302454Y-131093393D01*
X143302455Y-131093396D01*
X143302456Y-131093398D01*
X143320796Y-131124409D01*
X143386117Y-131234862D01*
X143390902Y-131241031D01*
X143388456Y-131242927D01*
X143415057Y-131291642D01*
X143410073Y-131361334D01*
X143389269Y-131393703D01*
X143390902Y-131394969D01*
X143386117Y-131401137D01*
X143302455Y-131542603D01*
X143302454Y-131542606D01*
X143256602Y-131700426D01*
X143256601Y-131700432D01*
X143253700Y-131737298D01*
X143253700Y-132168701D01*
X143256601Y-132205567D01*
X143256602Y-132205573D01*
X143302454Y-132363393D01*
X143302455Y-132363396D01*
X143386117Y-132504862D01*
X143390902Y-132511031D01*
X143388456Y-132512927D01*
X143415057Y-132561642D01*
X143410073Y-132631334D01*
X143389269Y-132663703D01*
X143390902Y-132664969D01*
X143386117Y-132671137D01*
X143302455Y-132812603D01*
X143302454Y-132812606D01*
X143256602Y-132970426D01*
X143256601Y-132970432D01*
X143253700Y-133007298D01*
X143253700Y-133438701D01*
X143256601Y-133475567D01*
X143256602Y-133475573D01*
X143302454Y-133633393D01*
X143302455Y-133633396D01*
X143386117Y-133774862D01*
X143390902Y-133781031D01*
X143388456Y-133782927D01*
X143415057Y-133831642D01*
X143410073Y-133901334D01*
X143389269Y-133933703D01*
X143390902Y-133934969D01*
X143386117Y-133941137D01*
X143302455Y-134082603D01*
X143302454Y-134082606D01*
X143256602Y-134240426D01*
X143256601Y-134240432D01*
X143253700Y-134277298D01*
X143253700Y-134708701D01*
X143256601Y-134745567D01*
X143256602Y-134745573D01*
X143302454Y-134903393D01*
X143302455Y-134903396D01*
X143386117Y-135044862D01*
X143386123Y-135044870D01*
X143502329Y-135161076D01*
X143502333Y-135161079D01*
X143502335Y-135161081D01*
X143643802Y-135244744D01*
X143662723Y-135250241D01*
X143801626Y-135290597D01*
X143801629Y-135290597D01*
X143801631Y-135290598D01*
X143838506Y-135293500D01*
X144416970Y-135293500D01*
X144484009Y-135313185D01*
X144504651Y-135329819D01*
X148107981Y-138933149D01*
X148141466Y-138994472D01*
X148144300Y-139020830D01*
X148144300Y-139741736D01*
X148124615Y-139808775D01*
X148091425Y-139843310D01*
X148055663Y-139868351D01*
X147894751Y-140029262D01*
X147764232Y-140215665D01*
X147764231Y-140215667D01*
X147668061Y-140421902D01*
X147668058Y-140421911D01*
X147609166Y-140641702D01*
X147609164Y-140641713D01*
X147589332Y-140868398D01*
X147589332Y-140868401D01*
X147609164Y-141095086D01*
X147609166Y-141095097D01*
X147668058Y-141314888D01*
X147668061Y-141314897D01*
X147764231Y-141521132D01*
X147764232Y-141521134D01*
X147894754Y-141707541D01*
X148055658Y-141868445D01*
X148055661Y-141868447D01*
X148242066Y-141998968D01*
X148448304Y-142095139D01*
X148668108Y-142154035D01*
X148786478Y-142164391D01*
X148851547Y-142189843D01*
X148892526Y-142246434D01*
X148896404Y-142316196D01*
X148863352Y-142375600D01*
X147245047Y-143993906D01*
X147245042Y-143993912D01*
X147220279Y-144030976D01*
X147215931Y-144037484D01*
X147204364Y-144054796D01*
X147162914Y-144116829D01*
X147106343Y-144253404D01*
X147106340Y-144253414D01*
X147077500Y-144398401D01*
X147077500Y-144398404D01*
X147077500Y-145463518D01*
X147077500Y-145463520D01*
X147077499Y-145463520D01*
X147106340Y-145608507D01*
X147106343Y-145608517D01*
X147162912Y-145745088D01*
X147162919Y-145745101D01*
X147245048Y-145868015D01*
X147245051Y-145868019D01*
X147349580Y-145972548D01*
X147349588Y-145972554D01*
X147474336Y-146055908D01*
X147493127Y-146071329D01*
X147830944Y-146409146D01*
X147864429Y-146470469D01*
X147860969Y-146535831D01*
X147857201Y-146547201D01*
X147846700Y-146649983D01*
X147846700Y-147450001D01*
X147846701Y-147450019D01*
X147857200Y-147552796D01*
X147857201Y-147552799D01*
X147901017Y-147685026D01*
X147912386Y-147719334D01*
X148004488Y-147868656D01*
X148128544Y-147992712D01*
X148237797Y-148060099D01*
X148284521Y-148112047D01*
X148296700Y-148165638D01*
X148296700Y-148211942D01*
X148277015Y-148278981D01*
X148237798Y-148317479D01*
X148192960Y-148345136D01*
X148103542Y-148400289D01*
X147979488Y-148524343D01*
X147975007Y-148530011D01*
X147973184Y-148528569D01*
X147929535Y-148567825D01*
X147875952Y-148580000D01*
X143968148Y-148580000D01*
X143901109Y-148560315D01*
X143880471Y-148543685D01*
X143739539Y-148402753D01*
X143739538Y-148402752D01*
X143739537Y-148402751D01*
X143553134Y-148272232D01*
X143553132Y-148272231D01*
X143346897Y-148176061D01*
X143346888Y-148176058D01*
X143127097Y-148117166D01*
X143127093Y-148117165D01*
X143127092Y-148117165D01*
X143127091Y-148117164D01*
X143127086Y-148117164D01*
X142900402Y-148097332D01*
X142900398Y-148097332D01*
X142673713Y-148117164D01*
X142673702Y-148117166D01*
X142453911Y-148176058D01*
X142453902Y-148176061D01*
X142247667Y-148272231D01*
X142247665Y-148272232D01*
X142061258Y-148402754D01*
X141900354Y-148563658D01*
X141769832Y-148750065D01*
X141769831Y-148750067D01*
X141673661Y-148956302D01*
X141673658Y-148956311D01*
X141614766Y-149176102D01*
X141614764Y-149176113D01*
X141594932Y-149402798D01*
X141594932Y-149402801D01*
X141614764Y-149629486D01*
X141614766Y-149629497D01*
X141673658Y-149849288D01*
X141673661Y-149849297D01*
X141769831Y-150055532D01*
X141769832Y-150055534D01*
X141900354Y-150241941D01*
X142061258Y-150402845D01*
X142061261Y-150402847D01*
X142247666Y-150533368D01*
X142453904Y-150629539D01*
X142673708Y-150688435D01*
X142835630Y-150702601D01*
X142900398Y-150708268D01*
X142900400Y-150708268D01*
X142900402Y-150708268D01*
X142957073Y-150703309D01*
X143127092Y-150688435D01*
X143346896Y-150629539D01*
X143553134Y-150533368D01*
X143739539Y-150402847D01*
X143900447Y-150241939D01*
X143976112Y-150133876D01*
X144030688Y-150090252D01*
X144077687Y-150081000D01*
X147875952Y-150081000D01*
X147942991Y-150100685D01*
X147973731Y-150131997D01*
X147975007Y-150130989D01*
X147979488Y-150136656D01*
X148103544Y-150260712D01*
X148106828Y-150262737D01*
X148106853Y-150262753D01*
X148108645Y-150264746D01*
X148109211Y-150265193D01*
X148109134Y-150265289D01*
X148153579Y-150314699D01*
X148164803Y-150383661D01*
X148136961Y-150447744D01*
X148106865Y-150473826D01*
X148103860Y-150475679D01*
X148103855Y-150475683D01*
X147979884Y-150599654D01*
X147887843Y-150748875D01*
X147887841Y-150748880D01*
X147832694Y-150915302D01*
X147832693Y-150915309D01*
X147822200Y-151018013D01*
X147822200Y-151155500D01*
X150272199Y-151155500D01*
X150272199Y-151018028D01*
X150272198Y-151018013D01*
X150261705Y-150915302D01*
X150206558Y-150748880D01*
X150206556Y-150748875D01*
X150114515Y-150599654D01*
X149990544Y-150475683D01*
X149990541Y-150475681D01*
X149987539Y-150473829D01*
X149985913Y-150472021D01*
X149984877Y-150471202D01*
X149985017Y-150471024D01*
X149940817Y-150421880D01*
X149929597Y-150352917D01*
X149957443Y-150288836D01*
X149987544Y-150262754D01*
X149990856Y-150260712D01*
X150114912Y-150136656D01*
X150114915Y-150136650D01*
X150119393Y-150130989D01*
X150121215Y-150132430D01*
X150164865Y-150093175D01*
X150218448Y-150081000D01*
X152025325Y-150081000D01*
X152092364Y-150100685D01*
X152138119Y-150153489D01*
X152148063Y-150222647D01*
X152144402Y-150239595D01*
X152110899Y-150354912D01*
X152108000Y-150391750D01*
X152108000Y-151032400D01*
X153034000Y-151032400D01*
X153101039Y-151052085D01*
X153146794Y-151104889D01*
X153158000Y-151156400D01*
X153158000Y-152754695D01*
X153158001Y-152754695D01*
X153160488Y-152754500D01*
X153160494Y-152754499D01*
X153218905Y-152737529D01*
X153288774Y-152737728D01*
X153347444Y-152775670D01*
X153376288Y-152839308D01*
X153377500Y-152856605D01*
X153377500Y-153236260D01*
X153357815Y-153303299D01*
X153341181Y-153323941D01*
X152620741Y-154044381D01*
X152559418Y-154077866D01*
X152533060Y-154080700D01*
X146711903Y-154080700D01*
X146644864Y-154061015D01*
X146606364Y-154021797D01*
X146605308Y-154020086D01*
X146605308Y-154020084D01*
X146514740Y-153873250D01*
X146500417Y-153858927D01*
X146466932Y-153797604D01*
X146471916Y-153727912D01*
X146500421Y-153683560D01*
X146514347Y-153669635D01*
X146604848Y-153522911D01*
X146604853Y-153522900D01*
X146659080Y-153359252D01*
X146669399Y-153258254D01*
X146669400Y-153258241D01*
X146669400Y-153159100D01*
X144719401Y-153159100D01*
X144719401Y-153258254D01*
X144729719Y-153359252D01*
X144783946Y-153522900D01*
X144783951Y-153522911D01*
X144874452Y-153669634D01*
X144874455Y-153669638D01*
X144888382Y-153683565D01*
X144921867Y-153744888D01*
X144916883Y-153814580D01*
X144888384Y-153858925D01*
X144874061Y-153873248D01*
X144874060Y-153873250D01*
X144783492Y-154020084D01*
X144783491Y-154020086D01*
X144782436Y-154021797D01*
X144730488Y-154068521D01*
X144676897Y-154080700D01*
X139239799Y-154080700D01*
X139172760Y-154061015D01*
X139127005Y-154008211D01*
X139115799Y-153956700D01*
X139115799Y-153884753D01*
X139115798Y-153884751D01*
X137924928Y-152693881D01*
X137891443Y-152632558D01*
X137893328Y-152606199D01*
X138544353Y-152606199D01*
X138544353Y-152606201D01*
X139115798Y-153177646D01*
X139115799Y-153177645D01*
X139115799Y-152559945D01*
X144719400Y-152559945D01*
X144719400Y-152659100D01*
X145444400Y-152659100D01*
X145944400Y-152659100D01*
X146669399Y-152659100D01*
X146669399Y-152559960D01*
X146669398Y-152559945D01*
X146659080Y-152458947D01*
X146604853Y-152295299D01*
X146604848Y-152295288D01*
X146514347Y-152148565D01*
X146514344Y-152148561D01*
X146392438Y-152026655D01*
X146392434Y-152026652D01*
X146245711Y-151936151D01*
X146245700Y-151936146D01*
X146082052Y-151881919D01*
X145981054Y-151871600D01*
X145944400Y-151871600D01*
X145944400Y-152659100D01*
X145444400Y-152659100D01*
X145444400Y-151871600D01*
X145407761Y-151871600D01*
X145407743Y-151871601D01*
X145306747Y-151881919D01*
X145143099Y-151936146D01*
X145143088Y-151936151D01*
X144996365Y-152026652D01*
X144996361Y-152026655D01*
X144874455Y-152148561D01*
X144874452Y-152148565D01*
X144783951Y-152295288D01*
X144783946Y-152295299D01*
X144729719Y-152458947D01*
X144719400Y-152559945D01*
X139115799Y-152559945D01*
X139115799Y-152034753D01*
X139115798Y-152034752D01*
X138544353Y-152606199D01*
X137893328Y-152606199D01*
X137896427Y-152562866D01*
X137924928Y-152518519D01*
X138190800Y-152252647D01*
X138650460Y-151792986D01*
X147822201Y-151792986D01*
X147832694Y-151895697D01*
X147887841Y-152062119D01*
X147887843Y-152062124D01*
X147979884Y-152211345D01*
X148103854Y-152335315D01*
X148253075Y-152427356D01*
X148253080Y-152427358D01*
X148419502Y-152482505D01*
X148419509Y-152482506D01*
X148522219Y-152492999D01*
X148797199Y-152492999D01*
X149297200Y-152492999D01*
X149572172Y-152492999D01*
X149572186Y-152492998D01*
X149674897Y-152482505D01*
X149841319Y-152427358D01*
X149841324Y-152427356D01*
X149990545Y-152335315D01*
X150114515Y-152211345D01*
X150138136Y-152173049D01*
X152108000Y-152173049D01*
X152110899Y-152209889D01*
X152110900Y-152209895D01*
X152156716Y-152367593D01*
X152156717Y-152367596D01*
X152240314Y-152508952D01*
X152240321Y-152508961D01*
X152356438Y-152625078D01*
X152356447Y-152625085D01*
X152497801Y-152708681D01*
X152655514Y-152754500D01*
X152655511Y-152754500D01*
X152657998Y-152754695D01*
X152658000Y-152754695D01*
X152658000Y-151532400D01*
X152108000Y-151532400D01*
X152108000Y-152173049D01*
X150138136Y-152173049D01*
X150206556Y-152062124D01*
X150206558Y-152062119D01*
X150261705Y-151895697D01*
X150261706Y-151895690D01*
X150272199Y-151792986D01*
X150272200Y-151792973D01*
X150272200Y-151655500D01*
X149297200Y-151655500D01*
X149297200Y-152492999D01*
X148797199Y-152492999D01*
X148797200Y-152492998D01*
X148797200Y-151655500D01*
X147822201Y-151655500D01*
X147822201Y-151792986D01*
X138650460Y-151792986D01*
X139115798Y-151327647D01*
X139115799Y-151327646D01*
X139115799Y-150996234D01*
X139115798Y-150996219D01*
X139105829Y-150898637D01*
X139053440Y-150740537D01*
X139053438Y-150740532D01*
X138965999Y-150598772D01*
X138886108Y-150518881D01*
X138852623Y-150457558D01*
X138857607Y-150387866D01*
X138886108Y-150343519D01*
X138965999Y-150263627D01*
X139053442Y-150121859D01*
X139103086Y-149972040D01*
X139103085Y-149972037D01*
X137924928Y-148793880D01*
X137891443Y-148732557D01*
X137893328Y-148706199D01*
X138544353Y-148706199D01*
X138544353Y-148706201D01*
X139115798Y-149277646D01*
X139115799Y-149277645D01*
X139115799Y-148134753D01*
X139115798Y-148134752D01*
X138544353Y-148706199D01*
X137893328Y-148706199D01*
X137896427Y-148662865D01*
X137924928Y-148618518D01*
X138190800Y-148352647D01*
X139103085Y-147440361D01*
X139103085Y-147440359D01*
X139053442Y-147290539D01*
X138965999Y-147148772D01*
X138848227Y-147031000D01*
X138706467Y-146943561D01*
X138706462Y-146943559D01*
X138548361Y-146891170D01*
X138450774Y-146881200D01*
X137930834Y-146881200D01*
X137930818Y-146881201D01*
X137833237Y-146891170D01*
X137754304Y-146917326D01*
X137684475Y-146919728D01*
X137624434Y-146883996D01*
X137593241Y-146821475D01*
X137591300Y-146799620D01*
X137591300Y-144776499D01*
X137610985Y-144709460D01*
X137663789Y-144663705D01*
X137715300Y-144652499D01*
X138905602Y-144652499D01*
X138905608Y-144652499D01*
X139008397Y-144641999D01*
X139174934Y-144586814D01*
X139324256Y-144494712D01*
X139448312Y-144370656D01*
X139540414Y-144221334D01*
X139595599Y-144054797D01*
X139606100Y-143952009D01*
X139606100Y-143951986D01*
X140505601Y-143951986D01*
X140516094Y-144054697D01*
X140571241Y-144221119D01*
X140571243Y-144221124D01*
X140663284Y-144370345D01*
X140787254Y-144494315D01*
X140936475Y-144586356D01*
X140936480Y-144586358D01*
X141102902Y-144641505D01*
X141102909Y-144641506D01*
X141205619Y-144651999D01*
X142505599Y-144651999D01*
X143005600Y-144651999D01*
X144305572Y-144651999D01*
X144305586Y-144651998D01*
X144408297Y-144641505D01*
X144574719Y-144586358D01*
X144574724Y-144586356D01*
X144723945Y-144494315D01*
X144847915Y-144370345D01*
X144939956Y-144221124D01*
X144939958Y-144221119D01*
X144995105Y-144054697D01*
X144995106Y-144054690D01*
X145005599Y-143951986D01*
X145005600Y-143951973D01*
X145005600Y-143252000D01*
X143005600Y-143252000D01*
X143005600Y-144651999D01*
X142505599Y-144651999D01*
X142505600Y-144651998D01*
X142505600Y-143252000D01*
X140505601Y-143252000D01*
X140505601Y-143951986D01*
X139606100Y-143951986D01*
X139606099Y-142052013D01*
X140505600Y-142052013D01*
X140505600Y-142752000D01*
X142505600Y-142752000D01*
X143005600Y-142752000D01*
X145005599Y-142752000D01*
X145005599Y-142052028D01*
X145005598Y-142052013D01*
X144995105Y-141949302D01*
X144939958Y-141782880D01*
X144939956Y-141782875D01*
X144847915Y-141633654D01*
X144723945Y-141509684D01*
X144574724Y-141417643D01*
X144574719Y-141417641D01*
X144408297Y-141362494D01*
X144408290Y-141362493D01*
X144305586Y-141352000D01*
X143005600Y-141352000D01*
X143005600Y-142752000D01*
X142505600Y-142752000D01*
X142505600Y-141352000D01*
X141205628Y-141352000D01*
X141205612Y-141352001D01*
X141102902Y-141362494D01*
X140936480Y-141417641D01*
X140936475Y-141417643D01*
X140787254Y-141509684D01*
X140663284Y-141633654D01*
X140571243Y-141782875D01*
X140571241Y-141782880D01*
X140516094Y-141949302D01*
X140516093Y-141949309D01*
X140505600Y-142052013D01*
X139606099Y-142052013D01*
X139606099Y-142051992D01*
X139602264Y-142014454D01*
X139595599Y-141949203D01*
X139595598Y-141949200D01*
X139566529Y-141861477D01*
X139540414Y-141782666D01*
X139448312Y-141633344D01*
X139324256Y-141509288D01*
X139174934Y-141417186D01*
X139008397Y-141362001D01*
X139008395Y-141362000D01*
X138905616Y-141351500D01*
X138905609Y-141351500D01*
X138380100Y-141351500D01*
X138313061Y-141331815D01*
X138267306Y-141279011D01*
X138256100Y-141227500D01*
X138256100Y-140165617D01*
X138275785Y-140098578D01*
X138328589Y-140052823D01*
X138341090Y-140047913D01*
X138450634Y-140011614D01*
X138599956Y-139919512D01*
X138724012Y-139795456D01*
X138816114Y-139646134D01*
X138871299Y-139479597D01*
X138881800Y-139376809D01*
X138881800Y-139376786D01*
X139681301Y-139376786D01*
X139691794Y-139479497D01*
X139746941Y-139645919D01*
X139746943Y-139645924D01*
X139838984Y-139795145D01*
X139962954Y-139919115D01*
X140112175Y-140011156D01*
X140112180Y-140011158D01*
X140278602Y-140066305D01*
X140278609Y-140066306D01*
X140381319Y-140076799D01*
X140593799Y-140076799D01*
X141093800Y-140076799D01*
X141306272Y-140076799D01*
X141306286Y-140076798D01*
X141408997Y-140066305D01*
X141575419Y-140011158D01*
X141575424Y-140011156D01*
X141724645Y-139919115D01*
X141848615Y-139795145D01*
X141940656Y-139645924D01*
X141940658Y-139645919D01*
X141995805Y-139479497D01*
X141995806Y-139479490D01*
X142006299Y-139376786D01*
X142006300Y-139376773D01*
X142006300Y-138476800D01*
X141093800Y-138476800D01*
X141093800Y-140076799D01*
X140593799Y-140076799D01*
X140593800Y-140076798D01*
X140593800Y-138476800D01*
X139681301Y-138476800D01*
X139681301Y-139376786D01*
X138881800Y-139376786D01*
X138881799Y-137076813D01*
X139681300Y-137076813D01*
X139681300Y-137976800D01*
X140593800Y-137976800D01*
X141093800Y-137976800D01*
X142006299Y-137976800D01*
X142006299Y-137076828D01*
X142006298Y-137076813D01*
X141995805Y-136974102D01*
X141940658Y-136807680D01*
X141940656Y-136807675D01*
X141848615Y-136658454D01*
X141724645Y-136534484D01*
X141575424Y-136442443D01*
X141575419Y-136442441D01*
X141408997Y-136387294D01*
X141408990Y-136387293D01*
X141306286Y-136376800D01*
X141093800Y-136376800D01*
X141093800Y-137976800D01*
X140593800Y-137976800D01*
X140593800Y-136376800D01*
X140381329Y-136376800D01*
X140381312Y-136376801D01*
X140278602Y-136387294D01*
X140112180Y-136442441D01*
X140112175Y-136442443D01*
X139962954Y-136534484D01*
X139838984Y-136658454D01*
X139746943Y-136807675D01*
X139746941Y-136807680D01*
X139691794Y-136974102D01*
X139691793Y-136974109D01*
X139681300Y-137076813D01*
X138881799Y-137076813D01*
X138881799Y-137076792D01*
X138871299Y-136974003D01*
X138816114Y-136807466D01*
X138724012Y-136658144D01*
X138599956Y-136534088D01*
X138450634Y-136441986D01*
X138284097Y-136386801D01*
X138284095Y-136386800D01*
X138181310Y-136376300D01*
X137256298Y-136376300D01*
X137256280Y-136376301D01*
X137153503Y-136386800D01*
X137153500Y-136386801D01*
X136986968Y-136441985D01*
X136986963Y-136441987D01*
X136837642Y-136534089D01*
X136713589Y-136658142D01*
X136621487Y-136807463D01*
X136621485Y-136807468D01*
X136609376Y-136844012D01*
X136566301Y-136974003D01*
X136566301Y-136974004D01*
X136566300Y-136974004D01*
X136555800Y-137076783D01*
X136555800Y-137202300D01*
X136536115Y-137269339D01*
X136483311Y-137315094D01*
X136431800Y-137326300D01*
X129005360Y-137326300D01*
X128938321Y-137306615D01*
X128892566Y-137253811D01*
X128882622Y-137184653D01*
X128911647Y-137121097D01*
X128917679Y-137114619D01*
X129623737Y-136408562D01*
X130602480Y-135429819D01*
X130663803Y-135396334D01*
X130690161Y-135393500D01*
X139867893Y-135393500D01*
X139867894Y-135393499D01*
X139925882Y-135381964D01*
X140041858Y-135358896D01*
X140041861Y-135358894D01*
X140041866Y-135358894D01*
X140176955Y-135302939D01*
X140224407Y-135293500D01*
X140669886Y-135293500D01*
X140669894Y-135293500D01*
X140706769Y-135290598D01*
X140706771Y-135290597D01*
X140706773Y-135290597D01*
X140753136Y-135277127D01*
X140864598Y-135244744D01*
X141006065Y-135161081D01*
X141122281Y-135044865D01*
X141205944Y-134903398D01*
X141251798Y-134745569D01*
X141254700Y-134708694D01*
X141254700Y-134277306D01*
X141251798Y-134240431D01*
X141250618Y-134236370D01*
X141208515Y-134091451D01*
X141205944Y-134082602D01*
X141122281Y-133941135D01*
X141122278Y-133941132D01*
X141117498Y-133934969D01*
X141119950Y-133933066D01*
X141093355Y-133884421D01*
X141098304Y-133814726D01*
X141119140Y-133782304D01*
X141117498Y-133781031D01*
X141122275Y-133774870D01*
X141122281Y-133774865D01*
X141205944Y-133633398D01*
X141251798Y-133475569D01*
X141254700Y-133438694D01*
X141254700Y-133007306D01*
X141251798Y-132970431D01*
X141250797Y-132966986D01*
X141212081Y-132833725D01*
X141205944Y-132812602D01*
X141122281Y-132671135D01*
X141122278Y-132671132D01*
X141117498Y-132664969D01*
X141119950Y-132663066D01*
X141093355Y-132614421D01*
X141098304Y-132544726D01*
X141119140Y-132512304D01*
X141117498Y-132511031D01*
X141122275Y-132504870D01*
X141122281Y-132504865D01*
X141205944Y-132363398D01*
X141251798Y-132205569D01*
X141254700Y-132168694D01*
X141254700Y-131737306D01*
X141251798Y-131700431D01*
X141237233Y-131650300D01*
X141205945Y-131542606D01*
X141205944Y-131542603D01*
X141205944Y-131542602D01*
X141122281Y-131401135D01*
X141122278Y-131401132D01*
X141117498Y-131394969D01*
X141119950Y-131393066D01*
X141093355Y-131344421D01*
X141098304Y-131274726D01*
X141119140Y-131242304D01*
X141117498Y-131241031D01*
X141122275Y-131234870D01*
X141122281Y-131234865D01*
X141205944Y-131093398D01*
X141251798Y-130935569D01*
X141254700Y-130898694D01*
X141254700Y-130467306D01*
X141251798Y-130430431D01*
X141249221Y-130421562D01*
X141205945Y-130272606D01*
X141205944Y-130272603D01*
X141205944Y-130272602D01*
X141122281Y-130131135D01*
X141122278Y-130131132D01*
X141117498Y-130124969D01*
X141119950Y-130123066D01*
X141093355Y-130074421D01*
X141098304Y-130004726D01*
X141119140Y-129972304D01*
X141117498Y-129971031D01*
X141122275Y-129964870D01*
X141122281Y-129964865D01*
X141205944Y-129823398D01*
X141251798Y-129665569D01*
X141254700Y-129628694D01*
X141254700Y-129197306D01*
X141251798Y-129160431D01*
X141205944Y-129002602D01*
X141122281Y-128861135D01*
X141122278Y-128861132D01*
X141117498Y-128854969D01*
X141119950Y-128853066D01*
X141093355Y-128804421D01*
X141098304Y-128734726D01*
X141119140Y-128702304D01*
X141117498Y-128701031D01*
X141122275Y-128694870D01*
X141122281Y-128694865D01*
X141205944Y-128553398D01*
X141251798Y-128395569D01*
X141252000Y-128393001D01*
X143256904Y-128393001D01*
X143257099Y-128395486D01*
X143302918Y-128553198D01*
X143386514Y-128694552D01*
X143391300Y-128700722D01*
X143388953Y-128702542D01*
X143415764Y-128751642D01*
X143410780Y-128821334D01*
X143389741Y-128854069D01*
X143391300Y-128855278D01*
X143386514Y-128861447D01*
X143302918Y-129002801D01*
X143257099Y-129160513D01*
X143256904Y-129162998D01*
X143256905Y-129163000D01*
X144479200Y-129163000D01*
X144979200Y-129163000D01*
X146201495Y-129163000D01*
X146201495Y-129162998D01*
X146201300Y-129160513D01*
X146155481Y-129002801D01*
X146071885Y-128861447D01*
X146067100Y-128855278D01*
X146069452Y-128853453D01*
X146042645Y-128804405D01*
X146047602Y-128734712D01*
X146068665Y-128701936D01*
X146067100Y-128700722D01*
X146071885Y-128694552D01*
X146155481Y-128553198D01*
X146201300Y-128395486D01*
X146201495Y-128393001D01*
X146201495Y-128393000D01*
X144979200Y-128393000D01*
X144979200Y-129163000D01*
X144479200Y-129163000D01*
X144479200Y-128393000D01*
X143256905Y-128393000D01*
X143256904Y-128393001D01*
X141252000Y-128393001D01*
X141254700Y-128358694D01*
X141254700Y-127927306D01*
X141251798Y-127890431D01*
X141241407Y-127854666D01*
X141205945Y-127732606D01*
X141205944Y-127732603D01*
X141205944Y-127732602D01*
X141122281Y-127591135D01*
X141122278Y-127591132D01*
X141117498Y-127584969D01*
X141119950Y-127583066D01*
X141093355Y-127534421D01*
X141098304Y-127464726D01*
X141119140Y-127432304D01*
X141117498Y-127431031D01*
X141122275Y-127424870D01*
X141122281Y-127424865D01*
X141205944Y-127283398D01*
X141251798Y-127125569D01*
X141252000Y-127123001D01*
X143256904Y-127123001D01*
X143257099Y-127125486D01*
X143302918Y-127283198D01*
X143386514Y-127424552D01*
X143391300Y-127430722D01*
X143388953Y-127432542D01*
X143415764Y-127481642D01*
X143410780Y-127551334D01*
X143389741Y-127584069D01*
X143391300Y-127585278D01*
X143386514Y-127591447D01*
X143302918Y-127732801D01*
X143257099Y-127890513D01*
X143256904Y-127892998D01*
X143256905Y-127893000D01*
X144479200Y-127893000D01*
X144979200Y-127893000D01*
X146201495Y-127893000D01*
X146201495Y-127892998D01*
X146201300Y-127890513D01*
X146155481Y-127732801D01*
X146071885Y-127591447D01*
X146067100Y-127585278D01*
X146069452Y-127583453D01*
X146042645Y-127534405D01*
X146047602Y-127464712D01*
X146068665Y-127431936D01*
X146067100Y-127430722D01*
X146071885Y-127424552D01*
X146155481Y-127283198D01*
X146201300Y-127125486D01*
X146201495Y-127123001D01*
X146201495Y-127123000D01*
X144979200Y-127123000D01*
X144979200Y-127893000D01*
X144479200Y-127893000D01*
X144479200Y-127123000D01*
X143256905Y-127123000D01*
X143256904Y-127123001D01*
X141252000Y-127123001D01*
X141254700Y-127088694D01*
X141254700Y-126657306D01*
X141251798Y-126620431D01*
X141238886Y-126575989D01*
X141205945Y-126462606D01*
X141205944Y-126462603D01*
X141205944Y-126462602D01*
X141122281Y-126321135D01*
X141122278Y-126321132D01*
X141117498Y-126314969D01*
X141119950Y-126313066D01*
X141093355Y-126264421D01*
X141098304Y-126194726D01*
X141119140Y-126162304D01*
X141117498Y-126161031D01*
X141122275Y-126154870D01*
X141122281Y-126154865D01*
X141205944Y-126013398D01*
X141251798Y-125855569D01*
X141252000Y-125853001D01*
X143256904Y-125853001D01*
X143257099Y-125855486D01*
X143302918Y-126013198D01*
X143386514Y-126154552D01*
X143391300Y-126160722D01*
X143388953Y-126162542D01*
X143415764Y-126211642D01*
X143410780Y-126281334D01*
X143389741Y-126314069D01*
X143391300Y-126315278D01*
X143386514Y-126321447D01*
X143302918Y-126462801D01*
X143257099Y-126620513D01*
X143256904Y-126622998D01*
X143256905Y-126623000D01*
X144479200Y-126623000D01*
X144979200Y-126623000D01*
X146201495Y-126623000D01*
X146201495Y-126622998D01*
X146201300Y-126620513D01*
X146155481Y-126462801D01*
X146071885Y-126321447D01*
X146067100Y-126315278D01*
X146069452Y-126313453D01*
X146042645Y-126264405D01*
X146047602Y-126194712D01*
X146068665Y-126161936D01*
X146067100Y-126160722D01*
X146071885Y-126154552D01*
X146155481Y-126013198D01*
X146201300Y-125855486D01*
X146201495Y-125853001D01*
X146201495Y-125853000D01*
X144979200Y-125853000D01*
X144979200Y-126623000D01*
X144479200Y-126623000D01*
X144479200Y-125853000D01*
X143256905Y-125853000D01*
X143256904Y-125853001D01*
X141252000Y-125853001D01*
X141254700Y-125818694D01*
X141254700Y-125387306D01*
X141252000Y-125352998D01*
X143256904Y-125352998D01*
X143256905Y-125353000D01*
X144479200Y-125353000D01*
X144979200Y-125353000D01*
X146201495Y-125353000D01*
X146201495Y-125352998D01*
X146201300Y-125350513D01*
X146155481Y-125192801D01*
X146071885Y-125051447D01*
X146071878Y-125051438D01*
X145955761Y-124935321D01*
X145955752Y-124935314D01*
X145814396Y-124851717D01*
X145814393Y-124851716D01*
X145656695Y-124805900D01*
X145656689Y-124805899D01*
X145619849Y-124803000D01*
X144979200Y-124803000D01*
X144979200Y-125353000D01*
X144479200Y-125353000D01*
X144479200Y-124803000D01*
X143838550Y-124803000D01*
X143801710Y-124805899D01*
X143801704Y-124805900D01*
X143644006Y-124851716D01*
X143644003Y-124851717D01*
X143502647Y-124935314D01*
X143502638Y-124935321D01*
X143386521Y-125051438D01*
X143386514Y-125051447D01*
X143302918Y-125192801D01*
X143257099Y-125350513D01*
X143256904Y-125352998D01*
X141252000Y-125352998D01*
X141251798Y-125350431D01*
X141240908Y-125312949D01*
X141205945Y-125192606D01*
X141205944Y-125192603D01*
X141205944Y-125192602D01*
X141122281Y-125051135D01*
X141122279Y-125051133D01*
X141122276Y-125051129D01*
X141006070Y-124934923D01*
X141006062Y-124934917D01*
X140912163Y-124879386D01*
X140864480Y-124828317D01*
X140851976Y-124759576D01*
X140878621Y-124694986D01*
X140887594Y-124684982D01*
X142386759Y-123185818D01*
X142448082Y-123152333D01*
X142474440Y-123149499D01*
X142615670Y-123149499D01*
X142615676Y-123149499D01*
X142716753Y-123139174D01*
X142880516Y-123084908D01*
X143027350Y-122994340D01*
X143041671Y-122980018D01*
X143102989Y-122946533D01*
X143172681Y-122951514D01*
X143217034Y-122980017D01*
X143230961Y-122993944D01*
X143230965Y-122993947D01*
X143377688Y-123084448D01*
X143377699Y-123084453D01*
X143541347Y-123138680D01*
X143642351Y-123148999D01*
X144241500Y-123148999D01*
X144340640Y-123148999D01*
X144340654Y-123148998D01*
X144441652Y-123138680D01*
X144605300Y-123084453D01*
X144605311Y-123084448D01*
X144752034Y-122993947D01*
X144752038Y-122993944D01*
X144873944Y-122872038D01*
X144873947Y-122872034D01*
X144964448Y-122725311D01*
X144964453Y-122725300D01*
X145018680Y-122561652D01*
X145028999Y-122460654D01*
X145029000Y-122460641D01*
X145029000Y-122424000D01*
X144241500Y-122424000D01*
X144241500Y-123148999D01*
X143642351Y-123148999D01*
X143741500Y-123148998D01*
X143741500Y-121924000D01*
X144241500Y-121924000D01*
X145028999Y-121924000D01*
X145028999Y-121887360D01*
X145028998Y-121887345D01*
X145018680Y-121786347D01*
X144964453Y-121622699D01*
X144964448Y-121622688D01*
X144873947Y-121475965D01*
X144873944Y-121475961D01*
X144752038Y-121354055D01*
X144752034Y-121354052D01*
X144605311Y-121263551D01*
X144605300Y-121263546D01*
X144441652Y-121209319D01*
X144340654Y-121199000D01*
X144241500Y-121199000D01*
X144241500Y-121924000D01*
X143741500Y-121924000D01*
X143741500Y-121198999D01*
X143642360Y-121199000D01*
X143642344Y-121199001D01*
X143541344Y-121209319D01*
X143534727Y-121210736D01*
X143534181Y-121208188D01*
X143476144Y-121210170D01*
X143416112Y-121174422D01*
X143384936Y-121111894D01*
X143383000Y-121090070D01*
X143383000Y-120630800D01*
X143402685Y-120563761D01*
X143455489Y-120518006D01*
X143507000Y-120506800D01*
X148212000Y-120506800D01*
X148279039Y-120526485D01*
G37*
%TD.AperFunction*%
%TA.AperFunction,Conductor*%
G36*
X171297831Y-132089785D02*
G01*
X171318473Y-132106419D01*
X172693581Y-133481527D01*
X172727066Y-133542850D01*
X172729900Y-133569208D01*
X172729900Y-134113632D01*
X172710215Y-134180671D01*
X172657411Y-134226426D01*
X172588253Y-134236370D01*
X172524697Y-134207345D01*
X172489718Y-134156965D01*
X172462098Y-134082913D01*
X172462094Y-134082906D01*
X172375934Y-133967812D01*
X172375931Y-133967809D01*
X172260837Y-133881649D01*
X172260830Y-133881645D01*
X172126123Y-133831403D01*
X172126116Y-133831401D01*
X172066588Y-133825000D01*
X171868744Y-133825000D01*
X171868744Y-134451000D01*
X171849059Y-134518039D01*
X171796255Y-134563794D01*
X171744744Y-134575000D01*
X171742744Y-134575000D01*
X171675705Y-134555315D01*
X171629950Y-134502511D01*
X171618744Y-134451000D01*
X171618744Y-133825000D01*
X171420899Y-133825000D01*
X171361371Y-133831401D01*
X171361360Y-133831404D01*
X171282723Y-133860733D01*
X171220012Y-133865217D01*
X171219797Y-133866718D01*
X171068742Y-133845000D01*
X170368752Y-133845000D01*
X170261395Y-133856542D01*
X170126725Y-133906770D01*
X170126723Y-133906771D01*
X170110285Y-133919077D01*
X170044820Y-133943493D01*
X169976547Y-133928640D01*
X169961665Y-133919075D01*
X169911079Y-133881206D01*
X169911072Y-133881202D01*
X169776226Y-133830908D01*
X169776227Y-133830908D01*
X169716627Y-133824501D01*
X169716625Y-133824500D01*
X169716617Y-133824500D01*
X169716609Y-133824500D01*
X169595706Y-133824500D01*
X169571514Y-133822117D01*
X169457815Y-133799500D01*
X169457813Y-133799500D01*
X168863531Y-133799500D01*
X168863529Y-133799500D01*
X168737861Y-133824497D01*
X168737851Y-133824500D01*
X168697656Y-133841150D01*
X168619481Y-133873530D01*
X168619463Y-133873540D01*
X168512932Y-133944721D01*
X168512925Y-133944727D01*
X163975366Y-138482286D01*
X163914043Y-138515771D01*
X163844351Y-138510787D01*
X163800004Y-138482286D01*
X162112281Y-136794563D01*
X162078796Y-136733240D01*
X162083780Y-136663548D01*
X162125652Y-136607615D01*
X162131062Y-136603786D01*
X162174816Y-136574552D01*
X163483707Y-135265658D01*
X163502487Y-135250245D01*
X163597216Y-135186951D01*
X163701751Y-135082416D01*
X163783884Y-134959495D01*
X163840458Y-134822913D01*
X163855843Y-134745569D01*
X163869300Y-134677920D01*
X163869300Y-133554757D01*
X163888985Y-133487718D01*
X163928207Y-133449216D01*
X163937456Y-133443512D01*
X164031119Y-133349849D01*
X164092442Y-133316364D01*
X164162134Y-133321348D01*
X164206481Y-133349849D01*
X164300144Y-133443512D01*
X164449466Y-133535614D01*
X164616003Y-133590799D01*
X164718791Y-133601300D01*
X165518808Y-133601299D01*
X165518816Y-133601298D01*
X165518819Y-133601298D01*
X165575102Y-133595548D01*
X165621597Y-133590799D01*
X165788134Y-133535614D01*
X165937456Y-133443512D01*
X166061512Y-133319456D01*
X166128899Y-133210202D01*
X166180847Y-133163479D01*
X166234438Y-133151300D01*
X166665920Y-133151300D01*
X166763462Y-133131896D01*
X166810913Y-133122458D01*
X166947495Y-133065884D01*
X166996729Y-133032986D01*
X167070416Y-132983752D01*
X167947748Y-132106418D01*
X168009071Y-132072934D01*
X168035429Y-132070100D01*
X171230792Y-132070100D01*
X171297831Y-132089785D01*
G37*
%TD.AperFunction*%
%TA.AperFunction,Conductor*%
G36*
X165344842Y-124633218D02*
G01*
X165345503Y-124632148D01*
X165351648Y-124635938D01*
X165351650Y-124635940D01*
X165498484Y-124726508D01*
X165662247Y-124780774D01*
X165763323Y-124791100D01*
X166436676Y-124791099D01*
X166533262Y-124781232D01*
X166601951Y-124794001D01*
X166633542Y-124816909D01*
X166786381Y-124969748D01*
X166819866Y-125031071D01*
X166822700Y-125057429D01*
X166822700Y-125408362D01*
X166803015Y-125475401D01*
X166763798Y-125513899D01*
X166695488Y-125556033D01*
X166654542Y-125581289D01*
X166530489Y-125705342D01*
X166438387Y-125854663D01*
X166438385Y-125854668D01*
X166435524Y-125863302D01*
X166383201Y-126021203D01*
X166383201Y-126021204D01*
X166383200Y-126021204D01*
X166372700Y-126123983D01*
X166372700Y-126924001D01*
X166372701Y-126924019D01*
X166383200Y-127026796D01*
X166383201Y-127026799D01*
X166429721Y-127167184D01*
X166438386Y-127193334D01*
X166527854Y-127338386D01*
X166530489Y-127342657D01*
X166624151Y-127436319D01*
X166657636Y-127497642D01*
X166652652Y-127567334D01*
X166624151Y-127611681D01*
X166530489Y-127705342D01*
X166438387Y-127854663D01*
X166438385Y-127854668D01*
X166414318Y-127927298D01*
X166395547Y-127983947D01*
X166392506Y-127993123D01*
X166352733Y-128050568D01*
X166288217Y-128077391D01*
X166219442Y-128065076D01*
X166168242Y-128017533D01*
X166150800Y-127954119D01*
X166150800Y-127933065D01*
X166150799Y-127933050D01*
X166147900Y-127896210D01*
X166147899Y-127896204D01*
X166102083Y-127738506D01*
X166102082Y-127738503D01*
X166018485Y-127597147D01*
X166018478Y-127597138D01*
X165902361Y-127481021D01*
X165902352Y-127481014D01*
X165760996Y-127397417D01*
X165760993Y-127397416D01*
X165603294Y-127351600D01*
X165603297Y-127351600D01*
X165600800Y-127351403D01*
X165600800Y-129820995D01*
X165600801Y-129820995D01*
X165603286Y-129820800D01*
X165760998Y-129774981D01*
X165902352Y-129691385D01*
X165902361Y-129691378D01*
X166018478Y-129575261D01*
X166018485Y-129575252D01*
X166102082Y-129433896D01*
X166102083Y-129433893D01*
X166147899Y-129276195D01*
X166147900Y-129276189D01*
X166150799Y-129239349D01*
X166150800Y-129239334D01*
X166150800Y-129093882D01*
X166170485Y-129026843D01*
X166223289Y-128981088D01*
X166292447Y-128971144D01*
X166356003Y-129000169D01*
X166392506Y-129054878D01*
X166438385Y-129193331D01*
X166438387Y-129193336D01*
X166473269Y-129249888D01*
X166530488Y-129342656D01*
X166654544Y-129466712D01*
X166763797Y-129534099D01*
X166810521Y-129586047D01*
X166822700Y-129639638D01*
X166822700Y-131057370D01*
X166803015Y-131124409D01*
X166786381Y-131145051D01*
X166320338Y-131611093D01*
X166259015Y-131644578D01*
X166189323Y-131639594D01*
X166133390Y-131597722D01*
X166127118Y-131588509D01*
X166098803Y-131542603D01*
X166061512Y-131482144D01*
X165937456Y-131358088D01*
X165829729Y-131291642D01*
X165788136Y-131265987D01*
X165788131Y-131265985D01*
X165767655Y-131259200D01*
X165621597Y-131210801D01*
X165621595Y-131210800D01*
X165518810Y-131200300D01*
X164718798Y-131200300D01*
X164718780Y-131200301D01*
X164616003Y-131210800D01*
X164616000Y-131210801D01*
X164449468Y-131265985D01*
X164449463Y-131265987D01*
X164300142Y-131358089D01*
X164206481Y-131451751D01*
X164145158Y-131485236D01*
X164075466Y-131480252D01*
X164031119Y-131451751D01*
X163937456Y-131358088D01*
X163937452Y-131358085D01*
X163861403Y-131311177D01*
X163814678Y-131259229D01*
X163802500Y-131205639D01*
X163802500Y-129880885D01*
X163822185Y-129813846D01*
X163863375Y-129774156D01*
X164002665Y-129691781D01*
X164118881Y-129575565D01*
X164202544Y-129434098D01*
X164248398Y-129276269D01*
X164251300Y-129239394D01*
X164251300Y-129239349D01*
X164550800Y-129239349D01*
X164553699Y-129276189D01*
X164553700Y-129276195D01*
X164599516Y-129433893D01*
X164599517Y-129433896D01*
X164683114Y-129575252D01*
X164683121Y-129575261D01*
X164799238Y-129691378D01*
X164799247Y-129691385D01*
X164940601Y-129774981D01*
X165098314Y-129820800D01*
X165098311Y-129820800D01*
X165100798Y-129820995D01*
X165100800Y-129820995D01*
X165100800Y-128836200D01*
X164550800Y-128836200D01*
X164550800Y-129239349D01*
X164251300Y-129239349D01*
X164251300Y-128073200D01*
X164270985Y-128006161D01*
X164323789Y-127960406D01*
X164375300Y-127949200D01*
X164426800Y-127949200D01*
X164493839Y-127968885D01*
X164539594Y-128021689D01*
X164550800Y-128073200D01*
X164550800Y-128336200D01*
X165100800Y-128336200D01*
X165100800Y-127680514D01*
X165118067Y-127617394D01*
X165152544Y-127559098D01*
X165198398Y-127401269D01*
X165201300Y-127364394D01*
X165201300Y-126058006D01*
X165198398Y-126021131D01*
X165198397Y-126021126D01*
X165156224Y-125875965D01*
X165151300Y-125841370D01*
X165151300Y-124733649D01*
X165170985Y-124666610D01*
X165223789Y-124620855D01*
X165292947Y-124610911D01*
X165344842Y-124633218D01*
G37*
%TD.AperFunction*%
%TD*%
M02*
