<?xml version="1.0" standalone="no"?>
 <!DOCTYPE svg PUBLIC "-//W3C//DTD SVG 1.1//EN" 
 "http://www.w3.org/Graphics/SVG/1.1/DTD/svg11.dtd"> 
<svg
  xmlns:svg="http://www.w3.org/2000/svg"
  xmlns="http://www.w3.org/2000/svg"
  xmlns:xlink="http://www.w3.org/1999/xlink"
  version="1.1"
  width="297.0022mm" height="210.0072mm" viewBox="0.0000 0.0000 297.0022 210.0072">
<title>SVG Image created as ventil-F_Paste.svg date 2025/03/31 10:24:24 </title>
  <desc>Image generated by PCBNEW </desc>
<g style="fill:#000000; fill-opacity:1.0000;stroke:#000000; stroke-opacity:1.0000;
stroke-linecap:round; stroke-linejoin:round;"
 transform="translate(0 0) scale(1 1)">
<path style="fill:#000000; fill-opacity:1.0000; stroke:none;fill-rule:evenodd;"
d="M 145.4569,155.1716
145.3660,155.1535
145.2890,155.1020
145.2375,155.0250
145.2194,154.9341
145.2194,154.3341
145.2375,154.2432
145.2890,154.1662
145.3660,154.1147
145.4569,154.0966
145.9319,154.0966
146.0228,154.1147
146.0998,154.1662
146.1513,154.2432
146.1694,154.3341
146.1694,154.9341
146.1513,155.0250
146.0998,155.1020
146.0228,155.1535
145.9319,155.1716
Z" /> 
<path style="fill:#000000; fill-opacity:1.0000; stroke:none;fill-rule:evenodd;"
d="M 145.4569,153.4466
145.3660,153.4285
145.2890,153.3770
145.2375,153.3000
145.2194,153.2091
145.2194,152.6091
145.2375,152.5182
145.2890,152.4412
145.3660,152.3897
145.4569,152.3716
145.9319,152.3716
146.0228,152.3897
146.0998,152.4412
146.1513,152.5182
146.1694,152.6091
146.1694,153.2091
146.1513,153.3000
146.0998,153.3770
146.0228,153.4285
145.9319,153.4466
Z" /> 
<path style="fill:#000000; fill-opacity:1.0000; stroke:none;fill-rule:evenodd;"
d="M 156.4896,142.7552
156.5086,142.6595
156.5628,142.5784
156.6439,142.5242
156.7396,142.5052
157.4396,142.5052
157.5353,142.5242
157.6164,142.5784
157.6706,142.6595
157.6896,142.7552
157.6896,143.6552
157.6706,143.7509
157.6164,143.8320
157.5353,143.8862
157.4396,143.9052
156.7396,143.9052
156.6439,143.8862
156.5628,143.8320
156.5086,143.7509
156.4896,143.6552
Z" /> 
<path style="fill:#000000; fill-opacity:1.0000; stroke:none;fill-rule:evenodd;"
d="M 158.4896,142.7552
158.5086,142.6595
158.5628,142.5784
158.6439,142.5242
158.7396,142.5052
159.4396,142.5052
159.5353,142.5242
159.6164,142.5784
159.6706,142.6595
159.6896,142.7552
159.6896,143.6552
159.6706,143.7509
159.6164,143.8320
159.5353,143.8862
159.4396,143.9052
158.7396,143.9052
158.6439,143.8862
158.5628,143.8320
158.5086,143.7509
158.4896,143.6552
Z" /> 
<path style="fill:#000000; fill-opacity:1.0000; stroke:none;fill-rule:evenodd;"
d="M 154.4047,128.1341
154.4228,128.0432
154.4743,127.9662
154.5513,127.9147
154.6422,127.8966
155.2422,127.8966
155.3331,127.9147
155.4101,127.9662
155.4616,128.0432
155.4797,128.1341
155.4797,128.6091
155.4616,128.7000
155.4101,128.7770
155.3331,128.8285
155.2422,128.8466
154.6422,128.8466
154.5513,128.8285
154.4743,128.7770
154.4228,128.7000
154.4047,128.6091
Z" /> 
<path style="fill:#000000; fill-opacity:1.0000; stroke:none;fill-rule:evenodd;"
d="M 156.1297,128.1341
156.1478,128.0432
156.1993,127.9662
156.2763,127.9147
156.3672,127.8966
156.9672,127.8966
157.0581,127.9147
157.1351,127.9662
157.1866,128.0432
157.2047,128.1341
157.2047,128.6091
157.1866,128.7000
157.1351,128.7770
157.0581,128.8285
156.9672,128.8466
156.3672,128.8466
156.2763,128.8285
156.1993,128.7770
156.1478,128.7000
156.1297,128.6091
Z" /> 
<path style="fill:#000000; fill-opacity:1.0000; stroke:none;fill-rule:evenodd;"
d="M 145.7042,134.6430
145.6928,134.7004
145.6603,134.7491
145.6116,134.7816
145.5542,134.7930
143.9042,134.7930
143.8468,134.7816
143.7981,134.7491
143.7656,134.7004
143.7542,134.6430
143.7542,134.3430
143.7656,134.2856
143.7981,134.2369
143.8468,134.2044
143.9042,134.1930
145.5542,134.1930
145.6116,134.2044
145.6603,134.2369
145.6928,134.2856
145.7042,134.3430
Z" /> 
<path style="fill:#000000; fill-opacity:1.0000; stroke:none;fill-rule:evenodd;"
d="M 145.7042,133.3730
145.6928,133.4304
145.6603,133.4791
145.6116,133.5116
145.5542,133.5230
143.9042,133.5230
143.8468,133.5116
143.7981,133.4791
143.7656,133.4304
143.7542,133.3730
143.7542,133.0730
143.7656,133.0156
143.7981,132.9669
143.8468,132.9344
143.9042,132.9230
145.5542,132.9230
145.6116,132.9344
145.6603,132.9669
145.6928,133.0156
145.7042,133.0730
Z" /> 
<path style="fill:#000000; fill-opacity:1.0000; stroke:none;fill-rule:evenodd;"
d="M 145.7042,132.1030
145.6928,132.1604
145.6603,132.2091
145.6116,132.2416
145.5542,132.2530
143.9042,132.2530
143.8468,132.2416
143.7981,132.2091
143.7656,132.1604
143.7542,132.1030
143.7542,131.8030
143.7656,131.7456
143.7981,131.6969
143.8468,131.6644
143.9042,131.6530
145.5542,131.6530
145.6116,131.6644
145.6603,131.6969
145.6928,131.7456
145.7042,131.8030
Z" /> 
<path style="fill:#000000; fill-opacity:1.0000; stroke:none;fill-rule:evenodd;"
d="M 145.7042,130.8330
145.6928,130.8904
145.6603,130.9391
145.6116,130.9716
145.5542,130.9830
143.9042,130.9830
143.8468,130.9716
143.7981,130.9391
143.7656,130.8904
143.7542,130.8330
143.7542,130.5330
143.7656,130.4756
143.7981,130.4269
143.8468,130.3944
143.9042,130.3830
145.5542,130.3830
145.6116,130.3944
145.6603,130.4269
145.6928,130.4756
145.7042,130.5330
Z" /> 
<path style="fill:#000000; fill-opacity:1.0000; stroke:none;fill-rule:evenodd;"
d="M 145.7042,129.5630
145.6928,129.6204
145.6603,129.6691
145.6116,129.7016
145.5542,129.7130
143.9042,129.7130
143.8468,129.7016
143.7981,129.6691
143.7656,129.6204
143.7542,129.5630
143.7542,129.2630
143.7656,129.2056
143.7981,129.1569
143.8468,129.1244
143.9042,129.1130
145.5542,129.1130
145.6116,129.1244
145.6603,129.1569
145.6928,129.2056
145.7042,129.2630
Z" /> 
<path style="fill:#000000; fill-opacity:1.0000; stroke:none;fill-rule:evenodd;"
d="M 145.7042,128.2930
145.6928,128.3504
145.6603,128.3991
145.6116,128.4316
145.5542,128.4430
143.9042,128.4430
143.8468,128.4316
143.7981,128.3991
143.7656,128.3504
143.7542,128.2930
143.7542,127.9930
143.7656,127.9356
143.7981,127.8869
143.8468,127.8544
143.9042,127.8430
145.5542,127.8430
145.6116,127.8544
145.6603,127.8869
145.6928,127.9356
145.7042,127.9930
Z" /> 
<path style="fill:#000000; fill-opacity:1.0000; stroke:none;fill-rule:evenodd;"
d="M 145.7042,127.0230
145.6928,127.0804
145.6603,127.1291
145.6116,127.1616
145.5542,127.1730
143.9042,127.1730
143.8468,127.1616
143.7981,127.1291
143.7656,127.0804
143.7542,127.0230
143.7542,126.7230
143.7656,126.6656
143.7981,126.6169
143.8468,126.5844
143.9042,126.5730
145.5542,126.5730
145.6116,126.5844
145.6603,126.6169
145.6928,126.6656
145.7042,126.7230
Z" /> 
<path style="fill:#000000; fill-opacity:1.0000; stroke:none;fill-rule:evenodd;"
d="M 145.7042,125.7530
145.6928,125.8104
145.6603,125.8591
145.6116,125.8916
145.5542,125.9030
143.9042,125.9030
143.8468,125.8916
143.7981,125.8591
143.7656,125.8104
143.7542,125.7530
143.7542,125.4530
143.7656,125.3956
143.7981,125.3469
143.8468,125.3144
143.9042,125.3030
145.5542,125.3030
145.6116,125.3144
145.6603,125.3469
145.6928,125.3956
145.7042,125.4530
Z" /> 
<path style="fill:#000000; fill-opacity:1.0000; stroke:none;fill-rule:evenodd;"
d="M 140.7542,125.7530
140.7428,125.8104
140.7103,125.8591
140.6616,125.8916
140.6042,125.9030
138.9542,125.9030
138.8968,125.8916
138.8481,125.8591
138.8156,125.8104
138.8042,125.7530
138.8042,125.4530
138.8156,125.3956
138.8481,125.3469
138.8968,125.3144
138.9542,125.3030
140.6042,125.3030
140.6616,125.3144
140.7103,125.3469
140.7428,125.3956
140.7542,125.4530
Z" /> 
<path style="fill:#000000; fill-opacity:1.0000; stroke:none;fill-rule:evenodd;"
d="M 140.7542,127.0230
140.7428,127.0804
140.7103,127.1291
140.6616,127.1616
140.6042,127.1730
138.9542,127.1730
138.8968,127.1616
138.8481,127.1291
138.8156,127.0804
138.8042,127.0230
138.8042,126.7230
138.8156,126.6656
138.8481,126.6169
138.8968,126.5844
138.9542,126.5730
140.6042,126.5730
140.6616,126.5844
140.7103,126.6169
140.7428,126.6656
140.7542,126.7230
Z" /> 
<path style="fill:#000000; fill-opacity:1.0000; stroke:none;fill-rule:evenodd;"
d="M 140.7542,128.2930
140.7428,128.3504
140.7103,128.3991
140.6616,128.4316
140.6042,128.4430
138.9542,128.4430
138.8968,128.4316
138.8481,128.3991
138.8156,128.3504
138.8042,128.2930
138.8042,127.9930
138.8156,127.9356
138.8481,127.8869
138.8968,127.8544
138.9542,127.8430
140.6042,127.8430
140.6616,127.8544
140.7103,127.8869
140.7428,127.9356
140.7542,127.9930
Z" /> 
<path style="fill:#000000; fill-opacity:1.0000; stroke:none;fill-rule:evenodd;"
d="M 140.7542,129.5630
140.7428,129.6204
140.7103,129.6691
140.6616,129.7016
140.6042,129.7130
138.9542,129.7130
138.8968,129.7016
138.8481,129.6691
138.8156,129.6204
138.8042,129.5630
138.8042,129.2630
138.8156,129.2056
138.8481,129.1569
138.8968,129.1244
138.9542,129.1130
140.6042,129.1130
140.6616,129.1244
140.7103,129.1569
140.7428,129.2056
140.7542,129.2630
Z" /> 
<path style="fill:#000000; fill-opacity:1.0000; stroke:none;fill-rule:evenodd;"
d="M 140.7542,130.8330
140.7428,130.8904
140.7103,130.9391
140.6616,130.9716
140.6042,130.9830
138.9542,130.9830
138.8968,130.9716
138.8481,130.9391
138.8156,130.8904
138.8042,130.8330
138.8042,130.5330
138.8156,130.4756
138.8481,130.4269
138.8968,130.3944
138.9542,130.3830
140.6042,130.3830
140.6616,130.3944
140.7103,130.4269
140.7428,130.4756
140.7542,130.5330
Z" /> 
<path style="fill:#000000; fill-opacity:1.0000; stroke:none;fill-rule:evenodd;"
d="M 140.7542,132.1030
140.7428,132.1604
140.7103,132.2091
140.6616,132.2416
140.6042,132.2530
138.9542,132.2530
138.8968,132.2416
138.8481,132.2091
138.8156,132.1604
138.8042,132.1030
138.8042,131.8030
138.8156,131.7456
138.8481,131.6969
138.8968,131.6644
138.9542,131.6530
140.6042,131.6530
140.6616,131.6644
140.7103,131.6969
140.7428,131.7456
140.7542,131.8030
Z" /> 
<path style="fill:#000000; fill-opacity:1.0000; stroke:none;fill-rule:evenodd;"
d="M 140.7542,133.3730
140.7428,133.4304
140.7103,133.4791
140.6616,133.5116
140.6042,133.5230
138.9542,133.5230
138.8968,133.5116
138.8481,133.4791
138.8156,133.4304
138.8042,133.3730
138.8042,133.0730
138.8156,133.0156
138.8481,132.9669
138.8968,132.9344
138.9542,132.9230
140.6042,132.9230
140.6616,132.9344
140.7103,132.9669
140.7428,133.0156
140.7542,133.0730
Z" /> 
<path style="fill:#000000; fill-opacity:1.0000; stroke:none;fill-rule:evenodd;"
d="M 140.7542,134.6430
140.7428,134.7004
140.7103,134.7491
140.6616,134.7816
140.6042,134.7930
138.9542,134.7930
138.8968,134.7816
138.8481,134.7491
138.8156,134.7004
138.8042,134.6430
138.8042,134.3430
138.8156,134.2856
138.8481,134.2369
138.8968,134.2044
138.9542,134.1930
140.6042,134.1930
140.6616,134.2044
140.7103,134.2369
140.7428,134.2856
140.7542,134.3430
Z" /> 
<path style="fill:#000000; fill-opacity:1.0000; stroke:none;fill-rule:evenodd;"
d="M 134.1158,154.1687
134.0996,154.2500
134.0536,154.3190
133.9846,154.3650
133.9033,154.3812
133.4783,154.3812
133.3970,154.3650
133.3280,154.3190
133.2820,154.2500
133.2658,154.1687
133.2658,151.0437
133.2820,150.9624
133.3280,150.8934
133.3970,150.8474
133.4783,150.8312
133.9033,150.8312
133.9846,150.8474
134.0536,150.8934
134.0996,150.9624
134.1158,151.0437
Z" /> 
<path style="fill:#000000; fill-opacity:1.0000; stroke:none;fill-rule:evenodd;"
d="M 134.1158,149.8187
134.0996,149.9000
134.0536,149.9690
133.9846,150.0150
133.9033,150.0312
133.4783,150.0312
133.3970,150.0150
133.3280,149.9690
133.2820,149.9000
133.2658,149.8187
133.2658,147.5937
133.2820,147.5124
133.3280,147.4434
133.3970,147.3974
133.4783,147.3812
133.9033,147.3812
133.9846,147.3974
134.0536,147.4434
134.0996,147.5124
134.1158,147.5937
Z" /> 
<path style="fill:#000000; fill-opacity:1.0000; stroke:none;fill-rule:evenodd;"
d="M 135.6158,154.1687
135.5996,154.2500
135.5536,154.3190
135.4846,154.3650
135.4033,154.3812
134.9783,154.3812
134.8970,154.3650
134.8280,154.3190
134.7820,154.2500
134.7658,154.1687
134.7658,151.0437
134.7820,150.9624
134.8280,150.8934
134.8970,150.8474
134.9783,150.8312
135.4033,150.8312
135.4846,150.8474
135.5536,150.8934
135.5996,150.9624
135.6158,151.0437
Z" /> 
<path style="fill:#000000; fill-opacity:1.0000; stroke:none;fill-rule:evenodd;"
d="M 135.6158,149.8187
135.5996,149.9000
135.5536,149.9690
135.4846,150.0150
135.4033,150.0312
134.9783,150.0312
134.8970,150.0150
134.8280,149.9690
134.7820,149.9000
134.7658,149.8187
134.7658,147.5937
134.7820,147.5124
134.8280,147.4434
134.8970,147.3974
134.9783,147.3812
135.4033,147.3812
135.4846,147.3974
135.5536,147.4434
135.5996,147.5124
135.6158,147.5937
Z" /> 
<path style="fill:#000000; fill-opacity:1.0000; stroke:none;fill-rule:evenodd;"
d="M 137.1158,154.1687
137.0996,154.2500
137.0536,154.3190
136.9846,154.3650
136.9033,154.3812
136.4783,154.3812
136.3970,154.3650
136.3280,154.3190
136.2820,154.2500
136.2658,154.1687
136.2658,151.0437
136.2820,150.9624
136.3280,150.8934
136.3970,150.8474
136.4783,150.8312
136.9033,150.8312
136.9846,150.8474
137.0536,150.8934
137.0996,150.9624
137.1158,151.0437
Z" /> 
<path style="fill:#000000; fill-opacity:1.0000; stroke:none;fill-rule:evenodd;"
d="M 137.1158,149.8187
137.0996,149.9000
137.0536,149.9690
136.9846,150.0150
136.9033,150.0312
136.4783,150.0312
136.3970,150.0150
136.3280,149.9690
136.2820,149.9000
136.2658,149.8187
136.2658,147.5937
136.2820,147.5124
136.3280,147.4434
136.3970,147.3974
136.4783,147.3812
136.9033,147.3812
136.9846,147.3974
137.0536,147.4434
137.0996,147.5124
137.1158,147.5937
Z" /> 
<path style="fill:#000000; fill-opacity:1.0000; stroke:none;fill-rule:evenodd;"
d="M 138.6158,154.1687
138.5996,154.2500
138.5536,154.3190
138.4846,154.3650
138.4033,154.3812
137.9783,154.3812
137.8970,154.3650
137.8280,154.3190
137.7820,154.2500
137.7658,154.1687
137.7658,151.0437
137.7820,150.9624
137.8280,150.8934
137.8970,150.8474
137.9783,150.8312
138.4033,150.8312
138.4846,150.8474
138.5536,150.8934
138.5996,150.9624
138.6158,151.0437
Z" /> 
<path style="fill:#000000; fill-opacity:1.0000; stroke:none;fill-rule:evenodd;"
d="M 138.6158,149.8187
138.5996,149.9000
138.5536,149.9690
138.4846,150.0150
138.4033,150.0312
137.9783,150.0312
137.8970,150.0150
137.8280,149.9690
137.7820,149.9000
137.7658,149.8187
137.7658,147.5937
137.7820,147.5124
137.8280,147.4434
137.8970,147.3974
137.9783,147.3812
138.4033,147.3812
138.4846,147.3974
138.5536,147.4434
138.5996,147.5124
138.6158,147.5937
Z" /> 
<path style="fill:#000000; fill-opacity:1.0000; stroke:none;fill-rule:evenodd;"
d="M 166.2588,143.6552
166.2398,143.7509
166.1856,143.8320
166.1045,143.8862
166.0088,143.9052
165.3088,143.9052
165.2131,143.8862
165.1320,143.8320
165.0778,143.7509
165.0588,143.6552
165.0588,142.7552
165.0778,142.6595
165.1320,142.5784
165.2131,142.5242
165.3088,142.5052
166.0088,142.5052
166.1045,142.5242
166.1856,142.5784
166.2398,142.6595
166.2588,142.7552
Z" /> 
<path style="fill:#000000; fill-opacity:1.0000; stroke:none;fill-rule:evenodd;"
d="M 164.2588,143.6552
164.2398,143.7509
164.1856,143.8320
164.1045,143.8862
164.0088,143.9052
163.3088,143.9052
163.2131,143.8862
163.1320,143.8320
163.0778,143.7509
163.0588,143.6552
163.0588,142.7552
163.0778,142.6595
163.1320,142.5784
163.2131,142.5242
163.3088,142.5052
164.0088,142.5052
164.1045,142.5242
164.1856,142.5784
164.2398,142.6595
164.2588,142.7552
Z" /> 
<path style="fill:#000000; fill-opacity:1.0000; stroke:none;fill-rule:evenodd;"
d="M 158.6141,150.8028
158.5232,150.7847
158.4462,150.7332
158.3947,150.6562
158.3766,150.5653
158.3766,149.9653
158.3947,149.8744
158.4462,149.7974
158.5232,149.7459
158.6141,149.7278
159.0891,149.7278
159.1800,149.7459
159.2570,149.7974
159.3085,149.8744
159.3266,149.9653
159.3266,150.5653
159.3085,150.6562
159.2570,150.7332
159.1800,150.7847
159.0891,150.8028
Z" /> 
<path style="fill:#000000; fill-opacity:1.0000; stroke:none;fill-rule:evenodd;"
d="M 158.6141,149.0778
158.5232,149.0597
158.4462,149.0082
158.3947,148.9312
158.3766,148.8403
158.3766,148.2403
158.3947,148.1494
158.4462,148.0724
158.5232,148.0209
158.6141,148.0028
159.0891,148.0028
159.1800,148.0209
159.2570,148.0724
159.3085,148.1494
159.3266,148.2403
159.3266,148.8403
159.3085,148.9312
159.2570,149.0082
159.1800,149.0597
159.0891,149.0778
Z" /> 
<path style="fill:#000000; fill-opacity:1.0000; stroke:none;fill-rule:evenodd;"
d="M 149.5222,148.7430
149.6179,148.7620
149.6990,148.8162
149.7532,148.8973
149.7722,148.9930
149.7722,149.6680
149.7532,149.7637
149.6990,149.8448
149.6179,149.8990
149.5222,149.9180
148.5722,149.9180
148.4765,149.8990
148.3954,149.8448
148.3412,149.7637
148.3222,149.6680
148.3222,148.9930
148.3412,148.8973
148.3954,148.8162
148.4765,148.7620
148.5722,148.7430
Z" /> 
<path style="fill:#000000; fill-opacity:1.0000; stroke:none;fill-rule:evenodd;"
d="M 149.5222,150.8180
149.6179,150.8370
149.6990,150.8912
149.7532,150.9723
149.7722,151.0680
149.7722,151.7430
149.7532,151.8387
149.6990,151.9198
149.6179,151.9740
149.5222,151.9930
148.5722,151.9930
148.4765,151.9740
148.3954,151.9198
148.3412,151.8387
148.3222,151.7430
148.3222,151.0680
148.3412,150.9723
148.3954,150.8912
148.4765,150.8370
148.5722,150.8180
Z" /> 
<path style="fill:#000000; fill-opacity:1.0000; stroke:none;fill-rule:evenodd;"
d="M 172.0250,139.3787
172.0070,139.4696
171.9555,139.5466
171.8784,139.5981
171.7875,139.6162
171.1875,139.6162
171.0967,139.5981
171.0196,139.5466
170.9681,139.4696
170.9500,139.3787
170.9500,138.9037
170.9681,138.8128
171.0196,138.7358
171.0967,138.6843
171.1875,138.6662
171.7875,138.6662
171.8784,138.6843
171.9555,138.7358
172.0070,138.8128
172.0250,138.9037
Z" /> 
<path style="fill:#000000; fill-opacity:1.0000; stroke:none;fill-rule:evenodd;"
d="M 170.3000,139.3787
170.2820,139.4696
170.2305,139.5466
170.1534,139.5981
170.0625,139.6162
169.4625,139.6162
169.3717,139.5981
169.2946,139.5466
169.2431,139.4696
169.2250,139.3787
169.2250,138.9037
169.2431,138.8128
169.2946,138.7358
169.3717,138.6843
169.4625,138.6662
170.0625,138.6662
170.1534,138.6843
170.2305,138.7358
170.2820,138.8128
170.3000,138.9037
Z" /> 
<path style="fill:#000000; fill-opacity:1.0000; stroke:none;fill-rule:evenodd;"
d="M 135.6056,142.1020
135.6246,142.0063
135.6788,141.9252
135.7599,141.8710
135.8556,141.8520
138.8556,141.8520
138.9513,141.8710
139.0324,141.9252
139.0866,142.0063
139.1056,142.1020
139.1056,143.9020
139.0866,143.9977
139.0324,144.0788
138.9513,144.1330
138.8556,144.1520
135.8556,144.1520
135.7599,144.1330
135.6788,144.0788
135.6246,143.9977
135.6056,143.9020
Z" /> 
<path style="fill:#000000; fill-opacity:1.0000; stroke:none;fill-rule:evenodd;"
d="M 141.0056,142.1020
141.0246,142.0063
141.0788,141.9252
141.1599,141.8710
141.2556,141.8520
144.2556,141.8520
144.3513,141.8710
144.4324,141.9252
144.4866,142.0063
144.5056,142.1020
144.5056,143.9020
144.4866,143.9977
144.4324,144.0788
144.3513,144.1330
144.2556,144.1520
141.2556,144.1520
141.1599,144.1330
141.0788,144.0788
141.0246,143.9977
141.0056,143.9020
Z" /> 
<path style="fill:#000000; fill-opacity:1.0000; stroke:none;fill-rule:evenodd;"
d="M 162.0108,116.6948
162.0298,116.5991
162.0840,116.5180
162.1651,116.4638
162.2608,116.4448
162.9608,116.4448
163.0565,116.4638
163.1376,116.5180
163.1918,116.5991
163.2108,116.6948
163.2108,117.5948
163.1918,117.6905
163.1376,117.7716
163.0565,117.8258
162.9608,117.8448
162.2608,117.8448
162.1651,117.8258
162.0840,117.7716
162.0298,117.6905
162.0108,117.5948
Z" /> 
<path style="fill:#000000; fill-opacity:1.0000; stroke:none;fill-rule:evenodd;"
d="M 164.0108,116.6948
164.0298,116.5991
164.0840,116.5180
164.1651,116.4638
164.2608,116.4448
164.9608,116.4448
165.0565,116.4638
165.1376,116.5180
165.1918,116.5991
165.2108,116.6948
165.2108,117.5948
165.1918,117.6905
165.1376,117.7716
165.0565,117.8258
164.9608,117.8448
164.2608,117.8448
164.1651,117.8258
164.0840,117.7716
164.0298,117.6905
164.0108,117.5948
Z" /> 
<path style="fill:#000000; fill-opacity:1.0000; stroke:none;fill-rule:evenodd;"
d="M 152.5202,132.0316
152.5316,131.9742
152.5641,131.9255
152.6128,131.8930
152.6702,131.8816
154.3202,131.8816
154.3776,131.8930
154.4263,131.9255
154.4588,131.9742
154.4702,132.0316
154.4702,132.3316
154.4588,132.3890
154.4263,132.4377
154.3776,132.4702
154.3202,132.4816
152.6702,132.4816
152.6128,132.4702
152.5641,132.4377
152.5316,132.3890
152.5202,132.3316
Z" /> 
<path style="fill:#000000; fill-opacity:1.0000; stroke:none;fill-rule:evenodd;"
d="M 152.5202,133.3016
152.5316,133.2442
152.5641,133.1955
152.6128,133.1630
152.6702,133.1516
154.3202,133.1516
154.3776,133.1630
154.4263,133.1955
154.4588,133.2442
154.4702,133.3016
154.4702,133.6016
154.4588,133.6590
154.4263,133.7077
154.3776,133.7402
154.3202,133.7516
152.6702,133.7516
152.6128,133.7402
152.5641,133.7077
152.5316,133.6590
152.5202,133.6016
Z" /> 
<path style="fill:#000000; fill-opacity:1.0000; stroke:none;fill-rule:evenodd;"
d="M 152.5202,134.5716
152.5316,134.5142
152.5641,134.4655
152.6128,134.4330
152.6702,134.4216
154.3202,134.4216
154.3776,134.4330
154.4263,134.4655
154.4588,134.5142
154.4702,134.5716
154.4702,134.8716
154.4588,134.9290
154.4263,134.9777
154.3776,135.0102
154.3202,135.0216
152.6702,135.0216
152.6128,135.0102
152.5641,134.9777
152.5316,134.9290
152.5202,134.8716
Z" /> 
<path style="fill:#000000; fill-opacity:1.0000; stroke:none;fill-rule:evenodd;"
d="M 152.5202,135.8416
152.5316,135.7842
152.5641,135.7355
152.6128,135.7030
152.6702,135.6916
154.3202,135.6916
154.3776,135.7030
154.4263,135.7355
154.4588,135.7842
154.4702,135.8416
154.4702,136.1416
154.4588,136.1990
154.4263,136.2477
154.3776,136.2802
154.3202,136.2916
152.6702,136.2916
152.6128,136.2802
152.5641,136.2477
152.5316,136.1990
152.5202,136.1416
Z" /> 
<path style="fill:#000000; fill-opacity:1.0000; stroke:none;fill-rule:evenodd;"
d="M 152.5202,137.1116
152.5316,137.0542
152.5641,137.0055
152.6128,136.9730
152.6702,136.9616
154.3202,136.9616
154.3776,136.9730
154.4263,137.0055
154.4588,137.0542
154.4702,137.1116
154.4702,137.4116
154.4588,137.4690
154.4263,137.5177
154.3776,137.5502
154.3202,137.5616
152.6702,137.5616
152.6128,137.5502
152.5641,137.5177
152.5316,137.4690
152.5202,137.4116
Z" /> 
<path style="fill:#000000; fill-opacity:1.0000; stroke:none;fill-rule:evenodd;"
d="M 152.5202,138.3816
152.5316,138.3242
152.5641,138.2755
152.6128,138.2430
152.6702,138.2316
154.3202,138.2316
154.3776,138.2430
154.4263,138.2755
154.4588,138.3242
154.4702,138.3816
154.4702,138.6816
154.4588,138.7390
154.4263,138.7877
154.3776,138.8202
154.3202,138.8316
152.6702,138.8316
152.6128,138.8202
152.5641,138.7877
152.5316,138.7390
152.5202,138.6816
Z" /> 
<path style="fill:#000000; fill-opacity:1.0000; stroke:none;fill-rule:evenodd;"
d="M 152.5202,139.6516
152.5316,139.5942
152.5641,139.5455
152.6128,139.5130
152.6702,139.5016
154.3202,139.5016
154.3776,139.5130
154.4263,139.5455
154.4588,139.5942
154.4702,139.6516
154.4702,139.9516
154.4588,140.0090
154.4263,140.0577
154.3776,140.0902
154.3202,140.1016
152.6702,140.1016
152.6128,140.0902
152.5641,140.0577
152.5316,140.0090
152.5202,139.9516
Z" /> 
<path style="fill:#000000; fill-opacity:1.0000; stroke:none;fill-rule:evenodd;"
d="M 157.4702,139.6516
157.4816,139.5942
157.5141,139.5455
157.5628,139.5130
157.6202,139.5016
159.2702,139.5016
159.3276,139.5130
159.3763,139.5455
159.4088,139.5942
159.4202,139.6516
159.4202,139.9516
159.4088,140.0090
159.3763,140.0577
159.3276,140.0902
159.2702,140.1016
157.6202,140.1016
157.5628,140.0902
157.5141,140.0577
157.4816,140.0090
157.4702,139.9516
Z" /> 
<path style="fill:#000000; fill-opacity:1.0000; stroke:none;fill-rule:evenodd;"
d="M 157.4702,138.3816
157.4816,138.3242
157.5141,138.2755
157.5628,138.2430
157.6202,138.2316
159.2702,138.2316
159.3276,138.2430
159.3763,138.2755
159.4088,138.3242
159.4202,138.3816
159.4202,138.6816
159.4088,138.7390
159.3763,138.7877
159.3276,138.8202
159.2702,138.8316
157.6202,138.8316
157.5628,138.8202
157.5141,138.7877
157.4816,138.7390
157.4702,138.6816
Z" /> 
<path style="fill:#000000; fill-opacity:1.0000; stroke:none;fill-rule:evenodd;"
d="M 157.4702,137.1116
157.4816,137.0542
157.5141,137.0055
157.5628,136.9730
157.6202,136.9616
159.2702,136.9616
159.3276,136.9730
159.3763,137.0055
159.4088,137.0542
159.4202,137.1116
159.4202,137.4116
159.4088,137.4690
159.3763,137.5177
159.3276,137.5502
159.2702,137.5616
157.6202,137.5616
157.5628,137.5502
157.5141,137.5177
157.4816,137.4690
157.4702,137.4116
Z" /> 
<path style="fill:#000000; fill-opacity:1.0000; stroke:none;fill-rule:evenodd;"
d="M 157.4702,135.8416
157.4816,135.7842
157.5141,135.7355
157.5628,135.7030
157.6202,135.6916
159.2702,135.6916
159.3276,135.7030
159.3763,135.7355
159.4088,135.7842
159.4202,135.8416
159.4202,136.1416
159.4088,136.1990
159.3763,136.2477
159.3276,136.2802
159.2702,136.2916
157.6202,136.2916
157.5628,136.2802
157.5141,136.2477
157.4816,136.1990
157.4702,136.1416
Z" /> 
<path style="fill:#000000; fill-opacity:1.0000; stroke:none;fill-rule:evenodd;"
d="M 157.4702,134.5716
157.4816,134.5142
157.5141,134.4655
157.5628,134.4330
157.6202,134.4216
159.2702,134.4216
159.3276,134.4330
159.3763,134.4655
159.4088,134.5142
159.4202,134.5716
159.4202,134.8716
159.4088,134.9290
159.3763,134.9777
159.3276,135.0102
159.2702,135.0216
157.6202,135.0216
157.5628,135.0102
157.5141,134.9777
157.4816,134.9290
157.4702,134.8716
Z" /> 
<path style="fill:#000000; fill-opacity:1.0000; stroke:none;fill-rule:evenodd;"
d="M 157.4702,133.3016
157.4816,133.2442
157.5141,133.1955
157.5628,133.1630
157.6202,133.1516
159.2702,133.1516
159.3276,133.1630
159.3763,133.1955
159.4088,133.2442
159.4202,133.3016
159.4202,133.6016
159.4088,133.6590
159.3763,133.7077
159.3276,133.7402
159.2702,133.7516
157.6202,133.7516
157.5628,133.7402
157.5141,133.7077
157.4816,133.6590
157.4702,133.6016
Z" /> 
<path style="fill:#000000; fill-opacity:1.0000; stroke:none;fill-rule:evenodd;"
d="M 157.4702,132.0316
157.4816,131.9742
157.5141,131.9255
157.5628,131.8930
157.6202,131.8816
159.2702,131.8816
159.3276,131.8930
159.3763,131.9255
159.4088,131.9742
159.4202,132.0316
159.4202,132.3316
159.4088,132.3890
159.3763,132.4377
159.3276,132.4702
159.2702,132.4816
157.6202,132.4816
157.5628,132.4702
157.5141,132.4377
157.4816,132.3890
157.4702,132.3316
Z" /> 
<path style="fill:#000000; fill-opacity:1.0000; stroke:none;fill-rule:evenodd;"
d="M 163.8250,123.5781
163.8431,123.4872
163.8946,123.4102
163.9716,123.3587
164.0625,123.3406
164.6375,123.3406
164.7284,123.3587
164.8054,123.4102
164.8569,123.4872
164.8750,123.5781
164.8750,124.0531
164.8569,124.1440
164.8054,124.2210
164.7284,124.2725
164.6375,124.2906
164.0625,124.2906
163.9716,124.2725
163.8946,124.2210
163.8431,124.1440
163.8250,124.0531
Z" /> 
<path style="fill:#000000; fill-opacity:1.0000; stroke:none;fill-rule:evenodd;"
d="M 165.5750,123.5781
165.5931,123.4872
165.6446,123.4102
165.7216,123.3587
165.8125,123.3406
166.3875,123.3406
166.4784,123.3587
166.5554,123.4102
166.6069,123.4872
166.6250,123.5781
166.6250,124.0531
166.6069,124.1440
166.5554,124.2210
166.4784,124.2725
166.3875,124.2906
165.8125,124.2906
165.7216,124.2725
165.6446,124.2210
165.5931,124.1440
165.5750,124.0531
Z" /> 
<path style="fill:#000000; fill-opacity:1.0000; stroke:none;fill-rule:evenodd;"
d="M 141.7290,121.9365
141.7471,121.8456
141.7986,121.7686
141.8756,121.7171
141.9665,121.6990
142.5665,121.6990
142.6574,121.7171
142.7344,121.7686
142.7859,121.8456
142.8040,121.9365
142.8040,122.4115
142.7859,122.5024
142.7344,122.5794
142.6574,122.6309
142.5665,122.6490
141.9665,122.6490
141.8756,122.6309
141.7986,122.5794
141.7471,122.5024
141.7290,122.4115
Z" /> 
<path style="fill:#000000; fill-opacity:1.0000; stroke:none;fill-rule:evenodd;"
d="M 143.4540,121.9365
143.4721,121.8456
143.5236,121.7686
143.6006,121.7171
143.6915,121.6990
144.2915,121.6990
144.3824,121.7171
144.4594,121.7686
144.5109,121.8456
144.5290,121.9365
144.5290,122.4115
144.5109,122.5024
144.4594,122.5794
144.3824,122.6309
144.2915,122.6490
143.6915,122.6490
143.6006,122.6309
143.5236,122.5794
143.4721,122.5024
143.4540,122.4115
Z" /> 
<path style="fill:#000000; fill-opacity:1.0000; stroke:none;fill-rule:evenodd;"
d="M 165.7188,132.8508
165.6998,132.9465
165.6456,133.0276
165.5645,133.0818
165.4688,133.1008
164.7688,133.1008
164.6731,133.0818
164.5920,133.0276
164.5378,132.9465
164.5188,132.8508
164.5188,131.9508
164.5378,131.8551
164.5920,131.7740
164.6731,131.7198
164.7688,131.7008
165.4688,131.7008
165.5645,131.7198
165.6456,131.7740
165.6998,131.8551
165.7188,131.9508
Z" /> 
<path style="fill:#000000; fill-opacity:1.0000; stroke:none;fill-rule:evenodd;"
d="M 163.7188,132.8508
163.6998,132.9465
163.6456,133.0276
163.5645,133.0818
163.4688,133.1008
162.7688,133.1008
162.6731,133.0818
162.5920,133.0276
162.5378,132.9465
162.5188,132.8508
162.5188,131.9508
162.5378,131.8551
162.5920,131.7740
162.6731,131.7198
162.7688,131.7008
163.4688,131.7008
163.5645,131.7198
163.6456,131.7740
163.6998,131.8551
163.7188,131.9508
Z" /> 
<path style="fill:#000000; fill-opacity:1.0000; stroke:none;fill-rule:evenodd;"
d="M 153.9158,119.9546
153.0658,119.9546
153.0658,117.3046
153.9158,117.3046
Z" /> 
<path style="fill:#000000; fill-opacity:1.0000; stroke:none;fill-rule:evenodd;"
d="M 153.9158,124.3046
153.0658,124.3046
153.0658,120.7546
153.9158,120.7546
Z" /> 
<path style="fill:#000000; fill-opacity:1.0000; stroke:none;fill-rule:evenodd;"
d="M 155.4158,119.9546
154.5658,119.9546
154.5658,117.3046
155.4158,117.3046
Z" /> 
<path style="fill:#000000; fill-opacity:1.0000; stroke:none;fill-rule:evenodd;"
d="M 155.4158,124.3046
154.5658,124.3046
154.5658,120.7546
155.4158,120.7546
Z" /> 
<path style="fill:#000000; fill-opacity:1.0000; stroke:none;fill-rule:evenodd;"
d="M 156.9158,119.9546
156.0658,119.9546
156.0658,117.3046
156.9158,117.3046
Z" /> 
<path style="fill:#000000; fill-opacity:1.0000; stroke:none;fill-rule:evenodd;"
d="M 156.9158,124.3046
156.0658,124.3046
156.0658,120.7546
156.9158,120.7546
Z" /> 
<path style="fill:#000000; fill-opacity:1.0000; stroke:none;fill-rule:evenodd;"
d="M 158.4158,119.9546
157.5658,119.9546
157.5658,117.3046
158.4158,117.3046
Z" /> 
<path style="fill:#000000; fill-opacity:1.0000; stroke:none;fill-rule:evenodd;"
d="M 158.4158,124.3046
157.5658,124.3046
157.5658,120.7546
158.4158,120.7546
Z" /> 
<path style="fill:#000000; fill-opacity:1.0000; stroke:none;fill-rule:evenodd;"
d="M 159.9158,119.9546
159.0658,119.9546
159.0658,117.3046
159.9158,117.3046
Z" /> 
<path style="fill:#000000; fill-opacity:1.0000; stroke:none;fill-rule:evenodd;"
d="M 159.9158,124.3046
159.0658,124.3046
159.0658,120.7546
159.9158,120.7546
Z" /> 
<path style="fill:#000000; fill-opacity:1.0000; stroke:none;fill-rule:evenodd;"
d="M 163.3008,129.3237
163.2434,129.3123
163.1947,129.2798
163.1622,129.2311
163.1508,129.1737
163.1508,127.9987
163.1622,127.9413
163.1947,127.8926
163.2434,127.8601
163.3008,127.8487
163.6008,127.8487
163.6582,127.8601
163.7069,127.8926
163.7394,127.9413
163.7508,127.9987
163.7508,129.1737
163.7394,129.2311
163.7069,129.2798
163.6582,129.3123
163.6008,129.3237
Z" /> 
<path style="fill:#000000; fill-opacity:1.0000; stroke:none;fill-rule:evenodd;"
d="M 165.2008,129.3237
165.1434,129.3123
165.0947,129.2798
165.0622,129.2311
165.0508,129.1737
165.0508,127.9987
165.0622,127.9413
165.0947,127.8926
165.1434,127.8601
165.2008,127.8487
165.5008,127.8487
165.5582,127.8601
165.6069,127.8926
165.6394,127.9413
165.6508,127.9987
165.6508,129.1737
165.6394,129.2311
165.6069,129.2798
165.5582,129.3123
165.5008,129.3237
Z" /> 
<path style="fill:#000000; fill-opacity:1.0000; stroke:none;fill-rule:evenodd;"
d="M 164.2508,127.4487
164.1934,127.4373
164.1447,127.4048
164.1122,127.3561
164.1008,127.2987
164.1008,126.1237
164.1122,126.0663
164.1447,126.0176
164.1934,125.9851
164.2508,125.9737
164.5508,125.9737
164.6082,125.9851
164.6569,126.0176
164.6894,126.0663
164.7008,126.1237
164.7008,127.2987
164.6894,127.3561
164.6569,127.4048
164.6082,127.4373
164.5508,127.4487
Z" /> 
<path style="fill:#000000; fill-opacity:1.0000; stroke:none;fill-rule:evenodd;"
d="M 167.1232,129.1240
167.0275,129.1050
166.9464,129.0508
166.8922,128.9697
166.8732,128.8740
166.8732,128.1740
166.8922,128.0783
166.9464,127.9972
167.0275,127.9430
167.1232,127.9240
168.0232,127.9240
168.1189,127.9430
168.2000,127.9972
168.2542,128.0783
168.2732,128.1740
168.2732,128.8740
168.2542,128.9697
168.2000,129.0508
168.1189,129.1050
168.0232,129.1240
Z" /> 
<path style="fill:#000000; fill-opacity:1.0000; stroke:none;fill-rule:evenodd;"
d="M 167.1232,127.1240
167.0275,127.1050
166.9464,127.0508
166.8922,126.9697
166.8732,126.8740
166.8732,126.1740
166.8922,126.0783
166.9464,125.9972
167.0275,125.9430
167.1232,125.9240
168.0232,125.9240
168.1189,125.9430
168.2000,125.9972
168.2542,126.0783
168.2732,126.1740
168.2732,126.8740
168.2542,126.9697
168.2000,127.0508
168.1189,127.1050
168.0232,127.1240
Z" /> 
<path style="fill:#000000; fill-opacity:1.0000; stroke:none;fill-rule:evenodd;"
d="M 137.0563,137.1268
137.0753,137.0311
137.1295,136.9500
137.2106,136.8958
137.3063,136.8768
138.1313,136.8768
138.2270,136.8958
138.3081,136.9500
138.3623,137.0311
138.3813,137.1268
138.3813,139.3268
138.3623,139.4225
138.3081,139.5036
138.2270,139.5578
138.1313,139.5768
137.3063,139.5768
137.2106,139.5578
137.1295,139.5036
137.0753,139.4225
137.0563,139.3268
Z" /> 
<path style="fill:#000000; fill-opacity:1.0000; stroke:none;fill-rule:evenodd;"
d="M 140.1813,137.1268
140.2003,137.0311
140.2545,136.9500
140.3356,136.8958
140.4313,136.8768
141.2563,136.8768
141.3520,136.8958
141.4331,136.9500
141.4873,137.0311
141.5063,137.1268
141.5063,139.3268
141.4873,139.4225
141.4331,139.5036
141.3520,139.5578
141.2563,139.5768
140.4313,139.5768
140.3356,139.5578
140.2545,139.5036
140.2003,139.4225
140.1813,139.3268
Z" /> 
<path style="fill:#000000; fill-opacity:1.0000; stroke:none;fill-rule:evenodd;"
d="M 149.4972,144.4500
149.5929,144.4690
149.6740,144.5232
149.7282,144.6043
149.7472,144.7000
149.7472,145.4000
149.7282,145.4957
149.6740,145.5768
149.5929,145.6310
149.4972,145.6500
148.5972,145.6500
148.5015,145.6310
148.4204,145.5768
148.3662,145.4957
148.3472,145.4000
148.3472,144.7000
148.3662,144.6043
148.4204,144.5232
148.5015,144.4690
148.5972,144.4500
Z" /> 
<path style="fill:#000000; fill-opacity:1.0000; stroke:none;fill-rule:evenodd;"
d="M 149.4972,146.4500
149.5929,146.4690
149.6740,146.5232
149.7282,146.6043
149.7472,146.7000
149.7472,147.4000
149.7282,147.4957
149.6740,147.5768
149.5929,147.6310
149.4972,147.6500
148.5972,147.6500
148.5015,147.6310
148.4204,147.5768
148.3662,147.4957
148.3472,147.4000
148.3472,146.7000
148.3662,146.6043
148.4204,146.5232
148.5015,146.4690
148.5972,146.4500
Z" /> 
<path style="fill:#000000; fill-opacity:1.0000; stroke:none;fill-rule:evenodd;"
d="M 156.8680,145.3574
156.9254,145.3688
156.9741,145.4013
157.0066,145.4500
157.0180,145.5074
157.0180,147.1574
157.0066,147.2148
156.9741,147.2635
156.9254,147.2960
156.8680,147.3074
156.5680,147.3074
156.5106,147.2960
156.4619,147.2635
156.4294,147.2148
156.4180,147.1574
156.4180,145.5074
156.4294,145.4500
156.4619,145.4013
156.5106,145.3688
156.5680,145.3574
Z" /> 
<path style="fill:#000000; fill-opacity:1.0000; stroke:none;fill-rule:evenodd;"
d="M 155.5980,145.3574
155.6554,145.3688
155.7041,145.4013
155.7366,145.4500
155.7480,145.5074
155.7480,147.1574
155.7366,147.2148
155.7041,147.2635
155.6554,147.2960
155.5980,147.3074
155.2980,147.3074
155.2406,147.2960
155.1919,147.2635
155.1594,147.2148
155.1480,147.1574
155.1480,145.5074
155.1594,145.4500
155.1919,145.4013
155.2406,145.3688
155.2980,145.3574
Z" /> 
<path style="fill:#000000; fill-opacity:1.0000; stroke:none;fill-rule:evenodd;"
d="M 154.3280,145.3574
154.3854,145.3688
154.4341,145.4013
154.4666,145.4500
154.4780,145.5074
154.4780,147.1574
154.4666,147.2148
154.4341,147.2635
154.3854,147.2960
154.3280,147.3074
154.0280,147.3074
153.9706,147.2960
153.9219,147.2635
153.8894,147.2148
153.8780,147.1574
153.8780,145.5074
153.8894,145.4500
153.9219,145.4013
153.9706,145.3688
154.0280,145.3574
Z" /> 
<path style="fill:#000000; fill-opacity:1.0000; stroke:none;fill-rule:evenodd;"
d="M 153.0580,145.3574
153.1154,145.3688
153.1641,145.4013
153.1966,145.4500
153.2080,145.5074
153.2080,147.1574
153.1966,147.2148
153.1641,147.2635
153.1154,147.2960
153.0580,147.3074
152.7580,147.3074
152.7006,147.2960
152.6519,147.2635
152.6194,147.2148
152.6080,147.1574
152.6080,145.5074
152.6194,145.4500
152.6519,145.4013
152.7006,145.3688
152.7580,145.3574
Z" /> 
<path style="fill:#000000; fill-opacity:1.0000; stroke:none;fill-rule:evenodd;"
d="M 153.0580,150.3074
153.1154,150.3188
153.1641,150.3513
153.1966,150.4000
153.2080,150.4574
153.2080,152.1074
153.1966,152.1648
153.1641,152.2135
153.1154,152.2460
153.0580,152.2574
152.7580,152.2574
152.7006,152.2460
152.6519,152.2135
152.6194,152.1648
152.6080,152.1074
152.6080,150.4574
152.6194,150.4000
152.6519,150.3513
152.7006,150.3188
152.7580,150.3074
Z" /> 
<path style="fill:#000000; fill-opacity:1.0000; stroke:none;fill-rule:evenodd;"
d="M 154.3280,150.3074
154.3854,150.3188
154.4341,150.3513
154.4666,150.4000
154.4780,150.4574
154.4780,152.1074
154.4666,152.1648
154.4341,152.2135
154.3854,152.2460
154.3280,152.2574
154.0280,152.2574
153.9706,152.2460
153.9219,152.2135
153.8894,152.1648
153.8780,152.1074
153.8780,150.4574
153.8894,150.4000
153.9219,150.3513
153.9706,150.3188
154.0280,150.3074
Z" /> 
<path style="fill:#000000; fill-opacity:1.0000; stroke:none;fill-rule:evenodd;"
d="M 155.5980,150.3074
155.6554,150.3188
155.7041,150.3513
155.7366,150.4000
155.7480,150.4574
155.7480,152.1074
155.7366,152.1648
155.7041,152.2135
155.6554,152.2460
155.5980,152.2574
155.2980,152.2574
155.2406,152.2460
155.1919,152.2135
155.1594,152.1648
155.1480,152.1074
155.1480,150.4574
155.1594,150.4000
155.1919,150.3513
155.2406,150.3188
155.2980,150.3074
Z" /> 
<path style="fill:#000000; fill-opacity:1.0000; stroke:none;fill-rule:evenodd;"
d="M 156.8680,150.3074
156.9254,150.3188
156.9741,150.3513
157.0066,150.4000
157.0180,150.4574
157.0180,152.1074
157.0066,152.1648
156.9741,152.2135
156.9254,152.2460
156.8680,152.2574
156.5680,152.2574
156.5106,152.2460
156.4619,152.2135
156.4294,152.1648
156.4180,152.1074
156.4180,150.4574
156.4294,150.4000
156.4619,150.3513
156.5106,150.3188
156.5680,150.3074
Z" /> 
<path style="fill:#000000; fill-opacity:1.0000; stroke:none;fill-rule:evenodd;"
d="M 153.0696,128.9232
153.0506,129.0189
152.9964,129.1000
152.9153,129.1542
152.8196,129.1732
152.1196,129.1732
152.0239,129.1542
151.9428,129.1000
151.8886,129.0189
151.8696,128.9232
151.8696,128.0232
151.8886,127.9275
151.9428,127.8464
152.0239,127.7922
152.1196,127.7732
152.8196,127.7732
152.9153,127.7922
152.9964,127.8464
153.0506,127.9275
153.0696,128.0232
Z" /> 
<path style="fill:#000000; fill-opacity:1.0000; stroke:none;fill-rule:evenodd;"
d="M 151.0696,128.9232
151.0506,129.0189
150.9964,129.1000
150.9153,129.1542
150.8196,129.1732
150.1196,129.1732
150.0239,129.1542
149.9428,129.1000
149.8886,129.0189
149.8696,128.9232
149.8696,128.0232
149.8886,127.9275
149.9428,127.8464
150.0239,127.7922
150.1196,127.7732
150.8196,127.7732
150.9153,127.7922
150.9964,127.8464
151.0506,127.9275
151.0696,128.0232
Z" /> 
<path style="fill:#000000; fill-opacity:1.0000; stroke:none;fill-rule:evenodd;"
d="M 136.3907,124.3100
136.3717,124.4057
136.3175,124.4868
136.2364,124.5410
136.1407,124.5600
134.4407,124.5600
134.3450,124.5410
134.2639,124.4868
134.2097,124.4057
134.1907,124.3100
134.1907,123.6100
134.2097,123.5143
134.2639,123.4332
134.3450,123.3790
134.4407,123.3600
136.1407,123.3600
136.2364,123.3790
136.3175,123.4332
136.3717,123.5143
136.3907,123.6100
Z" /> 
<path style="fill:#000000; fill-opacity:1.0000; stroke:none;fill-rule:evenodd;"
d="M 136.3907,122.0300
136.3717,122.1257
136.3175,122.2068
136.2364,122.2610
136.1407,122.2800
134.4407,122.2800
134.3450,122.2610
134.2639,122.2068
134.2097,122.1257
134.1907,122.0300
134.1907,121.3300
134.2097,121.2343
134.2639,121.1532
134.3450,121.0990
134.4407,121.0800
136.1407,121.0800
136.2364,121.0990
136.3175,121.1532
136.3717,121.2343
136.3907,121.3300
Z" /> 
<path style="fill:#000000; fill-opacity:1.0000; stroke:none;fill-rule:evenodd;"
d="M 132.1907,124.3300
132.1717,124.4257
132.1175,124.5068
132.0364,124.5610
131.9407,124.5800
129.3907,124.5800
129.2950,124.5610
129.2139,124.5068
129.1597,124.4257
129.1407,124.3300
129.1407,122.0800
129.1597,121.9843
129.2139,121.9032
129.2950,121.8490
129.3907,121.8300
131.9407,121.8300
132.0364,121.8490
132.1175,121.9032
132.1717,121.9843
132.1907,122.0800
Z" /> 
<path style="fill:#000000; fill-opacity:1.0000; stroke:none;fill-rule:evenodd;"
d="M 132.1907,121.2800
132.1717,121.3757
132.1175,121.4568
132.0364,121.5110
131.9407,121.5300
129.3907,121.5300
129.2950,121.5110
129.2139,121.4568
129.1597,121.3757
129.1407,121.2800
129.1407,119.0300
129.1597,118.9343
129.2139,118.8532
129.2950,118.7990
129.3907,118.7800
131.9407,118.7800
132.0364,118.7990
132.1175,118.8532
132.1717,118.9343
132.1907,119.0300
Z" /> 
<path style="fill:#000000; fill-opacity:1.0000; stroke:none;fill-rule:evenodd;"
d="M 128.8407,124.3300
128.8217,124.4257
128.7675,124.5068
128.6864,124.5610
128.5907,124.5800
126.0407,124.5800
125.9450,124.5610
125.8639,124.5068
125.8097,124.4257
125.7907,124.3300
125.7907,122.0800
125.8097,121.9843
125.8639,121.9032
125.9450,121.8490
126.0407,121.8300
128.5907,121.8300
128.6864,121.8490
128.7675,121.9032
128.8217,121.9843
128.8407,122.0800
Z" /> 
<path style="fill:#000000; fill-opacity:1.0000; stroke:none;fill-rule:evenodd;"
d="M 128.8407,121.2800
128.8217,121.3757
128.7675,121.4568
128.6864,121.5110
128.5907,121.5300
126.0407,121.5300
125.9450,121.5110
125.8639,121.4568
125.8097,121.3757
125.7907,121.2800
125.7907,119.0300
125.8097,118.9343
125.8639,118.8532
125.9450,118.7990
126.0407,118.7800
128.5907,118.7800
128.6864,118.7990
128.7675,118.8532
128.8217,118.9343
128.8407,119.0300
Z" /> 
<path style="fill:#000000; fill-opacity:1.0000; stroke:none;fill-rule:evenodd;"
d="M 136.3907,119.7500
136.3717,119.8457
136.3175,119.9268
136.2364,119.9810
136.1407,120.0000
134.4407,120.0000
134.3450,119.9810
134.2639,119.9268
134.2097,119.8457
134.1907,119.7500
134.1907,119.0500
134.2097,118.9543
134.2639,118.8732
134.3450,118.8190
134.4407,118.8000
136.1407,118.8000
136.2364,118.8190
136.3175,118.8732
136.3717,118.9543
136.3907,119.0500
Z" /> 
<path style="fill:#000000; fill-opacity:1.0000; stroke:none;fill-rule:evenodd;"
d="M 171.0187,136.0000
170.1187,136.0000
170.1187,134.6700
170.3887,134.4000
171.0187,134.4000
Z" /> 
<path style="fill:#000000; fill-opacity:1.0000; stroke:none;fill-rule:evenodd;"
d="M 169.1187,134.5750
169.1187,134.3250
169.6687,134.3250
169.6687,134.5750
Z" /> 
<path style="fill:#000000; fill-opacity:1.0000; stroke:none;fill-rule:evenodd;"
d="M 169.1187,135.0750
169.1187,134.8250
169.6687,134.8250
169.6687,135.0750
Z" /> 
<path style="fill:#000000; fill-opacity:1.0000; stroke:none;fill-rule:evenodd;"
d="M 169.1187,135.5750
169.1187,135.3250
169.6687,135.3250
169.6687,135.5750
Z" /> 
<path style="fill:#000000; fill-opacity:1.0000; stroke:none;fill-rule:evenodd;"
d="M 169.6687,135.8250
169.6687,136.0750
169.1187,136.0750
169.1187,135.8250
Z" /> 
<path style="fill:#000000; fill-opacity:1.0000; stroke:none;fill-rule:evenodd;"
d="M 171.4687,136.0750
171.4687,135.8250
172.0187,135.8250
172.0187,136.0750
Z" /> 
<path style="fill:#000000; fill-opacity:1.0000; stroke:none;fill-rule:evenodd;"
d="M 171.4687,135.5750
171.4687,135.3250
172.0187,135.3250
172.0187,135.5750
Z" /> 
<path style="fill:#000000; fill-opacity:1.0000; stroke:none;fill-rule:evenodd;"
d="M 171.4687,135.0750
171.4687,134.8250
172.0187,134.8250
172.0187,135.0750
Z" /> 
<path style="fill:#000000; fill-opacity:1.0000; stroke:none;fill-rule:evenodd;"
d="M 171.4687,134.5750
171.4687,134.3250
172.0187,134.3250
172.0187,134.5750
Z" /> 
<path style="fill:#000000; fill-opacity:1.0000; stroke:none;fill-rule:evenodd;"
d="M 166.2588,146.0428
166.2398,146.1385
166.1856,146.2196
166.1045,146.2738
166.0088,146.2928
165.3088,146.2928
165.2131,146.2738
165.1320,146.2196
165.0778,146.1385
165.0588,146.0428
165.0588,145.1428
165.0778,145.0471
165.1320,144.9660
165.2131,144.9118
165.3088,144.8928
166.0088,144.8928
166.1045,144.9118
166.1856,144.9660
166.2398,145.0471
166.2588,145.1428
Z" /> 
<path style="fill:#000000; fill-opacity:1.0000; stroke:none;fill-rule:evenodd;"
d="M 164.2588,146.0428
164.2398,146.1385
164.1856,146.2196
164.1045,146.2738
164.0088,146.2928
163.3088,146.2928
163.2131,146.2738
163.1320,146.2196
163.0778,146.1385
163.0588,146.0428
163.0588,145.1428
163.0778,145.0471
163.1320,144.9660
163.2131,144.9118
163.3088,144.8928
164.0088,144.8928
164.1045,144.9118
164.1856,144.9660
164.2398,145.0471
164.2588,145.1428
Z" /> 
<path style="fill:#000000; fill-opacity:1.0000; stroke:none;fill-rule:evenodd;"
d="M 138.3360,119.9890
138.2403,119.9700
138.1592,119.9158
138.1050,119.8347
138.0860,119.7390
138.0860,119.0640
138.1050,118.9683
138.1592,118.8872
138.2403,118.8330
138.3360,118.8140
139.2860,118.8140
139.3817,118.8330
139.4628,118.8872
139.5170,118.9683
139.5360,119.0640
139.5360,119.7390
139.5170,119.8347
139.4628,119.9158
139.3817,119.9700
139.2860,119.9890
Z" /> 
<path style="fill:#000000; fill-opacity:1.0000; stroke:none;fill-rule:evenodd;"
d="M 138.3360,117.9140
138.2403,117.8950
138.1592,117.8408
138.1050,117.7597
138.0860,117.6640
138.0860,116.9890
138.1050,116.8933
138.1592,116.8122
138.2403,116.7580
138.3360,116.7390
139.2860,116.7390
139.3817,116.7580
139.4628,116.8122
139.5170,116.8933
139.5360,116.9890
139.5360,117.6640
139.5170,117.7597
139.4628,117.8408
139.3817,117.8950
139.2860,117.9140
Z" /> 
<path style="fill:#000000; fill-opacity:1.0000; stroke:none;fill-rule:evenodd;"
d="M 161.5478,154.1687
161.5316,154.2500
161.4856,154.3190
161.4166,154.3650
161.3353,154.3812
160.9103,154.3812
160.8290,154.3650
160.7600,154.3190
160.7140,154.2500
160.6978,154.1687
160.6978,151.0437
160.7140,150.9624
160.7600,150.8934
160.8290,150.8474
160.9103,150.8312
161.3353,150.8312
161.4166,150.8474
161.4856,150.8934
161.5316,150.9624
161.5478,151.0437
Z" /> 
<path style="fill:#000000; fill-opacity:1.0000; stroke:none;fill-rule:evenodd;"
d="M 161.5478,149.8187
161.5316,149.9000
161.4856,149.9690
161.4166,150.0150
161.3353,150.0312
160.9103,150.0312
160.8290,150.0150
160.7600,149.9690
160.7140,149.9000
160.6978,149.8187
160.6978,147.5937
160.7140,147.5124
160.7600,147.4434
160.8290,147.3974
160.9103,147.3812
161.3353,147.3812
161.4166,147.3974
161.4856,147.4434
161.5316,147.5124
161.5478,147.5937
Z" /> 
<path style="fill:#000000; fill-opacity:1.0000; stroke:none;fill-rule:evenodd;"
d="M 163.0478,154.1687
163.0316,154.2500
162.9856,154.3190
162.9166,154.3650
162.8353,154.3812
162.4103,154.3812
162.3290,154.3650
162.2600,154.3190
162.2140,154.2500
162.1978,154.1687
162.1978,151.0437
162.2140,150.9624
162.2600,150.8934
162.3290,150.8474
162.4103,150.8312
162.8353,150.8312
162.9166,150.8474
162.9856,150.8934
163.0316,150.9624
163.0478,151.0437
Z" /> 
<path style="fill:#000000; fill-opacity:1.0000; stroke:none;fill-rule:evenodd;"
d="M 163.0478,149.8187
163.0316,149.9000
162.9856,149.9690
162.9166,150.0150
162.8353,150.0312
162.4103,150.0312
162.3290,150.0150
162.2600,149.9690
162.2140,149.9000
162.1978,149.8187
162.1978,147.5937
162.2140,147.5124
162.2600,147.4434
162.3290,147.3974
162.4103,147.3812
162.8353,147.3812
162.9166,147.3974
162.9856,147.4434
163.0316,147.5124
163.0478,147.5937
Z" /> 
<path style="fill:#000000; fill-opacity:1.0000; stroke:none;fill-rule:evenodd;"
d="M 164.5478,154.1687
164.5316,154.2500
164.4856,154.3190
164.4166,154.3650
164.3353,154.3812
163.9103,154.3812
163.8290,154.3650
163.7600,154.3190
163.7140,154.2500
163.6978,154.1687
163.6978,151.0437
163.7140,150.9624
163.7600,150.8934
163.8290,150.8474
163.9103,150.8312
164.3353,150.8312
164.4166,150.8474
164.4856,150.8934
164.5316,150.9624
164.5478,151.0437
Z" /> 
<path style="fill:#000000; fill-opacity:1.0000; stroke:none;fill-rule:evenodd;"
d="M 164.5478,149.8187
164.5316,149.9000
164.4856,149.9690
164.4166,150.0150
164.3353,150.0312
163.9103,150.0312
163.8290,150.0150
163.7600,149.9690
163.7140,149.9000
163.6978,149.8187
163.6978,147.5937
163.7140,147.5124
163.7600,147.4434
163.8290,147.3974
163.9103,147.3812
164.3353,147.3812
164.4166,147.3974
164.4856,147.4434
164.5316,147.5124
164.5478,147.5937
Z" /> 
<path style="fill:#000000; fill-opacity:1.0000; stroke:none;fill-rule:evenodd;"
d="M 166.0478,154.1687
166.0316,154.2500
165.9856,154.3190
165.9166,154.3650
165.8353,154.3812
165.4103,154.3812
165.3290,154.3650
165.2600,154.3190
165.2140,154.2500
165.1978,154.1687
165.1978,151.0437
165.2140,150.9624
165.2600,150.8934
165.3290,150.8474
165.4103,150.8312
165.8353,150.8312
165.9166,150.8474
165.9856,150.8934
166.0316,150.9624
166.0478,151.0437
Z" /> 
<path style="fill:#000000; fill-opacity:1.0000; stroke:none;fill-rule:evenodd;"
d="M 166.0478,149.8187
166.0316,149.9000
165.9856,149.9690
165.9166,150.0150
165.8353,150.0312
165.4103,150.0312
165.3290,150.0150
165.2600,149.9690
165.2140,149.9000
165.1978,149.8187
165.1978,147.5937
165.2140,147.5124
165.2600,147.4434
165.3290,147.3974
165.4103,147.3812
165.8353,147.3812
165.9166,147.3974
165.9856,147.4434
166.0316,147.5124
166.0478,147.5937
Z" /> 
<path style="fill:none; 
stroke:#000000; stroke-width:0.0500; stroke-opacity:1; 
stroke-linecap:round; stroke-linejoin:round;fill:none"
d="M 116.1745,114.2129
176.1745,114.2129
176.1745,156.2129
116.1745,156.2129
Z" /> 
</g> 
</svg>
