<?xml version="1.0" encoding="UTF-8" standalone="no"?>
<svg
   version="1.1"
   width="297.0022mm"
   height="210.0072mm"
   viewBox="0.0000 0.0000 297.0022 210.0072"
   id="svg43"
   sodipodi:docname="rsr232-iso-F_Paste.svg"
   inkscape:version="1.3.2 (091e20ef0f, 2023-11-25)"
   xmlns:inkscape="http://www.inkscape.org/namespaces/inkscape"
   xmlns:sodipodi="http://sodipodi.sourceforge.net/DTD/sodipodi-0.dtd"
   xmlns="http://www.w3.org/2000/svg"
   xmlns:svg="http://www.w3.org/2000/svg">
  <defs
     id="defs43" />
  <sodipodi:namedview
     id="namedview43"
     pagecolor="#ffffff"
     bordercolor="#666666"
     borderopacity="1.0"
     inkscape:showpageshadow="2"
     inkscape:pageopacity="0.0"
     inkscape:pagecheckerboard="0"
     inkscape:deskcolor="#d1d1d1"
     inkscape:document-units="mm"
     inkscape:zoom="1.9653614"
     inkscape:cx="567.32569"
     inkscape:cy="427.91113"
     inkscape:window-width="1381"
     inkscape:window-height="986"
     inkscape:window-x="119"
     inkscape:window-y="63"
     inkscape:window-maximized="0"
     inkscape:current-layer="svg43" />
  <title
     id="title1">SVG Image created as rsr232-iso-F_Paste.svg date 2024/12/13 11:35:43 </title>
  <desc
     id="desc1">Image generated by PCBNEW </desc>
  <path
     style="fill:#000000;fill-opacity:1;fill-rule:evenodd;stroke:none;stroke-linecap:round;stroke-linejoin:round;stroke-opacity:1"
     d="m 145.519,122.449 -0.0574,-0.0114 -0.0487,-0.0325 -0.0325,-0.0487 -0.0114,-0.0574 v -1.65 l 0.0114,-0.0574 0.0325,-0.0487 0.0487,-0.0325 0.0574,-0.0114 h 0.3 l 0.0574,0.0114 0.0487,0.0325 0.0325,0.0487 0.0114,0.0574 v 1.65 l -0.0114,0.0574 -0.0325,0.0487 -0.0487,0.0325 -0.0574,0.0114 z"
     id="path1" />
  <path
     style="fill:#000000;fill-opacity:1;fill-rule:evenodd;stroke:none;stroke-linecap:round;stroke-linejoin:round;stroke-opacity:1"
     d="m 146.789,122.449 -0.0574,-0.0114 -0.0487,-0.0325 -0.0325,-0.0487 -0.0114,-0.0574 v -1.65 l 0.0114,-0.0574 0.0325,-0.0487 0.0487,-0.0325 0.0574,-0.0114 h 0.3 l 0.0574,0.0114 0.0487,0.0325 0.0325,0.0487 0.0114,0.0574 v 1.65 l -0.0114,0.0574 -0.0325,0.0487 -0.0487,0.0325 -0.0574,0.0114 z"
     id="path2" />
  <path
     style="fill:#000000;fill-opacity:1;fill-rule:evenodd;stroke:none;stroke-linecap:round;stroke-linejoin:round;stroke-opacity:1"
     d="m 148.059,122.449 -0.0574,-0.0114 -0.0487,-0.0325 -0.0325,-0.0487 -0.0114,-0.0574 v -1.65 l 0.0114,-0.0574 0.0325,-0.0487 0.0487,-0.0325 0.0574,-0.0114 h 0.3 l 0.0574,0.0114 0.0487,0.0325 0.0325,0.0487 0.0114,0.0574 v 1.65 l -0.0114,0.0574 -0.0325,0.0487 -0.0487,0.0325 -0.0574,0.0114 z"
     id="path3" />
  <path
     style="fill:#000000;fill-opacity:1;fill-rule:evenodd;stroke:none;stroke-linecap:round;stroke-linejoin:round;stroke-opacity:1"
     d="m 149.329,122.449 -0.0574,-0.0114 -0.0487,-0.0325 -0.0325,-0.0487 -0.0114,-0.0574 v -1.65 l 0.0114,-0.0574 0.0325,-0.0487 0.0487,-0.0325 0.0574,-0.0114 h 0.3 l 0.0574,0.0114 0.0487,0.0325 0.0325,0.0487 0.0114,0.0574 v 1.65 l -0.0114,0.0574 -0.0325,0.0487 -0.0487,0.0325 -0.0574,0.0114 z"
     id="path4" />
  <path
     style="fill:#000000;fill-opacity:1;fill-rule:evenodd;stroke:none;stroke-linecap:round;stroke-linejoin:round;stroke-opacity:1"
     d="m 150.599,122.449 -0.0574,-0.0114 -0.0487,-0.0325 -0.0325,-0.0487 -0.0114,-0.0574 v -1.65 l 0.0114,-0.0574 0.0325,-0.0487 0.0487,-0.0325 0.0574,-0.0114 h 0.3 l 0.0574,0.0114 0.0487,0.0325 0.0325,0.0487 0.0114,0.0574 v 1.65 l -0.0114,0.0574 -0.0325,0.0487 -0.0487,0.0325 -0.0574,0.0114 z"
     id="path5" />
  <path
     style="fill:#000000;fill-opacity:1;fill-rule:evenodd;stroke:none;stroke-linecap:round;stroke-linejoin:round;stroke-opacity:1"
     d="m 151.869,122.449 -0.0574,-0.0114 -0.0487,-0.0325 -0.0325,-0.0487 -0.0114,-0.0574 v -1.65 l 0.0114,-0.0574 0.0325,-0.0487 0.0487,-0.0325 0.0574,-0.0114 h 0.3 l 0.0574,0.0114 0.0487,0.0325 0.0325,0.0487 0.0114,0.0574 v 1.65 l -0.0114,0.0574 -0.0325,0.0487 -0.0487,0.0325 -0.0574,0.0114 z"
     id="path6" />
  <path
     style="fill:#000000;fill-opacity:1;fill-rule:evenodd;stroke:none;stroke-linecap:round;stroke-linejoin:round;stroke-opacity:1"
     d="m 153.139,122.449 -0.0574,-0.0114 -0.0487,-0.0325 -0.0325,-0.0487 -0.0114,-0.0574 v -1.65 l 0.0114,-0.0574 0.0325,-0.0487 0.0487,-0.0325 0.0574,-0.0114 h 0.3 l 0.0574,0.0114 0.0487,0.0325 0.0325,0.0487 0.0114,0.0574 v 1.65 l -0.0114,0.0574 -0.0325,0.0487 -0.0487,0.0325 -0.0574,0.0114 z"
     id="path7" />
  <path
     style="fill:#000000;fill-opacity:1;fill-rule:evenodd;stroke:none;stroke-linecap:round;stroke-linejoin:round;stroke-opacity:1"
     d="m 154.409,122.449 -0.0574,-0.0114 -0.0487,-0.0325 -0.0325,-0.0487 -0.0114,-0.0574 v -1.65 l 0.0114,-0.0574 0.0325,-0.0487 0.0487,-0.0325 0.0574,-0.0114 h 0.3 l 0.0574,0.0114 0.0487,0.0325 0.0325,0.0487 0.0114,0.0574 v 1.65 l -0.0114,0.0574 -0.0325,0.0487 -0.0487,0.0325 -0.0574,0.0114 z"
     id="path8" />
  <path
     style="fill:#000000;fill-opacity:1;fill-rule:evenodd;stroke:none;stroke-linecap:round;stroke-linejoin:round;stroke-opacity:1"
     d="m 154.409,117.499 -0.0574,-0.0114 -0.0487,-0.0325 -0.0325,-0.0487 -0.0114,-0.0574 v -1.65 l 0.0114,-0.0574 0.0325,-0.0487 0.0487,-0.0325 0.0574,-0.0114 h 0.3 l 0.0574,0.0114 0.0487,0.0325 0.0325,0.0487 0.0114,0.0574 v 1.65 l -0.0114,0.0574 -0.0325,0.0487 -0.0487,0.0325 -0.0574,0.0114 z"
     id="path9" />
  <path
     style="fill:#000000;fill-opacity:1;fill-rule:evenodd;stroke:none;stroke-linecap:round;stroke-linejoin:round;stroke-opacity:1"
     d="m 153.139,117.499 -0.0574,-0.0114 -0.0487,-0.0325 -0.0325,-0.0487 -0.0114,-0.0574 v -1.65 l 0.0114,-0.0574 0.0325,-0.0487 0.0487,-0.0325 0.0574,-0.0114 h 0.3 l 0.0574,0.0114 0.0487,0.0325 0.0325,0.0487 0.0114,0.0574 v 1.65 l -0.0114,0.0574 -0.0325,0.0487 -0.0487,0.0325 -0.0574,0.0114 z"
     id="path10" />
  <path
     style="fill:#000000;fill-opacity:1;fill-rule:evenodd;stroke:none;stroke-linecap:round;stroke-linejoin:round;stroke-opacity:1"
     d="m 151.869,117.499 -0.0574,-0.0114 -0.0487,-0.0325 -0.0325,-0.0487 -0.0114,-0.0574 v -1.65 l 0.0114,-0.0574 0.0325,-0.0487 0.0487,-0.0325 0.0574,-0.0114 h 0.3 l 0.0574,0.0114 0.0487,0.0325 0.0325,0.0487 0.0114,0.0574 v 1.65 l -0.0114,0.0574 -0.0325,0.0487 -0.0487,0.0325 -0.0574,0.0114 z"
     id="path11" />
  <path
     style="fill:#000000;fill-opacity:1;fill-rule:evenodd;stroke:none;stroke-linecap:round;stroke-linejoin:round;stroke-opacity:1"
     d="m 150.599,117.499 -0.0574,-0.0114 -0.0487,-0.0325 -0.0325,-0.0487 -0.0114,-0.0574 v -1.65 l 0.0114,-0.0574 0.0325,-0.0487 0.0487,-0.0325 0.0574,-0.0114 h 0.3 l 0.0574,0.0114 0.0487,0.0325 0.0325,0.0487 0.0114,0.0574 v 1.65 l -0.0114,0.0574 -0.0325,0.0487 -0.0487,0.0325 -0.0574,0.0114 z"
     id="path12" />
  <path
     style="fill:#000000;fill-opacity:1;fill-rule:evenodd;stroke:none;stroke-linecap:round;stroke-linejoin:round;stroke-opacity:1"
     d="m 149.329,117.499 -0.0574,-0.0114 -0.0487,-0.0325 -0.0325,-0.0487 -0.0114,-0.0574 v -1.65 l 0.0114,-0.0574 0.0325,-0.0487 0.0487,-0.0325 0.0574,-0.0114 h 0.3 l 0.0574,0.0114 0.0487,0.0325 0.0325,0.0487 0.0114,0.0574 v 1.65 l -0.0114,0.0574 -0.0325,0.0487 -0.0487,0.0325 -0.0574,0.0114 z"
     id="path13" />
  <path
     style="fill:#000000;fill-opacity:1;fill-rule:evenodd;stroke:none;stroke-linecap:round;stroke-linejoin:round;stroke-opacity:1"
     d="m 148.059,117.499 -0.0574,-0.0114 -0.0487,-0.0325 -0.0325,-0.0487 -0.0114,-0.0574 v -1.65 l 0.0114,-0.0574 0.0325,-0.0487 0.0487,-0.0325 0.0574,-0.0114 h 0.3 l 0.0574,0.0114 0.0487,0.0325 0.0325,0.0487 0.0114,0.0574 v 1.65 l -0.0114,0.0574 -0.0325,0.0487 -0.0487,0.0325 -0.0574,0.0114 z"
     id="path14" />
  <path
     style="fill:#000000;fill-opacity:1;fill-rule:evenodd;stroke:none;stroke-linecap:round;stroke-linejoin:round;stroke-opacity:1"
     d="m 146.789,117.499 -0.0574,-0.0114 -0.0487,-0.0325 -0.0325,-0.0487 -0.0114,-0.0574 v -1.65 l 0.0114,-0.0574 0.0325,-0.0487 0.0487,-0.0325 0.0574,-0.0114 h 0.3 l 0.0574,0.0114 0.0487,0.0325 0.0325,0.0487 0.0114,0.0574 v 1.65 l -0.0114,0.0574 -0.0325,0.0487 -0.0487,0.0325 -0.0574,0.0114 z"
     id="path15" />
  <path
     style="fill:#000000;fill-opacity:1;fill-rule:evenodd;stroke:none;stroke-linecap:round;stroke-linejoin:round;stroke-opacity:1"
     d="m 145.519,117.499 -0.0574,-0.0114 -0.0487,-0.0325 -0.0325,-0.0487 -0.0114,-0.0574 v -1.65 l 0.0114,-0.0574 0.0325,-0.0487 0.0487,-0.0325 0.0574,-0.0114 h 0.3 l 0.0574,0.0114 0.0487,0.0325 0.0325,0.0487 0.0114,0.0574 v 1.65 l -0.0114,0.0574 -0.0325,0.0487 -0.0487,0.0325 -0.0574,0.0114 z"
     id="path16" />
  <path
     style="fill:#000000;fill-opacity:1;fill-rule:evenodd;stroke:none;stroke-linecap:round;stroke-linejoin:round;stroke-opacity:1"
     d="m 165.152,108.8748 0.019,-0.0957 0.0542,-0.0811 0.0811,-0.0542 0.0957,-0.019 h 2 l 0.0957,0.019 0.0811,0.0542 0.0542,0.0811 0.019,0.0957 v 1.3 l -0.019,0.0957 -0.0542,0.0811 -0.0811,0.0542 -0.0957,0.019 h -2 l -0.0957,-0.019 -0.0811,-0.0542 -0.0542,-0.0811 -0.019,-0.0957 z"
     id="path17" />
  <path
     style="fill:#000000;fill-opacity:1;fill-rule:evenodd;stroke:none;stroke-linecap:round;stroke-linejoin:round;stroke-opacity:1"
     d="m 169.152,108.8748 0.019,-0.0957 0.0542,-0.0811 0.0811,-0.0542 0.0957,-0.019 h 2 l 0.0957,0.019 0.0811,0.0542 0.0542,0.0811 0.019,0.0957 v 1.3 l -0.019,0.0957 -0.0542,0.0811 -0.0811,0.0542 -0.0957,0.019 h -2 l -0.0957,-0.019 -0.0811,-0.0542 -0.0542,-0.0811 -0.019,-0.0957 z"
     id="path18" />
  <path
     style="fill:#000000;fill-opacity:1;fill-rule:evenodd;stroke:none;stroke-linecap:round;stroke-linejoin:round;stroke-opacity:1"
     d="m 145.285,112.1321 0.0181,-0.0909 0.0515,-0.077 0.077,-0.0515 0.0909,-0.0181 h 0.6 l 0.0909,0.0181 0.077,0.0515 0.0515,0.077 0.0181,0.0909 v 0.475 l -0.0181,0.0909 -0.0515,0.077 -0.077,0.0515 -0.0909,0.0181 h -0.6 l -0.0909,-0.0181 -0.077,-0.0515 -0.0515,-0.077 -0.0181,-0.0909 z"
     id="path19" />
  <path
     style="fill:#000000;fill-opacity:1;fill-rule:evenodd;stroke:none;stroke-linecap:round;stroke-linejoin:round;stroke-opacity:1"
     d="m 147.01,112.1321 0.0181,-0.0909 0.0515,-0.077 0.077,-0.0515 0.0909,-0.0181 h 0.6 l 0.0909,0.0181 0.077,0.0515 0.0515,0.077 0.0181,0.0909 v 0.475 l -0.0181,0.0909 -0.0515,0.077 -0.077,0.0515 -0.0909,0.0181 h -0.6 l -0.0909,-0.0181 -0.077,-0.0515 -0.0515,-0.077 -0.0181,-0.0909 z"
     id="path20" />
  <path
     style="fill:#000000;fill-opacity:1;fill-rule:evenodd;stroke:none;stroke-linecap:round;stroke-linejoin:round;stroke-opacity:1"
     d="m 142.8661,127.13 -0.0909,-0.0181 -0.077,-0.0515 -0.0515,-0.077 -0.0181,-0.0909 v -0.6 l 0.0181,-0.0909 0.0515,-0.077 0.077,-0.0515 0.0909,-0.0181 h 0.475 l 0.0909,0.0181 0.077,0.0515 0.0515,0.077 0.0181,0.0909 v 0.6 l -0.0181,0.0909 -0.0515,0.077 -0.077,0.0515 -0.0909,0.0181 z"
     id="path21" />
  <path
     style="fill:#000000;fill-opacity:1;fill-rule:evenodd;stroke:none;stroke-linecap:round;stroke-linejoin:round;stroke-opacity:1"
     d="m 142.8661,125.405 -0.0909,-0.0181 -0.077,-0.0515 -0.0515,-0.077 -0.0181,-0.0909 v -0.6 l 0.0181,-0.0909 0.0515,-0.077 0.077,-0.0515 0.0909,-0.0181 h 0.475 l 0.0909,0.0181 0.077,0.0515 0.0515,0.077 0.0181,0.0909 v 0.6 l -0.0181,0.0909 -0.0515,0.077 -0.077,0.0515 -0.0909,0.0181 z"
     id="path22" />
  <path
     style="fill:#000000;fill-opacity:1;fill-rule:evenodd;stroke:none;stroke-linecap:round;stroke-linejoin:round;stroke-opacity:1"
     d="m 154.1615,125.9048 0.0909,0.0181 0.077,0.0515 0.0515,0.077 0.0181,0.0909 v 0.6 l -0.0181,0.0909 -0.0515,0.077 -0.077,0.0515 -0.0909,0.0181 h -0.475 l -0.0909,-0.0181 -0.077,-0.0515 -0.0515,-0.077 -0.0181,-0.0909 v -0.6 l 0.0181,-0.0909 0.0515,-0.077 0.077,-0.0515 0.0909,-0.0181 z"
     id="path23" />
  <path
     style="fill:#000000;fill-opacity:1;fill-rule:evenodd;stroke:none;stroke-linecap:round;stroke-linejoin:round;stroke-opacity:1"
     d="m 154.1615,127.6298 0.0909,0.0181 0.077,0.0515 0.0515,0.077 0.0181,0.0909 v 0.6 l -0.0181,0.0909 -0.0515,0.077 -0.077,0.0515 -0.0909,0.0181 h -0.475 l -0.0909,-0.0181 -0.077,-0.0515 -0.0515,-0.077 -0.0181,-0.0909 v -0.6 l 0.0181,-0.0909 0.0515,-0.077 0.077,-0.0515 0.0909,-0.0181 z"
     id="path24" />
  <path
     style="fill:#000000;fill-opacity:1;fill-rule:evenodd;stroke:none;stroke-linecap:round;stroke-linejoin:round;stroke-opacity:1"
     d="m 145.539,124.4765 0.0181,-0.0909 0.0515,-0.077 0.077,-0.0515 0.0909,-0.0181 h 0.6 l 0.0909,0.0181 0.077,0.0515 0.0515,0.077 0.0181,0.0909 v 0.475 l -0.0181,0.0909 -0.0515,0.077 -0.077,0.0515 -0.0909,0.0181 h -0.6 l -0.0909,-0.0181 -0.077,-0.0515 -0.0515,-0.077 -0.0181,-0.0909 z"
     id="path25" />
  <path
     style="fill:#000000;fill-opacity:1;fill-rule:evenodd;stroke:none;stroke-linecap:round;stroke-linejoin:round;stroke-opacity:1"
     d="m 147.264,124.4765 0.0181,-0.0909 0.0515,-0.077 0.077,-0.0515 0.0909,-0.0181 h 0.6 l 0.0909,0.0181 0.077,0.0515 0.0515,0.077 0.0181,0.0909 v 0.475 l -0.0181,0.0909 -0.0515,0.077 -0.077,0.0515 -0.0909,0.0181 h -0.6 l -0.0909,-0.0181 -0.077,-0.0515 -0.0515,-0.077 -0.0181,-0.0909 z"
     id="path26" />
  <path
     style="fill:#000000;fill-opacity:1;fill-rule:evenodd;stroke:none;stroke-linecap:round;stroke-linejoin:round;stroke-opacity:1"
     d="m 159.037,110.6926 -0.0957,-0.019 -0.0811,-0.0542 -0.0542,-0.0811 -0.019,-0.0957 v -0.675 l 0.019,-0.0957 0.0542,-0.0811 0.0811,-0.0542 0.0957,-0.019 h 0.95 l 0.0957,0.019 0.0811,0.0542 0.0542,0.0811 0.019,0.0957 v 0.675 l -0.019,0.0957 -0.0542,0.0811 -0.0811,0.0542 -0.0957,0.019 z"
     id="path27" />
  <path
     style="fill:#000000;fill-opacity:1;fill-rule:evenodd;stroke:none;stroke-linecap:round;stroke-linejoin:round;stroke-opacity:1"
     d="m 159.037,108.6176 -0.0957,-0.019 -0.0811,-0.0542 -0.0542,-0.0811 -0.019,-0.0957 v -0.675 l 0.019,-0.0957 0.0542,-0.0811 0.0811,-0.0542 0.0957,-0.019 h 0.95 l 0.0957,0.019 0.0811,0.0542 0.0542,0.0811 0.019,0.0957 v 0.675 l -0.019,0.0957 -0.0542,0.0811 -0.0811,0.0542 -0.0957,0.019 z"
     id="path28" />
  <path
     style="fill:#000000;fill-opacity:1;fill-rule:evenodd;stroke:none;stroke-linecap:round;stroke-linejoin:round;stroke-opacity:1"
     d="m 149.222,124.6035 0.0181,-0.0909 0.0515,-0.077 0.077,-0.0515 0.0909,-0.0181 h 0.6 l 0.0909,0.0181 0.077,0.0515 0.0515,0.077 0.0181,0.0909 v 0.475 l -0.0181,0.0909 -0.0515,0.077 -0.077,0.0515 -0.0909,0.0181 h -0.6 l -0.0909,-0.0181 -0.077,-0.0515 -0.0515,-0.077 -0.0181,-0.0909 z"
     id="path29" />
  <path
     style="fill:#000000;fill-opacity:1;fill-rule:evenodd;stroke:none;stroke-linecap:round;stroke-linejoin:round;stroke-opacity:1"
     d="m 150.947,124.6035 0.0181,-0.0909 0.0515,-0.077 0.077,-0.0515 0.0909,-0.0181 h 0.6 l 0.0909,0.0181 0.077,0.0515 0.0515,0.077 0.0181,0.0909 v 0.475 l -0.0181,0.0909 -0.0515,0.077 -0.077,0.0515 -0.0909,0.0181 h -0.6 l -0.0909,-0.0181 -0.077,-0.0515 -0.0515,-0.077 -0.0181,-0.0909 z"
     id="path30" />
  <path
     style="fill:#000000;fill-opacity:1;fill-rule:evenodd;stroke:none;stroke-linecap:round;stroke-linejoin:round;stroke-opacity:1"
     d="m 127.5304,117.1105 0.0181,-0.0909 0.0515,-0.077 0.077,-0.0515 0.0909,-0.0181 h 0.6 l 0.0909,0.0181 0.077,0.0515 0.0515,0.077 0.0181,0.0909 v 0.475 l -0.0181,0.0909 -0.0515,0.077 -0.077,0.0515 -0.0909,0.0181 h -0.6 l -0.0909,-0.0181 -0.077,-0.0515 -0.0515,-0.077 -0.0181,-0.0909 z"
     id="path31" />
  <path
     style="fill:#000000;fill-opacity:1;fill-rule:evenodd;stroke:none;stroke-linecap:round;stroke-linejoin:round;stroke-opacity:1"
     d="m 129.2554,117.1105 0.0181,-0.0909 0.0515,-0.077 0.077,-0.0515 0.0909,-0.0181 h 0.6 l 0.0909,0.0181 0.077,0.0515 0.0515,0.077 0.0181,0.0909 v 0.475 l -0.0181,0.0909 -0.0515,0.077 -0.077,0.0515 -0.0909,0.0181 h -0.6 l -0.0909,-0.0181 -0.077,-0.0515 -0.0515,-0.077 -0.0181,-0.0909 z"
     id="path32" />
  <path
     style="fill:#000000;fill-opacity:1;fill-rule:evenodd;stroke:none;stroke-linecap:round;stroke-linejoin:round;stroke-opacity:1"
     d="m 141.6139,120.1136 0.0909,0.0181 0.077,0.0515 0.0515,0.077 0.0181,0.0909 v 0.6 l -0.0181,0.0909 -0.0515,0.077 -0.077,0.0515 -0.0909,0.0181 h -0.475 l -0.0909,-0.0181 -0.077,-0.0515 -0.0515,-0.077 -0.0181,-0.0909 v -0.6 l 0.0181,-0.0909 0.0515,-0.077 0.077,-0.0515 0.0909,-0.0181 z"
     id="path33" />
  <path
     style="fill:#000000;fill-opacity:1;fill-rule:evenodd;stroke:none;stroke-linecap:round;stroke-linejoin:round;stroke-opacity:1"
     d="m 141.6139,121.8386 0.0909,0.0181 0.077,0.0515 0.0515,0.077 0.0181,0.0909 v 0.6 l -0.0181,0.0909 -0.0515,0.077 -0.077,0.0515 -0.0909,0.0181 h -0.475 l -0.0909,-0.0181 -0.077,-0.0515 -0.0515,-0.077 -0.0181,-0.0909 v -0.6 l 0.0181,-0.0909 0.0515,-0.077 0.077,-0.0515 0.0909,-0.0181 z"
     id="path34" />
  <path
     style="fill:#000000;fill-opacity:1;fill-rule:evenodd;stroke:none;stroke-linecap:round;stroke-linejoin:round;stroke-opacity:1"
     d="m 131.8304,118.1886 0.0114,-0.0574 0.0325,-0.0487 0.0487,-0.0325 0.0574,-0.0114 h 1.65 l 0.0574,0.0114 0.0487,0.0325 0.0325,0.0487 0.0114,0.0574 v 0.3 l -0.0114,0.0574 -0.0325,0.0487 -0.0487,0.0325 -0.0574,0.0114 h -1.65 l -0.0574,-0.0114 -0.0487,-0.0325 -0.0325,-0.0487 -0.0114,-0.0574 z"
     id="path35" />
  <path
     style="fill:#000000;fill-opacity:1;fill-rule:evenodd;stroke:none;stroke-linecap:round;stroke-linejoin:round;stroke-opacity:1"
     d="m 131.8304,119.4586 0.0114,-0.0574 0.0325,-0.0487 0.0487,-0.0325 0.0574,-0.0114 h 1.65 l 0.0574,0.0114 0.0487,0.0325 0.0325,0.0487 0.0114,0.0574 v 0.3 l -0.0114,0.0574 -0.0325,0.0487 -0.0487,0.0325 -0.0574,0.0114 h -1.65 l -0.0574,-0.0114 -0.0487,-0.0325 -0.0325,-0.0487 -0.0114,-0.0574 z"
     id="path36" />
  <path
     style="fill:#000000;fill-opacity:1;fill-rule:evenodd;stroke:none;stroke-linecap:round;stroke-linejoin:round;stroke-opacity:1"
     d="m 131.8304,120.7286 0.0114,-0.0574 0.0325,-0.0487 0.0487,-0.0325 0.0574,-0.0114 h 1.65 l 0.0574,0.0114 0.0487,0.0325 0.0325,0.0487 0.0114,0.0574 v 0.3 l -0.0114,0.0574 -0.0325,0.0487 -0.0487,0.0325 -0.0574,0.0114 h -1.65 l -0.0574,-0.0114 -0.0487,-0.0325 -0.0325,-0.0487 -0.0114,-0.0574 z"
     id="path37" />
  <path
     style="fill:#000000;fill-opacity:1;fill-rule:evenodd;stroke:none;stroke-linecap:round;stroke-linejoin:round;stroke-opacity:1"
     d="m 131.8304,121.9986 0.0114,-0.0574 0.0325,-0.0487 0.0487,-0.0325 0.0574,-0.0114 h 1.65 l 0.0574,0.0114 0.0487,0.0325 0.0325,0.0487 0.0114,0.0574 v 0.3 l -0.0114,0.0574 -0.0325,0.0487 -0.0487,0.0325 -0.0574,0.0114 h -1.65 l -0.0574,-0.0114 -0.0487,-0.0325 -0.0325,-0.0487 -0.0114,-0.0574 z"
     id="path38" />
  <path
     style="fill:#000000;fill-opacity:1;fill-rule:evenodd;stroke:none;stroke-linecap:round;stroke-linejoin:round;stroke-opacity:1"
     d="m 136.7804,121.9986 0.0114,-0.0574 0.0325,-0.0487 0.0487,-0.0325 0.0574,-0.0114 h 1.65 l 0.0574,0.0114 0.0487,0.0325 0.0325,0.0487 0.0114,0.0574 v 0.3 l -0.0114,0.0574 -0.0325,0.0487 -0.0487,0.0325 -0.0574,0.0114 h -1.65 l -0.0574,-0.0114 -0.0487,-0.0325 -0.0325,-0.0487 -0.0114,-0.0574 z"
     id="path39" />
  <path
     style="fill:#000000;fill-opacity:1;fill-rule:evenodd;stroke:none;stroke-linecap:round;stroke-linejoin:round;stroke-opacity:1"
     d="m 136.7804,120.7286 0.0114,-0.0574 0.0325,-0.0487 0.0487,-0.0325 0.0574,-0.0114 h 1.65 l 0.0574,0.0114 0.0487,0.0325 0.0325,0.0487 0.0114,0.0574 v 0.3 l -0.0114,0.0574 -0.0325,0.0487 -0.0487,0.0325 -0.0574,0.0114 h -1.65 l -0.0574,-0.0114 -0.0487,-0.0325 -0.0325,-0.0487 -0.0114,-0.0574 z"
     id="path40" />
  <path
     style="fill:#000000;fill-opacity:1;fill-rule:evenodd;stroke:none;stroke-linecap:round;stroke-linejoin:round;stroke-opacity:1"
     d="m 136.7804,119.4586 0.0114,-0.0574 0.0325,-0.0487 0.0487,-0.0325 0.0574,-0.0114 h 1.65 l 0.0574,0.0114 0.0487,0.0325 0.0325,0.0487 0.0114,0.0574 v 0.3 l -0.0114,0.0574 -0.0325,0.0487 -0.0487,0.0325 -0.0574,0.0114 h -1.65 l -0.0574,-0.0114 -0.0487,-0.0325 -0.0325,-0.0487 -0.0114,-0.0574 z"
     id="path41" />
  <path
     style="fill:#000000;fill-opacity:1;fill-rule:evenodd;stroke:none;stroke-linecap:round;stroke-linejoin:round;stroke-opacity:1"
     d="m 136.7804,118.1886 0.0114,-0.0574 0.0325,-0.0487 0.0487,-0.0325 0.0574,-0.0114 h 1.65 l 0.0574,0.0114 0.0487,0.0325 0.0325,0.0487 0.0114,0.0574 v 0.3 l -0.0114,0.0574 -0.0325,0.0487 -0.0487,0.0325 -0.0574,0.0114 h -1.65 l -0.0574,-0.0114 -0.0487,-0.0325 -0.0325,-0.0487 -0.0114,-0.0574 z"
     id="path42" />
  <path
     style="fill:none;fill-opacity:1;stroke:#ff0000;stroke-width:0.26458333;stroke-linecap:round;stroke-linejoin:round;stroke-opacity:1;stroke-dasharray:none"
     d="m 124.5124,106.8448 h 51 v 23 h -51 z"
     id="path43" />
</svg>
