%TF.GenerationSoftware,KiCad,Pcbnew,8.0.2*%
%TF.CreationDate,2024-12-11T15:18:32+01:00*%
%TF.ProjectId,rsr232-iso,72737232-3332-42d6-9973-6f2e6b696361,rev?*%
%TF.SameCoordinates,Original*%
%TF.FileFunction,Soldermask,Top*%
%TF.FilePolarity,Negative*%
%FSLAX46Y46*%
G04 Gerber Fmt 4.6, Leading zero omitted, Abs format (unit mm)*
G04 Created by KiCad (PCBNEW 8.0.2) date 2024-12-11 15:18:32*
%MOMM*%
%LPD*%
G01*
G04 APERTURE LIST*
G04 Aperture macros list*
%AMRoundRect*
0 Rectangle with rounded corners*
0 $1 Rounding radius*
0 $2 $3 $4 $5 $6 $7 $8 $9 X,Y pos of 4 corners*
0 Add a 4 corners polygon primitive as box body*
4,1,4,$2,$3,$4,$5,$6,$7,$8,$9,$2,$3,0*
0 Add four circle primitives for the rounded corners*
1,1,$1+$1,$2,$3*
1,1,$1+$1,$4,$5*
1,1,$1+$1,$6,$7*
1,1,$1+$1,$8,$9*
0 Add four rect primitives between the rounded corners*
20,1,$1+$1,$2,$3,$4,$5,0*
20,1,$1+$1,$4,$5,$6,$7,0*
20,1,$1+$1,$6,$7,$8,$9,0*
20,1,$1+$1,$8,$9,$2,$3,0*%
G04 Aperture macros list end*
%ADD10RoundRect,0.150000X0.150000X-0.825000X0.150000X0.825000X-0.150000X0.825000X-0.150000X-0.825000X0*%
%ADD11RoundRect,0.250000X-1.000000X-0.650000X1.000000X-0.650000X1.000000X0.650000X-1.000000X0.650000X0*%
%ADD12RoundRect,0.237500X-0.300000X-0.237500X0.300000X-0.237500X0.300000X0.237500X-0.300000X0.237500X0*%
%ADD13RoundRect,0.237500X0.237500X-0.300000X0.237500X0.300000X-0.237500X0.300000X-0.237500X-0.300000X0*%
%ADD14RoundRect,0.237500X-0.237500X0.300000X-0.237500X-0.300000X0.237500X-0.300000X0.237500X0.300000X0*%
%ADD15RoundRect,0.250000X0.475000X-0.337500X0.475000X0.337500X-0.475000X0.337500X-0.475000X-0.337500X0*%
%ADD16C,3.200000*%
%ADD17RoundRect,0.150000X-0.825000X-0.150000X0.825000X-0.150000X0.825000X0.150000X-0.825000X0.150000X0*%
%ADD18RoundRect,0.250000X1.550000X-0.650000X1.550000X0.650000X-1.550000X0.650000X-1.550000X-0.650000X0*%
%ADD19O,3.600000X1.800000*%
%ADD20R,1.700000X1.700000*%
%ADD21O,1.700000X1.700000*%
G04 APERTURE END LIST*
D10*
%TO.C,U1*%
X145669000Y-121474000D03*
X146939000Y-121474000D03*
X148209000Y-121474000D03*
X149479000Y-121474000D03*
X150749000Y-121474000D03*
X152019000Y-121474000D03*
X153289000Y-121474000D03*
X154559000Y-121474000D03*
X154559000Y-116524000D03*
X153289000Y-116524000D03*
X152019000Y-116524000D03*
X150749000Y-116524000D03*
X149479000Y-116524000D03*
X148209000Y-116524000D03*
X146939000Y-116524000D03*
X145669000Y-116524000D03*
%TD*%
D11*
%TO.C,D1*%
X166402000Y-109524800D03*
X170402000Y-109524800D03*
%TD*%
D12*
%TO.C,C1*%
X145822500Y-112369600D03*
X147547500Y-112369600D03*
%TD*%
D13*
%TO.C,C4*%
X143103600Y-126592500D03*
X143103600Y-124867500D03*
%TD*%
D14*
%TO.C,C6*%
X153924000Y-126442300D03*
X153924000Y-128167300D03*
%TD*%
D12*
%TO.C,C2*%
X146076500Y-124714000D03*
X147801500Y-124714000D03*
%TD*%
D15*
%TO.C,C5*%
X159512000Y-110105100D03*
X159512000Y-108030100D03*
%TD*%
D12*
%TO.C,C3*%
X149759500Y-124841000D03*
X151484500Y-124841000D03*
%TD*%
%TO.C,C7*%
X128067900Y-117348000D03*
X129792900Y-117348000D03*
%TD*%
D16*
%TO.C,H1*%
X163000000Y-118344800D03*
%TD*%
D14*
%TO.C,C8*%
X141376400Y-120651100D03*
X141376400Y-122376100D03*
%TD*%
D17*
%TO.C,U2*%
X132805400Y-118338600D03*
X132805400Y-119608600D03*
X132805400Y-120878600D03*
X132805400Y-122148600D03*
X137755400Y-122148600D03*
X137755400Y-120878600D03*
X137755400Y-119608600D03*
X137755400Y-118338600D03*
%TD*%
D18*
%TO.C,J1*%
X170426500Y-123577300D03*
D19*
X170426500Y-120077300D03*
X170426500Y-116577300D03*
X170426500Y-113077300D03*
%TD*%
D20*
%TO.C,J2*%
X128260000Y-109455000D03*
D21*
X130800000Y-109455000D03*
%TD*%
D20*
%TO.C,J3*%
X130810000Y-127235000D03*
D21*
X128270000Y-127235000D03*
%TD*%
M02*
