%TF.GenerationSoftware,KiCad,Pcbnew,8.0.6*%
%TF.CreationDate,2026-06-02T12:02:32+02:00*%
%TF.ProjectId,controle,636f6e74-726f-46c6-952e-6b696361645f,rev?*%
%TF.SameCoordinates,Original*%
%TF.FileFunction,Copper,L2,Bot*%
%TF.FilePolarity,Positive*%
%FSLAX46Y46*%
G04 Gerber Fmt 4.6, Leading zero omitted, Abs format (unit mm)*
G04 Created by KiCad (PCBNEW 8.0.6) date 2026-06-02 12:02:32*
%MOMM*%
%LPD*%
G01*
G04 APERTURE LIST*
G04 Aperture macros list*
%AMRoundRect*
0 Rectangle with rounded corners*
0 $1 Rounding radius*
0 $2 $3 $4 $5 $6 $7 $8 $9 X,Y pos of 4 corners*
0 Add a 4 corners polygon primitive as box body*
4,1,4,$2,$3,$4,$5,$6,$7,$8,$9,$2,$3,0*
0 Add four circle primitives for the rounded corners*
1,1,$1+$1,$2,$3*
1,1,$1+$1,$4,$5*
1,1,$1+$1,$6,$7*
1,1,$1+$1,$8,$9*
0 Add four rect primitives between the rounded corners*
20,1,$1+$1,$2,$3,$4,$5,0*
20,1,$1+$1,$4,$5,$6,$7,0*
20,1,$1+$1,$6,$7,$8,$9,0*
20,1,$1+$1,$8,$9,$2,$3,0*%
G04 Aperture macros list end*
%TA.AperFunction,SMDPad,CuDef*%
%ADD10RoundRect,0.250000X0.450000X-0.350000X0.450000X0.350000X-0.450000X0.350000X-0.450000X-0.350000X0*%
%TD*%
%TA.AperFunction,SMDPad,CuDef*%
%ADD11RoundRect,0.243750X0.456250X-0.243750X0.456250X0.243750X-0.456250X0.243750X-0.456250X-0.243750X0*%
%TD*%
%TA.AperFunction,ComponentPad*%
%ADD12R,2.500000X1.900000*%
%TD*%
%TA.AperFunction,ComponentPad*%
%ADD13O,2.500000X1.900000*%
%TD*%
%TA.AperFunction,ComponentPad*%
%ADD14R,1.900000X2.500000*%
%TD*%
%TA.AperFunction,ComponentPad*%
%ADD15O,1.900000X2.500000*%
%TD*%
%TA.AperFunction,SMDPad,CuDef*%
%ADD16RoundRect,0.187500X0.187500X-0.712500X0.187500X0.712500X-0.187500X0.712500X-0.187500X-0.712500X0*%
%TD*%
%TA.AperFunction,ComponentPad*%
%ADD17C,2.000000*%
%TD*%
%TA.AperFunction,ComponentPad*%
%ADD18RoundRect,0.305556X-0.794444X-1.494444X0.794444X-1.494444X0.794444X1.494444X-0.794444X1.494444X0*%
%TD*%
%TA.AperFunction,ComponentPad*%
%ADD19O,2.200000X3.600000*%
%TD*%
%TA.AperFunction,ComponentPad*%
%ADD20O,5.000000X3.400000*%
%TD*%
%TA.AperFunction,SMDPad,CuDef*%
%ADD21RoundRect,0.237500X0.287500X0.237500X-0.287500X0.237500X-0.287500X-0.237500X0.287500X-0.237500X0*%
%TD*%
%TA.AperFunction,SMDPad,CuDef*%
%ADD22C,1.000000*%
%TD*%
%TA.AperFunction,SMDPad,CuDef*%
%ADD23RoundRect,0.237500X-0.237500X0.287500X-0.237500X-0.287500X0.237500X-0.287500X0.237500X0.287500X0*%
%TD*%
%TA.AperFunction,ComponentPad*%
%ADD24C,2.540000*%
%TD*%
%TA.AperFunction,ComponentPad*%
%ADD25R,2.800000X5.400000*%
%TD*%
%TA.AperFunction,ComponentPad*%
%ADD26O,2.800000X5.000000*%
%TD*%
%TA.AperFunction,ComponentPad*%
%ADD27O,5.000000X2.800000*%
%TD*%
%TA.AperFunction,ViaPad*%
%ADD28C,1.600000*%
%TD*%
%TA.AperFunction,ViaPad*%
%ADD29C,2.000000*%
%TD*%
%TA.AperFunction,Conductor*%
%ADD30C,0.500000*%
%TD*%
%TA.AperFunction,Conductor*%
%ADD31C,0.800000*%
%TD*%
%TA.AperFunction,Conductor*%
%ADD32C,0.600000*%
%TD*%
%TA.AperFunction,Conductor*%
%ADD33C,2.000000*%
%TD*%
G04 APERTURE END LIST*
D10*
%TO.P,R28,1*%
%TO.N,GND*%
X64900000Y-129300000D03*
%TO.P,R28,2*%
%TO.N,Net-(D7-K)*%
X64900000Y-127300000D03*
%TD*%
D11*
%TO.P,D7,1,K*%
%TO.N,Net-(D7-K)*%
X62300000Y-127375000D03*
%TO.P,D7,2,A*%
%TO.N,+3.3VP*%
X62300000Y-125500000D03*
%TD*%
D12*
%TO.P,J12,1,Pin_1*%
%TO.N,Net-(J12-Pin_1)*%
X78586200Y-113601000D03*
D13*
%TO.P,J12,2,Pin_2*%
%TO.N,Net-(J12-Pin_2)*%
X78586200Y-116141000D03*
%TO.P,J12,3,Pin_3*%
%TO.N,GND*%
X78586200Y-118681000D03*
%TO.P,J12,4,Pin_4*%
%TO.N,+3V3*%
X78586200Y-121221000D03*
%TD*%
D14*
%TO.P,J10,1,Pin_1*%
%TO.N,/pic18/~{MCLR}*%
X69091600Y-128926400D03*
D15*
%TO.P,J10,2,Pin_2*%
%TO.N,+3.3VP*%
X71631600Y-128926400D03*
%TO.P,J10,3,Pin_3*%
%TO.N,GND*%
X74171600Y-128926400D03*
%TO.P,J10,4,Pin_4*%
%TO.N,/pic18/PGD*%
X76711600Y-128926400D03*
%TO.P,J10,5,Pin_5*%
%TO.N,/pic18/PGC*%
X79251600Y-128926400D03*
%TD*%
D12*
%TO.P,J1,1,Pin_1*%
%TO.N,/PI14{slash}EINT26*%
X102970200Y-96979400D03*
D13*
%TO.P,J1,2,Pin_2*%
%TO.N,/PI4*%
X102970200Y-99519400D03*
%TO.P,J1,3,Pin_3*%
%TO.N,/PI1{slash}TWI3_SDA*%
X102970200Y-102059400D03*
%TO.P,J1,4,Pin_4*%
%TO.N,/PI0{slash}TWI3_SCK*%
X102970200Y-104599400D03*
%TO.P,J1,5,Pin_5*%
%TO.N,GND*%
X102970200Y-107139400D03*
%TO.P,J1,6,Pin_6*%
%TO.N,+3V3*%
X102970200Y-109679400D03*
%TD*%
D16*
%TO.P,D2,1,A*%
%TO.N,/power/+5VCPU*%
X96644200Y-73522000D03*
%TO.P,D2,2,BK*%
%TO.N,Net-(D2-BK)*%
X95194200Y-73522000D03*
%TO.P,D2,3,RK*%
%TO.N,Net-(D2-RK)*%
X96644200Y-76922000D03*
%TO.P,D2,4,GK*%
%TO.N,Net-(D2-GK)*%
X95194200Y-76922000D03*
%TD*%
D14*
%TO.P,J4,1,Pin_1*%
%TO.N,Net-(J4-Pin_1)*%
X67567600Y-74068600D03*
D15*
%TO.P,J4,2,Pin_2*%
%TO.N,/power/+5VCPU*%
X65027600Y-74068600D03*
%TD*%
D17*
%TO.P,R31,1*%
%TO.N,+3V3*%
X82574000Y-124386000D03*
%TO.P,R31,2*%
%TO.N,/pic18/LDR*%
X85574000Y-124386000D03*
%TD*%
D10*
%TO.P,R16,1*%
%TO.N,Net-(D2-BK)*%
X74797925Y-67200000D03*
%TO.P,R16,2*%
%TO.N,Net-(U1-O6)*%
X74797925Y-65200000D03*
%TD*%
D18*
%TO.P,J8,1,Pin_1*%
%TO.N,GND*%
X88924000Y-134038000D03*
D19*
%TO.P,J8,2,Pin_2*%
%TO.N,/LIN/+12V2*%
X92424000Y-134038000D03*
%TO.P,J8,3,Pin_3*%
%TO.N,/LIN/+12V1*%
X95924000Y-134038000D03*
%TO.P,J8,4,Pin_4*%
%TO.N,/LIN/LBUS*%
X99424000Y-134038000D03*
%TD*%
D12*
%TO.P,J11,1,Pin_1*%
%TO.N,Net-(J11-Pin_1)*%
X82955000Y-111355800D03*
D13*
%TO.P,J11,2,Pin_2*%
%TO.N,Net-(J11-Pin_2)*%
X82955000Y-113895800D03*
%TO.P,J11,3,Pin_3*%
%TO.N,GND*%
X82955000Y-116435800D03*
%TO.P,J11,4,Pin_4*%
%TO.N,+3V3*%
X82955000Y-118975800D03*
%TD*%
D12*
%TO.P,J2,1,Pin_1*%
%TO.N,/PI3{slash}TWI4_SDA*%
X46200000Y-113620000D03*
D13*
%TO.P,J2,2,Pin_2*%
%TO.N,/PI2{slash}TWI4_SCK*%
X46200000Y-111080000D03*
%TO.P,J2,3,Pin_3*%
%TO.N,GND*%
X46200000Y-108540000D03*
%TO.P,J2,4,Pin_4*%
%TO.N,+3V3*%
X46200000Y-106000000D03*
%TD*%
D20*
%TO.P,+5V1,1,Pin_1*%
%TO.N,GND*%
X119150000Y-72200000D03*
%TO.P,+5V1,2,Pin_2*%
%TO.N,/power/+5VCPU*%
X119150000Y-77200000D03*
%TD*%
D10*
%TO.P,R12,1*%
%TO.N,Net-(D2-RK)*%
X74745200Y-77241940D03*
%TO.P,R12,2*%
%TO.N,Net-(U1-O4)*%
X74745200Y-75241940D03*
%TD*%
D21*
%TO.P,D3,1,K*%
%TO.N,Net-(D3-K)*%
X102993000Y-124640000D03*
%TO.P,D3,2,A*%
%TO.N,+12V*%
X101243000Y-124640000D03*
%TD*%
D10*
%TO.P,R8,1*%
%TO.N,Net-(D1-BK)*%
X74748925Y-81983960D03*
%TO.P,R8,2*%
%TO.N,Net-(U1-O3)*%
X74748925Y-79983960D03*
%TD*%
D22*
%TO.P,FID5,*%
%TO.N,*%
X43229400Y-128348400D03*
%TD*%
D10*
%TO.P,R5,1*%
%TO.N,Net-(D1-GK)*%
X78068525Y-86725980D03*
%TO.P,R5,2*%
%TO.N,Net-(U1-O2)*%
X78068525Y-84725980D03*
%TD*%
%TO.P,R6,1*%
%TO.N,Net-(D1-GK)*%
X74813725Y-86757980D03*
%TO.P,R6,2*%
%TO.N,Net-(U1-O2)*%
X74813725Y-84757980D03*
%TD*%
%TO.P,R1,1*%
%TO.N,Net-(D1-RK)*%
X78054525Y-91500000D03*
%TO.P,R1,2*%
%TO.N,Net-(U1-O1)*%
X78054525Y-89500000D03*
%TD*%
D22*
%TO.P,FID6,*%
%TO.N,*%
X106000000Y-135500000D03*
%TD*%
D23*
%TO.P,D5,1,K*%
%TO.N,Net-(D5-K)*%
X96417000Y-117288000D03*
%TO.P,D5,2,A*%
%TO.N,Net-(D5-A)*%
X96417000Y-119038000D03*
%TD*%
D10*
%TO.P,R11,1*%
%TO.N,Net-(D2-RK)*%
X78000000Y-77241940D03*
%TO.P,R11,2*%
%TO.N,Net-(U1-O4)*%
X78000000Y-75241940D03*
%TD*%
%TO.P,R13,1*%
%TO.N,Net-(D2-GK)*%
X78054525Y-72499920D03*
%TO.P,R13,2*%
%TO.N,Net-(U1-O5)*%
X78054525Y-70499920D03*
%TD*%
D14*
%TO.P,J7,1,Pin_1*%
%TO.N,/PI18{slash}UART2_TX*%
X84812000Y-83590000D03*
D15*
%TO.P,J7,2,Pin_2*%
%TO.N,/PI19{slash}UART2_RX*%
X87352000Y-83590000D03*
%TD*%
D14*
%TO.P,J5,1,Pin_1*%
%TO.N,/PI20*%
X94039400Y-90223000D03*
D15*
%TO.P,J5,2,Pin_2*%
%TO.N,/PI21*%
X96579400Y-90223000D03*
%TO.P,J5,3,Pin_3*%
%TO.N,GND*%
X99119400Y-90223000D03*
%TO.P,J5,4,Pin_4*%
%TO.N,+3V3*%
X101659400Y-90223000D03*
%TD*%
D24*
%TO.P,BT1,1,+*%
%TO.N,/V_BCKP*%
X60653800Y-108568000D03*
%TO.P,BT1,2,-*%
%TO.N,GND*%
X60653800Y-88568000D03*
%TD*%
D14*
%TO.P,J6,1,Pin_1*%
%TO.N,+3V3*%
X87352000Y-65810000D03*
D15*
%TO.P,J6,2,Pin_2*%
%TO.N,GND*%
X84812000Y-65810000D03*
%TD*%
D22*
%TO.P,FID4,*%
%TO.N,*%
X119000000Y-66900000D03*
%TD*%
D25*
%TO.P,J9,1*%
%TO.N,+12V*%
X109750000Y-132000000D03*
D26*
%TO.P,J9,2*%
%TO.N,GND*%
X115550000Y-132000000D03*
D27*
%TO.P,J9,3*%
X112750000Y-136800000D03*
%TD*%
D10*
%TO.P,R7,1*%
%TO.N,Net-(D1-BK)*%
X78054525Y-81983960D03*
%TO.P,R7,2*%
%TO.N,Net-(U1-O3)*%
X78054525Y-79983960D03*
%TD*%
D14*
%TO.P,J3,1,Pin_1*%
%TO.N,/PI3{slash}TWI4_SDA*%
X53846600Y-134700000D03*
D15*
%TO.P,J3,2,Pin_2*%
%TO.N,/PI2{slash}TWI4_SCK*%
X51306600Y-134700000D03*
%TO.P,J3,3,Pin_3*%
%TO.N,GND*%
X48766600Y-134700000D03*
%TO.P,J3,4,Pin_4*%
%TO.N,+3V3*%
X46226600Y-134700000D03*
%TD*%
D16*
%TO.P,D1,1,A*%
%TO.N,/power/+5VCPU*%
X107400000Y-73600000D03*
%TO.P,D1,2,BK*%
%TO.N,Net-(D1-BK)*%
X105950000Y-73600000D03*
%TO.P,D1,3,RK*%
%TO.N,Net-(D1-RK)*%
X107400000Y-77000000D03*
%TO.P,D1,4,GK*%
%TO.N,Net-(D1-GK)*%
X105950000Y-77000000D03*
%TD*%
D10*
%TO.P,R2,1*%
%TO.N,Net-(D1-RK)*%
X74748925Y-91500000D03*
%TO.P,R2,2*%
%TO.N,Net-(U1-O1)*%
X74748925Y-89500000D03*
%TD*%
D23*
%TO.P,D6,1,K*%
%TO.N,Net-(D6-K)*%
X91591000Y-117288000D03*
%TO.P,D6,2,A*%
%TO.N,Net-(D6-A)*%
X91591000Y-119038000D03*
%TD*%
D10*
%TO.P,R14,1*%
%TO.N,Net-(D2-GK)*%
X74748925Y-72499920D03*
%TO.P,R14,2*%
%TO.N,Net-(U1-O5)*%
X74748925Y-70499920D03*
%TD*%
%TO.P,R15,1*%
%TO.N,Net-(D2-BK)*%
X78005525Y-67200000D03*
%TO.P,R15,2*%
%TO.N,Net-(U1-O6)*%
X78005525Y-65200000D03*
%TD*%
D28*
%TO.N,/pic18/VCPU_EN*%
X56950000Y-128050000D03*
X115425000Y-119550000D03*
%TO.N,+3.3VP*%
X59400000Y-125500000D03*
X75050000Y-124600000D03*
%TO.N,/power/+5VCPU*%
X116375000Y-81700000D03*
X92700000Y-71500000D03*
%TO.N,GND*%
X48665000Y-137721000D03*
X105205400Y-113235400D03*
X78383000Y-109400000D03*
X52800000Y-109200000D03*
X83361400Y-104193000D03*
X79750000Y-132650000D03*
X120636600Y-108900200D03*
D29*
%TO.N,+12V*%
X110857600Y-119941245D03*
D28*
X100100000Y-128196000D03*
%TO.N,+3V3*%
X66445000Y-106733000D03*
X97052000Y-105971000D03*
X46226600Y-120300000D03*
%TO.N,Net-(U4-VFB)*%
X120050000Y-93750000D03*
X116745000Y-123000218D03*
%TO.N,Net-(D3-K)*%
X104148000Y-128196000D03*
%TO.N,/PI15{slash}EINT27*%
X75288200Y-120638277D03*
X92607000Y-94795000D03*
%TO.N,/PI0{slash}TWI3_SCK*%
X97179000Y-102542000D03*
X70522000Y-103545000D03*
%TO.N,/PI1{slash}TWI3_SDA*%
X72332000Y-101194600D03*
X92607000Y-101194600D03*
%TO.N,/PI4*%
X76478000Y-98605000D03*
X98957000Y-99494000D03*
%TO.N,Net-(D5-A)*%
X96417000Y-121338000D03*
%TO.N,Net-(D5-K)*%
X87648600Y-115115000D03*
%TO.N,Net-(U1-O1)*%
X54000000Y-83400000D03*
%TO.N,Net-(U1-O2)*%
X56200000Y-82500000D03*
%TO.N,Net-(U1-O3)*%
X54000000Y-80800000D03*
%TO.N,Net-(U1-O4)*%
X56200000Y-79400000D03*
%TO.N,Net-(U1-O5)*%
X58470731Y-77600000D03*
%TO.N,Net-(U1-O6)*%
X58470731Y-75298049D03*
%TO.N,Net-(D6-A)*%
X91591000Y-121338000D03*
%TO.N,Net-(D6-K)*%
X88543000Y-118671000D03*
%TO.N,+3V3*%
X77450000Y-123900000D03*
%TD*%
D30*
%TO.N,+3.3VP*%
X75050000Y-124600000D02*
X74150000Y-125500000D01*
X74150000Y-125500000D02*
X59400000Y-125500000D01*
%TO.N,/pic18/VCPU_EN*%
X108008755Y-118491245D02*
X114366245Y-118491245D01*
X106400000Y-120100000D02*
X108008755Y-118491245D01*
X106400000Y-129650000D02*
X106400000Y-120100000D01*
X105050000Y-131000000D02*
X106400000Y-129650000D01*
X59900000Y-131000000D02*
X105050000Y-131000000D01*
X56950000Y-128050000D02*
X59900000Y-131000000D01*
X114366245Y-118491245D02*
X115425000Y-119550000D01*
%TO.N,Net-(D7-K)*%
X62300000Y-127375000D02*
X64825000Y-127375000D01*
X64825000Y-127375000D02*
X64900000Y-127300000D01*
D31*
%TO.N,+3V3*%
X77450000Y-123900000D02*
X75800000Y-122250000D01*
X75800000Y-122250000D02*
X48176600Y-122250000D01*
X48176600Y-122250000D02*
X46226600Y-120300000D01*
D32*
%TO.N,/power/+5VCPU*%
X96644200Y-73522000D02*
X96644200Y-71544200D01*
X96644200Y-71544200D02*
X96600000Y-71500000D01*
X92700000Y-71500000D02*
X92800000Y-71600000D01*
X107400000Y-72400000D02*
X107400000Y-73600000D01*
X108750000Y-73600000D02*
X116375000Y-81225000D01*
X96600000Y-71500000D02*
X92700000Y-71500000D01*
X107400000Y-72400000D02*
X106500000Y-71500000D01*
X107400000Y-73600000D02*
X108750000Y-73600000D01*
X116375000Y-81225000D02*
X116375000Y-81700000D01*
X106500000Y-71500000D02*
X96600000Y-71500000D01*
D33*
%TO.N,+12V*%
X109750000Y-132000000D02*
X109750000Y-121048845D01*
X109750000Y-121048845D02*
X110857600Y-119941245D01*
D30*
X101243000Y-124640000D02*
X101243000Y-127053000D01*
X101243000Y-127053000D02*
X100100000Y-128196000D01*
D31*
%TO.N,+3V3*%
X97052000Y-105971000D02*
X96290000Y-106733000D01*
X74827000Y-117461800D02*
X74827000Y-106733000D01*
X74827000Y-106733000D02*
X66445000Y-106733000D01*
X78586200Y-121221000D02*
X74827000Y-117461800D01*
X96290000Y-106733000D02*
X74827000Y-106733000D01*
D32*
%TO.N,Net-(U4-VFB)*%
X122668600Y-96368600D02*
X122668600Y-117076618D01*
X122668600Y-117076618D02*
X116745000Y-123000218D01*
X120050000Y-93750000D02*
X122668600Y-96368600D01*
D30*
%TO.N,Net-(D3-K)*%
X102993000Y-127041000D02*
X104148000Y-128196000D01*
X102993000Y-124640000D02*
X102993000Y-127041000D01*
D32*
%TO.N,Net-(D1-GK)*%
X94774020Y-86725980D02*
X104500000Y-77000000D01*
X78068525Y-86725980D02*
X74845725Y-86725980D01*
X104500000Y-77000000D02*
X105950000Y-77000000D01*
X78068525Y-86725980D02*
X94774020Y-86725980D01*
%TO.N,Net-(D1-RK)*%
X78054525Y-91500000D02*
X81654525Y-87900000D01*
X81654525Y-87900000D02*
X98300000Y-87900000D01*
X98300000Y-87900000D02*
X107400000Y-78800000D01*
X78054525Y-91500000D02*
X74748925Y-91500000D01*
X107400000Y-78800000D02*
X107400000Y-77000000D01*
%TO.N,Net-(D1-BK)*%
X105000000Y-73600000D02*
X105950000Y-73600000D01*
X80216040Y-81983960D02*
X82700000Y-79500000D01*
X78054525Y-81983960D02*
X80216040Y-81983960D01*
X82700000Y-79500000D02*
X99100000Y-79500000D01*
X99100000Y-79500000D02*
X105000000Y-73600000D01*
X78054525Y-81983960D02*
X74748925Y-81983960D01*
%TO.N,Net-(D2-GK)*%
X78054525Y-72499920D02*
X87299920Y-72499920D01*
X91722000Y-76922000D02*
X95194200Y-76922000D01*
X78054525Y-72499920D02*
X74748925Y-72499920D01*
X87299920Y-72499920D02*
X91722000Y-76922000D01*
%TO.N,Net-(D2-RK)*%
X96644200Y-77822000D02*
X96644200Y-76922000D01*
X78000000Y-77241940D02*
X79080060Y-78322000D01*
X79080060Y-78322000D02*
X96144200Y-78322000D01*
X96144200Y-78322000D02*
X96644200Y-77822000D01*
X78000000Y-77241940D02*
X74745200Y-77241940D01*
%TO.N,Net-(D2-BK)*%
X86600000Y-69100000D02*
X91022000Y-73522000D01*
X91022000Y-73522000D02*
X95194200Y-73522000D01*
X78005525Y-67200000D02*
X74797925Y-67200000D01*
X79905525Y-69100000D02*
X86600000Y-69100000D01*
X78005525Y-67200000D02*
X79905525Y-69100000D01*
%TO.N,/PI15{slash}EINT27*%
X73496522Y-94795000D02*
X65145000Y-103146522D01*
X65145000Y-110495077D02*
X75288200Y-120638277D01*
X92607000Y-94795000D02*
X73496522Y-94795000D01*
X65145000Y-103146522D02*
X65145000Y-110495077D01*
%TO.N,/PI0{slash}TWI3_SCK*%
X96584000Y-102494600D02*
X96631400Y-102542000D01*
X96631400Y-102542000D02*
X97179000Y-102542000D01*
X70522000Y-103545000D02*
X71572400Y-102494600D01*
X71572400Y-102494600D02*
X96584000Y-102494600D01*
%TO.N,/PI1{slash}TWI3_SDA*%
X72332000Y-101194600D02*
X92607000Y-101194600D01*
%TO.N,/PI4*%
X76478000Y-98605000D02*
X98068000Y-98605000D01*
X98068000Y-98605000D02*
X98957000Y-99494000D01*
D30*
%TO.N,Net-(D5-A)*%
X96417000Y-121338000D02*
X96417000Y-119038000D01*
%TO.N,Net-(D5-K)*%
X96417000Y-117288000D02*
X94244000Y-115115000D01*
X94244000Y-115115000D02*
X87648600Y-115115000D01*
D32*
%TO.N,Net-(U1-O1)*%
X56800000Y-86200000D02*
X54000000Y-83400000D01*
X71448925Y-86200000D02*
X56800000Y-86200000D01*
X78054525Y-89500000D02*
X74748925Y-89500000D01*
X74748925Y-89500000D02*
X71448925Y-86200000D01*
%TO.N,Net-(U1-O2)*%
X74813725Y-84757980D02*
X58457980Y-84757980D01*
X78068525Y-84725980D02*
X74845725Y-84725980D01*
X58457980Y-84757980D02*
X56200000Y-82500000D01*
%TO.N,Net-(U1-O3)*%
X73116040Y-79983960D02*
X72300000Y-80800000D01*
X72300000Y-80800000D02*
X54000000Y-80800000D01*
X78054525Y-79983960D02*
X74748925Y-79983960D01*
X74748925Y-79983960D02*
X73116040Y-79983960D01*
%TO.N,Net-(U1-O4)*%
X70587140Y-79400000D02*
X56200000Y-79400000D01*
X78000000Y-75241940D02*
X74745200Y-75241940D01*
X74745200Y-75241940D02*
X70587140Y-79400000D01*
%TO.N,Net-(U1-O5)*%
X78054525Y-70499920D02*
X74748925Y-70499920D01*
X67900000Y-77600000D02*
X58470731Y-77600000D01*
X70400000Y-73100000D02*
X70400000Y-75100000D01*
X70400000Y-75100000D02*
X67900000Y-77600000D01*
X73000080Y-70499920D02*
X70400000Y-73100000D01*
X74748925Y-70499920D02*
X73000080Y-70499920D01*
%TO.N,Net-(U1-O6)*%
X69600000Y-65200000D02*
X59501951Y-75298049D01*
X59501951Y-75298049D02*
X58470731Y-75298049D01*
X74797925Y-65200000D02*
X69600000Y-65200000D01*
X78005525Y-65200000D02*
X74797925Y-65200000D01*
D30*
%TO.N,Net-(D6-A)*%
X91591000Y-121338000D02*
X91591000Y-119038000D01*
%TO.N,Net-(D6-K)*%
X89926000Y-117288000D02*
X88543000Y-118671000D01*
X91591000Y-117288000D02*
X89926000Y-117288000D01*
%TD*%
%TA.AperFunction,Conductor*%
%TO.N,GND*%
G36*
X123177239Y-63178485D02*
G01*
X123222994Y-63231289D01*
X123234200Y-63282800D01*
X123234200Y-95502760D01*
X123214515Y-95569799D01*
X123161711Y-95615554D01*
X123092553Y-95625498D01*
X123028997Y-95596473D01*
X123022519Y-95590441D01*
X121382404Y-93950326D01*
X121348919Y-93889003D01*
X121346557Y-93851842D01*
X121355468Y-93750000D01*
X121335635Y-93523308D01*
X121276739Y-93303504D01*
X121180568Y-93097266D01*
X121051891Y-92913495D01*
X121050045Y-92910858D01*
X120889141Y-92749954D01*
X120702734Y-92619432D01*
X120702732Y-92619431D01*
X120496497Y-92523261D01*
X120496488Y-92523258D01*
X120276697Y-92464366D01*
X120276693Y-92464365D01*
X120276692Y-92464365D01*
X120276691Y-92464364D01*
X120276686Y-92464364D01*
X120050002Y-92444532D01*
X120049998Y-92444532D01*
X119823313Y-92464364D01*
X119823302Y-92464366D01*
X119603511Y-92523258D01*
X119603502Y-92523261D01*
X119397267Y-92619431D01*
X119397265Y-92619432D01*
X119210858Y-92749954D01*
X119049954Y-92910858D01*
X118919432Y-93097265D01*
X118919431Y-93097267D01*
X118823261Y-93303502D01*
X118823258Y-93303511D01*
X118764366Y-93523302D01*
X118764364Y-93523313D01*
X118744532Y-93749998D01*
X118744532Y-93750001D01*
X118764364Y-93976686D01*
X118764366Y-93976697D01*
X118823258Y-94196488D01*
X118823261Y-94196497D01*
X118919431Y-94402732D01*
X118919432Y-94402734D01*
X119049954Y-94589141D01*
X119210858Y-94750045D01*
X119210861Y-94750047D01*
X119397266Y-94880568D01*
X119603504Y-94976739D01*
X119823308Y-95035635D01*
X119985230Y-95049801D01*
X120049998Y-95055468D01*
X120049999Y-95055468D01*
X120049999Y-95055467D01*
X120050000Y-95055468D01*
X120151839Y-95046557D01*
X120220336Y-95060323D01*
X120250326Y-95082404D01*
X121831781Y-96663859D01*
X121865266Y-96725182D01*
X121868100Y-96751540D01*
X121868100Y-116693677D01*
X121848415Y-116760716D01*
X121831781Y-116781358D01*
X116945326Y-121667812D01*
X116884003Y-121701297D01*
X116846838Y-121703659D01*
X116745002Y-121694750D01*
X116744998Y-121694750D01*
X116518313Y-121714582D01*
X116518302Y-121714584D01*
X116298511Y-121773476D01*
X116298502Y-121773479D01*
X116092267Y-121869649D01*
X116092265Y-121869650D01*
X115905858Y-122000172D01*
X115744954Y-122161076D01*
X115614432Y-122347483D01*
X115614431Y-122347485D01*
X115518261Y-122553720D01*
X115518258Y-122553729D01*
X115459366Y-122773520D01*
X115459364Y-122773531D01*
X115439532Y-123000216D01*
X115439532Y-123000219D01*
X115459364Y-123226904D01*
X115459366Y-123226915D01*
X115518258Y-123446706D01*
X115518261Y-123446715D01*
X115614431Y-123652950D01*
X115614432Y-123652952D01*
X115744954Y-123839359D01*
X115905858Y-124000263D01*
X115905861Y-124000265D01*
X116092266Y-124130786D01*
X116298504Y-124226957D01*
X116518308Y-124285853D01*
X116680230Y-124300019D01*
X116744998Y-124305686D01*
X116745000Y-124305686D01*
X116745002Y-124305686D01*
X116801673Y-124300727D01*
X116971692Y-124285853D01*
X117191496Y-124226957D01*
X117397734Y-124130786D01*
X117584139Y-124000265D01*
X117745047Y-123839357D01*
X117875568Y-123652952D01*
X117971739Y-123446714D01*
X118030635Y-123226910D01*
X118050468Y-123000218D01*
X118041557Y-122898376D01*
X118055323Y-122829880D01*
X118077401Y-122799893D01*
X123022521Y-117854774D01*
X123083842Y-117821291D01*
X123153534Y-117826275D01*
X123209467Y-117868147D01*
X123233884Y-117933611D01*
X123234200Y-117942457D01*
X123234200Y-138689500D01*
X123214515Y-138756539D01*
X123161711Y-138802294D01*
X123110200Y-138813500D01*
X114577312Y-138813500D01*
X114510273Y-138793815D01*
X114464518Y-138741011D01*
X114454574Y-138671853D01*
X114483599Y-138608297D01*
X114529859Y-138574939D01*
X114692148Y-138507716D01*
X114692159Y-138507711D01*
X114907841Y-138383186D01*
X114907857Y-138383175D01*
X115105443Y-138231562D01*
X115105450Y-138231556D01*
X115281556Y-138055450D01*
X115281562Y-138055443D01*
X115433175Y-137857857D01*
X115433186Y-137857841D01*
X115557711Y-137642159D01*
X115557716Y-137642148D01*
X115653026Y-137412049D01*
X115717491Y-137171463D01*
X115733482Y-137050000D01*
X114165686Y-137050000D01*
X114170080Y-137045606D01*
X114222741Y-136954394D01*
X114250000Y-136852661D01*
X114250000Y-136747339D01*
X114222741Y-136645606D01*
X114170080Y-136554394D01*
X114165686Y-136550000D01*
X115733481Y-136550000D01*
X115717491Y-136428536D01*
X115653026Y-136187950D01*
X115557716Y-135957851D01*
X115557711Y-135957840D01*
X115433186Y-135742158D01*
X115433175Y-135742142D01*
X115281562Y-135544556D01*
X115281556Y-135544549D01*
X115105450Y-135368443D01*
X115105443Y-135368437D01*
X114907857Y-135216824D01*
X114907841Y-135216813D01*
X114692159Y-135092288D01*
X114692148Y-135092283D01*
X114462049Y-134996973D01*
X114221463Y-134932508D01*
X113974534Y-134900000D01*
X113000000Y-134900000D01*
X113000000Y-136400000D01*
X112500000Y-136400000D01*
X112500000Y-134900000D01*
X111772190Y-134900000D01*
X111705151Y-134880315D01*
X111659396Y-134827511D01*
X111648901Y-134762744D01*
X111650499Y-134747880D01*
X111650500Y-134747873D01*
X111650499Y-130775466D01*
X113650000Y-130775466D01*
X113650000Y-131750000D01*
X115150000Y-131750000D01*
X115150000Y-132250000D01*
X113650000Y-132250000D01*
X113650000Y-133224533D01*
X113682508Y-133471463D01*
X113746973Y-133712049D01*
X113842283Y-133942148D01*
X113842288Y-133942159D01*
X113966813Y-134157841D01*
X113966824Y-134157857D01*
X114118437Y-134355443D01*
X114118443Y-134355450D01*
X114294549Y-134531556D01*
X114294556Y-134531562D01*
X114492142Y-134683175D01*
X114492158Y-134683186D01*
X114707840Y-134807711D01*
X114707851Y-134807716D01*
X114937950Y-134903026D01*
X115178536Y-134967491D01*
X115300000Y-134983481D01*
X115300000Y-133415686D01*
X115304394Y-133420080D01*
X115395606Y-133472741D01*
X115497339Y-133500000D01*
X115602661Y-133500000D01*
X115704394Y-133472741D01*
X115795606Y-133420080D01*
X115800000Y-133415686D01*
X115800000Y-134983480D01*
X115921463Y-134967491D01*
X116162049Y-134903026D01*
X116392148Y-134807716D01*
X116392159Y-134807711D01*
X116607841Y-134683186D01*
X116607857Y-134683175D01*
X116805443Y-134531562D01*
X116805450Y-134531556D01*
X116981556Y-134355450D01*
X116981562Y-134355443D01*
X117133175Y-134157857D01*
X117133186Y-134157841D01*
X117257711Y-133942159D01*
X117257716Y-133942148D01*
X117353026Y-133712049D01*
X117417491Y-133471463D01*
X117450000Y-133224533D01*
X117450000Y-132250000D01*
X115950000Y-132250000D01*
X115950000Y-131750000D01*
X117450000Y-131750000D01*
X117450000Y-130775466D01*
X117417491Y-130528536D01*
X117353026Y-130287950D01*
X117257716Y-130057851D01*
X117257711Y-130057840D01*
X117133186Y-129842158D01*
X117133175Y-129842142D01*
X116981562Y-129644556D01*
X116981556Y-129644549D01*
X116805450Y-129468443D01*
X116805443Y-129468437D01*
X116607857Y-129316824D01*
X116607841Y-129316813D01*
X116392159Y-129192288D01*
X116392148Y-129192283D01*
X116162049Y-129096973D01*
X115921463Y-129032508D01*
X115800000Y-129016516D01*
X115800000Y-130584314D01*
X115795606Y-130579920D01*
X115704394Y-130527259D01*
X115602661Y-130500000D01*
X115497339Y-130500000D01*
X115395606Y-130527259D01*
X115304394Y-130579920D01*
X115300000Y-130584314D01*
X115300000Y-129016516D01*
X115299999Y-129016516D01*
X115178536Y-129032508D01*
X114937950Y-129096973D01*
X114707851Y-129192283D01*
X114707840Y-129192288D01*
X114492158Y-129316813D01*
X114492142Y-129316824D01*
X114294556Y-129468437D01*
X114294549Y-129468443D01*
X114118443Y-129644549D01*
X114118437Y-129644556D01*
X113966824Y-129842142D01*
X113966813Y-129842158D01*
X113842288Y-130057840D01*
X113842283Y-130057851D01*
X113746973Y-130287950D01*
X113682508Y-130528536D01*
X113650000Y-130775466D01*
X111650499Y-130775466D01*
X111650499Y-129252128D01*
X111645299Y-129203757D01*
X111644091Y-129192516D01*
X111593797Y-129057671D01*
X111593793Y-129057664D01*
X111507547Y-128942455D01*
X111507544Y-128942452D01*
X111392335Y-128856206D01*
X111392328Y-128856202D01*
X111331167Y-128833391D01*
X111275233Y-128791520D01*
X111250816Y-128726056D01*
X111250500Y-128717209D01*
X111250500Y-121721733D01*
X111270185Y-121654694D01*
X111286815Y-121634056D01*
X111847297Y-121073573D01*
X111858806Y-121063410D01*
X111877344Y-121048983D01*
X111938834Y-120982185D01*
X111942335Y-120978535D01*
X112002117Y-120918755D01*
X112016210Y-120899356D01*
X112025282Y-120888278D01*
X112045764Y-120866030D01*
X112091739Y-120795658D01*
X112095218Y-120790612D01*
X112104498Y-120777840D01*
X112140943Y-120727679D01*
X112154891Y-120700300D01*
X112161558Y-120688791D01*
X112181773Y-120657852D01*
X112212840Y-120587024D01*
X112215885Y-120580592D01*
X112248168Y-120517237D01*
X112259736Y-120481628D01*
X112264113Y-120470135D01*
X112278231Y-120437949D01*
X112281663Y-120430126D01*
X112298997Y-120361673D01*
X112301261Y-120353832D01*
X112321153Y-120292613D01*
X112328065Y-120248963D01*
X112330324Y-120237965D01*
X112342708Y-120189066D01*
X112347982Y-120125397D01*
X112349086Y-120116243D01*
X112355888Y-120073302D01*
X112358100Y-120059337D01*
X112358100Y-120008434D01*
X112358524Y-119998193D01*
X112363243Y-119941249D01*
X112363243Y-119941240D01*
X112358524Y-119884295D01*
X112358100Y-119874054D01*
X112358100Y-119823154D01*
X112352373Y-119787000D01*
X112349085Y-119766240D01*
X112347982Y-119757086D01*
X112346939Y-119744499D01*
X112342708Y-119693424D01*
X112330327Y-119644536D01*
X112328064Y-119633512D01*
X112326028Y-119620663D01*
X112321153Y-119589877D01*
X112301265Y-119528669D01*
X112299000Y-119520827D01*
X112281663Y-119452364D01*
X112265517Y-119415558D01*
X112256613Y-119346259D01*
X112286587Y-119283146D01*
X112345925Y-119246257D01*
X112379072Y-119241745D01*
X114004015Y-119241745D01*
X114071054Y-119261430D01*
X114091696Y-119278064D01*
X114098282Y-119284650D01*
X114131767Y-119345973D01*
X114134129Y-119383137D01*
X114119532Y-119549996D01*
X114119532Y-119550001D01*
X114139364Y-119776686D01*
X114139366Y-119776697D01*
X114198258Y-119996488D01*
X114198261Y-119996497D01*
X114294431Y-120202732D01*
X114294432Y-120202734D01*
X114424954Y-120389141D01*
X114585858Y-120550045D01*
X114585861Y-120550047D01*
X114772266Y-120680568D01*
X114978504Y-120776739D01*
X115198308Y-120835635D01*
X115360230Y-120849801D01*
X115424998Y-120855468D01*
X115425000Y-120855468D01*
X115425002Y-120855468D01*
X115481673Y-120850509D01*
X115651692Y-120835635D01*
X115871496Y-120776739D01*
X116077734Y-120680568D01*
X116264139Y-120550047D01*
X116425047Y-120389139D01*
X116555568Y-120202734D01*
X116651739Y-119996496D01*
X116710635Y-119776692D01*
X116730468Y-119550000D01*
X116710635Y-119323308D01*
X116651739Y-119103504D01*
X116555568Y-118897266D01*
X116425047Y-118710861D01*
X116425045Y-118710858D01*
X116264141Y-118549954D01*
X116077734Y-118419432D01*
X116077732Y-118419431D01*
X115871497Y-118323261D01*
X115871488Y-118323258D01*
X115651697Y-118264366D01*
X115651693Y-118264365D01*
X115651692Y-118264365D01*
X115651691Y-118264364D01*
X115651686Y-118264364D01*
X115425002Y-118244532D01*
X115424997Y-118244532D01*
X115258137Y-118259129D01*
X115189637Y-118245362D01*
X115159650Y-118223282D01*
X114844666Y-117908297D01*
X114844659Y-117908291D01*
X114770974Y-117859057D01*
X114770974Y-117859058D01*
X114721736Y-117826158D01*
X114585162Y-117769588D01*
X114585152Y-117769585D01*
X114440165Y-117740745D01*
X114440163Y-117740745D01*
X107934837Y-117740745D01*
X107934835Y-117740745D01*
X107789847Y-117769585D01*
X107789837Y-117769588D01*
X107653263Y-117826158D01*
X107530339Y-117908293D01*
X107530339Y-117908294D01*
X105817047Y-119621584D01*
X105817045Y-119621586D01*
X105784001Y-119671044D01*
X105783999Y-119671047D01*
X105734919Y-119744499D01*
X105734912Y-119744511D01*
X105678343Y-119881082D01*
X105678340Y-119881092D01*
X105649500Y-120026079D01*
X105649500Y-127833052D01*
X105629815Y-127900091D01*
X105577011Y-127945846D01*
X105507853Y-127955790D01*
X105444297Y-127926765D01*
X105406523Y-127867987D01*
X105405725Y-127865145D01*
X105374741Y-127749511D01*
X105374738Y-127749502D01*
X105343161Y-127681785D01*
X105278568Y-127543266D01*
X105148047Y-127356861D01*
X105148045Y-127356858D01*
X104987141Y-127195954D01*
X104800734Y-127065432D01*
X104800732Y-127065431D01*
X104594497Y-126969261D01*
X104594488Y-126969258D01*
X104374697Y-126910366D01*
X104374693Y-126910365D01*
X104374692Y-126910365D01*
X104374691Y-126910364D01*
X104374686Y-126910364D01*
X104148002Y-126890532D01*
X104147997Y-126890532D01*
X103981137Y-126905129D01*
X103912637Y-126891362D01*
X103882650Y-126869282D01*
X103779819Y-126766451D01*
X103746334Y-126705128D01*
X103743500Y-126678770D01*
X103743500Y-125509552D01*
X103763185Y-125442513D01*
X103779819Y-125421871D01*
X103813804Y-125387886D01*
X103863340Y-125338350D01*
X103953908Y-125191516D01*
X104008174Y-125027753D01*
X104018500Y-124926677D01*
X104018499Y-124353324D01*
X104008174Y-124252247D01*
X103953908Y-124088484D01*
X103863340Y-123941650D01*
X103741350Y-123819660D01*
X103594516Y-123729092D01*
X103430753Y-123674826D01*
X103430751Y-123674825D01*
X103329678Y-123664500D01*
X102656330Y-123664500D01*
X102656312Y-123664501D01*
X102555247Y-123674825D01*
X102391484Y-123729092D01*
X102391481Y-123729093D01*
X102244648Y-123819661D01*
X102205681Y-123858629D01*
X102144358Y-123892114D01*
X102074666Y-123887130D01*
X102030319Y-123858629D01*
X101991351Y-123819661D01*
X101991350Y-123819660D01*
X101844516Y-123729092D01*
X101680753Y-123674826D01*
X101680751Y-123674825D01*
X101579678Y-123664500D01*
X100906330Y-123664500D01*
X100906312Y-123664501D01*
X100805247Y-123674825D01*
X100641484Y-123729092D01*
X100641481Y-123729093D01*
X100494648Y-123819661D01*
X100372661Y-123941648D01*
X100282093Y-124088481D01*
X100282091Y-124088486D01*
X100265622Y-124138187D01*
X100227826Y-124252247D01*
X100227826Y-124252248D01*
X100227825Y-124252248D01*
X100217500Y-124353315D01*
X100217500Y-124926669D01*
X100217501Y-124926687D01*
X100227825Y-125027752D01*
X100234037Y-125046497D01*
X100280143Y-125185635D01*
X100282092Y-125191515D01*
X100282093Y-125191518D01*
X100316395Y-125247129D01*
X100367999Y-125330794D01*
X100372661Y-125338351D01*
X100456181Y-125421871D01*
X100489666Y-125483194D01*
X100492500Y-125509552D01*
X100492500Y-126690768D01*
X100472815Y-126757807D01*
X100456181Y-126778450D01*
X100365347Y-126869283D01*
X100304023Y-126902767D01*
X100266859Y-126905129D01*
X100100002Y-126890532D01*
X100099998Y-126890532D01*
X99873313Y-126910364D01*
X99873302Y-126910366D01*
X99653511Y-126969258D01*
X99653502Y-126969261D01*
X99447267Y-127065431D01*
X99447265Y-127065432D01*
X99260858Y-127195954D01*
X99099954Y-127356858D01*
X98969432Y-127543265D01*
X98969431Y-127543267D01*
X98873261Y-127749502D01*
X98873258Y-127749511D01*
X98814366Y-127969302D01*
X98814364Y-127969313D01*
X98794532Y-128195998D01*
X98794532Y-128196001D01*
X98814364Y-128422686D01*
X98814366Y-128422697D01*
X98873258Y-128642488D01*
X98873261Y-128642497D01*
X98969431Y-128848732D01*
X98969432Y-128848734D01*
X99099954Y-129035141D01*
X99260858Y-129196045D01*
X99260861Y-129196047D01*
X99447266Y-129326568D01*
X99653504Y-129422739D01*
X99873308Y-129481635D01*
X100035230Y-129495801D01*
X100099998Y-129501468D01*
X100100000Y-129501468D01*
X100100002Y-129501468D01*
X100156673Y-129496509D01*
X100326692Y-129481635D01*
X100546496Y-129422739D01*
X100752734Y-129326568D01*
X100939139Y-129196047D01*
X101100047Y-129035139D01*
X101230568Y-128848734D01*
X101326739Y-128642496D01*
X101385635Y-128422692D01*
X101404009Y-128212672D01*
X101405468Y-128196001D01*
X101405468Y-128195999D01*
X101398701Y-128118654D01*
X101390869Y-128029137D01*
X101404635Y-127960639D01*
X101426713Y-127930653D01*
X101825951Y-127531416D01*
X101838597Y-127512490D01*
X101908084Y-127408495D01*
X101964658Y-127271913D01*
X101982482Y-127182308D01*
X101993500Y-127126920D01*
X101993500Y-125509552D01*
X102013185Y-125442513D01*
X102029819Y-125421871D01*
X102030319Y-125421371D01*
X102091642Y-125387886D01*
X102161334Y-125392870D01*
X102205681Y-125421371D01*
X102206181Y-125421871D01*
X102239666Y-125483194D01*
X102242500Y-125509552D01*
X102242500Y-127114918D01*
X102242500Y-127114920D01*
X102242499Y-127114920D01*
X102271340Y-127259907D01*
X102271343Y-127259917D01*
X102327914Y-127396492D01*
X102327915Y-127396494D01*
X102327916Y-127396495D01*
X102328430Y-127397265D01*
X102353021Y-127434067D01*
X102353022Y-127434070D01*
X102410046Y-127519414D01*
X102410052Y-127519421D01*
X102821282Y-127930650D01*
X102854767Y-127991973D01*
X102857129Y-128029137D01*
X102842532Y-128195996D01*
X102842532Y-128196001D01*
X102862364Y-128422686D01*
X102862366Y-128422697D01*
X102921258Y-128642488D01*
X102921261Y-128642497D01*
X103017431Y-128848732D01*
X103017432Y-128848734D01*
X103147954Y-129035141D01*
X103308858Y-129196045D01*
X103308861Y-129196047D01*
X103495266Y-129326568D01*
X103701504Y-129422739D01*
X103921308Y-129481635D01*
X104083230Y-129495801D01*
X104147998Y-129501468D01*
X104148000Y-129501468D01*
X104148002Y-129501468D01*
X104204673Y-129496509D01*
X104374692Y-129481635D01*
X104594496Y-129422739D01*
X104800734Y-129326568D01*
X104987139Y-129196047D01*
X105148047Y-129035139D01*
X105278568Y-128848734D01*
X105374739Y-128642496D01*
X105405725Y-128526853D01*
X105442090Y-128467193D01*
X105504937Y-128436664D01*
X105574312Y-128444959D01*
X105628190Y-128489444D01*
X105649465Y-128555996D01*
X105649500Y-128558947D01*
X105649500Y-129287770D01*
X105629815Y-129354809D01*
X105613181Y-129375451D01*
X104775451Y-130213181D01*
X104714128Y-130246666D01*
X104687770Y-130249500D01*
X80544555Y-130249500D01*
X80477516Y-130229815D01*
X80431761Y-130177011D01*
X80421817Y-130107853D01*
X80444237Y-130052614D01*
X80444832Y-130051794D01*
X80492179Y-129986628D01*
X80595831Y-129783199D01*
X80666384Y-129566060D01*
X80668928Y-129550000D01*
X80702100Y-129340562D01*
X80702100Y-128512237D01*
X80666384Y-128286739D01*
X80633649Y-128185992D01*
X80595831Y-128069601D01*
X80595829Y-128069598D01*
X80595829Y-128069596D01*
X80527465Y-127935425D01*
X80492179Y-127866172D01*
X80357979Y-127681463D01*
X80196537Y-127520021D01*
X80011828Y-127385821D01*
X79808403Y-127282170D01*
X79591260Y-127211615D01*
X79365762Y-127175900D01*
X79365757Y-127175900D01*
X79137443Y-127175900D01*
X79137438Y-127175900D01*
X78911939Y-127211615D01*
X78694796Y-127282170D01*
X78491371Y-127385821D01*
X78306661Y-127520022D01*
X78145223Y-127681460D01*
X78145216Y-127681469D01*
X78081917Y-127768591D01*
X78026587Y-127811257D01*
X77956973Y-127817235D01*
X77895179Y-127784628D01*
X77881283Y-127768591D01*
X77818217Y-127681791D01*
X77817979Y-127681463D01*
X77656537Y-127520021D01*
X77471828Y-127385821D01*
X77268403Y-127282170D01*
X77051260Y-127211615D01*
X76825762Y-127175900D01*
X76825757Y-127175900D01*
X76597443Y-127175900D01*
X76597438Y-127175900D01*
X76371939Y-127211615D01*
X76154796Y-127282170D01*
X75951371Y-127385821D01*
X75766661Y-127520022D01*
X75605222Y-127681461D01*
X75591746Y-127700009D01*
X75541919Y-127768591D01*
X75541609Y-127769017D01*
X75486278Y-127811682D01*
X75416665Y-127817661D01*
X75354870Y-127785055D01*
X75340973Y-127769016D01*
X75277600Y-127681791D01*
X75277595Y-127681785D01*
X75116214Y-127520404D01*
X74931566Y-127386249D01*
X74728202Y-127282629D01*
X74511141Y-127212103D01*
X74421600Y-127197921D01*
X74421600Y-128493388D01*
X74364593Y-128460475D01*
X74237426Y-128426400D01*
X74105774Y-128426400D01*
X73978607Y-128460475D01*
X73921600Y-128493388D01*
X73921600Y-127197921D01*
X73921599Y-127197921D01*
X73832058Y-127212103D01*
X73614997Y-127282629D01*
X73411633Y-127386249D01*
X73226985Y-127520404D01*
X73065603Y-127681786D01*
X73002226Y-127769017D01*
X72946895Y-127811683D01*
X72877282Y-127817661D01*
X72815487Y-127785055D01*
X72801590Y-127769016D01*
X72801281Y-127768591D01*
X72737979Y-127681463D01*
X72576537Y-127520021D01*
X72391828Y-127385821D01*
X72188403Y-127282170D01*
X71971260Y-127211615D01*
X71745762Y-127175900D01*
X71745757Y-127175900D01*
X71517443Y-127175900D01*
X71517438Y-127175900D01*
X71291939Y-127211615D01*
X71074796Y-127282170D01*
X70871368Y-127385823D01*
X70685564Y-127520818D01*
X70619758Y-127544298D01*
X70551704Y-127528473D01*
X70503009Y-127478367D01*
X70496496Y-127463831D01*
X70485395Y-127434067D01*
X70485393Y-127434064D01*
X70399147Y-127318855D01*
X70399144Y-127318852D01*
X70283935Y-127232606D01*
X70283928Y-127232602D01*
X70149082Y-127182308D01*
X70149083Y-127182308D01*
X70089483Y-127175901D01*
X70089481Y-127175900D01*
X70089473Y-127175900D01*
X70089464Y-127175900D01*
X68093729Y-127175900D01*
X68093723Y-127175901D01*
X68034116Y-127182308D01*
X67899271Y-127232602D01*
X67899264Y-127232606D01*
X67784055Y-127318852D01*
X67784052Y-127318855D01*
X67697806Y-127434064D01*
X67697804Y-127434069D01*
X67647508Y-127568917D01*
X67641101Y-127628516D01*
X67641100Y-127628527D01*
X67641100Y-128906939D01*
X67641101Y-130125500D01*
X67621416Y-130192539D01*
X67568613Y-130238294D01*
X67517101Y-130249500D01*
X66083594Y-130249500D01*
X66016555Y-130229815D01*
X65970800Y-130177011D01*
X65960856Y-130107853D01*
X65978055Y-130060403D01*
X66034356Y-129969124D01*
X66034358Y-129969119D01*
X66089505Y-129802697D01*
X66089506Y-129802690D01*
X66099999Y-129699986D01*
X66100000Y-129699973D01*
X66100000Y-129550000D01*
X63700001Y-129550000D01*
X63700001Y-129699986D01*
X63710494Y-129802697D01*
X63765641Y-129969119D01*
X63765643Y-129969124D01*
X63821945Y-130060403D01*
X63840385Y-130127796D01*
X63819462Y-130194459D01*
X63765820Y-130239229D01*
X63716406Y-130249500D01*
X60262230Y-130249500D01*
X60195191Y-130229815D01*
X60174549Y-130213181D01*
X58276716Y-128315348D01*
X58243231Y-128254025D01*
X58240869Y-128216863D01*
X58255468Y-128050000D01*
X58235635Y-127823308D01*
X58176739Y-127603504D01*
X58080568Y-127397266D01*
X57965273Y-127232606D01*
X57950045Y-127210858D01*
X57789141Y-127049954D01*
X57602734Y-126919432D01*
X57602732Y-126919431D01*
X57396497Y-126823261D01*
X57396488Y-126823258D01*
X57176697Y-126764366D01*
X57176693Y-126764365D01*
X57176692Y-126764365D01*
X57176691Y-126764364D01*
X57176686Y-126764364D01*
X56950002Y-126744532D01*
X56949998Y-126744532D01*
X56723313Y-126764364D01*
X56723302Y-126764366D01*
X56503511Y-126823258D01*
X56503502Y-126823261D01*
X56297267Y-126919431D01*
X56297265Y-126919432D01*
X56110858Y-127049954D01*
X55949954Y-127210858D01*
X55819432Y-127397265D01*
X55819431Y-127397267D01*
X55723261Y-127603502D01*
X55723258Y-127603511D01*
X55664366Y-127823302D01*
X55664364Y-127823313D01*
X55644532Y-128049998D01*
X55644532Y-128050001D01*
X55664364Y-128276686D01*
X55664366Y-128276697D01*
X55723258Y-128496488D01*
X55723261Y-128496497D01*
X55819431Y-128702732D01*
X55819432Y-128702734D01*
X55949954Y-128889141D01*
X56110858Y-129050045D01*
X56110861Y-129050047D01*
X56297266Y-129180568D01*
X56503504Y-129276739D01*
X56503509Y-129276740D01*
X56503511Y-129276741D01*
X56544672Y-129287770D01*
X56723308Y-129335635D01*
X56885230Y-129349801D01*
X56949998Y-129355468D01*
X56950000Y-129355468D01*
X56950001Y-129355468D01*
X56970062Y-129353712D01*
X57116861Y-129340869D01*
X57185359Y-129354635D01*
X57215348Y-129376716D01*
X59421586Y-131582954D01*
X59451058Y-131602645D01*
X59495270Y-131632186D01*
X59544505Y-131665084D01*
X59544506Y-131665084D01*
X59544507Y-131665085D01*
X59544509Y-131665086D01*
X59681082Y-131721656D01*
X59681087Y-131721658D01*
X59681091Y-131721658D01*
X59681092Y-131721659D01*
X59826079Y-131750500D01*
X59826082Y-131750500D01*
X59826083Y-131750500D01*
X59973917Y-131750500D01*
X87484022Y-131750500D01*
X87551061Y-131770185D01*
X87596816Y-131822989D01*
X87606760Y-131892147D01*
X87577735Y-131955703D01*
X87571703Y-131962181D01*
X87495762Y-132038121D01*
X87399183Y-132191825D01*
X87339226Y-132363174D01*
X87324000Y-132498314D01*
X87324000Y-133788000D01*
X88375518Y-133788000D01*
X88364889Y-133806409D01*
X88324000Y-133959009D01*
X88324000Y-134116991D01*
X88364889Y-134269591D01*
X88375518Y-134288000D01*
X87324001Y-134288000D01*
X87324001Y-135577686D01*
X87339226Y-135712826D01*
X87399184Y-135884175D01*
X87495762Y-136037878D01*
X87624121Y-136166237D01*
X87777825Y-136262816D01*
X87949174Y-136322773D01*
X88084315Y-136337999D01*
X88673999Y-136337999D01*
X88674000Y-136337998D01*
X88674000Y-134586482D01*
X88692409Y-134597111D01*
X88845009Y-134638000D01*
X89002991Y-134638000D01*
X89155591Y-134597111D01*
X89174000Y-134586482D01*
X89174000Y-136337999D01*
X89763683Y-136337999D01*
X89763686Y-136337998D01*
X89898826Y-136322773D01*
X90070175Y-136262815D01*
X90223878Y-136166237D01*
X90352237Y-136037878D01*
X90448816Y-135884174D01*
X90508773Y-135712825D01*
X90523999Y-135577685D01*
X90524000Y-135577685D01*
X90524000Y-134288000D01*
X89472482Y-134288000D01*
X89483111Y-134269591D01*
X89524000Y-134116991D01*
X89524000Y-133959009D01*
X89483111Y-133806409D01*
X89472482Y-133788000D01*
X90523999Y-133788000D01*
X90523999Y-132498317D01*
X90523998Y-132498313D01*
X90508773Y-132363173D01*
X90448815Y-132191824D01*
X90352237Y-132038121D01*
X90276297Y-131962181D01*
X90242812Y-131900858D01*
X90247796Y-131831166D01*
X90289668Y-131775233D01*
X90355132Y-131750816D01*
X90363978Y-131750500D01*
X91504440Y-131750500D01*
X91571479Y-131770185D01*
X91617234Y-131822989D01*
X91627178Y-131892147D01*
X91598153Y-131955703D01*
X91577325Y-131974818D01*
X91381350Y-132117201D01*
X91381345Y-132117205D01*
X91203205Y-132295345D01*
X91203201Y-132295350D01*
X91055132Y-132499151D01*
X90940760Y-132723616D01*
X90862910Y-132963214D01*
X90823500Y-133212038D01*
X90823500Y-134863961D01*
X90862910Y-135112785D01*
X90940760Y-135352383D01*
X91015976Y-135500000D01*
X91038678Y-135544557D01*
X91055132Y-135576848D01*
X91203201Y-135780649D01*
X91203205Y-135780654D01*
X91381345Y-135958794D01*
X91381350Y-135958798D01*
X91518633Y-136058539D01*
X91585155Y-136106870D01*
X91728184Y-136179747D01*
X91809616Y-136221239D01*
X91809618Y-136221239D01*
X91809621Y-136221241D01*
X92049215Y-136299090D01*
X92298038Y-136338500D01*
X92298039Y-136338500D01*
X92549961Y-136338500D01*
X92549962Y-136338500D01*
X92798785Y-136299090D01*
X93038379Y-136221241D01*
X93262845Y-136106870D01*
X93466656Y-135958793D01*
X93644793Y-135780656D01*
X93792870Y-135576845D01*
X93907241Y-135352379D01*
X93985090Y-135112785D01*
X94024500Y-134863962D01*
X94024500Y-133212038D01*
X93985090Y-132963215D01*
X93907241Y-132723621D01*
X93907239Y-132723618D01*
X93907239Y-132723616D01*
X93865747Y-132642184D01*
X93792870Y-132499155D01*
X93773952Y-132473117D01*
X93644798Y-132295350D01*
X93644794Y-132295345D01*
X93466654Y-132117205D01*
X93466649Y-132117201D01*
X93270675Y-131974818D01*
X93228009Y-131919488D01*
X93222030Y-131849875D01*
X93254635Y-131788080D01*
X93315474Y-131753723D01*
X93343560Y-131750500D01*
X95004440Y-131750500D01*
X95071479Y-131770185D01*
X95117234Y-131822989D01*
X95127178Y-131892147D01*
X95098153Y-131955703D01*
X95077325Y-131974818D01*
X94881350Y-132117201D01*
X94881345Y-132117205D01*
X94703205Y-132295345D01*
X94703201Y-132295350D01*
X94555132Y-132499151D01*
X94440760Y-132723616D01*
X94362910Y-132963214D01*
X94323500Y-133212038D01*
X94323500Y-134863961D01*
X94362910Y-135112785D01*
X94440760Y-135352383D01*
X94515976Y-135500000D01*
X94538678Y-135544557D01*
X94555132Y-135576848D01*
X94703201Y-135780649D01*
X94703205Y-135780654D01*
X94881345Y-135958794D01*
X94881350Y-135958798D01*
X95018633Y-136058539D01*
X95085155Y-136106870D01*
X95228184Y-136179747D01*
X95309616Y-136221239D01*
X95309618Y-136221239D01*
X95309621Y-136221241D01*
X95549215Y-136299090D01*
X95798038Y-136338500D01*
X95798039Y-136338500D01*
X96049961Y-136338500D01*
X96049962Y-136338500D01*
X96298785Y-136299090D01*
X96538379Y-136221241D01*
X96762845Y-136106870D01*
X96966656Y-135958793D01*
X97144793Y-135780656D01*
X97292870Y-135576845D01*
X97407241Y-135352379D01*
X97485090Y-135112785D01*
X97524500Y-134863962D01*
X97524500Y-133212038D01*
X97485090Y-132963215D01*
X97407241Y-132723621D01*
X97407239Y-132723618D01*
X97407239Y-132723616D01*
X97365747Y-132642184D01*
X97292870Y-132499155D01*
X97273952Y-132473117D01*
X97144798Y-132295350D01*
X97144794Y-132295345D01*
X96966654Y-132117205D01*
X96966649Y-132117201D01*
X96770675Y-131974818D01*
X96728009Y-131919488D01*
X96722030Y-131849875D01*
X96754635Y-131788080D01*
X96815474Y-131753723D01*
X96843560Y-131750500D01*
X98504440Y-131750500D01*
X98571479Y-131770185D01*
X98617234Y-131822989D01*
X98627178Y-131892147D01*
X98598153Y-131955703D01*
X98577325Y-131974818D01*
X98381350Y-132117201D01*
X98381345Y-132117205D01*
X98203205Y-132295345D01*
X98203201Y-132295350D01*
X98055132Y-132499151D01*
X97940760Y-132723616D01*
X97862910Y-132963214D01*
X97823500Y-133212038D01*
X97823500Y-134863961D01*
X97862910Y-135112785D01*
X97940760Y-135352383D01*
X98015976Y-135500000D01*
X98038678Y-135544557D01*
X98055132Y-135576848D01*
X98203201Y-135780649D01*
X98203205Y-135780654D01*
X98381345Y-135958794D01*
X98381350Y-135958798D01*
X98518633Y-136058539D01*
X98585155Y-136106870D01*
X98728184Y-136179747D01*
X98809616Y-136221239D01*
X98809618Y-136221239D01*
X98809621Y-136221241D01*
X99049215Y-136299090D01*
X99298038Y-136338500D01*
X99298039Y-136338500D01*
X99549961Y-136338500D01*
X99549962Y-136338500D01*
X99798785Y-136299090D01*
X100038379Y-136221241D01*
X100262845Y-136106870D01*
X100466656Y-135958793D01*
X100644793Y-135780656D01*
X100792870Y-135576845D01*
X100832024Y-135500000D01*
X104994659Y-135500000D01*
X105013975Y-135696129D01*
X105071188Y-135884733D01*
X105164086Y-136058532D01*
X105164090Y-136058539D01*
X105289116Y-136210883D01*
X105441460Y-136335909D01*
X105441467Y-136335913D01*
X105615266Y-136428811D01*
X105615269Y-136428811D01*
X105615273Y-136428814D01*
X105803868Y-136486024D01*
X106000000Y-136505341D01*
X106196132Y-136486024D01*
X106384727Y-136428814D01*
X106387637Y-136427259D01*
X106471632Y-136382362D01*
X106558538Y-136335910D01*
X106710883Y-136210883D01*
X106835910Y-136058538D01*
X106928814Y-135884727D01*
X106986024Y-135696132D01*
X107005341Y-135500000D01*
X106986024Y-135303868D01*
X106928814Y-135115273D01*
X106928811Y-135115269D01*
X106928811Y-135115266D01*
X106835913Y-134941467D01*
X106835909Y-134941460D01*
X106710883Y-134789116D01*
X106558539Y-134664090D01*
X106558532Y-134664086D01*
X106384733Y-134571188D01*
X106384727Y-134571186D01*
X106196132Y-134513976D01*
X106196129Y-134513975D01*
X106000000Y-134494659D01*
X105803870Y-134513975D01*
X105615266Y-134571188D01*
X105441467Y-134664086D01*
X105441460Y-134664090D01*
X105289116Y-134789116D01*
X105164090Y-134941460D01*
X105164086Y-134941467D01*
X105071188Y-135115266D01*
X105013975Y-135303870D01*
X104994659Y-135500000D01*
X100832024Y-135500000D01*
X100907241Y-135352379D01*
X100985090Y-135112785D01*
X101024500Y-134863962D01*
X101024500Y-133212038D01*
X100985090Y-132963215D01*
X100907241Y-132723621D01*
X100907239Y-132723618D01*
X100907239Y-132723616D01*
X100865747Y-132642184D01*
X100792870Y-132499155D01*
X100773952Y-132473117D01*
X100644798Y-132295350D01*
X100644794Y-132295345D01*
X100466654Y-132117205D01*
X100466649Y-132117201D01*
X100270675Y-131974818D01*
X100228009Y-131919488D01*
X100222030Y-131849875D01*
X100254635Y-131788080D01*
X100315474Y-131753723D01*
X100343560Y-131750500D01*
X105123920Y-131750500D01*
X105221462Y-131731096D01*
X105268913Y-131721658D01*
X105405495Y-131665084D01*
X105454729Y-131632186D01*
X105454734Y-131632183D01*
X105479071Y-131615921D01*
X105528416Y-131582952D01*
X106982951Y-130128416D01*
X107065084Y-130005495D01*
X107121658Y-129868913D01*
X107150500Y-129723918D01*
X107150500Y-129576083D01*
X107150500Y-120462229D01*
X107170185Y-120395190D01*
X107186819Y-120374548D01*
X108283303Y-119278064D01*
X108344626Y-119244579D01*
X108370984Y-119241745D01*
X109135711Y-119241745D01*
X109202750Y-119261430D01*
X109248505Y-119314234D01*
X109258449Y-119383392D01*
X109229424Y-119446948D01*
X109223392Y-119453426D01*
X108605485Y-120071332D01*
X108605484Y-120071333D01*
X108466657Y-120262410D01*
X108383152Y-120426300D01*
X108359433Y-120472848D01*
X108286446Y-120697476D01*
X108249500Y-120930747D01*
X108249500Y-128717209D01*
X108229815Y-128784248D01*
X108177011Y-128830003D01*
X108168833Y-128833391D01*
X108107671Y-128856202D01*
X108107664Y-128856206D01*
X107992455Y-128942452D01*
X107992452Y-128942455D01*
X107906206Y-129057664D01*
X107906202Y-129057671D01*
X107855908Y-129192517D01*
X107849501Y-129252116D01*
X107849501Y-129252123D01*
X107849500Y-129252135D01*
X107849500Y-134747870D01*
X107849501Y-134747876D01*
X107855908Y-134807483D01*
X107906202Y-134942328D01*
X107906206Y-134942335D01*
X107992452Y-135057544D01*
X107992455Y-135057547D01*
X108107664Y-135143793D01*
X108107671Y-135143797D01*
X108242517Y-135194091D01*
X108242516Y-135194091D01*
X108249444Y-135194835D01*
X108302127Y-135200500D01*
X110263132Y-135200499D01*
X110330170Y-135220184D01*
X110375925Y-135272987D01*
X110385869Y-135342146D01*
X110356844Y-135405702D01*
X110350813Y-135412180D01*
X110218436Y-135544557D01*
X110066824Y-135742142D01*
X110066813Y-135742158D01*
X109942288Y-135957840D01*
X109942283Y-135957851D01*
X109846973Y-136187950D01*
X109782508Y-136428536D01*
X109766518Y-136550000D01*
X111334314Y-136550000D01*
X111329920Y-136554394D01*
X111277259Y-136645606D01*
X111250000Y-136747339D01*
X111250000Y-136852661D01*
X111277259Y-136954394D01*
X111329920Y-137045606D01*
X111334314Y-137050000D01*
X109766518Y-137050000D01*
X109782508Y-137171463D01*
X109846973Y-137412049D01*
X109942283Y-137642148D01*
X109942288Y-137642159D01*
X110066813Y-137857841D01*
X110066824Y-137857857D01*
X110218437Y-138055443D01*
X110218443Y-138055450D01*
X110394549Y-138231556D01*
X110394556Y-138231562D01*
X110592142Y-138383175D01*
X110592158Y-138383186D01*
X110807840Y-138507711D01*
X110807851Y-138507716D01*
X110970141Y-138574939D01*
X111024544Y-138618780D01*
X111046609Y-138685074D01*
X111029330Y-138752773D01*
X110978193Y-138800384D01*
X110922688Y-138813500D01*
X40755100Y-138813500D01*
X40688061Y-138793815D01*
X40642306Y-138741011D01*
X40631100Y-138689500D01*
X40631100Y-134285837D01*
X44776100Y-134285837D01*
X44776100Y-135114162D01*
X44811815Y-135339660D01*
X44882370Y-135556803D01*
X44976806Y-135742142D01*
X44986021Y-135760228D01*
X45120221Y-135944937D01*
X45281663Y-136106379D01*
X45466372Y-136240579D01*
X45510013Y-136262815D01*
X45669796Y-136344229D01*
X45669798Y-136344229D01*
X45669801Y-136344231D01*
X45786192Y-136382049D01*
X45886939Y-136414784D01*
X46112438Y-136450500D01*
X46112443Y-136450500D01*
X46340762Y-136450500D01*
X46566260Y-136414784D01*
X46611760Y-136400000D01*
X46783399Y-136344231D01*
X46986828Y-136240579D01*
X47171537Y-136106379D01*
X47332979Y-135944937D01*
X47396592Y-135857380D01*
X47451919Y-135814717D01*
X47521533Y-135808738D01*
X47583328Y-135841343D01*
X47597226Y-135857382D01*
X47660604Y-135944613D01*
X47660604Y-135944614D01*
X47821985Y-136105995D01*
X48006633Y-136240150D01*
X48209995Y-136343769D01*
X48427055Y-136414295D01*
X48516600Y-136428478D01*
X48516600Y-135133012D01*
X48573607Y-135165925D01*
X48700774Y-135200000D01*
X48832426Y-135200000D01*
X48959593Y-135165925D01*
X49016600Y-135133012D01*
X49016600Y-136428478D01*
X49106144Y-136414295D01*
X49323204Y-136343769D01*
X49526566Y-136240150D01*
X49711214Y-136105995D01*
X49872595Y-135944614D01*
X49872600Y-135944608D01*
X49935973Y-135857383D01*
X49991302Y-135814717D01*
X50060916Y-135808738D01*
X50122711Y-135841343D01*
X50136603Y-135857375D01*
X50200221Y-135944937D01*
X50361663Y-136106379D01*
X50546372Y-136240579D01*
X50590013Y-136262815D01*
X50749796Y-136344229D01*
X50749798Y-136344229D01*
X50749801Y-136344231D01*
X50866192Y-136382049D01*
X50966939Y-136414784D01*
X51192438Y-136450500D01*
X51192443Y-136450500D01*
X51420762Y-136450500D01*
X51646260Y-136414784D01*
X51691760Y-136400000D01*
X51863399Y-136344231D01*
X52066828Y-136240579D01*
X52251537Y-136106379D01*
X52251540Y-136106375D01*
X52252634Y-136105581D01*
X52318440Y-136082101D01*
X52386494Y-136097926D01*
X52435189Y-136148031D01*
X52441702Y-136162566D01*
X52452802Y-136192328D01*
X52452806Y-136192335D01*
X52539052Y-136307544D01*
X52539055Y-136307547D01*
X52654264Y-136393793D01*
X52654271Y-136393797D01*
X52789117Y-136444091D01*
X52789116Y-136444091D01*
X52796044Y-136444835D01*
X52848727Y-136450500D01*
X54844472Y-136450499D01*
X54904083Y-136444091D01*
X55038931Y-136393796D01*
X55154146Y-136307546D01*
X55240396Y-136192331D01*
X55290691Y-136057483D01*
X55297100Y-135997873D01*
X55297099Y-133402128D01*
X55290691Y-133342517D01*
X55281466Y-133317784D01*
X55240397Y-133207671D01*
X55240393Y-133207664D01*
X55154147Y-133092455D01*
X55154144Y-133092452D01*
X55038935Y-133006206D01*
X55038928Y-133006202D01*
X54904082Y-132955908D01*
X54904083Y-132955908D01*
X54844483Y-132949501D01*
X54844481Y-132949500D01*
X54844473Y-132949500D01*
X54844464Y-132949500D01*
X52848729Y-132949500D01*
X52848723Y-132949501D01*
X52789116Y-132955908D01*
X52654271Y-133006202D01*
X52654264Y-133006206D01*
X52539055Y-133092452D01*
X52539052Y-133092455D01*
X52452806Y-133207664D01*
X52452803Y-133207669D01*
X52441702Y-133237434D01*
X52399830Y-133293367D01*
X52334366Y-133317784D01*
X52266093Y-133302932D01*
X52252634Y-133294418D01*
X52066828Y-133159421D01*
X51863403Y-133055770D01*
X51646260Y-132985215D01*
X51420762Y-132949500D01*
X51420757Y-132949500D01*
X51192443Y-132949500D01*
X51192438Y-132949500D01*
X50966939Y-132985215D01*
X50749796Y-133055770D01*
X50546371Y-133159421D01*
X50361661Y-133293622D01*
X50200222Y-133455061D01*
X50136609Y-133542617D01*
X50081278Y-133585282D01*
X50011665Y-133591261D01*
X49949870Y-133558655D01*
X49935973Y-133542616D01*
X49872600Y-133455391D01*
X49872595Y-133455385D01*
X49711214Y-133294004D01*
X49526566Y-133159849D01*
X49323202Y-133056229D01*
X49106141Y-132985703D01*
X49016600Y-132971521D01*
X49016600Y-134266988D01*
X48959593Y-134234075D01*
X48832426Y-134200000D01*
X48700774Y-134200000D01*
X48573607Y-134234075D01*
X48516600Y-134266988D01*
X48516600Y-132971521D01*
X48516599Y-132971521D01*
X48427058Y-132985703D01*
X48209997Y-133056229D01*
X48006633Y-133159849D01*
X47821985Y-133294004D01*
X47660603Y-133455386D01*
X47597226Y-133542617D01*
X47541895Y-133585283D01*
X47472282Y-133591261D01*
X47410487Y-133558655D01*
X47396590Y-133542616D01*
X47350289Y-133478889D01*
X47332979Y-133455063D01*
X47171537Y-133293621D01*
X46986828Y-133159421D01*
X46973561Y-133152661D01*
X46783403Y-133055770D01*
X46566260Y-132985215D01*
X46340762Y-132949500D01*
X46340757Y-132949500D01*
X46112443Y-132949500D01*
X46112438Y-132949500D01*
X45886939Y-132985215D01*
X45669796Y-133055770D01*
X45466371Y-133159421D01*
X45281661Y-133293622D01*
X45120222Y-133455061D01*
X44986021Y-133639771D01*
X44882370Y-133843196D01*
X44811815Y-134060339D01*
X44776100Y-134285837D01*
X40631100Y-134285837D01*
X40631100Y-128348400D01*
X42224059Y-128348400D01*
X42243375Y-128544529D01*
X42300588Y-128733133D01*
X42393486Y-128906932D01*
X42393490Y-128906939D01*
X42518516Y-129059283D01*
X42670860Y-129184309D01*
X42670867Y-129184313D01*
X42844666Y-129277211D01*
X42844669Y-129277211D01*
X42844673Y-129277214D01*
X43033268Y-129334424D01*
X43229400Y-129353741D01*
X43425532Y-129334424D01*
X43614127Y-129277214D01*
X43661047Y-129252135D01*
X43701032Y-129230762D01*
X43787938Y-129184310D01*
X43940283Y-129059283D01*
X44065310Y-128906938D01*
X44130889Y-128784248D01*
X44158211Y-128733133D01*
X44158211Y-128733132D01*
X44158214Y-128733127D01*
X44215424Y-128544532D01*
X44234741Y-128348400D01*
X44215424Y-128152268D01*
X44158214Y-127963673D01*
X44158211Y-127963669D01*
X44158211Y-127963666D01*
X44065313Y-127789867D01*
X44065309Y-127789860D01*
X43940283Y-127637516D01*
X43787939Y-127512490D01*
X43787932Y-127512486D01*
X43614133Y-127419588D01*
X43614127Y-127419586D01*
X43425532Y-127362376D01*
X43425529Y-127362375D01*
X43229400Y-127343059D01*
X43033270Y-127362375D01*
X42844666Y-127419588D01*
X42670867Y-127512486D01*
X42670860Y-127512490D01*
X42518516Y-127637516D01*
X42393490Y-127789860D01*
X42393486Y-127789867D01*
X42300588Y-127963666D01*
X42243375Y-128152270D01*
X42224059Y-128348400D01*
X40631100Y-128348400D01*
X40631100Y-120299998D01*
X44921132Y-120299998D01*
X44921132Y-120300001D01*
X44940964Y-120526686D01*
X44940966Y-120526697D01*
X44999858Y-120746488D01*
X44999861Y-120746497D01*
X45096031Y-120952732D01*
X45096032Y-120952734D01*
X45226554Y-121139141D01*
X45387458Y-121300045D01*
X45387461Y-121300047D01*
X45573866Y-121430568D01*
X45780104Y-121526739D01*
X45999908Y-121585635D01*
X46216673Y-121604599D01*
X46281741Y-121630051D01*
X46293546Y-121640446D01*
X47477136Y-122824035D01*
X47550177Y-122897076D01*
X47602566Y-122949465D01*
X47750046Y-123048009D01*
X47750059Y-123048016D01*
X47872963Y-123098923D01*
X47913934Y-123115894D01*
X47913936Y-123115894D01*
X47913941Y-123115896D01*
X48087904Y-123150499D01*
X48087907Y-123150500D01*
X48087909Y-123150500D01*
X74521889Y-123150500D01*
X74588928Y-123170185D01*
X74634683Y-123222989D01*
X74644627Y-123292147D01*
X74615602Y-123355703D01*
X74574294Y-123386882D01*
X74397267Y-123469431D01*
X74397265Y-123469432D01*
X74210858Y-123599954D01*
X74049954Y-123760858D01*
X73919432Y-123947265D01*
X73919431Y-123947267D01*
X73823261Y-124153502D01*
X73823258Y-124153511D01*
X73764366Y-124373302D01*
X73764364Y-124373313D01*
X73744532Y-124599998D01*
X73744532Y-124600004D01*
X73745817Y-124614695D01*
X73732050Y-124683194D01*
X73683434Y-124733377D01*
X73622289Y-124749500D01*
X63353391Y-124749500D01*
X63286352Y-124729815D01*
X63265710Y-124713181D01*
X63221003Y-124668474D01*
X63220999Y-124668471D01*
X63072933Y-124577142D01*
X63072927Y-124577139D01*
X63072925Y-124577138D01*
X63072922Y-124577137D01*
X62907776Y-124522413D01*
X62805855Y-124512000D01*
X62805848Y-124512000D01*
X61794152Y-124512000D01*
X61794144Y-124512000D01*
X61692223Y-124522413D01*
X61527077Y-124577137D01*
X61527066Y-124577142D01*
X61379000Y-124668471D01*
X61378996Y-124668474D01*
X61334290Y-124713181D01*
X61272967Y-124746666D01*
X61246609Y-124749500D01*
X60526663Y-124749500D01*
X60459624Y-124729815D01*
X60425088Y-124696623D01*
X60400045Y-124660858D01*
X60239141Y-124499954D01*
X60052734Y-124369432D01*
X60052732Y-124369431D01*
X59846497Y-124273261D01*
X59846488Y-124273258D01*
X59626697Y-124214366D01*
X59626693Y-124214365D01*
X59626692Y-124214365D01*
X59626691Y-124214364D01*
X59626686Y-124214364D01*
X59400002Y-124194532D01*
X59399998Y-124194532D01*
X59173313Y-124214364D01*
X59173302Y-124214366D01*
X58953511Y-124273258D01*
X58953502Y-124273261D01*
X58747267Y-124369431D01*
X58747265Y-124369432D01*
X58560858Y-124499954D01*
X58399954Y-124660858D01*
X58269432Y-124847265D01*
X58269431Y-124847267D01*
X58173261Y-125053502D01*
X58173258Y-125053511D01*
X58114366Y-125273302D01*
X58114364Y-125273313D01*
X58094532Y-125499998D01*
X58094532Y-125500001D01*
X58114364Y-125726686D01*
X58114366Y-125726697D01*
X58173258Y-125946488D01*
X58173261Y-125946497D01*
X58269431Y-126152732D01*
X58269432Y-126152734D01*
X58399954Y-126339141D01*
X58560858Y-126500045D01*
X58560861Y-126500047D01*
X58747266Y-126630568D01*
X58953504Y-126726739D01*
X59173308Y-126785635D01*
X59335230Y-126799801D01*
X59399998Y-126805468D01*
X59400000Y-126805468D01*
X59400002Y-126805468D01*
X59456673Y-126800509D01*
X59626692Y-126785635D01*
X59846496Y-126726739D01*
X60052734Y-126630568D01*
X60239139Y-126500047D01*
X60400047Y-126339139D01*
X60425088Y-126303377D01*
X60479665Y-126259752D01*
X60526663Y-126250500D01*
X61246609Y-126250500D01*
X61313648Y-126270185D01*
X61334290Y-126286819D01*
X61378996Y-126331525D01*
X61379000Y-126331528D01*
X61379703Y-126331962D01*
X61380083Y-126332385D01*
X61384664Y-126336007D01*
X61384045Y-126336789D01*
X61426428Y-126383910D01*
X61437649Y-126452872D01*
X61409806Y-126516954D01*
X61384544Y-126538842D01*
X61384664Y-126538993D01*
X61381315Y-126541640D01*
X61379703Y-126543038D01*
X61379000Y-126543471D01*
X61378996Y-126543474D01*
X61255974Y-126666496D01*
X61255971Y-126666500D01*
X61164642Y-126814566D01*
X61164637Y-126814577D01*
X61109913Y-126979723D01*
X61099500Y-127081644D01*
X61099500Y-127668355D01*
X61109913Y-127770276D01*
X61164637Y-127935422D01*
X61164642Y-127935433D01*
X61255971Y-128083499D01*
X61255974Y-128083503D01*
X61378996Y-128206525D01*
X61379000Y-128206528D01*
X61527066Y-128297857D01*
X61527069Y-128297858D01*
X61527075Y-128297862D01*
X61692225Y-128352587D01*
X61794152Y-128363000D01*
X61794157Y-128363000D01*
X62805843Y-128363000D01*
X62805848Y-128363000D01*
X62907775Y-128352587D01*
X63072925Y-128297862D01*
X63221003Y-128206526D01*
X63265710Y-128161819D01*
X63327033Y-128128334D01*
X63353391Y-128125500D01*
X63812770Y-128125500D01*
X63879809Y-128145185D01*
X63900451Y-128161819D01*
X63951304Y-128212672D01*
X63984789Y-128273995D01*
X63979805Y-128343687D01*
X63951305Y-128388034D01*
X63857682Y-128481657D01*
X63765643Y-128630875D01*
X63765641Y-128630880D01*
X63710494Y-128797302D01*
X63710493Y-128797309D01*
X63700000Y-128900013D01*
X63700000Y-129050000D01*
X66099999Y-129050000D01*
X66099999Y-128900028D01*
X66099998Y-128900013D01*
X66089505Y-128797302D01*
X66034358Y-128630880D01*
X66034356Y-128630875D01*
X65942315Y-128481654D01*
X65848695Y-128388034D01*
X65815210Y-128326711D01*
X65820194Y-128257019D01*
X65848691Y-128212676D01*
X65942712Y-128118656D01*
X66034814Y-127969334D01*
X66089999Y-127802797D01*
X66100500Y-127700009D01*
X66100499Y-126899992D01*
X66099617Y-126891362D01*
X66089999Y-126797203D01*
X66089998Y-126797200D01*
X66079118Y-126764366D01*
X66034814Y-126630666D01*
X65942712Y-126481344D01*
X65923549Y-126462181D01*
X65890064Y-126400858D01*
X65895048Y-126331166D01*
X65936920Y-126275233D01*
X66002384Y-126250816D01*
X66011230Y-126250500D01*
X74223920Y-126250500D01*
X74321462Y-126231096D01*
X74368913Y-126221658D01*
X74505495Y-126165084D01*
X74558277Y-126129816D01*
X74628416Y-126082952D01*
X74784651Y-125926715D01*
X74845972Y-125893231D01*
X74883135Y-125890869D01*
X75026366Y-125903400D01*
X75049999Y-125905468D01*
X75050000Y-125905468D01*
X75050002Y-125905468D01*
X75106673Y-125900509D01*
X75276692Y-125885635D01*
X75496496Y-125826739D01*
X75702734Y-125730568D01*
X75889139Y-125600047D01*
X76050047Y-125439139D01*
X76180568Y-125252734D01*
X76276739Y-125046496D01*
X76322708Y-124874936D01*
X76359072Y-124815278D01*
X76421918Y-124784748D01*
X76491294Y-124793042D01*
X76530163Y-124819350D01*
X76610858Y-124900045D01*
X76648891Y-124926676D01*
X76797266Y-125030568D01*
X77003504Y-125126739D01*
X77223308Y-125185635D01*
X77385230Y-125199801D01*
X77449998Y-125205468D01*
X77450000Y-125205468D01*
X77450002Y-125205468D01*
X77506673Y-125200509D01*
X77676692Y-125185635D01*
X77896496Y-125126739D01*
X78102734Y-125030568D01*
X78289139Y-124900047D01*
X78450047Y-124739139D01*
X78580568Y-124552734D01*
X78658321Y-124385994D01*
X81068357Y-124385994D01*
X81068357Y-124386005D01*
X81088890Y-124633812D01*
X81088892Y-124633824D01*
X81149936Y-124874881D01*
X81249826Y-125102606D01*
X81385833Y-125310782D01*
X81411211Y-125338350D01*
X81554256Y-125493738D01*
X81750491Y-125646474D01*
X81969190Y-125764828D01*
X82204386Y-125845571D01*
X82449665Y-125886500D01*
X82698335Y-125886500D01*
X82943614Y-125845571D01*
X83178810Y-125764828D01*
X83397509Y-125646474D01*
X83593744Y-125493738D01*
X83762164Y-125310785D01*
X83898173Y-125102607D01*
X83960444Y-124960644D01*
X84005400Y-124907158D01*
X84072136Y-124886468D01*
X84139464Y-124905143D01*
X84186007Y-124957253D01*
X84187556Y-124960644D01*
X84249826Y-125102606D01*
X84385833Y-125310782D01*
X84411211Y-125338350D01*
X84554256Y-125493738D01*
X84750491Y-125646474D01*
X84969190Y-125764828D01*
X85204386Y-125845571D01*
X85449665Y-125886500D01*
X85698335Y-125886500D01*
X85943614Y-125845571D01*
X86178810Y-125764828D01*
X86397509Y-125646474D01*
X86593744Y-125493738D01*
X86762164Y-125310785D01*
X86898173Y-125102607D01*
X86998063Y-124874881D01*
X87059108Y-124633821D01*
X87060693Y-124614695D01*
X87079643Y-124386005D01*
X87079643Y-124385994D01*
X87059109Y-124138187D01*
X87059107Y-124138175D01*
X86998063Y-123897118D01*
X86898173Y-123669393D01*
X86762166Y-123461217D01*
X86740557Y-123437744D01*
X86593744Y-123278262D01*
X86397509Y-123125526D01*
X86397507Y-123125525D01*
X86397506Y-123125524D01*
X86178811Y-123007172D01*
X86178802Y-123007169D01*
X85943616Y-122926429D01*
X85698335Y-122885500D01*
X85449665Y-122885500D01*
X85204383Y-122926429D01*
X84969197Y-123007169D01*
X84969188Y-123007172D01*
X84750493Y-123125524D01*
X84554257Y-123278261D01*
X84385833Y-123461217D01*
X84249826Y-123669393D01*
X84187556Y-123811355D01*
X84142600Y-123864841D01*
X84075864Y-123885531D01*
X84008536Y-123866856D01*
X83961993Y-123814746D01*
X83960444Y-123811355D01*
X83898173Y-123669393D01*
X83762166Y-123461217D01*
X83740557Y-123437744D01*
X83593744Y-123278262D01*
X83397509Y-123125526D01*
X83397507Y-123125525D01*
X83397506Y-123125524D01*
X83178811Y-123007172D01*
X83178802Y-123007169D01*
X82943616Y-122926429D01*
X82698335Y-122885500D01*
X82449665Y-122885500D01*
X82204383Y-122926429D01*
X81969197Y-123007169D01*
X81969188Y-123007172D01*
X81750493Y-123125524D01*
X81554257Y-123278261D01*
X81385833Y-123461217D01*
X81249826Y-123669393D01*
X81149936Y-123897118D01*
X81088892Y-124138175D01*
X81088890Y-124138187D01*
X81068357Y-124385994D01*
X78658321Y-124385994D01*
X78676739Y-124346496D01*
X78735635Y-124126692D01*
X78755468Y-123900000D01*
X78755141Y-123896267D01*
X78748009Y-123814746D01*
X78735635Y-123673308D01*
X78676739Y-123453504D01*
X78580568Y-123247266D01*
X78450047Y-123060861D01*
X78450045Y-123060858D01*
X78289140Y-122899953D01*
X78285031Y-122897076D01*
X78241405Y-122842500D01*
X78234210Y-122773002D01*
X78265731Y-122710647D01*
X78325960Y-122675232D01*
X78356152Y-122671500D01*
X79000362Y-122671500D01*
X79225860Y-122635784D01*
X79442999Y-122565231D01*
X79646428Y-122461579D01*
X79831137Y-122327379D01*
X79992579Y-122165937D01*
X80126779Y-121981228D01*
X80230431Y-121777799D01*
X80300984Y-121560660D01*
X80336700Y-121335162D01*
X80336700Y-121106837D01*
X80300984Y-120881339D01*
X80242376Y-120700965D01*
X80230431Y-120664201D01*
X80230429Y-120664198D01*
X80230429Y-120664196D01*
X80155549Y-120517237D01*
X80126779Y-120460772D01*
X79992579Y-120276063D01*
X79831137Y-120114621D01*
X79743580Y-120051006D01*
X79700917Y-119995679D01*
X79694938Y-119926066D01*
X79727544Y-119864271D01*
X79743583Y-119850373D01*
X79830808Y-119787000D01*
X79830814Y-119786995D01*
X79992195Y-119625614D01*
X80126350Y-119440966D01*
X80229969Y-119237604D01*
X80300495Y-119020544D01*
X80314678Y-118931000D01*
X79019212Y-118931000D01*
X79052125Y-118873993D01*
X79086200Y-118746826D01*
X79086200Y-118615174D01*
X79052125Y-118488007D01*
X79019212Y-118431000D01*
X80314678Y-118431000D01*
X80300495Y-118341455D01*
X80229969Y-118124395D01*
X80126350Y-117921033D01*
X79992195Y-117736385D01*
X79830814Y-117575004D01*
X79743582Y-117511626D01*
X79700917Y-117456296D01*
X79694938Y-117386682D01*
X79727544Y-117324887D01*
X79743574Y-117310997D01*
X79831137Y-117247379D01*
X79992579Y-117085937D01*
X80126779Y-116901228D01*
X80230431Y-116697799D01*
X80300984Y-116480660D01*
X80336700Y-116255162D01*
X80336700Y-116026837D01*
X80300984Y-115801339D01*
X80230429Y-115584196D01*
X80126778Y-115380771D01*
X80089747Y-115329803D01*
X79992579Y-115196063D01*
X79992578Y-115196062D01*
X79991781Y-115194965D01*
X79968301Y-115129159D01*
X79984126Y-115061105D01*
X80034232Y-115012410D01*
X80048762Y-115005898D01*
X80078531Y-114994796D01*
X80193746Y-114908546D01*
X80279996Y-114793331D01*
X80330291Y-114658483D01*
X80336700Y-114598873D01*
X80336699Y-112603128D01*
X80330291Y-112543517D01*
X80287083Y-112427671D01*
X80279997Y-112408671D01*
X80279993Y-112408664D01*
X80193747Y-112293455D01*
X80193744Y-112293452D01*
X80078535Y-112207206D01*
X80078528Y-112207202D01*
X79943682Y-112156908D01*
X79943683Y-112156908D01*
X79884083Y-112150501D01*
X79884081Y-112150500D01*
X79884073Y-112150500D01*
X79884064Y-112150500D01*
X77288329Y-112150500D01*
X77288323Y-112150501D01*
X77228716Y-112156908D01*
X77093871Y-112207202D01*
X77093864Y-112207206D01*
X76978655Y-112293452D01*
X76978652Y-112293455D01*
X76892406Y-112408664D01*
X76892402Y-112408671D01*
X76842108Y-112543517D01*
X76835701Y-112603116D01*
X76835701Y-112603123D01*
X76835700Y-112603135D01*
X76835700Y-114598870D01*
X76835701Y-114598876D01*
X76842108Y-114658483D01*
X76892402Y-114793328D01*
X76892406Y-114793335D01*
X76978652Y-114908544D01*
X76978655Y-114908547D01*
X77093864Y-114994793D01*
X77093869Y-114994796D01*
X77123632Y-115005896D01*
X77179566Y-115047767D01*
X77203984Y-115113230D01*
X77189133Y-115181504D01*
X77180618Y-115194964D01*
X77045623Y-115380768D01*
X76941970Y-115584196D01*
X76871415Y-115801339D01*
X76835700Y-116026837D01*
X76835700Y-116255162D01*
X76871415Y-116480660D01*
X76941970Y-116697803D01*
X76984544Y-116781358D01*
X77045621Y-116901228D01*
X77179821Y-117085937D01*
X77341263Y-117247379D01*
X77428816Y-117310991D01*
X77471482Y-117366320D01*
X77477461Y-117435933D01*
X77444855Y-117497728D01*
X77428817Y-117511626D01*
X77341586Y-117575003D01*
X77180204Y-117736385D01*
X77046047Y-117921035D01*
X76959379Y-118091129D01*
X76911405Y-118141924D01*
X76843583Y-118158719D01*
X76777449Y-118136181D01*
X76761214Y-118122514D01*
X75763819Y-117125119D01*
X75730334Y-117063796D01*
X75727500Y-117037438D01*
X75727500Y-110357935D01*
X81204500Y-110357935D01*
X81204500Y-112353670D01*
X81204501Y-112353676D01*
X81210908Y-112413283D01*
X81261202Y-112548128D01*
X81261206Y-112548135D01*
X81347452Y-112663344D01*
X81347455Y-112663347D01*
X81462664Y-112749593D01*
X81462669Y-112749596D01*
X81492432Y-112760696D01*
X81548366Y-112802567D01*
X81572784Y-112868030D01*
X81557933Y-112936304D01*
X81549418Y-112949764D01*
X81414423Y-113135568D01*
X81310770Y-113338996D01*
X81240215Y-113556139D01*
X81204500Y-113781637D01*
X81204500Y-114009962D01*
X81240215Y-114235460D01*
X81310770Y-114452603D01*
X81394985Y-114617883D01*
X81414421Y-114656028D01*
X81548621Y-114840737D01*
X81710063Y-115002179D01*
X81797616Y-115065791D01*
X81840282Y-115121120D01*
X81846261Y-115190733D01*
X81813655Y-115252528D01*
X81797617Y-115266426D01*
X81710386Y-115329803D01*
X81549004Y-115491185D01*
X81414849Y-115675833D01*
X81311230Y-115879195D01*
X81240704Y-116096255D01*
X81226522Y-116185800D01*
X82521988Y-116185800D01*
X82489075Y-116242807D01*
X82455000Y-116369974D01*
X82455000Y-116501626D01*
X82489075Y-116628793D01*
X82521988Y-116685800D01*
X81226522Y-116685800D01*
X81240704Y-116775344D01*
X81311230Y-116992404D01*
X81414849Y-117195766D01*
X81549004Y-117380414D01*
X81710385Y-117541795D01*
X81710391Y-117541800D01*
X81797616Y-117605173D01*
X81840282Y-117660503D01*
X81846261Y-117730116D01*
X81813655Y-117791911D01*
X81797617Y-117805809D01*
X81710061Y-117869422D01*
X81548622Y-118030861D01*
X81414421Y-118215571D01*
X81310770Y-118418996D01*
X81240215Y-118636139D01*
X81204500Y-118861637D01*
X81204500Y-119089962D01*
X81240215Y-119315460D01*
X81310770Y-119532603D01*
X81392713Y-119693424D01*
X81414421Y-119736028D01*
X81548621Y-119920737D01*
X81710063Y-120082179D01*
X81894772Y-120216379D01*
X81958759Y-120248982D01*
X82098196Y-120320029D01*
X82098198Y-120320029D01*
X82098201Y-120320031D01*
X82202159Y-120353809D01*
X82315339Y-120390584D01*
X82540838Y-120426300D01*
X82540843Y-120426300D01*
X83369162Y-120426300D01*
X83594660Y-120390584D01*
X83599107Y-120389139D01*
X83811799Y-120320031D01*
X84015228Y-120216379D01*
X84199937Y-120082179D01*
X84361379Y-119920737D01*
X84495579Y-119736028D01*
X84599231Y-119532599D01*
X84669784Y-119315460D01*
X84675707Y-119278064D01*
X84705500Y-119089962D01*
X84705500Y-118861637D01*
X84675305Y-118670998D01*
X87237532Y-118670998D01*
X87237532Y-118671001D01*
X87257364Y-118897686D01*
X87257366Y-118897697D01*
X87316258Y-119117488D01*
X87316261Y-119117497D01*
X87412431Y-119323732D01*
X87412432Y-119323734D01*
X87542954Y-119510141D01*
X87703858Y-119671045D01*
X87703861Y-119671047D01*
X87890266Y-119801568D01*
X88096504Y-119897739D01*
X88316308Y-119956635D01*
X88478230Y-119970801D01*
X88542998Y-119976468D01*
X88543000Y-119976468D01*
X88543002Y-119976468D01*
X88599673Y-119971509D01*
X88769692Y-119956635D01*
X88989496Y-119897739D01*
X89195734Y-119801568D01*
X89382139Y-119671047D01*
X89543047Y-119510139D01*
X89673568Y-119323734D01*
X89769739Y-119117496D01*
X89828635Y-118897692D01*
X89848468Y-118671000D01*
X89833869Y-118504137D01*
X89847635Y-118435639D01*
X89869713Y-118405653D01*
X90200548Y-118074819D01*
X90261871Y-118041334D01*
X90288229Y-118038500D01*
X90721448Y-118038500D01*
X90788487Y-118058185D01*
X90809129Y-118074819D01*
X90809629Y-118075319D01*
X90843114Y-118136642D01*
X90838130Y-118206334D01*
X90809629Y-118250681D01*
X90770661Y-118289648D01*
X90680093Y-118436481D01*
X90680091Y-118436486D01*
X90663034Y-118487961D01*
X90625826Y-118600247D01*
X90625826Y-118600248D01*
X90625825Y-118600248D01*
X90615500Y-118701315D01*
X90615500Y-119374669D01*
X90615501Y-119374687D01*
X90625825Y-119475752D01*
X90642070Y-119524775D01*
X90678102Y-119633512D01*
X90680092Y-119639515D01*
X90680093Y-119639518D01*
X90684872Y-119647266D01*
X90764699Y-119776686D01*
X90770661Y-119786351D01*
X90804181Y-119819871D01*
X90837666Y-119881194D01*
X90840500Y-119907552D01*
X90840500Y-120211336D01*
X90820815Y-120278375D01*
X90787625Y-120312910D01*
X90751863Y-120337951D01*
X90590951Y-120498862D01*
X90460432Y-120685265D01*
X90460431Y-120685267D01*
X90364261Y-120891502D01*
X90364258Y-120891511D01*
X90305366Y-121111302D01*
X90305364Y-121111313D01*
X90285532Y-121337998D01*
X90285532Y-121338001D01*
X90305364Y-121564686D01*
X90305366Y-121564697D01*
X90364258Y-121784488D01*
X90364261Y-121784497D01*
X90460431Y-121990732D01*
X90460432Y-121990734D01*
X90590954Y-122177141D01*
X90751858Y-122338045D01*
X90765340Y-122347485D01*
X90938266Y-122468568D01*
X91144504Y-122564739D01*
X91144509Y-122564740D01*
X91144511Y-122564741D01*
X91146340Y-122565231D01*
X91364308Y-122623635D01*
X91503172Y-122635784D01*
X91590998Y-122643468D01*
X91591000Y-122643468D01*
X91591002Y-122643468D01*
X91647673Y-122638509D01*
X91817692Y-122623635D01*
X92037496Y-122564739D01*
X92243734Y-122468568D01*
X92430139Y-122338047D01*
X92591047Y-122177139D01*
X92721568Y-121990734D01*
X92817739Y-121784496D01*
X92876635Y-121564692D01*
X92896468Y-121338000D01*
X92876635Y-121111308D01*
X92817739Y-120891504D01*
X92721568Y-120685266D01*
X92648256Y-120580565D01*
X92591048Y-120498862D01*
X92518486Y-120426300D01*
X92430139Y-120337953D01*
X92425373Y-120334615D01*
X92394375Y-120312910D01*
X92350751Y-120258332D01*
X92341500Y-120211336D01*
X92341500Y-119907552D01*
X92361185Y-119840513D01*
X92377819Y-119819871D01*
X92391474Y-119806216D01*
X92411340Y-119786350D01*
X92501908Y-119639516D01*
X92556174Y-119475753D01*
X92566500Y-119374677D01*
X92566499Y-118701324D01*
X92563401Y-118671000D01*
X92556174Y-118600247D01*
X92553868Y-118593289D01*
X92501908Y-118436484D01*
X92411340Y-118289650D01*
X92372371Y-118250681D01*
X92338886Y-118189358D01*
X92343870Y-118119666D01*
X92372371Y-118075319D01*
X92391278Y-118056412D01*
X92411340Y-118036350D01*
X92501908Y-117889516D01*
X92556174Y-117725753D01*
X92566500Y-117624677D01*
X92566499Y-116951324D01*
X92561432Y-116901725D01*
X92556174Y-116850247D01*
X92501908Y-116686484D01*
X92411340Y-116539650D01*
X92289350Y-116417660D01*
X92142516Y-116327092D01*
X91978753Y-116272826D01*
X91978751Y-116272825D01*
X91877678Y-116262500D01*
X91304330Y-116262500D01*
X91304312Y-116262501D01*
X91203247Y-116272825D01*
X91039484Y-116327092D01*
X91039481Y-116327093D01*
X90892648Y-116417661D01*
X90809129Y-116501181D01*
X90747806Y-116534666D01*
X90721448Y-116537500D01*
X89852080Y-116537500D01*
X89707092Y-116566340D01*
X89707082Y-116566343D01*
X89570511Y-116622912D01*
X89570498Y-116622919D01*
X89447584Y-116705048D01*
X89447580Y-116705051D01*
X88808348Y-117344282D01*
X88747025Y-117377767D01*
X88709861Y-117380129D01*
X88543003Y-117365532D01*
X88542998Y-117365532D01*
X88316313Y-117385364D01*
X88316302Y-117385366D01*
X88096511Y-117444258D01*
X88096502Y-117444261D01*
X87890267Y-117540431D01*
X87890265Y-117540432D01*
X87703858Y-117670954D01*
X87542954Y-117831858D01*
X87412432Y-118018265D01*
X87412431Y-118018267D01*
X87316261Y-118224502D01*
X87316258Y-118224511D01*
X87257366Y-118444302D01*
X87257364Y-118444313D01*
X87237532Y-118670998D01*
X84675305Y-118670998D01*
X84669784Y-118636139D01*
X84621652Y-118488007D01*
X84599231Y-118419001D01*
X84599229Y-118418998D01*
X84599229Y-118418996D01*
X84544550Y-118311684D01*
X84495579Y-118215572D01*
X84361379Y-118030863D01*
X84199937Y-117869421D01*
X84112380Y-117805806D01*
X84069717Y-117750479D01*
X84063738Y-117680866D01*
X84096344Y-117619071D01*
X84112383Y-117605173D01*
X84199608Y-117541800D01*
X84199614Y-117541795D01*
X84360995Y-117380414D01*
X84495150Y-117195766D01*
X84598769Y-116992404D01*
X84669295Y-116775344D01*
X84683478Y-116685800D01*
X83388012Y-116685800D01*
X83420925Y-116628793D01*
X83455000Y-116501626D01*
X83455000Y-116369974D01*
X83420925Y-116242807D01*
X83388012Y-116185800D01*
X84683478Y-116185800D01*
X84669295Y-116096255D01*
X84598769Y-115879195D01*
X84495150Y-115675833D01*
X84360995Y-115491185D01*
X84199614Y-115329804D01*
X84112382Y-115266426D01*
X84069717Y-115211096D01*
X84063738Y-115141482D01*
X84077712Y-115114998D01*
X86343132Y-115114998D01*
X86343132Y-115115001D01*
X86362964Y-115341686D01*
X86362966Y-115341697D01*
X86421858Y-115561488D01*
X86421861Y-115561497D01*
X86518031Y-115767732D01*
X86518032Y-115767734D01*
X86648554Y-115954141D01*
X86809458Y-116115045D01*
X86856293Y-116147839D01*
X86995866Y-116245568D01*
X87202104Y-116341739D01*
X87421908Y-116400635D01*
X87583830Y-116414801D01*
X87648598Y-116420468D01*
X87648600Y-116420468D01*
X87648602Y-116420468D01*
X87705273Y-116415509D01*
X87875292Y-116400635D01*
X88095096Y-116341739D01*
X88301334Y-116245568D01*
X88487739Y-116115047D01*
X88648647Y-115954139D01*
X88673688Y-115918377D01*
X88728265Y-115874752D01*
X88775263Y-115865500D01*
X93881770Y-115865500D01*
X93948809Y-115885185D01*
X93969451Y-115901819D01*
X95405181Y-117337549D01*
X95438666Y-117398872D01*
X95441500Y-117425229D01*
X95441500Y-117624668D01*
X95441501Y-117624687D01*
X95451825Y-117725752D01*
X95478354Y-117805809D01*
X95499433Y-117869422D01*
X95506092Y-117889515D01*
X95506093Y-117889518D01*
X95533290Y-117933611D01*
X95593274Y-118030861D01*
X95596661Y-118036351D01*
X95635629Y-118075319D01*
X95669114Y-118136642D01*
X95664130Y-118206334D01*
X95635629Y-118250681D01*
X95596661Y-118289648D01*
X95506093Y-118436481D01*
X95506091Y-118436486D01*
X95489034Y-118487961D01*
X95451826Y-118600247D01*
X95451826Y-118600248D01*
X95451825Y-118600248D01*
X95441500Y-118701315D01*
X95441500Y-119374669D01*
X95441501Y-119374687D01*
X95451825Y-119475752D01*
X95468070Y-119524775D01*
X95504102Y-119633512D01*
X95506092Y-119639515D01*
X95506093Y-119639518D01*
X95510872Y-119647266D01*
X95590699Y-119776686D01*
X95596661Y-119786351D01*
X95630181Y-119819871D01*
X95663666Y-119881194D01*
X95666500Y-119907552D01*
X95666500Y-120211336D01*
X95646815Y-120278375D01*
X95613625Y-120312910D01*
X95577863Y-120337951D01*
X95416951Y-120498862D01*
X95286432Y-120685265D01*
X95286431Y-120685267D01*
X95190261Y-120891502D01*
X95190258Y-120891511D01*
X95131366Y-121111302D01*
X95131364Y-121111313D01*
X95111532Y-121337998D01*
X95111532Y-121338001D01*
X95131364Y-121564686D01*
X95131366Y-121564697D01*
X95190258Y-121784488D01*
X95190261Y-121784497D01*
X95286431Y-121990732D01*
X95286432Y-121990734D01*
X95416954Y-122177141D01*
X95577858Y-122338045D01*
X95591340Y-122347485D01*
X95764266Y-122468568D01*
X95970504Y-122564739D01*
X95970509Y-122564740D01*
X95970511Y-122564741D01*
X95972340Y-122565231D01*
X96190308Y-122623635D01*
X96329172Y-122635784D01*
X96416998Y-122643468D01*
X96417000Y-122643468D01*
X96417002Y-122643468D01*
X96473673Y-122638509D01*
X96643692Y-122623635D01*
X96863496Y-122564739D01*
X97069734Y-122468568D01*
X97256139Y-122338047D01*
X97417047Y-122177139D01*
X97547568Y-121990734D01*
X97643739Y-121784496D01*
X97702635Y-121564692D01*
X97722468Y-121338000D01*
X97702635Y-121111308D01*
X97643739Y-120891504D01*
X97547568Y-120685266D01*
X97474256Y-120580565D01*
X97417048Y-120498862D01*
X97344486Y-120426300D01*
X97256139Y-120337953D01*
X97251373Y-120334615D01*
X97220375Y-120312910D01*
X97176751Y-120258332D01*
X97167500Y-120211336D01*
X97167500Y-119907552D01*
X97187185Y-119840513D01*
X97203819Y-119819871D01*
X97217474Y-119806216D01*
X97237340Y-119786350D01*
X97327908Y-119639516D01*
X97382174Y-119475753D01*
X97392500Y-119374677D01*
X97392499Y-118701324D01*
X97389401Y-118671000D01*
X97382174Y-118600247D01*
X97379868Y-118593289D01*
X97327908Y-118436484D01*
X97237340Y-118289650D01*
X97198371Y-118250681D01*
X97164886Y-118189358D01*
X97169870Y-118119666D01*
X97198371Y-118075319D01*
X97217278Y-118056412D01*
X97237340Y-118036350D01*
X97327908Y-117889516D01*
X97382174Y-117725753D01*
X97392500Y-117624677D01*
X97392500Y-117441711D01*
X99586500Y-117441711D01*
X99586500Y-117684288D01*
X99618161Y-117924785D01*
X99680947Y-118159104D01*
X99756480Y-118341455D01*
X99773776Y-118383212D01*
X99895064Y-118593289D01*
X99895066Y-118593292D01*
X99895067Y-118593293D01*
X100042733Y-118785736D01*
X100042739Y-118785743D01*
X100214256Y-118957260D01*
X100214262Y-118957265D01*
X100406711Y-119104936D01*
X100616788Y-119226224D01*
X100840900Y-119319054D01*
X101075211Y-119381838D01*
X101255586Y-119405584D01*
X101315711Y-119413500D01*
X101315712Y-119413500D01*
X103358289Y-119413500D01*
X103409803Y-119406718D01*
X103598789Y-119381838D01*
X103833100Y-119319054D01*
X104057212Y-119226224D01*
X104267289Y-119104936D01*
X104459738Y-118957265D01*
X104631265Y-118785738D01*
X104778936Y-118593289D01*
X104900224Y-118383212D01*
X104993054Y-118159100D01*
X105055838Y-117924789D01*
X105087500Y-117684288D01*
X105087500Y-117441712D01*
X105055838Y-117201211D01*
X104993054Y-116966900D01*
X104900224Y-116742788D01*
X104778936Y-116532711D01*
X104690655Y-116417661D01*
X104631266Y-116340263D01*
X104631260Y-116340256D01*
X104459743Y-116168739D01*
X104459736Y-116168733D01*
X104267293Y-116021067D01*
X104267292Y-116021066D01*
X104267289Y-116021064D01*
X104057212Y-115899776D01*
X104057205Y-115899773D01*
X103833104Y-115806947D01*
X103598785Y-115744161D01*
X103358289Y-115712500D01*
X103358288Y-115712500D01*
X101315712Y-115712500D01*
X101315711Y-115712500D01*
X101075214Y-115744161D01*
X100840895Y-115806947D01*
X100616794Y-115899773D01*
X100616785Y-115899777D01*
X100406706Y-116021067D01*
X100214263Y-116168733D01*
X100214256Y-116168739D01*
X100042739Y-116340256D01*
X100042733Y-116340263D01*
X99895067Y-116532706D01*
X99773777Y-116742785D01*
X99773773Y-116742794D01*
X99680947Y-116966895D01*
X99618161Y-117201214D01*
X99586500Y-117441711D01*
X97392500Y-117441711D01*
X97392499Y-116951324D01*
X97387432Y-116901725D01*
X97382174Y-116850247D01*
X97327908Y-116686484D01*
X97237340Y-116539650D01*
X97115350Y-116417660D01*
X96968516Y-116327092D01*
X96804753Y-116272826D01*
X96804751Y-116272825D01*
X96703684Y-116262500D01*
X96703677Y-116262500D01*
X96504230Y-116262500D01*
X96437191Y-116242815D01*
X96416549Y-116226181D01*
X94722421Y-114532052D01*
X94722414Y-114532046D01*
X94648729Y-114482812D01*
X94648729Y-114482813D01*
X94599491Y-114449913D01*
X94462917Y-114393343D01*
X94462907Y-114393340D01*
X94317920Y-114364500D01*
X94317918Y-114364500D01*
X88775263Y-114364500D01*
X88708224Y-114344815D01*
X88673688Y-114311623D01*
X88648645Y-114275858D01*
X88487741Y-114114954D01*
X88301334Y-113984432D01*
X88301332Y-113984431D01*
X88095097Y-113888261D01*
X88095088Y-113888258D01*
X87875297Y-113829366D01*
X87875293Y-113829365D01*
X87875292Y-113829365D01*
X87875291Y-113829364D01*
X87875286Y-113829364D01*
X87648602Y-113809532D01*
X87648598Y-113809532D01*
X87421913Y-113829364D01*
X87421902Y-113829366D01*
X87202111Y-113888258D01*
X87202102Y-113888261D01*
X86995867Y-113984431D01*
X86995865Y-113984432D01*
X86809458Y-114114954D01*
X86648554Y-114275858D01*
X86518032Y-114462265D01*
X86518031Y-114462267D01*
X86421861Y-114668502D01*
X86421858Y-114668511D01*
X86362966Y-114888302D01*
X86362964Y-114888313D01*
X86343132Y-115114998D01*
X84077712Y-115114998D01*
X84096344Y-115079687D01*
X84112374Y-115065797D01*
X84199937Y-115002179D01*
X84361379Y-114840737D01*
X84495579Y-114656028D01*
X84599231Y-114452599D01*
X84669784Y-114235460D01*
X84705500Y-114009962D01*
X84705500Y-113781637D01*
X84669784Y-113556139D01*
X84599229Y-113338996D01*
X84495578Y-113135571D01*
X84360581Y-112949765D01*
X84337101Y-112883959D01*
X84352926Y-112815905D01*
X84403032Y-112767210D01*
X84417562Y-112760698D01*
X84447331Y-112749596D01*
X84562546Y-112663346D01*
X84648796Y-112548131D01*
X84699091Y-112413283D01*
X84705500Y-112353673D01*
X84705499Y-110357928D01*
X84699091Y-110298317D01*
X84670154Y-110220734D01*
X84648797Y-110163471D01*
X84648793Y-110163464D01*
X84562547Y-110048255D01*
X84562544Y-110048252D01*
X84447335Y-109962006D01*
X84447328Y-109962002D01*
X84312482Y-109911708D01*
X84312483Y-109911708D01*
X84252883Y-109905301D01*
X84252881Y-109905300D01*
X84252873Y-109905300D01*
X84252864Y-109905300D01*
X81657129Y-109905300D01*
X81657123Y-109905301D01*
X81597516Y-109911708D01*
X81462671Y-109962002D01*
X81462664Y-109962006D01*
X81347455Y-110048252D01*
X81347452Y-110048255D01*
X81261206Y-110163464D01*
X81261202Y-110163471D01*
X81210908Y-110298317D01*
X81204501Y-110357916D01*
X81204501Y-110357923D01*
X81204500Y-110357935D01*
X75727500Y-110357935D01*
X75727500Y-107757500D01*
X75747185Y-107690461D01*
X75799989Y-107644706D01*
X75851500Y-107633500D01*
X96378693Y-107633500D01*
X96378694Y-107633499D01*
X96552666Y-107598895D01*
X96634606Y-107564953D01*
X96716547Y-107531013D01*
X96824637Y-107458789D01*
X96864036Y-107432464D01*
X96985054Y-107311444D01*
X97046375Y-107277961D01*
X97061919Y-107275600D01*
X97278692Y-107256635D01*
X97498496Y-107197739D01*
X97704734Y-107101568D01*
X97891139Y-106971047D01*
X98052047Y-106810139D01*
X98182568Y-106623734D01*
X98278739Y-106417496D01*
X98337635Y-106197692D01*
X98357468Y-105971000D01*
X98337635Y-105744308D01*
X98292916Y-105577415D01*
X98278741Y-105524511D01*
X98278738Y-105524502D01*
X98242768Y-105447364D01*
X98182568Y-105318266D01*
X98069091Y-105156203D01*
X98052045Y-105131858D01*
X97891141Y-104970954D01*
X97704734Y-104840432D01*
X97704732Y-104840431D01*
X97498497Y-104744261D01*
X97498488Y-104744258D01*
X97278697Y-104685366D01*
X97278693Y-104685365D01*
X97278692Y-104685365D01*
X97278691Y-104685364D01*
X97278686Y-104685364D01*
X97052002Y-104665532D01*
X97051998Y-104665532D01*
X96825313Y-104685364D01*
X96825302Y-104685366D01*
X96605511Y-104744258D01*
X96605502Y-104744261D01*
X96399267Y-104840431D01*
X96399265Y-104840432D01*
X96212858Y-104970954D01*
X96051954Y-105131858D01*
X95921432Y-105318265D01*
X95921431Y-105318267D01*
X95825261Y-105524502D01*
X95825258Y-105524511D01*
X95804380Y-105602432D01*
X95767359Y-105740594D01*
X95730996Y-105800254D01*
X95668150Y-105830783D01*
X95647586Y-105832500D01*
X67435048Y-105832500D01*
X67368009Y-105812815D01*
X67347371Y-105796185D01*
X67284139Y-105732953D01*
X67284138Y-105732952D01*
X67284137Y-105732951D01*
X67097734Y-105602432D01*
X67097732Y-105602431D01*
X66891497Y-105506261D01*
X66891488Y-105506258D01*
X66671697Y-105447366D01*
X66671693Y-105447365D01*
X66671692Y-105447365D01*
X66671691Y-105447364D01*
X66671686Y-105447364D01*
X66445002Y-105427532D01*
X66444998Y-105427532D01*
X66218313Y-105447364D01*
X66218302Y-105447366D01*
X66101593Y-105478638D01*
X66031743Y-105476975D01*
X65973881Y-105437812D01*
X65946377Y-105373583D01*
X65945500Y-105358863D01*
X65945500Y-103544998D01*
X69216532Y-103544998D01*
X69216532Y-103545001D01*
X69236364Y-103771686D01*
X69236366Y-103771697D01*
X69295258Y-103991488D01*
X69295261Y-103991497D01*
X69391431Y-104197732D01*
X69391432Y-104197734D01*
X69521954Y-104384141D01*
X69682858Y-104545045D01*
X69729693Y-104577839D01*
X69869266Y-104675568D01*
X70075504Y-104771739D01*
X70295308Y-104830635D01*
X70457230Y-104844801D01*
X70521998Y-104850468D01*
X70522000Y-104850468D01*
X70522002Y-104850468D01*
X70578673Y-104845509D01*
X70748692Y-104830635D01*
X70968496Y-104771739D01*
X71174734Y-104675568D01*
X71361139Y-104545047D01*
X71522047Y-104384139D01*
X71652568Y-104197734D01*
X71748739Y-103991496D01*
X71807635Y-103771692D01*
X71827468Y-103545000D01*
X71818557Y-103443159D01*
X71832323Y-103374663D01*
X71854405Y-103344671D01*
X71867666Y-103331412D01*
X71928992Y-103297932D01*
X71955341Y-103295100D01*
X96054158Y-103295100D01*
X96121197Y-103314785D01*
X96155732Y-103347976D01*
X96159969Y-103354027D01*
X96178955Y-103381142D01*
X96339858Y-103542045D01*
X96344078Y-103545000D01*
X96526266Y-103672568D01*
X96732504Y-103768739D01*
X96732509Y-103768740D01*
X96732511Y-103768741D01*
X96743543Y-103771697D01*
X96952308Y-103827635D01*
X97114230Y-103841801D01*
X97178998Y-103847468D01*
X97179000Y-103847468D01*
X97179002Y-103847468D01*
X97235673Y-103842509D01*
X97405692Y-103827635D01*
X97625496Y-103768739D01*
X97831734Y-103672568D01*
X98018139Y-103542047D01*
X98179047Y-103381139D01*
X98309568Y-103194734D01*
X98405739Y-102988496D01*
X98464635Y-102768692D01*
X98484468Y-102542000D01*
X98482957Y-102524734D01*
X98464635Y-102315313D01*
X98464635Y-102315308D01*
X98405739Y-102095504D01*
X98309568Y-101889266D01*
X98179047Y-101702861D01*
X98179045Y-101702858D01*
X98018141Y-101541954D01*
X97831734Y-101411432D01*
X97831732Y-101411431D01*
X97625497Y-101315261D01*
X97625488Y-101315258D01*
X97405697Y-101256366D01*
X97405693Y-101256365D01*
X97405692Y-101256365D01*
X97405691Y-101256364D01*
X97405686Y-101256364D01*
X97179002Y-101236532D01*
X97178998Y-101236532D01*
X96952313Y-101256364D01*
X96952302Y-101256366D01*
X96732511Y-101315258D01*
X96732502Y-101315261D01*
X96526267Y-101411431D01*
X96526265Y-101411432D01*
X96339862Y-101541951D01*
X96281948Y-101599866D01*
X96224031Y-101657782D01*
X96162711Y-101691266D01*
X96136352Y-101694100D01*
X93981137Y-101694100D01*
X93914098Y-101674415D01*
X93868343Y-101621611D01*
X93858399Y-101552453D01*
X93861362Y-101538007D01*
X93875263Y-101486124D01*
X93892635Y-101421292D01*
X93912468Y-101194600D01*
X93892635Y-100967908D01*
X93833739Y-100748104D01*
X93737568Y-100541866D01*
X93620319Y-100374415D01*
X93607045Y-100355458D01*
X93446141Y-100194554D01*
X93259734Y-100064032D01*
X93259732Y-100064031D01*
X93053497Y-99967861D01*
X93053488Y-99967858D01*
X92833697Y-99908966D01*
X92833693Y-99908965D01*
X92833692Y-99908965D01*
X92833691Y-99908964D01*
X92833686Y-99908964D01*
X92607002Y-99889132D01*
X92606998Y-99889132D01*
X92380313Y-99908964D01*
X92380302Y-99908966D01*
X92160511Y-99967858D01*
X92160502Y-99967861D01*
X91954267Y-100064031D01*
X91954265Y-100064032D01*
X91767858Y-100194554D01*
X91604632Y-100357781D01*
X91543309Y-100391266D01*
X91516951Y-100394100D01*
X73422049Y-100394100D01*
X73355010Y-100374415D01*
X73334368Y-100357781D01*
X73171141Y-100194554D01*
X72984734Y-100064032D01*
X72984732Y-100064031D01*
X72778497Y-99967861D01*
X72778488Y-99967858D01*
X72558697Y-99908966D01*
X72558693Y-99908965D01*
X72558692Y-99908965D01*
X72558691Y-99908964D01*
X72558686Y-99908964D01*
X72332002Y-99889132D01*
X72331998Y-99889132D01*
X72105313Y-99908964D01*
X72105302Y-99908966D01*
X71885511Y-99967858D01*
X71885502Y-99967861D01*
X71679267Y-100064031D01*
X71679265Y-100064032D01*
X71492858Y-100194554D01*
X71331954Y-100355458D01*
X71201432Y-100541865D01*
X71201431Y-100541867D01*
X71105261Y-100748102D01*
X71105258Y-100748111D01*
X71046366Y-100967902D01*
X71046364Y-100967913D01*
X71026532Y-101194598D01*
X71026532Y-101194601D01*
X71046364Y-101421286D01*
X71046366Y-101421297D01*
X71105258Y-101641088D01*
X71105263Y-101641102D01*
X71132436Y-101699374D01*
X71142928Y-101768451D01*
X71114408Y-101832235D01*
X71088946Y-101854879D01*
X71062114Y-101872808D01*
X71062107Y-101872813D01*
X70722326Y-102212594D01*
X70661003Y-102246079D01*
X70623838Y-102248441D01*
X70522002Y-102239532D01*
X70521998Y-102239532D01*
X70295313Y-102259364D01*
X70295302Y-102259366D01*
X70075511Y-102318258D01*
X70075502Y-102318261D01*
X69869267Y-102414431D01*
X69869265Y-102414432D01*
X69682858Y-102544954D01*
X69521954Y-102705858D01*
X69391432Y-102892265D01*
X69391431Y-102892267D01*
X69295261Y-103098502D01*
X69295258Y-103098511D01*
X69236366Y-103318302D01*
X69236364Y-103318313D01*
X69216532Y-103544998D01*
X65945500Y-103544998D01*
X65945500Y-103529462D01*
X65965185Y-103462423D01*
X65981819Y-103441781D01*
X70818602Y-98604998D01*
X75172532Y-98604998D01*
X75172532Y-98605001D01*
X75192364Y-98831686D01*
X75192366Y-98831697D01*
X75251258Y-99051488D01*
X75251261Y-99051497D01*
X75347431Y-99257732D01*
X75347432Y-99257734D01*
X75477954Y-99444141D01*
X75638858Y-99605045D01*
X75638861Y-99605047D01*
X75825266Y-99735568D01*
X76031504Y-99831739D01*
X76251308Y-99890635D01*
X76413230Y-99904801D01*
X76477998Y-99910468D01*
X76478000Y-99910468D01*
X76478002Y-99910468D01*
X76534673Y-99905509D01*
X76704692Y-99890635D01*
X76924496Y-99831739D01*
X77130734Y-99735568D01*
X77317139Y-99605047D01*
X77317141Y-99605045D01*
X77480368Y-99441819D01*
X77541691Y-99408334D01*
X77568049Y-99405500D01*
X97530164Y-99405500D01*
X97597203Y-99425185D01*
X97642958Y-99477989D01*
X97653692Y-99518692D01*
X97671364Y-99720687D01*
X97671366Y-99720697D01*
X97730258Y-99940488D01*
X97730261Y-99940497D01*
X97826431Y-100146732D01*
X97826432Y-100146734D01*
X97956954Y-100333141D01*
X98117858Y-100494045D01*
X98117861Y-100494047D01*
X98304266Y-100624568D01*
X98510504Y-100720739D01*
X98730308Y-100779635D01*
X98892230Y-100793801D01*
X98956998Y-100799468D01*
X98957000Y-100799468D01*
X98957002Y-100799468D01*
X99013673Y-100794509D01*
X99183692Y-100779635D01*
X99403496Y-100720739D01*
X99609734Y-100624568D01*
X99796139Y-100494047D01*
X99957047Y-100333139D01*
X100087568Y-100146734D01*
X100183739Y-99940496D01*
X100242635Y-99720692D01*
X100262468Y-99494000D01*
X100242635Y-99267308D01*
X100183739Y-99047504D01*
X100087568Y-98841266D01*
X99957047Y-98654861D01*
X99957045Y-98654858D01*
X99796141Y-98493954D01*
X99609734Y-98363432D01*
X99609732Y-98363431D01*
X99403497Y-98267261D01*
X99403488Y-98267258D01*
X99183697Y-98208366D01*
X99183693Y-98208365D01*
X99183692Y-98208365D01*
X99183691Y-98208364D01*
X99183686Y-98208364D01*
X98957002Y-98188532D01*
X98956998Y-98188532D01*
X98855160Y-98197441D01*
X98786660Y-98183674D01*
X98756672Y-98161594D01*
X98578292Y-97983213D01*
X98578288Y-97983210D01*
X98447185Y-97895609D01*
X98447172Y-97895602D01*
X98301501Y-97835264D01*
X98301489Y-97835261D01*
X98146845Y-97804500D01*
X98146842Y-97804500D01*
X77568049Y-97804500D01*
X77501010Y-97784815D01*
X77480368Y-97768181D01*
X77317141Y-97604954D01*
X77130734Y-97474432D01*
X77130732Y-97474431D01*
X76924497Y-97378261D01*
X76924488Y-97378258D01*
X76704697Y-97319366D01*
X76704693Y-97319365D01*
X76704692Y-97319365D01*
X76704691Y-97319364D01*
X76704686Y-97319364D01*
X76478002Y-97299532D01*
X76477998Y-97299532D01*
X76251313Y-97319364D01*
X76251302Y-97319366D01*
X76031511Y-97378258D01*
X76031502Y-97378261D01*
X75825267Y-97474431D01*
X75825265Y-97474432D01*
X75638858Y-97604954D01*
X75477954Y-97765858D01*
X75347432Y-97952265D01*
X75347431Y-97952267D01*
X75251261Y-98158502D01*
X75251258Y-98158511D01*
X75192366Y-98378302D01*
X75192364Y-98378313D01*
X75172532Y-98604998D01*
X70818602Y-98604998D01*
X73791781Y-95631819D01*
X73853104Y-95598334D01*
X73879462Y-95595500D01*
X91516951Y-95595500D01*
X91583990Y-95615185D01*
X91604632Y-95631819D01*
X91767858Y-95795045D01*
X91767861Y-95795047D01*
X91954266Y-95925568D01*
X92160504Y-96021739D01*
X92380308Y-96080635D01*
X92542230Y-96094801D01*
X92606998Y-96100468D01*
X92607000Y-96100468D01*
X92607002Y-96100468D01*
X92663673Y-96095509D01*
X92833692Y-96080635D01*
X93053496Y-96021739D01*
X93139713Y-95981535D01*
X101219700Y-95981535D01*
X101219700Y-97977270D01*
X101219701Y-97977276D01*
X101226108Y-98036883D01*
X101276402Y-98171728D01*
X101276406Y-98171735D01*
X101362652Y-98286944D01*
X101362655Y-98286947D01*
X101477864Y-98373193D01*
X101477869Y-98373196D01*
X101507632Y-98384296D01*
X101563566Y-98426167D01*
X101587984Y-98491630D01*
X101573133Y-98559904D01*
X101564618Y-98573364D01*
X101429623Y-98759168D01*
X101325970Y-98962596D01*
X101255415Y-99179739D01*
X101219700Y-99405237D01*
X101219700Y-99633562D01*
X101255415Y-99859060D01*
X101325970Y-100076203D01*
X101429621Y-100279628D01*
X101563821Y-100464337D01*
X101725263Y-100625779D01*
X101725269Y-100625783D01*
X101812391Y-100689083D01*
X101855057Y-100744413D01*
X101861035Y-100814027D01*
X101828428Y-100875821D01*
X101812391Y-100889717D01*
X101725269Y-100953016D01*
X101725260Y-100953023D01*
X101563822Y-101114461D01*
X101429621Y-101299171D01*
X101325970Y-101502596D01*
X101255415Y-101719739D01*
X101219700Y-101945237D01*
X101219700Y-102173562D01*
X101255415Y-102399060D01*
X101325970Y-102616203D01*
X101403665Y-102768686D01*
X101429621Y-102819628D01*
X101563821Y-103004337D01*
X101725263Y-103165779D01*
X101725269Y-103165783D01*
X101812391Y-103229083D01*
X101855057Y-103284413D01*
X101861035Y-103354027D01*
X101828428Y-103415821D01*
X101812391Y-103429717D01*
X101725269Y-103493016D01*
X101725260Y-103493023D01*
X101563822Y-103654461D01*
X101429621Y-103839171D01*
X101325970Y-104042596D01*
X101255415Y-104259739D01*
X101219700Y-104485237D01*
X101219700Y-104713562D01*
X101255415Y-104939060D01*
X101325970Y-105156203D01*
X101429231Y-105358863D01*
X101429621Y-105359628D01*
X101563821Y-105544337D01*
X101725263Y-105705779D01*
X101812816Y-105769391D01*
X101855482Y-105824720D01*
X101861461Y-105894333D01*
X101828855Y-105956128D01*
X101812817Y-105970026D01*
X101725586Y-106033403D01*
X101564204Y-106194785D01*
X101430049Y-106379433D01*
X101326430Y-106582795D01*
X101255904Y-106799855D01*
X101241722Y-106889400D01*
X102537188Y-106889400D01*
X102504275Y-106946407D01*
X102470200Y-107073574D01*
X102470200Y-107205226D01*
X102504275Y-107332393D01*
X102537188Y-107389400D01*
X101241722Y-107389400D01*
X101255904Y-107478944D01*
X101326430Y-107696004D01*
X101430049Y-107899366D01*
X101564204Y-108084014D01*
X101725585Y-108245395D01*
X101725591Y-108245400D01*
X101812816Y-108308773D01*
X101855482Y-108364103D01*
X101861461Y-108433716D01*
X101828855Y-108495511D01*
X101812817Y-108509409D01*
X101725261Y-108573022D01*
X101563822Y-108734461D01*
X101429621Y-108919171D01*
X101325970Y-109122596D01*
X101255415Y-109339739D01*
X101219700Y-109565237D01*
X101219700Y-109793562D01*
X101255415Y-110019060D01*
X101325970Y-110236203D01*
X101387993Y-110357929D01*
X101429621Y-110439628D01*
X101563821Y-110624337D01*
X101725263Y-110785779D01*
X101909972Y-110919979D01*
X101999974Y-110965837D01*
X102113396Y-111023629D01*
X102113398Y-111023629D01*
X102113401Y-111023631D01*
X102229792Y-111061449D01*
X102330539Y-111094184D01*
X102556038Y-111129900D01*
X102556043Y-111129900D01*
X103384362Y-111129900D01*
X103609860Y-111094184D01*
X103826999Y-111023631D01*
X104030428Y-110919979D01*
X104215137Y-110785779D01*
X104376579Y-110624337D01*
X104510779Y-110439628D01*
X104614431Y-110236199D01*
X104684984Y-110019060D01*
X104720700Y-109793562D01*
X104720700Y-109565237D01*
X104684984Y-109339739D01*
X104614429Y-109122596D01*
X104554982Y-109005925D01*
X104510779Y-108919172D01*
X104376579Y-108734463D01*
X104215137Y-108573021D01*
X104127580Y-108509406D01*
X104084917Y-108454079D01*
X104078938Y-108384466D01*
X104111544Y-108322671D01*
X104127583Y-108308773D01*
X104214808Y-108245400D01*
X104214814Y-108245395D01*
X104376195Y-108084014D01*
X104510350Y-107899366D01*
X104613969Y-107696004D01*
X104684495Y-107478944D01*
X104698678Y-107389400D01*
X103403212Y-107389400D01*
X103436125Y-107332393D01*
X103470200Y-107205226D01*
X103470200Y-107073574D01*
X103436125Y-106946407D01*
X103403212Y-106889400D01*
X104698678Y-106889400D01*
X104684495Y-106799855D01*
X104613969Y-106582795D01*
X104510350Y-106379433D01*
X104376195Y-106194785D01*
X104214814Y-106033404D01*
X104127582Y-105970026D01*
X104084917Y-105914696D01*
X104078938Y-105845082D01*
X104111544Y-105783287D01*
X104127574Y-105769397D01*
X104215137Y-105705779D01*
X104376579Y-105544337D01*
X104510779Y-105359628D01*
X104614431Y-105156199D01*
X104684984Y-104939060D01*
X104700605Y-104840432D01*
X104720700Y-104713562D01*
X104720700Y-104485237D01*
X104684984Y-104259739D01*
X104614429Y-104042596D01*
X104510778Y-103839171D01*
X104461755Y-103771697D01*
X104376579Y-103654463D01*
X104215137Y-103493021D01*
X104128007Y-103429717D01*
X104085343Y-103374388D01*
X104079364Y-103304774D01*
X104111970Y-103242979D01*
X104128007Y-103229083D01*
X104215137Y-103165779D01*
X104376579Y-103004337D01*
X104510779Y-102819628D01*
X104614431Y-102616199D01*
X104684984Y-102399060D01*
X104720700Y-102173562D01*
X104720700Y-101945237D01*
X104684984Y-101719739D01*
X104630629Y-101552453D01*
X104614431Y-101502601D01*
X104614429Y-101502598D01*
X104614429Y-101502596D01*
X104559750Y-101395284D01*
X104510779Y-101299172D01*
X104376579Y-101114463D01*
X104215137Y-100953021D01*
X104128007Y-100889717D01*
X104085343Y-100834388D01*
X104079364Y-100764774D01*
X104111970Y-100702979D01*
X104128007Y-100689083D01*
X104215137Y-100625779D01*
X104376579Y-100464337D01*
X104510779Y-100279628D01*
X104614431Y-100076199D01*
X104684984Y-99859060D01*
X104689311Y-99831738D01*
X104720700Y-99633562D01*
X104720700Y-99405237D01*
X104684984Y-99179739D01*
X104614429Y-98962596D01*
X104510778Y-98759171D01*
X104398765Y-98605000D01*
X104376579Y-98574463D01*
X104376578Y-98574462D01*
X104375781Y-98573365D01*
X104352301Y-98507559D01*
X104368126Y-98439505D01*
X104418232Y-98390810D01*
X104432762Y-98384298D01*
X104462531Y-98373196D01*
X104577746Y-98286946D01*
X104663996Y-98171731D01*
X104714291Y-98036883D01*
X104720700Y-97977273D01*
X104720699Y-95981528D01*
X104715499Y-95933157D01*
X104714291Y-95921916D01*
X104663997Y-95787071D01*
X104663993Y-95787064D01*
X104577747Y-95671855D01*
X104577744Y-95671852D01*
X104462535Y-95585606D01*
X104462528Y-95585602D01*
X104327682Y-95535308D01*
X104327683Y-95535308D01*
X104268083Y-95528901D01*
X104268081Y-95528900D01*
X104268073Y-95528900D01*
X104268064Y-95528900D01*
X101672329Y-95528900D01*
X101672323Y-95528901D01*
X101612716Y-95535308D01*
X101477871Y-95585602D01*
X101477864Y-95585606D01*
X101362655Y-95671852D01*
X101362652Y-95671855D01*
X101276406Y-95787064D01*
X101276402Y-95787071D01*
X101226108Y-95921917D01*
X101225716Y-95925568D01*
X101219701Y-95981523D01*
X101219700Y-95981535D01*
X93139713Y-95981535D01*
X93259734Y-95925568D01*
X93446139Y-95795047D01*
X93607047Y-95634139D01*
X93737568Y-95447734D01*
X93833739Y-95241496D01*
X93892635Y-95021692D01*
X93912468Y-94795000D01*
X93892635Y-94568308D01*
X93833739Y-94348504D01*
X93737568Y-94142266D01*
X93621629Y-93976686D01*
X93607045Y-93955858D01*
X93446141Y-93794954D01*
X93259734Y-93664432D01*
X93259732Y-93664431D01*
X93053497Y-93568261D01*
X93053488Y-93568258D01*
X92833697Y-93509366D01*
X92833693Y-93509365D01*
X92833692Y-93509365D01*
X92833691Y-93509364D01*
X92833686Y-93509364D01*
X92607002Y-93489532D01*
X92606998Y-93489532D01*
X92380313Y-93509364D01*
X92380302Y-93509366D01*
X92160511Y-93568258D01*
X92160502Y-93568261D01*
X91954267Y-93664431D01*
X91954265Y-93664432D01*
X91767858Y-93794954D01*
X91604632Y-93958181D01*
X91543309Y-93991666D01*
X91516951Y-93994500D01*
X73417675Y-93994500D01*
X73263032Y-94025260D01*
X73263024Y-94025262D01*
X73117346Y-94085604D01*
X73117336Y-94085609D01*
X72986233Y-94173210D01*
X72986229Y-94173213D01*
X66695107Y-100464337D01*
X64634711Y-102524733D01*
X64578960Y-102580484D01*
X64523209Y-102636234D01*
X64435609Y-102767336D01*
X64435602Y-102767349D01*
X64375264Y-102913020D01*
X64375261Y-102913032D01*
X64344500Y-103067675D01*
X64344500Y-110573923D01*
X64375261Y-110728566D01*
X64375264Y-110728578D01*
X64435602Y-110874249D01*
X64435609Y-110874262D01*
X64523210Y-111005365D01*
X64523213Y-111005369D01*
X73955794Y-120437949D01*
X73989279Y-120499272D01*
X73991641Y-120536437D01*
X73982732Y-120638274D01*
X73982732Y-120638278D01*
X74002564Y-120864963D01*
X74002566Y-120864974D01*
X74061458Y-121084765D01*
X74061461Y-121084774D01*
X74073837Y-121111313D01*
X74102647Y-121173096D01*
X74113139Y-121242172D01*
X74084620Y-121305956D01*
X74026143Y-121344196D01*
X73990265Y-121349500D01*
X48600961Y-121349500D01*
X48533922Y-121329815D01*
X48513280Y-121313181D01*
X47567046Y-120366946D01*
X47533561Y-120305623D01*
X47531199Y-120290072D01*
X47530176Y-120278375D01*
X47512235Y-120073308D01*
X47461589Y-119884295D01*
X47453341Y-119853511D01*
X47453338Y-119853502D01*
X47439186Y-119823153D01*
X47357168Y-119647266D01*
X47226647Y-119460861D01*
X47226645Y-119460858D01*
X47065741Y-119299954D01*
X46879334Y-119169432D01*
X46879332Y-119169431D01*
X46673097Y-119073261D01*
X46673088Y-119073258D01*
X46453297Y-119014366D01*
X46453293Y-119014365D01*
X46453292Y-119014365D01*
X46453291Y-119014364D01*
X46453286Y-119014364D01*
X46226602Y-118994532D01*
X46226598Y-118994532D01*
X45999913Y-119014364D01*
X45999902Y-119014366D01*
X45780111Y-119073258D01*
X45780102Y-119073261D01*
X45573867Y-119169431D01*
X45573865Y-119169432D01*
X45387458Y-119299954D01*
X45226554Y-119460858D01*
X45096032Y-119647265D01*
X45096031Y-119647267D01*
X44999861Y-119853502D01*
X44999858Y-119853511D01*
X44940966Y-120073302D01*
X44940964Y-120073313D01*
X44921132Y-120299998D01*
X40631100Y-120299998D01*
X40631100Y-117441711D01*
X58726500Y-117441711D01*
X58726500Y-117684288D01*
X58758161Y-117924785D01*
X58820947Y-118159104D01*
X58896480Y-118341455D01*
X58913776Y-118383212D01*
X59035064Y-118593289D01*
X59035066Y-118593292D01*
X59035067Y-118593293D01*
X59182733Y-118785736D01*
X59182739Y-118785743D01*
X59354256Y-118957260D01*
X59354262Y-118957265D01*
X59546711Y-119104936D01*
X59756788Y-119226224D01*
X59980900Y-119319054D01*
X60215211Y-119381838D01*
X60395586Y-119405584D01*
X60455711Y-119413500D01*
X60455712Y-119413500D01*
X62498289Y-119413500D01*
X62549803Y-119406718D01*
X62738789Y-119381838D01*
X62973100Y-119319054D01*
X63197212Y-119226224D01*
X63407289Y-119104936D01*
X63599738Y-118957265D01*
X63771265Y-118785738D01*
X63918936Y-118593289D01*
X64040224Y-118383212D01*
X64133054Y-118159100D01*
X64195838Y-117924789D01*
X64227500Y-117684288D01*
X64227500Y-117441712D01*
X64195838Y-117201211D01*
X64133054Y-116966900D01*
X64040224Y-116742788D01*
X63918936Y-116532711D01*
X63830655Y-116417661D01*
X63771266Y-116340263D01*
X63771260Y-116340256D01*
X63599743Y-116168739D01*
X63599736Y-116168733D01*
X63407293Y-116021067D01*
X63407292Y-116021066D01*
X63407289Y-116021064D01*
X63197212Y-115899776D01*
X63197205Y-115899773D01*
X62973104Y-115806947D01*
X62738785Y-115744161D01*
X62498289Y-115712500D01*
X62498288Y-115712500D01*
X60455712Y-115712500D01*
X60455711Y-115712500D01*
X60215214Y-115744161D01*
X59980895Y-115806947D01*
X59756794Y-115899773D01*
X59756785Y-115899777D01*
X59546706Y-116021067D01*
X59354263Y-116168733D01*
X59354256Y-116168739D01*
X59182739Y-116340256D01*
X59182733Y-116340263D01*
X59035067Y-116532706D01*
X58913777Y-116742785D01*
X58913773Y-116742794D01*
X58820947Y-116966895D01*
X58758161Y-117201214D01*
X58726500Y-117441711D01*
X40631100Y-117441711D01*
X40631100Y-105885837D01*
X44449500Y-105885837D01*
X44449500Y-106114162D01*
X44485215Y-106339660D01*
X44555770Y-106556803D01*
X44597856Y-106639400D01*
X44659421Y-106760228D01*
X44793621Y-106944937D01*
X44955063Y-107106379D01*
X45042616Y-107169991D01*
X45085282Y-107225320D01*
X45091261Y-107294933D01*
X45058655Y-107356728D01*
X45042617Y-107370626D01*
X44955386Y-107434003D01*
X44794004Y-107595385D01*
X44659849Y-107780033D01*
X44556230Y-107983395D01*
X44485704Y-108200455D01*
X44471522Y-108290000D01*
X45766988Y-108290000D01*
X45734075Y-108347007D01*
X45700000Y-108474174D01*
X45700000Y-108605826D01*
X45734075Y-108732993D01*
X45766988Y-108790000D01*
X44471522Y-108790000D01*
X44485704Y-108879544D01*
X44556230Y-109096604D01*
X44659849Y-109299966D01*
X44794004Y-109484614D01*
X44955385Y-109645995D01*
X44955391Y-109646000D01*
X45042616Y-109709373D01*
X45085282Y-109764703D01*
X45091261Y-109834316D01*
X45058655Y-109896111D01*
X45042618Y-109910007D01*
X45040277Y-109911709D01*
X44955061Y-109973622D01*
X44793622Y-110135061D01*
X44659421Y-110319771D01*
X44555770Y-110523196D01*
X44485215Y-110740339D01*
X44449500Y-110965837D01*
X44449500Y-111194162D01*
X44485215Y-111419660D01*
X44555770Y-111636803D01*
X44659421Y-111840228D01*
X44794418Y-112026034D01*
X44817898Y-112091841D01*
X44802073Y-112159895D01*
X44751967Y-112208589D01*
X44737434Y-112215102D01*
X44707669Y-112226203D01*
X44707664Y-112226206D01*
X44592455Y-112312452D01*
X44592452Y-112312455D01*
X44506206Y-112427664D01*
X44506202Y-112427671D01*
X44455908Y-112562517D01*
X44449501Y-112622116D01*
X44449501Y-112622123D01*
X44449500Y-112622135D01*
X44449500Y-114617870D01*
X44449501Y-114617876D01*
X44455908Y-114677483D01*
X44506202Y-114812328D01*
X44506206Y-114812335D01*
X44592452Y-114927544D01*
X44592455Y-114927547D01*
X44707664Y-115013793D01*
X44707671Y-115013797D01*
X44842517Y-115064091D01*
X44842516Y-115064091D01*
X44849444Y-115064835D01*
X44902127Y-115070500D01*
X47497872Y-115070499D01*
X47557483Y-115064091D01*
X47692331Y-115013796D01*
X47807546Y-114927546D01*
X47893796Y-114812331D01*
X47944091Y-114677483D01*
X47950500Y-114617873D01*
X47950499Y-112622128D01*
X47944091Y-112562517D01*
X47938725Y-112548131D01*
X47893797Y-112427671D01*
X47893793Y-112427664D01*
X47807547Y-112312455D01*
X47807544Y-112312452D01*
X47692335Y-112226206D01*
X47692328Y-112226202D01*
X47662566Y-112215102D01*
X47606632Y-112173231D01*
X47582215Y-112107767D01*
X47597066Y-112039494D01*
X47605581Y-112026034D01*
X47606375Y-112024940D01*
X47606379Y-112024937D01*
X47740579Y-111840228D01*
X47844231Y-111636799D01*
X47914784Y-111419660D01*
X47950500Y-111194162D01*
X47950500Y-110965837D01*
X47914784Y-110740339D01*
X47882049Y-110639592D01*
X47844231Y-110523201D01*
X47844229Y-110523198D01*
X47844229Y-110523196D01*
X47750121Y-110338500D01*
X47740579Y-110319772D01*
X47606379Y-110135063D01*
X47444937Y-109973621D01*
X47357380Y-109910006D01*
X47314717Y-109854679D01*
X47308738Y-109785066D01*
X47341344Y-109723271D01*
X47357383Y-109709373D01*
X47444608Y-109646000D01*
X47444614Y-109645995D01*
X47605995Y-109484614D01*
X47740150Y-109299966D01*
X47843769Y-109096604D01*
X47914295Y-108879544D01*
X47928478Y-108790000D01*
X46633012Y-108790000D01*
X46665925Y-108732993D01*
X46700000Y-108605826D01*
X46700000Y-108567995D01*
X58878335Y-108567995D01*
X58878335Y-108568004D01*
X58898163Y-108832609D01*
X58898164Y-108832614D01*
X58957210Y-109091313D01*
X58957212Y-109091322D01*
X58957214Y-109091327D01*
X59054161Y-109338345D01*
X59186842Y-109568155D01*
X59352292Y-109775623D01*
X59546816Y-109956114D01*
X59766068Y-110105598D01*
X59766073Y-110105600D01*
X59766074Y-110105601D01*
X59766076Y-110105602D01*
X59834379Y-110138495D01*
X60005150Y-110220734D01*
X60258722Y-110298950D01*
X60258723Y-110298950D01*
X60258726Y-110298951D01*
X60521111Y-110338499D01*
X60521116Y-110338499D01*
X60521119Y-110338500D01*
X60521120Y-110338500D01*
X60786480Y-110338500D01*
X60786481Y-110338500D01*
X60786488Y-110338499D01*
X61048873Y-110298951D01*
X61048874Y-110298950D01*
X61048878Y-110298950D01*
X61302450Y-110220734D01*
X61541533Y-110105598D01*
X61760784Y-109956114D01*
X61955308Y-109775623D01*
X62120758Y-109568155D01*
X62253439Y-109338345D01*
X62350386Y-109091327D01*
X62409435Y-108832619D01*
X62416901Y-108732993D01*
X62429265Y-108568004D01*
X62429265Y-108567995D01*
X62409436Y-108303390D01*
X62409435Y-108303385D01*
X62409435Y-108303381D01*
X62350386Y-108044673D01*
X62253439Y-107797655D01*
X62120758Y-107567845D01*
X61955308Y-107360377D01*
X61760784Y-107179886D01*
X61746269Y-107169990D01*
X61541536Y-107030404D01*
X61541525Y-107030397D01*
X61302455Y-106915268D01*
X61302436Y-106915261D01*
X61048883Y-106837051D01*
X61048873Y-106837048D01*
X60786488Y-106797500D01*
X60786481Y-106797500D01*
X60521119Y-106797500D01*
X60521111Y-106797500D01*
X60258726Y-106837048D01*
X60258716Y-106837051D01*
X60005163Y-106915261D01*
X60005144Y-106915268D01*
X59766076Y-107030397D01*
X59766074Y-107030398D01*
X59546815Y-107179886D01*
X59352294Y-107360375D01*
X59352292Y-107360377D01*
X59186842Y-107567845D01*
X59054161Y-107797654D01*
X58957216Y-108044667D01*
X58957210Y-108044686D01*
X58898164Y-108303385D01*
X58898163Y-108303390D01*
X58878335Y-108567995D01*
X46700000Y-108567995D01*
X46700000Y-108474174D01*
X46665925Y-108347007D01*
X46633012Y-108290000D01*
X47928478Y-108290000D01*
X47914295Y-108200455D01*
X47843769Y-107983395D01*
X47740150Y-107780033D01*
X47605995Y-107595385D01*
X47444614Y-107434004D01*
X47357382Y-107370626D01*
X47314717Y-107315296D01*
X47308738Y-107245682D01*
X47341344Y-107183887D01*
X47357374Y-107169997D01*
X47444937Y-107106379D01*
X47606379Y-106944937D01*
X47740579Y-106760228D01*
X47844231Y-106556799D01*
X47914784Y-106339660D01*
X47937269Y-106197697D01*
X47950500Y-106114162D01*
X47950500Y-105885837D01*
X47914784Y-105660339D01*
X47882049Y-105559592D01*
X47844231Y-105443201D01*
X47844229Y-105443198D01*
X47844229Y-105443196D01*
X47740578Y-105239771D01*
X47662174Y-105131858D01*
X47606379Y-105055063D01*
X47444937Y-104893621D01*
X47260228Y-104759421D01*
X47230469Y-104744258D01*
X47056803Y-104655770D01*
X46839660Y-104585215D01*
X46614162Y-104549500D01*
X46614157Y-104549500D01*
X45785843Y-104549500D01*
X45785838Y-104549500D01*
X45560339Y-104585215D01*
X45343196Y-104655770D01*
X45139771Y-104759421D01*
X44955061Y-104893622D01*
X44793622Y-105055061D01*
X44659421Y-105239771D01*
X44555770Y-105443196D01*
X44485215Y-105660339D01*
X44449500Y-105885837D01*
X40631100Y-105885837D01*
X40631100Y-92631920D01*
X65846499Y-92631920D01*
X65875340Y-92776907D01*
X65875343Y-92776917D01*
X65931912Y-92913488D01*
X65931919Y-92913501D01*
X66014048Y-93036415D01*
X66014051Y-93036419D01*
X66118580Y-93140948D01*
X66118584Y-93140951D01*
X66241498Y-93223080D01*
X66241511Y-93223087D01*
X66378082Y-93279656D01*
X66378087Y-93279658D01*
X66378091Y-93279658D01*
X66378092Y-93279659D01*
X66523079Y-93308500D01*
X66523082Y-93308500D01*
X66670920Y-93308500D01*
X66768462Y-93289096D01*
X66815913Y-93279658D01*
X66952495Y-93223084D01*
X67075416Y-93140951D01*
X67179951Y-93036416D01*
X67262084Y-92913495D01*
X67318658Y-92776913D01*
X67347500Y-92631920D01*
X88706499Y-92631920D01*
X88735340Y-92776907D01*
X88735343Y-92776917D01*
X88791912Y-92913488D01*
X88791919Y-92913501D01*
X88874048Y-93036415D01*
X88874051Y-93036419D01*
X88978580Y-93140948D01*
X88978584Y-93140951D01*
X89101498Y-93223080D01*
X89101511Y-93223087D01*
X89238082Y-93279656D01*
X89238087Y-93279658D01*
X89238091Y-93279658D01*
X89238092Y-93279659D01*
X89383079Y-93308500D01*
X89383082Y-93308500D01*
X89530920Y-93308500D01*
X89628462Y-93289096D01*
X89675913Y-93279658D01*
X89812495Y-93223084D01*
X89935416Y-93140951D01*
X90039951Y-93036416D01*
X90122084Y-92913495D01*
X90178658Y-92776913D01*
X90207500Y-92631918D01*
X90207500Y-92484082D01*
X90207500Y-92484079D01*
X90178659Y-92339092D01*
X90178658Y-92339091D01*
X90178658Y-92339087D01*
X90162675Y-92300500D01*
X90122087Y-92202511D01*
X90122080Y-92202498D01*
X90039951Y-92079584D01*
X90039948Y-92079580D01*
X89935419Y-91975051D01*
X89935415Y-91975048D01*
X89812501Y-91892919D01*
X89812488Y-91892912D01*
X89675917Y-91836343D01*
X89675907Y-91836340D01*
X89530920Y-91807500D01*
X89530918Y-91807500D01*
X89383082Y-91807500D01*
X89383080Y-91807500D01*
X89238092Y-91836340D01*
X89238082Y-91836343D01*
X89101511Y-91892912D01*
X89101498Y-91892919D01*
X88978584Y-91975048D01*
X88978580Y-91975051D01*
X88874051Y-92079580D01*
X88874048Y-92079584D01*
X88791919Y-92202498D01*
X88791912Y-92202511D01*
X88735343Y-92339082D01*
X88735340Y-92339092D01*
X88706500Y-92484079D01*
X88706500Y-92484082D01*
X88706500Y-92631918D01*
X88706500Y-92631920D01*
X88706499Y-92631920D01*
X67347500Y-92631920D01*
X67347500Y-92631918D01*
X67347500Y-92484082D01*
X67347500Y-92484079D01*
X67318659Y-92339092D01*
X67318658Y-92339091D01*
X67318658Y-92339087D01*
X67302675Y-92300500D01*
X67262087Y-92202511D01*
X67262080Y-92202498D01*
X67179951Y-92079584D01*
X67179948Y-92079580D01*
X67075419Y-91975051D01*
X67075415Y-91975048D01*
X66952501Y-91892919D01*
X66952488Y-91892912D01*
X66815917Y-91836343D01*
X66815907Y-91836340D01*
X66670920Y-91807500D01*
X66670918Y-91807500D01*
X66523082Y-91807500D01*
X66523080Y-91807500D01*
X66378092Y-91836340D01*
X66378082Y-91836343D01*
X66241511Y-91892912D01*
X66241498Y-91892919D01*
X66118584Y-91975048D01*
X66118580Y-91975051D01*
X66014051Y-92079580D01*
X66014048Y-92079584D01*
X65931919Y-92202498D01*
X65931912Y-92202511D01*
X65875343Y-92339082D01*
X65875340Y-92339092D01*
X65846500Y-92484079D01*
X65846500Y-92484082D01*
X65846500Y-92631918D01*
X65846500Y-92631920D01*
X65846499Y-92631920D01*
X40631100Y-92631920D01*
X40631100Y-86824500D01*
X40650785Y-86757461D01*
X40703589Y-86711706D01*
X40755100Y-86700500D01*
X50065890Y-86700500D01*
X50065892Y-86700500D01*
X50193186Y-86666392D01*
X50307314Y-86600500D01*
X50400500Y-86507314D01*
X50466392Y-86393186D01*
X50500500Y-86265892D01*
X50500500Y-80799998D01*
X52694532Y-80799998D01*
X52694532Y-80800001D01*
X52714364Y-81026686D01*
X52714366Y-81026697D01*
X52773258Y-81246488D01*
X52773261Y-81246497D01*
X52869431Y-81452732D01*
X52869432Y-81452734D01*
X52999954Y-81639141D01*
X53160858Y-81800045D01*
X53160861Y-81800047D01*
X53347266Y-81930568D01*
X53441079Y-81974314D01*
X53469609Y-81987618D01*
X53522048Y-82033791D01*
X53541200Y-82100984D01*
X53520984Y-82167865D01*
X53469609Y-82212382D01*
X53347267Y-82269431D01*
X53347265Y-82269432D01*
X53160858Y-82399954D01*
X52999954Y-82560858D01*
X52869432Y-82747265D01*
X52869431Y-82747267D01*
X52773261Y-82953502D01*
X52773258Y-82953511D01*
X52714366Y-83173302D01*
X52714364Y-83173313D01*
X52694532Y-83399998D01*
X52694532Y-83400001D01*
X52714364Y-83626686D01*
X52714366Y-83626697D01*
X52773258Y-83846488D01*
X52773261Y-83846497D01*
X52869431Y-84052732D01*
X52869432Y-84052734D01*
X52999954Y-84239141D01*
X53160858Y-84400045D01*
X53160861Y-84400047D01*
X53347266Y-84530568D01*
X53553504Y-84626739D01*
X53773308Y-84685635D01*
X53935230Y-84699801D01*
X53999998Y-84705468D01*
X53999999Y-84705468D01*
X53999999Y-84705467D01*
X54000000Y-84705468D01*
X54101839Y-84696557D01*
X54170336Y-84710323D01*
X54200326Y-84732404D01*
X56178211Y-86710289D01*
X56289711Y-86821789D01*
X56289712Y-86821790D01*
X56420814Y-86909390D01*
X56420827Y-86909397D01*
X56477473Y-86932860D01*
X56566503Y-86969737D01*
X56718137Y-86999899D01*
X56721153Y-87000499D01*
X56721156Y-87000500D01*
X56721158Y-87000500D01*
X59468169Y-87000500D01*
X59535208Y-87020185D01*
X59580963Y-87072989D01*
X59591627Y-87136077D01*
X59590238Y-87150886D01*
X60565214Y-88125861D01*
X60480106Y-88148667D01*
X60377494Y-88207910D01*
X60293710Y-88291694D01*
X60234467Y-88394306D01*
X60211661Y-88479414D01*
X59237443Y-87505196D01*
X59187256Y-87568128D01*
X59054614Y-87797871D01*
X58957696Y-88044814D01*
X58957690Y-88044833D01*
X58898661Y-88303459D01*
X58898660Y-88303464D01*
X58878837Y-88567995D01*
X58878837Y-88568004D01*
X58898660Y-88832535D01*
X58898661Y-88832540D01*
X58957690Y-89091166D01*
X58957696Y-89091185D01*
X59054614Y-89338128D01*
X59054613Y-89338128D01*
X59187257Y-89567871D01*
X59237442Y-89630803D01*
X59237443Y-89630803D01*
X60211661Y-88656584D01*
X60234467Y-88741694D01*
X60293710Y-88844306D01*
X60377494Y-88928090D01*
X60480106Y-88987333D01*
X60565214Y-89010137D01*
X59590238Y-89985112D01*
X59766325Y-90105166D01*
X59766326Y-90105167D01*
X60005330Y-90220264D01*
X60005328Y-90220264D01*
X60258825Y-90298458D01*
X60258831Y-90298459D01*
X60521151Y-90337999D01*
X60521158Y-90338000D01*
X60786442Y-90338000D01*
X60786448Y-90337999D01*
X61048768Y-90298459D01*
X61048774Y-90298458D01*
X61302270Y-90220264D01*
X61541279Y-90105164D01*
X61717360Y-89985112D01*
X60742385Y-89010138D01*
X60827494Y-88987333D01*
X60930106Y-88928090D01*
X61013890Y-88844306D01*
X61073133Y-88741694D01*
X61095938Y-88656585D01*
X62070155Y-89630803D01*
X62070156Y-89630802D01*
X62120345Y-89567869D01*
X62252985Y-89338128D01*
X62349903Y-89091185D01*
X62349909Y-89091166D01*
X62408938Y-88832540D01*
X62408939Y-88832535D01*
X62428763Y-88568004D01*
X62428763Y-88567995D01*
X62408939Y-88303464D01*
X62408938Y-88303459D01*
X62349909Y-88044833D01*
X62349903Y-88044814D01*
X62252985Y-87797871D01*
X62252986Y-87797871D01*
X62120343Y-87568129D01*
X62120336Y-87568118D01*
X62070156Y-87505196D01*
X62070155Y-87505195D01*
X61095937Y-88479414D01*
X61073133Y-88394306D01*
X61013890Y-88291694D01*
X60930106Y-88207910D01*
X60827494Y-88148667D01*
X60742385Y-88125862D01*
X61717360Y-87150886D01*
X61715972Y-87136077D01*
X61729311Y-87067492D01*
X61777613Y-87017007D01*
X61839430Y-87000500D01*
X71065985Y-87000500D01*
X71133024Y-87020185D01*
X71153666Y-87036819D01*
X73512106Y-89395259D01*
X73545591Y-89456582D01*
X73548425Y-89482940D01*
X73548425Y-89900001D01*
X73548426Y-89900019D01*
X73558925Y-90002796D01*
X73558926Y-90002799D01*
X73592847Y-90105164D01*
X73614111Y-90169334D01*
X73696762Y-90303334D01*
X73706214Y-90318657D01*
X73799876Y-90412319D01*
X73833361Y-90473642D01*
X73828377Y-90543334D01*
X73799876Y-90587681D01*
X73706214Y-90681342D01*
X73614112Y-90830663D01*
X73614111Y-90830666D01*
X73558926Y-90997203D01*
X73558926Y-90997204D01*
X73558925Y-90997204D01*
X73548425Y-91099983D01*
X73548425Y-91900001D01*
X73548426Y-91900019D01*
X73558925Y-92002796D01*
X73558926Y-92002799D01*
X73614110Y-92169331D01*
X73614111Y-92169334D01*
X73706213Y-92318656D01*
X73830269Y-92442712D01*
X73979591Y-92534814D01*
X74146128Y-92589999D01*
X74248916Y-92600500D01*
X75248933Y-92600499D01*
X75248941Y-92600498D01*
X75248944Y-92600498D01*
X75305227Y-92594748D01*
X75351722Y-92589999D01*
X75518259Y-92534814D01*
X75667581Y-92442712D01*
X75773475Y-92336818D01*
X75834798Y-92303334D01*
X75861156Y-92300500D01*
X76942294Y-92300500D01*
X77009333Y-92320185D01*
X77029975Y-92336818D01*
X77135869Y-92442712D01*
X77285191Y-92534814D01*
X77451728Y-92589999D01*
X77554516Y-92600500D01*
X78554533Y-92600499D01*
X78554541Y-92600498D01*
X78554544Y-92600498D01*
X78610827Y-92594748D01*
X78657322Y-92589999D01*
X78823859Y-92534814D01*
X78973181Y-92442712D01*
X79097237Y-92318656D01*
X79189339Y-92169334D01*
X79244524Y-92002797D01*
X79255025Y-91900009D01*
X79255024Y-91482938D01*
X79274708Y-91415900D01*
X79291338Y-91395263D01*
X81949784Y-88736819D01*
X82011107Y-88703334D01*
X82037465Y-88700500D01*
X92478263Y-88700500D01*
X92545302Y-88720185D01*
X92591057Y-88772989D01*
X92601001Y-88842147D01*
X92596971Y-88857936D01*
X92597093Y-88857965D01*
X92595308Y-88865516D01*
X92588901Y-88925116D01*
X92588900Y-88925135D01*
X92588900Y-91520870D01*
X92588901Y-91520876D01*
X92595308Y-91580483D01*
X92645602Y-91715328D01*
X92645606Y-91715335D01*
X92731852Y-91830544D01*
X92731855Y-91830547D01*
X92847064Y-91916793D01*
X92847071Y-91916797D01*
X92981917Y-91967091D01*
X92981916Y-91967091D01*
X92988844Y-91967835D01*
X93041527Y-91973500D01*
X95037272Y-91973499D01*
X95096883Y-91967091D01*
X95231731Y-91916796D01*
X95346946Y-91830546D01*
X95433196Y-91715331D01*
X95444296Y-91685567D01*
X95486166Y-91629634D01*
X95551629Y-91605215D01*
X95619903Y-91620065D01*
X95633365Y-91628581D01*
X95634461Y-91629377D01*
X95634463Y-91629379D01*
X95819172Y-91763579D01*
X95905372Y-91807500D01*
X96022596Y-91867229D01*
X96022598Y-91867229D01*
X96022601Y-91867231D01*
X96123512Y-91900019D01*
X96239739Y-91937784D01*
X96465238Y-91973500D01*
X96465243Y-91973500D01*
X96693562Y-91973500D01*
X96919060Y-91937784D01*
X96920565Y-91937295D01*
X97136199Y-91867231D01*
X97339628Y-91763579D01*
X97524337Y-91629379D01*
X97685779Y-91467937D01*
X97749392Y-91380380D01*
X97804719Y-91337717D01*
X97874333Y-91331738D01*
X97936128Y-91364343D01*
X97950026Y-91380382D01*
X98013404Y-91467613D01*
X98013404Y-91467614D01*
X98174785Y-91628995D01*
X98359433Y-91763150D01*
X98562795Y-91866769D01*
X98779855Y-91937295D01*
X98869400Y-91951478D01*
X98869400Y-90656012D01*
X98926407Y-90688925D01*
X99053574Y-90723000D01*
X99185226Y-90723000D01*
X99312393Y-90688925D01*
X99369400Y-90656012D01*
X99369400Y-91951477D01*
X99458944Y-91937295D01*
X99676004Y-91866769D01*
X99879366Y-91763150D01*
X100064014Y-91628995D01*
X100225395Y-91467614D01*
X100225400Y-91467608D01*
X100288773Y-91380383D01*
X100344102Y-91337717D01*
X100413716Y-91331738D01*
X100475511Y-91364343D01*
X100489403Y-91380375D01*
X100553021Y-91467937D01*
X100714463Y-91629379D01*
X100899172Y-91763579D01*
X100985372Y-91807500D01*
X101102596Y-91867229D01*
X101102598Y-91867229D01*
X101102601Y-91867231D01*
X101203512Y-91900019D01*
X101319739Y-91937784D01*
X101545238Y-91973500D01*
X101545243Y-91973500D01*
X101773562Y-91973500D01*
X101999060Y-91937784D01*
X102000565Y-91937295D01*
X102216199Y-91867231D01*
X102419628Y-91763579D01*
X102604337Y-91629379D01*
X102765779Y-91467937D01*
X102899979Y-91283228D01*
X103003631Y-91079799D01*
X103074184Y-90862660D01*
X103101701Y-90688925D01*
X103109900Y-90637162D01*
X103109900Y-89808837D01*
X103074184Y-89583339D01*
X103024873Y-89431578D01*
X103003631Y-89366201D01*
X103003629Y-89366198D01*
X103003629Y-89366196D01*
X102899978Y-89162771D01*
X102854366Y-89099992D01*
X102765779Y-88978063D01*
X102604337Y-88816621D01*
X102419628Y-88682421D01*
X102394734Y-88669737D01*
X102216203Y-88578770D01*
X101999060Y-88508215D01*
X101773562Y-88472500D01*
X101773557Y-88472500D01*
X101545243Y-88472500D01*
X101545238Y-88472500D01*
X101319739Y-88508215D01*
X101102596Y-88578770D01*
X100899171Y-88682421D01*
X100714461Y-88816622D01*
X100553022Y-88978061D01*
X100489409Y-89065617D01*
X100434078Y-89108282D01*
X100364465Y-89114261D01*
X100302670Y-89081655D01*
X100288773Y-89065616D01*
X100225400Y-88978391D01*
X100225395Y-88978385D01*
X100064014Y-88817004D01*
X99879366Y-88682849D01*
X99676002Y-88579229D01*
X99458941Y-88508703D01*
X99369400Y-88494521D01*
X99369400Y-89789988D01*
X99312393Y-89757075D01*
X99185226Y-89723000D01*
X99053574Y-89723000D01*
X98926407Y-89757075D01*
X98869400Y-89789988D01*
X98869400Y-88514039D01*
X98889085Y-88447000D01*
X98905714Y-88426363D01*
X108021788Y-79310290D01*
X108045658Y-79274566D01*
X108109394Y-79179179D01*
X108128616Y-79132772D01*
X108152061Y-79076170D01*
X108152062Y-79076168D01*
X108169736Y-79033500D01*
X108169739Y-79033490D01*
X108199581Y-78883461D01*
X108200500Y-78878843D01*
X108200500Y-78721158D01*
X108200500Y-78062927D01*
X108216926Y-78004007D01*
X108216417Y-78003778D01*
X108217924Y-78000428D01*
X108218386Y-77998773D01*
X108219494Y-77996940D01*
X108219793Y-77995982D01*
X108269201Y-77837426D01*
X108275500Y-77768107D01*
X108275499Y-76231894D01*
X108275499Y-76231885D01*
X108270346Y-76175177D01*
X108269201Y-76162574D01*
X108219495Y-76003062D01*
X108202437Y-75974844D01*
X108133064Y-75860086D01*
X108133060Y-75860081D01*
X108014918Y-75741939D01*
X108014913Y-75741935D01*
X107871939Y-75655505D01*
X107871935Y-75655503D01*
X107712426Y-75605799D01*
X107712427Y-75605799D01*
X107695096Y-75604224D01*
X107643107Y-75599500D01*
X107643104Y-75599500D01*
X107156885Y-75599500D01*
X107087576Y-75605798D01*
X107087571Y-75605799D01*
X106928062Y-75655504D01*
X106928060Y-75655505D01*
X106785086Y-75741935D01*
X106785081Y-75741939D01*
X106762681Y-75764340D01*
X106701358Y-75797825D01*
X106631666Y-75792841D01*
X106587319Y-75764340D01*
X106564918Y-75741939D01*
X106564913Y-75741935D01*
X106421939Y-75655505D01*
X106421935Y-75655503D01*
X106262426Y-75605799D01*
X106262427Y-75605799D01*
X106245096Y-75604224D01*
X106193107Y-75599500D01*
X106193104Y-75599500D01*
X105706885Y-75599500D01*
X105637576Y-75605798D01*
X105637571Y-75605799D01*
X105478062Y-75655504D01*
X105478060Y-75655505D01*
X105335086Y-75741935D01*
X105335081Y-75741939D01*
X105216939Y-75860081D01*
X105216935Y-75860086D01*
X105130506Y-76003059D01*
X105130506Y-76003060D01*
X105130505Y-76003062D01*
X105096436Y-76112392D01*
X105057700Y-76170538D01*
X104993675Y-76198512D01*
X104978052Y-76199500D01*
X104421155Y-76199500D01*
X104266510Y-76230261D01*
X104266498Y-76230264D01*
X104120827Y-76290602D01*
X104120814Y-76290609D01*
X103989711Y-76378210D01*
X103989707Y-76378213D01*
X94478761Y-85889161D01*
X94417438Y-85922646D01*
X94391080Y-85925480D01*
X79180756Y-85925480D01*
X79113717Y-85905795D01*
X79093075Y-85889161D01*
X79017574Y-85813660D01*
X78984089Y-85752337D01*
X78989073Y-85682645D01*
X79017570Y-85638302D01*
X79111237Y-85544636D01*
X79203339Y-85395314D01*
X79258524Y-85228777D01*
X79269025Y-85125989D01*
X79269024Y-84325972D01*
X79258524Y-84223183D01*
X79203339Y-84056646D01*
X79111237Y-83907324D01*
X78987181Y-83783268D01*
X78837859Y-83691166D01*
X78671322Y-83635981D01*
X78671320Y-83635980D01*
X78568535Y-83625480D01*
X77568523Y-83625480D01*
X77568505Y-83625481D01*
X77465728Y-83635980D01*
X77465725Y-83635981D01*
X77299193Y-83691165D01*
X77299188Y-83691167D01*
X77149870Y-83783267D01*
X77043975Y-83889162D01*
X76982652Y-83922646D01*
X76956294Y-83925480D01*
X75893955Y-83925480D01*
X75826916Y-83905795D01*
X75806274Y-83889161D01*
X75732382Y-83815269D01*
X75732381Y-83815268D01*
X75583059Y-83723166D01*
X75416522Y-83667981D01*
X75416520Y-83667980D01*
X75313735Y-83657480D01*
X74313723Y-83657480D01*
X74313705Y-83657481D01*
X74210928Y-83667980D01*
X74210925Y-83667981D01*
X74044393Y-83723165D01*
X74044388Y-83723167D01*
X73895070Y-83815267D01*
X73789175Y-83921162D01*
X73727852Y-83954646D01*
X73701494Y-83957480D01*
X58840920Y-83957480D01*
X58773881Y-83937795D01*
X58753239Y-83921161D01*
X57532404Y-82700326D01*
X57498919Y-82639003D01*
X57496557Y-82601842D01*
X57505468Y-82500000D01*
X57504309Y-82486757D01*
X57495317Y-82383979D01*
X57485635Y-82273308D01*
X57426739Y-82053504D01*
X57330568Y-81847266D01*
X57294406Y-81795621D01*
X57272080Y-81729417D01*
X57289090Y-81661650D01*
X57340038Y-81613837D01*
X57395982Y-81600500D01*
X72378844Y-81600500D01*
X72378845Y-81600499D01*
X72533497Y-81569737D01*
X72679179Y-81509394D01*
X72810289Y-81421789D01*
X73411299Y-80820779D01*
X73472622Y-80787294D01*
X73498980Y-80784460D01*
X73636694Y-80784460D01*
X73703733Y-80804145D01*
X73724375Y-80820779D01*
X73799875Y-80896279D01*
X73833360Y-80957602D01*
X73828376Y-81027294D01*
X73799876Y-81071641D01*
X73706212Y-81165305D01*
X73614112Y-81314623D01*
X73614111Y-81314626D01*
X73558926Y-81481163D01*
X73558926Y-81481164D01*
X73558925Y-81481164D01*
X73548425Y-81583943D01*
X73548425Y-82383961D01*
X73548426Y-82383979D01*
X73558925Y-82486756D01*
X73558926Y-82486759D01*
X73597059Y-82601836D01*
X73614111Y-82653294D01*
X73706213Y-82802616D01*
X73830269Y-82926672D01*
X73979591Y-83018774D01*
X74146128Y-83073959D01*
X74248916Y-83084460D01*
X75248933Y-83084459D01*
X75248941Y-83084458D01*
X75248944Y-83084458D01*
X75305227Y-83078708D01*
X75351722Y-83073959D01*
X75518259Y-83018774D01*
X75667581Y-82926672D01*
X75773475Y-82820778D01*
X75834798Y-82787294D01*
X75861156Y-82784460D01*
X76942294Y-82784460D01*
X77009333Y-82804145D01*
X77029975Y-82820778D01*
X77135869Y-82926672D01*
X77285191Y-83018774D01*
X77451728Y-83073959D01*
X77554516Y-83084460D01*
X78554533Y-83084459D01*
X78554541Y-83084458D01*
X78554544Y-83084458D01*
X78610827Y-83078708D01*
X78657322Y-83073959D01*
X78823859Y-83018774D01*
X78973181Y-82926672D01*
X79079075Y-82820778D01*
X79140398Y-82787294D01*
X79166756Y-82784460D01*
X80294884Y-82784460D01*
X80294885Y-82784459D01*
X80449537Y-82753697D01*
X80595219Y-82693354D01*
X80726329Y-82605749D01*
X81039943Y-82292135D01*
X83361500Y-82292135D01*
X83361500Y-84887870D01*
X83361501Y-84887876D01*
X83367908Y-84947483D01*
X83418202Y-85082328D01*
X83418206Y-85082335D01*
X83504452Y-85197544D01*
X83504455Y-85197547D01*
X83619664Y-85283793D01*
X83619671Y-85283797D01*
X83754517Y-85334091D01*
X83754516Y-85334091D01*
X83761444Y-85334835D01*
X83814127Y-85340500D01*
X85809872Y-85340499D01*
X85869483Y-85334091D01*
X86004331Y-85283796D01*
X86119546Y-85197546D01*
X86205796Y-85082331D01*
X86216896Y-85052567D01*
X86258766Y-84996634D01*
X86324229Y-84972215D01*
X86392503Y-84987065D01*
X86405965Y-84995581D01*
X86407061Y-84996377D01*
X86407063Y-84996379D01*
X86591772Y-85130579D01*
X86687884Y-85179550D01*
X86795196Y-85234229D01*
X86795198Y-85234229D01*
X86795201Y-85234231D01*
X86911592Y-85272049D01*
X87012339Y-85304784D01*
X87237838Y-85340500D01*
X87237843Y-85340500D01*
X87466162Y-85340500D01*
X87691660Y-85304784D01*
X87908799Y-85234231D01*
X88112228Y-85130579D01*
X88296937Y-84996379D01*
X88458379Y-84834937D01*
X88592579Y-84650228D01*
X88696231Y-84446799D01*
X88766784Y-84229660D01*
X88767810Y-84223180D01*
X88802500Y-84004162D01*
X88802500Y-83175837D01*
X88766784Y-82950339D01*
X88702891Y-82753698D01*
X88696231Y-82733201D01*
X88696229Y-82733198D01*
X88696229Y-82733196D01*
X88631291Y-82605749D01*
X88592579Y-82529772D01*
X88458379Y-82345063D01*
X88296937Y-82183621D01*
X88112228Y-82049421D01*
X87908803Y-81945770D01*
X87691660Y-81875215D01*
X87466162Y-81839500D01*
X87466157Y-81839500D01*
X87237843Y-81839500D01*
X87237838Y-81839500D01*
X87012339Y-81875215D01*
X86795196Y-81945770D01*
X86591768Y-82049423D01*
X86405964Y-82184418D01*
X86340158Y-82207898D01*
X86272104Y-82192073D01*
X86223409Y-82141967D01*
X86216896Y-82127431D01*
X86205796Y-82097669D01*
X86205793Y-82097664D01*
X86119547Y-81982455D01*
X86119544Y-81982452D01*
X86004335Y-81896206D01*
X86004328Y-81896202D01*
X85869482Y-81845908D01*
X85869483Y-81845908D01*
X85809883Y-81839501D01*
X85809881Y-81839500D01*
X85809873Y-81839500D01*
X85809864Y-81839500D01*
X83814129Y-81839500D01*
X83814123Y-81839501D01*
X83754516Y-81845908D01*
X83619671Y-81896202D01*
X83619664Y-81896206D01*
X83504455Y-81982452D01*
X83504452Y-81982455D01*
X83418206Y-82097664D01*
X83418202Y-82097671D01*
X83367908Y-82232517D01*
X83361501Y-82292116D01*
X83361500Y-82292135D01*
X81039943Y-82292135D01*
X82995259Y-80336819D01*
X83056582Y-80303334D01*
X83082940Y-80300500D01*
X99178844Y-80300500D01*
X99178845Y-80300499D01*
X99333497Y-80269737D01*
X99479179Y-80209394D01*
X99610289Y-80121789D01*
X105020335Y-74711741D01*
X105081656Y-74678258D01*
X105151348Y-74683242D01*
X105207281Y-74725114D01*
X105214128Y-74735270D01*
X105216934Y-74739911D01*
X105216939Y-74739918D01*
X105335081Y-74858060D01*
X105335086Y-74858064D01*
X105478060Y-74944494D01*
X105478064Y-74944496D01*
X105534486Y-74962077D01*
X105637574Y-74994201D01*
X105706893Y-75000500D01*
X106193106Y-75000499D01*
X106193113Y-75000499D01*
X106241630Y-74996090D01*
X106262426Y-74994201D01*
X106421938Y-74944495D01*
X106495529Y-74900007D01*
X106564913Y-74858064D01*
X106564914Y-74858062D01*
X106564919Y-74858060D01*
X106587319Y-74835660D01*
X106648642Y-74802175D01*
X106718334Y-74807159D01*
X106762681Y-74835660D01*
X106785081Y-74858060D01*
X106785086Y-74858064D01*
X106928060Y-74944494D01*
X106928064Y-74944496D01*
X106984486Y-74962077D01*
X107087574Y-74994201D01*
X107156893Y-75000500D01*
X107643106Y-75000499D01*
X107643113Y-75000499D01*
X107691630Y-74996090D01*
X107712426Y-74994201D01*
X107871938Y-74944495D01*
X107945529Y-74900007D01*
X108014913Y-74858064D01*
X108014914Y-74858062D01*
X108014919Y-74858060D01*
X108133060Y-74739919D01*
X108135871Y-74735270D01*
X108219494Y-74596939D01*
X108219495Y-74596938D01*
X108252403Y-74491332D01*
X108291137Y-74433189D01*
X108355162Y-74405214D01*
X108424148Y-74416295D01*
X108458467Y-74440545D01*
X115126034Y-81108112D01*
X115159519Y-81169435D01*
X115154535Y-81239127D01*
X115150737Y-81248194D01*
X115148262Y-81253501D01*
X115148258Y-81253511D01*
X115089366Y-81473302D01*
X115089364Y-81473313D01*
X115069532Y-81699998D01*
X115069532Y-81700001D01*
X115089364Y-81926686D01*
X115089366Y-81926697D01*
X115148258Y-82146488D01*
X115148261Y-82146497D01*
X115244431Y-82352732D01*
X115244432Y-82352734D01*
X115374954Y-82539141D01*
X115535858Y-82700045D01*
X115535861Y-82700047D01*
X115722266Y-82830568D01*
X115928504Y-82926739D01*
X116148308Y-82985635D01*
X116310230Y-82999801D01*
X116374998Y-83005468D01*
X116375000Y-83005468D01*
X116375002Y-83005468D01*
X116431673Y-83000509D01*
X116601692Y-82985635D01*
X116821496Y-82926739D01*
X117027734Y-82830568D01*
X117214139Y-82700047D01*
X117375047Y-82539139D01*
X117505568Y-82352734D01*
X117601739Y-82146496D01*
X117660635Y-81926692D01*
X117680468Y-81700000D01*
X117660635Y-81473308D01*
X117601739Y-81253504D01*
X117505568Y-81047266D01*
X117375047Y-80860861D01*
X117375045Y-80860858D01*
X117214141Y-80699954D01*
X117027734Y-80569432D01*
X117027732Y-80569431D01*
X116821497Y-80473261D01*
X116821488Y-80473258D01*
X116763217Y-80457645D01*
X116707629Y-80425551D01*
X113337856Y-77055778D01*
X116149500Y-77055778D01*
X116149500Y-77344221D01*
X116149501Y-77344238D01*
X116187149Y-77630206D01*
X116187150Y-77630211D01*
X116187151Y-77630217D01*
X116256119Y-77887610D01*
X116261809Y-77908844D01*
X116261814Y-77908860D01*
X116372191Y-78175336D01*
X116372199Y-78175352D01*
X116516420Y-78425148D01*
X116516431Y-78425164D01*
X116692024Y-78654002D01*
X116692030Y-78654009D01*
X116895990Y-78857969D01*
X116895997Y-78857975D01*
X117014814Y-78949146D01*
X117124844Y-79033575D01*
X117124851Y-79033579D01*
X117374647Y-79177800D01*
X117374663Y-79177808D01*
X117641139Y-79288185D01*
X117641145Y-79288186D01*
X117641155Y-79288191D01*
X117919783Y-79362849D01*
X118205772Y-79400500D01*
X118205779Y-79400500D01*
X120094221Y-79400500D01*
X120094228Y-79400500D01*
X120380217Y-79362849D01*
X120658845Y-79288191D01*
X120658857Y-79288185D01*
X120658860Y-79288185D01*
X120925336Y-79177808D01*
X120925339Y-79177806D01*
X120925345Y-79177804D01*
X121175156Y-79033575D01*
X121404004Y-78857974D01*
X121607974Y-78654004D01*
X121783575Y-78425156D01*
X121927804Y-78175345D01*
X121928669Y-78173258D01*
X122038185Y-77908860D01*
X122038185Y-77908857D01*
X122038191Y-77908845D01*
X122112849Y-77630217D01*
X122150500Y-77344228D01*
X122150500Y-77055772D01*
X122112849Y-76769783D01*
X122038191Y-76491155D01*
X122038186Y-76491145D01*
X122038185Y-76491139D01*
X121927808Y-76224663D01*
X121927800Y-76224647D01*
X121783579Y-75974851D01*
X121783575Y-75974844D01*
X121647744Y-75797825D01*
X121607975Y-75745997D01*
X121607969Y-75745990D01*
X121404009Y-75542030D01*
X121404002Y-75542024D01*
X121175164Y-75366431D01*
X121175162Y-75366429D01*
X121175156Y-75366425D01*
X121175151Y-75366422D01*
X121175148Y-75366420D01*
X120925352Y-75222199D01*
X120925336Y-75222191D01*
X120658860Y-75111814D01*
X120658848Y-75111810D01*
X120658845Y-75111809D01*
X120380217Y-75037151D01*
X120380211Y-75037150D01*
X120380206Y-75037149D01*
X120094238Y-74999501D01*
X120094233Y-74999500D01*
X120094228Y-74999500D01*
X118205772Y-74999500D01*
X118205766Y-74999500D01*
X118205761Y-74999501D01*
X117919793Y-75037149D01*
X117919786Y-75037150D01*
X117919783Y-75037151D01*
X117792106Y-75071362D01*
X117641155Y-75111809D01*
X117641139Y-75111814D01*
X117374663Y-75222191D01*
X117374647Y-75222199D01*
X117124851Y-75366420D01*
X117124835Y-75366431D01*
X116895997Y-75542024D01*
X116895990Y-75542030D01*
X116692030Y-75745990D01*
X116692024Y-75745997D01*
X116516431Y-75974835D01*
X116516420Y-75974851D01*
X116372199Y-76224647D01*
X116372191Y-76224663D01*
X116261814Y-76491139D01*
X116261809Y-76491155D01*
X116189543Y-76760858D01*
X116187152Y-76769780D01*
X116187149Y-76769793D01*
X116149501Y-77055761D01*
X116149500Y-77055778D01*
X113337856Y-77055778D01*
X109260292Y-72978213D01*
X109260288Y-72978210D01*
X109129185Y-72890609D01*
X109129172Y-72890602D01*
X108983501Y-72830264D01*
X108983489Y-72830261D01*
X108828845Y-72799500D01*
X108828842Y-72799500D01*
X108371948Y-72799500D01*
X108304909Y-72779815D01*
X108259154Y-72727011D01*
X108253567Y-72712404D01*
X108219495Y-72603062D01*
X108218381Y-72601219D01*
X108217918Y-72599558D01*
X108216417Y-72596223D01*
X108216924Y-72595994D01*
X108200500Y-72537073D01*
X108200500Y-72321153D01*
X108197400Y-72305575D01*
X108197399Y-72305574D01*
X108197398Y-72305565D01*
X108169737Y-72166503D01*
X108151216Y-72121789D01*
X108142151Y-72099903D01*
X108109397Y-72020827D01*
X108109390Y-72020814D01*
X108062073Y-71950000D01*
X116163929Y-71950000D01*
X118495879Y-71950000D01*
X118476901Y-71995818D01*
X118450000Y-72131056D01*
X118450000Y-72268944D01*
X118476901Y-72404182D01*
X118495879Y-72450000D01*
X116163930Y-72450000D01*
X116187642Y-72630118D01*
X116262283Y-72908682D01*
X116372644Y-73175116D01*
X116372648Y-73175126D01*
X116516841Y-73424876D01*
X116692402Y-73653671D01*
X116692408Y-73653678D01*
X116896321Y-73857591D01*
X116896328Y-73857597D01*
X117125123Y-74033158D01*
X117374873Y-74177351D01*
X117374883Y-74177355D01*
X117641317Y-74287716D01*
X117919881Y-74362356D01*
X118205796Y-74399999D01*
X118205811Y-74400000D01*
X118900000Y-74400000D01*
X118900000Y-72854120D01*
X118945818Y-72873099D01*
X119081056Y-72900000D01*
X119218944Y-72900000D01*
X119354182Y-72873099D01*
X119400000Y-72854120D01*
X119400000Y-74400000D01*
X120094189Y-74400000D01*
X120094203Y-74399999D01*
X120380118Y-74362356D01*
X120658682Y-74287716D01*
X120925116Y-74177355D01*
X120925126Y-74177351D01*
X121174876Y-74033158D01*
X121403671Y-73857597D01*
X121403678Y-73857591D01*
X121607591Y-73653678D01*
X121607597Y-73653671D01*
X121783158Y-73424876D01*
X121927351Y-73175126D01*
X121927355Y-73175116D01*
X122037716Y-72908682D01*
X122112357Y-72630118D01*
X122136070Y-72450000D01*
X119804121Y-72450000D01*
X119823099Y-72404182D01*
X119850000Y-72268944D01*
X119850000Y-72131056D01*
X119823099Y-71995818D01*
X119804121Y-71950000D01*
X122136070Y-71950000D01*
X122112357Y-71769881D01*
X122037716Y-71491317D01*
X121927355Y-71224883D01*
X121927351Y-71224873D01*
X121783158Y-70975123D01*
X121607597Y-70746328D01*
X121607591Y-70746321D01*
X121403678Y-70542408D01*
X121403671Y-70542402D01*
X121174876Y-70366841D01*
X120925126Y-70222648D01*
X120925116Y-70222644D01*
X120658682Y-70112283D01*
X120380118Y-70037643D01*
X120094203Y-70000000D01*
X119400000Y-70000000D01*
X119400000Y-71545879D01*
X119354182Y-71526901D01*
X119218944Y-71500000D01*
X119081056Y-71500000D01*
X118945818Y-71526901D01*
X118900000Y-71545879D01*
X118900000Y-70000000D01*
X118205796Y-70000000D01*
X117919881Y-70037643D01*
X117641317Y-70112283D01*
X117374883Y-70222644D01*
X117374873Y-70222648D01*
X117125123Y-70366841D01*
X116896328Y-70542402D01*
X116896321Y-70542408D01*
X116692408Y-70746321D01*
X116692402Y-70746328D01*
X116516841Y-70975123D01*
X116372648Y-71224873D01*
X116372644Y-71224883D01*
X116262283Y-71491317D01*
X116187642Y-71769881D01*
X116163929Y-71950000D01*
X108062073Y-71950000D01*
X108021790Y-71889712D01*
X108000504Y-71868426D01*
X107910289Y-71778211D01*
X107468816Y-71336738D01*
X107010292Y-70878213D01*
X107010288Y-70878210D01*
X106879185Y-70790609D01*
X106879172Y-70790602D01*
X106733501Y-70730264D01*
X106733489Y-70730261D01*
X106578845Y-70699500D01*
X106578842Y-70699500D01*
X96678842Y-70699500D01*
X93790049Y-70699500D01*
X93723010Y-70679815D01*
X93702368Y-70663181D01*
X93539141Y-70499954D01*
X93352734Y-70369432D01*
X93352732Y-70369431D01*
X93146497Y-70273261D01*
X93146488Y-70273258D01*
X92926697Y-70214366D01*
X92926693Y-70214365D01*
X92926692Y-70214365D01*
X92926691Y-70214364D01*
X92926686Y-70214364D01*
X92700002Y-70194532D01*
X92699998Y-70194532D01*
X92473313Y-70214364D01*
X92473302Y-70214366D01*
X92253511Y-70273258D01*
X92253502Y-70273261D01*
X92047267Y-70369431D01*
X92047265Y-70369432D01*
X91860858Y-70499954D01*
X91699954Y-70660858D01*
X91569432Y-70847265D01*
X91569431Y-70847267D01*
X91473261Y-71053502D01*
X91473258Y-71053511D01*
X91414366Y-71273302D01*
X91414364Y-71273313D01*
X91394532Y-71499998D01*
X91394532Y-71500001D01*
X91414364Y-71726686D01*
X91414366Y-71726697D01*
X91473258Y-71946488D01*
X91473261Y-71946497D01*
X91569431Y-72152732D01*
X91569432Y-72152734D01*
X91699954Y-72339141D01*
X91860855Y-72500042D01*
X91863794Y-72502508D01*
X91902498Y-72560679D01*
X91903608Y-72630539D01*
X91866773Y-72689910D01*
X91803687Y-72719942D01*
X91784091Y-72721500D01*
X91404940Y-72721500D01*
X91337901Y-72701815D01*
X91317259Y-72685181D01*
X87110292Y-68478213D01*
X87110288Y-68478210D01*
X86979185Y-68390609D01*
X86979172Y-68390602D01*
X86833501Y-68330264D01*
X86833489Y-68330261D01*
X86678845Y-68299500D01*
X86678842Y-68299500D01*
X80288465Y-68299500D01*
X80221426Y-68279815D01*
X80200784Y-68263181D01*
X79242343Y-67304740D01*
X79208858Y-67243417D01*
X79206024Y-67217059D01*
X79206024Y-66799998D01*
X79206023Y-66799981D01*
X79195524Y-66697203D01*
X79195523Y-66697200D01*
X79185384Y-66666604D01*
X79140339Y-66530666D01*
X79048237Y-66381344D01*
X78954574Y-66287681D01*
X78921089Y-66226358D01*
X78926073Y-66156666D01*
X78954574Y-66112319D01*
X78954575Y-66112318D01*
X79048237Y-66018656D01*
X79140339Y-65869334D01*
X79195524Y-65702797D01*
X79206025Y-65600009D01*
X79206025Y-65395883D01*
X83362000Y-65395883D01*
X83362000Y-65560000D01*
X84378988Y-65560000D01*
X84346075Y-65617007D01*
X84312000Y-65744174D01*
X84312000Y-65875826D01*
X84346075Y-66002993D01*
X84378988Y-66060000D01*
X83362000Y-66060000D01*
X83362000Y-66224116D01*
X83397704Y-66449544D01*
X83468230Y-66666604D01*
X83571849Y-66869966D01*
X83706004Y-67054614D01*
X83867385Y-67215995D01*
X84052033Y-67350150D01*
X84255395Y-67453769D01*
X84472455Y-67524295D01*
X84562000Y-67538478D01*
X84562000Y-66243012D01*
X84619007Y-66275925D01*
X84746174Y-66310000D01*
X84877826Y-66310000D01*
X85004993Y-66275925D01*
X85062000Y-66243012D01*
X85062000Y-67538477D01*
X85151544Y-67524295D01*
X85368604Y-67453769D01*
X85571966Y-67350150D01*
X85757852Y-67215095D01*
X85823658Y-67191615D01*
X85891712Y-67207440D01*
X85940407Y-67257546D01*
X85946919Y-67272078D01*
X85958201Y-67302325D01*
X85958206Y-67302335D01*
X86044452Y-67417544D01*
X86044455Y-67417547D01*
X86159664Y-67503793D01*
X86159671Y-67503797D01*
X86294517Y-67554091D01*
X86294516Y-67554091D01*
X86301444Y-67554835D01*
X86354127Y-67560500D01*
X88349872Y-67560499D01*
X88409483Y-67554091D01*
X88544331Y-67503796D01*
X88627266Y-67441711D01*
X99586500Y-67441711D01*
X99586500Y-67684288D01*
X99618161Y-67924785D01*
X99680947Y-68159104D01*
X99773773Y-68383205D01*
X99773777Y-68383214D01*
X99778045Y-68390606D01*
X99895064Y-68593289D01*
X99895066Y-68593292D01*
X99895067Y-68593293D01*
X100042733Y-68785736D01*
X100042739Y-68785743D01*
X100214256Y-68957260D01*
X100214262Y-68957265D01*
X100406711Y-69104936D01*
X100616788Y-69226224D01*
X100840900Y-69319054D01*
X101075211Y-69381838D01*
X101255586Y-69405584D01*
X101315711Y-69413500D01*
X101315712Y-69413500D01*
X103358289Y-69413500D01*
X103406388Y-69407167D01*
X103598789Y-69381838D01*
X103833100Y-69319054D01*
X104057212Y-69226224D01*
X104267289Y-69104936D01*
X104459738Y-68957265D01*
X104631265Y-68785738D01*
X104778936Y-68593289D01*
X104900224Y-68383212D01*
X104993054Y-68159100D01*
X105055838Y-67924789D01*
X105087500Y-67684288D01*
X105087500Y-67441712D01*
X105055838Y-67201211D01*
X104993054Y-66966900D01*
X104965343Y-66900000D01*
X117994659Y-66900000D01*
X118013975Y-67096129D01*
X118013976Y-67096132D01*
X118045852Y-67201214D01*
X118071188Y-67284733D01*
X118164086Y-67458532D01*
X118164090Y-67458539D01*
X118289116Y-67610883D01*
X118441460Y-67735909D01*
X118441467Y-67735913D01*
X118615266Y-67828811D01*
X118615269Y-67828811D01*
X118615273Y-67828814D01*
X118803868Y-67886024D01*
X119000000Y-67905341D01*
X119196132Y-67886024D01*
X119384727Y-67828814D01*
X119558538Y-67735910D01*
X119710883Y-67610883D01*
X119835910Y-67458538D01*
X119919402Y-67302335D01*
X119928811Y-67284733D01*
X119928811Y-67284732D01*
X119928814Y-67284727D01*
X119986024Y-67096132D01*
X120005341Y-66900000D01*
X119986024Y-66703868D01*
X119928814Y-66515273D01*
X119928811Y-66515269D01*
X119928811Y-66515266D01*
X119835913Y-66341467D01*
X119835909Y-66341460D01*
X119710883Y-66189116D01*
X119558539Y-66064090D01*
X119558532Y-66064086D01*
X119384733Y-65971188D01*
X119384727Y-65971186D01*
X119196132Y-65913976D01*
X119196129Y-65913975D01*
X119000000Y-65894659D01*
X118803870Y-65913975D01*
X118615266Y-65971188D01*
X118441467Y-66064086D01*
X118441460Y-66064090D01*
X118289116Y-66189116D01*
X118164090Y-66341460D01*
X118164086Y-66341467D01*
X118071188Y-66515266D01*
X118013975Y-66703870D01*
X117994659Y-66900000D01*
X104965343Y-66900000D01*
X104900224Y-66742788D01*
X104778936Y-66532711D01*
X104648852Y-66363182D01*
X104631266Y-66340263D01*
X104631260Y-66340256D01*
X104459743Y-66168739D01*
X104459736Y-66168733D01*
X104267293Y-66021067D01*
X104267292Y-66021066D01*
X104267289Y-66021064D01*
X104057212Y-65899776D01*
X104057205Y-65899773D01*
X103833104Y-65806947D01*
X103598785Y-65744161D01*
X103358289Y-65712500D01*
X103358288Y-65712500D01*
X101315712Y-65712500D01*
X101315711Y-65712500D01*
X101075214Y-65744161D01*
X100840895Y-65806947D01*
X100616794Y-65899773D01*
X100616785Y-65899777D01*
X100442329Y-66000500D01*
X100408234Y-66020185D01*
X100406706Y-66021067D01*
X100214263Y-66168733D01*
X100214256Y-66168739D01*
X100042739Y-66340256D01*
X100042733Y-66340263D01*
X99895067Y-66532706D01*
X99773777Y-66742785D01*
X99773773Y-66742794D01*
X99680947Y-66966895D01*
X99618161Y-67201214D01*
X99586500Y-67441711D01*
X88627266Y-67441711D01*
X88659546Y-67417546D01*
X88745796Y-67302331D01*
X88796091Y-67167483D01*
X88802500Y-67107873D01*
X88802499Y-64512128D01*
X88796091Y-64452517D01*
X88787791Y-64430264D01*
X88745797Y-64317671D01*
X88745793Y-64317664D01*
X88659547Y-64202455D01*
X88659544Y-64202452D01*
X88544335Y-64116206D01*
X88544328Y-64116202D01*
X88409482Y-64065908D01*
X88409483Y-64065908D01*
X88349883Y-64059501D01*
X88349881Y-64059500D01*
X88349873Y-64059500D01*
X88349864Y-64059500D01*
X86354129Y-64059500D01*
X86354123Y-64059501D01*
X86294516Y-64065908D01*
X86159671Y-64116202D01*
X86159664Y-64116206D01*
X86044455Y-64202452D01*
X86044452Y-64202455D01*
X85958206Y-64317664D01*
X85958202Y-64317672D01*
X85946919Y-64347922D01*
X85905046Y-64403855D01*
X85839582Y-64428270D01*
X85771309Y-64413417D01*
X85757852Y-64404904D01*
X85571966Y-64269849D01*
X85368602Y-64166229D01*
X85151541Y-64095703D01*
X85062000Y-64081521D01*
X85062000Y-65376988D01*
X85004993Y-65344075D01*
X84877826Y-65310000D01*
X84746174Y-65310000D01*
X84619007Y-65344075D01*
X84562000Y-65376988D01*
X84562000Y-64081521D01*
X84561999Y-64081521D01*
X84472458Y-64095703D01*
X84255397Y-64166229D01*
X84052033Y-64269849D01*
X83867385Y-64404004D01*
X83706004Y-64565385D01*
X83571849Y-64750033D01*
X83468230Y-64953395D01*
X83397704Y-65170455D01*
X83362000Y-65395883D01*
X79206025Y-65395883D01*
X79206024Y-64799992D01*
X79195524Y-64697203D01*
X79140339Y-64530666D01*
X79048237Y-64381344D01*
X78924181Y-64257288D01*
X78774859Y-64165186D01*
X78608322Y-64110001D01*
X78608320Y-64110000D01*
X78505535Y-64099500D01*
X77505523Y-64099500D01*
X77505505Y-64099501D01*
X77402728Y-64110000D01*
X77402725Y-64110001D01*
X77236193Y-64165185D01*
X77236188Y-64165187D01*
X77086870Y-64257287D01*
X76980975Y-64363182D01*
X76919652Y-64396666D01*
X76893294Y-64399500D01*
X75910156Y-64399500D01*
X75843117Y-64379815D01*
X75822475Y-64363182D01*
X75776957Y-64317664D01*
X75716581Y-64257288D01*
X75567259Y-64165186D01*
X75400722Y-64110001D01*
X75400720Y-64110000D01*
X75297935Y-64099500D01*
X74297923Y-64099500D01*
X74297905Y-64099501D01*
X74195128Y-64110000D01*
X74195125Y-64110001D01*
X74028593Y-64165185D01*
X74028588Y-64165187D01*
X73879270Y-64257287D01*
X73773375Y-64363182D01*
X73712052Y-64396666D01*
X73685694Y-64399500D01*
X69521155Y-64399500D01*
X69366510Y-64430261D01*
X69366498Y-64430264D01*
X69220827Y-64490602D01*
X69220814Y-64490609D01*
X69089711Y-64578210D01*
X69089707Y-64578213D01*
X59418762Y-74249159D01*
X59357439Y-74282644D01*
X59287747Y-74277660D01*
X59259958Y-74263053D01*
X59123465Y-74167481D01*
X59123463Y-74167480D01*
X58917228Y-74071310D01*
X58917219Y-74071307D01*
X58697428Y-74012415D01*
X58697424Y-74012414D01*
X58697423Y-74012414D01*
X58697422Y-74012413D01*
X58697417Y-74012413D01*
X58470733Y-73992581D01*
X58470729Y-73992581D01*
X58244044Y-74012413D01*
X58244033Y-74012415D01*
X58024242Y-74071307D01*
X58024233Y-74071310D01*
X57817998Y-74167480D01*
X57817996Y-74167481D01*
X57631589Y-74298003D01*
X57470685Y-74458907D01*
X57340163Y-74645314D01*
X57340162Y-74645316D01*
X57243992Y-74851551D01*
X57243989Y-74851560D01*
X57185097Y-75071351D01*
X57185095Y-75071362D01*
X57165263Y-75298047D01*
X57165263Y-75298050D01*
X57185095Y-75524735D01*
X57185097Y-75524746D01*
X57243989Y-75744537D01*
X57243992Y-75744546D01*
X57340162Y-75950781D01*
X57340163Y-75950783D01*
X57470685Y-76137190D01*
X57631589Y-76298094D01*
X57702076Y-76347449D01*
X57745701Y-76402025D01*
X57752895Y-76471524D01*
X57721373Y-76533878D01*
X57702077Y-76550599D01*
X57631587Y-76599956D01*
X57470685Y-76760858D01*
X57340163Y-76947265D01*
X57340162Y-76947267D01*
X57243992Y-77153502D01*
X57243989Y-77153511D01*
X57185097Y-77373302D01*
X57185095Y-77373313D01*
X57165263Y-77599998D01*
X57165263Y-77600001D01*
X57185095Y-77826686D01*
X57185097Y-77826697D01*
X57243989Y-78046488D01*
X57243992Y-78046497D01*
X57340162Y-78252732D01*
X57340163Y-78252734D01*
X57446343Y-78404377D01*
X57468671Y-78470584D01*
X57451659Y-78538351D01*
X57400711Y-78586163D01*
X57344768Y-78599500D01*
X57290049Y-78599500D01*
X57223010Y-78579815D01*
X57202368Y-78563181D01*
X57039141Y-78399954D01*
X56852734Y-78269432D01*
X56852732Y-78269431D01*
X56646497Y-78173261D01*
X56646488Y-78173258D01*
X56426697Y-78114366D01*
X56426693Y-78114365D01*
X56426692Y-78114365D01*
X56426691Y-78114364D01*
X56426686Y-78114364D01*
X56200002Y-78094532D01*
X56199998Y-78094532D01*
X55973313Y-78114364D01*
X55973302Y-78114366D01*
X55753511Y-78173258D01*
X55753502Y-78173261D01*
X55547267Y-78269431D01*
X55547265Y-78269432D01*
X55360858Y-78399954D01*
X55199954Y-78560858D01*
X55069432Y-78747265D01*
X55069431Y-78747267D01*
X54973261Y-78953502D01*
X54973258Y-78953511D01*
X54914366Y-79173302D01*
X54914364Y-79173313D01*
X54894532Y-79399998D01*
X54894532Y-79400002D01*
X54912245Y-79602465D01*
X54898478Y-79670965D01*
X54849863Y-79721148D01*
X54781834Y-79737081D01*
X54717594Y-79714847D01*
X54652734Y-79669432D01*
X54652732Y-79669431D01*
X54446497Y-79573261D01*
X54446488Y-79573258D01*
X54226697Y-79514366D01*
X54226693Y-79514365D01*
X54226692Y-79514365D01*
X54226691Y-79514364D01*
X54226686Y-79514364D01*
X54000002Y-79494532D01*
X53999998Y-79494532D01*
X53773313Y-79514364D01*
X53773302Y-79514366D01*
X53553511Y-79573258D01*
X53553502Y-79573261D01*
X53347267Y-79669431D01*
X53347265Y-79669432D01*
X53160858Y-79799954D01*
X52999954Y-79960858D01*
X52869432Y-80147265D01*
X52869431Y-80147267D01*
X52773261Y-80353502D01*
X52773258Y-80353511D01*
X52714366Y-80573302D01*
X52714364Y-80573313D01*
X52694532Y-80799998D01*
X50500500Y-80799998D01*
X50500500Y-74578711D01*
X52036500Y-74578711D01*
X52036500Y-74821288D01*
X52068161Y-75061785D01*
X52130947Y-75296104D01*
X52223773Y-75520205D01*
X52223777Y-75520214D01*
X52224520Y-75521501D01*
X52345064Y-75730289D01*
X52345066Y-75730292D01*
X52345067Y-75730293D01*
X52492733Y-75922736D01*
X52492739Y-75922743D01*
X52664256Y-76094260D01*
X52664263Y-76094266D01*
X52742448Y-76154259D01*
X52856711Y-76241936D01*
X53066788Y-76363224D01*
X53290900Y-76456054D01*
X53525211Y-76518838D01*
X53705586Y-76542584D01*
X53765711Y-76550500D01*
X53765712Y-76550500D01*
X54008289Y-76550500D01*
X54056388Y-76544167D01*
X54248789Y-76518838D01*
X54483100Y-76456054D01*
X54707212Y-76363224D01*
X54917289Y-76241936D01*
X55109738Y-76094265D01*
X55281265Y-75922738D01*
X55428936Y-75730289D01*
X55550224Y-75520212D01*
X55643054Y-75296100D01*
X55705838Y-75061789D01*
X55737500Y-74821288D01*
X55737500Y-74578712D01*
X55736696Y-74572608D01*
X55724868Y-74482762D01*
X55705838Y-74338211D01*
X55643054Y-74103900D01*
X55550224Y-73879788D01*
X55428936Y-73669711D01*
X55281265Y-73477262D01*
X55281260Y-73477256D01*
X55109743Y-73305739D01*
X55109736Y-73305733D01*
X54917293Y-73158067D01*
X54917292Y-73158066D01*
X54917289Y-73158064D01*
X54707212Y-73036776D01*
X54638639Y-73008372D01*
X54483104Y-72943947D01*
X54248785Y-72881161D01*
X54008289Y-72849500D01*
X54008288Y-72849500D01*
X53765712Y-72849500D01*
X53765711Y-72849500D01*
X53525214Y-72881161D01*
X53290895Y-72943947D01*
X53066794Y-73036773D01*
X53066785Y-73036777D01*
X52856706Y-73158067D01*
X52664263Y-73305733D01*
X52664256Y-73305739D01*
X52492739Y-73477256D01*
X52492733Y-73477263D01*
X52345067Y-73669706D01*
X52223777Y-73879785D01*
X52223773Y-73879794D01*
X52130947Y-74103895D01*
X52068161Y-74338214D01*
X52036500Y-74578711D01*
X50500500Y-74578711D01*
X50500500Y-67441711D01*
X58726500Y-67441711D01*
X58726500Y-67684288D01*
X58758161Y-67924785D01*
X58820947Y-68159104D01*
X58913773Y-68383205D01*
X58913777Y-68383214D01*
X58918045Y-68390606D01*
X59035064Y-68593289D01*
X59035066Y-68593292D01*
X59035067Y-68593293D01*
X59182733Y-68785736D01*
X59182739Y-68785743D01*
X59354256Y-68957260D01*
X59354262Y-68957265D01*
X59546711Y-69104936D01*
X59756788Y-69226224D01*
X59980900Y-69319054D01*
X60215211Y-69381838D01*
X60395586Y-69405584D01*
X60455711Y-69413500D01*
X60455712Y-69413500D01*
X62498289Y-69413500D01*
X62546388Y-69407167D01*
X62738789Y-69381838D01*
X62973100Y-69319054D01*
X63197212Y-69226224D01*
X63407289Y-69104936D01*
X63599738Y-68957265D01*
X63771265Y-68785738D01*
X63918936Y-68593289D01*
X64040224Y-68383212D01*
X64133054Y-68159100D01*
X64195838Y-67924789D01*
X64227500Y-67684288D01*
X64227500Y-67441712D01*
X64195838Y-67201211D01*
X64133054Y-66966900D01*
X64040224Y-66742788D01*
X63918936Y-66532711D01*
X63788852Y-66363182D01*
X63771266Y-66340263D01*
X63771260Y-66340256D01*
X63599743Y-66168739D01*
X63599736Y-66168733D01*
X63407293Y-66021067D01*
X63407292Y-66021066D01*
X63407289Y-66021064D01*
X63197212Y-65899776D01*
X63197205Y-65899773D01*
X62973104Y-65806947D01*
X62738785Y-65744161D01*
X62498289Y-65712500D01*
X62498288Y-65712500D01*
X60455712Y-65712500D01*
X60455711Y-65712500D01*
X60215214Y-65744161D01*
X59980895Y-65806947D01*
X59756794Y-65899773D01*
X59756785Y-65899777D01*
X59582329Y-66000500D01*
X59548234Y-66020185D01*
X59546706Y-66021067D01*
X59354263Y-66168733D01*
X59354256Y-66168739D01*
X59182739Y-66340256D01*
X59182733Y-66340263D01*
X59035067Y-66532706D01*
X58913777Y-66742785D01*
X58913773Y-66742794D01*
X58820947Y-66966895D01*
X58758161Y-67201214D01*
X58726500Y-67441711D01*
X50500500Y-67441711D01*
X50500500Y-63282800D01*
X50520185Y-63215761D01*
X50572989Y-63170006D01*
X50624500Y-63158800D01*
X123110200Y-63158800D01*
X123177239Y-63178485D01*
G37*
%TD.AperFunction*%
%TD*%
M02*
