<?xml version="1.0" encoding="UTF-8" standalone="no"?>
<svg
   version="1.1"
   width="297.0022mm"
   height="210.0072mm"
   viewBox="0.0000 0.0000 297.0022 210.0072"
   id="svg48"
   sodipodi:docname="controle-B_Paste.svg"
   inkscape:version="1.4.2 (ebf0e940d0, 2025-05-08)"
   xmlns:inkscape="http://www.inkscape.org/namespaces/inkscape"
   xmlns:sodipodi="http://sodipodi.sourceforge.net/DTD/sodipodi-0.dtd"
   xmlns="http://www.w3.org/2000/svg"
   xmlns:svg="http://www.w3.org/2000/svg">
  <defs
     id="defs48" />
  <sodipodi:namedview
     id="namedview48"
     pagecolor="#ffffff"
     bordercolor="#666666"
     borderopacity="1.0"
     inkscape:showpageshadow="2"
     inkscape:pageopacity="0.0"
     inkscape:pagecheckerboard="0"
     inkscape:deskcolor="#d1d1d1"
     inkscape:document-units="mm"
     inkscape:zoom="1.8407645"
     inkscape:cx="309.65395"
     inkscape:cy="381.90653"
     inkscape:window-width="1125"
     inkscape:window-height="875"
     inkscape:window-x="458"
     inkscape:window-y="184"
     inkscape:window-maximized="0"
     inkscape:current-layer="svg48" />
  <title
     id="title1">SVG Image created as controle-B_Paste.svg date 2026/06/08 12:45:07 </title>
  <desc
     id="desc1">Image generated by PCBNEW </desc>
  <g
     style="fill:#000000;fill-opacity:1;stroke:none;stroke-opacity:1;stroke-linecap:round;stroke-linejoin:round"
     transform="translate(0 0) scale(1 1)"
     id="g42">
    <path
       style="fill:#000000;fill-opacity:1;stroke:none;fill-rule:evenodd"
       d="M 96.4567,74.4220 96.3849,74.4077 96.3241,74.3671 96.2835,74.3063 96.2692,74.2345 96.2692,72.8095 96.2835,72.7377 96.3241,72.6769 96.3849,72.6363 96.4567,72.6220 96.8317,72.6220 96.9035,72.6363 96.9643,72.6769 97.0049,72.7377 97.0192,72.8095 97.0192,74.2345 97.0049,74.3063 96.9643,74.3671 96.9035,74.4077 96.8317,74.4220 Z"
       id="path1" />
    <path
       style="fill:#000000;fill-opacity:1;stroke:none;fill-rule:evenodd"
       d="M 95.0067,74.4220 94.9349,74.4077 94.8741,74.3671 94.8335,74.3063 94.8192,74.2345 94.8192,72.8095 94.8335,72.7377 94.8741,72.6769 94.9349,72.6363 95.0067,72.6220 95.3817,72.6220 95.4535,72.6363 95.5143,72.6769 95.5549,72.7377 95.5692,72.8095 95.5692,74.2345 95.5549,74.3063 95.5143,74.3671 95.4535,74.4077 95.3817,74.4220 Z"
       id="path2" />
    <path
       style="fill:#000000;fill-opacity:1;stroke:none;fill-rule:evenodd"
       d="M 96.4567,77.8220 96.3849,77.8077 96.3241,77.7671 96.2835,77.7063 96.2692,77.6345 96.2692,76.2095 96.2835,76.1377 96.3241,76.0769 96.3849,76.0363 96.4567,76.0220 96.8317,76.0220 96.9035,76.0363 96.9643,76.0769 97.0049,76.1377 97.0192,76.2095 97.0192,77.6345 97.0049,77.7063 96.9643,77.7671 96.9035,77.8077 96.8317,77.8220 Z"
       id="path3" />
    <path
       style="fill:#000000;fill-opacity:1;stroke:none;fill-rule:evenodd"
       d="M 95.0067,77.8220 94.9349,77.8077 94.8741,77.7671 94.8335,77.7063 94.8192,77.6345 94.8192,76.2095 94.8335,76.1377 94.8741,76.0769 94.9349,76.0363 95.0067,76.0220 95.3817,76.0220 95.4535,76.0363 95.5143,76.0769 95.5549,76.1377 95.5692,76.2095 95.5692,77.6345 95.5549,77.7063 95.5143,77.7671 95.4535,77.8077 95.3817,77.8220 Z"
       id="path4" />
    <path
       style="fill:#000000;fill-opacity:1;stroke:none;fill-rule:evenodd"
       d="M 74.3479,67.8000 74.2523,67.7810 74.1711,67.7268 74.1170,67.6457 74.0979,67.5500 74.0979,66.8500 74.1170,66.7543 74.1711,66.6732 74.2523,66.6190 74.3479,66.6000 75.2479,66.6000 75.3436,66.6190 75.4247,66.6732 75.4789,66.7543 75.4979,66.8500 75.4979,67.5500 75.4789,67.6457 75.4247,67.7268 75.3436,67.7810 75.2479,67.8000 Z"
       id="path5" />
    <path
       style="fill:#000000;fill-opacity:1;stroke:none;fill-rule:evenodd"
       d="M 74.3479,65.8000 74.2523,65.7810 74.1711,65.7268 74.1170,65.6457 74.0979,65.5500 74.0979,64.8500 74.1170,64.7543 74.1711,64.6732 74.2523,64.6190 74.3479,64.6000 75.2479,64.6000 75.3436,64.6190 75.4247,64.6732 75.4789,64.7543 75.4979,64.8500 75.4979,65.5500 75.4789,65.6457 75.4247,65.7268 75.3436,65.7810 75.2479,65.8000 Z"
       id="path6" />
    <path
       style="fill:#000000;fill-opacity:1;stroke:none;fill-rule:evenodd"
       d="M 74.2952,77.8419 74.1995,77.8229 74.1184,77.7687 74.0642,77.6876 74.0452,77.5919 74.0452,76.8919 74.0642,76.7963 74.1184,76.7152 74.1995,76.6610 74.2952,76.6419 75.1952,76.6419 75.2909,76.6610 75.3720,76.7152 75.4262,76.7963 75.4452,76.8919 75.4452,77.5919 75.4262,77.6876 75.3720,77.7687 75.2909,77.8229 75.1952,77.8419 Z"
       id="path7" />
    <path
       style="fill:#000000;fill-opacity:1;stroke:none;fill-rule:evenodd"
       d="M 74.2952,75.8419 74.1995,75.8229 74.1184,75.7687 74.0642,75.6876 74.0452,75.5919 74.0452,74.8919 74.0642,74.7963 74.1184,74.7152 74.1995,74.6610 74.2952,74.6419 75.1952,74.6419 75.2909,74.6610 75.3720,74.7152 75.4262,74.7963 75.4452,74.8919 75.4452,75.5919 75.4262,75.6876 75.3720,75.7687 75.2909,75.8229 75.1952,75.8419 Z"
       id="path8" />
    <path
       style="fill:#000000;fill-opacity:1;stroke:none;fill-rule:evenodd"
       d="M 103.5180,124.8775 103.4999,124.9684 103.4484,125.0454 103.3714,125.0969 103.2805,125.1150 102.7055,125.1150 102.6146,125.0969 102.5376,125.0454 102.4861,124.9684 102.4680,124.8775 102.4680,124.4025 102.4861,124.3116 102.5376,124.2346 102.6146,124.1831 102.7055,124.1650 103.2805,124.1650 103.3714,124.1831 103.4484,124.2346 103.4999,124.3116 103.5180,124.4025 Z"
       id="path9" />
    <path
       style="fill:#000000;fill-opacity:1;stroke:none;fill-rule:evenodd"
       d="M 101.7680,124.8775 101.7499,124.9684 101.6984,125.0454 101.6214,125.0969 101.5305,125.1150 100.9555,125.1150 100.8646,125.0969 100.7876,125.0454 100.7361,124.9684 100.7180,124.8775 100.7180,124.4025 100.7361,124.3116 100.7876,124.2346 100.8646,124.1831 100.9555,124.1650 101.5305,124.1650 101.6214,124.1831 101.6984,124.2346 101.7499,124.3116 101.7680,124.4025 Z"
       id="path10" />
    <path
       style="fill:#000000;fill-opacity:1;stroke:none;fill-rule:evenodd"
       d="M 61.8438,127.8625 61.7505,127.8439 61.6714,127.7911 61.6186,127.7120 61.6000,127.6187 61.6000,127.1312 61.6186,127.0380 61.6714,126.9589 61.7505,126.9061 61.8438,126.8875 62.7562,126.8875 62.8495,126.9061 62.9286,126.9589 62.9814,127.0380 63.0000,127.1312 63.0000,127.6187 62.9814,127.7120 62.9286,127.7911 62.8495,127.8439 62.7562,127.8625 Z"
       id="path11" />
    <path
       style="fill:#000000;fill-opacity:1;stroke:none;fill-rule:evenodd"
       d="M 61.8438,125.9875 61.7505,125.9689 61.6714,125.9161 61.6186,125.8370 61.6000,125.7437 61.6000,125.2562 61.6186,125.1630 61.6714,125.0839 61.7505,125.0311 61.8438,125.0125 62.7562,125.0125 62.8495,125.0311 62.9286,125.0839 62.9814,125.1630 63.0000,125.2562 63.0000,125.7437 62.9814,125.8370 62.9286,125.9161 62.8495,125.9689 62.7562,125.9875 Z"
       id="path12" />
    <path
       style="fill:#000000;fill-opacity:1;stroke:none;fill-rule:evenodd"
       d="M 74.2989,82.5840 74.2033,82.5649 74.1221,82.5107 74.0680,82.4296 74.0489,82.3340 74.0489,81.6340 74.0680,81.5383 74.1221,81.4572 74.2033,81.4030 74.2989,81.3840 75.1989,81.3840 75.2946,81.4030 75.3757,81.4572 75.4299,81.5383 75.4489,81.6340 75.4489,82.3340 75.4299,82.4296 75.3757,82.5107 75.2946,82.5649 75.1989,82.5840 Z"
       id="path13" />
    <path
       style="fill:#000000;fill-opacity:1;stroke:none;fill-rule:evenodd"
       d="M 74.2989,80.5840 74.2033,80.5649 74.1221,80.5107 74.0680,80.4296 74.0489,80.3340 74.0489,79.6340 74.0680,79.5383 74.1221,79.4572 74.2033,79.4030 74.2989,79.3840 75.1989,79.3840 75.2946,79.4030 75.3757,79.4572 75.4299,79.5383 75.4489,79.6340 75.4489,80.3340 75.4299,80.4296 75.3757,80.5107 75.2946,80.5649 75.1989,80.5840 Z"
       id="path14" />
    <path
       style="fill:#000000;fill-opacity:1;stroke:none;fill-rule:evenodd"
       d="M 77.6185,87.3260 77.5229,87.3070 77.4417,87.2528 77.3876,87.1717 77.3685,87.0760 77.3685,86.3760 77.3876,86.2803 77.4417,86.1992 77.5229,86.1450 77.6185,86.1260 78.5185,86.1260 78.6142,86.1450 78.6953,86.1992 78.7495,86.2803 78.7685,86.3760 78.7685,87.0760 78.7495,87.1717 78.6953,87.2528 78.6142,87.3070 78.5185,87.3260 Z"
       id="path15" />
    <path
       style="fill:#000000;fill-opacity:1;stroke:none;fill-rule:evenodd"
       d="M 77.6185,85.3260 77.5229,85.3070 77.4417,85.2528 77.3876,85.1717 77.3685,85.0760 77.3685,84.3760 77.3876,84.2803 77.4417,84.1992 77.5229,84.1450 77.6185,84.1260 78.5185,84.1260 78.6142,84.1450 78.6953,84.1992 78.7495,84.2803 78.7685,84.3760 78.7685,85.0760 78.7495,85.1717 78.6953,85.2528 78.6142,85.3070 78.5185,85.3260 Z"
       id="path16" />
    <path
       style="fill:#000000;fill-opacity:1;stroke:none;fill-rule:evenodd"
       d="M 74.3637,87.3580 74.2681,87.3389 74.1869,87.2848 74.1328,87.2037 74.1137,87.1080 74.1137,86.4080 74.1328,86.3123 74.1869,86.2312 74.2681,86.1770 74.3637,86.1580 75.2637,86.1580 75.3594,86.1770 75.4405,86.2312 75.4947,86.3123 75.5137,86.4080 75.5137,87.1080 75.4947,87.2037 75.4405,87.2848 75.3594,87.3389 75.2637,87.3580 Z"
       id="path17" />
    <path
       style="fill:#000000;fill-opacity:1;stroke:none;fill-rule:evenodd"
       d="M 74.3637,85.3580 74.2681,85.3389 74.1869,85.2848 74.1328,85.2037 74.1137,85.1080 74.1137,84.4080 74.1328,84.3123 74.1869,84.2312 74.2681,84.1770 74.3637,84.1580 75.2637,84.1580 75.3594,84.1770 75.4405,84.2312 75.4947,84.3123 75.5137,84.4080 75.5137,85.1080 75.4947,85.2037 75.4405,85.2848 75.3594,85.3389 75.2637,85.3580 Z"
       id="path18" />
    <path
       style="fill:#000000;fill-opacity:1;stroke:none;fill-rule:evenodd"
       d="M 77.6045,92.1000 77.5089,92.0810 77.4277,92.0268 77.3736,91.9457 77.3545,91.8500 77.3545,91.1500 77.3736,91.0543 77.4277,90.9732 77.5089,90.9190 77.6045,90.9000 78.5045,90.9000 78.6002,90.9190 78.6813,90.9732 78.7355,91.0543 78.7545,91.1500 78.7545,91.8500 78.7355,91.9457 78.6813,92.0268 78.6002,92.0810 78.5045,92.1000 Z"
       id="path19" />
    <path
       style="fill:#000000;fill-opacity:1;stroke:none;fill-rule:evenodd"
       d="M 77.6045,90.1000 77.5089,90.0810 77.4277,90.0268 77.3736,89.9457 77.3545,89.8500 77.3545,89.1500 77.3736,89.0543 77.4277,88.9732 77.5089,88.9190 77.6045,88.9000 78.5045,88.9000 78.6002,88.9190 78.6813,88.9732 78.7355,89.0543 78.7545,89.1500 78.7545,89.8500 78.7355,89.9457 78.6813,90.0268 78.6002,90.0810 78.5045,90.1000 Z"
       id="path20" />
    <path
       style="fill:#000000;fill-opacity:1;stroke:none;fill-rule:evenodd"
       d="M 96.6545,116.7630 96.7454,116.7811 96.8224,116.8326 96.8739,116.9096 96.8920,117.0005 96.8920,117.5755 96.8739,117.6664 96.8224,117.7434 96.7454,117.7949 96.6545,117.8130 96.1795,117.8130 96.0886,117.7949 96.0116,117.7434 95.9601,117.6664 95.9420,117.5755 95.9420,117.0005 95.9601,116.9096 96.0116,116.8326 96.0886,116.7811 96.1795,116.7630 Z"
       id="path21" />
    <path
       style="fill:#000000;fill-opacity:1;stroke:none;fill-rule:evenodd"
       d="M 96.6545,118.5130 96.7454,118.5311 96.8224,118.5826 96.8739,118.6596 96.8920,118.7505 96.8920,119.3255 96.8739,119.4164 96.8224,119.4934 96.7454,119.5449 96.6545,119.5630 96.1795,119.5630 96.0886,119.5449 96.0116,119.4934 95.9601,119.4164 95.9420,119.3255 95.9420,118.7505 95.9601,118.6596 96.0116,118.5826 96.0886,118.5311 96.1795,118.5130 Z"
       id="path22" />
    <path
       style="fill:#000000;fill-opacity:1;stroke:none;fill-rule:evenodd"
       d="M 77.5500,77.8419 77.4543,77.8229 77.3732,77.7687 77.3190,77.6876 77.3000,77.5919 77.3000,76.8919 77.3190,76.7963 77.3732,76.7152 77.4543,76.6610 77.5500,76.6419 78.4500,76.6419 78.5457,76.6610 78.6268,76.7152 78.6810,76.7963 78.7000,76.8919 78.7000,77.5919 78.6810,77.6876 78.6268,77.7687 78.5457,77.8229 78.4500,77.8419 Z"
       id="path23" />
    <path
       style="fill:#000000;fill-opacity:1;stroke:none;fill-rule:evenodd"
       d="M 77.5500,75.8419 77.4543,75.8229 77.3732,75.7687 77.3190,75.6876 77.3000,75.5919 77.3000,74.8919 77.3190,74.7963 77.3732,74.7152 77.4543,74.6610 77.5500,74.6419 78.4500,74.6419 78.5457,74.6610 78.6268,74.7152 78.6810,74.7963 78.7000,74.8919 78.7000,75.5919 78.6810,75.6876 78.6268,75.7687 78.5457,75.8229 78.4500,75.8419 Z"
       id="path24" />
    <path
       style="fill:#000000;fill-opacity:1;stroke:none;fill-rule:evenodd"
       d="M 77.6045,73.0999 77.5089,73.0809 77.4277,73.0267 77.3736,72.9456 77.3545,72.8499 77.3545,72.1499 77.3736,72.0542 77.4277,71.9731 77.5089,71.9189 77.6045,71.8999 78.5045,71.8999 78.6002,71.9189 78.6813,71.9731 78.7355,72.0542 78.7545,72.1499 78.7545,72.8499 78.7355,72.9456 78.6813,73.0267 78.6002,73.0809 78.5045,73.0999 Z"
       id="path25" />
    <path
       style="fill:#000000;fill-opacity:1;stroke:none;fill-rule:evenodd"
       d="M 77.6045,71.0999 77.5089,71.0809 77.4277,71.0267 77.3736,70.9456 77.3545,70.8499 77.3545,70.1499 77.3736,70.0542 77.4277,69.9731 77.5089,69.9189 77.6045,69.8999 78.5045,69.8999 78.6002,69.9189 78.6813,69.9731 78.7355,70.0542 78.7545,70.1499 78.7545,70.8499 78.7355,70.9456 78.6813,71.0267 78.6002,71.0809 78.5045,71.0999 Z"
       id="path26" />
    <path
       style="fill:#000000;fill-opacity:1;stroke:none;fill-rule:evenodd"
       d="M 77.6045,82.5840 77.5089,82.5649 77.4277,82.5107 77.3736,82.4296 77.3545,82.3340 77.3545,81.6340 77.3736,81.5383 77.4277,81.4572 77.5089,81.4030 77.6045,81.3840 78.5045,81.3840 78.6002,81.4030 78.6813,81.4572 78.7355,81.5383 78.7545,81.6340 78.7545,82.3340 78.7355,82.4296 78.6813,82.5107 78.6002,82.5649 78.5045,82.5840 Z"
       id="path27" />
    <path
       style="fill:#000000;fill-opacity:1;stroke:none;fill-rule:evenodd"
       d="M 77.6045,80.5840 77.5089,80.5649 77.4277,80.5107 77.3736,80.4296 77.3545,80.3340 77.3545,79.6340 77.3736,79.5383 77.4277,79.4572 77.5089,79.4030 77.6045,79.3840 78.5045,79.3840 78.6002,79.4030 78.6813,79.4572 78.7355,79.5383 78.7545,79.6340 78.7545,80.3340 78.7355,80.4296 78.6813,80.5107 78.6002,80.5649 78.5045,80.5840 Z"
       id="path28" />
    <path
       style="fill:#000000;fill-opacity:1;stroke:none;fill-rule:evenodd"
       d="M 64.4500,129.9000 64.3543,129.8810 64.2732,129.8268 64.2190,129.7457 64.2000,129.6500 64.2000,128.9500 64.2190,128.8543 64.2732,128.7732 64.3543,128.7190 64.4500,128.7000 65.3500,128.7000 65.4457,128.7190 65.5268,128.7732 65.5810,128.8543 65.6000,128.9500 65.6000,129.6500 65.5810,129.7457 65.5268,129.8268 65.4457,129.8810 65.3500,129.9000 Z"
       id="path29" />
    <path
       style="fill:#000000;fill-opacity:1;stroke:none;fill-rule:evenodd"
       d="M 64.4500,127.9000 64.3543,127.8810 64.2732,127.8268 64.2190,127.7457 64.2000,127.6500 64.2000,126.9500 64.2190,126.8543 64.2732,126.7732 64.3543,126.7190 64.4500,126.7000 65.3500,126.7000 65.4457,126.7190 65.5268,126.7732 65.5810,126.8543 65.6000,126.9500 65.6000,127.6500 65.5810,127.7457 65.5268,127.8268 65.4457,127.8810 65.3500,127.9000 Z"
       id="path30" />
    <path
       style="fill:#000000;fill-opacity:1;stroke:none;fill-rule:evenodd"
       d="M 107.2125,74.5000 107.1407,74.4857 107.0799,74.4451 107.0393,74.3843 107.0250,74.3125 107.0250,72.8875 107.0393,72.8157 107.0799,72.7549 107.1407,72.7143 107.2125,72.7000 107.5875,72.7000 107.6593,72.7143 107.7201,72.7549 107.7607,72.8157 107.7750,72.8875 107.7750,74.3125 107.7607,74.3843 107.7201,74.4451 107.6593,74.4857 107.5875,74.5000 Z"
       id="path31" />
    <path
       style="fill:#000000;fill-opacity:1;stroke:none;fill-rule:evenodd"
       d="M 105.7625,74.5000 105.6907,74.4857 105.6299,74.4451 105.5893,74.3843 105.5750,74.3125 105.5750,72.8875 105.5893,72.8157 105.6299,72.7549 105.6907,72.7143 105.7625,72.7000 106.1375,72.7000 106.2093,72.7143 106.2701,72.7549 106.3107,72.8157 106.3250,72.8875 106.3250,74.3125 106.3107,74.3843 106.2701,74.4451 106.2093,74.4857 106.1375,74.5000 Z"
       id="path32" />
    <path
       style="fill:#000000;fill-opacity:1;stroke:none;fill-rule:evenodd"
       d="M 107.2125,77.9000 107.1407,77.8857 107.0799,77.8451 107.0393,77.7843 107.0250,77.7125 107.0250,76.2875 107.0393,76.2157 107.0799,76.1549 107.1407,76.1143 107.2125,76.1000 107.5875,76.1000 107.6593,76.1143 107.7201,76.1549 107.7607,76.2157 107.7750,76.2875 107.7750,77.7125 107.7607,77.7843 107.7201,77.8451 107.6593,77.8857 107.5875,77.9000 Z"
       id="path33" />
    <path
       style="fill:#000000;fill-opacity:1;stroke:none;fill-rule:evenodd"
       d="M 105.7625,77.9000 105.6907,77.8857 105.6299,77.8451 105.5893,77.7843 105.5750,77.7125 105.5750,76.2875 105.5893,76.2157 105.6299,76.1549 105.6907,76.1143 105.7625,76.1000 106.1375,76.1000 106.2093,76.1143 106.2701,76.1549 106.3107,76.2157 106.3250,76.2875 106.3250,77.7125 106.3107,77.7843 106.2701,77.8451 106.2093,77.8857 106.1375,77.9000 Z"
       id="path34" />
    <path
       style="fill:#000000;fill-opacity:1;stroke:none;fill-rule:evenodd"
       d="M 74.2989,92.1000 74.2033,92.0810 74.1221,92.0268 74.0680,91.9457 74.0489,91.8500 74.0489,91.1500 74.0680,91.0543 74.1221,90.9732 74.2033,90.9190 74.2989,90.9000 75.1989,90.9000 75.2946,90.9190 75.3757,90.9732 75.4299,91.0543 75.4489,91.1500 75.4489,91.8500 75.4299,91.9457 75.3757,92.0268 75.2946,92.0810 75.1989,92.1000 Z"
       id="path35" />
    <path
       style="fill:#000000;fill-opacity:1;stroke:none;fill-rule:evenodd"
       d="M 74.2989,90.1000 74.2033,90.0810 74.1221,90.0268 74.0680,89.9457 74.0489,89.8500 74.0489,89.1500 74.0680,89.0543 74.1221,88.9732 74.2033,88.9190 74.2989,88.9000 75.1989,88.9000 75.2946,88.9190 75.3757,88.9732 75.4299,89.0543 75.4489,89.1500 75.4489,89.8500 75.4299,89.9457 75.3757,90.0268 75.2946,90.0810 75.1989,90.1000 Z"
       id="path36" />
    <path
       style="fill:#000000;fill-opacity:1;stroke:none;fill-rule:evenodd"
       d="M 91.8285,116.7630 91.9194,116.7811 91.9964,116.8326 92.0479,116.9096 92.0660,117.0005 92.0660,117.5755 92.0479,117.6664 91.9964,117.7434 91.9194,117.7949 91.8285,117.8130 91.3535,117.8130 91.2626,117.7949 91.1856,117.7434 91.1341,117.6664 91.1160,117.5755 91.1160,117.0005 91.1341,116.9096 91.1856,116.8326 91.2626,116.7811 91.3535,116.7630 Z"
       id="path37" />
    <path
       style="fill:#000000;fill-opacity:1;stroke:none;fill-rule:evenodd"
       d="M 91.8285,118.5130 91.9194,118.5311 91.9964,118.5826 92.0479,118.6596 92.0660,118.7505 92.0660,119.3255 92.0479,119.4164 91.9964,119.4934 91.9194,119.5449 91.8285,119.5630 91.3535,119.5630 91.2626,119.5449 91.1856,119.4934 91.1341,119.4164 91.1160,119.3255 91.1160,118.7505 91.1341,118.6596 91.1856,118.5826 91.2626,118.5311 91.3535,118.5130 Z"
       id="path38" />
    <path
       style="fill:#000000;fill-opacity:1;stroke:none;fill-rule:evenodd"
       d="M 74.2989,73.0999 74.2033,73.0809 74.1221,73.0267 74.0680,72.9456 74.0489,72.8499 74.0489,72.1499 74.0680,72.0542 74.1221,71.9731 74.2033,71.9189 74.2989,71.8999 75.1989,71.8999 75.2946,71.9189 75.3757,71.9731 75.4299,72.0542 75.4489,72.1499 75.4489,72.8499 75.4299,72.9456 75.3757,73.0267 75.2946,73.0809 75.1989,73.0999 Z"
       id="path39" />
    <path
       style="fill:#000000;fill-opacity:1;stroke:none;fill-rule:evenodd"
       d="M 74.2989,71.0999 74.2033,71.0809 74.1221,71.0267 74.0680,70.9456 74.0489,70.8499 74.0489,70.1499 74.0680,70.0542 74.1221,69.9731 74.2033,69.9189 74.2989,69.8999 75.1989,69.8999 75.2946,69.9189 75.3757,69.9731 75.4299,70.0542 75.4489,70.1499 75.4489,70.8499 75.4299,70.9456 75.3757,71.0267 75.2946,71.0809 75.1989,71.0999 Z"
       id="path40" />
    <path
       style="fill:#000000;fill-opacity:1;stroke:none;fill-rule:evenodd"
       d="M 77.5555,67.8000 77.4599,67.7810 77.3787,67.7268 77.3246,67.6457 77.3055,67.5500 77.3055,66.8500 77.3246,66.7543 77.3787,66.6732 77.4599,66.6190 77.5555,66.6000 78.4555,66.6000 78.5512,66.6190 78.6323,66.6732 78.6865,66.7543 78.7055,66.8500 78.7055,67.5500 78.6865,67.6457 78.6323,67.7268 78.5512,67.7810 78.4555,67.8000 Z"
       id="path41" />
    <path
       style="fill:#000000;fill-opacity:1;stroke:none;fill-rule:evenodd"
       d="M 77.5555,65.8000 77.4599,65.7810 77.3787,65.7268 77.3246,65.6457 77.3055,65.5500 77.3055,64.8500 77.3246,64.7543 77.3787,64.6732 77.4599,64.6190 77.5555,64.6000 78.4555,64.6000 78.5512,64.6190 78.6323,64.6732 78.6865,64.7543 78.7055,64.8500 78.7055,65.5500 78.6865,65.6457 78.6323,65.7268 78.5512,65.7810 78.4555,65.8000 Z"
       id="path42" />
  </g>
  <path
     d="M 123.7347,62.6583 V 139.314"
     id="path43"
     style="fill:none;stroke:#ff0000;stroke-width:0.26458333;stroke-linecap:round;stroke-linejoin:round;stroke-opacity:1;stroke-dasharray:none" />
  <path
     d="m 40.1306,86.2 v 53.114"
     id="path44"
     style="fill:none;stroke:#ff0000;stroke-width:0.26458333;stroke-linecap:round;stroke-linejoin:round;stroke-opacity:1;stroke-dasharray:none" />
  <path
     d="M 50,86.2 H 40.1306"
     id="path45"
     style="fill:none;stroke:#ff0000;stroke-width:0.26458333;stroke-linecap:round;stroke-linejoin:round;stroke-opacity:1;stroke-dasharray:none" />
  <path
     d="M 50,62.6583 V 86.2"
     id="path46"
     style="fill:none;stroke:#ff0000;stroke-width:0.26458333;stroke-linecap:round;stroke-linejoin:round;stroke-opacity:1;stroke-dasharray:none" />
  <path
     d="M 123.7347,139.314 H 40.1306"
     id="path47"
     style="fill:none;stroke:#ff0000;stroke-width:0.26458333;stroke-linecap:round;stroke-linejoin:round;stroke-opacity:1;stroke-dasharray:none" />
  <path
     d="m 50,62.6583 h 73.7347"
     id="path48"
     style="fill:none;stroke:#ff0000;stroke-width:0.26458333;stroke-linecap:round;stroke-linejoin:round;stroke-opacity:1;stroke-dasharray:none" />
</svg>
