M48
; DRILL file {KiCad 8.0.6} date 2026-06-02T12:03:05+0200
; FORMAT={-:-/ absolute / inch / decimal}
; #@! TF.CreationDate,2026-06-02T12:03:05+02:00
; #@! TF.GenerationSoftware,Kicad,Pcbnew,8.0.6
; #@! TF.FileFunction,Plated,1,2,PTH
FMAT,2
INCH
; #@! TA.AperFunction,Plated,PTH,ViaDrill
T1C0.0236
; #@! TA.AperFunction,Plated,PTH,ViaDrill
T2C0.0315
; #@! TA.AperFunction,Plated,PTH,ComponentDrill
T3C0.0315
; #@! TA.AperFunction,Plated,PTH,ComponentDrill
T4C0.0354
; #@! TA.AperFunction,Plated,PTH,ComponentDrill
T5C0.0394
; #@! TA.AperFunction,Plated,PTH,ComponentDrill
T6C0.0472
; #@! TA.AperFunction,Plated,PTH,ComponentDrill
T7C0.0551
%
G90
G05
T1
X1.8199Y-4.7362
X1.9159Y-5.4221
X2.0787Y-4.2992
X2.126Y-3.1811
X2.126Y-3.2835
X2.2126Y-3.126
X2.2126Y-3.248
X2.2421Y-5.0413
X2.302Y-2.9645
X2.302Y-3.0551
X2.3386Y-4.9409
X2.6159Y-4.2021
X2.7765Y-4.0766
X2.8477Y-3.984
X2.9547Y-4.9055
X2.9641Y-4.7495
X3.0109Y-3.8821
X3.0492Y-4.878
X3.0859Y-4.3071
X3.1398Y-5.2224
X3.2819Y-4.1021
X3.4507Y-4.5321
X3.4859Y-4.6721
X3.6059Y-4.7771
X3.6459Y-3.7321
X3.6459Y-3.984
X3.6496Y-2.815
X3.7959Y-4.7771
X3.8209Y-4.1721
X3.8259Y-4.0371
X3.8959Y-3.9171
X3.9409Y-5.0471
X4.1003Y-5.0471
X4.1419Y-4.4581
X4.5443Y-4.7067
X4.5817Y-3.2165
X4.5963Y-4.8425
X4.7264Y-3.6909
X4.7495Y-4.2874
T2
X4.3645Y-4.7221
T3
X3.2509Y-4.8971
X3.3691Y-4.8971
T4
X2.3879Y-3.4869
X2.3879Y-4.2743
T5
X1.8189Y-4.1732
X1.8189Y-4.2732
X1.8189Y-4.3732
X1.8189Y-4.4732
X1.8199Y-5.3031
X1.9199Y-5.3031
X2.0199Y-5.3031
X2.1199Y-5.3031
X2.5601Y-2.9161
X2.6601Y-2.9161
X2.7201Y-5.0758
X2.8201Y-5.0758
X2.9201Y-5.0758
X3.0201Y-5.0758
X3.0939Y-4.4725
X3.0939Y-4.5725
X3.0939Y-4.6725
X3.0939Y-4.7725
X3.1201Y-5.0758
X3.2659Y-4.3841
X3.2659Y-4.4841
X3.2659Y-4.5841
X3.2659Y-4.6841
X3.3391Y-2.5909
X3.3391Y-3.2909
X3.4391Y-2.5909
X3.4391Y-3.2909
X3.7023Y-3.5521
X3.8023Y-3.5521
X3.9023Y-3.5521
X4.0023Y-3.5521
X4.0539Y-3.8181
X4.0539Y-3.9181
X4.0539Y-4.0181
X4.0539Y-4.1181
X4.0539Y-4.2181
X4.0539Y-4.3181
T6
X3.5009Y-5.2771
X3.6387Y-5.2771
X3.7765Y-5.2771
X3.9143Y-5.2771
T7
X4.6909Y-2.8425
X4.6909Y-3.0394
T3
G00X4.3209Y-5.1457
M15
G01X4.3209Y-5.248
M16
G05
G00X4.4823Y-5.3858
M15
G01X4.3957Y-5.3858
M16
G05
G00X4.5492Y-5.1535
M15
G01X4.5492Y-5.2402
M16
G05
M30
