%TF.GenerationSoftware,KiCad,Pcbnew,8.0.6*%
%TF.CreationDate,2026-06-02T12:02:33+02:00*%
%TF.ProjectId,controle,636f6e74-726f-46c6-952e-6b696361645f,rev?*%
%TF.SameCoordinates,Original*%
%TF.FileFunction,Soldermask,Top*%
%TF.FilePolarity,Negative*%
%FSLAX46Y46*%
G04 Gerber Fmt 4.6, Leading zero omitted, Abs format (unit mm)*
G04 Created by KiCad (PCBNEW 8.0.6) date 2026-06-02 12:02:33*
%MOMM*%
%LPD*%
G01*
G04 APERTURE LIST*
G04 Aperture macros list*
%AMRoundRect*
0 Rectangle with rounded corners*
0 $1 Rounding radius*
0 $2 $3 $4 $5 $6 $7 $8 $9 X,Y pos of 4 corners*
0 Add a 4 corners polygon primitive as box body*
4,1,4,$2,$3,$4,$5,$6,$7,$8,$9,$2,$3,0*
0 Add four circle primitives for the rounded corners*
1,1,$1+$1,$2,$3*
1,1,$1+$1,$4,$5*
1,1,$1+$1,$6,$7*
1,1,$1+$1,$8,$9*
0 Add four rect primitives between the rounded corners*
20,1,$1+$1,$2,$3,$4,$5,0*
20,1,$1+$1,$4,$5,$6,$7,0*
20,1,$1+$1,$6,$7,$8,$9,0*
20,1,$1+$1,$8,$9,$2,$3,0*%
G04 Aperture macros list end*
%ADD10RoundRect,0.150000X0.150000X-0.512500X0.150000X0.512500X-0.150000X0.512500X-0.150000X-0.512500X0*%
%ADD11RoundRect,0.250000X-0.350000X-0.450000X0.350000X-0.450000X0.350000X0.450000X-0.350000X0.450000X0*%
%ADD12RoundRect,0.250000X-0.337500X-0.475000X0.337500X-0.475000X0.337500X0.475000X-0.337500X0.475000X0*%
%ADD13RoundRect,0.250000X0.337500X0.475000X-0.337500X0.475000X-0.337500X-0.475000X0.337500X-0.475000X0*%
%ADD14RoundRect,0.250000X0.350000X0.450000X-0.350000X0.450000X-0.350000X-0.450000X0.350000X-0.450000X0*%
%ADD15RoundRect,0.250000X0.450000X-0.350000X0.450000X0.350000X-0.450000X0.350000X-0.450000X-0.350000X0*%
%ADD16RoundRect,0.150000X-0.150000X0.587500X-0.150000X-0.587500X0.150000X-0.587500X0.150000X0.587500X0*%
%ADD17RoundRect,0.150000X0.825000X0.150000X-0.825000X0.150000X-0.825000X-0.150000X0.825000X-0.150000X0*%
%ADD18RoundRect,0.250000X0.412500X1.100000X-0.412500X1.100000X-0.412500X-1.100000X0.412500X-1.100000X0*%
%ADD19O,5.000000X3.200000*%
%ADD20R,3.300000X3.000000*%
%ADD21RoundRect,0.237500X0.300000X0.237500X-0.300000X0.237500X-0.300000X-0.237500X0.300000X-0.237500X0*%
%ADD22RoundRect,0.250000X1.000000X0.650000X-1.000000X0.650000X-1.000000X-0.650000X1.000000X-0.650000X0*%
%ADD23RoundRect,0.237500X0.237500X-0.300000X0.237500X0.300000X-0.237500X0.300000X-0.237500X-0.300000X0*%
%ADD24RoundRect,0.150000X-0.150000X0.825000X-0.150000X-0.825000X0.150000X-0.825000X0.150000X0.825000X0*%
%ADD25RoundRect,0.237500X-0.300000X-0.237500X0.300000X-0.237500X0.300000X0.237500X-0.300000X0.237500X0*%
%ADD26C,1.000000*%
%ADD27R,0.698500X1.798320*%
%ADD28RoundRect,0.250000X-0.412500X-1.100000X0.412500X-1.100000X0.412500X1.100000X-0.412500X1.100000X0*%
%ADD29C,2.000000*%
%ADD30R,6.000000X2.500000*%
%ADD31R,2.500000X1.000000*%
%ADD32RoundRect,0.250000X-0.450000X0.350000X-0.450000X-0.350000X0.450000X-0.350000X0.450000X0.350000X0*%
%ADD33RoundRect,0.150000X0.150000X-0.825000X0.150000X0.825000X-0.150000X0.825000X-0.150000X-0.825000X0*%
%ADD34R,3.300000X2.410000*%
%ADD35RoundRect,0.237500X-0.237500X0.300000X-0.237500X-0.300000X0.237500X-0.300000X0.237500X0.300000X0*%
%ADD36RoundRect,0.150000X-0.825000X-0.150000X0.825000X-0.150000X0.825000X0.150000X-0.825000X0.150000X0*%
%ADD37R,2.500000X1.900000*%
%ADD38O,2.500000X1.900000*%
%ADD39R,1.900000X2.500000*%
%ADD40O,1.900000X2.500000*%
%ADD41RoundRect,0.305556X-0.794444X-1.494444X0.794444X-1.494444X0.794444X1.494444X-0.794444X1.494444X0*%
%ADD42O,2.200000X3.600000*%
%ADD43O,5.000000X3.400000*%
%ADD44C,3.200000*%
%ADD45C,2.540000*%
%ADD46R,2.800000X5.400000*%
%ADD47O,2.800000X5.000000*%
%ADD48O,5.000000X2.800000*%
G04 APERTURE END LIST*
D10*
%TO.C,U5*%
X59637500Y-133350000D03*
X60587500Y-133350000D03*
X61537500Y-133350000D03*
X61537500Y-131075000D03*
X59637500Y-131075000D03*
%TD*%
D11*
%TO.C,R26*%
X113350000Y-125700000D03*
X115350000Y-125700000D03*
%TD*%
D12*
%TO.C,C15*%
X59462500Y-127700000D03*
X61537500Y-127700000D03*
%TD*%
D13*
%TO.C,C14*%
X61537500Y-136578000D03*
X59462500Y-136578000D03*
%TD*%
D14*
%TO.C,R21*%
X91625800Y-123649400D03*
X89625800Y-123649400D03*
%TD*%
D15*
%TO.C,R4*%
X94740600Y-103294600D03*
X94740600Y-101294600D03*
%TD*%
D16*
%TO.C,Q4*%
X81654600Y-105096800D03*
X79754600Y-105096800D03*
X80704600Y-106971800D03*
%TD*%
D17*
%TO.C,U6*%
X73258600Y-121895400D03*
X73258600Y-120625400D03*
X73258600Y-119355400D03*
X73258600Y-118085400D03*
X73258600Y-116815400D03*
X73258600Y-115545400D03*
X73258600Y-114275400D03*
X68308600Y-114275400D03*
X68308600Y-115545400D03*
X68308600Y-116815400D03*
X68308600Y-118085400D03*
X68308600Y-119355400D03*
X68308600Y-120625400D03*
X68308600Y-121895400D03*
%TD*%
D18*
%TO.C,C7*%
X110857600Y-116774200D03*
X107732600Y-116774200D03*
%TD*%
D11*
%TO.C,R24*%
X59500000Y-123100000D03*
X61500000Y-123100000D03*
%TD*%
D19*
%TO.C,H3*%
X61477000Y-67563000D03*
%TD*%
D20*
%TO.C,L1*%
X117612500Y-103903000D03*
X117612500Y-96903000D03*
%TD*%
D16*
%TO.C,Q3*%
X86887000Y-105096800D03*
X84987000Y-105096800D03*
X85937000Y-106971800D03*
%TD*%
D21*
%TO.C,C10*%
X121119200Y-125003800D03*
X119394200Y-125003800D03*
%TD*%
D14*
%TO.C,R20*%
X96959800Y-123649400D03*
X94959800Y-123649400D03*
%TD*%
D22*
%TO.C,D4*%
X104132000Y-124386000D03*
X100132000Y-124386000D03*
%TD*%
D14*
%TO.C,R22*%
X86870200Y-101790200D03*
X84870200Y-101790200D03*
%TD*%
D23*
%TO.C,C2*%
X54561000Y-96520000D03*
X54561000Y-94795000D03*
%TD*%
D24*
%TO.C,U3*%
X95774200Y-108982400D03*
X94504200Y-108982400D03*
X93234200Y-108982400D03*
X91964200Y-108982400D03*
X91964200Y-113932400D03*
X93234200Y-113932400D03*
X94504200Y-113932400D03*
X95774200Y-113932400D03*
%TD*%
D12*
%TO.C,C4*%
X91997400Y-117807400D03*
X94072400Y-117807400D03*
%TD*%
D11*
%TO.C,R10*%
X50373400Y-130483799D03*
X52373400Y-130483799D03*
%TD*%
D19*
%TO.C,H4*%
X61477000Y-117563000D03*
%TD*%
D14*
%TO.C,R23*%
X81790200Y-101790200D03*
X79790200Y-101790200D03*
%TD*%
D16*
%TO.C,Q2*%
X91605900Y-126905200D03*
X89705900Y-126905200D03*
X90655900Y-128780200D03*
%TD*%
D25*
%TO.C,C1*%
X60405000Y-96827000D03*
X62130000Y-96827000D03*
%TD*%
D18*
%TO.C,C6*%
X110857600Y-111033800D03*
X107732600Y-111033800D03*
%TD*%
D26*
%TO.C,GPIO-1*%
X66597000Y-92558000D03*
X89457000Y-92558000D03*
D27*
X65962000Y-94590000D03*
X65962000Y-90526000D03*
X67232000Y-94590000D03*
X67232000Y-90526000D03*
X68502000Y-94590000D03*
X68502000Y-90526000D03*
X69772000Y-94590000D03*
X69772000Y-90526000D03*
X71042000Y-94590000D03*
X71042000Y-90526000D03*
X72312000Y-94590000D03*
X72312000Y-90526000D03*
X73582000Y-94590000D03*
X73582000Y-90526000D03*
X74852000Y-94590000D03*
X74852000Y-90526000D03*
X76122000Y-94590000D03*
X76122000Y-90526000D03*
X77392000Y-94590000D03*
X77392000Y-90526000D03*
X78662000Y-94590000D03*
X78662000Y-90526000D03*
X79932000Y-94590000D03*
X79932000Y-90526000D03*
X81202000Y-94590000D03*
X81202000Y-90526000D03*
X82472000Y-94590000D03*
X82472000Y-90526000D03*
X83742000Y-94590000D03*
X83742000Y-90526000D03*
X85012000Y-94590000D03*
X85012000Y-90526000D03*
X86282000Y-94590000D03*
X86282000Y-90526000D03*
X87552000Y-94590000D03*
X87552000Y-90526000D03*
X88822000Y-94590000D03*
X88822000Y-90526000D03*
X90092000Y-94590000D03*
X90092000Y-90526000D03*
%TD*%
D23*
%TO.C,C5*%
X98881400Y-112878700D03*
X98881400Y-111153700D03*
%TD*%
D17*
%TO.C,U1*%
X68527800Y-86667000D03*
X68527800Y-85397000D03*
X68527800Y-84127000D03*
X68527800Y-82857000D03*
X68527800Y-81587000D03*
X68527800Y-80317000D03*
X68527800Y-79047000D03*
X68527800Y-77777000D03*
X63577800Y-77777000D03*
X63577800Y-79047000D03*
X63577800Y-80317000D03*
X63577800Y-81587000D03*
X63577800Y-82857000D03*
X63577800Y-84127000D03*
X63577800Y-85397000D03*
X63577800Y-86667000D03*
%TD*%
D14*
%TO.C,R27*%
X121150000Y-82400000D03*
X119150000Y-82400000D03*
%TD*%
D25*
%TO.C,C16*%
X70308000Y-125402000D03*
X72033000Y-125402000D03*
%TD*%
D28*
%TO.C,C13*%
X113250000Y-91603000D03*
X116375000Y-91603000D03*
%TD*%
D14*
%TO.C,R29*%
X69731000Y-132006000D03*
X67731000Y-132006000D03*
%TD*%
D19*
%TO.C,H2*%
X102337000Y-117563000D03*
%TD*%
D28*
%TO.C,C12*%
X113250000Y-86650000D03*
X116375000Y-86650000D03*
%TD*%
D29*
%TO.C,FID2*%
X43229400Y-128348400D03*
%TD*%
D25*
%TO.C,C17*%
X71959000Y-132006000D03*
X73684000Y-132006000D03*
%TD*%
D21*
%TO.C,C8*%
X117917700Y-107935000D03*
X116192700Y-107935000D03*
%TD*%
D29*
%TO.C,FID1*%
X119000000Y-66900000D03*
%TD*%
D30*
%TO.C,Y1*%
X48541000Y-100764000D03*
D31*
X54561000Y-102034000D03*
X54561000Y-99494000D03*
%TD*%
D15*
%TO.C,R3*%
X99101400Y-104294600D03*
X99101400Y-102294600D03*
%TD*%
D32*
%TO.C,R32*%
X83844000Y-128212000D03*
X83844000Y-130212000D03*
%TD*%
D33*
%TO.C,U4*%
X115455000Y-116758900D03*
X116725000Y-116758900D03*
X117995000Y-116758900D03*
X119265000Y-116758900D03*
X119265000Y-111808900D03*
X117995000Y-111808900D03*
X116725000Y-111808900D03*
X115455000Y-111808900D03*
D34*
X117360000Y-114283900D03*
%TD*%
D35*
%TO.C,C3*%
X54561000Y-104981500D03*
X54561000Y-106706500D03*
%TD*%
D15*
%TO.C,R19*%
X99101400Y-108901400D03*
X99101400Y-106901400D03*
%TD*%
D25*
%TO.C,C11*%
X119300000Y-86566000D03*
X121025000Y-86566000D03*
%TD*%
D16*
%TO.C,Q1*%
X96909800Y-127006800D03*
X95009800Y-127006800D03*
X95959800Y-128881800D03*
%TD*%
D19*
%TO.C,H1*%
X102337000Y-67563000D03*
%TD*%
D11*
%TO.C,R30*%
X66038600Y-125400600D03*
X68038600Y-125400600D03*
%TD*%
D14*
%TO.C,R17*%
X104259000Y-130990000D03*
X102259000Y-130990000D03*
%TD*%
D11*
%TO.C,R25*%
X119162500Y-90503000D03*
X121162500Y-90503000D03*
%TD*%
D25*
%TO.C,C9*%
X119368800Y-120800500D03*
X121093800Y-120800500D03*
%TD*%
D32*
%TO.C,R18*%
X88898600Y-110254200D03*
X88898600Y-112254200D03*
%TD*%
D29*
%TO.C,FID3*%
X106000000Y-135500000D03*
%TD*%
D36*
%TO.C,U2*%
X57939000Y-100510000D03*
X57939000Y-101780000D03*
X57939000Y-103050000D03*
X57939000Y-104320000D03*
X62889000Y-104320000D03*
X62889000Y-103050000D03*
X62889000Y-101780000D03*
X62889000Y-100510000D03*
%TD*%
D11*
%TO.C,R9*%
X49357400Y-126775399D03*
X51357400Y-126775399D03*
%TD*%
D37*
%TO.C,J12*%
X78586200Y-113601000D03*
D38*
X78586200Y-116141000D03*
X78586200Y-118681000D03*
X78586200Y-121221000D03*
%TD*%
D39*
%TO.C,J10*%
X69091600Y-128926400D03*
D40*
X71631600Y-128926400D03*
X74171600Y-128926400D03*
X76711600Y-128926400D03*
X79251600Y-128926400D03*
%TD*%
D37*
%TO.C,J1*%
X102970200Y-96979400D03*
D38*
X102970200Y-99519400D03*
X102970200Y-102059400D03*
X102970200Y-104599400D03*
X102970200Y-107139400D03*
X102970200Y-109679400D03*
%TD*%
D39*
%TO.C,J4*%
X67567600Y-74068600D03*
D40*
X65027600Y-74068600D03*
%TD*%
D29*
%TO.C,R31*%
X82574000Y-124386000D03*
X85574000Y-124386000D03*
%TD*%
D41*
%TO.C,J8*%
X88924000Y-134038000D03*
D42*
X92424000Y-134038000D03*
X95924000Y-134038000D03*
X99424000Y-134038000D03*
%TD*%
D37*
%TO.C,J11*%
X82955000Y-111355800D03*
D38*
X82955000Y-113895800D03*
X82955000Y-116435800D03*
X82955000Y-118975800D03*
%TD*%
D37*
%TO.C,J2*%
X46200000Y-113620000D03*
D38*
X46200000Y-111080000D03*
X46200000Y-108540000D03*
X46200000Y-106000000D03*
%TD*%
D43*
%TO.C,+5V1*%
X119150000Y-72200000D03*
X119150000Y-77200000D03*
%TD*%
D44*
%TO.C,H5*%
X53887000Y-74700000D03*
%TD*%
D39*
%TO.C,J7*%
X84812000Y-83590000D03*
D40*
X87352000Y-83590000D03*
%TD*%
D39*
%TO.C,J5*%
X94039400Y-90223000D03*
D40*
X96579400Y-90223000D03*
X99119400Y-90223000D03*
X101659400Y-90223000D03*
%TD*%
D45*
%TO.C,BT1*%
X60653800Y-108568000D03*
X60653800Y-88568000D03*
%TD*%
D39*
%TO.C,J6*%
X87352000Y-65810000D03*
D40*
X84812000Y-65810000D03*
%TD*%
D46*
%TO.C,J9*%
X109750000Y-132000000D03*
D47*
X115550000Y-132000000D03*
D48*
X112750000Y-136800000D03*
%TD*%
D39*
%TO.C,J3*%
X53846600Y-134700000D03*
D40*
X51306600Y-134700000D03*
X48766600Y-134700000D03*
X46226600Y-134700000D03*
%TD*%
M02*
