%TF.GenerationSoftware,KiCad,Pcbnew,8.0.6*%
%TF.CreationDate,2026-06-02T12:02:33+02:00*%
%TF.ProjectId,controle,636f6e74-726f-46c6-952e-6b696361645f,rev?*%
%TF.SameCoordinates,Original*%
%TF.FileFunction,Soldermask,Bot*%
%TF.FilePolarity,Negative*%
%FSLAX46Y46*%
G04 Gerber Fmt 4.6, Leading zero omitted, Abs format (unit mm)*
G04 Created by KiCad (PCBNEW 8.0.6) date 2026-06-02 12:02:33*
%MOMM*%
%LPD*%
G01*
G04 APERTURE LIST*
G04 Aperture macros list*
%AMRoundRect*
0 Rectangle with rounded corners*
0 $1 Rounding radius*
0 $2 $3 $4 $5 $6 $7 $8 $9 X,Y pos of 4 corners*
0 Add a 4 corners polygon primitive as box body*
4,1,4,$2,$3,$4,$5,$6,$7,$8,$9,$2,$3,0*
0 Add four circle primitives for the rounded corners*
1,1,$1+$1,$2,$3*
1,1,$1+$1,$4,$5*
1,1,$1+$1,$6,$7*
1,1,$1+$1,$8,$9*
0 Add four rect primitives between the rounded corners*
20,1,$1+$1,$2,$3,$4,$5,0*
20,1,$1+$1,$4,$5,$6,$7,0*
20,1,$1+$1,$6,$7,$8,$9,0*
20,1,$1+$1,$8,$9,$2,$3,0*%
G04 Aperture macros list end*
%ADD10C,0.100000*%
%ADD11RoundRect,0.250000X0.450000X-0.350000X0.450000X0.350000X-0.450000X0.350000X-0.450000X-0.350000X0*%
%ADD12RoundRect,0.243750X0.456250X-0.243750X0.456250X0.243750X-0.456250X0.243750X-0.456250X-0.243750X0*%
%ADD13O,5.000000X3.200000*%
%ADD14C,1.000000*%
%ADD15R,2.500000X1.900000*%
%ADD16O,2.500000X1.900000*%
%ADD17R,1.900000X2.500000*%
%ADD18O,1.900000X2.500000*%
%ADD19RoundRect,0.187500X0.187500X-0.712500X0.187500X0.712500X-0.187500X0.712500X-0.187500X-0.712500X0*%
%ADD20C,2.000000*%
%ADD21RoundRect,0.305556X-0.794444X-1.494444X0.794444X-1.494444X0.794444X1.494444X-0.794444X1.494444X0*%
%ADD22O,2.200000X3.600000*%
%ADD23O,5.000000X3.400000*%
%ADD24C,3.200000*%
%ADD25RoundRect,0.237500X0.287500X0.237500X-0.287500X0.237500X-0.287500X-0.237500X0.287500X-0.237500X0*%
%ADD26RoundRect,0.237500X-0.237500X0.287500X-0.237500X-0.287500X0.237500X-0.287500X0.237500X0.287500X0*%
%ADD27C,2.540000*%
%ADD28R,2.800000X5.400000*%
%ADD29O,2.800000X5.000000*%
%ADD30O,5.000000X2.800000*%
G04 APERTURE END LIST*
D10*
X108100000Y-78550000D02*
X108100000Y-77100000D01*
X107850000Y-78550000D02*
X108100000Y-78550000D01*
X105250000Y-78550000D02*
X105250000Y-77600000D01*
X105950000Y-78550000D02*
X105250000Y-78550000D01*
X105200000Y-72050000D02*
X105200000Y-73100000D01*
X106000000Y-72050000D02*
X105200000Y-72050000D01*
X97350000Y-78450000D02*
X97350000Y-77200000D01*
X96750000Y-78450000D02*
X97350000Y-78450000D01*
X94500000Y-72000000D02*
X94500000Y-72900000D01*
X95250000Y-72000000D02*
X94500000Y-72000000D01*
D11*
%TO.C,R28*%
X64900000Y-129300000D03*
X64900000Y-127300000D03*
%TD*%
D12*
%TO.C,D7*%
X62300000Y-127375000D03*
X62300000Y-125500000D03*
%TD*%
D13*
%TO.C,H3*%
X61477000Y-67563000D03*
%TD*%
%TO.C,H4*%
X61477000Y-117563000D03*
%TD*%
D14*
%TO.C,GPIO-1*%
X66597000Y-92558000D03*
X89457000Y-92558000D03*
%TD*%
D13*
%TO.C,H2*%
X102337000Y-117563000D03*
%TD*%
%TO.C,H1*%
X102337000Y-67563000D03*
%TD*%
D15*
%TO.C,J12*%
X78586200Y-113601000D03*
D16*
X78586200Y-116141000D03*
X78586200Y-118681000D03*
X78586200Y-121221000D03*
%TD*%
D17*
%TO.C,J10*%
X69091600Y-128926400D03*
D18*
X71631600Y-128926400D03*
X74171600Y-128926400D03*
X76711600Y-128926400D03*
X79251600Y-128926400D03*
%TD*%
D15*
%TO.C,J1*%
X102970200Y-96979400D03*
D16*
X102970200Y-99519400D03*
X102970200Y-102059400D03*
X102970200Y-104599400D03*
X102970200Y-107139400D03*
X102970200Y-109679400D03*
%TD*%
D19*
%TO.C,D2*%
X96644200Y-73522000D03*
X95194200Y-73522000D03*
X96644200Y-76922000D03*
X95194200Y-76922000D03*
%TD*%
D17*
%TO.C,J4*%
X67567600Y-74068600D03*
D18*
X65027600Y-74068600D03*
%TD*%
D20*
%TO.C,R31*%
X82574000Y-124386000D03*
X85574000Y-124386000D03*
%TD*%
D11*
%TO.C,R16*%
X74797925Y-67200000D03*
X74797925Y-65200000D03*
%TD*%
D21*
%TO.C,J8*%
X88924000Y-134038000D03*
D22*
X92424000Y-134038000D03*
X95924000Y-134038000D03*
X99424000Y-134038000D03*
%TD*%
D15*
%TO.C,J11*%
X82955000Y-111355800D03*
D16*
X82955000Y-113895800D03*
X82955000Y-116435800D03*
X82955000Y-118975800D03*
%TD*%
D15*
%TO.C,J2*%
X46200000Y-113620000D03*
D16*
X46200000Y-111080000D03*
X46200000Y-108540000D03*
X46200000Y-106000000D03*
%TD*%
D23*
%TO.C,+5V1*%
X119150000Y-72200000D03*
X119150000Y-77200000D03*
%TD*%
D24*
%TO.C,H5*%
X53887000Y-74700000D03*
%TD*%
D11*
%TO.C,R12*%
X74745200Y-77241940D03*
X74745200Y-75241940D03*
%TD*%
D25*
%TO.C,D3*%
X102993000Y-124640000D03*
X101243000Y-124640000D03*
%TD*%
D11*
%TO.C,R8*%
X74748925Y-81983960D03*
X74748925Y-79983960D03*
%TD*%
D20*
%TO.C,FID5*%
X43229400Y-128348400D03*
%TD*%
D11*
%TO.C,R5*%
X78068525Y-86725980D03*
X78068525Y-84725980D03*
%TD*%
%TO.C,R6*%
X74813725Y-86757980D03*
X74813725Y-84757980D03*
%TD*%
%TO.C,R1*%
X78054525Y-91500000D03*
X78054525Y-89500000D03*
%TD*%
D20*
%TO.C,FID6*%
X106000000Y-135500000D03*
%TD*%
D26*
%TO.C,D5*%
X96417000Y-117288000D03*
X96417000Y-119038000D03*
%TD*%
D11*
%TO.C,R11*%
X78000000Y-77241940D03*
X78000000Y-75241940D03*
%TD*%
%TO.C,R13*%
X78054525Y-72499920D03*
X78054525Y-70499920D03*
%TD*%
D17*
%TO.C,J7*%
X84812000Y-83590000D03*
D18*
X87352000Y-83590000D03*
%TD*%
D17*
%TO.C,J5*%
X94039400Y-90223000D03*
D18*
X96579400Y-90223000D03*
X99119400Y-90223000D03*
X101659400Y-90223000D03*
%TD*%
D27*
%TO.C,BT1*%
X60653800Y-108568000D03*
X60653800Y-88568000D03*
%TD*%
D17*
%TO.C,J6*%
X87352000Y-65810000D03*
D18*
X84812000Y-65810000D03*
%TD*%
D20*
%TO.C,FID4*%
X119000000Y-66900000D03*
%TD*%
D28*
%TO.C,J9*%
X109750000Y-132000000D03*
D29*
X115550000Y-132000000D03*
D30*
X112750000Y-136800000D03*
%TD*%
D11*
%TO.C,R7*%
X78054525Y-81983960D03*
X78054525Y-79983960D03*
%TD*%
D17*
%TO.C,J3*%
X53846600Y-134700000D03*
D18*
X51306600Y-134700000D03*
X48766600Y-134700000D03*
X46226600Y-134700000D03*
%TD*%
D19*
%TO.C,D1*%
X107400000Y-73600000D03*
X105950000Y-73600000D03*
X107400000Y-77000000D03*
X105950000Y-77000000D03*
%TD*%
D11*
%TO.C,R2*%
X74748925Y-91500000D03*
X74748925Y-89500000D03*
%TD*%
D26*
%TO.C,D6*%
X91591000Y-117288000D03*
X91591000Y-119038000D03*
%TD*%
D11*
%TO.C,R14*%
X74748925Y-72499920D03*
X74748925Y-70499920D03*
%TD*%
%TO.C,R15*%
X78005525Y-67200000D03*
X78005525Y-65200000D03*
%TD*%
M02*
