<?xml version="1.0" encoding="UTF-8" standalone="no"?>
<svg
   version="1.1"
   width="297.0022mm"
   height="210.0072mm"
   viewBox="0.0000 0.0000 297.0022 210.0072"
   id="svg198"
   sodipodi:docname="controle-F_Paste.svg"
   inkscape:version="1.4.2 (ebf0e940d0, 2025-05-08)"
   xmlns:inkscape="http://www.inkscape.org/namespaces/inkscape"
   xmlns:sodipodi="http://sodipodi.sourceforge.net/DTD/sodipodi-0.dtd"
   xmlns="http://www.w3.org/2000/svg"
   xmlns:svg="http://www.w3.org/2000/svg">
  <defs
     id="defs198" />
  <sodipodi:namedview
     id="namedview198"
     pagecolor="#ffffff"
     bordercolor="#666666"
     borderopacity="1.0"
     inkscape:showpageshadow="2"
     inkscape:pageopacity="0.0"
     inkscape:pagecheckerboard="0"
     inkscape:deskcolor="#d1d1d1"
     inkscape:document-units="mm"
     inkscape:zoom="1.4106202"
     inkscape:cx="813.1175"
     inkscape:cy="381.39251"
     inkscape:window-width="1117"
     inkscape:window-height="843"
     inkscape:window-x="458"
     inkscape:window-y="184"
     inkscape:window-maximized="0"
     inkscape:current-layer="svg198" />
  <title
     id="title1">SVG Image created as controle-F_Paste.svg date 2026/06/08 12:44:53 </title>
  <desc
     id="desc1">Image generated by PCBNEW </desc>
  <g
     style="fill:#000000;fill-opacity:1;stroke:none;stroke-opacity:1;stroke-linecap:round;stroke-linejoin:round"
     transform="translate(0 0) scale(1 1)"
     id="g192">
    <path
       style="fill:#000000;fill-opacity:1;stroke:none;fill-rule:evenodd"
       d="M 204.7764,124.0994 204.7954,124.1951 204.8496,124.2762 204.9307,124.3304 205.0264,124.3494 205.7264,124.3494 205.8221,124.3304 205.9032,124.2762 205.9574,124.1951 205.9764,124.0994 205.9764,123.1994 205.9574,123.1037 205.9032,123.0226 205.8221,122.9684 205.7264,122.9494 205.0264,122.9494 204.9307,122.9684 204.8496,123.0226 204.7954,123.1037 204.7764,123.1994 Z"
       id="path1" />
    <path
       style="fill:#000000;fill-opacity:1;stroke:none;fill-rule:evenodd"
       d="M 206.7764,124.0994 206.7954,124.1951 206.8496,124.2762 206.9307,124.3304 207.0264,124.3494 207.7264,124.3494 207.8221,124.3304 207.9032,124.2762 207.9574,124.1951 207.9764,124.0994 207.9764,123.1994 207.9574,123.1037 207.9032,123.0226 207.8221,122.9684 207.7264,122.9494 207.0264,122.9494 206.9307,122.9684 206.8496,123.0226 206.7954,123.1037 206.7764,123.1994 Z"
       id="path2" />
    <path
       style="fill:#000000;fill-opacity:1;stroke:none;fill-rule:evenodd"
       d="M 202.7116,103.8946 202.8073,103.8756 202.8884,103.8214 202.9426,103.7403 202.9616,103.6446 202.9616,102.9446 202.9426,102.8489 202.8884,102.7678 202.8073,102.7136 202.7116,102.6946 201.8116,102.6946 201.7159,102.7136 201.6348,102.7678 201.5806,102.8489 201.5616,102.9446 201.5616,103.6446 201.5806,103.7403 201.6348,103.8214 201.7159,103.8756 201.8116,103.8946 Z"
       id="path3" />
    <path
       style="fill:#000000;fill-opacity:1;stroke:none;fill-rule:evenodd"
       d="M 202.7116,101.8946 202.8073,101.8756 202.8884,101.8214 202.9426,101.7403 202.9616,101.6446 202.9616,100.9446 202.9426,100.8489 202.8884,100.7678 202.8073,100.7136 202.7116,100.6946 201.8116,100.6946 201.7159,100.7136 201.6348,100.7678 201.5806,100.8489 201.5616,100.9446 201.5616,101.6446 201.5806,101.7403 201.6348,101.8214 201.7159,101.8756 201.8116,101.8946 Z"
       id="path4" />
    <path
       style="fill:#000000;fill-opacity:1;stroke:none;fill-rule:evenodd"
       d="M 234.8772,137.0530 234.8962,137.1487 234.9504,137.2298 235.0315,137.2840 235.1272,137.3030 235.8022,137.3030 235.8979,137.2840 235.9790,137.2298 236.0332,137.1487 236.0522,137.0530 236.0522,136.1030 236.0332,136.0073 235.9790,135.9262 235.8979,135.8720 235.8022,135.8530 235.1272,135.8530 235.0315,135.8720 234.9504,135.9262 234.8962,136.0073 234.8772,136.1030 Z"
       id="path5" />
    <path
       style="fill:#000000;fill-opacity:1;stroke:none;fill-rule:evenodd"
       d="M 236.9522,137.0530 236.9712,137.1487 237.0254,137.2298 237.1065,137.2840 237.2022,137.3030 237.8772,137.3030 237.9729,137.2840 238.0540,137.2298 238.1082,137.1487 238.1272,137.0530 238.1272,136.1030 238.1082,136.0073 238.0540,135.9262 237.9729,135.8720 237.8772,135.8530 237.2022,135.8530 237.1065,135.8720 237.0254,135.9262 236.9712,136.0073 236.9522,136.1030 Z"
       id="path6" />
    <path
       style="fill:#000000;fill-opacity:1;stroke:none;fill-rule:evenodd"
       d="M 215.1976,104.3593 215.1402,104.3707 215.0915,104.4032 215.0590,104.4519 215.0476,104.5093 215.0476,105.6843 215.0590,105.7417 215.0915,105.7904 215.1402,105.8229 215.1976,105.8343 215.4976,105.8343 215.5550,105.8229 215.6037,105.7904 215.6362,105.7417 215.6476,105.6843 215.6476,104.5093 215.6362,104.4519 215.6037,104.4032 215.5550,104.3707 215.4976,104.3593 Z"
       id="path7" />
    <path
       style="fill:#000000;fill-opacity:1;stroke:none;fill-rule:evenodd"
       d="M 217.0976,104.3593 217.0402,104.3707 216.9915,104.4032 216.9590,104.4519 216.9476,104.5093 216.9476,105.6843 216.9590,105.7417 216.9915,105.7904 217.0402,105.8229 217.0976,105.8343 217.3976,105.8343 217.4550,105.8229 217.5037,105.7904 217.5362,105.7417 217.5476,105.6843 217.5476,104.5093 217.5362,104.4519 217.5037,104.4032 217.4550,104.3707 217.3976,104.3593 Z"
       id="path8" />
    <path
       style="fill:#000000;fill-opacity:1;stroke:none;fill-rule:evenodd"
       d="M 216.1476,106.2343 216.0902,106.2457 216.0415,106.2782 216.0090,106.3269 215.9976,106.3843 215.9976,107.5593 216.0090,107.6167 216.0415,107.6654 216.0902,107.6979 216.1476,107.7093 216.4476,107.7093 216.5050,107.6979 216.5537,107.6654 216.5862,107.6167 216.5976,107.5593 216.5976,106.3843 216.5862,106.3269 216.5537,106.2782 216.5050,106.2457 216.4476,106.2343 Z"
       id="path9" />
    <path
       style="fill:#000000;fill-opacity:1;stroke:none;fill-rule:evenodd"
       d="M 222.7686,122.0454 222.7800,122.1028 222.8125,122.1515 222.8612,122.1840 222.9186,122.1954 224.5686,122.1954 224.6260,122.1840 224.6747,122.1515 224.7072,122.1028 224.7186,122.0454 224.7186,121.7454 224.7072,121.6880 224.6747,121.6393 224.6260,121.6068 224.5686,121.5954 222.9186,121.5954 222.8612,121.6068 222.8125,121.6393 222.7800,121.6880 222.7686,121.7454 Z"
       id="path10" />
    <path
       style="fill:#000000;fill-opacity:1;stroke:none;fill-rule:evenodd"
       d="M 222.7686,120.7754 222.7800,120.8328 222.8125,120.8815 222.8612,120.9140 222.9186,120.9254 224.5686,120.9254 224.6260,120.9140 224.6747,120.8815 224.7072,120.8328 224.7186,120.7754 224.7186,120.4754 224.7072,120.4180 224.6747,120.3693 224.6260,120.3368 224.5686,120.3254 222.9186,120.3254 222.8612,120.3368 222.8125,120.3693 222.7800,120.4180 222.7686,120.4754 Z"
       id="path11" />
    <path
       style="fill:#000000;fill-opacity:1;stroke:none;fill-rule:evenodd"
       d="M 222.7686,119.5054 222.7800,119.5628 222.8125,119.6115 222.8612,119.6440 222.9186,119.6554 224.5686,119.6554 224.6260,119.6440 224.6747,119.6115 224.7072,119.5628 224.7186,119.5054 224.7186,119.2054 224.7072,119.1480 224.6747,119.0993 224.6260,119.0668 224.5686,119.0554 222.9186,119.0554 222.8612,119.0668 222.8125,119.0993 222.7800,119.1480 222.7686,119.2054 Z"
       id="path12" />
    <path
       style="fill:#000000;fill-opacity:1;stroke:none;fill-rule:evenodd"
       d="M 222.7686,118.2354 222.7800,118.2928 222.8125,118.3415 222.8612,118.3740 222.9186,118.3854 224.5686,118.3854 224.6260,118.3740 224.6747,118.3415 224.7072,118.2928 224.7186,118.2354 224.7186,117.9354 224.7072,117.8780 224.6747,117.8293 224.6260,117.7968 224.5686,117.7854 222.9186,117.7854 222.8612,117.7968 222.8125,117.8293 222.7800,117.8780 222.7686,117.9354 Z"
       id="path13" />
    <path
       style="fill:#000000;fill-opacity:1;stroke:none;fill-rule:evenodd"
       d="M 222.7686,116.9654 222.7800,117.0228 222.8125,117.0715 222.8612,117.1040 222.9186,117.1154 224.5686,117.1154 224.6260,117.1040 224.6747,117.0715 224.7072,117.0228 224.7186,116.9654 224.7186,116.6654 224.7072,116.6080 224.6747,116.5593 224.6260,116.5268 224.5686,116.5154 222.9186,116.5154 222.8612,116.5268 222.8125,116.5593 222.7800,116.6080 222.7686,116.6654 Z"
       id="path14" />
    <path
       style="fill:#000000;fill-opacity:1;stroke:none;fill-rule:evenodd"
       d="M 222.7686,115.6954 222.7800,115.7528 222.8125,115.8015 222.8612,115.8340 222.9186,115.8454 224.5686,115.8454 224.6260,115.8340 224.6747,115.8015 224.7072,115.7528 224.7186,115.6954 224.7186,115.3954 224.7072,115.3380 224.6747,115.2893 224.6260,115.2568 224.5686,115.2454 222.9186,115.2454 222.8612,115.2568 222.8125,115.2893 222.7800,115.3380 222.7686,115.3954 Z"
       id="path15" />
    <path
       style="fill:#000000;fill-opacity:1;stroke:none;fill-rule:evenodd"
       d="M 222.7686,114.4254 222.7800,114.4828 222.8125,114.5315 222.8612,114.5640 222.9186,114.5754 224.5686,114.5754 224.6260,114.5640 224.6747,114.5315 224.7072,114.4828 224.7186,114.4254 224.7186,114.1254 224.7072,114.0680 224.6747,114.0193 224.6260,113.9868 224.5686,113.9754 222.9186,113.9754 222.8612,113.9868 222.8125,114.0193 222.7800,114.0680 222.7686,114.1254 Z"
       id="path16" />
    <path
       style="fill:#000000;fill-opacity:1;stroke:none;fill-rule:evenodd"
       d="M 227.7186,114.4254 227.7300,114.4828 227.7625,114.5315 227.8112,114.5640 227.8686,114.5754 229.5186,114.5754 229.5760,114.5640 229.6247,114.5315 229.6572,114.4828 229.6686,114.4254 229.6686,114.1254 229.6572,114.0680 229.6247,114.0193 229.5760,113.9868 229.5186,113.9754 227.8686,113.9754 227.8112,113.9868 227.7625,114.0193 227.7300,114.0680 227.7186,114.1254 Z"
       id="path17" />
    <path
       style="fill:#000000;fill-opacity:1;stroke:none;fill-rule:evenodd"
       d="M 227.7186,115.6954 227.7300,115.7528 227.7625,115.8015 227.8112,115.8340 227.8686,115.8454 229.5186,115.8454 229.5760,115.8340 229.6247,115.8015 229.6572,115.7528 229.6686,115.6954 229.6686,115.3954 229.6572,115.3380 229.6247,115.2893 229.5760,115.2568 229.5186,115.2454 227.8686,115.2454 227.8112,115.2568 227.7625,115.2893 227.7300,115.3380 227.7186,115.3954 Z"
       id="path18" />
    <path
       style="fill:#000000;fill-opacity:1;stroke:none;fill-rule:evenodd"
       d="M 227.7186,116.9654 227.7300,117.0228 227.7625,117.0715 227.8112,117.1040 227.8686,117.1154 229.5186,117.1154 229.5760,117.1040 229.6247,117.0715 229.6572,117.0228 229.6686,116.9654 229.6686,116.6654 229.6572,116.6080 229.6247,116.5593 229.5760,116.5268 229.5186,116.5154 227.8686,116.5154 227.8112,116.5268 227.7625,116.5593 227.7300,116.6080 227.7186,116.6654 Z"
       id="path19" />
    <path
       style="fill:#000000;fill-opacity:1;stroke:none;fill-rule:evenodd"
       d="M 227.7186,118.2354 227.7300,118.2928 227.7625,118.3415 227.8112,118.3740 227.8686,118.3854 229.5186,118.3854 229.5760,118.3740 229.6247,118.3415 229.6572,118.2928 229.6686,118.2354 229.6686,117.9354 229.6572,117.8780 229.6247,117.8293 229.5760,117.7968 229.5186,117.7854 227.8686,117.7854 227.8112,117.7968 227.7625,117.8293 227.7300,117.8780 227.7186,117.9354 Z"
       id="path20" />
    <path
       style="fill:#000000;fill-opacity:1;stroke:none;fill-rule:evenodd"
       d="M 227.7186,119.5054 227.7300,119.5628 227.7625,119.6115 227.8112,119.6440 227.8686,119.6554 229.5186,119.6554 229.5760,119.6440 229.6247,119.6115 229.6572,119.5628 229.6686,119.5054 229.6686,119.2054 229.6572,119.1480 229.6247,119.0993 229.5760,119.0668 229.5186,119.0554 227.8686,119.0554 227.8112,119.0668 227.7625,119.0993 227.7300,119.1480 227.7186,119.2054 Z"
       id="path21" />
    <path
       style="fill:#000000;fill-opacity:1;stroke:none;fill-rule:evenodd"
       d="M 227.7186,120.7754 227.7300,120.8328 227.7625,120.8815 227.8112,120.9140 227.8686,120.9254 229.5186,120.9254 229.5760,120.9140 229.6247,120.8815 229.6572,120.8328 229.6686,120.7754 229.6686,120.4754 229.6572,120.4180 229.6247,120.3693 229.5760,120.3368 229.5186,120.3254 227.8686,120.3254 227.8112,120.3368 227.7625,120.3693 227.7300,120.4180 227.7186,120.4754 Z"
       id="path22" />
    <path
       style="fill:#000000;fill-opacity:1;stroke:none;fill-rule:evenodd"
       d="M 227.7186,122.0454 227.7300,122.1028 227.7625,122.1515 227.8112,122.1840 227.8686,122.1954 229.5186,122.1954 229.5760,122.1840 229.6247,122.1515 229.6572,122.1028 229.6686,122.0454 229.6686,121.7454 229.6572,121.6880 229.6247,121.6393 229.5760,121.6068 229.5186,121.5954 227.8686,121.5954 227.8112,121.6068 227.7625,121.6393 227.7300,121.6880 227.7186,121.7454 Z"
       id="path23" />
    <path
       style="fill:#000000;fill-opacity:1;stroke:none;fill-rule:evenodd"
       d="M 185.4821,117.8742 185.5011,117.9699 185.5553,118.0510 185.6364,118.1052 185.7321,118.1242 186.5571,118.1242 186.6528,118.1052 186.7339,118.0510 186.7881,117.9699 186.8071,117.8742 186.8071,115.6742 186.7881,115.5785 186.7339,115.4974 186.6528,115.4432 186.5571,115.4242 185.7321,115.4242 185.6364,115.4432 185.5553,115.4974 185.5011,115.5785 185.4821,115.6742 Z"
       id="path24" />
    <path
       style="fill:#000000;fill-opacity:1;stroke:none;fill-rule:evenodd"
       d="M 188.6071,117.8742 188.6261,117.9699 188.6803,118.0510 188.7614,118.1052 188.8571,118.1242 189.6821,118.1242 189.7778,118.1052 189.8589,118.0510 189.9131,117.9699 189.9321,117.8742 189.9321,115.6742 189.9131,115.5785 189.8589,115.4974 189.7778,115.4432 189.6821,115.4242 188.8571,115.4242 188.7614,115.4432 188.6803,115.4974 188.6261,115.5785 188.6071,115.6742 Z"
       id="path25" />
    <path
       style="fill:#000000;fill-opacity:1;stroke:none;fill-rule:evenodd"
       d="M 238.1022,122.6500 238.0832,122.5543 238.0290,122.4732 237.9479,122.4190 237.8522,122.4000 237.1522,122.4000 237.0565,122.4190 236.9754,122.4732 236.9212,122.5543 236.9022,122.6500 236.9022,123.5500 236.9212,123.6457 236.9754,123.7268 237.0565,123.7810 237.1522,123.8000 237.8522,123.8000 237.9479,123.7810 238.0290,123.7268 238.0832,123.6457 238.1022,123.5500 Z"
       id="path26" />
    <path
       style="fill:#000000;fill-opacity:1;stroke:none;fill-rule:evenodd"
       d="M 236.1022,122.6500 236.0832,122.5543 236.0290,122.4732 235.9479,122.4190 235.8522,122.4000 235.1522,122.4000 235.0565,122.4190 234.9754,122.4732 234.9212,122.5543 234.9022,122.6500 234.9022,123.5500 234.9212,123.6457 234.9754,123.7268 235.0565,123.7810 235.1522,123.8000 235.8522,123.8000 235.9479,123.7810 236.0290,123.7268 236.0832,123.6457 236.1022,123.5500 Z"
       id="path27" />
    <path
       style="fill:#000000;fill-opacity:1;stroke:none;fill-rule:evenodd"
       d="M 177.7397,105.4030 181.0397,105.4030 181.0397,102.4030 177.7397,102.4030 Z"
       id="path28" />
    <path
       style="fill:#000000;fill-opacity:1;stroke:none;fill-rule:evenodd"
       d="M 177.7397,98.4030 181.0397,98.4030 181.0397,95.4030 177.7397,95.4030 Z"
       id="path29" />
    <path
       style="fill:#000000;fill-opacity:1;stroke:none;fill-rule:evenodd"
       d="M 209.9652,104.3593 209.9078,104.3707 209.8591,104.4032 209.8266,104.4519 209.8152,104.5093 209.8152,105.6843 209.8266,105.7417 209.8591,105.7904 209.9078,105.8229 209.9652,105.8343 210.2652,105.8343 210.3226,105.8229 210.3713,105.7904 210.4038,105.7417 210.4152,105.6843 210.4152,104.5093 210.4038,104.4519 210.3713,104.4032 210.3226,104.3707 210.2652,104.3593 Z"
       id="path30" />
    <path
       style="fill:#000000;fill-opacity:1;stroke:none;fill-rule:evenodd"
       d="M 211.8652,104.3593 211.8078,104.3707 211.7591,104.4032 211.7266,104.4519 211.7152,104.5093 211.7152,105.6843 211.7266,105.7417 211.7591,105.7904 211.8078,105.8229 211.8652,105.8343 212.1652,105.8343 212.2226,105.8229 212.2713,105.7904 212.3038,105.7417 212.3152,105.6843 212.3152,104.5093 212.3038,104.4519 212.2713,104.4032 212.2226,104.3707 212.1652,104.3593 Z"
       id="path31" />
    <path
       style="fill:#000000;fill-opacity:1;stroke:none;fill-rule:evenodd"
       d="M 210.9152,106.2343 210.8578,106.2457 210.8091,106.2782 210.7766,106.3269 210.7652,106.3843 210.7652,107.5593 210.7766,107.6167 210.8091,107.6654 210.8578,107.6979 210.9152,107.7093 211.2152,107.7093 211.2726,107.6979 211.3213,107.6654 211.3538,107.6167 211.3652,107.5593 211.3652,106.3843 211.3538,106.3269 211.3213,106.2782 211.2726,106.2457 211.2152,106.2343 Z"
       id="path32" />
    <path
       style="fill:#000000;fill-opacity:1;stroke:none;fill-rule:evenodd"
       d="M 175.3455,125.2413 175.3636,125.3322 175.4151,125.4092 175.4921,125.4607 175.5830,125.4788 176.1830,125.4788 176.2739,125.4607 176.3509,125.4092 176.4024,125.3322 176.4205,125.2413 176.4205,124.7663 176.4024,124.6754 176.3509,124.5984 176.2739,124.5469 176.1830,124.5288 175.5830,124.5288 175.4921,124.5469 175.4151,124.5984 175.3636,124.6754 175.3455,124.7663 Z"
       id="path33" />
    <path
       style="fill:#000000;fill-opacity:1;stroke:none;fill-rule:evenodd"
       d="M 177.0705,125.2413 177.0886,125.3322 177.1401,125.4092 177.2171,125.4607 177.3080,125.4788 177.9080,125.4788 177.9989,125.4607 178.0759,125.4092 178.1274,125.3322 178.1455,125.2413 178.1455,124.7663 178.1274,124.6754 178.0759,124.5984 177.9989,124.5469 177.9080,124.5288 177.3080,124.5288 177.2171,124.5469 177.1401,124.5984 177.0886,124.6754 177.0705,124.7663 Z"
       id="path34" />
    <path
       style="fill:#000000;fill-opacity:1;stroke:none;fill-rule:evenodd"
       d="M 199.4424,124.0994 199.4614,124.1951 199.5156,124.2762 199.5967,124.3304 199.6924,124.3494 200.3924,124.3494 200.4881,124.3304 200.5692,124.2762 200.6234,124.1951 200.6424,124.0994 200.6424,123.1994 200.6234,123.1037 200.5692,123.0226 200.4881,122.9684 200.3924,122.9494 199.6924,122.9494 199.5967,122.9684 199.5156,123.0226 199.4614,123.1037 199.4424,123.1994 Z"
       id="path35" />
    <path
       style="fill:#000000;fill-opacity:1;stroke:none;fill-rule:evenodd"
       d="M 201.4424,124.0994 201.4614,124.1951 201.5156,124.2762 201.5967,124.3304 201.6924,124.3494 202.3924,124.3494 202.4881,124.3304 202.5692,124.2762 202.6234,124.1951 202.6424,124.0994 202.6424,123.1994 202.6234,123.1037 202.5692,123.0226 202.4881,122.9684 202.3924,122.9494 201.6924,122.9494 201.5967,122.9684 201.5156,123.0226 201.4614,123.1037 201.4424,123.1994 Z"
       id="path36" />
    <path
       style="fill:#000000;fill-opacity:1;stroke:none;fill-rule:evenodd"
       d="M 191.6202,125.0360 191.6392,125.1317 191.6934,125.2128 191.7745,125.2670 191.8702,125.2860 193.8702,125.2860 193.9659,125.2670 194.0470,125.2128 194.1012,125.1317 194.1202,125.0360 194.1202,123.7360 194.1012,123.6403 194.0470,123.5592 193.9659,123.5050 193.8702,123.4860 191.8702,123.4860 191.7745,123.5050 191.6934,123.5592 191.6392,123.6403 191.6202,123.7360 Z"
       id="path37" />
    <path
       style="fill:#000000;fill-opacity:1;stroke:none;fill-rule:evenodd"
       d="M 195.6202,125.0360 195.6392,125.1317 195.6934,125.2128 195.7745,125.2670 195.8702,125.2860 197.8702,125.2860 197.9659,125.2670 198.0470,125.2128 198.1012,125.1317 198.1202,125.0360 198.1202,123.7360 198.1012,123.6403 198.0470,123.5592 197.9659,123.5050 197.8702,123.4860 195.8702,123.4860 195.7745,123.5050 195.6934,123.5592 195.6392,123.6403 195.6202,123.7360 Z"
       id="path38" />
    <path
       style="fill:#000000;fill-opacity:1;stroke:none;fill-rule:evenodd"
       d="M 209.5320,102.2402 209.5510,102.3359 209.6052,102.4170 209.6863,102.4712 209.7820,102.4902 210.4820,102.4902 210.5777,102.4712 210.6588,102.4170 210.7130,102.3359 210.7320,102.2402 210.7320,101.3402 210.7130,101.2445 210.6588,101.1634 210.5777,101.1092 210.4820,101.0902 209.7820,101.0902 209.6863,101.1092 209.6052,101.1634 209.5510,101.2445 209.5320,101.3402 Z"
       id="path39" />
    <path
       style="fill:#000000;fill-opacity:1;stroke:none;fill-rule:evenodd"
       d="M 211.5320,102.2402 211.5510,102.3359 211.6052,102.4170 211.6863,102.4712 211.7820,102.4902 212.4820,102.4902 212.5777,102.4712 212.6588,102.4170 212.7130,102.3359 212.7320,102.2402 212.7320,101.3402 212.7130,101.2445 212.6588,101.1634 212.5777,101.1092 212.4820,101.0902 211.7820,101.0902 211.6863,101.1092 211.6052,101.1634 211.5510,101.2445 211.5320,101.3402 Z"
       id="path40" />
    <path
       style="fill:#000000;fill-opacity:1;stroke:none;fill-rule:evenodd"
       d="M 242.6787,97.0575 242.7696,97.0394 242.8466,96.9879 242.8981,96.9109 242.9162,96.8200 242.9162,96.2200 242.8981,96.1291 242.8466,96.0521 242.7696,96.0006 242.6787,95.9825 242.2037,95.9825 242.1128,96.0006 242.0358,96.0521 241.9843,96.1291 241.9662,96.2200 241.9662,96.8200 241.9843,96.9109 242.0358,96.9879 242.1128,97.0394 242.2037,97.0575 Z"
       id="path41" />
    <path
       style="fill:#000000;fill-opacity:1;stroke:none;fill-rule:evenodd"
       d="M 242.6787,95.3325 242.7696,95.3144 242.8466,95.2629 242.8981,95.1859 242.9162,95.0950 242.9162,94.4950 242.8981,94.4041 242.8466,94.3271 242.7696,94.2756 242.6787,94.2575 242.2037,94.2575 242.1128,94.2756 242.0358,94.3271 241.9843,94.4041 241.9662,94.4950 241.9662,95.0950 241.9843,95.1859 242.0358,95.2629 242.1128,95.3144 242.2037,95.3325 Z"
       id="path42" />
    <path
       style="fill:#000000;fill-opacity:1;stroke:none;fill-rule:evenodd"
       d="M 201.0780,108.0074 201.0206,108.0188 200.9719,108.0513 200.9394,108.1000 200.9280,108.1574 200.9280,109.8074 200.9394,109.8648 200.9719,109.9135 201.0206,109.9460 201.0780,109.9574 201.3780,109.9574 201.4354,109.9460 201.4841,109.9135 201.5166,109.8648 201.5280,109.8074 201.5280,108.1574 201.5166,108.1000 201.4841,108.0513 201.4354,108.0188 201.3780,108.0074 Z"
       id="path43" />
    <path
       style="fill:#000000;fill-opacity:1;stroke:none;fill-rule:evenodd"
       d="M 202.3480,108.0074 202.2906,108.0188 202.2419,108.0513 202.2094,108.1000 202.1980,108.1574 202.1980,109.8074 202.2094,109.8648 202.2419,109.9135 202.2906,109.9460 202.3480,109.9574 202.6480,109.9574 202.7054,109.9460 202.7541,109.9135 202.7866,109.8648 202.7980,109.8074 202.7980,108.1574 202.7866,108.1000 202.7541,108.0513 202.7054,108.0188 202.6480,108.0074 Z"
       id="path44" />
    <path
       style="fill:#000000;fill-opacity:1;stroke:none;fill-rule:evenodd"
       d="M 203.6180,108.0074 203.5606,108.0188 203.5119,108.0513 203.4794,108.1000 203.4680,108.1574 203.4680,109.8074 203.4794,109.8648 203.5119,109.9135 203.5606,109.9460 203.6180,109.9574 203.9180,109.9574 203.9754,109.9460 204.0241,109.9135 204.0566,109.8648 204.0680,109.8074 204.0680,108.1574 204.0566,108.1000 204.0241,108.0513 203.9754,108.0188 203.9180,108.0074 Z"
       id="path45" />
    <path
       style="fill:#000000;fill-opacity:1;stroke:none;fill-rule:evenodd"
       d="M 204.8880,108.0074 204.8306,108.0188 204.7819,108.0513 204.7494,108.1000 204.7380,108.1574 204.7380,109.8074 204.7494,109.8648 204.7819,109.9135 204.8306,109.9460 204.8880,109.9574 205.1880,109.9574 205.2454,109.9460 205.2941,109.9135 205.3266,109.8648 205.3380,109.8074 205.3380,108.1574 205.3266,108.1000 205.2941,108.0513 205.2454,108.0188 205.1880,108.0074 Z"
       id="path46" />
    <path
       style="fill:#000000;fill-opacity:1;stroke:none;fill-rule:evenodd"
       d="M 204.8880,112.9574 204.8306,112.9688 204.7819,113.0013 204.7494,113.0500 204.7380,113.1074 204.7380,114.7574 204.7494,114.8148 204.7819,114.8635 204.8306,114.8960 204.8880,114.9074 205.1880,114.9074 205.2454,114.8960 205.2941,114.8635 205.3266,114.8148 205.3380,114.7574 205.3380,113.1074 205.3266,113.0500 205.2941,113.0013 205.2454,112.9688 205.1880,112.9574 Z"
       id="path47" />
    <path
       style="fill:#000000;fill-opacity:1;stroke:none;fill-rule:evenodd"
       d="M 203.6180,112.9574 203.5606,112.9688 203.5119,113.0013 203.4794,113.0500 203.4680,113.1074 203.4680,114.7574 203.4794,114.8148 203.5119,114.8635 203.5606,114.8960 203.6180,114.9074 203.9180,114.9074 203.9754,114.8960 204.0241,114.8635 204.0566,114.8148 204.0680,114.7574 204.0680,113.1074 204.0566,113.0500 204.0241,113.0013 203.9754,112.9688 203.9180,112.9574 Z"
       id="path48" />
    <path
       style="fill:#000000;fill-opacity:1;stroke:none;fill-rule:evenodd"
       d="M 202.3480,112.9574 202.2906,112.9688 202.2419,113.0013 202.2094,113.0500 202.1980,113.1074 202.1980,114.7574 202.2094,114.8148 202.2419,114.8635 202.2906,114.8960 202.3480,114.9074 202.6480,114.9074 202.7054,114.8960 202.7541,114.8635 202.7866,114.8148 202.7980,114.7574 202.7980,113.1074 202.7866,113.0500 202.7541,113.0013 202.7054,112.9688 202.6480,112.9574 Z"
       id="path49" />
    <path
       style="fill:#000000;fill-opacity:1;stroke:none;fill-rule:evenodd"
       d="M 201.0780,112.9574 201.0206,112.9688 200.9719,113.0013 200.9394,113.0500 200.9280,113.1074 200.9280,114.7574 200.9394,114.8148 200.9719,114.8635 201.0206,114.8960 201.0780,114.9074 201.3780,114.9074 201.4354,114.8960 201.4841,114.8635 201.5166,114.8148 201.5280,114.7574 201.5280,113.1074 201.5166,113.0500 201.4841,113.0013 201.4354,112.9688 201.3780,112.9574 Z"
       id="path50" />
    <path
       style="fill:#000000;fill-opacity:1;stroke:none;fill-rule:evenodd"
       d="M 205.5923,117.3324 205.5733,117.2367 205.5191,117.1556 205.4380,117.1014 205.3423,117.0824 204.6673,117.0824 204.5716,117.1014 204.4905,117.1556 204.4363,117.2367 204.4173,117.3324 204.4173,118.2824 204.4363,118.3781 204.4905,118.4592 204.5716,118.5134 204.6673,118.5324 205.3423,118.5324 205.4380,118.5134 205.5191,118.4592 205.5733,118.3781 205.5923,118.2824 Z"
       id="path51" />
    <path
       style="fill:#000000;fill-opacity:1;stroke:none;fill-rule:evenodd"
       d="M 203.5173,117.3324 203.4983,117.2367 203.4441,117.1556 203.3630,117.1014 203.2673,117.0824 202.5923,117.0824 202.4966,117.1014 202.4155,117.1556 202.3613,117.2367 202.3423,117.3324 202.3423,118.2824 202.3613,118.3781 202.4155,118.4592 202.4966,118.5134 202.5923,118.5324 203.2673,118.5324 203.3630,118.5134 203.4441,118.4592 203.4983,118.3781 203.5173,118.2824 Z"
       id="path52" />
    <path
       style="fill:#000000;fill-opacity:1;stroke:none;fill-rule:evenodd"
       d="M 247.2288,130.0338 247.2098,129.9381 247.1556,129.8570 247.0745,129.8028 246.9788,129.7838 246.2788,129.7838 246.1831,129.8028 246.1020,129.8570 246.0478,129.9381 246.0288,130.0338 246.0288,130.9338 246.0478,131.0295 246.1020,131.1106 246.1831,131.1648 246.2788,131.1838 246.9788,131.1838 247.0745,131.1648 247.1556,131.1106 247.2098,131.0295 247.2288,130.9338 Z"
       id="path53" />
    <path
       style="fill:#000000;fill-opacity:1;stroke:none;fill-rule:evenodd"
       d="M 245.2288,130.0338 245.2098,129.9381 245.1556,129.8570 245.0745,129.8028 244.9788,129.7838 244.2788,129.7838 244.1831,129.8028 244.1020,129.8570 244.0478,129.9381 244.0288,130.0338 244.0288,130.9338 244.0478,131.0295 244.1020,131.1106 244.1831,131.1648 244.2788,131.1838 244.9788,131.1838 245.0745,131.1648 245.1556,131.1106 245.2098,131.0295 245.2288,130.9338 Z"
       id="path54" />
    <path
       style="fill:#000000;fill-opacity:1;stroke:none;fill-rule:evenodd"
       d="M 214.6120,102.2402 214.6310,102.3359 214.6852,102.4170 214.7663,102.4712 214.8620,102.4902 215.5620,102.4902 215.6577,102.4712 215.7388,102.4170 215.7930,102.3359 215.8120,102.2402 215.8120,101.3402 215.7930,101.2445 215.7388,101.1634 215.6577,101.1092 215.5620,101.0902 214.8620,101.0902 214.7663,101.1092 214.6852,101.1634 214.6310,101.2445 214.6120,101.3402 Z"
       id="path55" />
    <path
       style="fill:#000000;fill-opacity:1;stroke:none;fill-rule:evenodd"
       d="M 216.6120,102.2402 216.6310,102.3359 216.6852,102.4170 216.7663,102.4712 216.8620,102.4902 217.5620,102.4902 217.6577,102.4712 217.7388,102.4170 217.7930,102.3359 217.8120,102.2402 217.8120,101.3402 217.7930,101.2445 217.7388,101.1634 217.6577,101.1092 217.5620,101.0902 216.8620,101.0902 216.7663,101.1092 216.6852,101.1634 216.6310,101.2445 216.6120,101.3402 Z"
       id="path56" />
    <path
       style="fill:#000000;fill-opacity:1;stroke:none;fill-rule:evenodd"
       d="M 205.2463,126.1677 205.1889,126.1791 205.1402,126.2116 205.1077,126.2603 205.0963,126.3177 205.0963,127.4927 205.1077,127.5501 205.1402,127.5988 205.1889,127.6313 205.2463,127.6427 205.5463,127.6427 205.6037,127.6313 205.6524,127.5988 205.6849,127.5501 205.6963,127.4927 205.6963,126.3177 205.6849,126.2603 205.6524,126.2116 205.6037,126.1791 205.5463,126.1677 Z"
       id="path57" />
    <path
       style="fill:#000000;fill-opacity:1;stroke:none;fill-rule:evenodd"
       d="M 207.1463,126.1677 207.0889,126.1791 207.0402,126.2116 207.0077,126.2603 206.9963,126.3177 206.9963,127.4927 207.0077,127.5501 207.0402,127.5988 207.0889,127.6313 207.1463,127.6427 207.4463,127.6427 207.5037,127.6313 207.5524,127.5988 207.5849,127.5501 207.5963,127.4927 207.5963,126.3177 207.5849,126.2603 207.5524,126.2116 207.5037,126.1791 207.4463,126.1677 Z"
       id="path58" />
    <path
       style="fill:#000000;fill-opacity:1;stroke:none;fill-rule:evenodd"
       d="M 206.1963,128.0427 206.1389,128.0541 206.0902,128.0866 206.0577,128.1353 206.0463,128.1927 206.0463,129.3677 206.0577,129.4251 206.0902,129.4738 206.1389,129.5063 206.1963,129.5177 206.4963,129.5177 206.5537,129.5063 206.6024,129.4738 206.6349,129.4251 206.6463,129.3677 206.6463,128.1927 206.6349,128.1353 206.6024,128.0866 206.5537,128.0541 206.4963,128.0427 Z"
       id="path59" />
    <path
       style="fill:#000000;fill-opacity:1;stroke:none;fill-rule:evenodd"
       d="M 237.1347,96.5895 237.1166,96.4986 237.0651,96.4216 236.9881,96.3701 236.8972,96.3520 236.2972,96.3520 236.2063,96.3701 236.1293,96.4216 236.0778,96.4986 236.0597,96.5895 236.0597,97.0645 236.0778,97.1554 236.1293,97.2324 236.2063,97.2839 236.2972,97.3020 236.8972,97.3020 236.9881,97.2839 237.0651,97.2324 237.1166,97.1554 237.1347,97.0645 Z"
       id="path60" />
    <path
       style="fill:#000000;fill-opacity:1;stroke:none;fill-rule:evenodd"
       d="M 235.4097,96.5895 235.3916,96.4986 235.3401,96.4216 235.2631,96.3701 235.1722,96.3520 234.5722,96.3520 234.4813,96.3701 234.4043,96.4216 234.3528,96.4986 234.3347,96.5895 234.3347,97.0645 234.3528,97.1554 234.4043,97.2324 234.4813,97.2839 234.5722,97.3020 235.1722,97.3020 235.2631,97.2839 235.3401,97.2324 235.3916,97.1554 235.4097,97.0645 Z"
       id="path61" />
    <path
       style="fill:#000000;fill-opacity:1;stroke:none;fill-rule:evenodd"
       d="M 185.4821,112.1338 185.5011,112.2295 185.5553,112.3106 185.6364,112.3648 185.7321,112.3838 186.5571,112.3838 186.6528,112.3648 186.7339,112.3106 186.7881,112.2295 186.8071,112.1338 186.8071,109.9338 186.7881,109.8381 186.7339,109.7570 186.6528,109.7028 186.5571,109.6838 185.7321,109.6838 185.6364,109.7028 185.5553,109.7570 185.5011,109.8381 185.4821,109.9338 Z"
       id="path62" />
    <path
       style="fill:#000000;fill-opacity:1;stroke:none;fill-rule:evenodd"
       d="M 188.6071,112.1338 188.6261,112.2295 188.6803,112.3106 188.7614,112.3648 188.8571,112.3838 189.6821,112.3838 189.7778,112.3648 189.8589,112.3106 189.9131,112.2295 189.9321,112.1338 189.9321,109.9338 189.9131,109.8381 189.8589,109.7570 189.7778,109.7028 189.6821,109.6838 188.8571,109.6838 188.7614,109.7028 188.6803,109.7570 188.6261,109.8381 188.6071,109.9338 Z"
       id="path63" />
    <path
       style="fill:#000000;fill-opacity:1;stroke:none;fill-rule:evenodd"
       d="M 230.6909,95.4892 231.3894,95.4892 231.3894,93.6908 230.6909,93.6908 Z"
       id="path64" />
    <path
       style="fill:#000000;fill-opacity:1;stroke:none;fill-rule:evenodd"
       d="M 230.6909,91.4252 231.3894,91.4252 231.3894,89.6268 230.6909,89.6268 Z"
       id="path65" />
    <path
       style="fill:#000000;fill-opacity:1;stroke:none;fill-rule:evenodd"
       d="M 229.4209,95.4892 230.1195,95.4892 230.1195,93.6908 229.4209,93.6908 Z"
       id="path66" />
    <path
       style="fill:#000000;fill-opacity:1;stroke:none;fill-rule:evenodd"
       d="M 229.4209,91.4252 230.1195,91.4252 230.1195,89.6268 229.4209,89.6268 Z"
       id="path67" />
    <path
       style="fill:#000000;fill-opacity:1;stroke:none;fill-rule:evenodd"
       d="M 228.1509,95.4892 228.8494,95.4892 228.8494,93.6908 228.1509,93.6908 Z"
       id="path68" />
    <path
       style="fill:#000000;fill-opacity:1;stroke:none;fill-rule:evenodd"
       d="M 228.1509,91.4252 228.8494,91.4252 228.8494,89.6268 228.1509,89.6268 Z"
       id="path69" />
    <path
       style="fill:#000000;fill-opacity:1;stroke:none;fill-rule:evenodd"
       d="M 226.8809,95.4892 227.5794,95.4892 227.5794,93.6908 226.8809,93.6908 Z"
       id="path70" />
    <path
       style="fill:#000000;fill-opacity:1;stroke:none;fill-rule:evenodd"
       d="M 226.8809,91.4252 227.5794,91.4252 227.5794,89.6268 226.8809,89.6268 Z"
       id="path71" />
    <path
       style="fill:#000000;fill-opacity:1;stroke:none;fill-rule:evenodd"
       d="M 225.6110,95.4892 226.3094,95.4892 226.3094,93.6908 225.6110,93.6908 Z"
       id="path72" />
    <path
       style="fill:#000000;fill-opacity:1;stroke:none;fill-rule:evenodd"
       d="M 225.6110,91.4252 226.3094,91.4252 226.3094,89.6268 225.6110,89.6268 Z"
       id="path73" />
    <path
       style="fill:#000000;fill-opacity:1;stroke:none;fill-rule:evenodd"
       d="M 224.3409,95.4892 225.0394,95.4892 225.0394,93.6908 224.3409,93.6908 Z"
       id="path74" />
    <path
       style="fill:#000000;fill-opacity:1;stroke:none;fill-rule:evenodd"
       d="M 224.3409,91.4252 225.0394,91.4252 225.0394,89.6268 224.3409,89.6268 Z"
       id="path75" />
    <path
       style="fill:#000000;fill-opacity:1;stroke:none;fill-rule:evenodd"
       d="M 223.0709,95.4892 223.7694,95.4892 223.7694,93.6908 223.0709,93.6908 Z"
       id="path76" />
    <path
       style="fill:#000000;fill-opacity:1;stroke:none;fill-rule:evenodd"
       d="M 223.0709,91.4252 223.7694,91.4252 223.7694,89.6268 223.0709,89.6268 Z"
       id="path77" />
    <path
       style="fill:#000000;fill-opacity:1;stroke:none;fill-rule:evenodd"
       d="M 221.8010,95.4892 222.4994,95.4892 222.4994,93.6908 221.8010,93.6908 Z"
       id="path78" />
    <path
       style="fill:#000000;fill-opacity:1;stroke:none;fill-rule:evenodd"
       d="M 221.8010,91.4252 222.4994,91.4252 222.4994,89.6268 221.8010,89.6268 Z"
       id="path79" />
    <path
       style="fill:#000000;fill-opacity:1;stroke:none;fill-rule:evenodd"
       d="M 220.5309,95.4892 221.2294,95.4892 221.2294,93.6908 220.5309,93.6908 Z"
       id="path80" />
    <path
       style="fill:#000000;fill-opacity:1;stroke:none;fill-rule:evenodd"
       d="M 220.5309,91.4252 221.2294,91.4252 221.2294,89.6268 220.5309,89.6268 Z"
       id="path81" />
    <path
       style="fill:#000000;fill-opacity:1;stroke:none;fill-rule:evenodd"
       d="M 219.2609,95.4892 219.9595,95.4892 219.9595,93.6908 219.2609,93.6908 Z"
       id="path82" />
    <path
       style="fill:#000000;fill-opacity:1;stroke:none;fill-rule:evenodd"
       d="M 219.2609,91.4252 219.9595,91.4252 219.9595,89.6268 219.2609,89.6268 Z"
       id="path83" />
    <path
       style="fill:#000000;fill-opacity:1;stroke:none;fill-rule:evenodd"
       d="M 217.9909,95.4892 218.6894,95.4892 218.6894,93.6908 217.9909,93.6908 Z"
       id="path84" />
    <path
       style="fill:#000000;fill-opacity:1;stroke:none;fill-rule:evenodd"
       d="M 217.9909,91.4252 218.6894,91.4252 218.6894,89.6268 217.9909,89.6268 Z"
       id="path85" />
    <path
       style="fill:#000000;fill-opacity:1;stroke:none;fill-rule:evenodd"
       d="M 216.7209,95.4892 217.4194,95.4892 217.4194,93.6908 216.7209,93.6908 Z"
       id="path86" />
    <path
       style="fill:#000000;fill-opacity:1;stroke:none;fill-rule:evenodd"
       d="M 216.7209,91.4252 217.4194,91.4252 217.4194,89.6268 216.7209,89.6268 Z"
       id="path87" />
    <path
       style="fill:#000000;fill-opacity:1;stroke:none;fill-rule:evenodd"
       d="M 215.4509,95.4892 216.1495,95.4892 216.1495,93.6908 215.4509,93.6908 Z"
       id="path88" />
    <path
       style="fill:#000000;fill-opacity:1;stroke:none;fill-rule:evenodd"
       d="M 215.4509,91.4252 216.1495,91.4252 216.1495,89.6268 215.4509,89.6268 Z"
       id="path89" />
    <path
       style="fill:#000000;fill-opacity:1;stroke:none;fill-rule:evenodd"
       d="M 214.1809,95.4892 214.8794,95.4892 214.8794,93.6908 214.1809,93.6908 Z"
       id="path90" />
    <path
       style="fill:#000000;fill-opacity:1;stroke:none;fill-rule:evenodd"
       d="M 214.1809,91.4252 214.8794,91.4252 214.8794,89.6268 214.1809,89.6268 Z"
       id="path91" />
    <path
       style="fill:#000000;fill-opacity:1;stroke:none;fill-rule:evenodd"
       d="M 212.9109,95.4892 213.6094,95.4892 213.6094,93.6908 212.9109,93.6908 Z"
       id="path92" />
    <path
       style="fill:#000000;fill-opacity:1;stroke:none;fill-rule:evenodd"
       d="M 212.9109,91.4252 213.6094,91.4252 213.6094,89.6268 212.9109,89.6268 Z"
       id="path93" />
    <path
       style="fill:#000000;fill-opacity:1;stroke:none;fill-rule:evenodd"
       d="M 211.6410,95.4892 212.3394,95.4892 212.3394,93.6908 211.6410,93.6908 Z"
       id="path94" />
    <path
       style="fill:#000000;fill-opacity:1;stroke:none;fill-rule:evenodd"
       d="M 211.6410,91.4252 212.3394,91.4252 212.3394,89.6268 211.6410,89.6268 Z"
       id="path95" />
    <path
       style="fill:#000000;fill-opacity:1;stroke:none;fill-rule:evenodd"
       d="M 210.3709,95.4892 211.0694,95.4892 211.0694,93.6908 210.3709,93.6908 Z"
       id="path96" />
    <path
       style="fill:#000000;fill-opacity:1;stroke:none;fill-rule:evenodd"
       d="M 210.3709,91.4252 211.0694,91.4252 211.0694,89.6268 210.3709,89.6268 Z"
       id="path97" />
    <path
       style="fill:#000000;fill-opacity:1;stroke:none;fill-rule:evenodd"
       d="M 209.1009,95.4892 209.7994,95.4892 209.7994,93.6908 209.1009,93.6908 Z"
       id="path98" />
    <path
       style="fill:#000000;fill-opacity:1;stroke:none;fill-rule:evenodd"
       d="M 209.1009,91.4252 209.7994,91.4252 209.7994,89.6268 209.1009,89.6268 Z"
       id="path99" />
    <path
       style="fill:#000000;fill-opacity:1;stroke:none;fill-rule:evenodd"
       d="M 207.8310,95.4892 208.5294,95.4892 208.5294,93.6908 207.8310,93.6908 Z"
       id="path100" />
    <path
       style="fill:#000000;fill-opacity:1;stroke:none;fill-rule:evenodd"
       d="M 207.8310,91.4252 208.5294,91.4252 208.5294,89.6268 207.8310,89.6268 Z"
       id="path101" />
    <path
       style="fill:#000000;fill-opacity:1;stroke:none;fill-rule:evenodd"
       d="M 206.5609,95.4892 207.2594,95.4892 207.2594,93.6908 206.5609,93.6908 Z"
       id="path102" />
    <path
       style="fill:#000000;fill-opacity:1;stroke:none;fill-rule:evenodd"
       d="M 206.5609,91.4252 207.2594,91.4252 207.2594,89.6268 206.5609,89.6268 Z"
       id="path103" />
    <path
       style="fill:#000000;fill-opacity:1;stroke:none;fill-rule:evenodd"
       d="M 184.2522,125.2500 184.2332,125.1543 184.1790,125.0732 184.0979,125.0190 184.0022,125.0000 183.3022,125.0000 183.2065,125.0190 183.1254,125.0732 183.0712,125.1543 183.0522,125.2500 183.0522,126.1500 183.0712,126.2457 183.1254,126.3268 183.2065,126.3810 183.3022,126.4000 184.0022,126.4000 184.0979,126.3810 184.1790,126.3268 184.2332,126.2457 184.2522,126.1500 Z"
       id="path104" />
    <path
       style="fill:#000000;fill-opacity:1;stroke:none;fill-rule:evenodd"
       d="M 182.2522,125.2500 182.2332,125.1543 182.1790,125.0732 182.0979,125.0190 182.0022,125.0000 181.3022,125.0000 181.2065,125.0190 181.1254,125.0732 181.0712,125.1543 181.0522,125.2500 181.0522,126.1500 181.0712,126.2457 181.1254,126.3268 181.2065,126.3810 181.3022,126.4000 182.0022,126.4000 182.0979,126.3810 182.1790,126.3268 182.2332,126.2457 182.2522,126.1500 Z"
       id="path105" />
    <path
       style="fill:#000000;fill-opacity:1;stroke:none;fill-rule:evenodd"
       d="M 198.3583,113.4162 198.4492,113.3981 198.5262,113.3466 198.5777,113.2696 198.5958,113.1787 198.5958,112.5787 198.5777,112.4878 198.5262,112.4108 198.4492,112.3593 198.3583,112.3412 197.8833,112.3412 197.7924,112.3593 197.7154,112.4108 197.6639,112.4878 197.6458,112.5787 197.6458,113.1787 197.6639,113.2696 197.7154,113.3466 197.7924,113.3981 197.8833,113.4162 Z"
       id="path106" />
    <path
       style="fill:#000000;fill-opacity:1;stroke:none;fill-rule:evenodd"
       d="M 198.3583,111.6912 198.4492,111.6731 198.5262,111.6216 198.5777,111.5446 198.5958,111.4537 198.5958,110.8537 198.5777,110.7628 198.5262,110.6858 198.4492,110.6343 198.3583,110.6162 197.8833,110.6162 197.7924,110.6343 197.7154,110.6858 197.6639,110.7628 197.6458,110.8537 197.6458,111.4537 197.6639,111.5446 197.7154,111.6216 197.7924,111.6731 197.8833,111.6912 Z"
       id="path107" />
    <path
       style="fill:#000000;fill-opacity:1;stroke:none;fill-rule:evenodd"
       d="M 227.4994,86.8170 227.5108,86.8744 227.5433,86.9231 227.5920,86.9556 227.6494,86.9670 229.2994,86.9670 229.3568,86.9556 229.4055,86.9231 229.4380,86.8744 229.4494,86.8170 229.4494,86.5170 229.4380,86.4596 229.4055,86.4109 229.3568,86.3784 229.2994,86.3670 227.6494,86.3670 227.5920,86.3784 227.5433,86.4109 227.5108,86.4596 227.4994,86.5170 Z"
       id="path108" />
    <path
       style="fill:#000000;fill-opacity:1;stroke:none;fill-rule:evenodd"
       d="M 227.4994,85.5470 227.5108,85.6044 227.5433,85.6531 227.5920,85.6856 227.6494,85.6970 229.2994,85.6970 229.3568,85.6856 229.4055,85.6531 229.4380,85.6044 229.4494,85.5470 229.4494,85.2470 229.4380,85.1896 229.4055,85.1409 229.3568,85.1084 229.2994,85.0970 227.6494,85.0970 227.5920,85.1084 227.5433,85.1409 227.5108,85.1896 227.4994,85.2470 Z"
       id="path109" />
    <path
       style="fill:#000000;fill-opacity:1;stroke:none;fill-rule:evenodd"
       d="M 227.4994,84.2770 227.5108,84.3344 227.5433,84.3831 227.5920,84.4156 227.6494,84.4270 229.2994,84.4270 229.3568,84.4156 229.4055,84.3831 229.4380,84.3344 229.4494,84.2770 229.4494,83.9770 229.4380,83.9196 229.4055,83.8709 229.3568,83.8384 229.2994,83.8270 227.6494,83.8270 227.5920,83.8384 227.5433,83.8709 227.5108,83.9196 227.4994,83.9770 Z"
       id="path110" />
    <path
       style="fill:#000000;fill-opacity:1;stroke:none;fill-rule:evenodd"
       d="M 227.4994,83.0070 227.5108,83.0644 227.5433,83.1131 227.5920,83.1456 227.6494,83.1570 229.2994,83.1570 229.3568,83.1456 229.4055,83.1131 229.4380,83.0644 229.4494,83.0070 229.4494,82.7070 229.4380,82.6496 229.4055,82.6009 229.3568,82.5684 229.2994,82.5570 227.6494,82.5570 227.5920,82.5684 227.5433,82.6009 227.5108,82.6496 227.4994,82.7070 Z"
       id="path111" />
    <path
       style="fill:#000000;fill-opacity:1;stroke:none;fill-rule:evenodd"
       d="M 227.4994,81.7370 227.5108,81.7944 227.5433,81.8431 227.5920,81.8756 227.6494,81.8870 229.2994,81.8870 229.3568,81.8756 229.4055,81.8431 229.4380,81.7944 229.4494,81.7370 229.4494,81.4370 229.4380,81.3796 229.4055,81.3309 229.3568,81.2984 229.2994,81.2870 227.6494,81.2870 227.5920,81.2984 227.5433,81.3309 227.5108,81.3796 227.4994,81.4370 Z"
       id="path112" />
    <path
       style="fill:#000000;fill-opacity:1;stroke:none;fill-rule:evenodd"
       d="M 227.4994,80.4670 227.5108,80.5244 227.5433,80.5731 227.5920,80.6056 227.6494,80.6170 229.2994,80.6170 229.3568,80.6056 229.4055,80.5731 229.4380,80.5244 229.4494,80.4670 229.4494,80.1670 229.4380,80.1096 229.4055,80.0609 229.3568,80.0284 229.2994,80.0170 227.6494,80.0170 227.5920,80.0284 227.5433,80.0609 227.5108,80.1096 227.4994,80.1670 Z"
       id="path113" />
    <path
       style="fill:#000000;fill-opacity:1;stroke:none;fill-rule:evenodd"
       d="M 227.4994,79.1970 227.5108,79.2544 227.5433,79.3031 227.5920,79.3356 227.6494,79.3470 229.2994,79.3470 229.3568,79.3356 229.4055,79.3031 229.4380,79.2544 229.4494,79.1970 229.4494,78.8970 229.4380,78.8396 229.4055,78.7909 229.3568,78.7584 229.2994,78.7470 227.6494,78.7470 227.5920,78.7584 227.5433,78.7909 227.5108,78.8396 227.4994,78.8970 Z"
       id="path114" />
    <path
       style="fill:#000000;fill-opacity:1;stroke:none;fill-rule:evenodd"
       d="M 227.4994,77.9270 227.5108,77.9844 227.5433,78.0331 227.5920,78.0656 227.6494,78.0770 229.2994,78.0770 229.3568,78.0656 229.4055,78.0331 229.4380,77.9844 229.4494,77.9270 229.4494,77.6270 229.4380,77.5696 229.4055,77.5209 229.3568,77.4884 229.2994,77.4770 227.6494,77.4770 227.5920,77.4884 227.5433,77.5209 227.5108,77.5696 227.4994,77.6270 Z"
       id="path115" />
    <path
       style="fill:#000000;fill-opacity:1;stroke:none;fill-rule:evenodd"
       d="M 232.4494,77.9270 232.4608,77.9844 232.4933,78.0331 232.5420,78.0656 232.5994,78.0770 234.2494,78.0770 234.3068,78.0656 234.3555,78.0331 234.3880,77.9844 234.3994,77.9270 234.3994,77.6270 234.3880,77.5696 234.3555,77.5209 234.3068,77.4884 234.2494,77.4770 232.5994,77.4770 232.5420,77.4884 232.4933,77.5209 232.4608,77.5696 232.4494,77.6270 Z"
       id="path116" />
    <path
       style="fill:#000000;fill-opacity:1;stroke:none;fill-rule:evenodd"
       d="M 232.4494,79.1970 232.4608,79.2544 232.4933,79.3031 232.5420,79.3356 232.5994,79.3470 234.2494,79.3470 234.3068,79.3356 234.3555,79.3031 234.3880,79.2544 234.3994,79.1970 234.3994,78.8970 234.3880,78.8396 234.3555,78.7909 234.3068,78.7584 234.2494,78.7470 232.5994,78.7470 232.5420,78.7584 232.4933,78.7909 232.4608,78.8396 232.4494,78.8970 Z"
       id="path117" />
    <path
       style="fill:#000000;fill-opacity:1;stroke:none;fill-rule:evenodd"
       d="M 232.4494,80.4670 232.4608,80.5244 232.4933,80.5731 232.5420,80.6056 232.5994,80.6170 234.2494,80.6170 234.3068,80.6056 234.3555,80.5731 234.3880,80.5244 234.3994,80.4670 234.3994,80.1670 234.3880,80.1096 234.3555,80.0609 234.3068,80.0284 234.2494,80.0170 232.5994,80.0170 232.5420,80.0284 232.4933,80.0609 232.4608,80.1096 232.4494,80.1670 Z"
       id="path118" />
    <path
       style="fill:#000000;fill-opacity:1;stroke:none;fill-rule:evenodd"
       d="M 232.4494,81.7370 232.4608,81.7944 232.4933,81.8431 232.5420,81.8756 232.5994,81.8870 234.2494,81.8870 234.3068,81.8756 234.3555,81.8431 234.3880,81.7944 234.3994,81.7370 234.3994,81.4370 234.3880,81.3796 234.3555,81.3309 234.3068,81.2984 234.2494,81.2870 232.5994,81.2870 232.5420,81.2984 232.4933,81.3309 232.4608,81.3796 232.4494,81.4370 Z"
       id="path119" />
    <path
       style="fill:#000000;fill-opacity:1;stroke:none;fill-rule:evenodd"
       d="M 232.4494,83.0070 232.4608,83.0644 232.4933,83.1131 232.5420,83.1456 232.5994,83.1570 234.2494,83.1570 234.3068,83.1456 234.3555,83.1131 234.3880,83.0644 234.3994,83.0070 234.3994,82.7070 234.3880,82.6496 234.3555,82.6009 234.3068,82.5684 234.2494,82.5570 232.5994,82.5570 232.5420,82.5684 232.4933,82.6009 232.4608,82.6496 232.4494,82.7070 Z"
       id="path120" />
    <path
       style="fill:#000000;fill-opacity:1;stroke:none;fill-rule:evenodd"
       d="M 232.4494,84.2770 232.4608,84.3344 232.4933,84.3831 232.5420,84.4156 232.5994,84.4270 234.2494,84.4270 234.3068,84.4156 234.3555,84.3831 234.3880,84.3344 234.3994,84.2770 234.3994,83.9770 234.3880,83.9196 234.3555,83.8709 234.3068,83.8384 234.2494,83.8270 232.5994,83.8270 232.5420,83.8384 232.4933,83.8709 232.4608,83.9196 232.4494,83.9770 Z"
       id="path121" />
    <path
       style="fill:#000000;fill-opacity:1;stroke:none;fill-rule:evenodd"
       d="M 232.4494,85.5470 232.4608,85.6044 232.4933,85.6531 232.5420,85.6856 232.5994,85.6970 234.2494,85.6970 234.3068,85.6856 234.3555,85.6531 234.3880,85.6044 234.3994,85.5470 234.3994,85.2470 234.3880,85.1896 234.3555,85.1409 234.3068,85.1084 234.2494,85.0970 232.5994,85.0970 232.5420,85.1084 232.4933,85.1409 232.4608,85.1896 232.4494,85.2470 Z"
       id="path122" />
    <path
       style="fill:#000000;fill-opacity:1;stroke:none;fill-rule:evenodd"
       d="M 232.4494,86.8170 232.4608,86.8744 232.4933,86.9231 232.5420,86.9556 232.5994,86.9670 234.2494,86.9670 234.3068,86.9556 234.3555,86.9231 234.3880,86.8744 234.3994,86.8170 234.3994,86.5170 234.3880,86.4596 234.3555,86.4109 234.3068,86.3784 234.2494,86.3670 232.5994,86.3670 232.5420,86.3784 232.4933,86.4109 232.4608,86.4596 232.4494,86.5170 Z"
       id="path123" />
    <path
       style="fill:#000000;fill-opacity:1;stroke:none;fill-rule:evenodd"
       d="M 175.2522,82.8500 175.2712,82.9457 175.3254,83.0268 175.4065,83.0810 175.5022,83.1000 176.2022,83.1000 176.2979,83.0810 176.3790,83.0268 176.4332,82.9457 176.4522,82.8500 176.4522,81.9500 176.4332,81.8543 176.3790,81.7732 176.2979,81.7190 176.2022,81.7000 175.5022,81.7000 175.4065,81.7190 175.3254,81.7732 175.2712,81.8543 175.2522,81.9500 Z"
       id="path124" />
    <path
       style="fill:#000000;fill-opacity:1;stroke:none;fill-rule:evenodd"
       d="M 177.2522,82.8500 177.2712,82.9457 177.3254,83.0268 177.4065,83.0810 177.5022,83.1000 178.2022,83.1000 178.2979,83.0810 178.3790,83.0268 178.4332,82.9457 178.4522,82.8500 178.4522,81.9500 178.4332,81.8543 178.3790,81.7732 178.2979,81.7190 178.2022,81.7000 177.5022,81.7000 177.4065,81.7190 177.3254,81.7732 177.2712,81.8543 177.2522,81.9500 Z"
       id="path125" />
    <path
       style="fill:#000000;fill-opacity:1;stroke:none;fill-rule:evenodd"
       d="M 227.2317,125.1645 227.2136,125.0736 227.1621,124.9966 227.0851,124.9451 226.9942,124.9270 226.3942,124.9270 226.3033,124.9451 226.2263,124.9966 226.1748,125.0736 226.1567,125.1645 226.1567,125.6395 226.1748,125.7304 226.2263,125.8074 226.3033,125.8589 226.3942,125.8770 226.9942,125.8770 227.0851,125.8589 227.1621,125.8074 227.2136,125.7304 227.2317,125.6395 Z"
       id="path126" />
    <path
       style="fill:#000000;fill-opacity:1;stroke:none;fill-rule:evenodd"
       d="M 225.5067,125.1645 225.4886,125.0736 225.4371,124.9966 225.3601,124.9451 225.2692,124.9270 224.6692,124.9270 224.5783,124.9451 224.5013,124.9966 224.4498,125.0736 224.4317,125.1645 224.4317,125.6395 224.4498,125.7304 224.5013,125.8074 224.5783,125.8589 224.6692,125.8770 225.2692,125.8770 225.3601,125.8589 225.4371,125.8074 225.4886,125.7304 225.5067,125.6395 Z"
       id="path127" />
    <path
       style="fill:#000000;fill-opacity:1;stroke:none;fill-rule:evenodd"
       d="M 184.4147,90.5030 184.3957,90.4073 184.3415,90.3262 184.2604,90.2720 184.1647,90.2530 183.3397,90.2530 183.2440,90.2720 183.1629,90.3262 183.1087,90.4073 183.0897,90.5030 183.0897,92.7030 183.1087,92.7987 183.1629,92.8798 183.2440,92.9340 183.3397,92.9530 184.1647,92.9530 184.2604,92.9340 184.3415,92.8798 184.3957,92.7987 184.4147,92.7030 Z"
       id="path128" />
    <path
       style="fill:#000000;fill-opacity:1;stroke:none;fill-rule:evenodd"
       d="M 181.2897,90.5030 181.2707,90.4073 181.2165,90.3262 181.1354,90.2720 181.0397,90.2530 180.2147,90.2530 180.1190,90.2720 180.0379,90.3262 179.9837,90.4073 179.9647,90.5030 179.9647,92.7030 179.9837,92.7987 180.0379,92.8798 180.1190,92.9340 180.2147,92.9530 181.0397,92.9530 181.1354,92.9340 181.2165,92.8798 181.2707,92.7987 181.2897,92.7030 Z"
       id="path129" />
    <path
       style="fill:#000000;fill-opacity:1;stroke:none;fill-rule:evenodd"
       d="M 226.6712,132.4560 226.6902,132.5517 226.7444,132.6328 226.8255,132.6870 226.9212,132.7060 227.6212,132.7060 227.7169,132.6870 227.7980,132.6328 227.8522,132.5517 227.8712,132.4560 227.8712,131.5560 227.8522,131.4603 227.7980,131.3792 227.7169,131.3250 227.6212,131.3060 226.9212,131.3060 226.8255,131.3250 226.7444,131.3792 226.6902,131.4603 226.6712,131.5560 Z"
       id="path130" />
    <path
       style="fill:#000000;fill-opacity:1;stroke:none;fill-rule:evenodd"
       d="M 228.6712,132.4560 228.6902,132.5517 228.7444,132.6328 228.8255,132.6870 228.9212,132.7060 229.6212,132.7060 229.7169,132.6870 229.7980,132.6328 229.8522,132.5517 229.8712,132.4560 229.8712,131.5560 229.8522,131.4603 229.7980,131.3792 229.7169,131.3250 229.6212,131.3060 228.9212,131.3060 228.8255,131.3250 228.7444,131.3792 228.6902,131.4603 228.6712,131.5560 Z"
       id="path131" />
    <path
       style="fill:#000000;fill-opacity:1;stroke:none;fill-rule:evenodd"
       d="M 184.4147,85.5500 184.3957,85.4543 184.3415,85.3732 184.2604,85.3190 184.1647,85.3000 183.3397,85.3000 183.2440,85.3190 183.1629,85.3732 183.1087,85.4543 183.0897,85.5500 183.0897,87.7500 183.1087,87.8457 183.1629,87.9268 183.2440,87.9810 183.3397,88.0000 184.1647,88.0000 184.2604,87.9810 184.3415,87.9268 184.3957,87.8457 184.4147,87.7500 Z"
       id="path132" />
    <path
       style="fill:#000000;fill-opacity:1;stroke:none;fill-rule:evenodd"
       d="M 181.2897,85.5500 181.2707,85.4543 181.2165,85.3732 181.1354,85.3190 181.0397,85.3000 180.2147,85.3000 180.1190,85.3190 180.0379,85.3732 179.9837,85.4543 179.9647,85.5500 179.9647,87.7500 179.9837,87.8457 180.0379,87.9268 180.1190,87.9810 180.2147,88.0000 181.0397,88.0000 181.1354,87.9810 181.2165,87.9268 181.2707,87.8457 181.2897,87.7500 Z"
       id="path133" />
    <path
       style="fill:#000000;fill-opacity:1;stroke:none;fill-rule:evenodd"
       d="M 225.5807,131.7685 225.5626,131.6776 225.5111,131.6006 225.4341,131.5491 225.3432,131.5310 224.7432,131.5310 224.6523,131.5491 224.5753,131.6006 224.5238,131.6776 224.5057,131.7685 224.5057,132.2435 224.5238,132.3344 224.5753,132.4114 224.6523,132.4629 224.7432,132.4810 225.3432,132.4810 225.4341,132.4629 225.5111,132.4114 225.5626,132.3344 225.5807,132.2435 Z"
       id="path134" />
    <path
       style="fill:#000000;fill-opacity:1;stroke:none;fill-rule:evenodd"
       d="M 223.8557,131.7685 223.8376,131.6776 223.7861,131.6006 223.7091,131.5491 223.6182,131.5310 223.0182,131.5310 222.9273,131.5491 222.8503,131.6006 222.7988,131.6776 222.7807,131.7685 222.7807,132.2435 222.7988,132.3344 222.8503,132.4114 222.9273,132.4629 223.0182,132.4810 223.6182,132.4810 223.7091,132.4629 223.7861,132.4114 223.8376,132.3344 223.8557,132.2435 Z"
       id="path135" />
    <path
       style="fill:#000000;fill-opacity:1;stroke:none;fill-rule:evenodd"
       d="M 178.5470,108.1725 178.5651,108.2634 178.6166,108.3404 178.6936,108.3919 178.7845,108.4100 179.3845,108.4100 179.4754,108.3919 179.5524,108.3404 179.6039,108.2634 179.6220,108.1725 179.6220,107.6975 179.6039,107.6066 179.5524,107.5296 179.4754,107.4781 179.3845,107.4600 178.7845,107.4600 178.6936,107.4781 178.6166,107.5296 178.5651,107.6066 178.5470,107.6975 Z"
       id="path136" />
    <path
       style="fill:#000000;fill-opacity:1;stroke:none;fill-rule:evenodd"
       d="M 180.2720,108.1725 180.2901,108.2634 180.3416,108.3404 180.4186,108.3919 180.5095,108.4100 181.1095,108.4100 181.2004,108.3919 181.2774,108.3404 181.3289,108.2634 181.3470,108.1725 181.3470,107.6975 181.3289,107.6066 181.2774,107.5296 181.2004,107.4781 181.1095,107.4600 180.5095,107.4600 180.4186,107.4781 180.3416,107.5296 180.2901,107.6066 180.2720,107.6975 Z"
       id="path137" />
    <path
       style="fill:#000000;fill-opacity:1;stroke:none;fill-rule:evenodd"
       d="M 245.4612,102.0140 251.4612,102.0140 251.4612,99.5140 245.4612,99.5140 Z"
       id="path138" />
    <path
       style="fill:#000000;fill-opacity:1;stroke:none;fill-rule:evenodd"
       d="M 241.1912,102.5340 243.6912,102.5340 243.6912,101.5340 241.1912,101.5340 Z"
       id="path139" />
    <path
       style="fill:#000000;fill-opacity:1;stroke:none;fill-rule:evenodd"
       d="M 241.1912,99.9940 243.6912,99.9940 243.6912,98.9940 241.1912,98.9940 Z"
       id="path140" />
    <path
       style="fill:#000000;fill-opacity:1;stroke:none;fill-rule:evenodd"
       d="M 238.1272,127.2250 238.1082,127.1293 238.0540,127.0482 237.9729,126.9940 237.8772,126.9750 237.2022,126.9750 237.1065,126.9940 237.0254,127.0482 236.9712,127.1293 236.9522,127.2250 236.9522,128.1750 236.9712,128.2707 237.0254,128.3518 237.1065,128.4060 237.2022,128.4250 237.8772,128.4250 237.9729,128.4060 238.0540,128.3518 238.1082,128.2707 238.1272,128.1750 Z"
       id="path141" />
    <path
       style="fill:#000000;fill-opacity:1;stroke:none;fill-rule:evenodd"
       d="M 236.0522,127.2250 236.0332,127.1293 235.9790,127.0482 235.8979,126.9940 235.8022,126.9750 235.1272,126.9750 235.0315,126.9940 234.9504,127.0482 234.8962,127.1293 234.8772,127.2250 234.8772,128.1750 234.8962,128.2707 234.9504,128.3518 235.0315,128.4060 235.1272,128.4250 235.8022,128.4250 235.8979,128.4060 235.9790,128.3518 236.0332,128.2707 236.0522,128.1750 Z"
       id="path142" />
    <path
       style="fill:#000000;fill-opacity:1;stroke:none;fill-rule:evenodd"
       d="M 198.3508,104.8946 198.4465,104.8756 198.5276,104.8214 198.5818,104.7403 198.6008,104.6446 198.6008,103.9446 198.5818,103.8489 198.5276,103.7678 198.4465,103.7136 198.3508,103.6946 197.4508,103.6946 197.3551,103.7136 197.2740,103.7678 197.2198,103.8489 197.2008,103.9446 197.2008,104.6446 197.2198,104.7403 197.2740,104.8214 197.3551,104.8756 197.4508,104.8946 Z"
       id="path143" />
    <path
       style="fill:#000000;fill-opacity:1;stroke:none;fill-rule:evenodd"
       d="M 198.3508,102.8946 198.4465,102.8756 198.5276,102.8214 198.5818,102.7403 198.6008,102.6446 198.6008,101.9446 198.5818,101.8489 198.5276,101.7678 198.4465,101.7136 198.3508,101.6946 197.4508,101.6946 197.3551,101.7136 197.2740,101.7678 197.2198,101.8489 197.2008,101.9446 197.2008,102.6446 197.2198,102.7403 197.2740,102.8214 197.3551,102.8756 197.4508,102.8946 Z"
       id="path144" />
    <path
       style="fill:#000000;fill-opacity:1;stroke:none;fill-rule:evenodd"
       d="M 212.7082,127.6120 212.6125,127.6310 212.5314,127.6852 212.4772,127.7663 212.4582,127.8620 212.4582,128.5620 212.4772,128.6577 212.5314,128.7388 212.6125,128.7930 212.7082,128.8120 213.6082,128.8120 213.7039,128.7930 213.7850,128.7388 213.8392,128.6577 213.8582,128.5620 213.8582,127.8620 213.8392,127.7663 213.7850,127.6852 213.7039,127.6310 213.6082,127.6120 Z"
       id="path145" />
    <path
       style="fill:#000000;fill-opacity:1;stroke:none;fill-rule:evenodd"
       d="M 212.7082,129.6120 212.6125,129.6310 212.5314,129.6852 212.4772,129.7663 212.4582,129.8620 212.4582,130.5620 212.4772,130.6577 212.5314,130.7388 212.6125,130.7930 212.7082,130.8120 213.6082,130.8120 213.7039,130.7930 213.7850,130.7388 213.8392,130.6577 213.8582,130.5620 213.8582,129.8620 213.8392,129.7663 213.7850,129.6852 213.7039,129.6310 213.6082,129.6120 Z"
       id="path146" />
    <path
       style="fill:#000000;fill-opacity:1;stroke:none;fill-rule:evenodd"
       d="M 180.8897,115.3689 180.9825,115.3504 181.0612,115.2979 181.1137,115.2192 181.1322,115.1264 181.1322,114.6414 181.1137,114.5486 181.0612,114.4699 180.9825,114.4174 180.8897,114.3989 180.0447,114.3989 179.9519,114.4174 179.8732,114.4699 179.8207,114.5486 179.8022,114.6414 179.8022,115.1264 179.8207,115.2192 179.8732,115.2979 179.9519,115.3504 180.0447,115.3689 Z"
       id="path147" />
    <path
       style="fill:#000000;fill-opacity:1;stroke:none;fill-rule:evenodd"
       d="M 179.2397,115.3689 179.3325,115.3504 179.4112,115.2979 179.4637,115.2192 179.4822,115.1264 179.4822,114.6414 179.4637,114.5486 179.4112,114.4699 179.3325,114.4174 179.2397,114.3989 178.3947,114.3989 178.3019,114.4174 178.2232,114.4699 178.1707,114.5486 178.1522,114.6414 178.1522,115.1264 178.1707,115.2192 178.2232,115.2979 178.3019,115.3504 178.3947,115.3689 Z"
       id="path148" />
    <path
       style="fill:#000000;fill-opacity:1;stroke:none;fill-rule:evenodd"
       d="M 180.8897,114.1689 180.9825,114.1504 181.0612,114.0979 181.1137,114.0192 181.1322,113.9264 181.1322,113.4414 181.1137,113.3486 181.0612,113.2699 180.9825,113.2174 180.8897,113.1989 180.0447,113.1989 179.9519,113.2174 179.8732,113.2699 179.8207,113.3486 179.8022,113.4414 179.8022,113.9264 179.8207,114.0192 179.8732,114.0979 179.9519,114.1504 180.0447,114.1689 Z"
       id="path149" />
    <path
       style="fill:#000000;fill-opacity:1;stroke:none;fill-rule:evenodd"
       d="M 179.2397,114.1689 179.3325,114.1504 179.4112,114.0979 179.4637,114.0192 179.4822,113.9264 179.4822,113.4414 179.4637,113.3486 179.4112,113.2699 179.3325,113.2174 179.2397,113.1989 178.3947,113.1989 178.3019,113.2174 178.2232,113.2699 178.1707,113.3486 178.1522,113.4414 178.1522,113.9264 178.1707,114.0192 178.2232,114.0979 178.3019,114.1504 178.3947,114.1689 Z"
       id="path150" />
    <path
       style="fill:#000000;fill-opacity:1;stroke:none;fill-rule:evenodd"
       d="M 181.6972,117.7339 181.7546,117.7225 181.8033,117.6900 181.8358,117.6413 181.8472,117.5839 181.8472,115.9339 181.8358,115.8765 181.8033,115.8278 181.7546,115.7953 181.6972,115.7839 181.3972,115.7839 181.3398,115.7953 181.2911,115.8278 181.2586,115.8765 181.2472,115.9339 181.2472,117.5839 181.2586,117.6413 181.2911,117.6900 181.3398,117.7225 181.3972,117.7339 Z"
       id="path151" />
    <path
       style="fill:#000000;fill-opacity:1;stroke:none;fill-rule:evenodd"
       d="M 180.4272,117.7339 180.4846,117.7225 180.5333,117.6900 180.5658,117.6413 180.5772,117.5839 180.5772,115.9339 180.5658,115.8765 180.5333,115.8278 180.4846,115.7953 180.4272,115.7839 180.1272,115.7839 180.0698,115.7953 180.0211,115.8278 179.9886,115.8765 179.9772,115.9339 179.9772,117.5839 179.9886,117.6413 180.0211,117.6900 180.0698,117.7225 180.1272,117.7339 Z"
       id="path152" />
    <path
       style="fill:#000000;fill-opacity:1;stroke:none;fill-rule:evenodd"
       d="M 179.1572,117.7339 179.2146,117.7225 179.2633,117.6900 179.2958,117.6413 179.3072,117.5839 179.3072,115.9339 179.2958,115.8765 179.2633,115.8278 179.2146,115.7953 179.1572,115.7839 178.8572,115.7839 178.7998,115.7953 178.7511,115.8278 178.7186,115.8765 178.7072,115.9339 178.7072,117.5839 178.7186,117.6413 178.7511,117.6900 178.7998,117.7225 178.8572,117.7339 Z"
       id="path153" />
    <path
       style="fill:#000000;fill-opacity:1;stroke:none;fill-rule:evenodd"
       d="M 177.8872,117.7339 177.9446,117.7225 177.9933,117.6900 178.0258,117.6413 178.0372,117.5839 178.0372,115.9339 178.0258,115.8765 177.9933,115.8278 177.9446,115.7953 177.8872,115.7839 177.5872,115.7839 177.5298,115.7953 177.4811,115.8278 177.4486,115.8765 177.4372,115.9339 177.4372,117.5839 177.4486,117.6413 177.4811,117.6900 177.5298,117.7225 177.5872,117.7339 Z"
       id="path154" />
    <path
       style="fill:#000000;fill-opacity:1;stroke:none;fill-rule:evenodd"
       d="M 177.8872,112.7839 177.9446,112.7725 177.9933,112.7400 178.0258,112.6913 178.0372,112.6339 178.0372,110.9839 178.0258,110.9265 177.9933,110.8778 177.9446,110.8453 177.8872,110.8339 177.5872,110.8339 177.5298,110.8453 177.4811,110.8778 177.4486,110.9265 177.4372,110.9839 177.4372,112.6339 177.4486,112.6913 177.4811,112.7400 177.5298,112.7725 177.5872,112.7839 Z"
       id="path155" />
    <path
       style="fill:#000000;fill-opacity:1;stroke:none;fill-rule:evenodd"
       d="M 179.1572,112.7839 179.2146,112.7725 179.2633,112.7400 179.2958,112.6913 179.3072,112.6339 179.3072,110.9839 179.2958,110.9265 179.2633,110.8778 179.2146,110.8453 179.1572,110.8339 178.8572,110.8339 178.7998,110.8453 178.7511,110.8778 178.7186,110.9265 178.7072,110.9839 178.7072,112.6339 178.7186,112.6913 178.7511,112.7400 178.7998,112.7725 178.8572,112.7839 Z"
       id="path156" />
    <path
       style="fill:#000000;fill-opacity:1;stroke:none;fill-rule:evenodd"
       d="M 180.4272,112.7839 180.4846,112.7725 180.5333,112.7400 180.5658,112.6913 180.5772,112.6339 180.5772,110.9839 180.5658,110.9265 180.5333,110.8778 180.4846,110.8453 180.4272,110.8339 180.1272,110.8339 180.0698,110.8453 180.0211,110.8778 179.9886,110.9265 179.9772,110.9839 179.9772,112.6339 179.9886,112.6913 180.0211,112.7400 180.0698,112.7725 180.1272,112.7839 Z"
       id="path157" />
    <path
       style="fill:#000000;fill-opacity:1;stroke:none;fill-rule:evenodd"
       d="M 181.6972,112.7839 181.7546,112.7725 181.8033,112.7400 181.8358,112.6913 181.8472,112.6339 181.8472,110.9839 181.8358,110.9265 181.8033,110.8778 181.7546,110.8453 181.6972,110.8339 181.3972,110.8339 181.3398,110.8453 181.2911,110.8778 181.2586,110.9265 181.2472,110.9839 181.2472,112.6339 181.2586,112.6913 181.2911,112.7400 181.3398,112.7725 181.3972,112.7839 Z"
       id="path158" />
    <path
       style="fill:#000000;fill-opacity:1;stroke:none;fill-rule:evenodd"
       d="M 242.2037,104.4440 242.1128,104.4621 242.0358,104.5136 241.9843,104.5906 241.9662,104.6815 241.9662,105.2815 241.9843,105.3724 242.0358,105.4494 242.1128,105.5009 242.2037,105.5190 242.6787,105.5190 242.7696,105.5009 242.8466,105.4494 242.8981,105.3724 242.9162,105.2815 242.9162,104.6815 242.8981,104.5906 242.8466,104.5136 242.7696,104.4621 242.6787,104.4440 Z"
       id="path159" />
    <path
       style="fill:#000000;fill-opacity:1;stroke:none;fill-rule:evenodd"
       d="M 242.2037,106.1690 242.1128,106.1871 242.0358,106.2386 241.9843,106.3156 241.9662,106.4065 241.9662,107.0065 241.9843,107.0974 242.0358,107.1744 242.1128,107.2259 242.2037,107.2440 242.6787,107.2440 242.7696,107.2259 242.8466,107.1744 242.8981,107.0974 242.9162,107.0065 242.9162,106.4065 242.8981,106.3156 242.8466,106.2386 242.7696,106.1871 242.6787,106.1690 Z"
       id="path160" />
    <path
       style="fill:#000000;fill-opacity:1;stroke:none;fill-rule:evenodd"
       d="M 198.3508,109.5014 198.4465,109.4824 198.5276,109.4282 198.5818,109.3471 198.6008,109.2514 198.6008,108.5514 198.5818,108.4557 198.5276,108.3746 198.4465,108.3204 198.3508,108.3014 197.4508,108.3014 197.3551,108.3204 197.2740,108.3746 197.2198,108.4557 197.2008,108.5514 197.2008,109.2514 197.2198,109.3471 197.2740,109.4282 197.3551,109.4824 197.4508,109.5014 Z"
       id="path161" />
    <path
       style="fill:#000000;fill-opacity:1;stroke:none;fill-rule:evenodd"
       d="M 198.3508,107.5014 198.4465,107.4824 198.5276,107.4282 198.5818,107.3471 198.6008,107.2514 198.6008,106.5514 198.5818,106.4557 198.5276,106.3746 198.4465,106.3204 198.3508,106.3014 197.4508,106.3014 197.3551,106.3204 197.2740,106.3746 197.2198,106.4557 197.2008,106.5514 197.2008,107.2514 197.2198,107.3471 197.2740,107.4282 197.3551,107.4824 197.4508,107.5014 Z"
       id="path162" />
    <path
       style="fill:#000000;fill-opacity:1;stroke:none;fill-rule:evenodd"
       d="M 178.2397,86.3285 178.2216,86.2376 178.1701,86.1606 178.0931,86.1091 178.0022,86.0910 177.4022,86.0910 177.3113,86.1091 177.2343,86.1606 177.1828,86.2376 177.1647,86.3285 177.1647,86.8035 177.1828,86.8944 177.2343,86.9714 177.3113,87.0229 177.4022,87.0410 178.0022,87.0410 178.0931,87.0229 178.1701,86.9714 178.2216,86.8944 178.2397,86.8035 Z"
       id="path163" />
    <path
       style="fill:#000000;fill-opacity:1;stroke:none;fill-rule:evenodd"
       d="M 176.5147,86.3285 176.4966,86.2376 176.4451,86.1606 176.3681,86.1091 176.2772,86.0910 175.6772,86.0910 175.5863,86.1091 175.5093,86.1606 175.4578,86.2376 175.4397,86.3285 175.4397,86.8035 175.4578,86.8944 175.5093,86.9714 175.5863,87.0229 175.6772,87.0410 176.2772,87.0410 176.3681,87.0229 176.4451,86.9714 176.4966,86.8944 176.5147,86.8035 Z"
       id="path164" />
    <path
       style="fill:#000000;fill-opacity:1;stroke:none;fill-rule:evenodd"
       d="M 199.9424,126.2693 199.8850,126.2807 199.8363,126.3132 199.8038,126.3619 199.7924,126.4193 199.7924,127.5943 199.8038,127.6517 199.8363,127.7004 199.8850,127.7329 199.9424,127.7443 200.2424,127.7443 200.2998,127.7329 200.3485,127.7004 200.3810,127.6517 200.3924,127.5943 200.3924,126.4193 200.3810,126.3619 200.3485,126.3132 200.2998,126.2807 200.2424,126.2693 Z"
       id="path165" />
    <path
       style="fill:#000000;fill-opacity:1;stroke:none;fill-rule:evenodd"
       d="M 201.8424,126.2693 201.7850,126.2807 201.7363,126.3132 201.7038,126.3619 201.6924,126.4193 201.6924,127.5943 201.7038,127.6517 201.7363,127.7004 201.7850,127.7329 201.8424,127.7443 202.1424,127.7443 202.1998,127.7329 202.2485,127.7004 202.2810,127.6517 202.2924,127.5943 202.2924,126.4193 202.2810,126.3619 202.2485,126.3132 202.1998,126.2807 202.1424,126.2693 Z"
       id="path166" />
    <path
       style="fill:#000000;fill-opacity:1;stroke:none;fill-rule:evenodd"
       d="M 200.8924,128.1443 200.8350,128.1557 200.7863,128.1882 200.7538,128.2369 200.7424,128.2943 200.7424,129.4693 200.7538,129.5267 200.7863,129.5754 200.8350,129.6079 200.8924,129.6193 201.1924,129.6193 201.2498,129.6079 201.2985,129.5754 201.3310,129.5267 201.3424,129.4693 201.3424,128.2943 201.3310,128.2369 201.2985,128.1882 201.2498,128.1557 201.1924,128.1443 Z"
       id="path167" />
    <path
       style="fill:#000000;fill-opacity:1;stroke:none;fill-rule:evenodd"
       d="M 231.5636,124.9506 231.5446,124.8549 231.4904,124.7738 231.4093,124.7196 231.3136,124.7006 230.6136,124.7006 230.5179,124.7196 230.4368,124.7738 230.3826,124.8549 230.3636,124.9506 230.3636,125.8506 230.3826,125.9463 230.4368,126.0274 230.5179,126.0816 230.6136,126.1006 231.3136,126.1006 231.4093,126.0816 231.4904,126.0274 231.5446,125.9463 231.5636,125.8506 Z"
       id="path168" />
    <path
       style="fill:#000000;fill-opacity:1;stroke:none;fill-rule:evenodd"
       d="M 229.5636,124.9506 229.5446,124.8549 229.4904,124.7738 229.4093,124.7196 229.3136,124.7006 228.6136,124.7006 228.5179,124.7196 228.4368,124.7738 228.3826,124.8549 228.3636,124.9506 228.3636,125.8506 228.3826,125.9463 228.4368,126.0274 228.5179,126.0816 228.6136,126.1006 229.3136,126.1006 229.4093,126.0816 229.4904,126.0274 229.5446,125.9463 229.5636,125.8506 Z"
       id="path169" />
    <path
       style="fill:#000000;fill-opacity:1;stroke:none;fill-rule:evenodd"
       d="M 192.1432,131.4400 192.1622,131.5357 192.2164,131.6168 192.2975,131.6710 192.3932,131.6900 193.0932,131.6900 193.1889,131.6710 193.2700,131.6168 193.3242,131.5357 193.3432,131.4400 193.3432,130.5400 193.3242,130.4443 193.2700,130.3632 193.1889,130.3090 193.0932,130.2900 192.3932,130.2900 192.2975,130.3090 192.2164,130.3632 192.1622,130.4443 192.1432,130.5400 Z"
       id="path170" />
    <path
       style="fill:#000000;fill-opacity:1;stroke:none;fill-rule:evenodd"
       d="M 194.1432,131.4400 194.1622,131.5357 194.2164,131.6168 194.2975,131.6710 194.3932,131.6900 195.0932,131.6900 195.1889,131.6710 195.2700,131.6168 195.3242,131.5357 195.3432,131.4400 195.3432,130.5400 195.3242,130.4443 195.2700,130.3632 195.1889,130.3090 195.0932,130.2900 194.3932,130.2900 194.2975,130.3090 194.2164,130.3632 194.1622,130.4443 194.1432,130.5400 Z"
       id="path171" />
    <path
       style="fill:#000000;fill-opacity:1;stroke:none;fill-rule:evenodd"
       d="M 178.4397,90.0530 178.4207,89.9573 178.3665,89.8762 178.2854,89.8220 178.1897,89.8030 177.4897,89.8030 177.3940,89.8220 177.3129,89.8762 177.2587,89.9573 177.2397,90.0530 177.2397,90.9530 177.2587,91.0487 177.3129,91.1298 177.3940,91.1840 177.4897,91.2030 178.1897,91.2030 178.2854,91.1840 178.3665,91.1298 178.4207,91.0487 178.4397,90.9530 Z"
       id="path172" />
    <path
       style="fill:#000000;fill-opacity:1;stroke:none;fill-rule:evenodd"
       d="M 176.4397,90.0530 176.4207,89.9573 176.3665,89.8762 176.2854,89.8220 176.1897,89.8030 175.4897,89.8030 175.3940,89.8220 175.3129,89.8762 175.2587,89.9573 175.2397,90.0530 175.2397,90.9530 175.2587,91.0487 175.3129,91.1298 175.3940,91.1840 175.4897,91.2030 176.1897,91.2030 176.2854,91.1840 176.3665,91.1298 176.4207,91.0487 176.4397,90.9530 Z"
       id="path173" />
    <path
       style="fill:#000000;fill-opacity:1;stroke:none;fill-rule:evenodd"
       d="M 178.1709,120.5630 178.1528,120.4721 178.1013,120.3951 178.0243,120.3436 177.9334,120.3255 177.3334,120.3255 177.2425,120.3436 177.1655,120.3951 177.1140,120.4721 177.0959,120.5630 177.0959,121.0380 177.1140,121.1289 177.1655,121.2059 177.2425,121.2574 177.3334,121.2755 177.9334,121.2755 178.0243,121.2574 178.1013,121.2059 178.1528,121.1289 178.1709,121.0380 Z"
       id="path174" />
    <path
       style="fill:#000000;fill-opacity:1;stroke:none;fill-rule:evenodd"
       d="M 176.4459,120.5630 176.4278,120.4721 176.3763,120.3951 176.2993,120.3436 176.2084,120.3255 175.6084,120.3255 175.5175,120.3436 175.4405,120.3951 175.3890,120.4721 175.3709,120.5630 175.3709,121.0380 175.3890,121.1289 175.4405,121.2059 175.5175,121.2574 175.6084,121.2755 176.2084,121.2755 176.2993,121.2574 176.3763,121.2059 176.4278,121.1289 176.4459,121.0380 Z"
       id="path175" />
    <path
       style="fill:#000000;fill-opacity:1;stroke:none;fill-rule:evenodd"
       d="M 207.6536,109.6542 207.5579,109.6732 207.4768,109.7274 207.4226,109.8085 207.4036,109.9042 207.4036,110.6042 207.4226,110.6999 207.4768,110.7810 207.5579,110.8352 207.6536,110.8542 208.5536,110.8542 208.6493,110.8352 208.7304,110.7810 208.7846,110.6999 208.8036,110.6042 208.8036,109.9042 208.7846,109.8085 208.7304,109.7274 208.6493,109.6732 208.5536,109.6542 Z"
       id="path176" />
    <path
       style="fill:#000000;fill-opacity:1;stroke:none;fill-rule:evenodd"
       d="M 207.6536,111.6542 207.5579,111.6732 207.4768,111.7274 207.4226,111.8085 207.4036,111.9042 207.4036,112.6042 207.4226,112.6999 207.4768,112.7810 207.5579,112.8352 207.6536,112.8542 208.5536,112.8542 208.6493,112.8352 208.7304,112.7810 208.7846,112.6999 208.8036,112.6042 208.8036,111.9042 208.7846,111.8085 208.7304,111.7274 208.6493,111.6732 208.5536,111.6542 Z"
       id="path177" />
    <path
       style="fill:#000000;fill-opacity:1;stroke:none;fill-rule:evenodd"
       d="M 240.0382,100.3600 240.0268,100.3026 239.9943,100.2539 239.9456,100.2214 239.8882,100.2100 238.2382,100.2100 238.1808,100.2214 238.1321,100.2539 238.0996,100.3026 238.0882,100.3600 238.0882,100.6600 238.0996,100.7174 238.1321,100.7661 238.1808,100.7986 238.2382,100.8100 239.8882,100.8100 239.9456,100.7986 239.9943,100.7661 240.0268,100.7174 240.0382,100.6600 Z"
       id="path178" />
    <path
       style="fill:#000000;fill-opacity:1;stroke:none;fill-rule:evenodd"
       d="M 240.0382,101.6300 240.0268,101.5726 239.9943,101.5239 239.9456,101.4914 239.8882,101.4800 238.2382,101.4800 238.1808,101.4914 238.1321,101.5239 238.0996,101.5726 238.0882,101.6300 238.0882,101.9300 238.0996,101.9874 238.1321,102.0361 238.1808,102.0686 238.2382,102.0800 239.8882,102.0800 239.9456,102.0686 239.9943,102.0361 240.0268,101.9874 240.0382,101.9300 Z"
       id="path179" />
    <path
       style="fill:#000000;fill-opacity:1;stroke:none;fill-rule:evenodd"
       d="M 240.0382,102.9000 240.0268,102.8426 239.9943,102.7939 239.9456,102.7614 239.8882,102.7500 238.2382,102.7500 238.1808,102.7614 238.1321,102.7939 238.0996,102.8426 238.0882,102.9000 238.0882,103.2000 238.0996,103.2574 238.1321,103.3061 238.1808,103.3386 238.2382,103.3500 239.8882,103.3500 239.9456,103.3386 239.9943,103.3061 240.0268,103.2574 240.0382,103.2000 Z"
       id="path180" />
    <path
       style="fill:#000000;fill-opacity:1;stroke:none;fill-rule:evenodd"
       d="M 240.0382,104.1700 240.0268,104.1126 239.9943,104.0639 239.9456,104.0314 239.8882,104.0200 238.2382,104.0200 238.1808,104.0314 238.1321,104.0639 238.0996,104.1126 238.0882,104.1700 238.0882,104.4700 238.0996,104.5274 238.1321,104.5761 238.1808,104.6086 238.2382,104.6200 239.8882,104.6200 239.9456,104.6086 239.9943,104.5761 240.0268,104.5274 240.0382,104.4700 Z"
       id="path181" />
    <path
       style="fill:#000000;fill-opacity:1;stroke:none;fill-rule:evenodd"
       d="M 235.0882,104.1700 235.0768,104.1126 235.0443,104.0639 234.9956,104.0314 234.9382,104.0200 233.2882,104.0200 233.2308,104.0314 233.1821,104.0639 233.1496,104.1126 233.1382,104.1700 233.1382,104.4700 233.1496,104.5274 233.1821,104.5761 233.2308,104.6086 233.2882,104.6200 234.9382,104.6200 234.9956,104.6086 235.0443,104.5761 235.0768,104.5274 235.0882,104.4700 Z"
       id="path182" />
    <path
       style="fill:#000000;fill-opacity:1;stroke:none;fill-rule:evenodd"
       d="M 235.0882,102.9000 235.0768,102.8426 235.0443,102.7939 234.9956,102.7614 234.9382,102.7500 233.2882,102.7500 233.2308,102.7614 233.1821,102.7939 233.1496,102.8426 233.1382,102.9000 233.1382,103.2000 233.1496,103.2574 233.1821,103.3061 233.2308,103.3386 233.2882,103.3500 234.9382,103.3500 234.9956,103.3386 235.0443,103.3061 235.0768,103.2574 235.0882,103.2000 Z"
       id="path183" />
    <path
       style="fill:#000000;fill-opacity:1;stroke:none;fill-rule:evenodd"
       d="M 235.0882,101.6300 235.0768,101.5726 235.0443,101.5239 234.9956,101.4914 234.9382,101.4800 233.2882,101.4800 233.2308,101.4914 233.1821,101.5239 233.1496,101.5726 233.1382,101.6300 233.1382,101.9300 233.1496,101.9874 233.1821,102.0361 233.2308,102.0686 233.2882,102.0800 234.9382,102.0800 234.9956,102.0686 235.0443,102.0361 235.0768,101.9874 235.0882,101.9300 Z"
       id="path184" />
    <path
       style="fill:#000000;fill-opacity:1;stroke:none;fill-rule:evenodd"
       d="M 235.0882,100.3600 235.0768,100.3026 235.0443,100.2539 234.9956,100.2214 234.9382,100.2100 233.2882,100.2100 233.2308,100.2214 233.1821,100.2539 233.1496,100.3026 233.1382,100.3600 233.1382,100.6600 233.1496,100.7174 233.1821,100.7661 233.2308,100.7986 233.2882,100.8100 234.9382,100.8100 234.9956,100.7986 235.0443,100.7661 235.0768,100.7174 235.0882,100.6600 Z"
       id="path185" />
    <path
       style="fill:#000000;fill-opacity:1;stroke:none;fill-rule:evenodd"
       d="M 248.2448,126.3254 248.2258,126.2297 248.1716,126.1486 248.0905,126.0944 247.9948,126.0754 247.2948,126.0754 247.1991,126.0944 247.1180,126.1486 247.0638,126.2297 247.0448,126.3254 247.0448,127.2254 247.0638,127.3211 247.1180,127.4022 247.1991,127.4564 247.2948,127.4754 247.9948,127.4754 248.0905,127.4564 248.1716,127.4022 248.2258,127.3211 248.2448,127.2254 Z"
       id="path186" />
    <path
       style="fill:#000000;fill-opacity:1;stroke:none;fill-rule:evenodd"
       d="M 246.2448,126.3254 246.2258,126.2297 246.1716,126.1486 246.0905,126.0944 245.9948,126.0754 245.2948,126.0754 245.1991,126.0944 245.1180,126.1486 245.0638,126.2297 245.0448,126.3254 245.0448,127.2254 245.0638,127.3211 245.1180,127.4022 245.1991,127.4564 245.2948,127.4754 245.9948,127.4754 246.0905,127.4564 246.1716,127.4022 246.2258,127.3211 246.2448,127.2254 Z"
       id="path187" />
    <path
       style="fill:#000000;fill-opacity:1;stroke:none;fill-rule:evenodd"
       d="M 237.5147,134.0125 237.5721,134.0011 237.6208,133.9686 237.6533,133.9199 237.6647,133.8625 237.6647,132.8375 237.6533,132.7801 237.6208,132.7314 237.5721,132.6989 237.5147,132.6875 237.2147,132.6875 237.1573,132.6989 237.1086,132.7314 237.0761,132.7801 237.0647,132.8375 237.0647,133.8625 237.0761,133.9199 237.1086,133.9686 237.1573,134.0011 237.2147,134.0125 Z"
       id="path188" />
    <path
       style="fill:#000000;fill-opacity:1;stroke:none;fill-rule:evenodd"
       d="M 236.5647,134.0125 236.6221,134.0011 236.6708,133.9686 236.7033,133.9199 236.7147,133.8625 236.7147,132.8375 236.7033,132.7801 236.6708,132.7314 236.6221,132.6989 236.5647,132.6875 236.2647,132.6875 236.2073,132.6989 236.1586,132.7314 236.1261,132.7801 236.1147,132.8375 236.1147,133.8625 236.1261,133.9199 236.1586,133.9686 236.2073,134.0011 236.2647,134.0125 Z"
       id="path189" />
    <path
       style="fill:#000000;fill-opacity:1;stroke:none;fill-rule:evenodd"
       d="M 235.6147,134.0125 235.6721,134.0011 235.7208,133.9686 235.7533,133.9199 235.7647,133.8625 235.7647,132.8375 235.7533,132.7801 235.7208,132.7314 235.6721,132.6989 235.6147,132.6875 235.3147,132.6875 235.2573,132.6989 235.2086,132.7314 235.1761,132.7801 235.1647,132.8375 235.1647,133.8625 235.1761,133.9199 235.2086,133.9686 235.2573,134.0011 235.3147,134.0125 Z"
       id="path190" />
    <path
       style="fill:#000000;fill-opacity:1;stroke:none;fill-rule:evenodd"
       d="M 235.6147,131.7375 235.6721,131.7261 235.7208,131.6936 235.7533,131.6449 235.7647,131.5875 235.7647,130.5625 235.7533,130.5051 235.7208,130.4564 235.6721,130.4239 235.6147,130.4125 235.3147,130.4125 235.2573,130.4239 235.2086,130.4564 235.1761,130.5051 235.1647,130.5625 235.1647,131.5875 235.1761,131.6449 235.2086,131.6936 235.2573,131.7261 235.3147,131.7375 Z"
       id="path191" />
    <path
       style="fill:#000000;fill-opacity:1;stroke:none;fill-rule:evenodd"
       d="M 237.5147,131.7375 237.5721,131.7261 237.6208,131.6936 237.6533,131.6449 237.6647,131.5875 237.6647,130.5625 237.6533,130.5051 237.6208,130.4564 237.5721,130.4239 237.5147,130.4125 237.2147,130.4125 237.1573,130.4239 237.1086,130.4564 237.0761,130.5051 237.0647,130.5625 237.0647,131.5875 237.0761,131.6449 237.1086,131.6936 237.1573,131.7261 237.2147,131.7375 Z"
       id="path192" />
  </g>
  <path
     d="M 173.2675,62.6583 V 139.314"
     id="path193"
     style="fill:none;stroke:#ff0000;stroke-width:0.26458333;stroke-linecap:round;stroke-linejoin:round;stroke-opacity:1;stroke-dasharray:none" />
  <path
     d="m 256.8716,86.2 v 53.114"
     id="path194"
     style="fill:none;stroke:#ff0000;stroke-width:0.26458333;stroke-linecap:round;stroke-linejoin:round;stroke-opacity:1;stroke-dasharray:none" />
  <path
     d="m 247.0022,86.2 h 9.8694"
     id="path195"
     style="fill:none;stroke:#ff0000;stroke-width:0.26458333;stroke-linecap:round;stroke-linejoin:round;stroke-opacity:1;stroke-dasharray:none" />
  <path
     d="M 247.0022,62.6583 V 86.2"
     id="path196"
     style="fill:none;stroke:#ff0000;stroke-width:0.26458333;stroke-linecap:round;stroke-linejoin:round;stroke-opacity:1;stroke-dasharray:none" />
  <path
     d="m 173.2675,139.314 h 83.6041"
     id="path197"
     style="fill:none;stroke:#ff0000;stroke-width:0.26458333;stroke-linecap:round;stroke-linejoin:round;stroke-opacity:1;stroke-dasharray:none" />
  <path
     d="M 247.0022,62.6583 H 173.2675"
     id="path198"
     style="fill:none;stroke:#ff0000;stroke-width:0.26458333;stroke-linecap:round;stroke-linejoin:round;stroke-opacity:1;stroke-dasharray:none" />
</svg>
