<?xml version="1.0" encoding="UTF-8" standalone="no"?>
<svg
   version="1.1"
   width="297.0022mm"
   height="210.0072mm"
   viewBox="0.0000 0.0000 297.0022 210.0072"
   id="svg97"
   sodipodi:docname="vmc-F_Paste.svg"
   inkscape:version="1.4 (e7c3feb100, 2024-10-09)"
   xmlns:inkscape="http://www.inkscape.org/namespaces/inkscape"
   xmlns:sodipodi="http://sodipodi.sourceforge.net/DTD/sodipodi-0.dtd"
   xmlns="http://www.w3.org/2000/svg"
   xmlns:svg="http://www.w3.org/2000/svg">
  <defs
     id="defs97" />
  <sodipodi:namedview
     id="namedview97"
     pagecolor="#ffffff"
     bordercolor="#666666"
     borderopacity="1.0"
     inkscape:showpageshadow="2"
     inkscape:pageopacity="0.0"
     inkscape:pagecheckerboard="0"
     inkscape:deskcolor="#d1d1d1"
     inkscape:document-units="mm"
     inkscape:zoom="100.98229"
     inkscape:cx="611.86967"
     inkscape:cy="224.985"
     inkscape:window-width="1240"
     inkscape:window-height="1080"
     inkscape:window-x="461"
     inkscape:window-y="-39"
     inkscape:window-maximized="0"
     inkscape:current-layer="svg97" />
  <title
     id="title1">SVG Image created as vmc-F_Paste.svg date 2025/04/17 12:39:48 </title>
  <desc
     id="desc1">Image generated by PCBNEW </desc>
  <path
     style="fill:#000000;fill-opacity:1;fill-rule:evenodd;stroke:none;stroke-linecap:round;stroke-linejoin:round;stroke-opacity:1"
     d="m 146.1032,56.7 -0.0957,0.019 -0.0811,0.0542 -0.0542,0.0811 -0.019,0.0957 v 0.7 l 0.019,0.0957 0.0542,0.0811 0.0811,0.0542 0.0957,0.019 h 0.9 l 0.0957,-0.019 0.0811,-0.0542 0.0542,-0.0811 0.019,-0.0957 v -0.7 l -0.019,-0.0957 -0.0542,-0.0811 -0.0811,-0.0542 -0.0957,-0.019 z"
     id="path1" />
  <path
     style="fill:#000000;fill-opacity:1;fill-rule:evenodd;stroke:none;stroke-linecap:round;stroke-linejoin:round;stroke-opacity:1"
     d="m 146.1032,58.7 -0.0957,0.019 -0.0811,0.0542 -0.0542,0.0811 -0.019,0.0957 v 0.7 l 0.019,0.0957 0.0542,0.0811 0.0811,0.0542 0.0957,0.019 h 0.9 l 0.0957,-0.019 0.0811,-0.0542 0.0542,-0.0811 0.019,-0.0957 v -0.7 l -0.019,-0.0957 -0.0542,-0.0811 -0.0811,-0.0542 -0.0957,-0.019 z"
     id="path2" />
  <path
     style="fill:#000000;fill-opacity:1;fill-rule:evenodd;stroke:none;stroke-linecap:round;stroke-linejoin:round;stroke-opacity:1"
     d="m 170.3522,58.9 0.0957,-0.019 0.0811,-0.0542 0.0542,-0.0811 0.019,-0.0957 v -0.7 l -0.019,-0.0957 -0.0542,-0.0811 -0.0811,-0.0542 -0.0957,-0.019 h -0.9 l -0.0957,0.019 -0.0811,0.0542 -0.0542,0.0811 -0.019,0.0957 v 0.7 l 0.019,0.0957 0.0542,0.0811 0.0811,0.0542 0.0957,0.019 z"
     id="path3" />
  <path
     style="fill:#000000;fill-opacity:1;fill-rule:evenodd;stroke:none;stroke-linecap:round;stroke-linejoin:round;stroke-opacity:1"
     d="m 170.3522,56.9 0.0957,-0.019 0.0811,-0.0542 0.0542,-0.0811 0.019,-0.0957 v -0.7 l -0.019,-0.0957 -0.0542,-0.0811 -0.0811,-0.0542 -0.0957,-0.019 h -0.9 l -0.0957,0.019 -0.0811,0.0542 -0.0542,0.0811 -0.019,0.0957 v 0.7 l 0.019,0.0957 0.0542,0.0811 0.0811,0.0542 0.0957,0.019 z"
     id="path4" />
  <path
     style="fill:#000000;fill-opacity:1;fill-rule:evenodd;stroke:none;stroke-linecap:round;stroke-linejoin:round;stroke-opacity:1"
     d="m 161.0982,58.864 h -0.9 v 1.33 l 0.27,0.27 h 0.63 z"
     id="path5" />
  <path
     style="fill:#000000;fill-opacity:1;fill-rule:evenodd;stroke:none;stroke-linecap:round;stroke-linejoin:round;stroke-opacity:1"
     d="m 159.1732,60.539 0.002,0.0096 0.005,0.0081 0.008,0.0054 0.01,0.0019 h 0.55 l 0.01,-0.0019 0.008,-0.0054 0.005,-0.0081 0.002,-0.0096 v -0.25 l -0.002,-0.0096 -0.005,-0.0081 -0.008,-0.0054 -0.01,-0.0019 h -0.55 l -0.01,0.0019 -0.008,0.0054 -0.005,0.0081 -0.002,0.0096 z"
     id="path6" />
  <path
     style="fill:#000000;fill-opacity:1;fill-rule:evenodd;stroke:none;stroke-linecap:round;stroke-linejoin:round;stroke-opacity:1"
     d="m 159.1732,60.039 0.002,0.0096 0.005,0.0081 0.008,0.0054 0.01,0.0019 h 0.55 l 0.01,-0.0019 0.008,-0.0054 0.005,-0.0081 0.002,-0.0096 v -0.25 l -0.002,-0.0096 -0.005,-0.0081 -0.008,-0.0054 -0.01,-0.0019 h -0.55 l -0.01,0.0019 -0.008,0.0054 -0.005,0.0081 -0.002,0.0096 z"
     id="path7" />
  <path
     style="fill:#000000;fill-opacity:1;fill-rule:evenodd;stroke:none;stroke-linecap:round;stroke-linejoin:round;stroke-opacity:1"
     d="m 159.1732,59.539 0.002,0.0096 0.005,0.0081 0.008,0.0054 0.01,0.0019 h 0.55 l 0.01,-0.0019 0.008,-0.0054 0.005,-0.0081 0.002,-0.0096 v -0.25 l -0.002,-0.0096 -0.005,-0.0081 -0.008,-0.0054 -0.01,-0.0019 h -0.55 l -0.01,0.0019 -0.008,0.0054 -0.005,0.0081 -0.002,0.0096 z"
     id="path8" />
  <path
     style="fill:#000000;fill-opacity:1;fill-rule:evenodd;stroke:none;stroke-linecap:round;stroke-linejoin:round;stroke-opacity:1"
     d="m 159.7732,58.789 -0.002,-0.0096 -0.005,-0.0081 -0.008,-0.0054 -0.01,-0.0019 h -0.55 l -0.01,0.0019 -0.008,0.0054 -0.005,0.0081 -0.002,0.0096 v 0.25 l 0.002,0.0096 0.005,0.0081 0.008,0.0054 0.01,0.0019 h 0.55 l 0.01,-0.0019 0.008,-0.0054 0.005,-0.0081 0.002,-0.0096 z"
     id="path9" />
  <path
     style="fill:#000000;fill-opacity:1;fill-rule:evenodd;stroke:none;stroke-linecap:round;stroke-linejoin:round;stroke-opacity:1"
     d="m 161.5232,59.039 0.002,0.0096 0.005,0.0081 0.008,0.0054 0.01,0.0019 h 0.55 l 0.01,-0.0019 0.008,-0.0054 0.005,-0.0081 0.002,-0.0096 v -0.25 l -0.002,-0.0096 -0.005,-0.0081 -0.008,-0.0054 -0.01,-0.0019 h -0.55 l -0.01,0.0019 -0.008,0.0054 -0.005,0.0081 -0.002,0.0096 z"
     id="path10" />
  <path
     style="fill:#000000;fill-opacity:1;fill-rule:evenodd;stroke:none;stroke-linecap:round;stroke-linejoin:round;stroke-opacity:1"
     d="m 161.5232,59.539 0.002,0.0096 0.005,0.0081 0.008,0.0054 0.01,0.0019 h 0.55 l 0.01,-0.0019 0.008,-0.0054 0.005,-0.0081 0.002,-0.0096 v -0.25 l -0.002,-0.0096 -0.005,-0.0081 -0.008,-0.0054 -0.01,-0.0019 h -0.55 l -0.01,0.0019 -0.008,0.0054 -0.005,0.0081 -0.002,0.0096 z"
     id="path11" />
  <path
     style="fill:#000000;fill-opacity:1;fill-rule:evenodd;stroke:none;stroke-linecap:round;stroke-linejoin:round;stroke-opacity:1"
     d="m 161.5232,60.039 0.002,0.0096 0.005,0.0081 0.008,0.0054 0.01,0.0019 h 0.55 l 0.01,-0.0019 0.008,-0.0054 0.005,-0.0081 0.002,-0.0096 v -0.25 l -0.002,-0.0096 -0.005,-0.0081 -0.008,-0.0054 -0.01,-0.0019 h -0.55 l -0.01,0.0019 -0.008,0.0054 -0.005,0.0081 -0.002,0.0096 z"
     id="path12" />
  <path
     style="fill:#000000;fill-opacity:1;fill-rule:evenodd;stroke:none;stroke-linecap:round;stroke-linejoin:round;stroke-opacity:1"
     d="m 161.5232,60.539 0.002,0.0096 0.005,0.0081 0.008,0.0054 0.01,0.0019 h 0.55 l 0.01,-0.0019 0.008,-0.0054 0.005,-0.0081 0.002,-0.0096 v -0.25 l -0.002,-0.0096 -0.005,-0.0081 -0.008,-0.0054 -0.01,-0.0019 h -0.55 l -0.01,0.0019 -0.008,0.0054 -0.005,0.0081 -0.002,0.0096 z"
     id="path13" />
  <path
     style="fill:#000000;fill-opacity:1;fill-rule:evenodd;stroke:none;stroke-linecap:round;stroke-linejoin:round;stroke-opacity:1"
     d="m 155.9232,59.918 0.0957,-0.019 0.0811,-0.0542 0.0542,-0.0811 0.019,-0.0957 v -0.7 l -0.019,-0.0957 -0.0542,-0.0811 -0.0811,-0.0542 -0.0957,-0.019 h -0.9 l -0.0957,0.019 -0.0811,0.0542 -0.0542,0.0811 -0.019,0.0957 v 0.7 l 0.019,0.0957 0.0542,0.0811 0.0811,0.0542 0.0957,0.019 z"
     id="path14" />
  <path
     style="fill:#000000;fill-opacity:1;fill-rule:evenodd;stroke:none;stroke-linecap:round;stroke-linejoin:round;stroke-opacity:1"
     d="m 155.9232,57.918 0.0957,-0.019 0.0811,-0.0542 0.0542,-0.0811 0.019,-0.0957 v -0.7 l -0.019,-0.0957 -0.0542,-0.0811 -0.0811,-0.0542 -0.0957,-0.019 h -0.9 l -0.0957,0.019 -0.0811,0.0542 -0.0542,0.0811 -0.019,0.0957 v 0.7 l 0.019,0.0957 0.0542,0.0811 0.0811,0.0542 0.0957,0.019 z"
     id="path15" />
  <path
     style="fill:#000000;fill-opacity:1;fill-rule:evenodd;stroke:none;stroke-linecap:round;stroke-linejoin:round;stroke-opacity:1"
     d="m 167.6522,58.9 0.0957,-0.019 0.0811,-0.0542 0.0542,-0.0811 0.019,-0.0957 v -0.7 l -0.019,-0.0957 -0.0542,-0.0811 -0.0811,-0.0542 -0.0957,-0.019 h -0.9 l -0.0957,0.019 -0.0811,0.0542 -0.0542,0.0811 -0.019,0.0957 v 0.7 l 0.019,0.0957 0.0542,0.0811 0.0811,0.0542 0.0957,0.019 z"
     id="path16" />
  <path
     style="fill:#000000;fill-opacity:1;fill-rule:evenodd;stroke:none;stroke-linecap:round;stroke-linejoin:round;stroke-opacity:1"
     d="m 167.6522,56.9 0.0957,-0.019 0.0811,-0.0542 0.0542,-0.0811 0.019,-0.0957 v -0.7 l -0.019,-0.0957 -0.0542,-0.0811 -0.0811,-0.0542 -0.0957,-0.019 h -0.9 l -0.0957,0.019 -0.0811,0.0542 -0.0542,0.0811 -0.019,0.0957 v 0.7 l 0.019,0.0957 0.0542,0.0811 0.0811,0.0542 0.0957,0.019 z"
     id="path17" />
  <path
     style="fill:#000000;fill-opacity:1;fill-rule:evenodd;stroke:none;stroke-linecap:round;stroke-linejoin:round;stroke-opacity:1"
     d="m 139.6827,65.8932 -0.0574,0.0115 -0.0487,0.0325 -0.0325,0.0486 -0.0114,0.0575 v 1.6499 l 0.0114,0.0575 0.0325,0.0486 0.0487,0.0325 0.0574,0.0114 h 0.3 l 0.0574,-0.0114 0.0487,-0.0325 0.0325,-0.0486 0.0114,-0.0575 v -1.6499 l -0.0114,-0.0575 -0.0325,-0.0486 -0.0487,-0.0325 -0.0574,-0.0115 z"
     id="path18" />
  <path
     style="fill:#000000;fill-opacity:1;fill-rule:evenodd;stroke:none;stroke-linecap:round;stroke-linejoin:round;stroke-opacity:1"
     d="m 140.9527,65.8932 -0.0574,0.0115 -0.0487,0.0325 -0.0325,0.0486 -0.0114,0.0575 v 1.6499 l 0.0114,0.0575 0.0325,0.0486 0.0487,0.0325 0.0574,0.0114 h 0.3 l 0.0574,-0.0114 0.0487,-0.0325 0.0325,-0.0486 0.0114,-0.0575 v -1.6499 l -0.0114,-0.0575 -0.0325,-0.0486 -0.0487,-0.0325 -0.0574,-0.0115 z"
     id="path19" />
  <path
     style="fill:#000000;fill-opacity:1;fill-rule:evenodd;stroke:none;stroke-linecap:round;stroke-linejoin:round;stroke-opacity:1"
     d="m 142.2227,65.8932 -0.0574,0.0115 -0.0487,0.0325 -0.0325,0.0486 -0.0114,0.0575 v 1.6499 l 0.0114,0.0575 0.0325,0.0486 0.0487,0.0325 0.0574,0.0114 h 0.3 l 0.0574,-0.0114 0.0487,-0.0325 0.0325,-0.0486 0.0114,-0.0575 v -1.6499 l -0.0114,-0.0575 -0.0325,-0.0486 -0.0487,-0.0325 -0.0574,-0.0115 z"
     id="path20" />
  <path
     style="fill:#000000;fill-opacity:1;fill-rule:evenodd;stroke:none;stroke-linecap:round;stroke-linejoin:round;stroke-opacity:1"
     d="m 143.4927,65.8932 -0.0574,0.0115 -0.0487,0.0325 -0.0325,0.0486 -0.0114,0.0575 v 1.6499 l 0.0114,0.0575 0.0325,0.0486 0.0487,0.0325 0.0574,0.0114 h 0.3 l 0.0574,-0.0114 0.0487,-0.0325 0.0325,-0.0486 0.0114,-0.0575 v -1.6499 l -0.0114,-0.0575 -0.0325,-0.0486 -0.0487,-0.0325 -0.0574,-0.0115 z"
     id="path21" />
  <path
     style="fill:#000000;fill-opacity:1;fill-rule:evenodd;stroke:none;stroke-linecap:round;stroke-linejoin:round;stroke-opacity:1"
     d="m 143.4927,70.8432 -0.0574,0.0115 -0.0487,0.0325 -0.0325,0.0486 -0.0114,0.0575 v 1.6499 l 0.0114,0.0575 0.0325,0.0486 0.0487,0.0325 0.0574,0.0115 h 0.3 l 0.0574,-0.0115 0.0487,-0.0325 0.0325,-0.0486 0.0114,-0.0575 v -1.6499 l -0.0114,-0.0575 -0.0325,-0.0486 -0.0487,-0.0325 -0.0574,-0.0115 z"
     id="path22" />
  <path
     style="fill:#000000;fill-opacity:1;fill-rule:evenodd;stroke:none;stroke-linecap:round;stroke-linejoin:round;stroke-opacity:1"
     d="m 142.2227,70.8432 -0.0574,0.0115 -0.0487,0.0325 -0.0325,0.0486 -0.0114,0.0575 v 1.6499 l 0.0114,0.0575 0.0325,0.0486 0.0487,0.0325 0.0574,0.0115 h 0.3 l 0.0574,-0.0115 0.0487,-0.0325 0.0325,-0.0486 0.0114,-0.0575 v -1.6499 l -0.0114,-0.0575 -0.0325,-0.0486 -0.0487,-0.0325 -0.0574,-0.0115 z"
     id="path23" />
  <path
     style="fill:#000000;fill-opacity:1;fill-rule:evenodd;stroke:none;stroke-linecap:round;stroke-linejoin:round;stroke-opacity:1"
     d="m 140.9527,70.8432 -0.0574,0.0115 -0.0487,0.0325 -0.0325,0.0486 -0.0114,0.0575 v 1.6499 l 0.0114,0.0575 0.0325,0.0486 0.0487,0.0325 0.0574,0.0115 h 0.3 l 0.0574,-0.0115 0.0487,-0.0325 0.0325,-0.0486 0.0114,-0.0575 v -1.6499 l -0.0114,-0.0575 -0.0325,-0.0486 -0.0487,-0.0325 -0.0574,-0.0115 z"
     id="path24" />
  <path
     style="fill:#000000;fill-opacity:1;fill-rule:evenodd;stroke:none;stroke-linecap:round;stroke-linejoin:round;stroke-opacity:1"
     d="m 139.6827,70.8432 -0.0574,0.0115 -0.0487,0.0325 -0.0325,0.0486 -0.0114,0.0575 v 1.6499 l 0.0114,0.0575 0.0325,0.0486 0.0487,0.0325 0.0574,0.0115 h 0.3 l 0.0574,-0.0115 0.0487,-0.0325 0.0325,-0.0486 0.0114,-0.0575 v -1.6499 l -0.0114,-0.0575 -0.0325,-0.0486 -0.0487,-0.0325 -0.0574,-0.0115 z"
     id="path25" />
  <path
     style="fill:#000000;fill-opacity:1;fill-rule:evenodd;stroke:none;stroke-linecap:round;stroke-linejoin:round;stroke-opacity:1"
     d="m 145.2647,72.4 -0.0909,0.0181 -0.077,0.0515 -0.0515,0.077 -0.0181,0.0909 v 0.6 l 0.0181,0.0909 0.0515,0.077 0.077,0.0515 0.0909,0.0181 h 0.475 l 0.0909,-0.0181 0.077,-0.0515 0.0515,-0.077 0.0181,-0.0909 v -0.6 l -0.0181,-0.0909 -0.0515,-0.077 -0.077,-0.0515 -0.0909,-0.0181 z"
     id="path26" />
  <path
     style="fill:#000000;fill-opacity:1;fill-rule:evenodd;stroke:none;stroke-linecap:round;stroke-linejoin:round;stroke-opacity:1"
     d="m 145.2647,74.125 -0.0909,0.0181 -0.077,0.0515 -0.0515,0.077 -0.0181,0.0909 v 0.6 l 0.0181,0.0909 0.0515,0.077 0.077,0.0515 0.0909,0.0181 h 0.475 l 0.0909,-0.0181 0.077,-0.0515 0.0515,-0.077 0.0181,-0.0909 v -0.6 l -0.0181,-0.0909 -0.0515,-0.077 -0.077,-0.0515 -0.0909,-0.0181 z"
     id="path27" />
  <path
     style="fill:#000000;fill-opacity:1;fill-rule:evenodd;stroke:none;stroke-linecap:round;stroke-linejoin:round;stroke-opacity:1"
     d="m 158.2522,72.1 -0.0957,0.019 -0.0811,0.0542 -0.0542,0.0811 -0.019,0.0957 v 0.7 l 0.019,0.0957 0.0542,0.0811 0.0811,0.0542 0.0957,0.019 h 0.9 l 0.0957,-0.019 0.0811,-0.0542 0.0542,-0.0811 0.019,-0.0957 v -0.7 l -0.019,-0.0957 -0.0542,-0.0811 -0.0811,-0.0542 -0.0957,-0.019 z"
     id="path28" />
  <path
     style="fill:#000000;fill-opacity:1;fill-rule:evenodd;stroke:none;stroke-linecap:round;stroke-linejoin:round;stroke-opacity:1"
     d="m 158.2522,74.1 -0.0957,0.019 -0.0811,0.0542 -0.0542,0.0811 -0.019,0.0957 v 0.7 l 0.019,0.0957 0.0542,0.0811 0.0811,0.0542 0.0957,0.019 h 0.9 l 0.0957,-0.019 0.0811,-0.0542 0.0542,-0.0811 0.019,-0.0957 v -0.7 l -0.019,-0.0957 -0.0542,-0.0811 -0.0811,-0.0542 -0.0957,-0.019 z"
     id="path29" />
  <path
     style="fill:#000000;fill-opacity:1;fill-rule:evenodd;stroke:none;stroke-linecap:round;stroke-linejoin:round;stroke-opacity:1"
     d="m 144.1522,59.9735 0.0574,-0.0114 0.0487,-0.0325 0.0325,-0.0487 0.0114,-0.0574 v -1.175 l -0.0114,-0.0574 -0.0325,-0.0487 -0.0487,-0.0325 -0.0574,-0.0114 h -0.3 l -0.0574,0.0114 -0.0487,0.0325 -0.0325,0.0487 -0.0114,0.0574 v 1.175 l 0.0114,0.0574 0.0325,0.0487 0.0487,0.0325 0.0574,0.0114 z"
     id="path30" />
  <path
     style="fill:#000000;fill-opacity:1;fill-rule:evenodd;stroke:none;stroke-linecap:round;stroke-linejoin:round;stroke-opacity:1"
     d="m 142.2522,59.9735 0.0574,-0.0114 0.0487,-0.0325 0.0325,-0.0487 0.0114,-0.0574 v -1.175 l -0.0114,-0.0574 -0.0325,-0.0487 -0.0487,-0.0325 -0.0574,-0.0114 h -0.3 l -0.0574,0.0114 -0.0487,0.0325 -0.0325,0.0487 -0.0114,0.0574 v 1.175 l 0.0114,0.0574 0.0325,0.0487 0.0487,0.0325 0.0574,0.0114 z"
     id="path31" />
  <path
     style="fill:#000000;fill-opacity:1;fill-rule:evenodd;stroke:none;stroke-linecap:round;stroke-linejoin:round;stroke-opacity:1"
     d="m 143.2022,58.0985 0.0574,-0.0114 0.0487,-0.0325 0.0325,-0.0487 0.0114,-0.0574 v -1.175 l -0.0114,-0.0574 -0.0325,-0.0487 -0.0487,-0.0325 -0.0574,-0.0114 h -0.3 l -0.0574,0.0114 -0.0487,0.0325 -0.0325,0.0487 -0.0114,0.0574 v 1.175 l 0.0114,0.0574 0.0325,0.0487 0.0487,0.0325 0.0574,0.0114 z"
     id="path32" />
  <path
     style="fill:#000000;fill-opacity:1;fill-rule:evenodd;stroke:none;stroke-linecap:round;stroke-linejoin:round;stroke-opacity:1"
     d="m 162.7702,62.7416 -0.0957,0.019 -0.0811,0.0542 -0.0542,0.0811 -0.019,0.0957 v 0.7 l 0.019,0.0957 0.0542,0.0811 0.0811,0.0542 0.0957,0.019 h 0.9 l 0.0957,-0.019 0.0811,-0.0542 0.0542,-0.0811 0.019,-0.0957 v -0.7 l -0.019,-0.0957 -0.0542,-0.0811 -0.0811,-0.0542 -0.0957,-0.019 z"
     id="path33" />
  <path
     style="fill:#000000;fill-opacity:1;fill-rule:evenodd;stroke:none;stroke-linecap:round;stroke-linejoin:round;stroke-opacity:1"
     d="m 162.7702,64.7416 -0.0957,0.019 -0.0811,0.0542 -0.0542,0.0811 -0.019,0.0957 v 0.7 l 0.019,0.0957 0.0542,0.0811 0.0811,0.0542 0.0957,0.019 h 0.9 l 0.0957,-0.019 0.0811,-0.0542 0.0542,-0.0811 0.019,-0.0957 v -0.7 l -0.019,-0.0957 -0.0542,-0.0811 -0.0811,-0.0542 -0.0957,-0.019 z"
     id="path34" />
  <path
     style="fill:#000000;fill-opacity:1;fill-rule:evenodd;stroke:none;stroke-linecap:round;stroke-linejoin:round;stroke-opacity:1"
     d="m 164.6842,71.913 0.019,0.0957 0.0542,0.0811 0.0811,0.0542 0.0957,0.019 h 0.7 l 0.0957,-0.019 0.0811,-0.0542 0.0542,-0.0811 0.019,-0.0957 v -0.9 l -0.019,-0.0957 -0.0542,-0.0811 -0.0811,-0.0542 -0.0957,-0.019 h -0.7 l -0.0957,0.019 -0.0811,0.0542 -0.0542,0.0811 -0.019,0.0957 z"
     id="path35" />
  <path
     style="fill:#000000;fill-opacity:1;fill-rule:evenodd;stroke:none;stroke-linecap:round;stroke-linejoin:round;stroke-opacity:1"
     d="m 166.6842,71.913 0.019,0.0957 0.0542,0.0811 0.0811,0.0542 0.0957,0.019 h 0.7 l 0.0957,-0.019 0.0811,-0.0542 0.0542,-0.0811 0.019,-0.0957 v -0.9 l -0.019,-0.0957 -0.0542,-0.0811 -0.0811,-0.0542 -0.0957,-0.019 h -0.7 l -0.0957,0.019 -0.0811,0.0542 -0.0542,0.0811 -0.019,0.0957 z"
     id="path36" />
  <path
     style="fill:#000000;fill-opacity:1;fill-rule:evenodd;stroke:none;stroke-linecap:round;stroke-linejoin:round;stroke-opacity:1"
     d="m 186.0002,77.3465 0.0162,0.0813 0.046,0.069 0.069,0.046 0.0813,0.0162 h 0.425 l 0.0813,-0.0162 0.069,-0.046 0.046,-0.069 0.0162,-0.0813 v -3.125 l -0.0162,-0.0813 -0.046,-0.069 -0.069,-0.046 -0.0813,-0.0162 h -0.425 l -0.0813,0.0162 -0.069,0.046 -0.046,0.069 -0.0162,0.0813 z"
     id="path37" />
  <path
     style="fill:#000000;fill-opacity:1;fill-rule:evenodd;stroke:none;stroke-linecap:round;stroke-linejoin:round;stroke-opacity:1"
     d="m 186.0002,72.9965 0.0162,0.0813 0.046,0.069 0.069,0.046 0.0813,0.0162 h 0.425 l 0.0813,-0.0162 0.069,-0.046 0.046,-0.069 0.0162,-0.0813 v -2.225 l -0.0162,-0.0813 -0.046,-0.069 -0.069,-0.046 -0.0813,-0.0162 h -0.425 l -0.0813,0.0162 -0.069,0.046 -0.046,0.069 -0.0162,0.0813 z"
     id="path38" />
  <path
     style="fill:#000000;fill-opacity:1;fill-rule:evenodd;stroke:none;stroke-linecap:round;stroke-linejoin:round;stroke-opacity:1"
     d="m 184.5002,77.3465 0.0162,0.0813 0.046,0.069 0.069,0.046 0.0813,0.0162 h 0.425 l 0.0813,-0.0162 0.069,-0.046 0.046,-0.069 0.0162,-0.0813 v -3.125 l -0.0162,-0.0813 -0.046,-0.069 -0.069,-0.046 -0.0813,-0.0162 h -0.425 l -0.0813,0.0162 -0.069,0.046 -0.046,0.069 -0.0162,0.0813 z"
     id="path39" />
  <path
     style="fill:#000000;fill-opacity:1;fill-rule:evenodd;stroke:none;stroke-linecap:round;stroke-linejoin:round;stroke-opacity:1"
     d="m 184.5002,72.9965 0.0162,0.0813 0.046,0.069 0.069,0.046 0.0813,0.0162 h 0.425 l 0.0813,-0.0162 0.069,-0.046 0.046,-0.069 0.0162,-0.0813 v -2.225 l -0.0162,-0.0813 -0.046,-0.069 -0.069,-0.046 -0.0813,-0.0162 h -0.425 l -0.0813,0.0162 -0.069,0.046 -0.046,0.069 -0.0162,0.0813 z"
     id="path40" />
  <path
     style="fill:#000000;fill-opacity:1;fill-rule:evenodd;stroke:none;stroke-linecap:round;stroke-linejoin:round;stroke-opacity:1"
     d="m 183.0002,77.3465 0.0162,0.0813 0.046,0.069 0.069,0.046 0.0813,0.0162 h 0.425 l 0.0813,-0.0162 0.069,-0.046 0.046,-0.069 0.0162,-0.0813 v -3.125 l -0.0162,-0.0813 -0.046,-0.069 -0.069,-0.046 -0.0813,-0.0162 h -0.425 l -0.0813,0.0162 -0.069,0.046 -0.046,0.069 -0.0162,0.0813 z"
     id="path41" />
  <path
     style="fill:#000000;fill-opacity:1;fill-rule:evenodd;stroke:none;stroke-linecap:round;stroke-linejoin:round;stroke-opacity:1"
     d="m 183.0002,72.9965 0.0162,0.0813 0.046,0.069 0.069,0.046 0.0813,0.0162 h 0.425 l 0.0813,-0.0162 0.069,-0.046 0.046,-0.069 0.0162,-0.0813 v -2.225 l -0.0162,-0.0813 -0.046,-0.069 -0.069,-0.046 -0.0813,-0.0162 h -0.425 l -0.0813,0.0162 -0.069,0.046 -0.046,0.069 -0.0162,0.0813 z"
     id="path42" />
  <path
     style="fill:#000000;fill-opacity:1;fill-rule:evenodd;stroke:none;stroke-linecap:round;stroke-linejoin:round;stroke-opacity:1"
     d="m 181.5002,77.3465 0.0162,0.0813 0.046,0.069 0.069,0.046 0.0813,0.0162 h 0.425 l 0.0813,-0.0162 0.069,-0.046 0.046,-0.069 0.0162,-0.0813 v -3.125 l -0.0162,-0.0813 -0.046,-0.069 -0.069,-0.046 -0.0813,-0.0162 h -0.425 l -0.0813,0.0162 -0.069,0.046 -0.046,0.069 -0.0162,0.0813 z"
     id="path43" />
  <path
     style="fill:#000000;fill-opacity:1;fill-rule:evenodd;stroke:none;stroke-linecap:round;stroke-linejoin:round;stroke-opacity:1"
     d="m 181.5002,72.9965 0.0162,0.0813 0.046,0.069 0.069,0.046 0.0813,0.0162 h 0.425 l 0.0813,-0.0162 0.069,-0.046 0.046,-0.069 0.0162,-0.0813 v -2.225 l -0.0162,-0.0813 -0.046,-0.069 -0.069,-0.046 -0.0813,-0.0162 h -0.425 l -0.0813,0.0162 -0.069,0.046 -0.046,0.069 -0.0162,0.0813 z"
     id="path44" />
  <path
     style="fill:#000000;fill-opacity:1;fill-rule:evenodd;stroke:none;stroke-linecap:round;stroke-linejoin:round;stroke-opacity:1"
     d="m 162.3477,71.206 -0.0909,0.0181 -0.077,0.0515 -0.0515,0.077 -0.0181,0.0909 v 0.6 l 0.0181,0.0909 0.0515,0.077 0.077,0.0515 0.0909,0.0181 h 0.475 l 0.0909,-0.0181 0.077,-0.0515 0.0515,-0.077 0.0181,-0.0909 v -0.6 l -0.0181,-0.0909 -0.0515,-0.077 -0.077,-0.0515 -0.0909,-0.0181 z"
     id="path45" />
  <path
     style="fill:#000000;fill-opacity:1;fill-rule:evenodd;stroke:none;stroke-linecap:round;stroke-linejoin:round;stroke-opacity:1"
     d="m 162.3477,72.931 -0.0909,0.0181 -0.077,0.0515 -0.0515,0.077 -0.0181,0.0909 v 0.6 l 0.0181,0.0909 0.0515,0.077 0.077,0.0515 0.0909,0.0181 h 0.475 l 0.0909,-0.0181 0.077,-0.0515 0.0515,-0.077 0.0181,-0.0909 v -0.6 l -0.0181,-0.0909 -0.0515,-0.077 -0.077,-0.0515 -0.0909,-0.0181 z"
     id="path46" />
  <path
     style="fill:#000000;fill-opacity:1;fill-rule:evenodd;stroke:none;stroke-linecap:round;stroke-linejoin:round;stroke-opacity:1"
     d="m 161.0842,71.1532 0.0574,-0.0114 0.0487,-0.0325 0.0325,-0.0486 0.0114,-0.0575 v -1.6499 l -0.0114,-0.0575 -0.0325,-0.0486 -0.0487,-0.0325 -0.0574,-0.0115 h -0.3 l -0.0574,0.0115 -0.0487,0.0325 -0.0325,0.0486 -0.0114,0.0575 v 1.6499 l 0.0114,0.0575 0.0325,0.0486 0.0487,0.0325 0.0574,0.0114 z"
     id="path47" />
  <path
     style="fill:#000000;fill-opacity:1;fill-rule:evenodd;stroke:none;stroke-linecap:round;stroke-linejoin:round;stroke-opacity:1"
     d="m 159.8142,71.1532 0.0574,-0.0114 0.0487,-0.0325 0.0325,-0.0486 0.0114,-0.0575 v -1.6499 l -0.0114,-0.0575 -0.0325,-0.0486 -0.0487,-0.0325 -0.0574,-0.0115 h -0.3 l -0.0574,0.0115 -0.0487,0.0325 -0.0325,0.0486 -0.0114,0.0575 v 1.6499 l 0.0114,0.0575 0.0325,0.0486 0.0487,0.0325 0.0574,0.0114 z"
     id="path48" />
  <path
     style="fill:#000000;fill-opacity:1;fill-rule:evenodd;stroke:none;stroke-linecap:round;stroke-linejoin:round;stroke-opacity:1"
     d="m 158.5442,71.1532 0.0574,-0.0114 0.0487,-0.0325 0.0325,-0.0486 0.0114,-0.0575 v -1.6499 l -0.0114,-0.0575 -0.0325,-0.0486 -0.0487,-0.0325 -0.0574,-0.0115 h -0.3 l -0.0574,0.0115 -0.0487,0.0325 -0.0325,0.0486 -0.0114,0.0575 v 1.6499 l 0.0114,0.0575 0.0325,0.0486 0.0487,0.0325 0.0574,0.0114 z"
     id="path49" />
  <path
     style="fill:#000000;fill-opacity:1;fill-rule:evenodd;stroke:none;stroke-linecap:round;stroke-linejoin:round;stroke-opacity:1"
     d="m 157.2742,71.1532 0.0574,-0.0114 0.0487,-0.0325 0.0325,-0.0486 0.0114,-0.0575 v -1.6499 l -0.0114,-0.0575 -0.0325,-0.0486 -0.0487,-0.0325 -0.0574,-0.0115 h -0.3 l -0.0574,0.0115 -0.0487,0.0325 -0.0325,0.0486 -0.0114,0.0575 v 1.6499 l 0.0114,0.0575 0.0325,0.0486 0.0487,0.0325 0.0574,0.0114 z"
     id="path50" />
  <path
     style="fill:#000000;fill-opacity:1;fill-rule:evenodd;stroke:none;stroke-linecap:round;stroke-linejoin:round;stroke-opacity:1"
     d="m 156.0042,71.1532 0.0574,-0.0114 0.0487,-0.0325 0.0325,-0.0486 0.0114,-0.0575 v -1.6499 l -0.0114,-0.0575 -0.0325,-0.0486 -0.0487,-0.0325 -0.0574,-0.0115 h -0.3 l -0.0574,0.0115 -0.0487,0.0325 -0.0325,0.0486 -0.0114,0.0575 v 1.6499 l 0.0114,0.0575 0.0325,0.0486 0.0487,0.0325 0.0574,0.0114 z"
     id="path51" />
  <path
     style="fill:#000000;fill-opacity:1;fill-rule:evenodd;stroke:none;stroke-linecap:round;stroke-linejoin:round;stroke-opacity:1"
     d="m 154.7342,71.1532 0.0574,-0.0114 0.0487,-0.0325 0.0325,-0.0486 0.0114,-0.0575 v -1.6499 l -0.0114,-0.0575 -0.0325,-0.0486 -0.0487,-0.0325 -0.0574,-0.0115 h -0.3 l -0.0574,0.0115 -0.0487,0.0325 -0.0325,0.0486 -0.0114,0.0575 v 1.6499 l 0.0114,0.0575 0.0325,0.0486 0.0487,0.0325 0.0574,0.0114 z"
     id="path52" />
  <path
     style="fill:#000000;fill-opacity:1;fill-rule:evenodd;stroke:none;stroke-linecap:round;stroke-linejoin:round;stroke-opacity:1"
     d="m 153.4642,71.1532 0.0574,-0.0114 0.0487,-0.0325 0.0325,-0.0486 0.0114,-0.0575 v -1.6499 l -0.0114,-0.0575 -0.0325,-0.0486 -0.0487,-0.0325 -0.0574,-0.0115 h -0.3 l -0.0574,0.0115 -0.0487,0.0325 -0.0325,0.0486 -0.0114,0.0575 v 1.6499 l 0.0114,0.0575 0.0325,0.0486 0.0487,0.0325 0.0574,0.0114 z"
     id="path53" />
  <path
     style="fill:#000000;fill-opacity:1;fill-rule:evenodd;stroke:none;stroke-linecap:round;stroke-linejoin:round;stroke-opacity:1"
     d="m 153.4642,66.2032 0.0574,-0.0114 0.0487,-0.0325 0.0325,-0.0486 0.0114,-0.0575 v -1.65 l -0.0114,-0.0574 -0.0325,-0.0486 -0.0487,-0.0325 -0.0574,-0.0115 h -0.3 l -0.0574,0.0115 -0.0487,0.0325 -0.0325,0.0486 -0.0114,0.0574 v 1.65 l 0.0114,0.0575 0.0325,0.0486 0.0487,0.0325 0.0574,0.0114 z"
     id="path54" />
  <path
     style="fill:#000000;fill-opacity:1;fill-rule:evenodd;stroke:none;stroke-linecap:round;stroke-linejoin:round;stroke-opacity:1"
     d="m 154.7342,66.2032 0.0574,-0.0114 0.0487,-0.0325 0.0325,-0.0486 0.0114,-0.0575 v -1.65 l -0.0114,-0.0574 -0.0325,-0.0486 -0.0487,-0.0325 -0.0574,-0.0115 h -0.3 l -0.0574,0.0115 -0.0487,0.0325 -0.0325,0.0486 -0.0114,0.0574 v 1.65 l 0.0114,0.0575 0.0325,0.0486 0.0487,0.0325 0.0574,0.0114 z"
     id="path55" />
  <path
     style="fill:#000000;fill-opacity:1;fill-rule:evenodd;stroke:none;stroke-linecap:round;stroke-linejoin:round;stroke-opacity:1"
     d="m 156.0042,66.2032 0.0574,-0.0114 0.0487,-0.0325 0.0325,-0.0486 0.0114,-0.0575 v -1.65 l -0.0114,-0.0574 -0.0325,-0.0486 -0.0487,-0.0325 -0.0574,-0.0115 h -0.3 l -0.0574,0.0115 -0.0487,0.0325 -0.0325,0.0486 -0.0114,0.0574 v 1.65 l 0.0114,0.0575 0.0325,0.0486 0.0487,0.0325 0.0574,0.0114 z"
     id="path56" />
  <path
     style="fill:#000000;fill-opacity:1;fill-rule:evenodd;stroke:none;stroke-linecap:round;stroke-linejoin:round;stroke-opacity:1"
     d="m 157.2742,66.2032 0.0574,-0.0114 0.0487,-0.0325 0.0325,-0.0486 0.0114,-0.0575 v -1.65 l -0.0114,-0.0574 -0.0325,-0.0486 -0.0487,-0.0325 -0.0574,-0.0115 h -0.3 l -0.0574,0.0115 -0.0487,0.0325 -0.0325,0.0486 -0.0114,0.0574 v 1.65 l 0.0114,0.0575 0.0325,0.0486 0.0487,0.0325 0.0574,0.0114 z"
     id="path57" />
  <path
     style="fill:#000000;fill-opacity:1;fill-rule:evenodd;stroke:none;stroke-linecap:round;stroke-linejoin:round;stroke-opacity:1"
     d="m 158.5442,66.2032 0.0574,-0.0114 0.0487,-0.0325 0.0325,-0.0486 0.0114,-0.0575 v -1.65 l -0.0114,-0.0574 -0.0325,-0.0486 -0.0487,-0.0325 -0.0574,-0.0115 h -0.3 l -0.0574,0.0115 -0.0487,0.0325 -0.0325,0.0486 -0.0114,0.0574 v 1.65 l 0.0114,0.0575 0.0325,0.0486 0.0487,0.0325 0.0574,0.0114 z"
     id="path58" />
  <path
     style="fill:#000000;fill-opacity:1;fill-rule:evenodd;stroke:none;stroke-linecap:round;stroke-linejoin:round;stroke-opacity:1"
     d="m 159.8142,66.2032 0.0574,-0.0114 0.0487,-0.0325 0.0325,-0.0486 0.0114,-0.0575 v -1.65 l -0.0114,-0.0574 -0.0325,-0.0486 -0.0487,-0.0325 -0.0574,-0.0115 h -0.3 l -0.0574,0.0115 -0.0487,0.0325 -0.0325,0.0486 -0.0114,0.0574 v 1.65 l 0.0114,0.0575 0.0325,0.0486 0.0487,0.0325 0.0574,0.0114 z"
     id="path59" />
  <path
     style="fill:#000000;fill-opacity:1;fill-rule:evenodd;stroke:none;stroke-linecap:round;stroke-linejoin:round;stroke-opacity:1"
     d="m 161.0842,66.2032 0.0574,-0.0114 0.0487,-0.0325 0.0325,-0.0486 0.0114,-0.0575 v -1.65 l -0.0114,-0.0574 -0.0325,-0.0486 -0.0487,-0.0325 -0.0574,-0.0115 h -0.3 l -0.0574,0.0115 -0.0487,0.0325 -0.0325,0.0486 -0.0114,0.0574 v 1.65 l 0.0114,0.0575 0.0325,0.0486 0.0487,0.0325 0.0574,0.0114 z"
     id="path60" />
  <path
     style="fill:#000000;fill-opacity:1;fill-rule:evenodd;stroke:none;stroke-linecap:round;stroke-linejoin:round;stroke-opacity:1"
     d="m 188.1172,65.229 -0.019,-0.0957 -0.0542,-0.0811 -0.0811,-0.0542 -0.0957,-0.019 h -3 l -0.0957,0.019 -0.0811,0.0542 -0.0542,0.0811 -0.019,0.0957 v 1.8 l 0.019,0.0957 0.0542,0.0811 0.0811,0.0542 0.0957,0.019 h 3 l 0.0957,-0.019 0.0811,-0.0542 0.0542,-0.0811 0.019,-0.0957 z"
     id="path61" />
  <path
     style="fill:#000000;fill-opacity:1;fill-rule:evenodd;stroke:none;stroke-linecap:round;stroke-linejoin:round;stroke-opacity:1"
     d="m 182.7172,65.229 -0.019,-0.0957 -0.0542,-0.0811 -0.0811,-0.0542 -0.0957,-0.019 h -3 l -0.0957,0.019 -0.0811,0.0542 -0.0542,0.0811 -0.019,0.0957 v 1.8 l 0.019,0.0957 0.0542,0.0811 0.0811,0.0542 0.0957,0.019 h 3 l 0.0957,-0.019 0.0811,-0.0542 0.0542,-0.0811 0.019,-0.0957 z"
     id="path62" />
  <path
     style="fill:#000000;fill-opacity:1;fill-rule:evenodd;stroke:none;stroke-linecap:round;stroke-linejoin:round;stroke-opacity:1"
     d="m 171.3397,77.8 0.0909,-0.0181 0.077,-0.0515 0.0515,-0.077 0.0181,-0.0909 v -0.6 l -0.0181,-0.0909 -0.0515,-0.077 -0.077,-0.0515 -0.0909,-0.0181 h -0.475 l -0.0909,0.0181 -0.077,0.0515 -0.0515,0.077 -0.0181,0.0909 v 0.6 l 0.0181,0.0909 0.0515,0.077 0.077,0.0515 0.0909,0.0181 z"
     id="path63" />
  <path
     style="fill:#000000;fill-opacity:1;fill-rule:evenodd;stroke:none;stroke-linecap:round;stroke-linejoin:round;stroke-opacity:1"
     d="m 171.3397,76.075 0.0909,-0.0181 0.077,-0.0515 0.0515,-0.077 0.0181,-0.0909 v -0.6 l -0.0181,-0.0909 -0.0515,-0.077 -0.077,-0.0515 L 171.3397,75 h -0.475 l -0.0909,0.0181 -0.077,0.0515 -0.0515,0.077 -0.0181,0.0909 v 0.6 l 0.0181,0.0909 0.0515,0.077 0.077,0.0515 0.0909,0.0181 z"
     id="path64" />
  <path
     style="fill:#000000;fill-opacity:1;fill-rule:evenodd;stroke:none;stroke-linecap:round;stroke-linejoin:round;stroke-opacity:1"
     d="m 163.6177,57.8975 -0.0909,0.0181 -0.077,0.0515 -0.0515,0.077 -0.0181,0.0909 v 0.6 l 0.0181,0.0909 0.0515,0.077 0.077,0.0515 0.0909,0.0181 h 0.475 l 0.0909,-0.0181 0.077,-0.0515 0.0515,-0.077 0.0181,-0.0909 v -0.6 l -0.0181,-0.0909 -0.0515,-0.077 -0.077,-0.0515 -0.0909,-0.0181 z"
     id="path65" />
  <path
     style="fill:#000000;fill-opacity:1;fill-rule:evenodd;stroke:none;stroke-linecap:round;stroke-linejoin:round;stroke-opacity:1"
     d="m 163.6177,59.6225 -0.0909,0.0181 -0.077,0.0515 -0.0515,0.077 -0.0181,0.0909 v 0.6 l 0.0181,0.0909 0.0515,0.077 0.077,0.0515 0.0909,0.0181 h 0.475 l 0.0909,-0.0181 0.077,-0.0515 0.0515,-0.077 0.0181,-0.0909 v -0.6 l -0.0181,-0.0909 -0.0515,-0.077 -0.077,-0.0515 -0.0909,-0.0181 z"
     id="path66" />
  <path
     style="fill:#000000;fill-opacity:1;fill-rule:evenodd;stroke:none;stroke-linecap:round;stroke-linejoin:round;stroke-opacity:1"
     d="m 149.9542,65.681 0.0957,-0.019 0.0811,-0.0542 0.0542,-0.0811 0.019,-0.0957 v -0.7 l -0.019,-0.0957 -0.0542,-0.0811 -0.0811,-0.0542 -0.0957,-0.019 h -0.9 l -0.0957,0.019 -0.0811,0.0542 -0.0542,0.0811 -0.019,0.0957 v 0.7 l 0.019,0.0957 0.0542,0.0811 0.0811,0.0542 0.0957,0.019 z"
     id="path67" />
  <path
     style="fill:#000000;fill-opacity:1;fill-rule:evenodd;stroke:none;stroke-linecap:round;stroke-linejoin:round;stroke-opacity:1"
     d="m 149.9542,63.681 0.0957,-0.019 0.0811,-0.0542 0.0542,-0.0811 0.019,-0.0957 v -0.7 l -0.019,-0.0957 -0.0542,-0.0811 -0.0811,-0.0542 -0.0957,-0.019 h -0.9 l -0.0957,0.019 -0.0811,0.0542 -0.0542,0.0811 -0.019,0.0957 v 0.7 l 0.019,0.0957 0.0542,0.0811 0.0811,0.0542 0.0957,0.019 z"
     id="path68" />
  <path
     style="fill:#000000;fill-opacity:1;fill-rule:evenodd;stroke:none;stroke-linecap:round;stroke-linejoin:round;stroke-opacity:1"
     d="m 169.7692,67.41 v 0.85 h 2.65 v -0.85 z"
     id="path69" />
  <path
     style="fill:#000000;fill-opacity:1;fill-rule:evenodd;stroke:none;stroke-linecap:round;stroke-linejoin:round;stroke-opacity:1"
     d="m 165.4192,67.41 v 0.85 h 3.55 v -0.85 z"
     id="path70" />
  <path
     style="fill:#000000;fill-opacity:1;fill-rule:evenodd;stroke:none;stroke-linecap:round;stroke-linejoin:round;stroke-opacity:1"
     d="m 169.7692,65.91 v 0.85 h 2.65 v -0.85 z"
     id="path71" />
  <path
     style="fill:#000000;fill-opacity:1;fill-rule:evenodd;stroke:none;stroke-linecap:round;stroke-linejoin:round;stroke-opacity:1"
     d="m 165.4192,65.91 v 0.85 h 3.55 v -0.85 z"
     id="path72" />
  <path
     style="fill:#000000;fill-opacity:1;fill-rule:evenodd;stroke:none;stroke-linecap:round;stroke-linejoin:round;stroke-opacity:1"
     d="m 169.7692,64.41 v 0.85 h 2.65 v -0.85 z"
     id="path73" />
  <path
     style="fill:#000000;fill-opacity:1;fill-rule:evenodd;stroke:none;stroke-linecap:round;stroke-linejoin:round;stroke-opacity:1"
     d="m 165.4192,64.41 v 0.85 h 3.55 v -0.85 z"
     id="path74" />
  <path
     style="fill:#000000;fill-opacity:1;fill-rule:evenodd;stroke:none;stroke-linecap:round;stroke-linejoin:round;stroke-opacity:1"
     d="m 169.7692,62.91 v 0.85 h 2.65 v -0.85 z"
     id="path75" />
  <path
     style="fill:#000000;fill-opacity:1;fill-rule:evenodd;stroke:none;stroke-linecap:round;stroke-linejoin:round;stroke-opacity:1"
     d="m 165.4192,62.91 v 0.85 h 3.55 v -0.85 z"
     id="path76" />
  <path
     style="fill:#000000;fill-opacity:1;fill-rule:evenodd;stroke:none;stroke-linecap:round;stroke-linejoin:round;stroke-opacity:1"
     d="m 169.7692,61.41 v 0.85 h 2.65 v -0.85 z"
     id="path77" />
  <path
     style="fill:#000000;fill-opacity:1;fill-rule:evenodd;stroke:none;stroke-linecap:round;stroke-linejoin:round;stroke-opacity:1"
     d="m 165.4192,61.41 v 0.85 h 3.55 v -0.85 z"
     id="path78" />
  <path
     style="fill:#000000;fill-opacity:1;fill-rule:evenodd;stroke:none;stroke-linecap:round;stroke-linejoin:round;stroke-opacity:1"
     d="m 159.3022,55.5375 0.0181,0.0909 0.0515,0.077 0.077,0.0515 0.0909,0.0181 h 0.575 l 0.0909,-0.0181 0.077,-0.0515 0.0515,-0.077 0.0181,-0.0909 v -0.475 l -0.0181,-0.0909 -0.0515,-0.077 -0.077,-0.0515 -0.0909,-0.0181 h -0.575 l -0.0909,0.0181 -0.077,0.0515 -0.0515,0.077 -0.0181,0.0909 z"
     id="path79" />
  <path
     style="fill:#000000;fill-opacity:1;fill-rule:evenodd;stroke:none;stroke-linecap:round;stroke-linejoin:round;stroke-opacity:1"
     d="m 161.0522,55.5375 0.0181,0.0909 0.0515,0.077 0.077,0.0515 0.0909,0.0181 h 0.575 l 0.0909,-0.0181 0.077,-0.0515 0.0515,-0.077 0.0181,-0.0909 v -0.475 l -0.0181,-0.0909 -0.0515,-0.077 -0.077,-0.0515 -0.0909,-0.0181 h -0.575 l -0.0909,0.0181 -0.077,0.0515 -0.0515,0.077 -0.0181,0.0909 z"
     id="path80" />
  <path
     style="fill:#000000;fill-opacity:1;fill-rule:evenodd;stroke:none;stroke-linecap:round;stroke-linejoin:round;stroke-opacity:1"
     d="m 153.2562,59.918 0.0957,-0.019 0.0811,-0.0542 0.0542,-0.0811 0.019,-0.0957 v -0.7 l -0.019,-0.0957 -0.0542,-0.0811 -0.0811,-0.0542 -0.0957,-0.019 h -0.9 l -0.0957,0.019 -0.0811,0.0542 -0.0542,0.0811 -0.019,0.0957 v 0.7 l 0.019,0.0957 0.0542,0.0811 0.0811,0.0542 0.0957,0.019 z"
     id="path81" />
  <path
     style="fill:#000000;fill-opacity:1;fill-rule:evenodd;stroke:none;stroke-linecap:round;stroke-linejoin:round;stroke-opacity:1"
     d="m 153.2562,57.918 0.0957,-0.019 0.0811,-0.0542 0.0542,-0.0811 0.019,-0.0957 v -0.7 l -0.019,-0.0957 -0.0542,-0.0811 -0.0811,-0.0542 -0.0957,-0.019 h -0.9 l -0.0957,0.019 -0.0811,0.0542 -0.0542,0.0811 -0.019,0.0957 v 0.7 l 0.019,0.0957 0.0542,0.0811 0.0811,0.0542 0.0957,0.019 z"
     id="path82" />
  <path
     style="fill:#000000;fill-opacity:1;fill-rule:evenodd;stroke:none;stroke-linecap:round;stroke-linejoin:round;stroke-opacity:1"
     d="m 140.3147,75.375 0.019,0.0957 0.0542,0.0811 0.0811,0.0542 0.0957,0.019 h 0.675 l 0.0957,-0.019 0.0811,-0.0542 0.0542,-0.0811 0.019,-0.0957 v -0.95 l -0.019,-0.0957 -0.0542,-0.0811 -0.0811,-0.0542 -0.0957,-0.019 h -0.675 l -0.0957,0.019 -0.0811,0.0542 -0.0542,0.0811 -0.019,0.0957 z"
     id="path83" />
  <path
     style="fill:#000000;fill-opacity:1;fill-rule:evenodd;stroke:none;stroke-linecap:round;stroke-linejoin:round;stroke-opacity:1"
     d="m 142.3897,75.375 0.019,0.0957 0.0542,0.0811 0.0811,0.0542 0.0957,0.019 h 0.675 l 0.0957,-0.019 0.0811,-0.0542 0.0542,-0.0811 0.019,-0.0957 v -0.95 l -0.019,-0.0957 -0.0542,-0.0811 -0.0811,-0.0542 -0.0957,-0.019 h -0.675 l -0.0957,0.019 -0.0811,0.0542 -0.0542,0.0811 -0.019,0.0957 z"
     id="path84" />
  <path
     style="fill:#000000;fill-opacity:1;fill-rule:evenodd;stroke:none;stroke-linecap:round;stroke-linejoin:round;stroke-opacity:1"
     d="m 171.5787,71.0985 -0.0181,-0.0909 -0.0515,-0.077 -0.077,-0.0515 -0.0909,-0.0181 h -0.6 l -0.0909,0.0181 -0.077,0.0515 -0.0515,0.077 -0.0181,0.0909 v 0.475 l 0.0181,0.0909 0.0515,0.077 0.077,0.0515 0.0909,0.0181 h 0.6 l 0.0909,-0.0181 0.077,-0.0515 0.0515,-0.077 0.0181,-0.0909 z"
     id="path85" />
  <path
     style="fill:#000000;fill-opacity:1;fill-rule:evenodd;stroke:none;stroke-linecap:round;stroke-linejoin:round;stroke-opacity:1"
     d="m 169.8537,71.0985 -0.0181,-0.0909 -0.0515,-0.077 -0.077,-0.0515 -0.0909,-0.0181 h -0.6 l -0.0909,0.0181 -0.077,0.0515 -0.0515,0.077 -0.0181,0.0909 v 0.475 l 0.0181,0.0909 0.0515,0.077 0.077,0.0515 0.0909,0.0181 h 0.6 l 0.0909,-0.0181 0.077,-0.0515 0.0515,-0.077 0.0181,-0.0909 z"
     id="path86" />
  <path
     style="fill:#000000;fill-opacity:1;fill-rule:evenodd;stroke:none;stroke-linecap:round;stroke-linejoin:round;stroke-opacity:1"
     d="m 178.2532,77.3465 0.0162,0.0813 0.046,0.069 0.069,0.046 0.0813,0.0162 h 0.425 l 0.0813,-0.0162 0.069,-0.046 0.046,-0.069 0.0162,-0.0813 v -3.125 l -0.0162,-0.0813 -0.046,-0.069 -0.069,-0.046 -0.0813,-0.0162 h -0.425 l -0.0813,0.0162 -0.069,0.046 -0.046,0.069 -0.0162,0.0813 z"
     id="path87" />
  <path
     style="fill:#000000;fill-opacity:1;fill-rule:evenodd;stroke:none;stroke-linecap:round;stroke-linejoin:round;stroke-opacity:1"
     d="m 178.2532,72.9965 0.0162,0.0813 0.046,0.069 0.069,0.046 0.0813,0.0162 h 0.425 l 0.0813,-0.0162 0.069,-0.046 0.046,-0.069 0.0162,-0.0813 v -2.225 l -0.0162,-0.0813 -0.046,-0.069 -0.069,-0.046 -0.0813,-0.0162 h -0.425 l -0.0813,0.0162 -0.069,0.046 -0.046,0.069 -0.0162,0.0813 z"
     id="path88" />
  <path
     style="fill:#000000;fill-opacity:1;fill-rule:evenodd;stroke:none;stroke-linecap:round;stroke-linejoin:round;stroke-opacity:1"
     d="m 176.7532,77.3465 0.0162,0.0813 0.046,0.069 0.069,0.046 0.0813,0.0162 h 0.425 l 0.0813,-0.0162 0.069,-0.046 0.046,-0.069 0.0162,-0.0813 v -3.125 l -0.0162,-0.0813 -0.046,-0.069 -0.069,-0.046 -0.0813,-0.0162 h -0.425 l -0.0813,0.0162 -0.069,0.046 -0.046,0.069 -0.0162,0.0813 z"
     id="path89" />
  <path
     style="fill:#000000;fill-opacity:1;fill-rule:evenodd;stroke:none;stroke-linecap:round;stroke-linejoin:round;stroke-opacity:1"
     d="m 176.7532,72.9965 0.0162,0.0813 0.046,0.069 0.069,0.046 0.0813,0.0162 h 0.425 l 0.0813,-0.0162 0.069,-0.046 0.046,-0.069 0.0162,-0.0813 v -2.225 l -0.0162,-0.0813 -0.046,-0.069 -0.069,-0.046 -0.0813,-0.0162 h -0.425 l -0.0813,0.0162 -0.069,0.046 -0.046,0.069 -0.0162,0.0813 z"
     id="path90" />
  <path
     style="fill:#000000;fill-opacity:1;fill-rule:evenodd;stroke:none;stroke-linecap:round;stroke-linejoin:round;stroke-opacity:1"
     d="m 175.2532,77.3465 0.0162,0.0813 0.046,0.069 0.069,0.046 0.0813,0.0162 h 0.425 l 0.0813,-0.0162 0.069,-0.046 0.046,-0.069 0.0162,-0.0813 v -3.125 l -0.0162,-0.0813 -0.046,-0.069 -0.069,-0.046 -0.0813,-0.0162 h -0.425 l -0.0813,0.0162 -0.069,0.046 -0.046,0.069 -0.0162,0.0813 z"
     id="path91" />
  <path
     style="fill:#000000;fill-opacity:1;fill-rule:evenodd;stroke:none;stroke-linecap:round;stroke-linejoin:round;stroke-opacity:1"
     d="m 175.2532,72.9965 0.0162,0.0813 0.046,0.069 0.069,0.046 0.0813,0.0162 h 0.425 l 0.0813,-0.0162 0.069,-0.046 0.046,-0.069 0.0162,-0.0813 v -2.225 l -0.0162,-0.0813 -0.046,-0.069 -0.069,-0.046 -0.0813,-0.0162 h -0.425 l -0.0813,0.0162 -0.069,0.046 -0.046,0.069 -0.0162,0.0813 z"
     id="path92" />
  <path
     style="fill:#000000;fill-opacity:1;fill-rule:evenodd;stroke:none;stroke-linecap:round;stroke-linejoin:round;stroke-opacity:1"
     d="m 173.7532,77.3465 0.0162,0.0813 0.046,0.069 0.069,0.046 0.0813,0.0162 h 0.425 l 0.0813,-0.0162 0.069,-0.046 0.046,-0.069 0.0162,-0.0813 v -3.125 l -0.0162,-0.0813 -0.046,-0.069 -0.069,-0.046 -0.0813,-0.0162 h -0.425 l -0.0813,0.0162 -0.069,0.046 -0.046,0.069 -0.0162,0.0813 z"
     id="path93" />
  <path
     style="fill:#000000;fill-opacity:1;fill-rule:evenodd;stroke:none;stroke-linecap:round;stroke-linejoin:round;stroke-opacity:1"
     d="m 173.7532,72.9965 0.0162,0.0813 0.046,0.069 0.069,0.046 0.0813,0.0162 h 0.425 l 0.0813,-0.0162 0.069,-0.046 0.046,-0.069 0.0162,-0.0813 v -2.225 l -0.0162,-0.0813 -0.046,-0.069 -0.069,-0.046 -0.0813,-0.0162 h -0.425 l -0.0813,0.0162 -0.069,0.046 -0.046,0.069 -0.0162,0.0813 z"
     id="path94" />
  <path
     style="fill:#000000;fill-opacity:1;fill-rule:evenodd;stroke:none;stroke-linecap:round;stroke-linejoin:round;stroke-opacity:1"
     d="m 142.7022,63.85 -0.019,-0.0957 -0.0542,-0.0811 -0.0811,-0.0542 -0.0957,-0.019 h -0.7 l -0.0957,0.019 -0.0811,0.0542 -0.0542,0.0811 -0.019,0.0957 v 0.9 l 0.019,0.0957 0.0542,0.0811 0.0811,0.0542 0.0957,0.019 h 0.7 l 0.0957,-0.019 0.0811,-0.0542 0.0542,-0.0811 0.019,-0.0957 z"
     id="path95" />
  <path
     style="fill:#000000;fill-opacity:1;fill-rule:evenodd;stroke:none;stroke-linecap:round;stroke-linejoin:round;stroke-opacity:1"
     d="m 140.7022,63.85 -0.019,-0.0957 -0.0542,-0.0811 -0.0811,-0.0542 -0.0957,-0.019 h -0.7 l -0.0957,0.019 -0.0811,0.0542 -0.0542,0.0811 -0.019,0.0957 v 0.9 l 0.019,0.0957 0.0542,0.0811 0.0811,0.0542 0.0957,0.019 h 0.7 l 0.0957,-0.019 0.0811,-0.0542 0.0542,-0.0811 0.019,-0.0957 z"
     id="path96" />
  <path
     style="fill:none;stroke-linecap:round;stroke-linejoin:round;stroke:#ff0000;fill-opacity:1;stroke-opacity:1;stroke-width:0.265;stroke-dasharray:none"
     d="M 134.00195,49.867187 A 0.13230489,0.13230489 0 0 0 133.86914,50 v 29 a 0.13230489,0.13230489 0 0 0 0.13281,0.132812 h 63 A 0.13230489,0.13230489 0 0 0 197.13477,79 V 50 a 0.13230489,0.13230489 0 0 0 -0.13282,-0.132813 z m 0.13282,0.265625 h 62.73437 v 28.734375 h -62.73437 z"
     id="path97" />
</svg>
