<?xml version="1.0" encoding="UTF-8" standalone="no"?>
<svg
   version="1.1"
   width="297.0022mm"
   height="210.0072mm"
   viewBox="0.0000 0.0000 297.0022 210.0072"
   id="svg44"
   sodipodi:docname="vmc-B_Paste.svg"
   inkscape:version="1.4 (e7c3feb100, 2024-10-09)"
   xmlns:inkscape="http://www.inkscape.org/namespaces/inkscape"
   xmlns:sodipodi="http://sodipodi.sourceforge.net/DTD/sodipodi-0.dtd"
   xmlns="http://www.w3.org/2000/svg"
   xmlns:svg="http://www.w3.org/2000/svg">
  <defs
     id="defs44" />
  <sodipodi:namedview
     id="namedview44"
     pagecolor="#ffffff"
     bordercolor="#666666"
     borderopacity="1.0"
     inkscape:showpageshadow="2"
     inkscape:pageopacity="0.0"
     inkscape:pagecheckerboard="0"
     inkscape:deskcolor="#d1d1d1"
     inkscape:document-units="mm"
     inkscape:zoom="0.97013171"
     inkscape:cx="603.0109"
     inkscape:cy="254.08921"
     inkscape:window-width="1240"
     inkscape:window-height="1080"
     inkscape:window-x="666"
     inkscape:window-y="-39"
     inkscape:window-maximized="0"
     inkscape:current-layer="svg44" />
  <title
     id="title1">SVG Image created as vmc-B_Paste.svg date 2025/04/02 15:49:46 </title>
  <desc
     id="desc1">Image generated by PCBNEW </desc>
  <path
     style="fill:#000000;fill-opacity:1;fill-rule:evenodd;stroke:none;stroke-linecap:round;stroke-linejoin:round;stroke-opacity:1"
     d="m 113.012,62.1455 -0.019,0.0957 -0.0542,0.0811 -0.0811,0.0542 -0.0957,0.019 h -1.7 l -0.0957,-0.019 -0.0811,-0.0542 -0.0542,-0.0811 -0.019,-0.0957 v -0.7 l 0.019,-0.0957 0.0542,-0.0811 0.0811,-0.0542 0.0957,-0.019 h 1.7 l 0.0957,0.019 0.0811,0.0542 0.0542,0.0811 0.019,0.0957 z"
     id="path1" />
  <path
     style="fill:#000000;fill-opacity:1;fill-rule:evenodd;stroke:none;stroke-linecap:round;stroke-linejoin:round;stroke-opacity:1"
     d="m 113.012,64.4255 -0.019,0.0957 -0.0542,0.0811 -0.0811,0.0542 -0.0957,0.019 h -1.7 l -0.0957,-0.019 -0.0811,-0.0542 -0.0542,-0.0811 -0.019,-0.0957 v -0.7 l 0.019,-0.0957 0.0542,-0.0811 0.0811,-0.0542 0.0957,-0.019 h 1.7 l 0.0957,0.019 0.0811,0.0542 0.0542,0.0811 0.019,0.0957 z"
     id="path2" />
  <path
     style="fill:#000000;fill-opacity:1;fill-rule:evenodd;stroke:none;stroke-linecap:round;stroke-linejoin:round;stroke-opacity:1"
     d="m 108.812,66.7255 -0.019,0.0957 -0.0542,0.0811 -0.0811,0.0542 -0.0957,0.019 h -2.55 l -0.0957,-0.019 -0.0811,-0.0542 -0.0542,-0.0811 -0.019,-0.0957 v -2.25 l 0.019,-0.0957 0.0542,-0.0811 0.0811,-0.0542 0.0957,-0.019 h 2.55 l 0.0957,0.019 0.0811,0.0542 0.0542,0.0811 0.019,0.0957 z"
     id="path3" />
  <path
     style="fill:#000000;fill-opacity:1;fill-rule:evenodd;stroke:none;stroke-linecap:round;stroke-linejoin:round;stroke-opacity:1"
     d="m 108.812,63.6755 -0.019,0.0957 -0.0542,0.0811 -0.0811,0.0542 -0.0957,0.019 h -2.55 l -0.0957,-0.019 -0.0811,-0.0542 -0.0542,-0.0811 -0.019,-0.0957 v -2.25 l 0.019,-0.0957 0.0542,-0.0811 0.0811,-0.0542 0.0957,-0.019 h 2.55 l 0.0957,0.019 0.0811,0.0542 0.0542,0.0811 0.019,0.0957 z"
     id="path4" />
  <path
     style="fill:#000000;fill-opacity:1;fill-rule:evenodd;stroke:none;stroke-linecap:round;stroke-linejoin:round;stroke-opacity:1"
     d="m 105.462,66.7255 -0.019,0.0957 -0.0542,0.0811 -0.0811,0.0542 -0.0957,0.019 h -2.55 l -0.0957,-0.019 -0.0811,-0.0542 -0.0542,-0.0811 -0.019,-0.0957 v -2.25 l 0.019,-0.0957 0.0542,-0.0811 0.0811,-0.0542 0.0957,-0.019 h 2.55 l 0.0957,0.019 0.0811,0.0542 0.0542,0.0811 0.019,0.0957 z"
     id="path5" />
  <path
     style="fill:#000000;fill-opacity:1;fill-rule:evenodd;stroke:none;stroke-linecap:round;stroke-linejoin:round;stroke-opacity:1"
     d="m 105.462,63.6755 -0.019,0.0957 -0.0542,0.0811 -0.0811,0.0542 -0.0957,0.019 h -2.55 l -0.0957,-0.019 -0.0811,-0.0542 -0.0542,-0.0811 -0.019,-0.0957 v -2.25 l 0.019,-0.0957 0.0542,-0.0811 0.0811,-0.0542 0.0957,-0.019 h 2.55 l 0.0957,0.019 0.0811,0.0542 0.0542,0.0811 0.019,0.0957 z"
     id="path6" />
  <path
     style="fill:#000000;fill-opacity:1;fill-rule:evenodd;stroke:none;stroke-linecap:round;stroke-linejoin:round;stroke-opacity:1"
     d="m 113.012,66.7055 -0.019,0.0957 -0.0542,0.0811 -0.0811,0.0542 -0.0957,0.019 h -1.7 l -0.0957,-0.019 -0.0811,-0.0542 -0.0542,-0.0811 -0.019,-0.0957 v -0.7 l 0.019,-0.0957 0.0542,-0.0811 0.0811,-0.0542 0.0957,-0.019 h 1.7 l 0.0957,0.019 0.0811,0.0542 0.0542,0.0811 0.019,0.0957 z"
     id="path7" />
  <path
     style="fill:#000000;fill-opacity:1;fill-rule:evenodd;stroke:none;stroke-linecap:round;stroke-linejoin:round;stroke-opacity:1"
     d="m 127.8365,62.2085 0.0181,-0.0909 0.0515,-0.077 0.077,-0.0515 0.0909,-0.0181 h 0.6 l 0.0909,0.0181 0.077,0.0515 0.0515,0.077 0.0181,0.0909 v 0.475 l -0.0181,0.0909 -0.0515,0.077 -0.077,0.0515 -0.0909,0.0181 h -0.6 l -0.0909,-0.0181 -0.077,-0.0515 -0.0515,-0.077 -0.0181,-0.0909 z"
     id="path8" />
  <path
     style="fill:#000000;fill-opacity:1;fill-rule:evenodd;stroke:none;stroke-linecap:round;stroke-linejoin:round;stroke-opacity:1"
     d="m 129.5615,62.2085 0.0181,-0.0909 0.0515,-0.077 0.077,-0.0515 0.0909,-0.0181 h 0.6 l 0.0909,0.0181 0.077,0.0515 0.0515,0.077 0.0181,0.0909 v 0.475 l -0.0181,0.0909 -0.0515,0.077 -0.077,0.0515 -0.0909,0.0181 h -0.6 l -0.0909,-0.0181 -0.077,-0.0515 -0.0515,-0.077 -0.0181,-0.0909 z"
     id="path9" />
  <path
     style="fill:#000000;fill-opacity:1;fill-rule:evenodd;stroke:none;stroke-linecap:round;stroke-linejoin:round;stroke-opacity:1"
     d="m 127.963,65.042 0.0122,-0.0612 0.0347,-0.0519 0.0519,-0.0347 0.0612,-0.0122 h 0.32 l 0.0612,0.0122 0.0519,0.0347 0.0347,0.0519 0.0122,0.0612 v 0.69 l -0.0122,0.0612 -0.0347,0.0519 -0.0519,0.0347 -0.0612,0.0122 h -0.32 l -0.0612,-0.0122 -0.0519,-0.0347 -0.0347,-0.0519 -0.0122,-0.0612 z"
     id="path10" />
  <path
     style="fill:#000000;fill-opacity:1;fill-rule:evenodd;stroke:none;stroke-linecap:round;stroke-linejoin:round;stroke-opacity:1"
     d="m 127.963,66.292 0.0122,-0.0612 0.0347,-0.0519 0.0519,-0.0347 0.0612,-0.0122 h 0.32 l 0.0612,0.0122 0.0519,0.0347 0.0347,0.0519 0.0122,0.0612 v 0.69 l -0.0122,0.0612 -0.0347,0.0519 -0.0519,0.0347 -0.0612,0.0122 h -0.32 l -0.0612,-0.0122 -0.0519,-0.0347 -0.0347,-0.0519 -0.0122,-0.0612 z"
     id="path11" />
  <path
     style="fill:#000000;fill-opacity:1;fill-rule:evenodd;stroke:none;stroke-linecap:round;stroke-linejoin:round;stroke-opacity:1"
     d="m 128.763,65.042 0.0122,-0.0612 0.0347,-0.0519 0.0519,-0.0347 0.0612,-0.0122 h 0.32 l 0.0612,0.0122 0.0519,0.0347 0.0347,0.0519 0.0122,0.0612 v 0.69 l -0.0122,0.0612 -0.0347,0.0519 -0.0519,0.0347 -0.0612,0.0122 h -0.32 l -0.0612,-0.0122 -0.0519,-0.0347 -0.0347,-0.0519 -0.0122,-0.0612 z"
     id="path12" />
  <path
     style="fill:#000000;fill-opacity:1;fill-rule:evenodd;stroke:none;stroke-linecap:round;stroke-linejoin:round;stroke-opacity:1"
     d="m 128.763,66.292 0.0122,-0.0612 0.0347,-0.0519 0.0519,-0.0347 0.0612,-0.0122 h 0.32 l 0.0612,0.0122 0.0519,0.0347 0.0347,0.0519 0.0122,0.0612 v 0.69 l -0.0122,0.0612 -0.0347,0.0519 -0.0519,0.0347 -0.0612,0.0122 h -0.32 l -0.0612,-0.0122 -0.0519,-0.0347 -0.0347,-0.0519 -0.0122,-0.0612 z"
     id="path13" />
  <path
     style="fill:#000000;fill-opacity:1;fill-rule:evenodd;stroke:none;stroke-linecap:round;stroke-linejoin:round;stroke-opacity:1"
     d="m 126.883,67.187 0.006,-0.0287 0.0163,-0.0243 0.0243,-0.0163 0.0287,-0.0057 h 0.5 l 0.0287,0.0057 0.0243,0.0163 0.0163,0.0243 0.006,0.0287 v 0.15 l -0.006,0.0287 -0.0163,0.0243 -0.0243,0.0163 -0.0287,0.0057 h -0.5 l -0.0287,-0.0057 -0.0243,-0.0163 -0.0163,-0.0243 -0.006,-0.0287 z"
     id="path14" />
  <path
     style="fill:#000000;fill-opacity:1;fill-rule:evenodd;stroke:none;stroke-linecap:round;stroke-linejoin:round;stroke-opacity:1"
     d="m 126.883,66.687 0.006,-0.0287 0.0163,-0.0243 0.0243,-0.0163 0.0287,-0.0057 h 0.5 l 0.0287,0.0057 0.0243,0.0163 0.0163,0.0243 0.006,0.0287 v 0.15 l -0.006,0.0287 -0.0163,0.0243 -0.0243,0.0163 -0.0287,0.0057 h -0.5 l -0.0287,-0.0057 -0.0243,-0.0163 -0.0163,-0.0243 -0.006,-0.0287 z"
     id="path15" />
  <path
     style="fill:#000000;fill-opacity:1;fill-rule:evenodd;stroke:none;stroke-linecap:round;stroke-linejoin:round;stroke-opacity:1"
     d="m 126.883,66.187 0.006,-0.0287 0.0163,-0.0243 0.0243,-0.0163 0.0287,-0.0057 h 0.5 l 0.0287,0.0057 0.0243,0.0163 0.0163,0.0243 0.006,0.0287 v 0.15 l -0.006,0.0287 -0.0163,0.0243 -0.0243,0.0163 -0.0287,0.0057 h -0.5 l -0.0287,-0.0057 -0.0243,-0.0163 -0.0163,-0.0243 -0.006,-0.0287 z"
     id="path16" />
  <path
     style="fill:#000000;fill-opacity:1;fill-rule:evenodd;stroke:none;stroke-linecap:round;stroke-linejoin:round;stroke-opacity:1"
     d="m 126.883,65.687 0.006,-0.0287 0.0163,-0.0243 0.0243,-0.0163 0.0287,-0.0057 h 0.5 l 0.0287,0.0057 0.0243,0.0163 0.0163,0.0243 0.006,0.0287 v 0.15 l -0.006,0.0287 -0.0163,0.0243 -0.0243,0.0163 -0.0287,0.0057 h -0.5 l -0.0287,-0.0057 -0.0243,-0.0163 -0.0163,-0.0243 -0.006,-0.0287 z"
     id="path17" />
  <path
     style="fill:#000000;fill-opacity:1;fill-rule:evenodd;stroke:none;stroke-linecap:round;stroke-linejoin:round;stroke-opacity:1"
     d="m 126.883,65.187 0.006,-0.0287 0.0163,-0.0243 0.0243,-0.0163 0.0287,-0.0057 h 0.5 l 0.0287,0.0057 0.0243,0.0163 0.0163,0.0243 0.006,0.0287 v 0.15 l -0.006,0.0287 -0.0163,0.0243 -0.0243,0.0163 -0.0287,0.0057 h -0.5 l -0.0287,-0.0057 -0.0243,-0.0163 -0.0163,-0.0243 -0.006,-0.0287 z"
     id="path18" />
  <path
     style="fill:#000000;fill-opacity:1;fill-rule:evenodd;stroke:none;stroke-linecap:round;stroke-linejoin:round;stroke-opacity:1"
     d="m 126.883,64.687 0.006,-0.0287 0.0163,-0.0243 0.0243,-0.0163 0.0287,-0.0057 h 0.5 l 0.0287,0.0057 0.0243,0.0163 0.0163,0.0243 0.006,0.0287 v 0.15 l -0.006,0.0287 -0.0163,0.0243 -0.0243,0.0163 -0.0287,0.0057 h -0.5 l -0.0287,-0.0057 -0.0243,-0.0163 -0.0163,-0.0243 -0.006,-0.0287 z"
     id="path19" />
  <path
     style="fill:#000000;fill-opacity:1;fill-rule:evenodd;stroke:none;stroke-linecap:round;stroke-linejoin:round;stroke-opacity:1"
     d="m 129.833,64.687 0.006,-0.0287 0.0163,-0.0243 0.0243,-0.0163 0.0287,-0.0057 h 0.5 l 0.0287,0.0057 0.0243,0.0163 0.0163,0.0243 0.006,0.0287 v 0.15 l -0.006,0.0287 -0.0163,0.0243 -0.0243,0.0163 -0.0287,0.0057 h -0.5 l -0.0287,-0.0057 -0.0243,-0.0163 -0.0163,-0.0243 -0.006,-0.0287 z"
     id="path20" />
  <path
     style="fill:#000000;fill-opacity:1;fill-rule:evenodd;stroke:none;stroke-linecap:round;stroke-linejoin:round;stroke-opacity:1"
     d="m 129.833,65.187 0.006,-0.0287 0.0163,-0.0243 0.0243,-0.0163 0.0287,-0.0057 h 0.5 l 0.0287,0.0057 0.0243,0.0163 0.0163,0.0243 0.006,0.0287 v 0.15 l -0.006,0.0287 -0.0163,0.0243 -0.0243,0.0163 -0.0287,0.0057 h -0.5 l -0.0287,-0.0057 -0.0243,-0.0163 -0.0163,-0.0243 -0.006,-0.0287 z"
     id="path21" />
  <path
     style="fill:#000000;fill-opacity:1;fill-rule:evenodd;stroke:none;stroke-linecap:round;stroke-linejoin:round;stroke-opacity:1"
     d="m 129.833,65.687 0.006,-0.0287 0.0163,-0.0243 0.0243,-0.0163 0.0287,-0.0057 h 0.5 l 0.0287,0.0057 0.0243,0.0163 0.0163,0.0243 0.006,0.0287 v 0.15 l -0.006,0.0287 -0.0163,0.0243 -0.0243,0.0163 -0.0287,0.0057 h -0.5 l -0.0287,-0.0057 -0.0243,-0.0163 -0.0163,-0.0243 -0.006,-0.0287 z"
     id="path22" />
  <path
     style="fill:#000000;fill-opacity:1;fill-rule:evenodd;stroke:none;stroke-linecap:round;stroke-linejoin:round;stroke-opacity:1"
     d="m 129.833,66.187 0.006,-0.0287 0.0163,-0.0243 0.0243,-0.0163 0.0287,-0.0057 h 0.5 l 0.0287,0.0057 0.0243,0.0163 0.0163,0.0243 0.006,0.0287 v 0.15 l -0.006,0.0287 -0.0163,0.0243 -0.0243,0.0163 -0.0287,0.0057 h -0.5 l -0.0287,-0.0057 -0.0243,-0.0163 -0.0163,-0.0243 -0.006,-0.0287 z"
     id="path23" />
  <path
     style="fill:#000000;fill-opacity:1;fill-rule:evenodd;stroke:none;stroke-linecap:round;stroke-linejoin:round;stroke-opacity:1"
     d="m 129.833,66.687 0.006,-0.0287 0.0163,-0.0243 0.0243,-0.0163 0.0287,-0.0057 h 0.5 l 0.0287,0.0057 0.0243,0.0163 0.0163,0.0243 0.006,0.0287 v 0.15 l -0.006,0.0287 -0.0163,0.0243 -0.0243,0.0163 -0.0287,0.0057 h -0.5 l -0.0287,-0.0057 -0.0243,-0.0163 -0.0163,-0.0243 -0.006,-0.0287 z"
     id="path24" />
  <path
     style="fill:#000000;fill-opacity:1;fill-rule:evenodd;stroke:none;stroke-linecap:round;stroke-linejoin:round;stroke-opacity:1"
     d="m 129.833,67.187 0.006,-0.0287 0.0163,-0.0243 0.0243,-0.0163 0.0287,-0.0057 h 0.5 l 0.0287,0.0057 0.0243,0.0163 0.0163,0.0243 0.006,0.0287 v 0.15 l -0.006,0.0287 -0.0163,0.0243 -0.0243,0.0163 -0.0287,0.0057 h -0.5 l -0.0287,-0.0057 -0.0243,-0.0163 -0.0163,-0.0243 -0.006,-0.0287 z"
     id="path25" />
  <path
     style="fill:#000000;fill-opacity:1;fill-rule:evenodd;stroke:none;stroke-linecap:round;stroke-linejoin:round;stroke-opacity:1"
     d="m 132.255,67.5425 0.0181,-0.0909 0.0515,-0.077 0.077,-0.0515 0.0909,-0.0181 h 0.6 l 0.0909,0.0181 0.077,0.0515 0.0515,0.077 0.0181,0.0909 v 0.475 l -0.0181,0.0909 -0.0515,0.077 -0.077,0.0515 -0.0909,0.0181 h -0.6 l -0.0909,-0.0181 -0.077,-0.0515 -0.0515,-0.077 -0.0181,-0.0909 z"
     id="path26" />
  <path
     style="fill:#000000;fill-opacity:1;fill-rule:evenodd;stroke:none;stroke-linecap:round;stroke-linejoin:round;stroke-opacity:1"
     d="m 133.98,67.5425 0.0181,-0.0909 0.0515,-0.077 0.077,-0.0515 0.0909,-0.0181 h 0.6 l 0.0909,0.0181 0.077,0.0515 0.0515,0.077 0.0181,0.0909 v 0.475 l -0.0181,0.0909 -0.0515,0.077 -0.077,0.0515 -0.0909,0.0181 h -0.6 l -0.0909,-0.0181 -0.077,-0.0515 -0.0515,-0.077 -0.0181,-0.0909 z"
     id="path27" />
  <path
     style="fill:#000000;fill-opacity:1;fill-rule:evenodd;stroke:none;stroke-linecap:round;stroke-linejoin:round;stroke-opacity:1"
     d="m 117.079,60.746 0.0957,0.019 0.0811,0.0542 0.0542,0.0811 0.019,0.0957 v 0.825 l -0.019,0.0957 -0.0542,0.0811 -0.0811,0.0542 -0.0957,0.019 h -2.2 l -0.0957,-0.019 -0.0811,-0.0542 -0.0542,-0.0811 -0.019,-0.0957 v -0.825 l 0.019,-0.0957 0.0542,-0.0811 0.0811,-0.0542 0.0957,-0.019 z"
     id="path28" />
  <path
     style="fill:#000000;fill-opacity:1;fill-rule:evenodd;stroke:none;stroke-linecap:round;stroke-linejoin:round;stroke-opacity:1"
     d="m 117.079,63.871 0.0957,0.019 0.0811,0.0542 0.0542,0.0811 0.019,0.0957 v 0.825 l -0.019,0.0957 -0.0542,0.0811 -0.0811,0.0542 -0.0957,0.019 h -2.2 l -0.0957,-0.019 -0.0811,-0.0542 -0.0542,-0.0811 -0.019,-0.0957 v -0.825 l 0.019,-0.0957 0.0542,-0.0811 0.0811,-0.0542 0.0957,-0.019 z"
     id="path29" />
  <path
     style="fill:#000000;fill-opacity:1;fill-rule:evenodd;stroke:none;stroke-linecap:round;stroke-linejoin:round;stroke-opacity:1"
     d="m 115.146,71.691 -0.0957,-0.019 -0.0811,-0.0542 -0.0542,-0.0811 -0.019,-0.0957 v -0.675 l 0.019,-0.0957 0.0542,-0.0811 0.0811,-0.0542 0.0957,-0.019 h 0.95 l 0.0957,0.019 0.0811,0.0542 0.0542,0.0811 0.019,0.0957 v 0.675 l -0.019,0.0957 -0.0542,0.0811 -0.0811,0.0542 -0.0957,0.019 z"
     id="path30" />
  <path
     style="fill:#000000;fill-opacity:1;fill-rule:evenodd;stroke:none;stroke-linecap:round;stroke-linejoin:round;stroke-opacity:1"
     d="m 115.146,69.616 -0.0957,-0.019 -0.0811,-0.0542 -0.0542,-0.0811 -0.019,-0.0957 v -0.675 l 0.019,-0.0957 0.0542,-0.0811 0.0811,-0.0542 0.0957,-0.019 h 0.95 l 0.0957,0.019 0.0811,0.0542 0.0542,0.0811 0.019,0.0957 v 0.675 l -0.019,0.0957 -0.0542,0.0811 -0.0811,0.0542 -0.0957,0.019 z"
     id="path31" />
  <path
     style="fill:#000000;fill-opacity:1;fill-rule:evenodd;stroke:none;stroke-linecap:round;stroke-linejoin:round;stroke-opacity:1"
     d="m 122.784,66.441 0.019,-0.0957 0.0542,-0.0811 0.0811,-0.0542 0.0957,-0.019 h 0.7 l 0.0957,0.019 0.0811,0.0542 0.0542,0.0811 0.019,0.0957 v 0.9 l -0.019,0.0957 -0.0542,0.0811 -0.0811,0.0542 -0.0957,0.019 h -0.7 l -0.0957,-0.019 -0.0811,-0.0542 -0.0542,-0.0811 -0.019,-0.0957 z"
     id="path32" />
  <path
     style="fill:#000000;fill-opacity:1;fill-rule:evenodd;stroke:none;stroke-linecap:round;stroke-linejoin:round;stroke-opacity:1"
     d="m 124.784,66.441 0.019,-0.0957 0.0542,-0.0811 0.0811,-0.0542 0.0957,-0.019 h 0.7 l 0.0957,0.019 0.0811,0.0542 0.0542,0.0811 0.019,0.0957 v 0.9 l -0.019,0.0957 -0.0542,0.0811 -0.0811,0.0542 -0.0957,0.019 h -0.7 l -0.0957,-0.019 -0.0811,-0.0542 -0.0542,-0.0811 -0.019,-0.0957 z"
     id="path33" />
  <path
     style="fill:#000000;fill-opacity:1;fill-rule:evenodd;stroke:none;stroke-linecap:round;stroke-linejoin:round;stroke-opacity:1"
     d="m 122.784,70.251 0.019,-0.0957 0.0542,-0.0811 0.0811,-0.0542 0.0957,-0.019 h 0.7 l 0.0957,0.019 0.0811,0.0542 0.0542,0.0811 0.019,0.0957 v 0.9 l -0.019,0.0957 -0.0542,0.0811 -0.0811,0.0542 -0.0957,0.019 h -0.7 l -0.0957,-0.019 -0.0811,-0.0542 -0.0542,-0.0811 -0.019,-0.0957 z"
     id="path34" />
  <path
     style="fill:#000000;fill-opacity:1;fill-rule:evenodd;stroke:none;stroke-linecap:round;stroke-linejoin:round;stroke-opacity:1"
     d="m 124.784,70.251 0.019,-0.0957 0.0542,-0.0811 0.0811,-0.0542 0.0957,-0.019 h 0.7 l 0.0957,0.019 0.0811,0.0542 0.0542,0.0811 0.019,0.0957 v 0.9 l -0.019,0.0957 -0.0542,0.0811 -0.0811,0.0542 -0.0957,0.019 h -0.7 l -0.0957,-0.019 -0.0811,-0.0542 -0.0542,-0.0811 -0.019,-0.0957 z"
     id="path35" />
  <path
     style="fill:#000000;fill-opacity:1;fill-rule:evenodd;stroke:none;stroke-linecap:round;stroke-linejoin:round;stroke-opacity:1"
     d="m 142.35,71.625 0.0156,-0.107 0.0542,-0.1109 0.0873,-0.0873 0.1109,-0.0542 0.107,-0.0156 h 0.75 l 0.107,0.0156 0.1109,0.0542 0.0873,0.0873 0.0542,0.1109 0.0156,0.107 v 5.25 l -0.0156,0.107 -0.0542,0.1109 -0.0873,0.0873 -0.1109,0.0542 -0.107,0.0156 h -0.75 l -0.107,-0.0156 -0.1109,-0.0542 -0.0873,-0.0873 -0.0542,-0.1109 -0.0156,-0.107 z"
     id="path36" />
  <path
     style="fill:#000000;fill-opacity:1;fill-rule:evenodd;stroke:none;stroke-linecap:round;stroke-linejoin:round;stroke-opacity:1"
     d="m 142.35,57.125 0.0156,-0.107 0.0542,-0.1109 0.0873,-0.0873 0.1109,-0.0542 0.107,-0.0156 h 0.75 l 0.107,0.0156 0.1109,0.0542 0.0873,0.0873 0.0542,0.1109 0.0156,0.107 v 5.25 l -0.0156,0.107 -0.0542,0.1109 -0.0873,0.0873 -0.1109,0.0542 -0.107,0.0156 h -0.75 l -0.107,-0.0156 -0.1109,-0.0542 -0.0873,-0.0873 -0.0542,-0.1109 -0.0156,-0.107 z"
     id="path37" />
  <path
     style="fill:#000000;fill-opacity:1;fill-rule:evenodd;stroke:none;stroke-linecap:round;stroke-linejoin:round;stroke-opacity:1"
     d="m 130.422,70.117 0.0957,0.019 0.0811,0.0542 0.0542,0.0811 0.019,0.0957 v 0.7 l -0.019,0.0957 -0.0542,0.0811 -0.0811,0.0542 -0.0957,0.019 h -0.9 l -0.0957,-0.019 -0.0811,-0.0542 -0.0542,-0.0811 -0.019,-0.0957 v -0.7 l 0.019,-0.0957 0.0542,-0.0811 0.0811,-0.0542 0.0957,-0.019 z"
     id="path38" />
  <path
     style="fill:#000000;fill-opacity:1;fill-rule:evenodd;stroke:none;stroke-linecap:round;stroke-linejoin:round;stroke-opacity:1"
     d="m 130.422,72.117 0.0957,0.019 0.0811,0.0542 0.0542,0.0811 0.019,0.0957 v 0.7 l -0.019,0.0957 -0.0542,0.0811 -0.0811,0.0542 -0.0957,0.019 h -0.9 l -0.0957,-0.019 -0.0811,-0.0542 -0.0542,-0.0811 -0.019,-0.0957 v -0.7 l 0.019,-0.0957 0.0542,-0.0811 0.0811,-0.0542 0.0957,-0.019 z"
     id="path39" />
  <path
     style="fill:#000000;fill-opacity:1;fill-rule:evenodd;stroke:none;stroke-linecap:round;stroke-linejoin:round;stroke-opacity:1"
     d="m 131.173,56.68 -0.0957,-0.019 -0.0811,-0.0542 -0.0542,-0.0811 -0.019,-0.0957 v -0.7 l 0.019,-0.0957 0.0542,-0.0811 0.0811,-0.0542 0.0957,-0.019 h 0.9 l 0.0957,0.019 0.0811,0.0542 0.0542,0.0811 0.019,0.0957 v 0.7 l -0.019,0.0957 -0.0542,0.0811 -0.0811,0.0542 -0.0957,0.019 z"
     id="path40" />
  <path
     style="fill:#000000;fill-opacity:1;fill-rule:evenodd;stroke:none;stroke-linecap:round;stroke-linejoin:round;stroke-opacity:1"
     d="m 131.173,54.68 -0.0957,-0.019 -0.0811,-0.0542 -0.0542,-0.0811 -0.019,-0.0957 v -0.7 l 0.019,-0.0957 0.0542,-0.0811 0.0811,-0.0542 0.0957,-0.019 h 0.9 l 0.0957,0.019 0.0811,0.0542 0.0542,0.0811 0.019,0.0957 v 0.7 l -0.019,0.0957 -0.0542,0.0811 -0.0811,0.0542 -0.0957,0.019 z"
     id="path41" />
  <path
     style="fill:#000000;fill-opacity:1;fill-rule:evenodd;stroke:none;stroke-linecap:round;stroke-linejoin:round;stroke-opacity:1"
     d="m 132.555,65.941 -0.0957,-0.019 -0.0811,-0.0542 -0.0542,-0.0811 -0.019,-0.0957 v -0.825 l 0.019,-0.0957 0.0542,-0.0811 0.0811,-0.0542 0.0957,-0.019 h 2.2 l 0.0957,0.019 0.0811,0.0542 0.0542,0.0811 0.019,0.0957 v 0.825 l -0.019,0.0957 -0.0542,0.0811 -0.0811,0.0542 -0.0957,0.019 z"
     id="path42" />
  <path
     style="fill:#000000;fill-opacity:1;fill-rule:evenodd;stroke:none;stroke-linecap:round;stroke-linejoin:round;stroke-opacity:1"
     d="m 132.555,62.816 -0.0957,-0.019 -0.0811,-0.0542 -0.0542,-0.0811 -0.019,-0.0957 v -0.825 l 0.019,-0.0957 0.0542,-0.0811 0.0811,-0.0542 0.0957,-0.019 h 2.2 l 0.0957,0.019 0.0811,0.0542 0.0542,0.0811 0.019,0.0957 v 0.825 l -0.019,0.0957 -0.0542,0.0811 -0.0811,0.0542 -0.0957,0.019 z"
     id="path43" />
  <path
     style="fill:none;fill-opacity:1;stroke:#ff0000;stroke-width:0.26458333;stroke-linecap:round;stroke-linejoin:round;stroke-opacity:1;stroke-dasharray:none"
     d="m 100,50 h 63 v 29 h -63 z"
     id="path44" />
</svg>
