<?xml version="1.0" standalone="no"?>
 <!DOCTYPE svg PUBLIC "-//W3C//DTD SVG 1.1//EN" 
 "http://www.w3.org/Graphics/SVG/1.1/DTD/svg11.dtd"> 
<svg
  xmlns:svg="http://www.w3.org/2000/svg"
  xmlns="http://www.w3.org/2000/svg"
  xmlns:xlink="http://www.w3.org/1999/xlink"
  version="1.1"
  width="297.0022mm" height="210.0072mm" viewBox="0.0000 0.0000 297.0022 210.0072">
<title>SVG Image created as vmc-F_Paste.svg date 2025/03/30 17:43:51 </title>
  <desc>Image generated by PCBNEW </desc>
<g style="fill:#000000; fill-opacity:1.0000;stroke:#000000; stroke-opacity:1.0000;
stroke-linecap:round; stroke-linejoin:round;"
 transform="translate(0 0) scale(1 1)">
<path style="fill:#000000; fill-opacity:1.0000; stroke:none;fill-rule:evenodd;"
d="M 150.8990,56.7000
150.9947,56.7190
151.0758,56.7732
151.1300,56.8543
151.1490,56.9500
151.1490,57.6500
151.1300,57.7457
151.0758,57.8268
150.9947,57.8810
150.8990,57.9000
149.9990,57.9000
149.9033,57.8810
149.8222,57.8268
149.7680,57.7457
149.7490,57.6500
149.7490,56.9500
149.7680,56.8543
149.8222,56.7732
149.9033,56.7190
149.9990,56.7000
Z" /> 
<path style="fill:#000000; fill-opacity:1.0000; stroke:none;fill-rule:evenodd;"
d="M 150.8990,58.7000
150.9947,58.7190
151.0758,58.7732
151.1300,58.8543
151.1490,58.9500
151.1490,59.6500
151.1300,59.7457
151.0758,59.8268
150.9947,59.8810
150.8990,59.9000
149.9990,59.9000
149.9033,59.8810
149.8222,59.8268
149.7680,59.7457
149.7490,59.6500
149.7490,58.9500
149.7680,58.8543
149.8222,58.7732
149.9033,58.7190
149.9990,58.7000
Z" /> 
<path style="fill:#000000; fill-opacity:1.0000; stroke:none;fill-rule:evenodd;"
d="M 126.6500,58.9000
126.5543,58.8810
126.4732,58.8268
126.4190,58.7457
126.4000,58.6500
126.4000,57.9500
126.4190,57.8543
126.4732,57.7732
126.5543,57.7190
126.6500,57.7000
127.5500,57.7000
127.6457,57.7190
127.7268,57.7732
127.7810,57.8543
127.8000,57.9500
127.8000,58.6500
127.7810,58.7457
127.7268,58.8268
127.6457,58.8810
127.5500,58.9000
Z" /> 
<path style="fill:#000000; fill-opacity:1.0000; stroke:none;fill-rule:evenodd;"
d="M 126.6500,56.9000
126.5543,56.8810
126.4732,56.8268
126.4190,56.7457
126.4000,56.6500
126.4000,55.9500
126.4190,55.8543
126.4732,55.7732
126.5543,55.7190
126.6500,55.7000
127.5500,55.7000
127.6457,55.7190
127.7268,55.7732
127.7810,55.8543
127.8000,55.9500
127.8000,56.6500
127.7810,56.7457
127.7268,56.8268
127.6457,56.8810
127.5500,56.9000
Z" /> 
<path style="fill:#000000; fill-opacity:1.0000; stroke:none;fill-rule:evenodd;"
d="M 135.9040,58.8640
136.8040,58.8640
136.8040,60.1940
136.5340,60.4640
135.9040,60.4640
Z" /> 
<path style="fill:#000000; fill-opacity:1.0000; stroke:none;fill-rule:evenodd;"
d="M 137.8040,60.2890
137.8040,60.5390
137.2540,60.5390
137.2540,60.2890
Z" /> 
<path style="fill:#000000; fill-opacity:1.0000; stroke:none;fill-rule:evenodd;"
d="M 137.8040,59.7890
137.8040,60.0390
137.2540,60.0390
137.2540,59.7890
Z" /> 
<path style="fill:#000000; fill-opacity:1.0000; stroke:none;fill-rule:evenodd;"
d="M 137.8040,59.2890
137.8040,59.5390
137.2540,59.5390
137.2540,59.2890
Z" /> 
<path style="fill:#000000; fill-opacity:1.0000; stroke:none;fill-rule:evenodd;"
d="M 137.2540,59.0390
137.2540,58.7890
137.8040,58.7890
137.8040,59.0390
Z" /> 
<path style="fill:#000000; fill-opacity:1.0000; stroke:none;fill-rule:evenodd;"
d="M 135.4540,58.7890
135.4540,59.0390
134.9040,59.0390
134.9040,58.7890
Z" /> 
<path style="fill:#000000; fill-opacity:1.0000; stroke:none;fill-rule:evenodd;"
d="M 135.4540,59.2890
135.4540,59.5390
134.9040,59.5390
134.9040,59.2890
Z" /> 
<path style="fill:#000000; fill-opacity:1.0000; stroke:none;fill-rule:evenodd;"
d="M 135.4540,59.7890
135.4540,60.0390
134.9040,60.0390
134.9040,59.7890
Z" /> 
<path style="fill:#000000; fill-opacity:1.0000; stroke:none;fill-rule:evenodd;"
d="M 135.4540,60.2890
135.4540,60.5390
134.9040,60.5390
134.9040,60.2890
Z" /> 
<path style="fill:#000000; fill-opacity:1.0000; stroke:none;fill-rule:evenodd;"
d="M 141.0790,59.9180
140.9833,59.8990
140.9022,59.8448
140.8480,59.7637
140.8290,59.6680
140.8290,58.9680
140.8480,58.8723
140.9022,58.7912
140.9833,58.7370
141.0790,58.7180
141.9790,58.7180
142.0747,58.7370
142.1558,58.7912
142.2100,58.8723
142.2290,58.9680
142.2290,59.6680
142.2100,59.7637
142.1558,59.8448
142.0747,59.8990
141.9790,59.9180
Z" /> 
<path style="fill:#000000; fill-opacity:1.0000; stroke:none;fill-rule:evenodd;"
d="M 141.0790,57.9180
140.9833,57.8990
140.9022,57.8448
140.8480,57.7637
140.8290,57.6680
140.8290,56.9680
140.8480,56.8723
140.9022,56.7912
140.9833,56.7370
141.0790,56.7180
141.9790,56.7180
142.0747,56.7370
142.1558,56.7912
142.2100,56.8723
142.2290,56.9680
142.2290,57.6680
142.2100,57.7637
142.1558,57.8448
142.0747,57.8990
141.9790,57.9180
Z" /> 
<path style="fill:#000000; fill-opacity:1.0000; stroke:none;fill-rule:evenodd;"
d="M 129.3500,58.9000
129.2543,58.8810
129.1732,58.8268
129.1190,58.7457
129.1000,58.6500
129.1000,57.9500
129.1190,57.8543
129.1732,57.7732
129.2543,57.7190
129.3500,57.7000
130.2500,57.7000
130.3457,57.7190
130.4268,57.7732
130.4810,57.8543
130.5000,57.9500
130.5000,58.6500
130.4810,58.7457
130.4268,58.8268
130.3457,58.8810
130.2500,58.9000
Z" /> 
<path style="fill:#000000; fill-opacity:1.0000; stroke:none;fill-rule:evenodd;"
d="M 129.3500,56.9000
129.2543,56.8810
129.1732,56.8268
129.1190,56.7457
129.1000,56.6500
129.1000,55.9500
129.1190,55.8543
129.1732,55.7732
129.2543,55.7190
129.3500,55.7000
130.2500,55.7000
130.3457,55.7190
130.4268,55.7732
130.4810,55.8543
130.5000,55.9500
130.5000,56.6500
130.4810,56.7457
130.4268,56.8268
130.3457,56.8810
130.2500,56.9000
Z" /> 
<path style="fill:#000000; fill-opacity:1.0000; stroke:none;fill-rule:evenodd;"
d="M 157.3195,65.8932
157.3769,65.9047
157.4256,65.9372
157.4581,65.9858
157.4695,66.0433
157.4695,67.6932
157.4581,67.7507
157.4256,67.7993
157.3769,67.8318
157.3195,67.8432
157.0195,67.8432
156.9621,67.8318
156.9134,67.7993
156.8809,67.7507
156.8695,67.6932
156.8695,66.0433
156.8809,65.9858
156.9134,65.9372
156.9621,65.9047
157.0195,65.8932
Z" /> 
<path style="fill:#000000; fill-opacity:1.0000; stroke:none;fill-rule:evenodd;"
d="M 156.0495,65.8932
156.1069,65.9047
156.1556,65.9372
156.1881,65.9858
156.1995,66.0433
156.1995,67.6932
156.1881,67.7507
156.1556,67.7993
156.1069,67.8318
156.0495,67.8432
155.7495,67.8432
155.6921,67.8318
155.6434,67.7993
155.6109,67.7507
155.5995,67.6932
155.5995,66.0433
155.6109,65.9858
155.6434,65.9372
155.6921,65.9047
155.7495,65.8932
Z" /> 
<path style="fill:#000000; fill-opacity:1.0000; stroke:none;fill-rule:evenodd;"
d="M 154.7795,65.8932
154.8369,65.9047
154.8856,65.9372
154.9181,65.9858
154.9295,66.0433
154.9295,67.6932
154.9181,67.7507
154.8856,67.7993
154.8369,67.8318
154.7795,67.8432
154.4795,67.8432
154.4221,67.8318
154.3734,67.7993
154.3409,67.7507
154.3295,67.6932
154.3295,66.0433
154.3409,65.9858
154.3734,65.9372
154.4221,65.9047
154.4795,65.8932
Z" /> 
<path style="fill:#000000; fill-opacity:1.0000; stroke:none;fill-rule:evenodd;"
d="M 153.5095,65.8932
153.5669,65.9047
153.6156,65.9372
153.6481,65.9858
153.6595,66.0433
153.6595,67.6932
153.6481,67.7507
153.6156,67.7993
153.5669,67.8318
153.5095,67.8432
153.2095,67.8432
153.1521,67.8318
153.1034,67.7993
153.0709,67.7507
153.0595,67.6932
153.0595,66.0433
153.0709,65.9858
153.1034,65.9372
153.1521,65.9047
153.2095,65.8932
Z" /> 
<path style="fill:#000000; fill-opacity:1.0000; stroke:none;fill-rule:evenodd;"
d="M 153.5095,70.8432
153.5669,70.8547
153.6156,70.8872
153.6481,70.9358
153.6595,70.9933
153.6595,72.6432
153.6481,72.7007
153.6156,72.7493
153.5669,72.7818
153.5095,72.7933
153.2095,72.7933
153.1521,72.7818
153.1034,72.7493
153.0709,72.7007
153.0595,72.6432
153.0595,70.9933
153.0709,70.9358
153.1034,70.8872
153.1521,70.8547
153.2095,70.8432
Z" /> 
<path style="fill:#000000; fill-opacity:1.0000; stroke:none;fill-rule:evenodd;"
d="M 154.7795,70.8432
154.8369,70.8547
154.8856,70.8872
154.9181,70.9358
154.9295,70.9933
154.9295,72.6432
154.9181,72.7007
154.8856,72.7493
154.8369,72.7818
154.7795,72.7933
154.4795,72.7933
154.4221,72.7818
154.3734,72.7493
154.3409,72.7007
154.3295,72.6432
154.3295,70.9933
154.3409,70.9358
154.3734,70.8872
154.4221,70.8547
154.4795,70.8432
Z" /> 
<path style="fill:#000000; fill-opacity:1.0000; stroke:none;fill-rule:evenodd;"
d="M 156.0495,70.8432
156.1069,70.8547
156.1556,70.8872
156.1881,70.9358
156.1995,70.9933
156.1995,72.6432
156.1881,72.7007
156.1556,72.7493
156.1069,72.7818
156.0495,72.7933
155.7495,72.7933
155.6921,72.7818
155.6434,72.7493
155.6109,72.7007
155.5995,72.6432
155.5995,70.9933
155.6109,70.9358
155.6434,70.8872
155.6921,70.8547
155.7495,70.8432
Z" /> 
<path style="fill:#000000; fill-opacity:1.0000; stroke:none;fill-rule:evenodd;"
d="M 157.3195,70.8432
157.3769,70.8547
157.4256,70.8872
157.4581,70.9358
157.4695,70.9933
157.4695,72.6432
157.4581,72.7007
157.4256,72.7493
157.3769,72.7818
157.3195,72.7933
157.0195,72.7933
156.9621,72.7818
156.9134,72.7493
156.8809,72.7007
156.8695,72.6432
156.8695,70.9933
156.8809,70.9358
156.9134,70.8872
156.9621,70.8547
157.0195,70.8432
Z" /> 
<path style="fill:#000000; fill-opacity:1.0000; stroke:none;fill-rule:evenodd;"
d="M 151.7375,72.4000
151.8284,72.4181
151.9054,72.4696
151.9569,72.5466
151.9750,72.6375
151.9750,73.2375
151.9569,73.3284
151.9054,73.4054
151.8284,73.4569
151.7375,73.4750
151.2625,73.4750
151.1716,73.4569
151.0946,73.4054
151.0431,73.3284
151.0250,73.2375
151.0250,72.6375
151.0431,72.5466
151.0946,72.4696
151.1716,72.4181
151.2625,72.4000
Z" /> 
<path style="fill:#000000; fill-opacity:1.0000; stroke:none;fill-rule:evenodd;"
d="M 151.7375,74.1250
151.8284,74.1431
151.9054,74.1946
151.9569,74.2716
151.9750,74.3625
151.9750,74.9625
151.9569,75.0534
151.9054,75.1304
151.8284,75.1819
151.7375,75.2000
151.2625,75.2000
151.1716,75.1819
151.0946,75.1304
151.0431,75.0534
151.0250,74.9625
151.0250,74.3625
151.0431,74.2716
151.0946,74.1946
151.1716,74.1431
151.2625,74.1250
Z" /> 
<path style="fill:#000000; fill-opacity:1.0000; stroke:none;fill-rule:evenodd;"
d="M 138.7500,72.1000
138.8457,72.1190
138.9268,72.1732
138.9810,72.2543
139.0000,72.3500
139.0000,73.0500
138.9810,73.1457
138.9268,73.2268
138.8457,73.2810
138.7500,73.3000
137.8500,73.3000
137.7543,73.2810
137.6732,73.2268
137.6190,73.1457
137.6000,73.0500
137.6000,72.3500
137.6190,72.2543
137.6732,72.1732
137.7543,72.1190
137.8500,72.1000
Z" /> 
<path style="fill:#000000; fill-opacity:1.0000; stroke:none;fill-rule:evenodd;"
d="M 138.7500,74.1000
138.8457,74.1190
138.9268,74.1732
138.9810,74.2543
139.0000,74.3500
139.0000,75.0500
138.9810,75.1457
138.9268,75.2268
138.8457,75.2810
138.7500,75.3000
137.8500,75.3000
137.7543,75.2810
137.6732,75.2268
137.6190,75.1457
137.6000,75.0500
137.6000,74.3500
137.6190,74.2543
137.6732,74.1732
137.7543,74.1190
137.8500,74.1000
Z" /> 
<path style="fill:#000000; fill-opacity:1.0000; stroke:none;fill-rule:evenodd;"
d="M 152.8500,59.9735
152.7926,59.9621
152.7439,59.9296
152.7114,59.8809
152.7000,59.8235
152.7000,58.6485
152.7114,58.5911
152.7439,58.5424
152.7926,58.5099
152.8500,58.4985
153.1500,58.4985
153.2074,58.5099
153.2561,58.5424
153.2886,58.5911
153.3000,58.6485
153.3000,59.8235
153.2886,59.8809
153.2561,59.9296
153.2074,59.9621
153.1500,59.9735
Z" /> 
<path style="fill:#000000; fill-opacity:1.0000; stroke:none;fill-rule:evenodd;"
d="M 154.7500,59.9735
154.6926,59.9621
154.6439,59.9296
154.6114,59.8809
154.6000,59.8235
154.6000,58.6485
154.6114,58.5911
154.6439,58.5424
154.6926,58.5099
154.7500,58.4985
155.0500,58.4985
155.1074,58.5099
155.1561,58.5424
155.1886,58.5911
155.2000,58.6485
155.2000,59.8235
155.1886,59.8809
155.1561,59.9296
155.1074,59.9621
155.0500,59.9735
Z" /> 
<path style="fill:#000000; fill-opacity:1.0000; stroke:none;fill-rule:evenodd;"
d="M 153.8000,58.0985
153.7426,58.0871
153.6939,58.0546
153.6614,58.0059
153.6500,57.9485
153.6500,56.7735
153.6614,56.7161
153.6939,56.6674
153.7426,56.6349
153.8000,56.6235
154.1000,56.6235
154.1574,56.6349
154.2061,56.6674
154.2386,56.7161
154.2500,56.7735
154.2500,57.9485
154.2386,58.0059
154.2061,58.0546
154.1574,58.0871
154.1000,58.0985
Z" /> 
<path style="fill:#000000; fill-opacity:1.0000; stroke:none;fill-rule:evenodd;"
d="M 134.2320,62.7416
134.3277,62.7606
134.4088,62.8148
134.4630,62.8959
134.4820,62.9916
134.4820,63.6916
134.4630,63.7873
134.4088,63.8684
134.3277,63.9226
134.2320,63.9416
133.3320,63.9416
133.2363,63.9226
133.1552,63.8684
133.1010,63.7873
133.0820,63.6916
133.0820,62.9916
133.1010,62.8959
133.1552,62.8148
133.2363,62.7606
133.3320,62.7416
Z" /> 
<path style="fill:#000000; fill-opacity:1.0000; stroke:none;fill-rule:evenodd;"
d="M 134.2320,64.7416
134.3277,64.7606
134.4088,64.8148
134.4630,64.8959
134.4820,64.9916
134.4820,65.6916
134.4630,65.7873
134.4088,65.8684
134.3277,65.9226
134.2320,65.9416
133.3320,65.9416
133.2363,65.9226
133.1552,65.8684
133.1010,65.7873
133.0820,65.6916
133.0820,64.9916
133.1010,64.8959
133.1552,64.8148
133.2363,64.7606
133.3320,64.7416
Z" /> 
<path style="fill:#000000; fill-opacity:1.0000; stroke:none;fill-rule:evenodd;"
d="M 132.3180,71.9130
132.2990,72.0087
132.2448,72.0898
132.1637,72.1440
132.0680,72.1630
131.3680,72.1630
131.2723,72.1440
131.1912,72.0898
131.1370,72.0087
131.1180,71.9130
131.1180,71.0130
131.1370,70.9173
131.1912,70.8362
131.2723,70.7820
131.3680,70.7630
132.0680,70.7630
132.1637,70.7820
132.2448,70.8362
132.2990,70.9173
132.3180,71.0130
Z" /> 
<path style="fill:#000000; fill-opacity:1.0000; stroke:none;fill-rule:evenodd;"
d="M 130.3180,71.9130
130.2990,72.0087
130.2448,72.0898
130.1637,72.1440
130.0680,72.1630
129.3680,72.1630
129.2723,72.1440
129.1912,72.0898
129.1370,72.0087
129.1180,71.9130
129.1180,71.0130
129.1370,70.9173
129.1912,70.8362
129.2723,70.7820
129.3680,70.7630
130.0680,70.7630
130.1637,70.7820
130.2448,70.8362
130.2990,70.9173
130.3180,71.0130
Z" /> 
<path style="fill:#000000; fill-opacity:1.0000; stroke:none;fill-rule:evenodd;"
d="M 111.0020,77.3465
110.9858,77.4278
110.9398,77.4968
110.8708,77.5428
110.7895,77.5590
110.3645,77.5590
110.2832,77.5428
110.2142,77.4968
110.1682,77.4278
110.1520,77.3465
110.1520,74.2215
110.1682,74.1402
110.2142,74.0712
110.2832,74.0252
110.3645,74.0090
110.7895,74.0090
110.8708,74.0252
110.9398,74.0712
110.9858,74.1402
111.0020,74.2215
Z" /> 
<path style="fill:#000000; fill-opacity:1.0000; stroke:none;fill-rule:evenodd;"
d="M 111.0020,72.9965
110.9858,73.0778
110.9398,73.1468
110.8708,73.1928
110.7895,73.2090
110.3645,73.2090
110.2832,73.1928
110.2142,73.1468
110.1682,73.0778
110.1520,72.9965
110.1520,70.7715
110.1682,70.6902
110.2142,70.6212
110.2832,70.5752
110.3645,70.5590
110.7895,70.5590
110.8708,70.5752
110.9398,70.6212
110.9858,70.6902
111.0020,70.7715
Z" /> 
<path style="fill:#000000; fill-opacity:1.0000; stroke:none;fill-rule:evenodd;"
d="M 112.5020,77.3465
112.4858,77.4278
112.4398,77.4968
112.3708,77.5428
112.2895,77.5590
111.8645,77.5590
111.7832,77.5428
111.7142,77.4968
111.6682,77.4278
111.6520,77.3465
111.6520,74.2215
111.6682,74.1402
111.7142,74.0712
111.7832,74.0252
111.8645,74.0090
112.2895,74.0090
112.3708,74.0252
112.4398,74.0712
112.4858,74.1402
112.5020,74.2215
Z" /> 
<path style="fill:#000000; fill-opacity:1.0000; stroke:none;fill-rule:evenodd;"
d="M 112.5020,72.9965
112.4858,73.0778
112.4398,73.1468
112.3708,73.1928
112.2895,73.2090
111.8645,73.2090
111.7832,73.1928
111.7142,73.1468
111.6682,73.0778
111.6520,72.9965
111.6520,70.7715
111.6682,70.6902
111.7142,70.6212
111.7832,70.5752
111.8645,70.5590
112.2895,70.5590
112.3708,70.5752
112.4398,70.6212
112.4858,70.6902
112.5020,70.7715
Z" /> 
<path style="fill:#000000; fill-opacity:1.0000; stroke:none;fill-rule:evenodd;"
d="M 114.0020,77.3465
113.9858,77.4278
113.9398,77.4968
113.8708,77.5428
113.7895,77.5590
113.3645,77.5590
113.2832,77.5428
113.2142,77.4968
113.1682,77.4278
113.1520,77.3465
113.1520,74.2215
113.1682,74.1402
113.2142,74.0712
113.2832,74.0252
113.3645,74.0090
113.7895,74.0090
113.8708,74.0252
113.9398,74.0712
113.9858,74.1402
114.0020,74.2215
Z" /> 
<path style="fill:#000000; fill-opacity:1.0000; stroke:none;fill-rule:evenodd;"
d="M 114.0020,72.9965
113.9858,73.0778
113.9398,73.1468
113.8708,73.1928
113.7895,73.2090
113.3645,73.2090
113.2832,73.1928
113.2142,73.1468
113.1682,73.0778
113.1520,72.9965
113.1520,70.7715
113.1682,70.6902
113.2142,70.6212
113.2832,70.5752
113.3645,70.5590
113.7895,70.5590
113.8708,70.5752
113.9398,70.6212
113.9858,70.6902
114.0020,70.7715
Z" /> 
<path style="fill:#000000; fill-opacity:1.0000; stroke:none;fill-rule:evenodd;"
d="M 115.5020,77.3465
115.4858,77.4278
115.4398,77.4968
115.3708,77.5428
115.2895,77.5590
114.8645,77.5590
114.7832,77.5428
114.7142,77.4968
114.6682,77.4278
114.6520,77.3465
114.6520,74.2215
114.6682,74.1402
114.7142,74.0712
114.7832,74.0252
114.8645,74.0090
115.2895,74.0090
115.3708,74.0252
115.4398,74.0712
115.4858,74.1402
115.5020,74.2215
Z" /> 
<path style="fill:#000000; fill-opacity:1.0000; stroke:none;fill-rule:evenodd;"
d="M 115.5020,72.9965
115.4858,73.0778
115.4398,73.1468
115.3708,73.1928
115.2895,73.2090
114.8645,73.2090
114.7832,73.1928
114.7142,73.1468
114.6682,73.0778
114.6520,72.9965
114.6520,70.7715
114.6682,70.6902
114.7142,70.6212
114.7832,70.5752
114.8645,70.5590
115.2895,70.5590
115.3708,70.5752
115.4398,70.6212
115.4858,70.6902
115.5020,70.7715
Z" /> 
<path style="fill:#000000; fill-opacity:1.0000; stroke:none;fill-rule:evenodd;"
d="M 134.6545,71.2060
134.7454,71.2241
134.8224,71.2756
134.8739,71.3526
134.8920,71.4435
134.8920,72.0435
134.8739,72.1344
134.8224,72.2114
134.7454,72.2629
134.6545,72.2810
134.1795,72.2810
134.0886,72.2629
134.0116,72.2114
133.9601,72.1344
133.9420,72.0435
133.9420,71.4435
133.9601,71.3526
134.0116,71.2756
134.0886,71.2241
134.1795,71.2060
Z" /> 
<path style="fill:#000000; fill-opacity:1.0000; stroke:none;fill-rule:evenodd;"
d="M 134.6545,72.9310
134.7454,72.9491
134.8224,73.0006
134.8739,73.0776
134.8920,73.1685
134.8920,73.7685
134.8739,73.8594
134.8224,73.9364
134.7454,73.9879
134.6545,74.0060
134.1795,74.0060
134.0886,73.9879
134.0116,73.9364
133.9601,73.8594
133.9420,73.7685
133.9420,73.1685
133.9601,73.0776
134.0116,73.0006
134.0886,72.9491
134.1795,72.9310
Z" /> 
<path style="fill:#000000; fill-opacity:1.0000; stroke:none;fill-rule:evenodd;"
d="M 135.9180,71.1532
135.8606,71.1418
135.8119,71.1093
135.7794,71.0607
135.7680,71.0032
135.7680,69.3533
135.7794,69.2958
135.8119,69.2472
135.8606,69.2147
135.9180,69.2032
136.2180,69.2032
136.2754,69.2147
136.3241,69.2472
136.3566,69.2958
136.3680,69.3533
136.3680,71.0032
136.3566,71.0607
136.3241,71.1093
136.2754,71.1418
136.2180,71.1532
Z" /> 
<path style="fill:#000000; fill-opacity:1.0000; stroke:none;fill-rule:evenodd;"
d="M 137.1880,71.1532
137.1306,71.1418
137.0819,71.1093
137.0494,71.0607
137.0380,71.0032
137.0380,69.3533
137.0494,69.2958
137.0819,69.2472
137.1306,69.2147
137.1880,69.2032
137.4880,69.2032
137.5454,69.2147
137.5941,69.2472
137.6266,69.2958
137.6380,69.3533
137.6380,71.0032
137.6266,71.0607
137.5941,71.1093
137.5454,71.1418
137.4880,71.1532
Z" /> 
<path style="fill:#000000; fill-opacity:1.0000; stroke:none;fill-rule:evenodd;"
d="M 138.4580,71.1532
138.4006,71.1418
138.3519,71.1093
138.3194,71.0607
138.3080,71.0032
138.3080,69.3533
138.3194,69.2958
138.3519,69.2472
138.4006,69.2147
138.4580,69.2032
138.7580,69.2032
138.8154,69.2147
138.8641,69.2472
138.8966,69.2958
138.9080,69.3533
138.9080,71.0032
138.8966,71.0607
138.8641,71.1093
138.8154,71.1418
138.7580,71.1532
Z" /> 
<path style="fill:#000000; fill-opacity:1.0000; stroke:none;fill-rule:evenodd;"
d="M 139.7280,71.1532
139.6706,71.1418
139.6219,71.1093
139.5894,71.0607
139.5780,71.0032
139.5780,69.3533
139.5894,69.2958
139.6219,69.2472
139.6706,69.2147
139.7280,69.2032
140.0280,69.2032
140.0854,69.2147
140.1341,69.2472
140.1666,69.2958
140.1780,69.3533
140.1780,71.0032
140.1666,71.0607
140.1341,71.1093
140.0854,71.1418
140.0280,71.1532
Z" /> 
<path style="fill:#000000; fill-opacity:1.0000; stroke:none;fill-rule:evenodd;"
d="M 140.9980,71.1532
140.9406,71.1418
140.8919,71.1093
140.8594,71.0607
140.8480,71.0032
140.8480,69.3533
140.8594,69.2958
140.8919,69.2472
140.9406,69.2147
140.9980,69.2032
141.2980,69.2032
141.3554,69.2147
141.4041,69.2472
141.4366,69.2958
141.4480,69.3533
141.4480,71.0032
141.4366,71.0607
141.4041,71.1093
141.3554,71.1418
141.2980,71.1532
Z" /> 
<path style="fill:#000000; fill-opacity:1.0000; stroke:none;fill-rule:evenodd;"
d="M 142.2680,71.1532
142.2106,71.1418
142.1619,71.1093
142.1294,71.0607
142.1180,71.0032
142.1180,69.3533
142.1294,69.2958
142.1619,69.2472
142.2106,69.2147
142.2680,69.2032
142.5680,69.2032
142.6254,69.2147
142.6741,69.2472
142.7066,69.2958
142.7180,69.3533
142.7180,71.0032
142.7066,71.0607
142.6741,71.1093
142.6254,71.1418
142.5680,71.1532
Z" /> 
<path style="fill:#000000; fill-opacity:1.0000; stroke:none;fill-rule:evenodd;"
d="M 143.5380,71.1532
143.4806,71.1418
143.4319,71.1093
143.3994,71.0607
143.3880,71.0032
143.3880,69.3533
143.3994,69.2958
143.4319,69.2472
143.4806,69.2147
143.5380,69.2032
143.8380,69.2032
143.8954,69.2147
143.9441,69.2472
143.9766,69.2958
143.9880,69.3533
143.9880,71.0032
143.9766,71.0607
143.9441,71.1093
143.8954,71.1418
143.8380,71.1532
Z" /> 
<path style="fill:#000000; fill-opacity:1.0000; stroke:none;fill-rule:evenodd;"
d="M 143.5380,66.2032
143.4806,66.1918
143.4319,66.1593
143.3994,66.1107
143.3880,66.0532
143.3880,64.4032
143.3994,64.3458
143.4319,64.2972
143.4806,64.2647
143.5380,64.2532
143.8380,64.2532
143.8954,64.2647
143.9441,64.2972
143.9766,64.3458
143.9880,64.4032
143.9880,66.0532
143.9766,66.1107
143.9441,66.1593
143.8954,66.1918
143.8380,66.2032
Z" /> 
<path style="fill:#000000; fill-opacity:1.0000; stroke:none;fill-rule:evenodd;"
d="M 142.2680,66.2032
142.2106,66.1918
142.1619,66.1593
142.1294,66.1107
142.1180,66.0532
142.1180,64.4032
142.1294,64.3458
142.1619,64.2972
142.2106,64.2647
142.2680,64.2532
142.5680,64.2532
142.6254,64.2647
142.6741,64.2972
142.7066,64.3458
142.7180,64.4032
142.7180,66.0532
142.7066,66.1107
142.6741,66.1593
142.6254,66.1918
142.5680,66.2032
Z" /> 
<path style="fill:#000000; fill-opacity:1.0000; stroke:none;fill-rule:evenodd;"
d="M 140.9980,66.2032
140.9406,66.1918
140.8919,66.1593
140.8594,66.1107
140.8480,66.0532
140.8480,64.4032
140.8594,64.3458
140.8919,64.2972
140.9406,64.2647
140.9980,64.2532
141.2980,64.2532
141.3554,64.2647
141.4041,64.2972
141.4366,64.3458
141.4480,64.4032
141.4480,66.0532
141.4366,66.1107
141.4041,66.1593
141.3554,66.1918
141.2980,66.2032
Z" /> 
<path style="fill:#000000; fill-opacity:1.0000; stroke:none;fill-rule:evenodd;"
d="M 139.7280,66.2032
139.6706,66.1918
139.6219,66.1593
139.5894,66.1107
139.5780,66.0532
139.5780,64.4032
139.5894,64.3458
139.6219,64.2972
139.6706,64.2647
139.7280,64.2532
140.0280,64.2532
140.0854,64.2647
140.1341,64.2972
140.1666,64.3458
140.1780,64.4032
140.1780,66.0532
140.1666,66.1107
140.1341,66.1593
140.0854,66.1918
140.0280,66.2032
Z" /> 
<path style="fill:#000000; fill-opacity:1.0000; stroke:none;fill-rule:evenodd;"
d="M 138.4580,66.2032
138.4006,66.1918
138.3519,66.1593
138.3194,66.1107
138.3080,66.0532
138.3080,64.4032
138.3194,64.3458
138.3519,64.2972
138.4006,64.2647
138.4580,64.2532
138.7580,64.2532
138.8154,64.2647
138.8641,64.2972
138.8966,64.3458
138.9080,64.4032
138.9080,66.0532
138.8966,66.1107
138.8641,66.1593
138.8154,66.1918
138.7580,66.2032
Z" /> 
<path style="fill:#000000; fill-opacity:1.0000; stroke:none;fill-rule:evenodd;"
d="M 137.1880,66.2032
137.1306,66.1918
137.0819,66.1593
137.0494,66.1107
137.0380,66.0532
137.0380,64.4032
137.0494,64.3458
137.0819,64.2972
137.1306,64.2647
137.1880,64.2532
137.4880,64.2532
137.5454,64.2647
137.5941,64.2972
137.6266,64.3458
137.6380,64.4032
137.6380,66.0532
137.6266,66.1107
137.5941,66.1593
137.5454,66.1918
137.4880,66.2032
Z" /> 
<path style="fill:#000000; fill-opacity:1.0000; stroke:none;fill-rule:evenodd;"
d="M 135.9180,66.2032
135.8606,66.1918
135.8119,66.1593
135.7794,66.1107
135.7680,66.0532
135.7680,64.4032
135.7794,64.3458
135.8119,64.2972
135.8606,64.2647
135.9180,64.2532
136.2180,64.2532
136.2754,64.2647
136.3241,64.2972
136.3566,64.3458
136.3680,64.4032
136.3680,66.0532
136.3566,66.1107
136.3241,66.1593
136.2754,66.1918
136.2180,66.2032
Z" /> 
<path style="fill:#000000; fill-opacity:1.0000; stroke:none;fill-rule:evenodd;"
d="M 108.8850,65.2290
108.9040,65.1333
108.9582,65.0522
109.0393,64.9980
109.1350,64.9790
112.1350,64.9790
112.2307,64.9980
112.3118,65.0522
112.3660,65.1333
112.3850,65.2290
112.3850,67.0290
112.3660,67.1247
112.3118,67.2058
112.2307,67.2600
112.1350,67.2790
109.1350,67.2790
109.0393,67.2600
108.9582,67.2058
108.9040,67.1247
108.8850,67.0290
Z" /> 
<path style="fill:#000000; fill-opacity:1.0000; stroke:none;fill-rule:evenodd;"
d="M 114.2850,65.2290
114.3040,65.1333
114.3582,65.0522
114.4393,64.9980
114.5350,64.9790
117.5350,64.9790
117.6307,64.9980
117.7118,65.0522
117.7660,65.1333
117.7850,65.2290
117.7850,67.0290
117.7660,67.1247
117.7118,67.2058
117.6307,67.2600
117.5350,67.2790
114.5350,67.2790
114.4393,67.2600
114.3582,67.2058
114.3040,67.1247
114.2850,67.0290
Z" /> 
<path style="fill:#000000; fill-opacity:1.0000; stroke:none;fill-rule:evenodd;"
d="M 125.6625,77.8000
125.5716,77.7819
125.4946,77.7304
125.4431,77.6534
125.4250,77.5625
125.4250,76.9625
125.4431,76.8716
125.4946,76.7946
125.5716,76.7431
125.6625,76.7250
126.1375,76.7250
126.2284,76.7431
126.3054,76.7946
126.3569,76.8716
126.3750,76.9625
126.3750,77.5625
126.3569,77.6534
126.3054,77.7304
126.2284,77.7819
126.1375,77.8000
Z" /> 
<path style="fill:#000000; fill-opacity:1.0000; stroke:none;fill-rule:evenodd;"
d="M 125.6625,76.0750
125.5716,76.0569
125.4946,76.0054
125.4431,75.9284
125.4250,75.8375
125.4250,75.2375
125.4431,75.1466
125.4946,75.0696
125.5716,75.0181
125.6625,75.0000
126.1375,75.0000
126.2284,75.0181
126.3054,75.0696
126.3569,75.1466
126.3750,75.2375
126.3750,75.8375
126.3569,75.9284
126.3054,76.0054
126.2284,76.0569
126.1375,76.0750
Z" /> 
<path style="fill:#000000; fill-opacity:1.0000; stroke:none;fill-rule:evenodd;"
d="M 133.3845,57.8975
133.4754,57.9156
133.5524,57.9671
133.6039,58.0441
133.6220,58.1350
133.6220,58.7350
133.6039,58.8259
133.5524,58.9029
133.4754,58.9544
133.3845,58.9725
132.9095,58.9725
132.8186,58.9544
132.7416,58.9029
132.6901,58.8259
132.6720,58.7350
132.6720,58.1350
132.6901,58.0441
132.7416,57.9671
132.8186,57.9156
132.9095,57.8975
Z" /> 
<path style="fill:#000000; fill-opacity:1.0000; stroke:none;fill-rule:evenodd;"
d="M 133.3845,59.6225
133.4754,59.6406
133.5524,59.6921
133.6039,59.7691
133.6220,59.8600
133.6220,60.4600
133.6039,60.5509
133.5524,60.6279
133.4754,60.6794
133.3845,60.6975
132.9095,60.6975
132.8186,60.6794
132.7416,60.6279
132.6901,60.5509
132.6720,60.4600
132.6720,59.8600
132.6901,59.7691
132.7416,59.6921
132.8186,59.6406
132.9095,59.6225
Z" /> 
<path style="fill:#000000; fill-opacity:1.0000; stroke:none;fill-rule:evenodd;"
d="M 147.0480,65.6810
146.9523,65.6620
146.8712,65.6078
146.8170,65.5267
146.7980,65.4310
146.7980,64.7310
146.8170,64.6353
146.8712,64.5542
146.9523,64.5000
147.0480,64.4810
147.9480,64.4810
148.0437,64.5000
148.1248,64.5542
148.1790,64.6353
148.1980,64.7310
148.1980,65.4310
148.1790,65.5267
148.1248,65.6078
148.0437,65.6620
147.9480,65.6810
Z" /> 
<path style="fill:#000000; fill-opacity:1.0000; stroke:none;fill-rule:evenodd;"
d="M 147.0480,63.6810
146.9523,63.6620
146.8712,63.6078
146.8170,63.5267
146.7980,63.4310
146.7980,62.7310
146.8170,62.6353
146.8712,62.5542
146.9523,62.5000
147.0480,62.4810
147.9480,62.4810
148.0437,62.5000
148.1248,62.5542
148.1790,62.6353
148.1980,62.7310
148.1980,63.4310
148.1790,63.5267
148.1248,63.6078
148.0437,63.6620
147.9480,63.6810
Z" /> 
<path style="fill:#000000; fill-opacity:1.0000; stroke:none;fill-rule:evenodd;"
d="M 127.2330,67.4100
127.2330,68.2600
124.5830,68.2600
124.5830,67.4100
Z" /> 
<path style="fill:#000000; fill-opacity:1.0000; stroke:none;fill-rule:evenodd;"
d="M 131.5830,67.4100
131.5830,68.2600
128.0330,68.2600
128.0330,67.4100
Z" /> 
<path style="fill:#000000; fill-opacity:1.0000; stroke:none;fill-rule:evenodd;"
d="M 127.2330,65.9100
127.2330,66.7600
124.5830,66.7600
124.5830,65.9100
Z" /> 
<path style="fill:#000000; fill-opacity:1.0000; stroke:none;fill-rule:evenodd;"
d="M 131.5830,65.9100
131.5830,66.7600
128.0330,66.7600
128.0330,65.9100
Z" /> 
<path style="fill:#000000; fill-opacity:1.0000; stroke:none;fill-rule:evenodd;"
d="M 127.2330,64.4100
127.2330,65.2600
124.5830,65.2600
124.5830,64.4100
Z" /> 
<path style="fill:#000000; fill-opacity:1.0000; stroke:none;fill-rule:evenodd;"
d="M 131.5830,64.4100
131.5830,65.2600
128.0330,65.2600
128.0330,64.4100
Z" /> 
<path style="fill:#000000; fill-opacity:1.0000; stroke:none;fill-rule:evenodd;"
d="M 127.2330,62.9100
127.2330,63.7600
124.5830,63.7600
124.5830,62.9100
Z" /> 
<path style="fill:#000000; fill-opacity:1.0000; stroke:none;fill-rule:evenodd;"
d="M 131.5830,62.9100
131.5830,63.7600
128.0330,63.7600
128.0330,62.9100
Z" /> 
<path style="fill:#000000; fill-opacity:1.0000; stroke:none;fill-rule:evenodd;"
d="M 127.2330,61.4100
127.2330,62.2600
124.5830,62.2600
124.5830,61.4100
Z" /> 
<path style="fill:#000000; fill-opacity:1.0000; stroke:none;fill-rule:evenodd;"
d="M 131.5830,61.4100
131.5830,62.2600
128.0330,62.2600
128.0330,61.4100
Z" /> 
<path style="fill:#000000; fill-opacity:1.0000; stroke:none;fill-rule:evenodd;"
d="M 137.7000,55.5375
137.6819,55.6284
137.6304,55.7054
137.5534,55.7569
137.4625,55.7750
136.8875,55.7750
136.7966,55.7569
136.7196,55.7054
136.6681,55.6284
136.6500,55.5375
136.6500,55.0625
136.6681,54.9716
136.7196,54.8946
136.7966,54.8431
136.8875,54.8250
137.4625,54.8250
137.5534,54.8431
137.6304,54.8946
137.6819,54.9716
137.7000,55.0625
Z" /> 
<path style="fill:#000000; fill-opacity:1.0000; stroke:none;fill-rule:evenodd;"
d="M 135.9500,55.5375
135.9319,55.6284
135.8804,55.7054
135.8034,55.7569
135.7125,55.7750
135.1375,55.7750
135.0466,55.7569
134.9696,55.7054
134.9181,55.6284
134.9000,55.5375
134.9000,55.0625
134.9181,54.9716
134.9696,54.8946
135.0466,54.8431
135.1375,54.8250
135.7125,54.8250
135.8034,54.8431
135.8804,54.8946
135.9319,54.9716
135.9500,55.0625
Z" /> 
<path style="fill:#000000; fill-opacity:1.0000; stroke:none;fill-rule:evenodd;"
d="M 143.7460,59.9180
143.6503,59.8990
143.5692,59.8448
143.5150,59.7637
143.4960,59.6680
143.4960,58.9680
143.5150,58.8723
143.5692,58.7912
143.6503,58.7370
143.7460,58.7180
144.6460,58.7180
144.7417,58.7370
144.8228,58.7912
144.8770,58.8723
144.8960,58.9680
144.8960,59.6680
144.8770,59.7637
144.8228,59.8448
144.7417,59.8990
144.6460,59.9180
Z" /> 
<path style="fill:#000000; fill-opacity:1.0000; stroke:none;fill-rule:evenodd;"
d="M 143.7460,57.9180
143.6503,57.8990
143.5692,57.8448
143.5150,57.7637
143.4960,57.6680
143.4960,56.9680
143.5150,56.8723
143.5692,56.7912
143.6503,56.7370
143.7460,56.7180
144.6460,56.7180
144.7417,56.7370
144.8228,56.7912
144.8770,56.8723
144.8960,56.9680
144.8960,57.6680
144.8770,57.7637
144.8228,57.8448
144.7417,57.8990
144.6460,57.9180
Z" /> 
<path style="fill:#000000; fill-opacity:1.0000; stroke:none;fill-rule:evenodd;"
d="M 156.6875,75.3750
156.6685,75.4707
156.6143,75.5518
156.5332,75.6060
156.4375,75.6250
155.7625,75.6250
155.6668,75.6060
155.5857,75.5518
155.5315,75.4707
155.5125,75.3750
155.5125,74.4250
155.5315,74.3293
155.5857,74.2482
155.6668,74.1940
155.7625,74.1750
156.4375,74.1750
156.5332,74.1940
156.6143,74.2482
156.6685,74.3293
156.6875,74.4250
Z" /> 
<path style="fill:#000000; fill-opacity:1.0000; stroke:none;fill-rule:evenodd;"
d="M 154.6125,75.3750
154.5935,75.4707
154.5393,75.5518
154.4582,75.6060
154.3625,75.6250
153.6875,75.6250
153.5918,75.6060
153.5107,75.5518
153.4565,75.4707
153.4375,75.3750
153.4375,74.4250
153.4565,74.3293
153.5107,74.2482
153.5918,74.1940
153.6875,74.1750
154.3625,74.1750
154.4582,74.1940
154.5393,74.2482
154.5935,74.3293
154.6125,74.4250
Z" /> 
<path style="fill:#000000; fill-opacity:1.0000; stroke:none;fill-rule:evenodd;"
d="M 125.4235,71.0985
125.4416,71.0076
125.4931,70.9306
125.5701,70.8791
125.6610,70.8610
126.2610,70.8610
126.3519,70.8791
126.4289,70.9306
126.4804,71.0076
126.4985,71.0985
126.4985,71.5735
126.4804,71.6644
126.4289,71.7414
126.3519,71.7929
126.2610,71.8110
125.6610,71.8110
125.5701,71.7929
125.4931,71.7414
125.4416,71.6644
125.4235,71.5735
Z" /> 
<path style="fill:#000000; fill-opacity:1.0000; stroke:none;fill-rule:evenodd;"
d="M 127.1485,71.0985
127.1666,71.0076
127.2181,70.9306
127.2951,70.8791
127.3860,70.8610
127.9860,70.8610
128.0769,70.8791
128.1539,70.9306
128.2054,71.0076
128.2235,71.0985
128.2235,71.5735
128.2054,71.6644
128.1539,71.7414
128.0769,71.7929
127.9860,71.8110
127.3860,71.8110
127.2951,71.7929
127.2181,71.7414
127.1666,71.6644
127.1485,71.5735
Z" /> 
<path style="fill:#000000; fill-opacity:1.0000; stroke:none;fill-rule:evenodd;"
d="M 118.7490,77.3465
118.7328,77.4278
118.6868,77.4968
118.6178,77.5428
118.5365,77.5590
118.1115,77.5590
118.0302,77.5428
117.9612,77.4968
117.9152,77.4278
117.8990,77.3465
117.8990,74.2215
117.9152,74.1402
117.9612,74.0712
118.0302,74.0252
118.1115,74.0090
118.5365,74.0090
118.6178,74.0252
118.6868,74.0712
118.7328,74.1402
118.7490,74.2215
Z" /> 
<path style="fill:#000000; fill-opacity:1.0000; stroke:none;fill-rule:evenodd;"
d="M 118.7490,72.9965
118.7328,73.0778
118.6868,73.1468
118.6178,73.1928
118.5365,73.2090
118.1115,73.2090
118.0302,73.1928
117.9612,73.1468
117.9152,73.0778
117.8990,72.9965
117.8990,70.7715
117.9152,70.6902
117.9612,70.6212
118.0302,70.5752
118.1115,70.5590
118.5365,70.5590
118.6178,70.5752
118.6868,70.6212
118.7328,70.6902
118.7490,70.7715
Z" /> 
<path style="fill:#000000; fill-opacity:1.0000; stroke:none;fill-rule:evenodd;"
d="M 120.2490,77.3465
120.2328,77.4278
120.1868,77.4968
120.1178,77.5428
120.0365,77.5590
119.6115,77.5590
119.5302,77.5428
119.4612,77.4968
119.4152,77.4278
119.3990,77.3465
119.3990,74.2215
119.4152,74.1402
119.4612,74.0712
119.5302,74.0252
119.6115,74.0090
120.0365,74.0090
120.1178,74.0252
120.1868,74.0712
120.2328,74.1402
120.2490,74.2215
Z" /> 
<path style="fill:#000000; fill-opacity:1.0000; stroke:none;fill-rule:evenodd;"
d="M 120.2490,72.9965
120.2328,73.0778
120.1868,73.1468
120.1178,73.1928
120.0365,73.2090
119.6115,73.2090
119.5302,73.1928
119.4612,73.1468
119.4152,73.0778
119.3990,72.9965
119.3990,70.7715
119.4152,70.6902
119.4612,70.6212
119.5302,70.5752
119.6115,70.5590
120.0365,70.5590
120.1178,70.5752
120.1868,70.6212
120.2328,70.6902
120.2490,70.7715
Z" /> 
<path style="fill:#000000; fill-opacity:1.0000; stroke:none;fill-rule:evenodd;"
d="M 121.7490,77.3465
121.7328,77.4278
121.6868,77.4968
121.6178,77.5428
121.5365,77.5590
121.1115,77.5590
121.0302,77.5428
120.9612,77.4968
120.9152,77.4278
120.8990,77.3465
120.8990,74.2215
120.9152,74.1402
120.9612,74.0712
121.0302,74.0252
121.1115,74.0090
121.5365,74.0090
121.6178,74.0252
121.6868,74.0712
121.7328,74.1402
121.7490,74.2215
Z" /> 
<path style="fill:#000000; fill-opacity:1.0000; stroke:none;fill-rule:evenodd;"
d="M 121.7490,72.9965
121.7328,73.0778
121.6868,73.1468
121.6178,73.1928
121.5365,73.2090
121.1115,73.2090
121.0302,73.1928
120.9612,73.1468
120.9152,73.0778
120.8990,72.9965
120.8990,70.7715
120.9152,70.6902
120.9612,70.6212
121.0302,70.5752
121.1115,70.5590
121.5365,70.5590
121.6178,70.5752
121.6868,70.6212
121.7328,70.6902
121.7490,70.7715
Z" /> 
<path style="fill:#000000; fill-opacity:1.0000; stroke:none;fill-rule:evenodd;"
d="M 123.2490,77.3465
123.2328,77.4278
123.1868,77.4968
123.1178,77.5428
123.0365,77.5590
122.6115,77.5590
122.5302,77.5428
122.4612,77.4968
122.4152,77.4278
122.3990,77.3465
122.3990,74.2215
122.4152,74.1402
122.4612,74.0712
122.5302,74.0252
122.6115,74.0090
123.0365,74.0090
123.1178,74.0252
123.1868,74.0712
123.2328,74.1402
123.2490,74.2215
Z" /> 
<path style="fill:#000000; fill-opacity:1.0000; stroke:none;fill-rule:evenodd;"
d="M 123.2490,72.9965
123.2328,73.0778
123.1868,73.1468
123.1178,73.1928
123.0365,73.2090
122.6115,73.2090
122.5302,73.1928
122.4612,73.1468
122.4152,73.0778
122.3990,72.9965
122.3990,70.7715
122.4152,70.6902
122.4612,70.6212
122.5302,70.5752
122.6115,70.5590
123.0365,70.5590
123.1178,70.5752
123.1868,70.6212
123.2328,70.6902
123.2490,70.7715
Z" /> 
<path style="fill:#000000; fill-opacity:1.0000; stroke:none;fill-rule:evenodd;"
d="M 154.3000,63.8500
154.3190,63.7543
154.3732,63.6732
154.4543,63.6190
154.5500,63.6000
155.2500,63.6000
155.3457,63.6190
155.4268,63.6732
155.4810,63.7543
155.5000,63.8500
155.5000,64.7500
155.4810,64.8457
155.4268,64.9268
155.3457,64.9810
155.2500,65.0000
154.5500,65.0000
154.4543,64.9810
154.3732,64.9268
154.3190,64.8457
154.3000,64.7500
Z" /> 
<path style="fill:#000000; fill-opacity:1.0000; stroke:none;fill-rule:evenodd;"
d="M 156.3000,63.8500
156.3190,63.7543
156.3732,63.6732
156.4543,63.6190
156.5500,63.6000
157.2500,63.6000
157.3457,63.6190
157.4268,63.6732
157.4810,63.7543
157.5000,63.8500
157.5000,64.7500
157.4810,64.8457
157.4268,64.9268
157.3457,64.9810
157.2500,65.0000
156.5500,65.0000
156.4543,64.9810
156.3732,64.9268
156.3190,64.8457
156.3000,64.7500
Z" /> 
<path style="fill:none; 
stroke:#000000; stroke-width:0.0500; stroke-opacity:1; 
stroke-linecap:round; stroke-linejoin:round;fill:none"
d="M 100.0000,50.0000
163.0000,50.0000
163.0000,79.0000
100.0000,79.0000
Z" /> 
</g> 
</svg>
