%TF.GenerationSoftware,KiCad,Pcbnew,8.0.6*%
%TF.CreationDate,2025-03-30T17:41:47+02:00*%
%TF.ProjectId,vmc,766d632e-6b69-4636-9164-5f7063625858,rev?*%
%TF.SameCoordinates,Original*%
%TF.FileFunction,Soldermask,Top*%
%TF.FilePolarity,Negative*%
%FSLAX46Y46*%
G04 Gerber Fmt 4.6, Leading zero omitted, Abs format (unit mm)*
G04 Created by KiCad (PCBNEW 8.0.6) date 2025-03-30 17:41:47*
%MOMM*%
%LPD*%
G01*
G04 APERTURE LIST*
G04 Aperture macros list*
%AMRoundRect*
0 Rectangle with rounded corners*
0 $1 Rounding radius*
0 $2 $3 $4 $5 $6 $7 $8 $9 X,Y pos of 4 corners*
0 Add a 4 corners polygon primitive as box body*
4,1,4,$2,$3,$4,$5,$6,$7,$8,$9,$2,$3,0*
0 Add four circle primitives for the rounded corners*
1,1,$1+$1,$2,$3*
1,1,$1+$1,$4,$5*
1,1,$1+$1,$6,$7*
1,1,$1+$1,$8,$9*
0 Add four rect primitives between the rounded corners*
20,1,$1+$1,$2,$3,$4,$5,0*
20,1,$1+$1,$4,$5,$6,$7,0*
20,1,$1+$1,$6,$7,$8,$9,0*
20,1,$1+$1,$8,$9,$2,$3,0*%
%AMFreePoly0*
4,1,6,0.500000,-0.850000,-0.500000,-0.850000,-0.500000,0.550000,-0.200000,0.850000,0.500000,0.850000,0.500000,-0.850000,0.500000,-0.850000,$1*%
G04 Aperture macros list end*
%ADD10RoundRect,0.250000X-0.450000X0.350000X-0.450000X-0.350000X0.450000X-0.350000X0.450000X0.350000X0*%
%ADD11RoundRect,0.250000X0.450000X-0.350000X0.450000X0.350000X-0.450000X0.350000X-0.450000X-0.350000X0*%
%ADD12R,0.550000X0.250000*%
%ADD13FreePoly0,180.000000*%
%ADD14RoundRect,0.150000X-0.150000X0.825000X-0.150000X-0.825000X0.150000X-0.825000X0.150000X0.825000X0*%
%ADD15RoundRect,0.237500X-0.237500X0.300000X-0.237500X-0.300000X0.237500X-0.300000X0.237500X0.300000X0*%
%ADD16RoundRect,0.150000X0.150000X-0.587500X0.150000X0.587500X-0.150000X0.587500X-0.150000X-0.587500X0*%
%ADD17RoundRect,0.250000X0.350000X0.450000X-0.350000X0.450000X-0.350000X-0.450000X0.350000X-0.450000X0*%
%ADD18RoundRect,0.212500X0.212500X1.562500X-0.212500X1.562500X-0.212500X-1.562500X0.212500X-1.562500X0*%
%ADD19RoundRect,0.212500X0.212500X1.112500X-0.212500X1.112500X-0.212500X-1.112500X0.212500X-1.112500X0*%
%ADD20RoundRect,0.150000X0.150000X-0.825000X0.150000X0.825000X-0.150000X0.825000X-0.150000X-0.825000X0*%
%ADD21RoundRect,0.250000X-1.500000X-0.900000X1.500000X-0.900000X1.500000X0.900000X-1.500000X0.900000X0*%
%ADD22RoundRect,0.237500X0.237500X-0.300000X0.237500X0.300000X-0.237500X0.300000X-0.237500X-0.300000X0*%
%ADD23C,1.500000*%
%ADD24R,2.650000X0.850000*%
%ADD25R,3.550000X0.850000*%
%ADD26RoundRect,0.237500X0.287500X0.237500X-0.287500X0.237500X-0.287500X-0.237500X0.287500X-0.237500X0*%
%ADD27RoundRect,0.250000X0.337500X0.475000X-0.337500X0.475000X-0.337500X-0.475000X0.337500X-0.475000X0*%
%ADD28RoundRect,0.237500X-0.300000X-0.237500X0.300000X-0.237500X0.300000X0.237500X-0.300000X0.237500X0*%
%ADD29RoundRect,0.250000X-0.350000X-0.450000X0.350000X-0.450000X0.350000X0.450000X-0.350000X0.450000X0*%
G04 APERTURE END LIST*
D10*
%TO.C,R7*%
X150449000Y-57300000D03*
X150449000Y-59300000D03*
%TD*%
D11*
%TO.C,R4*%
X127100000Y-58300000D03*
X127100000Y-56300000D03*
%TD*%
D12*
%TO.C,U1*%
X137529000Y-60414000D03*
X137529000Y-59914000D03*
X137529000Y-59414000D03*
X137529000Y-58914000D03*
X135179000Y-58914000D03*
X135179000Y-59414000D03*
X135179000Y-59914000D03*
X135179000Y-60414000D03*
D13*
X136354000Y-59664000D03*
%TD*%
D11*
%TO.C,R2*%
X141529000Y-59318000D03*
X141529000Y-57318000D03*
%TD*%
%TO.C,R5*%
X129800000Y-58300000D03*
X129800000Y-56300000D03*
%TD*%
D14*
%TO.C,U4*%
X157169500Y-66868250D03*
X155899500Y-66868250D03*
X154629500Y-66868250D03*
X153359500Y-66868250D03*
X153359500Y-71818250D03*
X154629500Y-71818250D03*
X155899500Y-71818250D03*
X157169500Y-71818250D03*
%TD*%
D15*
%TO.C,C7*%
X151500000Y-72937500D03*
X151500000Y-74662500D03*
%TD*%
D10*
%TO.C,R14*%
X138300000Y-72700000D03*
X138300000Y-74700000D03*
%TD*%
D16*
%TO.C,Q1*%
X153000000Y-59236000D03*
X154900000Y-59236000D03*
X153950000Y-57361000D03*
%TD*%
D10*
%TO.C,R6*%
X133782000Y-63341600D03*
X133782000Y-65341600D03*
%TD*%
D17*
%TO.C,R1*%
X131718000Y-71463000D03*
X129718000Y-71463000D03*
%TD*%
D18*
%TO.C,J3*%
X110577000Y-75784000D03*
D19*
X110577000Y-71884000D03*
D18*
X112077000Y-75784000D03*
D19*
X112077000Y-71884000D03*
D18*
X113577000Y-75784000D03*
D19*
X113577000Y-71884000D03*
D18*
X115077000Y-75784000D03*
D19*
X115077000Y-71884000D03*
%TD*%
D15*
%TO.C,C3*%
X134417000Y-71743500D03*
X134417000Y-73468500D03*
%TD*%
D20*
%TO.C,U2*%
X136068000Y-70178250D03*
X137338000Y-70178250D03*
X138608000Y-70178250D03*
X139878000Y-70178250D03*
X141148000Y-70178250D03*
X142418000Y-70178250D03*
X143688000Y-70178250D03*
X143688000Y-65228250D03*
X142418000Y-65228250D03*
X141148000Y-65228250D03*
X139878000Y-65228250D03*
X138608000Y-65228250D03*
X137338000Y-65228250D03*
X136068000Y-65228250D03*
%TD*%
D21*
%TO.C,D2*%
X110635000Y-66129000D03*
X116035000Y-66129000D03*
%TD*%
D22*
%TO.C,C4*%
X125900000Y-77262500D03*
X125900000Y-75537500D03*
%TD*%
D15*
%TO.C,C1*%
X133147000Y-58435000D03*
X133147000Y-60160000D03*
%TD*%
D11*
%TO.C,R8*%
X147498000Y-65081000D03*
X147498000Y-63081000D03*
%TD*%
D23*
%TO.C,TP1*%
X111938000Y-58255000D03*
%TD*%
D24*
%TO.C,J1*%
X125908000Y-67835000D03*
D25*
X129808000Y-67835000D03*
D24*
X125908000Y-66335000D03*
D25*
X129808000Y-66335000D03*
D24*
X125908000Y-64835000D03*
D25*
X129808000Y-64835000D03*
D24*
X125908000Y-63335000D03*
D25*
X129808000Y-63335000D03*
D24*
X125908000Y-61835000D03*
D25*
X129808000Y-61835000D03*
%TD*%
D26*
%TO.C,D1*%
X137175000Y-55300000D03*
X135425000Y-55300000D03*
%TD*%
D11*
%TO.C,R3*%
X144196000Y-59318000D03*
X144196000Y-57318000D03*
%TD*%
D27*
%TO.C,C6*%
X156100000Y-74900000D03*
X154025000Y-74900000D03*
%TD*%
D28*
%TO.C,C2*%
X125961000Y-71336000D03*
X127686000Y-71336000D03*
%TD*%
D18*
%TO.C,J2*%
X118324000Y-75784000D03*
D19*
X118324000Y-71884000D03*
D18*
X119824000Y-75784000D03*
D19*
X119824000Y-71884000D03*
D18*
X121324000Y-75784000D03*
D19*
X121324000Y-71884000D03*
D18*
X122824000Y-75784000D03*
D19*
X122824000Y-71884000D03*
%TD*%
D29*
%TO.C,R13*%
X154900000Y-64300000D03*
X156900000Y-64300000D03*
%TD*%
M02*
