<?xml version="1.0" standalone="no"?>
 <!DOCTYPE svg PUBLIC "-//W3C//DTD SVG 1.1//EN" 
 "http://www.w3.org/Graphics/SVG/1.1/DTD/svg11.dtd"> 
<svg
  xmlns:svg="http://www.w3.org/2000/svg"
  xmlns="http://www.w3.org/2000/svg"
  xmlns:xlink="http://www.w3.org/1999/xlink"
  version="1.1"
  width="297.0022mm" height="210.0072mm" viewBox="0.0000 0.0000 297.0022 210.0072">
<title>SVG Image created as vmc-B_Paste.svg date 2025/03/30 17:43:51 </title>
  <desc>Image generated by PCBNEW </desc>
<g style="fill:#000000; fill-opacity:1.0000;stroke:#000000; stroke-opacity:1.0000;
stroke-linecap:round; stroke-linejoin:round;"
 transform="translate(0 0) scale(1 1)">
<path style="fill:#000000; fill-opacity:1.0000; stroke:none;fill-rule:evenodd;"
d="M 113.0120,62.1455
112.9930,62.2412
112.9388,62.3223
112.8577,62.3765
112.7620,62.3955
111.0620,62.3955
110.9663,62.3765
110.8852,62.3223
110.8310,62.2412
110.8120,62.1455
110.8120,61.4455
110.8310,61.3498
110.8852,61.2687
110.9663,61.2145
111.0620,61.1955
112.7620,61.1955
112.8577,61.2145
112.9388,61.2687
112.9930,61.3498
113.0120,61.4455
Z" /> 
<path style="fill:#000000; fill-opacity:1.0000; stroke:none;fill-rule:evenodd;"
d="M 113.0120,64.4255
112.9930,64.5212
112.9388,64.6023
112.8577,64.6565
112.7620,64.6755
111.0620,64.6755
110.9663,64.6565
110.8852,64.6023
110.8310,64.5212
110.8120,64.4255
110.8120,63.7255
110.8310,63.6298
110.8852,63.5487
110.9663,63.4945
111.0620,63.4755
112.7620,63.4755
112.8577,63.4945
112.9388,63.5487
112.9930,63.6298
113.0120,63.7255
Z" /> 
<path style="fill:#000000; fill-opacity:1.0000; stroke:none;fill-rule:evenodd;"
d="M 108.8120,66.7255
108.7930,66.8212
108.7388,66.9023
108.6577,66.9565
108.5620,66.9755
106.0120,66.9755
105.9163,66.9565
105.8352,66.9023
105.7810,66.8212
105.7620,66.7255
105.7620,64.4755
105.7810,64.3798
105.8352,64.2987
105.9163,64.2445
106.0120,64.2255
108.5620,64.2255
108.6577,64.2445
108.7388,64.2987
108.7930,64.3798
108.8120,64.4755
Z" /> 
<path style="fill:#000000; fill-opacity:1.0000; stroke:none;fill-rule:evenodd;"
d="M 108.8120,63.6755
108.7930,63.7712
108.7388,63.8523
108.6577,63.9065
108.5620,63.9255
106.0120,63.9255
105.9163,63.9065
105.8352,63.8523
105.7810,63.7712
105.7620,63.6755
105.7620,61.4255
105.7810,61.3298
105.8352,61.2487
105.9163,61.1945
106.0120,61.1755
108.5620,61.1755
108.6577,61.1945
108.7388,61.2487
108.7930,61.3298
108.8120,61.4255
Z" /> 
<path style="fill:#000000; fill-opacity:1.0000; stroke:none;fill-rule:evenodd;"
d="M 105.4620,66.7255
105.4430,66.8212
105.3888,66.9023
105.3077,66.9565
105.2120,66.9755
102.6620,66.9755
102.5663,66.9565
102.4852,66.9023
102.4310,66.8212
102.4120,66.7255
102.4120,64.4755
102.4310,64.3798
102.4852,64.2987
102.5663,64.2445
102.6620,64.2255
105.2120,64.2255
105.3077,64.2445
105.3888,64.2987
105.4430,64.3798
105.4620,64.4755
Z" /> 
<path style="fill:#000000; fill-opacity:1.0000; stroke:none;fill-rule:evenodd;"
d="M 105.4620,63.6755
105.4430,63.7712
105.3888,63.8523
105.3077,63.9065
105.2120,63.9255
102.6620,63.9255
102.5663,63.9065
102.4852,63.8523
102.4310,63.7712
102.4120,63.6755
102.4120,61.4255
102.4310,61.3298
102.4852,61.2487
102.5663,61.1945
102.6620,61.1755
105.2120,61.1755
105.3077,61.1945
105.3888,61.2487
105.4430,61.3298
105.4620,61.4255
Z" /> 
<path style="fill:#000000; fill-opacity:1.0000; stroke:none;fill-rule:evenodd;"
d="M 113.0120,66.7055
112.9930,66.8012
112.9388,66.8823
112.8577,66.9365
112.7620,66.9555
111.0620,66.9555
110.9663,66.9365
110.8852,66.8823
110.8310,66.8012
110.8120,66.7055
110.8120,66.0055
110.8310,65.9098
110.8852,65.8287
110.9663,65.7745
111.0620,65.7555
112.7620,65.7555
112.8577,65.7745
112.9388,65.8287
112.9930,65.9098
113.0120,66.0055
Z" /> 
<path style="fill:#000000; fill-opacity:1.0000; stroke:none;fill-rule:evenodd;"
d="M 127.8365,62.2085
127.8546,62.1176
127.9061,62.0406
127.9831,61.9891
128.0740,61.9710
128.6740,61.9710
128.7649,61.9891
128.8419,62.0406
128.8934,62.1176
128.9115,62.2085
128.9115,62.6835
128.8934,62.7744
128.8419,62.8514
128.7649,62.9029
128.6740,62.9210
128.0740,62.9210
127.9831,62.9029
127.9061,62.8514
127.8546,62.7744
127.8365,62.6835
Z" /> 
<path style="fill:#000000; fill-opacity:1.0000; stroke:none;fill-rule:evenodd;"
d="M 129.5615,62.2085
129.5796,62.1176
129.6311,62.0406
129.7081,61.9891
129.7990,61.9710
130.3990,61.9710
130.4899,61.9891
130.5669,62.0406
130.6184,62.1176
130.6365,62.2085
130.6365,62.6835
130.6184,62.7744
130.5669,62.8514
130.4899,62.9029
130.3990,62.9210
129.7990,62.9210
129.7081,62.9029
129.6311,62.8514
129.5796,62.7744
129.5615,62.6835
Z" /> 
<path style="fill:#000000; fill-opacity:1.0000; stroke:none;fill-rule:evenodd;"
d="M 127.9630,65.0420
127.9752,64.9808
128.0099,64.9289
128.0618,64.8942
128.1230,64.8820
128.4430,64.8820
128.5042,64.8942
128.5561,64.9289
128.5908,64.9808
128.6030,65.0420
128.6030,65.7320
128.5908,65.7932
128.5561,65.8451
128.5042,65.8798
128.4430,65.8920
128.1230,65.8920
128.0618,65.8798
128.0099,65.8451
127.9752,65.7932
127.9630,65.7320
Z" /> 
<path style="fill:#000000; fill-opacity:1.0000; stroke:none;fill-rule:evenodd;"
d="M 127.9630,66.2920
127.9752,66.2308
128.0099,66.1789
128.0618,66.1442
128.1230,66.1320
128.4430,66.1320
128.5042,66.1442
128.5561,66.1789
128.5908,66.2308
128.6030,66.2920
128.6030,66.9820
128.5908,67.0432
128.5561,67.0951
128.5042,67.1298
128.4430,67.1420
128.1230,67.1420
128.0618,67.1298
128.0099,67.0951
127.9752,67.0432
127.9630,66.9820
Z" /> 
<path style="fill:#000000; fill-opacity:1.0000; stroke:none;fill-rule:evenodd;"
d="M 128.7630,65.0420
128.7752,64.9808
128.8099,64.9289
128.8618,64.8942
128.9230,64.8820
129.2430,64.8820
129.3042,64.8942
129.3561,64.9289
129.3908,64.9808
129.4030,65.0420
129.4030,65.7320
129.3908,65.7932
129.3561,65.8451
129.3042,65.8798
129.2430,65.8920
128.9230,65.8920
128.8618,65.8798
128.8099,65.8451
128.7752,65.7932
128.7630,65.7320
Z" /> 
<path style="fill:#000000; fill-opacity:1.0000; stroke:none;fill-rule:evenodd;"
d="M 128.7630,66.2920
128.7752,66.2308
128.8099,66.1789
128.8618,66.1442
128.9230,66.1320
129.2430,66.1320
129.3042,66.1442
129.3561,66.1789
129.3908,66.2308
129.4030,66.2920
129.4030,66.9820
129.3908,67.0432
129.3561,67.0951
129.3042,67.1298
129.2430,67.1420
128.9230,67.1420
128.8618,67.1298
128.8099,67.0951
128.7752,67.0432
128.7630,66.9820
Z" /> 
<path style="fill:#000000; fill-opacity:1.0000; stroke:none;fill-rule:evenodd;"
d="M 126.8830,67.1870
126.8887,67.1583
126.9050,67.1340
126.9293,67.1177
126.9580,67.1120
127.4580,67.1120
127.4867,67.1177
127.5110,67.1340
127.5273,67.1583
127.5330,67.1870
127.5330,67.3370
127.5273,67.3657
127.5110,67.3900
127.4867,67.4063
127.4580,67.4120
126.9580,67.4120
126.9293,67.4063
126.9050,67.3900
126.8887,67.3657
126.8830,67.3370
Z" /> 
<path style="fill:#000000; fill-opacity:1.0000; stroke:none;fill-rule:evenodd;"
d="M 126.8830,66.6870
126.8887,66.6583
126.9050,66.6340
126.9293,66.6177
126.9580,66.6120
127.4580,66.6120
127.4867,66.6177
127.5110,66.6340
127.5273,66.6583
127.5330,66.6870
127.5330,66.8370
127.5273,66.8657
127.5110,66.8900
127.4867,66.9063
127.4580,66.9120
126.9580,66.9120
126.9293,66.9063
126.9050,66.8900
126.8887,66.8657
126.8830,66.8370
Z" /> 
<path style="fill:#000000; fill-opacity:1.0000; stroke:none;fill-rule:evenodd;"
d="M 126.8830,66.1870
126.8887,66.1583
126.9050,66.1340
126.9293,66.1177
126.9580,66.1120
127.4580,66.1120
127.4867,66.1177
127.5110,66.1340
127.5273,66.1583
127.5330,66.1870
127.5330,66.3370
127.5273,66.3657
127.5110,66.3900
127.4867,66.4063
127.4580,66.4120
126.9580,66.4120
126.9293,66.4063
126.9050,66.3900
126.8887,66.3657
126.8830,66.3370
Z" /> 
<path style="fill:#000000; fill-opacity:1.0000; stroke:none;fill-rule:evenodd;"
d="M 126.8830,65.6870
126.8887,65.6583
126.9050,65.6340
126.9293,65.6177
126.9580,65.6120
127.4580,65.6120
127.4867,65.6177
127.5110,65.6340
127.5273,65.6583
127.5330,65.6870
127.5330,65.8370
127.5273,65.8657
127.5110,65.8900
127.4867,65.9063
127.4580,65.9120
126.9580,65.9120
126.9293,65.9063
126.9050,65.8900
126.8887,65.8657
126.8830,65.8370
Z" /> 
<path style="fill:#000000; fill-opacity:1.0000; stroke:none;fill-rule:evenodd;"
d="M 126.8830,65.1870
126.8887,65.1583
126.9050,65.1340
126.9293,65.1177
126.9580,65.1120
127.4580,65.1120
127.4867,65.1177
127.5110,65.1340
127.5273,65.1583
127.5330,65.1870
127.5330,65.3370
127.5273,65.3657
127.5110,65.3900
127.4867,65.4063
127.4580,65.4120
126.9580,65.4120
126.9293,65.4063
126.9050,65.3900
126.8887,65.3657
126.8830,65.3370
Z" /> 
<path style="fill:#000000; fill-opacity:1.0000; stroke:none;fill-rule:evenodd;"
d="M 126.8830,64.6870
126.8887,64.6583
126.9050,64.6340
126.9293,64.6177
126.9580,64.6120
127.4580,64.6120
127.4867,64.6177
127.5110,64.6340
127.5273,64.6583
127.5330,64.6870
127.5330,64.8370
127.5273,64.8657
127.5110,64.8900
127.4867,64.9063
127.4580,64.9120
126.9580,64.9120
126.9293,64.9063
126.9050,64.8900
126.8887,64.8657
126.8830,64.8370
Z" /> 
<path style="fill:#000000; fill-opacity:1.0000; stroke:none;fill-rule:evenodd;"
d="M 129.8330,64.6870
129.8387,64.6583
129.8550,64.6340
129.8793,64.6177
129.9080,64.6120
130.4080,64.6120
130.4367,64.6177
130.4610,64.6340
130.4773,64.6583
130.4830,64.6870
130.4830,64.8370
130.4773,64.8657
130.4610,64.8900
130.4367,64.9063
130.4080,64.9120
129.9080,64.9120
129.8793,64.9063
129.8550,64.8900
129.8387,64.8657
129.8330,64.8370
Z" /> 
<path style="fill:#000000; fill-opacity:1.0000; stroke:none;fill-rule:evenodd;"
d="M 129.8330,65.1870
129.8387,65.1583
129.8550,65.1340
129.8793,65.1177
129.9080,65.1120
130.4080,65.1120
130.4367,65.1177
130.4610,65.1340
130.4773,65.1583
130.4830,65.1870
130.4830,65.3370
130.4773,65.3657
130.4610,65.3900
130.4367,65.4063
130.4080,65.4120
129.9080,65.4120
129.8793,65.4063
129.8550,65.3900
129.8387,65.3657
129.8330,65.3370
Z" /> 
<path style="fill:#000000; fill-opacity:1.0000; stroke:none;fill-rule:evenodd;"
d="M 129.8330,65.6870
129.8387,65.6583
129.8550,65.6340
129.8793,65.6177
129.9080,65.6120
130.4080,65.6120
130.4367,65.6177
130.4610,65.6340
130.4773,65.6583
130.4830,65.6870
130.4830,65.8370
130.4773,65.8657
130.4610,65.8900
130.4367,65.9063
130.4080,65.9120
129.9080,65.9120
129.8793,65.9063
129.8550,65.8900
129.8387,65.8657
129.8330,65.8370
Z" /> 
<path style="fill:#000000; fill-opacity:1.0000; stroke:none;fill-rule:evenodd;"
d="M 129.8330,66.1870
129.8387,66.1583
129.8550,66.1340
129.8793,66.1177
129.9080,66.1120
130.4080,66.1120
130.4367,66.1177
130.4610,66.1340
130.4773,66.1583
130.4830,66.1870
130.4830,66.3370
130.4773,66.3657
130.4610,66.3900
130.4367,66.4063
130.4080,66.4120
129.9080,66.4120
129.8793,66.4063
129.8550,66.3900
129.8387,66.3657
129.8330,66.3370
Z" /> 
<path style="fill:#000000; fill-opacity:1.0000; stroke:none;fill-rule:evenodd;"
d="M 129.8330,66.6870
129.8387,66.6583
129.8550,66.6340
129.8793,66.6177
129.9080,66.6120
130.4080,66.6120
130.4367,66.6177
130.4610,66.6340
130.4773,66.6583
130.4830,66.6870
130.4830,66.8370
130.4773,66.8657
130.4610,66.8900
130.4367,66.9063
130.4080,66.9120
129.9080,66.9120
129.8793,66.9063
129.8550,66.8900
129.8387,66.8657
129.8330,66.8370
Z" /> 
<path style="fill:#000000; fill-opacity:1.0000; stroke:none;fill-rule:evenodd;"
d="M 129.8330,67.1870
129.8387,67.1583
129.8550,67.1340
129.8793,67.1177
129.9080,67.1120
130.4080,67.1120
130.4367,67.1177
130.4610,67.1340
130.4773,67.1583
130.4830,67.1870
130.4830,67.3370
130.4773,67.3657
130.4610,67.3900
130.4367,67.4063
130.4080,67.4120
129.9080,67.4120
129.8793,67.4063
129.8550,67.3900
129.8387,67.3657
129.8330,67.3370
Z" /> 
<path style="fill:#000000; fill-opacity:1.0000; stroke:none;fill-rule:evenodd;"
d="M 132.2550,67.5425
132.2731,67.4516
132.3246,67.3746
132.4016,67.3231
132.4925,67.3050
133.0925,67.3050
133.1834,67.3231
133.2604,67.3746
133.3119,67.4516
133.3300,67.5425
133.3300,68.0175
133.3119,68.1084
133.2604,68.1854
133.1834,68.2369
133.0925,68.2550
132.4925,68.2550
132.4016,68.2369
132.3246,68.1854
132.2731,68.1084
132.2550,68.0175
Z" /> 
<path style="fill:#000000; fill-opacity:1.0000; stroke:none;fill-rule:evenodd;"
d="M 133.9800,67.5425
133.9981,67.4516
134.0496,67.3746
134.1266,67.3231
134.2175,67.3050
134.8175,67.3050
134.9084,67.3231
134.9854,67.3746
135.0369,67.4516
135.0550,67.5425
135.0550,68.0175
135.0369,68.1084
134.9854,68.1854
134.9084,68.2369
134.8175,68.2550
134.2175,68.2550
134.1266,68.2369
134.0496,68.1854
133.9981,68.1084
133.9800,68.0175
Z" /> 
<path style="fill:#000000; fill-opacity:1.0000; stroke:none;fill-rule:evenodd;"
d="M 117.0790,60.7460
117.1747,60.7650
117.2558,60.8192
117.3100,60.9003
117.3290,60.9960
117.3290,61.8210
117.3100,61.9167
117.2558,61.9978
117.1747,62.0520
117.0790,62.0710
114.8790,62.0710
114.7833,62.0520
114.7022,61.9978
114.6480,61.9167
114.6290,61.8210
114.6290,60.9960
114.6480,60.9003
114.7022,60.8192
114.7833,60.7650
114.8790,60.7460
Z" /> 
<path style="fill:#000000; fill-opacity:1.0000; stroke:none;fill-rule:evenodd;"
d="M 117.0790,63.8710
117.1747,63.8900
117.2558,63.9442
117.3100,64.0253
117.3290,64.1210
117.3290,64.9460
117.3100,65.0417
117.2558,65.1228
117.1747,65.1770
117.0790,65.1960
114.8790,65.1960
114.7833,65.1770
114.7022,65.1228
114.6480,65.0417
114.6290,64.9460
114.6290,64.1210
114.6480,64.0253
114.7022,63.9442
114.7833,63.8900
114.8790,63.8710
Z" /> 
<path style="fill:#000000; fill-opacity:1.0000; stroke:none;fill-rule:evenodd;"
d="M 115.1460,71.6910
115.0503,71.6720
114.9692,71.6178
114.9150,71.5367
114.8960,71.4410
114.8960,70.7660
114.9150,70.6703
114.9692,70.5892
115.0503,70.5350
115.1460,70.5160
116.0960,70.5160
116.1917,70.5350
116.2728,70.5892
116.3270,70.6703
116.3460,70.7660
116.3460,71.4410
116.3270,71.5367
116.2728,71.6178
116.1917,71.6720
116.0960,71.6910
Z" /> 
<path style="fill:#000000; fill-opacity:1.0000; stroke:none;fill-rule:evenodd;"
d="M 115.1460,69.6160
115.0503,69.5970
114.9692,69.5428
114.9150,69.4617
114.8960,69.3660
114.8960,68.6910
114.9150,68.5953
114.9692,68.5142
115.0503,68.4600
115.1460,68.4410
116.0960,68.4410
116.1917,68.4600
116.2728,68.5142
116.3270,68.5953
116.3460,68.6910
116.3460,69.3660
116.3270,69.4617
116.2728,69.5428
116.1917,69.5970
116.0960,69.6160
Z" /> 
<path style="fill:#000000; fill-opacity:1.0000; stroke:none;fill-rule:evenodd;"
d="M 122.7840,66.4410
122.8030,66.3453
122.8572,66.2642
122.9383,66.2100
123.0340,66.1910
123.7340,66.1910
123.8297,66.2100
123.9108,66.2642
123.9650,66.3453
123.9840,66.4410
123.9840,67.3410
123.9650,67.4367
123.9108,67.5178
123.8297,67.5720
123.7340,67.5910
123.0340,67.5910
122.9383,67.5720
122.8572,67.5178
122.8030,67.4367
122.7840,67.3410
Z" /> 
<path style="fill:#000000; fill-opacity:1.0000; stroke:none;fill-rule:evenodd;"
d="M 124.7840,66.4410
124.8030,66.3453
124.8572,66.2642
124.9383,66.2100
125.0340,66.1910
125.7340,66.1910
125.8297,66.2100
125.9108,66.2642
125.9650,66.3453
125.9840,66.4410
125.9840,67.3410
125.9650,67.4367
125.9108,67.5178
125.8297,67.5720
125.7340,67.5910
125.0340,67.5910
124.9383,67.5720
124.8572,67.5178
124.8030,67.4367
124.7840,67.3410
Z" /> 
<path style="fill:#000000; fill-opacity:1.0000; stroke:none;fill-rule:evenodd;"
d="M 122.7840,70.2510
122.8030,70.1553
122.8572,70.0742
122.9383,70.0200
123.0340,70.0010
123.7340,70.0010
123.8297,70.0200
123.9108,70.0742
123.9650,70.1553
123.9840,70.2510
123.9840,71.1510
123.9650,71.2467
123.9108,71.3278
123.8297,71.3820
123.7340,71.4010
123.0340,71.4010
122.9383,71.3820
122.8572,71.3278
122.8030,71.2467
122.7840,71.1510
Z" /> 
<path style="fill:#000000; fill-opacity:1.0000; stroke:none;fill-rule:evenodd;"
d="M 124.7840,70.2510
124.8030,70.1553
124.8572,70.0742
124.9383,70.0200
125.0340,70.0010
125.7340,70.0010
125.8297,70.0200
125.9108,70.0742
125.9650,70.1553
125.9840,70.2510
125.9840,71.1510
125.9650,71.2467
125.9108,71.3278
125.8297,71.3820
125.7340,71.4010
125.0340,71.4010
124.9383,71.3820
124.8572,71.3278
124.8030,71.2467
124.7840,71.1510
Z" /> 
<path style="fill:#000000; fill-opacity:1.0000; stroke:none;fill-rule:evenodd;"
d="M 142.3500,71.6250
142.3656,71.5180
142.4198,71.4071
142.5071,71.3198
142.6180,71.2656
142.7250,71.2500
143.4750,71.2500
143.5820,71.2656
143.6929,71.3198
143.7802,71.4071
143.8344,71.5180
143.8500,71.6250
143.8500,76.8750
143.8344,76.9820
143.7802,77.0929
143.6929,77.1802
143.5820,77.2344
143.4750,77.2500
142.7250,77.2500
142.6180,77.2344
142.5071,77.1802
142.4198,77.0929
142.3656,76.9820
142.3500,76.8750
Z" /> 
<path style="fill:#000000; fill-opacity:1.0000; stroke:none;fill-rule:evenodd;"
d="M 142.3500,57.1250
142.3656,57.0180
142.4198,56.9071
142.5071,56.8198
142.6180,56.7656
142.7250,56.7500
143.4750,56.7500
143.5820,56.7656
143.6929,56.8198
143.7802,56.9071
143.8344,57.0180
143.8500,57.1250
143.8500,62.3750
143.8344,62.4820
143.7802,62.5929
143.6929,62.6802
143.5820,62.7344
143.4750,62.7500
142.7250,62.7500
142.6180,62.7344
142.5071,62.6802
142.4198,62.5929
142.3656,62.4820
142.3500,62.3750
Z" /> 
<path style="fill:#000000; fill-opacity:1.0000; stroke:none;fill-rule:evenodd;"
d="M 130.4220,70.1170
130.5177,70.1360
130.5988,70.1902
130.6530,70.2713
130.6720,70.3670
130.6720,71.0670
130.6530,71.1627
130.5988,71.2438
130.5177,71.2980
130.4220,71.3170
129.5220,71.3170
129.4263,71.2980
129.3452,71.2438
129.2910,71.1627
129.2720,71.0670
129.2720,70.3670
129.2910,70.2713
129.3452,70.1902
129.4263,70.1360
129.5220,70.1170
Z" /> 
<path style="fill:#000000; fill-opacity:1.0000; stroke:none;fill-rule:evenodd;"
d="M 130.4220,72.1170
130.5177,72.1360
130.5988,72.1902
130.6530,72.2713
130.6720,72.3670
130.6720,73.0670
130.6530,73.1627
130.5988,73.2438
130.5177,73.2980
130.4220,73.3170
129.5220,73.3170
129.4263,73.2980
129.3452,73.2438
129.2910,73.1627
129.2720,73.0670
129.2720,72.3670
129.2910,72.2713
129.3452,72.1902
129.4263,72.1360
129.5220,72.1170
Z" /> 
<path style="fill:#000000; fill-opacity:1.0000; stroke:none;fill-rule:evenodd;"
d="M 131.1730,56.6800
131.0773,56.6610
130.9962,56.6068
130.9420,56.5257
130.9230,56.4300
130.9230,55.7300
130.9420,55.6343
130.9962,55.5532
131.0773,55.4990
131.1730,55.4800
132.0730,55.4800
132.1687,55.4990
132.2498,55.5532
132.3040,55.6343
132.3230,55.7300
132.3230,56.4300
132.3040,56.5257
132.2498,56.6068
132.1687,56.6610
132.0730,56.6800
Z" /> 
<path style="fill:#000000; fill-opacity:1.0000; stroke:none;fill-rule:evenodd;"
d="M 131.1730,54.6800
131.0773,54.6610
130.9962,54.6068
130.9420,54.5257
130.9230,54.4300
130.9230,53.7300
130.9420,53.6343
130.9962,53.5532
131.0773,53.4990
131.1730,53.4800
132.0730,53.4800
132.1687,53.4990
132.2498,53.5532
132.3040,53.6343
132.3230,53.7300
132.3230,54.4300
132.3040,54.5257
132.2498,54.6068
132.1687,54.6610
132.0730,54.6800
Z" /> 
<path style="fill:#000000; fill-opacity:1.0000; stroke:none;fill-rule:evenodd;"
d="M 132.5550,65.9410
132.4593,65.9220
132.3782,65.8678
132.3240,65.7867
132.3050,65.6910
132.3050,64.8660
132.3240,64.7703
132.3782,64.6892
132.4593,64.6350
132.5550,64.6160
134.7550,64.6160
134.8507,64.6350
134.9318,64.6892
134.9860,64.7703
135.0050,64.8660
135.0050,65.6910
134.9860,65.7867
134.9318,65.8678
134.8507,65.9220
134.7550,65.9410
Z" /> 
<path style="fill:#000000; fill-opacity:1.0000; stroke:none;fill-rule:evenodd;"
d="M 132.5550,62.8160
132.4593,62.7970
132.3782,62.7428
132.3240,62.6617
132.3050,62.5660
132.3050,61.7410
132.3240,61.6453
132.3782,61.5642
132.4593,61.5100
132.5550,61.4910
134.7550,61.4910
134.8507,61.5100
134.9318,61.5642
134.9860,61.6453
135.0050,61.7410
135.0050,62.5660
134.9860,62.6617
134.9318,62.7428
134.8507,62.7970
134.7550,62.8160
Z" /> 
<path style="fill:none; 
stroke:#000000; stroke-width:0.0500; stroke-opacity:1; 
stroke-linecap:round; stroke-linejoin:round;fill:none"
d="M 100.0000,50.0000
163.0000,50.0000
163.0000,79.0000
100.0000,79.0000
Z" /> 
</g> 
</svg>
