%TF.GenerationSoftware,KiCad,Pcbnew,8.0.6*%
%TF.CreationDate,2025-03-30T17:41:47+02:00*%
%TF.ProjectId,vmc,766d632e-6b69-4636-9164-5f7063625858,rev?*%
%TF.SameCoordinates,Original*%
%TF.FileFunction,Copper,L1,Top*%
%TF.FilePolarity,Positive*%
%FSLAX46Y46*%
G04 Gerber Fmt 4.6, Leading zero omitted, Abs format (unit mm)*
G04 Created by KiCad (PCBNEW 8.0.6) date 2025-03-30 17:41:47*
%MOMM*%
%LPD*%
G01*
G04 APERTURE LIST*
G04 Aperture macros list*
%AMRoundRect*
0 Rectangle with rounded corners*
0 $1 Rounding radius*
0 $2 $3 $4 $5 $6 $7 $8 $9 X,Y pos of 4 corners*
0 Add a 4 corners polygon primitive as box body*
4,1,4,$2,$3,$4,$5,$6,$7,$8,$9,$2,$3,0*
0 Add four circle primitives for the rounded corners*
1,1,$1+$1,$2,$3*
1,1,$1+$1,$4,$5*
1,1,$1+$1,$6,$7*
1,1,$1+$1,$8,$9*
0 Add four rect primitives between the rounded corners*
20,1,$1+$1,$2,$3,$4,$5,0*
20,1,$1+$1,$4,$5,$6,$7,0*
20,1,$1+$1,$6,$7,$8,$9,0*
20,1,$1+$1,$8,$9,$2,$3,0*%
%AMFreePoly0*
4,1,6,0.500000,-0.850000,-0.500000,-0.850000,-0.500000,0.550000,-0.200000,0.850000,0.500000,0.850000,0.500000,-0.850000,0.500000,-0.850000,$1*%
G04 Aperture macros list end*
%TA.AperFunction,SMDPad,CuDef*%
%ADD10RoundRect,0.250000X-0.450000X0.350000X-0.450000X-0.350000X0.450000X-0.350000X0.450000X0.350000X0*%
%TD*%
%TA.AperFunction,SMDPad,CuDef*%
%ADD11RoundRect,0.250000X0.450000X-0.350000X0.450000X0.350000X-0.450000X0.350000X-0.450000X-0.350000X0*%
%TD*%
%TA.AperFunction,SMDPad,CuDef*%
%ADD12R,0.550000X0.250000*%
%TD*%
%TA.AperFunction,SMDPad,CuDef*%
%ADD13FreePoly0,180.000000*%
%TD*%
%TA.AperFunction,SMDPad,CuDef*%
%ADD14RoundRect,0.150000X-0.150000X0.825000X-0.150000X-0.825000X0.150000X-0.825000X0.150000X0.825000X0*%
%TD*%
%TA.AperFunction,SMDPad,CuDef*%
%ADD15RoundRect,0.237500X-0.237500X0.300000X-0.237500X-0.300000X0.237500X-0.300000X0.237500X0.300000X0*%
%TD*%
%TA.AperFunction,SMDPad,CuDef*%
%ADD16RoundRect,0.150000X0.150000X-0.587500X0.150000X0.587500X-0.150000X0.587500X-0.150000X-0.587500X0*%
%TD*%
%TA.AperFunction,SMDPad,CuDef*%
%ADD17RoundRect,0.250000X0.350000X0.450000X-0.350000X0.450000X-0.350000X-0.450000X0.350000X-0.450000X0*%
%TD*%
%TA.AperFunction,SMDPad,CuDef*%
%ADD18RoundRect,0.212500X0.212500X1.562500X-0.212500X1.562500X-0.212500X-1.562500X0.212500X-1.562500X0*%
%TD*%
%TA.AperFunction,SMDPad,CuDef*%
%ADD19RoundRect,0.212500X0.212500X1.112500X-0.212500X1.112500X-0.212500X-1.112500X0.212500X-1.112500X0*%
%TD*%
%TA.AperFunction,SMDPad,CuDef*%
%ADD20RoundRect,0.150000X0.150000X-0.825000X0.150000X0.825000X-0.150000X0.825000X-0.150000X-0.825000X0*%
%TD*%
%TA.AperFunction,SMDPad,CuDef*%
%ADD21RoundRect,0.250000X-1.500000X-0.900000X1.500000X-0.900000X1.500000X0.900000X-1.500000X0.900000X0*%
%TD*%
%TA.AperFunction,SMDPad,CuDef*%
%ADD22RoundRect,0.237500X0.237500X-0.300000X0.237500X0.300000X-0.237500X0.300000X-0.237500X-0.300000X0*%
%TD*%
%TA.AperFunction,ComponentPad*%
%ADD23C,1.500000*%
%TD*%
%TA.AperFunction,SMDPad,CuDef*%
%ADD24R,2.650000X0.850000*%
%TD*%
%TA.AperFunction,SMDPad,CuDef*%
%ADD25R,3.550000X0.850000*%
%TD*%
%TA.AperFunction,SMDPad,CuDef*%
%ADD26RoundRect,0.237500X0.287500X0.237500X-0.287500X0.237500X-0.287500X-0.237500X0.287500X-0.237500X0*%
%TD*%
%TA.AperFunction,SMDPad,CuDef*%
%ADD27RoundRect,0.250000X0.337500X0.475000X-0.337500X0.475000X-0.337500X-0.475000X0.337500X-0.475000X0*%
%TD*%
%TA.AperFunction,SMDPad,CuDef*%
%ADD28RoundRect,0.237500X-0.300000X-0.237500X0.300000X-0.237500X0.300000X0.237500X-0.300000X0.237500X0*%
%TD*%
%TA.AperFunction,SMDPad,CuDef*%
%ADD29RoundRect,0.250000X-0.350000X-0.450000X0.350000X-0.450000X0.350000X0.450000X-0.350000X0.450000X0*%
%TD*%
%TA.AperFunction,ViaPad*%
%ADD30C,1.000000*%
%TD*%
%TA.AperFunction,Conductor*%
%ADD31C,0.200000*%
%TD*%
%TA.AperFunction,Conductor*%
%ADD32C,0.600000*%
%TD*%
%TA.AperFunction,Conductor*%
%ADD33C,1.000000*%
%TD*%
%TA.AperFunction,Conductor*%
%ADD34C,0.800000*%
%TD*%
%TA.AperFunction,Conductor*%
%ADD35C,0.400000*%
%TD*%
G04 APERTURE END LIST*
D10*
%TO.P,R7,1*%
%TO.N,+5V*%
X150449000Y-57300000D03*
%TO.P,R7,2*%
%TO.N,/LED*%
X150449000Y-59300000D03*
%TD*%
D11*
%TO.P,R4,1*%
%TO.N,+5V*%
X127100000Y-58300000D03*
%TO.P,R4,2*%
%TO.N,/LED+*%
X127100000Y-56300000D03*
%TD*%
D12*
%TO.P,U1,1,SDA*%
%TO.N,Net-(U1-SDA)*%
X137529000Y-60414000D03*
%TO.P,U1,2,ADDR*%
%TO.N,GND*%
X137529000Y-59914000D03*
%TO.P,U1,3,ALERT*%
%TO.N,unconnected-(U1-ALERT-Pad3)*%
X137529000Y-59414000D03*
%TO.P,U1,4,SCL*%
%TO.N,Net-(U1-SCL)*%
X137529000Y-58914000D03*
%TO.P,U1,5,VDD*%
%TO.N,+5V*%
X135179000Y-58914000D03*
%TO.P,U1,6,~{RESET}*%
%TO.N,unconnected-(U1-~{RESET}-Pad6)*%
X135179000Y-59414000D03*
%TO.P,U1,7,R*%
%TO.N,GND*%
X135179000Y-59914000D03*
%TO.P,U1,8,VSS*%
X135179000Y-60414000D03*
D13*
%TO.P,U1,9,VSS*%
X136354000Y-59664000D03*
%TD*%
D11*
%TO.P,R2,1*%
%TO.N,Net-(U1-SDA)*%
X141529000Y-59318000D03*
%TO.P,R2,2*%
%TO.N,+5V*%
X141529000Y-57318000D03*
%TD*%
%TO.P,R5,1*%
%TO.N,+5V*%
X129800000Y-58300000D03*
%TO.P,R5,2*%
%TO.N,Net-(D1-A)*%
X129800000Y-56300000D03*
%TD*%
D14*
%TO.P,U4,1,RXD*%
%TO.N,Lrx*%
X157169500Y-66868250D03*
%TO.P,U4,2,CS*%
%TO.N,~{MCLR}*%
X155899500Y-66868250D03*
%TO.P,U4,3,~{WAKE}*%
%TO.N,Net-(U4-~{WAKE})*%
X154629500Y-66868250D03*
%TO.P,U4,4,TXD*%
%TO.N,Ltx*%
X153359500Y-66868250D03*
%TO.P,U4,5,VSS*%
%TO.N,GND*%
X153359500Y-71818250D03*
%TO.P,U4,6,LBUS*%
%TO.N,/Lbus*%
X154629500Y-71818250D03*
%TO.P,U4,7,VBB*%
%TO.N,/+12V*%
X155899500Y-71818250D03*
%TO.P,U4,8,WREN*%
%TO.N,unconnected-(U4-WREN-Pad8)*%
X157169500Y-71818250D03*
%TD*%
D15*
%TO.P,C7,1*%
%TO.N,/Lbus*%
X151500000Y-72937500D03*
%TO.P,C7,2*%
%TO.N,GND*%
X151500000Y-74662500D03*
%TD*%
D10*
%TO.P,R14,1*%
%TO.N,Lrx*%
X138300000Y-72700000D03*
%TO.P,R14,2*%
%TO.N,+5V*%
X138300000Y-74700000D03*
%TD*%
D16*
%TO.P,Q1,1,G*%
%TO.N,/LED*%
X153000000Y-59236000D03*
%TO.P,Q1,2,S*%
%TO.N,GND*%
X154900000Y-59236000D03*
%TO.P,Q1,3,D*%
%TO.N,/LED-*%
X153950000Y-57361000D03*
%TD*%
D10*
%TO.P,R6,1*%
%TO.N,/PGD*%
X133782000Y-63341600D03*
%TO.P,R6,2*%
%TO.N,GND*%
X133782000Y-65341600D03*
%TD*%
D17*
%TO.P,R1,1*%
%TO.N,+5V*%
X131718000Y-71463000D03*
%TO.P,R1,2*%
%TO.N,~{MCLR}*%
X129718000Y-71463000D03*
%TD*%
D18*
%TO.P,J3,1,Pin_1*%
%TO.N,/Lbus*%
X110577000Y-75784000D03*
D19*
X110577000Y-71884000D03*
D18*
%TO.P,J3,2,Pin_2*%
%TO.N,unconnected-(J3-Pin_2-Pad2)_1*%
X112077000Y-75784000D03*
D19*
%TO.N,unconnected-(J3-Pin_2-Pad2)*%
X112077000Y-71884000D03*
D18*
%TO.P,J3,3,Pin_3*%
%TO.N,/+12V*%
X113577000Y-75784000D03*
D19*
X113577000Y-71884000D03*
D18*
%TO.P,J3,4,Pin_4*%
%TO.N,GND*%
X115077000Y-75784000D03*
D19*
X115077000Y-71884000D03*
%TD*%
D15*
%TO.P,C3,1*%
%TO.N,+5V*%
X134417000Y-71743500D03*
%TO.P,C3,2*%
%TO.N,GND*%
X134417000Y-73468500D03*
%TD*%
D20*
%TO.P,U2,1,Vdd*%
%TO.N,+5V*%
X136068000Y-70178250D03*
%TO.P,U2,2,RA5/OSC1*%
%TO.N,Lrx*%
X137338000Y-70178250D03*
%TO.P,U2,3,RA4/OSC2*%
%TO.N,Ltx*%
X138608000Y-70178250D03*
%TO.P,U2,4,RA3/~{MCLR}*%
%TO.N,~{MCLR}*%
X139878000Y-70178250D03*
%TO.P,U2,5,RC5*%
%TO.N,Net-(U2-RC5)*%
X141148000Y-70178250D03*
%TO.P,U2,6,RC4*%
%TO.N,Net-(U2-RC4)*%
X142418000Y-70178250D03*
%TO.P,U2,7,RC3/CxIN3-*%
%TO.N,Net-(U2-RC3{slash}CxIN3-)*%
X143688000Y-70178250D03*
%TO.P,U2,8,RC2/CxIN2-*%
%TO.N,/LED*%
X143688000Y-65228250D03*
%TO.P,U2,9,RC1/CxIN1-/SDA*%
%TO.N,Net-(U1-SCL)*%
X142418000Y-65228250D03*
%TO.P,U2,10,RC0/C2IN0+/SCL*%
%TO.N,Net-(U1-SDA)*%
X141148000Y-65228250D03*
%TO.P,U2,11,RA2/VREF-*%
%TO.N,/~{PUSH}*%
X139878000Y-65228250D03*
%TO.P,U2,12,RA1/VREF+/CxIN0-/ICSPCLK*%
%TO.N,/PGC*%
X138608000Y-65228250D03*
%TO.P,U2,13,RA0/C1IN0+/ICSPDAT*%
%TO.N,/PGD*%
X137338000Y-65228250D03*
%TO.P,U2,14,Vss*%
%TO.N,GND*%
X136068000Y-65228250D03*
%TD*%
D21*
%TO.P,D2,1,A1*%
%TO.N,/+12V*%
X110635000Y-66129000D03*
%TO.P,D2,2,A2*%
%TO.N,GND*%
X116035000Y-66129000D03*
%TD*%
D22*
%TO.P,C4,1*%
%TO.N,/~{PUSH}*%
X125900000Y-77262500D03*
%TO.P,C4,2*%
%TO.N,GND*%
X125900000Y-75537500D03*
%TD*%
D15*
%TO.P,C1,1*%
%TO.N,+5V*%
X133147000Y-58435000D03*
%TO.P,C1,2*%
%TO.N,GND*%
X133147000Y-60160000D03*
%TD*%
D11*
%TO.P,R8,1*%
%TO.N,/~{PUSH}*%
X147498000Y-65081000D03*
%TO.P,R8,2*%
%TO.N,+5V*%
X147498000Y-63081000D03*
%TD*%
D23*
%TO.P,TP1,1,1*%
%TO.N,/+12V*%
X111938000Y-58255000D03*
%TD*%
D24*
%TO.P,J1,1,Pin_1*%
%TO.N,~{MCLR}*%
X125908000Y-67835000D03*
D25*
X129808000Y-67835000D03*
D24*
%TO.P,J1,2,Pin_2*%
%TO.N,+5V*%
X125908000Y-66335000D03*
D25*
X129808000Y-66335000D03*
D24*
%TO.P,J1,3,Pin_3*%
%TO.N,GND*%
X125908000Y-64835000D03*
D25*
X129808000Y-64835000D03*
D24*
%TO.P,J1,4,Pin_4*%
%TO.N,/PGD*%
X125908000Y-63335000D03*
D25*
X129808000Y-63335000D03*
D24*
%TO.P,J1,5,Pin_5*%
%TO.N,/PGC*%
X125908000Y-61835000D03*
D25*
X129808000Y-61835000D03*
%TD*%
D26*
%TO.P,D1,1,K*%
%TO.N,/LED-*%
X137175000Y-55300000D03*
%TO.P,D1,2,A*%
%TO.N,Net-(D1-A)*%
X135425000Y-55300000D03*
%TD*%
D11*
%TO.P,R3,1*%
%TO.N,Net-(U1-SCL)*%
X144196000Y-59318000D03*
%TO.P,R3,2*%
%TO.N,+5V*%
X144196000Y-57318000D03*
%TD*%
D27*
%TO.P,C6,1*%
%TO.N,/+12V*%
X156100000Y-74900000D03*
%TO.P,C6,2*%
%TO.N,GND*%
X154025000Y-74900000D03*
%TD*%
D28*
%TO.P,C2,1*%
%TO.N,GND*%
X125961000Y-71336000D03*
%TO.P,C2,2*%
%TO.N,~{MCLR}*%
X127686000Y-71336000D03*
%TD*%
D18*
%TO.P,J2,1,Pin_1*%
%TO.N,GND*%
X118324000Y-75784000D03*
D19*
X118324000Y-71884000D03*
D18*
%TO.P,J2,2,Pin_2*%
%TO.N,/~{PUSH}*%
X119824000Y-75784000D03*
D19*
X119824000Y-71884000D03*
D18*
%TO.P,J2,3,Pin_3*%
%TO.N,/LED+*%
X121324000Y-75784000D03*
D19*
X121324000Y-71884000D03*
D18*
%TO.P,J2,4,Pin_4*%
%TO.N,/LED-*%
X122824000Y-75784000D03*
D19*
X122824000Y-71884000D03*
%TD*%
D29*
%TO.P,R13,1*%
%TO.N,Net-(U4-~{WAKE})*%
X154900000Y-64300000D03*
%TO.P,R13,2*%
%TO.N,/+12V*%
X156900000Y-64300000D03*
%TD*%
D30*
%TO.N,GND*%
X123368000Y-54826000D03*
X118694400Y-62776200D03*
X140259000Y-62065000D03*
X158400000Y-59400000D03*
X136322000Y-61938000D03*
X123317200Y-65113000D03*
%TO.N,+5V*%
X131750000Y-74765000D03*
X121793000Y-68543603D03*
%TO.N,/+12V*%
X159850000Y-64950000D03*
%TO.N,/Lbus*%
X133862943Y-75965000D03*
X106900000Y-75900000D03*
%TO.N,Net-(U2-RC3{slash}CxIN3-)*%
X149559501Y-66570153D03*
%TO.N,Net-(U2-RC4)*%
X151559500Y-64732000D03*
%TO.N,Net-(U2-RC5)*%
X151559501Y-66402713D03*
%TD*%
D31*
%TO.N,GND*%
X135604000Y-60414000D02*
X136354000Y-59664000D01*
X118324000Y-71884000D02*
X118324000Y-75784000D01*
X136354000Y-59664000D02*
X136354000Y-58541000D01*
D32*
X129808000Y-64835000D02*
X132155000Y-64835000D01*
X115077000Y-71884000D02*
X115077000Y-69213000D01*
D31*
X135179000Y-60414000D02*
X135604000Y-60414000D01*
X137529000Y-59914000D02*
X136604000Y-59914000D01*
D32*
X118324000Y-71884000D02*
X118324000Y-69721000D01*
D31*
X135179000Y-59914000D02*
X136104000Y-59914000D01*
X115077000Y-71884000D02*
X115077000Y-75784000D01*
D32*
X125908000Y-64835000D02*
X123521800Y-64835000D01*
D31*
X136354000Y-59664000D02*
X136354000Y-60763000D01*
X125908000Y-64835000D02*
X129808000Y-64835000D01*
%TO.N,+5V*%
X125908000Y-66335000D02*
X129808000Y-66335000D01*
D32*
X136068000Y-71717000D02*
X136041500Y-71743500D01*
D33*
X121793000Y-66306800D02*
X121793000Y-60964430D01*
D32*
X134264000Y-57318000D02*
X133147000Y-58435000D01*
X133147000Y-58435000D02*
X129919000Y-58435000D01*
D33*
X124457430Y-58300000D02*
X127100000Y-58300000D01*
D32*
X147389000Y-57300000D02*
X150449000Y-57300000D01*
X147498000Y-57445000D02*
X147371000Y-57318000D01*
X141529000Y-57318000D02*
X144196000Y-57318000D01*
X136068000Y-72468000D02*
X138300000Y-74700000D01*
X134264000Y-57318000D02*
X141529000Y-57318000D01*
D31*
X135179000Y-58914000D02*
X133626000Y-58914000D01*
D32*
X136068000Y-71717000D02*
X136068000Y-72468000D01*
X144196000Y-57318000D02*
X147371000Y-57318000D01*
X125908000Y-66335000D02*
X121821200Y-66335000D01*
X136041500Y-71743500D02*
X134417000Y-71743500D01*
D33*
X121793000Y-68543603D02*
X121793000Y-66306800D01*
X121793000Y-60964430D02*
X124457430Y-58300000D01*
X131718000Y-74670000D02*
X131718000Y-71463000D01*
D32*
X121821200Y-66335000D02*
X121793000Y-66306800D01*
X147498000Y-63081000D02*
X147498000Y-57445000D01*
D34*
X131637750Y-71743500D02*
X134417000Y-71743500D01*
D32*
X136068000Y-70178250D02*
X136068000Y-71717000D01*
D31*
X133626000Y-58914000D02*
X133147000Y-58435000D01*
D33*
X129919000Y-58435000D02*
X127165000Y-58435000D01*
D31*
%TO.N,~{MCLR}*%
X125908000Y-67835000D02*
X129808000Y-67835000D01*
D32*
X129808000Y-67835000D02*
X129808000Y-71373000D01*
D31*
X155899500Y-66868250D02*
X155899500Y-63714756D01*
D32*
X127686000Y-71336000D02*
X129591000Y-71336000D01*
D31*
X155899500Y-63714756D02*
X155384744Y-63200000D01*
D32*
X152559500Y-67277760D02*
X152559500Y-64340500D01*
X142232726Y-73300000D02*
X146537260Y-73300000D01*
X139878000Y-70178250D02*
X139878000Y-70945274D01*
X139878000Y-69203251D02*
X139374749Y-68700000D01*
X139878000Y-70945274D02*
X142232726Y-73300000D01*
X133100000Y-68700000D02*
X132235000Y-67835000D01*
X139878000Y-70178250D02*
X139878000Y-69203251D01*
D31*
X155384744Y-63200000D02*
X153500000Y-63200000D01*
D32*
X139374749Y-68700000D02*
X133100000Y-68700000D01*
X146537260Y-73300000D02*
X152559500Y-67277760D01*
X152559500Y-64340500D02*
X153500000Y-63400000D01*
X132235000Y-67835000D02*
X129808000Y-67835000D01*
D31*
%TO.N,/+12V*%
X113577000Y-71884000D02*
X113577000Y-75784000D01*
D32*
X159200000Y-64300000D02*
X159817000Y-64917000D01*
X159817000Y-64917000D02*
X159817000Y-73583000D01*
X156900000Y-64300000D02*
X159200000Y-64300000D01*
X155899500Y-71818250D02*
X155899500Y-74499500D01*
D33*
X110635000Y-66129000D02*
X111872000Y-64892000D01*
X111872000Y-64892000D02*
X111872000Y-58321000D01*
D34*
X113577000Y-71884000D02*
X113577000Y-69673000D01*
D32*
X158500000Y-74900000D02*
X156100000Y-74900000D01*
D34*
X113577000Y-69505000D02*
X110635000Y-66563000D01*
D33*
X111872000Y-58321000D02*
X111938000Y-58255000D01*
D32*
X159817000Y-73583000D02*
X158500000Y-74900000D01*
%TO.N,Net-(D1-A)*%
X131600000Y-56300000D02*
X129800000Y-56300000D01*
X135425000Y-55300000D02*
X132600000Y-55300000D01*
X132600000Y-55300000D02*
X131600000Y-56300000D01*
%TO.N,/PGD*%
X132282956Y-63341600D02*
X133782000Y-63341600D01*
D31*
X125908000Y-63335000D02*
X129808000Y-63335000D01*
D35*
X136902349Y-63817600D02*
X137338000Y-64253251D01*
X134258000Y-63817600D02*
X136902349Y-63817600D01*
X133782000Y-63341600D02*
X134258000Y-63817600D01*
D32*
X132276356Y-63335000D02*
X129808000Y-63335000D01*
X132276356Y-63335000D02*
X132282956Y-63341600D01*
D35*
X137338000Y-64253251D02*
X137338000Y-65228250D01*
%TO.N,/PGC*%
X137541200Y-63157200D02*
X138608000Y-64224000D01*
X132486600Y-62192000D02*
X134645600Y-62192000D01*
X135610800Y-63157200D02*
X137541200Y-63157200D01*
D31*
X125908000Y-61835000D02*
X129808000Y-61835000D01*
D35*
X138608000Y-64224000D02*
X138608000Y-65228250D01*
X129808000Y-61835000D02*
X132129600Y-61835000D01*
X132129600Y-61835000D02*
X132486600Y-62192000D01*
X134645600Y-62192000D02*
X135610800Y-63157200D01*
D32*
%TO.N,/Lbus*%
X107816000Y-71884000D02*
X110577000Y-71884000D01*
D31*
X110577000Y-71884000D02*
X110577000Y-75784000D01*
D32*
X133862943Y-75965000D02*
X134027943Y-75800000D01*
X147431371Y-75800000D02*
X150293871Y-72937500D01*
X153782894Y-70343250D02*
X152936106Y-70343250D01*
X150293871Y-72937500D02*
X151500000Y-72937500D01*
X106900000Y-72800000D02*
X107816000Y-71884000D01*
X151500000Y-71779356D02*
X151500000Y-72937500D01*
X106900000Y-75900000D02*
X106900000Y-72800000D01*
X134027943Y-75800000D02*
X147431371Y-75800000D01*
X152936106Y-70343250D02*
X151500000Y-71779356D01*
X154629500Y-71189856D02*
X153782894Y-70343250D01*
D31*
%TO.N,/LED*%
X144832250Y-64084000D02*
X148079744Y-64084000D01*
X150449000Y-61714744D02*
X150449000Y-59300000D01*
X148079744Y-64084000D02*
X150449000Y-61714744D01*
X143688000Y-65228250D02*
X144832250Y-64084000D01*
D32*
X150449000Y-59300000D02*
X152936000Y-59300000D01*
%TO.N,Net-(U1-SDA)*%
X141148000Y-63335000D02*
X141618000Y-62865000D01*
D31*
X137529000Y-60414000D02*
X141618000Y-60414000D01*
D32*
X141618000Y-59886000D02*
X141148000Y-59416000D01*
X141148000Y-65228250D02*
X141148000Y-63335000D01*
X141618000Y-62865000D02*
X141618000Y-59886000D01*
%TO.N,Net-(U1-SCL)*%
X144196000Y-60382000D02*
X144196000Y-59318000D01*
X142418000Y-62160000D02*
X144196000Y-60382000D01*
D31*
X137529000Y-58914000D02*
X138143000Y-58300000D01*
D32*
X142418000Y-65228250D02*
X142418000Y-62160000D01*
D31*
X138143000Y-58300000D02*
X143178000Y-58300000D01*
X143178000Y-58300000D02*
X144196000Y-59318000D01*
D32*
%TO.N,Net-(U2-RC3{slash}CxIN3-)*%
X149559501Y-66570153D02*
X149559501Y-66883649D01*
X146264900Y-70178250D02*
X143688000Y-70178250D01*
X149559501Y-66883649D02*
X146264900Y-70178250D01*
%TO.N,Net-(U4-~{WAKE})*%
X154629500Y-66868250D02*
X154629500Y-64570500D01*
%TO.N,Lrx*%
X137338000Y-71738000D02*
X138300000Y-72700000D01*
X147100000Y-75000000D02*
X153756750Y-68343250D01*
X156322894Y-68343250D02*
X157169500Y-67496644D01*
X138300000Y-72700000D02*
X140600000Y-75000000D01*
X137338000Y-70178250D02*
X137338000Y-71738000D01*
X140600000Y-75000000D02*
X147100000Y-75000000D01*
X153756750Y-68343250D02*
X156322894Y-68343250D01*
%TO.N,Net-(U2-RC4)*%
X150559501Y-67015019D02*
X145921270Y-71653250D01*
X145921270Y-71653250D02*
X142918001Y-71653250D01*
X142918001Y-71653250D02*
X142418000Y-71153249D01*
X150559501Y-65731999D02*
X150559501Y-67015019D01*
X142418000Y-71153249D02*
X142418000Y-70178250D01*
X151559500Y-64732000D02*
X150559501Y-65731999D01*
%TO.N,Net-(U2-RC5)*%
X142586631Y-72453250D02*
X141148000Y-71014619D01*
X151559501Y-67146389D02*
X146252640Y-72453250D01*
X146252640Y-72453250D02*
X142586631Y-72453250D01*
X151559501Y-66402713D02*
X151559501Y-67146389D01*
X141148000Y-71014619D02*
X141148000Y-70178250D01*
%TO.N,Ltx*%
X153359500Y-67609130D02*
X153359500Y-66868250D01*
X146768630Y-74200000D02*
X153359500Y-67609130D01*
X138608000Y-70806644D02*
X142001356Y-74200000D01*
X142001356Y-74200000D02*
X146768630Y-74200000D01*
%TO.N,/~{PUSH}*%
X151612272Y-61400000D02*
X147931272Y-65081000D01*
X162200000Y-63500000D02*
X160100000Y-61400000D01*
X146423500Y-67272000D02*
X140259000Y-67272000D01*
X147931272Y-65081000D02*
X147498000Y-65081000D01*
X140259000Y-67272000D02*
X139878000Y-66891000D01*
X147498000Y-65081000D02*
X147498000Y-66197500D01*
X125800000Y-78200000D02*
X120465001Y-78200000D01*
X160100000Y-61400000D02*
X151612272Y-61400000D01*
X119824000Y-77558999D02*
X119824000Y-75784000D01*
X125800000Y-78200000D02*
X125800000Y-77362500D01*
X139878000Y-66891000D02*
X139878000Y-65228250D01*
X160400000Y-78200000D02*
X162200000Y-76400000D01*
X125800000Y-78200000D02*
X160400000Y-78200000D01*
X120465001Y-78200000D02*
X119824000Y-77558999D01*
X147498000Y-66197500D02*
X146423500Y-67272000D01*
X162200000Y-76400000D02*
X162200000Y-63500000D01*
D31*
X119824000Y-71884000D02*
X119824000Y-75784000D01*
D35*
%TO.N,/LED-*%
X124184638Y-57300000D02*
X120893000Y-60591638D01*
D31*
X122824000Y-71884000D02*
X122824000Y-75784000D01*
D35*
X137175000Y-55300000D02*
X135998000Y-56477000D01*
X134115050Y-56477000D02*
X133292050Y-57300000D01*
X120893000Y-69115000D02*
X122824000Y-71046000D01*
X135998000Y-56477000D02*
X134115050Y-56477000D01*
X133292050Y-57300000D02*
X124184638Y-57300000D01*
X120893000Y-60591638D02*
X120893000Y-69115000D01*
D32*
X137175000Y-55300000D02*
X152400000Y-55300000D01*
X152400000Y-55300000D02*
X153950000Y-56850000D01*
%TO.N,/LED+*%
X124194688Y-56300000D02*
X127100000Y-56300000D01*
X120193000Y-60301688D02*
X124194688Y-56300000D01*
X121324000Y-71045484D02*
X120193000Y-69914484D01*
D31*
X121324000Y-71884000D02*
X121324000Y-75784000D01*
D32*
X120193000Y-69914484D02*
X120193000Y-60301688D01*
%TD*%
%TA.AperFunction,Conductor*%
%TO.N,GND*%
G36*
X162442539Y-50520185D02*
G01*
X162488294Y-50572989D01*
X162499500Y-50624500D01*
X162499500Y-62792324D01*
X162479815Y-62859363D01*
X162427011Y-62905118D01*
X162357853Y-62915062D01*
X162294297Y-62886037D01*
X162287819Y-62880005D01*
X160407316Y-60999502D01*
X160407314Y-60999500D01*
X160350250Y-60966554D01*
X160293187Y-60933608D01*
X160229539Y-60916554D01*
X160165892Y-60899500D01*
X151678164Y-60899500D01*
X151546379Y-60899500D01*
X151419084Y-60933608D01*
X151304958Y-60999500D01*
X151304955Y-60999502D01*
X150961181Y-61343277D01*
X150899858Y-61376762D01*
X150830166Y-61371778D01*
X150774233Y-61329906D01*
X150749816Y-61264442D01*
X150749500Y-61255596D01*
X150749500Y-60224500D01*
X150769185Y-60157461D01*
X150821989Y-60111706D01*
X150873500Y-60100500D01*
X150953270Y-60100500D01*
X150983699Y-60097646D01*
X150983701Y-60097646D01*
X151049458Y-60074636D01*
X151111882Y-60052793D01*
X151221150Y-59972150D01*
X151301793Y-59862882D01*
X151301794Y-59862880D01*
X151307311Y-59855405D01*
X151309285Y-59856862D01*
X151348580Y-59816485D01*
X151409480Y-59800500D01*
X152384061Y-59800500D01*
X152451100Y-59820185D01*
X152496855Y-59872989D01*
X152506764Y-59906618D01*
X152507986Y-59915000D01*
X152509427Y-59924893D01*
X152560803Y-60029985D01*
X152643514Y-60112696D01*
X152643515Y-60112696D01*
X152643517Y-60112698D01*
X152748607Y-60164073D01*
X152782673Y-60169036D01*
X152816739Y-60174000D01*
X152816740Y-60174000D01*
X153183261Y-60174000D01*
X153205971Y-60170691D01*
X153251393Y-60164073D01*
X153356483Y-60112698D01*
X153439198Y-60029983D01*
X153490573Y-59924893D01*
X153495781Y-59889149D01*
X154100000Y-59889149D01*
X154102899Y-59925989D01*
X154102900Y-59925995D01*
X154148716Y-60083693D01*
X154148717Y-60083696D01*
X154232314Y-60225052D01*
X154232321Y-60225061D01*
X154348438Y-60341178D01*
X154348447Y-60341185D01*
X154489801Y-60424781D01*
X154647514Y-60470600D01*
X154647511Y-60470600D01*
X154649998Y-60470795D01*
X154650000Y-60470795D01*
X155150000Y-60470795D01*
X155150001Y-60470795D01*
X155152486Y-60470600D01*
X155310198Y-60424781D01*
X155451552Y-60341185D01*
X155451561Y-60341178D01*
X155567678Y-60225061D01*
X155567685Y-60225052D01*
X155651282Y-60083696D01*
X155651283Y-60083693D01*
X155697099Y-59925995D01*
X155697100Y-59925989D01*
X155699999Y-59889149D01*
X155700000Y-59889134D01*
X155700000Y-59486000D01*
X155150000Y-59486000D01*
X155150000Y-60470795D01*
X154650000Y-60470795D01*
X154650000Y-59486000D01*
X154100000Y-59486000D01*
X154100000Y-59889149D01*
X153495781Y-59889149D01*
X153500500Y-59856760D01*
X153500500Y-58615240D01*
X153500246Y-58613500D01*
X153491312Y-58552181D01*
X153490573Y-58547107D01*
X153439198Y-58442017D01*
X153439196Y-58442015D01*
X153439196Y-58442014D01*
X153356485Y-58359303D01*
X153251391Y-58307926D01*
X153183261Y-58298000D01*
X153183260Y-58298000D01*
X152816740Y-58298000D01*
X152816739Y-58298000D01*
X152748608Y-58307926D01*
X152643514Y-58359303D01*
X152560803Y-58442014D01*
X152509426Y-58547108D01*
X152499500Y-58615239D01*
X152499500Y-58675500D01*
X152479815Y-58742539D01*
X152427011Y-58788294D01*
X152375500Y-58799500D01*
X151409480Y-58799500D01*
X151342441Y-58779815D01*
X151308968Y-58743371D01*
X151307311Y-58744595D01*
X151282347Y-58710770D01*
X151221150Y-58627850D01*
X151111882Y-58547207D01*
X151111880Y-58547206D01*
X150983700Y-58502353D01*
X150953270Y-58499500D01*
X150953266Y-58499500D01*
X149944734Y-58499500D01*
X149944730Y-58499500D01*
X149914300Y-58502353D01*
X149914298Y-58502353D01*
X149786119Y-58547206D01*
X149786117Y-58547207D01*
X149676850Y-58627850D01*
X149596207Y-58737117D01*
X149596206Y-58737119D01*
X149551353Y-58865298D01*
X149551353Y-58865300D01*
X149548500Y-58895730D01*
X149548500Y-59704269D01*
X149551353Y-59734699D01*
X149551353Y-59734701D01*
X149596206Y-59862880D01*
X149596207Y-59862882D01*
X149676850Y-59972150D01*
X149786118Y-60052793D01*
X149828845Y-60067744D01*
X149914299Y-60097646D01*
X149944730Y-60100500D01*
X149944734Y-60100500D01*
X150024500Y-60100500D01*
X150091539Y-60120185D01*
X150137294Y-60172989D01*
X150148500Y-60224500D01*
X150148500Y-61538911D01*
X150128815Y-61605950D01*
X150112181Y-61626592D01*
X148610181Y-63128592D01*
X148548858Y-63162077D01*
X148479166Y-63157093D01*
X148423233Y-63115221D01*
X148398816Y-63049757D01*
X148398500Y-63040911D01*
X148398500Y-62676730D01*
X148395646Y-62646300D01*
X148395646Y-62646298D01*
X148350793Y-62518119D01*
X148350792Y-62518117D01*
X148346631Y-62512479D01*
X148270150Y-62408850D01*
X148160882Y-62328207D01*
X148157278Y-62326946D01*
X148081544Y-62300445D01*
X148024769Y-62259723D01*
X147999022Y-62194770D01*
X147998500Y-62183404D01*
X147998500Y-57924500D01*
X148018185Y-57857461D01*
X148070989Y-57811706D01*
X148122500Y-57800500D01*
X149488520Y-57800500D01*
X149555559Y-57820185D01*
X149589031Y-57856628D01*
X149590689Y-57855405D01*
X149596206Y-57862880D01*
X149596207Y-57862882D01*
X149676850Y-57972150D01*
X149786118Y-58052793D01*
X149805400Y-58059540D01*
X149914299Y-58097646D01*
X149944730Y-58100500D01*
X149944734Y-58100500D01*
X150953270Y-58100500D01*
X150983699Y-58097646D01*
X150983701Y-58097646D01*
X151047790Y-58075219D01*
X151111882Y-58052793D01*
X151221150Y-57972150D01*
X151301793Y-57862882D01*
X151324219Y-57798790D01*
X151346646Y-57734701D01*
X151346646Y-57734699D01*
X151349500Y-57704269D01*
X151349500Y-56895730D01*
X151346646Y-56865300D01*
X151346646Y-56865298D01*
X151310279Y-56761371D01*
X151301793Y-56737118D01*
X151221150Y-56627850D01*
X151111882Y-56547207D01*
X151111880Y-56547206D01*
X150983700Y-56502353D01*
X150953270Y-56499500D01*
X150953266Y-56499500D01*
X149944734Y-56499500D01*
X149944730Y-56499500D01*
X149914300Y-56502353D01*
X149914298Y-56502353D01*
X149786119Y-56547206D01*
X149786117Y-56547207D01*
X149676850Y-56627850D01*
X149597993Y-56734699D01*
X149590689Y-56744595D01*
X149588714Y-56743137D01*
X149549420Y-56783515D01*
X149488520Y-56799500D01*
X147323106Y-56799500D01*
X147271697Y-56813275D01*
X147239605Y-56817500D01*
X145156480Y-56817500D01*
X145089441Y-56797815D01*
X145055968Y-56761371D01*
X145054311Y-56762595D01*
X145048793Y-56755118D01*
X144968150Y-56645850D01*
X144858882Y-56565207D01*
X144858880Y-56565206D01*
X144730700Y-56520353D01*
X144700270Y-56517500D01*
X144700266Y-56517500D01*
X143691734Y-56517500D01*
X143691730Y-56517500D01*
X143661300Y-56520353D01*
X143661298Y-56520353D01*
X143533119Y-56565206D01*
X143533117Y-56565207D01*
X143478090Y-56605819D01*
X143423850Y-56645850D01*
X143352050Y-56743137D01*
X143337689Y-56762595D01*
X143335714Y-56761137D01*
X143296420Y-56801515D01*
X143235520Y-56817500D01*
X142489480Y-56817500D01*
X142422441Y-56797815D01*
X142388968Y-56761371D01*
X142387311Y-56762595D01*
X142381793Y-56755118D01*
X142301150Y-56645850D01*
X142191882Y-56565207D01*
X142191880Y-56565206D01*
X142063700Y-56520353D01*
X142033270Y-56517500D01*
X142033266Y-56517500D01*
X141024734Y-56517500D01*
X141024730Y-56517500D01*
X140994300Y-56520353D01*
X140994298Y-56520353D01*
X140866119Y-56565206D01*
X140866117Y-56565207D01*
X140811090Y-56605819D01*
X140756850Y-56645850D01*
X140685050Y-56743137D01*
X140670689Y-56762595D01*
X140668714Y-56761137D01*
X140629420Y-56801515D01*
X140568520Y-56817500D01*
X136523255Y-56817500D01*
X136456216Y-56797815D01*
X136410461Y-56745011D01*
X136400517Y-56675853D01*
X136429542Y-56612297D01*
X136435574Y-56605819D01*
X137029574Y-56011819D01*
X137090897Y-55978334D01*
X137117255Y-55975500D01*
X137515260Y-55975500D01*
X137544849Y-55972725D01*
X137669475Y-55929116D01*
X137775711Y-55850711D01*
X137775713Y-55850707D01*
X137782282Y-55844140D01*
X137783220Y-55845078D01*
X137831242Y-55808616D01*
X137875366Y-55800500D01*
X152141324Y-55800500D01*
X152208363Y-55820185D01*
X152229005Y-55836819D01*
X153413181Y-57020995D01*
X153446666Y-57082318D01*
X153449500Y-57108676D01*
X153449500Y-57981760D01*
X153459426Y-58049891D01*
X153510803Y-58154985D01*
X153593514Y-58237696D01*
X153593515Y-58237696D01*
X153593517Y-58237698D01*
X153698607Y-58289073D01*
X153732673Y-58294036D01*
X153766739Y-58299000D01*
X154009510Y-58299000D01*
X154076549Y-58318685D01*
X154122304Y-58371489D01*
X154132248Y-58440647D01*
X154128586Y-58457595D01*
X154102900Y-58546004D01*
X154102899Y-58546010D01*
X154100000Y-58582850D01*
X154100000Y-58986000D01*
X154650000Y-58986000D01*
X155150000Y-58986000D01*
X155700000Y-58986000D01*
X155700000Y-58582865D01*
X155699999Y-58582850D01*
X155697100Y-58546010D01*
X155697099Y-58546004D01*
X155651283Y-58388306D01*
X155651282Y-58388303D01*
X155567685Y-58246947D01*
X155567678Y-58246938D01*
X155451561Y-58130821D01*
X155451552Y-58130814D01*
X155310196Y-58047217D01*
X155310193Y-58047216D01*
X155152494Y-58001400D01*
X155152497Y-58001400D01*
X155150000Y-58001203D01*
X155150000Y-58986000D01*
X154650000Y-58986000D01*
X154650000Y-58001203D01*
X154647505Y-58001400D01*
X154609093Y-58012560D01*
X154539224Y-58012359D01*
X154480554Y-57974416D01*
X154451712Y-57910778D01*
X154450500Y-57893483D01*
X154450500Y-56740239D01*
X154440573Y-56672108D01*
X154440573Y-56672107D01*
X154389198Y-56567017D01*
X154306483Y-56484302D01*
X154296958Y-56479645D01*
X154263742Y-56455928D01*
X152707316Y-54899502D01*
X152707314Y-54899500D01*
X152650250Y-54866554D01*
X152593187Y-54833608D01*
X152529539Y-54816554D01*
X152465892Y-54799500D01*
X152465891Y-54799500D01*
X137875366Y-54799500D01*
X137808327Y-54779815D01*
X137782519Y-54755622D01*
X137782282Y-54755860D01*
X137775710Y-54749288D01*
X137669476Y-54670884D01*
X137544848Y-54627274D01*
X137544849Y-54627274D01*
X137515260Y-54624500D01*
X137515256Y-54624500D01*
X136834744Y-54624500D01*
X136834740Y-54624500D01*
X136805150Y-54627274D01*
X136680523Y-54670884D01*
X136574289Y-54749288D01*
X136574288Y-54749289D01*
X136495884Y-54855523D01*
X136452274Y-54980150D01*
X136449500Y-55009739D01*
X136449500Y-55407745D01*
X136429815Y-55474784D01*
X136413181Y-55495426D01*
X136362181Y-55546426D01*
X136300858Y-55579911D01*
X136231166Y-55574927D01*
X136175233Y-55533055D01*
X136150816Y-55467591D01*
X136150500Y-55458745D01*
X136150500Y-55009739D01*
X136147725Y-54980150D01*
X136104115Y-54855523D01*
X136025711Y-54749289D01*
X136025710Y-54749288D01*
X135919476Y-54670884D01*
X135794848Y-54627274D01*
X135794849Y-54627274D01*
X135765260Y-54624500D01*
X135765256Y-54624500D01*
X135084744Y-54624500D01*
X135084740Y-54624500D01*
X135055150Y-54627274D01*
X134930523Y-54670884D01*
X134824289Y-54749288D01*
X134817718Y-54755860D01*
X134816779Y-54754921D01*
X134768758Y-54791384D01*
X134724634Y-54799500D01*
X132534108Y-54799500D01*
X132406812Y-54833608D01*
X132292686Y-54899500D01*
X132292683Y-54899502D01*
X131429005Y-55763181D01*
X131367682Y-55796666D01*
X131341324Y-55799500D01*
X130760480Y-55799500D01*
X130693441Y-55779815D01*
X130659968Y-55743371D01*
X130658311Y-55744595D01*
X130652792Y-55737117D01*
X130572150Y-55627850D01*
X130462882Y-55547207D01*
X130462880Y-55547206D01*
X130334700Y-55502353D01*
X130304270Y-55499500D01*
X130304266Y-55499500D01*
X129295734Y-55499500D01*
X129295730Y-55499500D01*
X129265300Y-55502353D01*
X129265298Y-55502353D01*
X129137119Y-55547206D01*
X129137117Y-55547207D01*
X129027850Y-55627850D01*
X128947207Y-55737117D01*
X128947206Y-55737119D01*
X128902353Y-55865298D01*
X128902353Y-55865300D01*
X128899500Y-55895730D01*
X128899500Y-56704269D01*
X128902353Y-56734699D01*
X128903964Y-56742073D01*
X128902698Y-56742349D01*
X128905861Y-56804327D01*
X128871130Y-56864954D01*
X128809136Y-56897179D01*
X128785258Y-56899500D01*
X128114742Y-56899500D01*
X128047703Y-56879815D01*
X128001948Y-56827011D01*
X127992004Y-56757853D01*
X127997513Y-56735307D01*
X127997646Y-56734699D01*
X128000500Y-56704269D01*
X128000500Y-55895730D01*
X127997646Y-55865300D01*
X127997646Y-55865298D01*
X127952793Y-55737119D01*
X127952792Y-55737117D01*
X127872150Y-55627850D01*
X127762882Y-55547207D01*
X127762880Y-55547206D01*
X127634700Y-55502353D01*
X127604270Y-55499500D01*
X127604266Y-55499500D01*
X126595734Y-55499500D01*
X126595730Y-55499500D01*
X126565300Y-55502353D01*
X126565298Y-55502353D01*
X126437119Y-55547206D01*
X126437117Y-55547207D01*
X126327850Y-55627850D01*
X126241689Y-55744595D01*
X126239714Y-55743137D01*
X126200420Y-55783515D01*
X126139520Y-55799500D01*
X124128795Y-55799500D01*
X124001500Y-55833608D01*
X123887374Y-55899500D01*
X123887371Y-55899502D01*
X119792502Y-59994371D01*
X119792500Y-59994374D01*
X119726608Y-60108500D01*
X119711718Y-60164073D01*
X119692500Y-60235796D01*
X119692500Y-69848592D01*
X119692500Y-69980376D01*
X119716238Y-70068970D01*
X119726609Y-70107672D01*
X119726609Y-70107673D01*
X119741809Y-70134000D01*
X119758282Y-70201900D01*
X119735429Y-70267927D01*
X119680508Y-70311118D01*
X119634422Y-70320000D01*
X119143989Y-70320000D01*
X119076950Y-70300315D01*
X119056308Y-70283681D01*
X118981427Y-70208800D01*
X118839667Y-70121361D01*
X118839662Y-70121359D01*
X118681561Y-70068970D01*
X118583974Y-70059000D01*
X118064034Y-70059000D01*
X118064018Y-70059001D01*
X117966437Y-70068970D01*
X117808337Y-70121359D01*
X117808332Y-70121361D01*
X117666572Y-70208800D01*
X117548800Y-70326572D01*
X117461361Y-70468332D01*
X117461359Y-70468337D01*
X117411712Y-70618159D01*
X117411713Y-70618161D01*
X118324000Y-71530447D01*
X118589871Y-71796318D01*
X118623356Y-71857641D01*
X118618372Y-71927333D01*
X118589871Y-71971680D01*
X117411713Y-73149837D01*
X117411713Y-73149838D01*
X117461359Y-73299662D01*
X117461361Y-73299667D01*
X117548800Y-73441427D01*
X117628692Y-73521319D01*
X117662177Y-73582642D01*
X117657193Y-73652334D01*
X117628692Y-73696681D01*
X117548800Y-73776572D01*
X117461361Y-73918332D01*
X117461359Y-73918337D01*
X117408970Y-74076438D01*
X117399000Y-74174019D01*
X117399000Y-74505447D01*
X118589871Y-75696318D01*
X118623356Y-75757641D01*
X118618372Y-75827333D01*
X118589871Y-75871680D01*
X117399000Y-77062551D01*
X117399000Y-77393965D01*
X117399001Y-77393981D01*
X117408970Y-77491562D01*
X117461359Y-77649662D01*
X117461361Y-77649667D01*
X117548800Y-77791427D01*
X117666572Y-77909199D01*
X117808332Y-77996638D01*
X117808337Y-77996640D01*
X117966438Y-78049029D01*
X118064025Y-78058999D01*
X118583965Y-78058999D01*
X118583981Y-78058998D01*
X118681562Y-78049029D01*
X118839662Y-77996640D01*
X118839667Y-77996638D01*
X118981427Y-77909199D01*
X119041308Y-77849319D01*
X119102631Y-77815834D01*
X119128989Y-77813000D01*
X119321441Y-77813000D01*
X119388480Y-77832685D01*
X119419813Y-77861509D01*
X119423498Y-77866311D01*
X119845007Y-78287819D01*
X119878492Y-78349142D01*
X119873508Y-78418833D01*
X119831637Y-78474767D01*
X119766172Y-78499184D01*
X119757326Y-78499500D01*
X100624500Y-78499500D01*
X100557461Y-78479815D01*
X100511706Y-78427011D01*
X100500500Y-78375500D01*
X100500500Y-75900000D01*
X106194355Y-75900000D01*
X106214859Y-76068869D01*
X106214860Y-76068874D01*
X106275182Y-76227931D01*
X106323574Y-76298038D01*
X106371817Y-76367929D01*
X106445185Y-76432927D01*
X106499150Y-76480736D01*
X106649773Y-76559789D01*
X106649775Y-76559790D01*
X106814944Y-76600500D01*
X106985056Y-76600500D01*
X107150225Y-76559790D01*
X107229692Y-76518081D01*
X107300849Y-76480736D01*
X107300850Y-76480734D01*
X107300852Y-76480734D01*
X107428183Y-76367929D01*
X107524818Y-76227930D01*
X107585140Y-76068872D01*
X107605645Y-75900000D01*
X107585140Y-75731128D01*
X107573334Y-75699999D01*
X107548854Y-75635448D01*
X107524818Y-75572070D01*
X107506096Y-75544947D01*
X107423922Y-75425898D01*
X107426186Y-75424334D01*
X107401961Y-75372774D01*
X107400500Y-75353796D01*
X107400500Y-73058676D01*
X107420185Y-72991637D01*
X107436819Y-72970995D01*
X107986995Y-72420819D01*
X108048318Y-72387334D01*
X108074676Y-72384500D01*
X109782000Y-72384500D01*
X109849039Y-72404185D01*
X109894794Y-72456989D01*
X109906000Y-72508500D01*
X109906000Y-77813000D01*
X114272011Y-77813000D01*
X114339050Y-77832685D01*
X114359692Y-77849319D01*
X114419572Y-77909199D01*
X114561332Y-77996638D01*
X114561337Y-77996640D01*
X114719438Y-78049029D01*
X114817025Y-78058999D01*
X115336965Y-78058999D01*
X115336981Y-78058998D01*
X115434562Y-78049029D01*
X115592662Y-77996640D01*
X115592667Y-77996638D01*
X115734427Y-77909199D01*
X115852199Y-77791427D01*
X115939638Y-77649667D01*
X115939640Y-77649662D01*
X115992029Y-77491561D01*
X116001999Y-77393980D01*
X116001999Y-77062552D01*
X114811128Y-75871681D01*
X114777643Y-75810358D01*
X114779528Y-75783999D01*
X115430553Y-75783999D01*
X115430553Y-75784000D01*
X116001998Y-76355446D01*
X117399000Y-76355446D01*
X117970447Y-75784000D01*
X117970447Y-75783999D01*
X117399000Y-75212552D01*
X117399000Y-76355446D01*
X116001998Y-76355446D01*
X116001999Y-76355445D01*
X116001999Y-75212553D01*
X116001998Y-75212552D01*
X115430553Y-75783999D01*
X114779528Y-75783999D01*
X114782627Y-75740666D01*
X114811128Y-75696319D01*
X115077000Y-75430447D01*
X116001998Y-74505447D01*
X116001999Y-74505446D01*
X116001999Y-74174034D01*
X116001998Y-74174019D01*
X115992029Y-74076437D01*
X115939640Y-73918337D01*
X115939638Y-73918332D01*
X115852199Y-73776572D01*
X115772308Y-73696681D01*
X115738823Y-73635358D01*
X115743807Y-73565666D01*
X115772308Y-73521319D01*
X115852199Y-73441427D01*
X115939642Y-73299659D01*
X115989286Y-73149840D01*
X115989285Y-73149837D01*
X114811128Y-71971680D01*
X114777643Y-71910357D01*
X114779528Y-71883999D01*
X115430553Y-71883999D01*
X115430553Y-71884000D01*
X116001998Y-72455446D01*
X117399000Y-72455446D01*
X117970447Y-71884000D01*
X117970447Y-71883999D01*
X117399000Y-71312552D01*
X117399000Y-72455446D01*
X116001998Y-72455446D01*
X116001999Y-72455445D01*
X116001999Y-71312553D01*
X116001998Y-71312552D01*
X115430553Y-71883999D01*
X114779528Y-71883999D01*
X114782627Y-71840665D01*
X114811128Y-71796318D01*
X115077000Y-71530447D01*
X115989285Y-70618161D01*
X115989285Y-70618159D01*
X115939642Y-70468339D01*
X115852199Y-70326572D01*
X115734427Y-70208800D01*
X115592667Y-70121361D01*
X115592662Y-70121359D01*
X115434561Y-70068970D01*
X115336974Y-70059000D01*
X114817034Y-70059000D01*
X114817018Y-70059001D01*
X114719437Y-70068970D01*
X114561337Y-70121359D01*
X114561332Y-70121361D01*
X114419572Y-70208800D01*
X114389181Y-70239192D01*
X114327858Y-70272677D01*
X114258166Y-70267693D01*
X114202233Y-70225821D01*
X114177816Y-70160357D01*
X114177500Y-70151511D01*
X114177500Y-69425944D01*
X114177500Y-69425942D01*
X114136577Y-69273215D01*
X114057519Y-69136284D01*
X112452449Y-67531214D01*
X112418964Y-67469891D01*
X112423948Y-67400199D01*
X112452449Y-67355852D01*
X112457147Y-67351153D01*
X112457148Y-67351151D01*
X112457150Y-67351150D01*
X112537793Y-67241882D01*
X112566478Y-67159906D01*
X112582646Y-67113701D01*
X112582646Y-67113699D01*
X112585500Y-67083269D01*
X112585500Y-67078986D01*
X113785001Y-67078986D01*
X113795494Y-67181697D01*
X113850641Y-67348119D01*
X113850643Y-67348124D01*
X113942684Y-67497345D01*
X114066654Y-67621315D01*
X114215875Y-67713356D01*
X114215880Y-67713358D01*
X114382302Y-67768505D01*
X114382309Y-67768506D01*
X114485019Y-67778999D01*
X115784999Y-67778999D01*
X116285000Y-67778999D01*
X117584972Y-67778999D01*
X117584986Y-67778998D01*
X117687697Y-67768505D01*
X117854119Y-67713358D01*
X117854124Y-67713356D01*
X118003345Y-67621315D01*
X118127315Y-67497345D01*
X118219356Y-67348124D01*
X118219358Y-67348119D01*
X118274505Y-67181697D01*
X118274506Y-67181690D01*
X118284999Y-67078986D01*
X118285000Y-67078973D01*
X118285000Y-66379000D01*
X116285000Y-66379000D01*
X116285000Y-67778999D01*
X115784999Y-67778999D01*
X115785000Y-67778998D01*
X115785000Y-66379000D01*
X113785001Y-66379000D01*
X113785001Y-67078986D01*
X112585500Y-67078986D01*
X112585500Y-65179013D01*
X113785000Y-65179013D01*
X113785000Y-65879000D01*
X115785000Y-65879000D01*
X116285000Y-65879000D01*
X118284999Y-65879000D01*
X118284999Y-65179028D01*
X118284998Y-65179013D01*
X118274505Y-65076302D01*
X118219358Y-64909880D01*
X118219356Y-64909875D01*
X118127315Y-64760654D01*
X118003345Y-64636684D01*
X117854124Y-64544643D01*
X117854119Y-64544641D01*
X117687697Y-64489494D01*
X117687690Y-64489493D01*
X117584986Y-64479000D01*
X116285000Y-64479000D01*
X116285000Y-65879000D01*
X115785000Y-65879000D01*
X115785000Y-64479000D01*
X114485028Y-64479000D01*
X114485012Y-64479001D01*
X114382302Y-64489494D01*
X114215880Y-64544641D01*
X114215875Y-64544643D01*
X114066654Y-64636684D01*
X113942684Y-64760654D01*
X113850643Y-64909875D01*
X113850641Y-64909880D01*
X113795494Y-65076302D01*
X113795493Y-65076309D01*
X113785000Y-65179013D01*
X112585500Y-65179013D01*
X112585500Y-65174730D01*
X112582646Y-65144301D01*
X112564109Y-65091326D01*
X112559533Y-65026180D01*
X112572500Y-64960993D01*
X112572500Y-59022534D01*
X112592185Y-58955495D01*
X112609955Y-58935571D01*
X112609049Y-58934665D01*
X112613351Y-58930361D01*
X112613357Y-58930357D01*
X112732136Y-58785625D01*
X112820396Y-58620501D01*
X112874747Y-58441331D01*
X112893099Y-58255000D01*
X112874747Y-58068669D01*
X112820396Y-57889499D01*
X112815790Y-57880882D01*
X112732137Y-57724376D01*
X112732135Y-57724373D01*
X112613357Y-57579642D01*
X112468626Y-57460864D01*
X112468623Y-57460862D01*
X112303502Y-57372604D01*
X112124333Y-57318253D01*
X112124331Y-57318252D01*
X111938000Y-57299901D01*
X111751668Y-57318252D01*
X111751666Y-57318253D01*
X111572497Y-57372604D01*
X111407376Y-57460862D01*
X111407373Y-57460864D01*
X111262642Y-57579642D01*
X111143864Y-57724373D01*
X111143862Y-57724376D01*
X111055604Y-57889497D01*
X111001253Y-58068666D01*
X111001252Y-58068668D01*
X110982901Y-58255000D01*
X111001252Y-58441331D01*
X111001253Y-58441333D01*
X111055604Y-58620502D01*
X111143859Y-58785618D01*
X111147243Y-58790681D01*
X111146090Y-58791451D01*
X111170665Y-58849302D01*
X111171500Y-58863666D01*
X111171500Y-64550481D01*
X111151815Y-64617520D01*
X111135181Y-64638162D01*
X111031162Y-64742181D01*
X110969839Y-64775666D01*
X110943481Y-64778500D01*
X109080730Y-64778500D01*
X109050300Y-64781353D01*
X109050298Y-64781353D01*
X108922119Y-64826206D01*
X108922117Y-64826207D01*
X108812850Y-64906850D01*
X108732207Y-65016117D01*
X108732206Y-65016119D01*
X108687353Y-65144298D01*
X108687353Y-65144300D01*
X108684500Y-65174730D01*
X108684500Y-67083269D01*
X108687353Y-67113699D01*
X108687353Y-67113701D01*
X108730837Y-67237968D01*
X108732207Y-67241882D01*
X108812850Y-67351150D01*
X108922118Y-67431793D01*
X108964845Y-67446744D01*
X109050299Y-67476646D01*
X109080730Y-67479500D01*
X109080734Y-67479500D01*
X110650903Y-67479500D01*
X110717942Y-67499185D01*
X110738584Y-67515819D01*
X112940181Y-69717416D01*
X112973666Y-69778739D01*
X112976500Y-69805097D01*
X112976500Y-70196000D01*
X112956815Y-70263039D01*
X112904011Y-70308794D01*
X112852500Y-70320000D01*
X109906000Y-70320000D01*
X109906000Y-71259500D01*
X109886315Y-71326539D01*
X109833511Y-71372294D01*
X109782000Y-71383500D01*
X107750108Y-71383500D01*
X107622812Y-71417608D01*
X107508686Y-71483500D01*
X107508683Y-71483502D01*
X106499502Y-72492683D01*
X106499500Y-72492686D01*
X106433608Y-72606812D01*
X106399500Y-72734108D01*
X106399500Y-75353796D01*
X106379815Y-75420835D01*
X106376015Y-75425854D01*
X106376078Y-75425898D01*
X106275182Y-75572068D01*
X106214860Y-75731125D01*
X106214859Y-75731130D01*
X106194355Y-75900000D01*
X100500500Y-75900000D01*
X100500500Y-50624500D01*
X100520185Y-50557461D01*
X100572989Y-50511706D01*
X100624500Y-50500500D01*
X162375500Y-50500500D01*
X162442539Y-50520185D01*
G37*
%TD.AperFunction*%
%TA.AperFunction,Conductor*%
G36*
X146940539Y-57838185D02*
G01*
X146986294Y-57890989D01*
X146997500Y-57942500D01*
X146997500Y-62183404D01*
X146977815Y-62250443D01*
X146925011Y-62296198D01*
X146914456Y-62300445D01*
X146835117Y-62328207D01*
X146725850Y-62408850D01*
X146645207Y-62518117D01*
X146645206Y-62518119D01*
X146600353Y-62646298D01*
X146600353Y-62646300D01*
X146597500Y-62676730D01*
X146597500Y-63485269D01*
X146600353Y-63515699D01*
X146600353Y-63515701D01*
X146636341Y-63618545D01*
X146639903Y-63688324D01*
X146605175Y-63748951D01*
X146543182Y-63781179D01*
X146519300Y-63783500D01*
X144792688Y-63783500D01*
X144754474Y-63793739D01*
X144716259Y-63803979D01*
X144716258Y-63803980D01*
X144674399Y-63828147D01*
X144650233Y-63842100D01*
X144650228Y-63842103D01*
X144647736Y-63843541D01*
X144298536Y-64192742D01*
X144237213Y-64226227D01*
X144167521Y-64221243D01*
X144123174Y-64192742D01*
X144044485Y-64114053D01*
X143939391Y-64062676D01*
X143871261Y-64052750D01*
X143871260Y-64052750D01*
X143504740Y-64052750D01*
X143504739Y-64052750D01*
X143436608Y-64062676D01*
X143331514Y-64114053D01*
X143248803Y-64196764D01*
X143197426Y-64301858D01*
X143187500Y-64369989D01*
X143187500Y-66086510D01*
X143197426Y-66154641D01*
X143248803Y-66259735D01*
X143331514Y-66342446D01*
X143331515Y-66342446D01*
X143331517Y-66342448D01*
X143436607Y-66393823D01*
X143470673Y-66398786D01*
X143504739Y-66403750D01*
X143504740Y-66403750D01*
X143871261Y-66403750D01*
X143893971Y-66400441D01*
X143939393Y-66393823D01*
X144044483Y-66342448D01*
X144127198Y-66259733D01*
X144178573Y-66154643D01*
X144188500Y-66086510D01*
X144188500Y-65204083D01*
X144208185Y-65137044D01*
X144224819Y-65116402D01*
X144920402Y-64420819D01*
X144981725Y-64387334D01*
X145008083Y-64384500D01*
X146517201Y-64384500D01*
X146584240Y-64404185D01*
X146629995Y-64456989D01*
X146639939Y-64526147D01*
X146634243Y-64549450D01*
X146629457Y-64563129D01*
X146600353Y-64646301D01*
X146597500Y-64676730D01*
X146597500Y-65485269D01*
X146600353Y-65515699D01*
X146600353Y-65515701D01*
X146645206Y-65643880D01*
X146645207Y-65643882D01*
X146725850Y-65753150D01*
X146835118Y-65833793D01*
X146865117Y-65844290D01*
X146884993Y-65851245D01*
X146941768Y-65891967D01*
X146967515Y-65956920D01*
X146954058Y-66025481D01*
X146931718Y-66055967D01*
X146252505Y-66735181D01*
X146191182Y-66768666D01*
X146164824Y-66771500D01*
X140517676Y-66771500D01*
X140450637Y-66751815D01*
X140429995Y-66735181D01*
X140414819Y-66720005D01*
X140381334Y-66658682D01*
X140378500Y-66632324D01*
X140378500Y-64369989D01*
X140368573Y-64301858D01*
X140368573Y-64301857D01*
X140317198Y-64196767D01*
X140317196Y-64196765D01*
X140317196Y-64196764D01*
X140234485Y-64114053D01*
X140129391Y-64062676D01*
X140061261Y-64052750D01*
X140061260Y-64052750D01*
X139694740Y-64052750D01*
X139694739Y-64052750D01*
X139626608Y-64062676D01*
X139521514Y-64114053D01*
X139438803Y-64196764D01*
X139387426Y-64301858D01*
X139377500Y-64369989D01*
X139377500Y-66956891D01*
X139411608Y-67084187D01*
X139444554Y-67141250D01*
X139477500Y-67198314D01*
X139858500Y-67579314D01*
X139951686Y-67672500D01*
X140032245Y-67719011D01*
X140065814Y-67738392D01*
X140193107Y-67772500D01*
X140193108Y-67772500D01*
X140193109Y-67772500D01*
X146489390Y-67772500D01*
X146489392Y-67772500D01*
X146616686Y-67738392D01*
X146730814Y-67672500D01*
X147898499Y-66504815D01*
X147911008Y-66483150D01*
X147964392Y-66390686D01*
X147980327Y-66331215D01*
X147998500Y-66263393D01*
X147998500Y-66131608D01*
X147998500Y-65978595D01*
X148018185Y-65911556D01*
X148070989Y-65865801D01*
X148081523Y-65861561D01*
X148160882Y-65833793D01*
X148270150Y-65753150D01*
X148350793Y-65643882D01*
X148377083Y-65568750D01*
X148395646Y-65515701D01*
X148395646Y-65515699D01*
X148398500Y-65485269D01*
X148398500Y-65372948D01*
X148418185Y-65305909D01*
X148434819Y-65285267D01*
X151783267Y-61936819D01*
X151844590Y-61903334D01*
X151870948Y-61900500D01*
X159841324Y-61900500D01*
X159908363Y-61920185D01*
X159929005Y-61936819D01*
X161663181Y-63670995D01*
X161696666Y-63732318D01*
X161699500Y-63758676D01*
X161699500Y-76141324D01*
X161679815Y-76208363D01*
X161663181Y-76229005D01*
X160229005Y-77663181D01*
X160167682Y-77696666D01*
X160141324Y-77699500D01*
X126699500Y-77699500D01*
X126632461Y-77679815D01*
X126586706Y-77627011D01*
X126575500Y-77575500D01*
X126575500Y-76909739D01*
X126572725Y-76880150D01*
X126529116Y-76755525D01*
X126460505Y-76662560D01*
X126436535Y-76596931D01*
X126451851Y-76528761D01*
X126495180Y-76483388D01*
X126598037Y-76419945D01*
X126719944Y-76298038D01*
X126719947Y-76298034D01*
X126810448Y-76151311D01*
X126810453Y-76151300D01*
X126864680Y-75987652D01*
X126874999Y-75886654D01*
X126875000Y-75886641D01*
X126875000Y-75787500D01*
X124925001Y-75787500D01*
X124925001Y-75886654D01*
X124935319Y-75987652D01*
X124989546Y-76151300D01*
X124989551Y-76151311D01*
X125080052Y-76298034D01*
X125080055Y-76298038D01*
X125201960Y-76419943D01*
X125304820Y-76483388D01*
X125351544Y-76535336D01*
X125362767Y-76604299D01*
X125339494Y-76662560D01*
X125270883Y-76755525D01*
X125227274Y-76880150D01*
X125224500Y-76909739D01*
X125224500Y-77575500D01*
X125204815Y-77642539D01*
X125152011Y-77688294D01*
X125100500Y-77699500D01*
X123619000Y-77699500D01*
X123551961Y-77679815D01*
X123506206Y-77627011D01*
X123495000Y-77575500D01*
X123495000Y-75188345D01*
X124925000Y-75188345D01*
X124925000Y-75287500D01*
X125650000Y-75287500D01*
X126150000Y-75287500D01*
X126874999Y-75287500D01*
X126874999Y-75188360D01*
X126874998Y-75188345D01*
X126864680Y-75087347D01*
X126810453Y-74923699D01*
X126810448Y-74923688D01*
X126719947Y-74776965D01*
X126719944Y-74776961D01*
X126598038Y-74655055D01*
X126598034Y-74655052D01*
X126451311Y-74564551D01*
X126451300Y-74564546D01*
X126287652Y-74510319D01*
X126186654Y-74500000D01*
X126150000Y-74500000D01*
X126150000Y-75287500D01*
X125650000Y-75287500D01*
X125650000Y-74500000D01*
X125613361Y-74500000D01*
X125613343Y-74500001D01*
X125512347Y-74510319D01*
X125348699Y-74564546D01*
X125348688Y-74564551D01*
X125201965Y-74655052D01*
X125201961Y-74655055D01*
X125080055Y-74776961D01*
X125080052Y-74776965D01*
X124989551Y-74923688D01*
X124989546Y-74923699D01*
X124935319Y-75087347D01*
X124925000Y-75188345D01*
X123495000Y-75188345D01*
X123495000Y-71622654D01*
X124923501Y-71622654D01*
X124933819Y-71723652D01*
X124988046Y-71887300D01*
X124988051Y-71887311D01*
X125078552Y-72034034D01*
X125078555Y-72034038D01*
X125200461Y-72155944D01*
X125200465Y-72155947D01*
X125347188Y-72246448D01*
X125347199Y-72246453D01*
X125510847Y-72300680D01*
X125611851Y-72310999D01*
X125711000Y-72310998D01*
X125711000Y-71586000D01*
X124923501Y-71586000D01*
X124923501Y-71622654D01*
X123495000Y-71622654D01*
X123495000Y-71049345D01*
X124923500Y-71049345D01*
X124923500Y-71086000D01*
X125711000Y-71086000D01*
X125711000Y-70360999D01*
X125611860Y-70361000D01*
X125611844Y-70361001D01*
X125510847Y-70371319D01*
X125347199Y-70425546D01*
X125347188Y-70425551D01*
X125200465Y-70516052D01*
X125200461Y-70516055D01*
X125078555Y-70637961D01*
X125078552Y-70637965D01*
X124988051Y-70784688D01*
X124988046Y-70784699D01*
X124933819Y-70948347D01*
X124923500Y-71049345D01*
X123495000Y-71049345D01*
X123495000Y-70320000D01*
X122715755Y-70320000D01*
X122648716Y-70300315D01*
X122628074Y-70283681D01*
X121799927Y-69455534D01*
X121766442Y-69394211D01*
X121771426Y-69324519D01*
X121813298Y-69268586D01*
X121872673Y-69244756D01*
X121878053Y-69244103D01*
X121878056Y-69244103D01*
X121878059Y-69244102D01*
X121878061Y-69244102D01*
X121942506Y-69228217D01*
X121947975Y-69226999D01*
X121997328Y-69217183D01*
X122003417Y-69214660D01*
X122021204Y-69208819D01*
X122043225Y-69203393D01*
X122085449Y-69181231D01*
X122095606Y-69176474D01*
X122124811Y-69164378D01*
X122145914Y-69150276D01*
X122157171Y-69143588D01*
X122193852Y-69124337D01*
X122215512Y-69105147D01*
X122228835Y-69094870D01*
X122239542Y-69087717D01*
X122270730Y-69056527D01*
X122276133Y-69051441D01*
X122321183Y-69011532D01*
X122326936Y-69003195D01*
X122333643Y-68995184D01*
X122333246Y-68994858D01*
X122337113Y-68990146D01*
X122337114Y-68990145D01*
X122372034Y-68937882D01*
X122372939Y-68936549D01*
X122417818Y-68871533D01*
X122443587Y-68803581D01*
X122444926Y-68800204D01*
X122466580Y-68747931D01*
X122466646Y-68747599D01*
X122472321Y-68727814D01*
X122478140Y-68712475D01*
X122484637Y-68658953D01*
X122486116Y-68649712D01*
X122493500Y-68612599D01*
X122493500Y-68593476D01*
X122494404Y-68578529D01*
X122498645Y-68543603D01*
X122494404Y-68508674D01*
X122493500Y-68493728D01*
X122493500Y-66959500D01*
X122513185Y-66892461D01*
X122565989Y-66846706D01*
X122617500Y-66835500D01*
X124326029Y-66835500D01*
X124393068Y-66855185D01*
X124429131Y-66890609D01*
X124438447Y-66904552D01*
X124482762Y-66934162D01*
X124504769Y-66948867D01*
X124538191Y-66955515D01*
X124600101Y-66987898D01*
X124634676Y-67048613D01*
X124638000Y-67077132D01*
X124638000Y-67092867D01*
X124618315Y-67159906D01*
X124565511Y-67205661D01*
X124538192Y-67214484D01*
X124504770Y-67221132D01*
X124504769Y-67221132D01*
X124438447Y-67265447D01*
X124394132Y-67331769D01*
X124394131Y-67331770D01*
X124382500Y-67390247D01*
X124382500Y-68279752D01*
X124394131Y-68338229D01*
X124394132Y-68338230D01*
X124438447Y-68404552D01*
X124504769Y-68448867D01*
X124504770Y-68448868D01*
X124563247Y-68460499D01*
X124563250Y-68460500D01*
X124563252Y-68460500D01*
X127252750Y-68460500D01*
X127252751Y-68460499D01*
X127311231Y-68448867D01*
X127330640Y-68435897D01*
X127397318Y-68415020D01*
X127399531Y-68415000D01*
X127866469Y-68415000D01*
X127933508Y-68434685D01*
X127935346Y-68435889D01*
X127954769Y-68448867D01*
X127954772Y-68448867D01*
X127954773Y-68448868D01*
X128013247Y-68460499D01*
X128013250Y-68460500D01*
X128013252Y-68460500D01*
X129183500Y-68460500D01*
X129250539Y-68480185D01*
X129296294Y-68532989D01*
X129307500Y-68584500D01*
X129307500Y-70468904D01*
X129287815Y-70535943D01*
X129235011Y-70581698D01*
X129224455Y-70585945D01*
X129155119Y-70610206D01*
X129155117Y-70610207D01*
X129092191Y-70656649D01*
X129045850Y-70690850D01*
X128976994Y-70784148D01*
X128976266Y-70785134D01*
X128920619Y-70827384D01*
X128876496Y-70835500D01*
X128398866Y-70835500D01*
X128331827Y-70815815D01*
X128306019Y-70791622D01*
X128305782Y-70791860D01*
X128299210Y-70785288D01*
X128192976Y-70706884D01*
X128068348Y-70663274D01*
X128068349Y-70663274D01*
X128038760Y-70660500D01*
X128038756Y-70660500D01*
X127333244Y-70660500D01*
X127333240Y-70660500D01*
X127303650Y-70663274D01*
X127179025Y-70706883D01*
X127086060Y-70775494D01*
X127020430Y-70799464D01*
X126952260Y-70784148D01*
X126906888Y-70740820D01*
X126843443Y-70637960D01*
X126721538Y-70516055D01*
X126721534Y-70516052D01*
X126574811Y-70425551D01*
X126574800Y-70425546D01*
X126411152Y-70371319D01*
X126310154Y-70361000D01*
X126211000Y-70361000D01*
X126211000Y-72310999D01*
X126310140Y-72310999D01*
X126310154Y-72310998D01*
X126411152Y-72300680D01*
X126574800Y-72246453D01*
X126574811Y-72246448D01*
X126721534Y-72155947D01*
X126721538Y-72155944D01*
X126843445Y-72034037D01*
X126906888Y-71931180D01*
X126958836Y-71884455D01*
X127027798Y-71873232D01*
X127086058Y-71896504D01*
X127179024Y-71965115D01*
X127179025Y-71965116D01*
X127303651Y-72008725D01*
X127303650Y-72008725D01*
X127333240Y-72011500D01*
X127333244Y-72011500D01*
X128038760Y-72011500D01*
X128068349Y-72008725D01*
X128099859Y-71997699D01*
X128192975Y-71965116D01*
X128299211Y-71886711D01*
X128299213Y-71886707D01*
X128305782Y-71880140D01*
X128306720Y-71881078D01*
X128354742Y-71844616D01*
X128398866Y-71836500D01*
X128793500Y-71836500D01*
X128860539Y-71856185D01*
X128906294Y-71908989D01*
X128917500Y-71960500D01*
X128917500Y-71967269D01*
X128920353Y-71997699D01*
X128920353Y-71997701D01*
X128965206Y-72125880D01*
X128965207Y-72125882D01*
X129045850Y-72235150D01*
X129155118Y-72315793D01*
X129197845Y-72330744D01*
X129283299Y-72360646D01*
X129313730Y-72363500D01*
X129313734Y-72363500D01*
X130122270Y-72363500D01*
X130152699Y-72360646D01*
X130152701Y-72360646D01*
X130216790Y-72338219D01*
X130280882Y-72315793D01*
X130390150Y-72235150D01*
X130470793Y-72125882D01*
X130501533Y-72038032D01*
X130515646Y-71997701D01*
X130515646Y-71997699D01*
X130518500Y-71967269D01*
X130518500Y-70958730D01*
X130515646Y-70928300D01*
X130515646Y-70928298D01*
X130477887Y-70820392D01*
X130470793Y-70800118D01*
X130390150Y-70690850D01*
X130390148Y-70690848D01*
X130358864Y-70667759D01*
X130316615Y-70612110D01*
X130308500Y-70567990D01*
X130308500Y-68584500D01*
X130328185Y-68517461D01*
X130380989Y-68471706D01*
X130432500Y-68460500D01*
X131602750Y-68460500D01*
X131602751Y-68460499D01*
X131661231Y-68448867D01*
X131680640Y-68435897D01*
X131747318Y-68415020D01*
X131749531Y-68415000D01*
X131750000Y-68415000D01*
X131768933Y-68395731D01*
X131769328Y-68394295D01*
X131777944Y-68386560D01*
X131786446Y-68377909D01*
X131786989Y-68378442D01*
X131821324Y-68347624D01*
X131874800Y-68335500D01*
X131976324Y-68335500D01*
X132043363Y-68355185D01*
X132064005Y-68371819D01*
X132699500Y-69007314D01*
X132792686Y-69100500D01*
X132872823Y-69146767D01*
X132903325Y-69164378D01*
X132906814Y-69166392D01*
X133034108Y-69200500D01*
X135443500Y-69200500D01*
X135510539Y-69220185D01*
X135556294Y-69272989D01*
X135567500Y-69324500D01*
X135567500Y-71119000D01*
X135547815Y-71186039D01*
X135495011Y-71231794D01*
X135443500Y-71243000D01*
X135113493Y-71243000D01*
X135046454Y-71223315D01*
X135013723Y-71192633D01*
X134967711Y-71130289D01*
X134967710Y-71130288D01*
X134861476Y-71051884D01*
X134736848Y-71008274D01*
X134736849Y-71008274D01*
X134707260Y-71005500D01*
X134707256Y-71005500D01*
X134126744Y-71005500D01*
X134126740Y-71005500D01*
X134097150Y-71008274D01*
X133972525Y-71051883D01*
X133939435Y-71076305D01*
X133881894Y-71118771D01*
X133816267Y-71142741D01*
X133808263Y-71143000D01*
X132642500Y-71143000D01*
X132575461Y-71123315D01*
X132529706Y-71070511D01*
X132518500Y-71019000D01*
X132518500Y-70958730D01*
X132515646Y-70928300D01*
X132515646Y-70928298D01*
X132477887Y-70820392D01*
X132470793Y-70800118D01*
X132390150Y-70690850D01*
X132280882Y-70610207D01*
X132280880Y-70610206D01*
X132152700Y-70565353D01*
X132122270Y-70562500D01*
X132122266Y-70562500D01*
X131313734Y-70562500D01*
X131313730Y-70562500D01*
X131283300Y-70565353D01*
X131283298Y-70565353D01*
X131155119Y-70610206D01*
X131155117Y-70610207D01*
X131045850Y-70690850D01*
X130965207Y-70800117D01*
X130965206Y-70800119D01*
X130920353Y-70928298D01*
X130920353Y-70928300D01*
X130917500Y-70958730D01*
X130917500Y-71967269D01*
X130920353Y-71997699D01*
X130920353Y-71997701D01*
X130965206Y-72125880D01*
X130965207Y-72125882D01*
X130993270Y-72163906D01*
X131017241Y-72229533D01*
X131017500Y-72237539D01*
X131017500Y-74738993D01*
X131017500Y-74738995D01*
X131017499Y-74738995D01*
X131044418Y-74874322D01*
X131044421Y-74874332D01*
X131056617Y-74903775D01*
X131062635Y-74926694D01*
X131063064Y-74926589D01*
X131064858Y-74933868D01*
X131125182Y-75092930D01*
X131125182Y-75092931D01*
X131164575Y-75150000D01*
X131221817Y-75232929D01*
X131303406Y-75305210D01*
X131349150Y-75345736D01*
X131492239Y-75420835D01*
X131499775Y-75424790D01*
X131664944Y-75465500D01*
X131835056Y-75465500D01*
X132000225Y-75424790D01*
X132111494Y-75366391D01*
X132150849Y-75345736D01*
X132150850Y-75345734D01*
X132150852Y-75345734D01*
X132278183Y-75232929D01*
X132374818Y-75092930D01*
X132435140Y-74933872D01*
X132455645Y-74765000D01*
X132435140Y-74596128D01*
X132426557Y-74573498D01*
X132418500Y-74529528D01*
X132418500Y-73817654D01*
X133442001Y-73817654D01*
X133452319Y-73918652D01*
X133506546Y-74082300D01*
X133506551Y-74082311D01*
X133597052Y-74229034D01*
X133597055Y-74229038D01*
X133718961Y-74350944D01*
X133718965Y-74350947D01*
X133865688Y-74441448D01*
X133865699Y-74441453D01*
X134029347Y-74495680D01*
X134130352Y-74505999D01*
X134167000Y-74505999D01*
X134667000Y-74505999D01*
X134703640Y-74505999D01*
X134703654Y-74505998D01*
X134804652Y-74495680D01*
X134968300Y-74441453D01*
X134968311Y-74441448D01*
X135115034Y-74350947D01*
X135115038Y-74350944D01*
X135236944Y-74229038D01*
X135236947Y-74229034D01*
X135327448Y-74082311D01*
X135327453Y-74082300D01*
X135381680Y-73918652D01*
X135391999Y-73817654D01*
X135392000Y-73817641D01*
X135392000Y-73718500D01*
X134667000Y-73718500D01*
X134667000Y-74505999D01*
X134167000Y-74505999D01*
X134167000Y-73718500D01*
X133442001Y-73718500D01*
X133442001Y-73817654D01*
X132418500Y-73817654D01*
X132418500Y-72468000D01*
X132438185Y-72400961D01*
X132490989Y-72355206D01*
X132542500Y-72344000D01*
X133674157Y-72344000D01*
X133741196Y-72363685D01*
X133786951Y-72416489D01*
X133796895Y-72485647D01*
X133767870Y-72549203D01*
X133739255Y-72573538D01*
X133718962Y-72586054D01*
X133597055Y-72707961D01*
X133597052Y-72707965D01*
X133506551Y-72854688D01*
X133506546Y-72854699D01*
X133452319Y-73018347D01*
X133442000Y-73119345D01*
X133442000Y-73218500D01*
X135391999Y-73218500D01*
X135391999Y-73119360D01*
X135391998Y-73119345D01*
X135381680Y-73018347D01*
X135327453Y-72854699D01*
X135327448Y-72854688D01*
X135236947Y-72707965D01*
X135236944Y-72707961D01*
X135115038Y-72586055D01*
X135115034Y-72586052D01*
X135012179Y-72522610D01*
X134965454Y-72470662D01*
X134954233Y-72401700D01*
X134977505Y-72343440D01*
X135013723Y-72294365D01*
X135069371Y-72252115D01*
X135113493Y-72244000D01*
X135443500Y-72244000D01*
X135510539Y-72263685D01*
X135556294Y-72316489D01*
X135567500Y-72368000D01*
X135567500Y-72533891D01*
X135601608Y-72661187D01*
X135610455Y-72676510D01*
X135667500Y-72775314D01*
X135667502Y-72775316D01*
X137363181Y-74470995D01*
X137396666Y-74532318D01*
X137399500Y-74558676D01*
X137399500Y-75104269D01*
X137402353Y-75134699D01*
X137403964Y-75142073D01*
X137402698Y-75142349D01*
X137405861Y-75204327D01*
X137371130Y-75264954D01*
X137309136Y-75297179D01*
X137285258Y-75299500D01*
X134105058Y-75299500D01*
X134075383Y-75295897D01*
X133947999Y-75264500D01*
X133777887Y-75264500D01*
X133612716Y-75305210D01*
X133462093Y-75384263D01*
X133334759Y-75497072D01*
X133238125Y-75637068D01*
X133177803Y-75796125D01*
X133177802Y-75796130D01*
X133157298Y-75965000D01*
X133177802Y-76133869D01*
X133177803Y-76133874D01*
X133238125Y-76292931D01*
X133281276Y-76355445D01*
X133334760Y-76432929D01*
X133391717Y-76483388D01*
X133462093Y-76545736D01*
X133573676Y-76604299D01*
X133612718Y-76624790D01*
X133777887Y-76665500D01*
X133947999Y-76665500D01*
X134113168Y-76624790D01*
X134237016Y-76559789D01*
X134263792Y-76545736D01*
X134263793Y-76545734D01*
X134263795Y-76545734D01*
X134391126Y-76432929D01*
X134445567Y-76354058D01*
X134499850Y-76310069D01*
X134547616Y-76300500D01*
X147497261Y-76300500D01*
X147497263Y-76300500D01*
X147624557Y-76266392D01*
X147738685Y-76200500D01*
X148927530Y-75011654D01*
X150525001Y-75011654D01*
X150535319Y-75112652D01*
X150589546Y-75276300D01*
X150589551Y-75276311D01*
X150680052Y-75423034D01*
X150680055Y-75423038D01*
X150801961Y-75544944D01*
X150801965Y-75544947D01*
X150948688Y-75635448D01*
X150948699Y-75635453D01*
X151112347Y-75689680D01*
X151213352Y-75699999D01*
X151250000Y-75699999D01*
X151750000Y-75699999D01*
X151786640Y-75699999D01*
X151786654Y-75699998D01*
X151887652Y-75689680D01*
X152051300Y-75635453D01*
X152051311Y-75635448D01*
X152198034Y-75544947D01*
X152198038Y-75544944D01*
X152317996Y-75424986D01*
X152937501Y-75424986D01*
X152947994Y-75527697D01*
X153003141Y-75694119D01*
X153003143Y-75694124D01*
X153095184Y-75843345D01*
X153219154Y-75967315D01*
X153368375Y-76059356D01*
X153368380Y-76059358D01*
X153534802Y-76114505D01*
X153534809Y-76114506D01*
X153637519Y-76124999D01*
X153774999Y-76124999D01*
X153775000Y-76124998D01*
X153775000Y-75150000D01*
X152937501Y-75150000D01*
X152937501Y-75424986D01*
X152317996Y-75424986D01*
X152319944Y-75423038D01*
X152319947Y-75423034D01*
X152410448Y-75276311D01*
X152410453Y-75276300D01*
X152464680Y-75112652D01*
X152474999Y-75011654D01*
X152475000Y-75011641D01*
X152475000Y-74912500D01*
X151750000Y-74912500D01*
X151750000Y-75699999D01*
X151250000Y-75699999D01*
X151250000Y-74912500D01*
X150525001Y-74912500D01*
X150525001Y-75011654D01*
X148927530Y-75011654D01*
X150464865Y-73474318D01*
X150526188Y-73440834D01*
X150552546Y-73438000D01*
X150803507Y-73438000D01*
X150870546Y-73457685D01*
X150903276Y-73488365D01*
X150924489Y-73517108D01*
X150939494Y-73537439D01*
X150963464Y-73603068D01*
X150948148Y-73671239D01*
X150904821Y-73716610D01*
X150801962Y-73780054D01*
X150680055Y-73901961D01*
X150680052Y-73901965D01*
X150589551Y-74048688D01*
X150589546Y-74048699D01*
X150535319Y-74212347D01*
X150525000Y-74313345D01*
X150525000Y-74412500D01*
X152474999Y-74412500D01*
X152474999Y-74375013D01*
X152937500Y-74375013D01*
X152937500Y-74650000D01*
X153775000Y-74650000D01*
X153775000Y-73675000D01*
X153637527Y-73675000D01*
X153637512Y-73675001D01*
X153534802Y-73685494D01*
X153368380Y-73740641D01*
X153368375Y-73740643D01*
X153219154Y-73832684D01*
X153095184Y-73956654D01*
X153003143Y-74105875D01*
X153003141Y-74105880D01*
X152947994Y-74272302D01*
X152947993Y-74272309D01*
X152937500Y-74375013D01*
X152474999Y-74375013D01*
X152474999Y-74313360D01*
X152474998Y-74313345D01*
X152464680Y-74212347D01*
X152410453Y-74048699D01*
X152410448Y-74048688D01*
X152319947Y-73901965D01*
X152319944Y-73901961D01*
X152198038Y-73780055D01*
X152198034Y-73780052D01*
X152095179Y-73716610D01*
X152048454Y-73664662D01*
X152037233Y-73595700D01*
X152060506Y-73537439D01*
X152129116Y-73444475D01*
X152172725Y-73319849D01*
X152174618Y-73299662D01*
X152175500Y-73290260D01*
X152175500Y-72708899D01*
X152559500Y-72708899D01*
X152562399Y-72745739D01*
X152562400Y-72745745D01*
X152608216Y-72903443D01*
X152608217Y-72903446D01*
X152691814Y-73044802D01*
X152691821Y-73044811D01*
X152807938Y-73160928D01*
X152807947Y-73160935D01*
X152949301Y-73244531D01*
X153107014Y-73290350D01*
X153107011Y-73290350D01*
X153109498Y-73290545D01*
X153109500Y-73290545D01*
X153109500Y-72068250D01*
X152559500Y-72068250D01*
X152559500Y-72708899D01*
X152175500Y-72708899D01*
X152175500Y-72584739D01*
X152172725Y-72555150D01*
X152137836Y-72455445D01*
X152129116Y-72430525D01*
X152109676Y-72404185D01*
X152050711Y-72324289D01*
X152044141Y-72317719D01*
X152045077Y-72316782D01*
X152008611Y-72268744D01*
X152000500Y-72224633D01*
X152000500Y-72038032D01*
X152020185Y-71970993D01*
X152036819Y-71950351D01*
X152401529Y-71585641D01*
X152462852Y-71552156D01*
X152532544Y-71557140D01*
X152549831Y-71568250D01*
X153485500Y-71568250D01*
X153552539Y-71587935D01*
X153598294Y-71640739D01*
X153609500Y-71692250D01*
X153609500Y-73290545D01*
X153609501Y-73290545D01*
X153611986Y-73290350D01*
X153769698Y-73244531D01*
X153911052Y-73160935D01*
X153911061Y-73160928D01*
X154027178Y-73044811D01*
X154027187Y-73044800D01*
X154078919Y-72957325D01*
X154129987Y-72909641D01*
X154198729Y-72897137D01*
X154263318Y-72923782D01*
X154272837Y-72932320D01*
X154273013Y-72932445D01*
X154273014Y-72932445D01*
X154273017Y-72932448D01*
X154378107Y-72983823D01*
X154412173Y-72988786D01*
X154446239Y-72993750D01*
X154446240Y-72993750D01*
X154812761Y-72993750D01*
X154835471Y-72990441D01*
X154880893Y-72983823D01*
X154985983Y-72932448D01*
X155068698Y-72849733D01*
X155120073Y-72744643D01*
X155130000Y-72676510D01*
X155130000Y-70959990D01*
X155129816Y-70958730D01*
X155120073Y-70891858D01*
X155120073Y-70891857D01*
X155068698Y-70786767D01*
X155068696Y-70786765D01*
X155068696Y-70786764D01*
X154985985Y-70704053D01*
X154880891Y-70652676D01*
X154827073Y-70644835D01*
X154763572Y-70615691D01*
X154757270Y-70609812D01*
X154090210Y-69942752D01*
X154090208Y-69942750D01*
X154033144Y-69909804D01*
X153976081Y-69876858D01*
X153912433Y-69859804D01*
X153848786Y-69842750D01*
X153848785Y-69842750D01*
X153264426Y-69842750D01*
X153197387Y-69823065D01*
X153151632Y-69770261D01*
X153141688Y-69701103D01*
X153170713Y-69637547D01*
X153176745Y-69631069D01*
X153927745Y-68880069D01*
X153989068Y-68846584D01*
X154015426Y-68843750D01*
X156388784Y-68843750D01*
X156388786Y-68843750D01*
X156516080Y-68809642D01*
X156630208Y-68743750D01*
X157297272Y-68076685D01*
X157358593Y-68043202D01*
X157367038Y-68041669D01*
X157420893Y-68033823D01*
X157525983Y-67982448D01*
X157608698Y-67899733D01*
X157660073Y-67794643D01*
X157670000Y-67726510D01*
X157670000Y-66009990D01*
X157660073Y-65941857D01*
X157608698Y-65836767D01*
X157608696Y-65836765D01*
X157608696Y-65836764D01*
X157525985Y-65754053D01*
X157420891Y-65702676D01*
X157352761Y-65692750D01*
X157352760Y-65692750D01*
X156986240Y-65692750D01*
X156986239Y-65692750D01*
X156918108Y-65702676D01*
X156813014Y-65754053D01*
X156730303Y-65836764D01*
X156678926Y-65941858D01*
X156669000Y-66009989D01*
X156669000Y-67237968D01*
X156649315Y-67305007D01*
X156632681Y-67325649D01*
X156611681Y-67346649D01*
X156550358Y-67380134D01*
X156480666Y-67375150D01*
X156424733Y-67333278D01*
X156400316Y-67267814D01*
X156400000Y-67258968D01*
X156400000Y-66009989D01*
X156390073Y-65941858D01*
X156390073Y-65941857D01*
X156338698Y-65836767D01*
X156338696Y-65836765D01*
X156338696Y-65836764D01*
X156255983Y-65754051D01*
X156251945Y-65751168D01*
X156208824Y-65696192D01*
X156200000Y-65650252D01*
X156200000Y-65279574D01*
X156219685Y-65212535D01*
X156272489Y-65166780D01*
X156341647Y-65156836D01*
X156364947Y-65162530D01*
X156465301Y-65197646D01*
X156465300Y-65197646D01*
X156495730Y-65200500D01*
X156495734Y-65200500D01*
X157304270Y-65200500D01*
X157334699Y-65197646D01*
X157334701Y-65197646D01*
X157422909Y-65166780D01*
X157462882Y-65152793D01*
X157572150Y-65072150D01*
X157652793Y-64962882D01*
X157677958Y-64890965D01*
X157680555Y-64883544D01*
X157721277Y-64826769D01*
X157786230Y-64801022D01*
X157797596Y-64800500D01*
X158941324Y-64800500D01*
X159008363Y-64820185D01*
X159029005Y-64836819D01*
X159114396Y-64922210D01*
X159147881Y-64983533D01*
X159149811Y-64994943D01*
X159164859Y-65118870D01*
X159164860Y-65118875D01*
X159225182Y-65277930D01*
X159225182Y-65277931D01*
X159279267Y-65356285D01*
X159287388Y-65368051D01*
X159294550Y-65378426D01*
X159316433Y-65444780D01*
X159316500Y-65448866D01*
X159316500Y-73324324D01*
X159296815Y-73391363D01*
X159280181Y-73412005D01*
X158329005Y-74363181D01*
X158267682Y-74396666D01*
X158241324Y-74399500D01*
X156993844Y-74399500D01*
X156926805Y-74379815D01*
X156881050Y-74327011D01*
X156876803Y-74316456D01*
X156857945Y-74262565D01*
X156840293Y-74212118D01*
X156759650Y-74102850D01*
X156650382Y-74022207D01*
X156650380Y-74022206D01*
X156522200Y-73977353D01*
X156512418Y-73976436D01*
X156447510Y-73950575D01*
X156406887Y-73893729D01*
X156400000Y-73852978D01*
X156400000Y-70959989D01*
X156669000Y-70959989D01*
X156669000Y-72676510D01*
X156678926Y-72744641D01*
X156730303Y-72849735D01*
X156813014Y-72932446D01*
X156813015Y-72932446D01*
X156813017Y-72932448D01*
X156918107Y-72983823D01*
X156952173Y-72988786D01*
X156986239Y-72993750D01*
X156986240Y-72993750D01*
X157352761Y-72993750D01*
X157375471Y-72990441D01*
X157420893Y-72983823D01*
X157525983Y-72932448D01*
X157608698Y-72849733D01*
X157660073Y-72744643D01*
X157670000Y-72676510D01*
X157670000Y-70959990D01*
X157669816Y-70958730D01*
X157660073Y-70891858D01*
X157660073Y-70891857D01*
X157608698Y-70786767D01*
X157608696Y-70786765D01*
X157608696Y-70786764D01*
X157525985Y-70704053D01*
X157420891Y-70652676D01*
X157352761Y-70642750D01*
X157352760Y-70642750D01*
X156986240Y-70642750D01*
X156986239Y-70642750D01*
X156918108Y-70652676D01*
X156813014Y-70704053D01*
X156730303Y-70786764D01*
X156678926Y-70891858D01*
X156669000Y-70959989D01*
X156400000Y-70959989D01*
X156390073Y-70891858D01*
X156390073Y-70891857D01*
X156338698Y-70786767D01*
X156338696Y-70786765D01*
X156338696Y-70786764D01*
X156255985Y-70704053D01*
X156150891Y-70652676D01*
X156082761Y-70642750D01*
X156082760Y-70642750D01*
X155716240Y-70642750D01*
X155716239Y-70642750D01*
X155648108Y-70652676D01*
X155543014Y-70704053D01*
X155460303Y-70786764D01*
X155408926Y-70891858D01*
X155399000Y-70959989D01*
X155399000Y-74118073D01*
X155379315Y-74185112D01*
X155374772Y-74191704D01*
X155359706Y-74212118D01*
X155337341Y-74276032D01*
X155296619Y-74332808D01*
X155231665Y-74358554D01*
X155163104Y-74345097D01*
X155112702Y-74296709D01*
X155102594Y-74274080D01*
X155046858Y-74105880D01*
X155046856Y-74105875D01*
X154954815Y-73956654D01*
X154830845Y-73832684D01*
X154681624Y-73740643D01*
X154681619Y-73740641D01*
X154515197Y-73685494D01*
X154515190Y-73685493D01*
X154412486Y-73675000D01*
X154275000Y-73675000D01*
X154275000Y-76124999D01*
X154412472Y-76124999D01*
X154412486Y-76124998D01*
X154515197Y-76114505D01*
X154681619Y-76059358D01*
X154681624Y-76059356D01*
X154830845Y-75967315D01*
X154954815Y-75843345D01*
X155046856Y-75694124D01*
X155046859Y-75694117D01*
X155102594Y-75525918D01*
X155142366Y-75468473D01*
X155206882Y-75441649D01*
X155275658Y-75453964D01*
X155326858Y-75501506D01*
X155337341Y-75523965D01*
X155338647Y-75527697D01*
X155359707Y-75587882D01*
X155440350Y-75697150D01*
X155549618Y-75777793D01*
X155567354Y-75783999D01*
X155677799Y-75822646D01*
X155708230Y-75825500D01*
X155708234Y-75825500D01*
X156491770Y-75825500D01*
X156522199Y-75822646D01*
X156522201Y-75822646D01*
X156586290Y-75800219D01*
X156650382Y-75777793D01*
X156759650Y-75697150D01*
X156840293Y-75587882D01*
X156862658Y-75523965D01*
X156876803Y-75483544D01*
X156917525Y-75426769D01*
X156982478Y-75401022D01*
X156993844Y-75400500D01*
X158565890Y-75400500D01*
X158565892Y-75400500D01*
X158693186Y-75366392D01*
X158807314Y-75300500D01*
X160114104Y-73993707D01*
X160114109Y-73993704D01*
X160124312Y-73983500D01*
X160124314Y-73983500D01*
X160217500Y-73890314D01*
X160283392Y-73776186D01*
X160303940Y-73699500D01*
X160317500Y-73648893D01*
X160317500Y-73517108D01*
X160317500Y-65527497D01*
X160337185Y-65460458D01*
X160359274Y-65434681D01*
X160378182Y-65417930D01*
X160396226Y-65391790D01*
X160474818Y-65277930D01*
X160535140Y-65118872D01*
X160555645Y-64950000D01*
X160535140Y-64781128D01*
X160523802Y-64751233D01*
X160495549Y-64676734D01*
X160474818Y-64622070D01*
X160471677Y-64617520D01*
X160423562Y-64547814D01*
X160378183Y-64482071D01*
X160268048Y-64384500D01*
X160250849Y-64369263D01*
X160100226Y-64290210D01*
X159935056Y-64249500D01*
X159908676Y-64249500D01*
X159841637Y-64229815D01*
X159820995Y-64213181D01*
X159507316Y-63899502D01*
X159507314Y-63899500D01*
X159439302Y-63860233D01*
X159393187Y-63833608D01*
X159329539Y-63816554D01*
X159265892Y-63799500D01*
X159265891Y-63799500D01*
X157797596Y-63799500D01*
X157730557Y-63779815D01*
X157684802Y-63727011D01*
X157680555Y-63716456D01*
X157664647Y-63670995D01*
X157652793Y-63637118D01*
X157572150Y-63527850D01*
X157462882Y-63447207D01*
X157462880Y-63447206D01*
X157334700Y-63402353D01*
X157304270Y-63399500D01*
X157304266Y-63399500D01*
X156495734Y-63399500D01*
X156495730Y-63399500D01*
X156465300Y-63402353D01*
X156465298Y-63402353D01*
X156337119Y-63447206D01*
X156337117Y-63447207D01*
X156261761Y-63502822D01*
X156196131Y-63526792D01*
X156127961Y-63511476D01*
X156100447Y-63490732D01*
X155569256Y-62959541D01*
X155569248Y-62959535D01*
X155500739Y-62919982D01*
X155500734Y-62919979D01*
X155475257Y-62913152D01*
X155424306Y-62899500D01*
X153565893Y-62899500D01*
X153434108Y-62899500D01*
X153306812Y-62933608D01*
X153192686Y-62999500D01*
X153192683Y-62999502D01*
X152159002Y-64033183D01*
X152159000Y-64033186D01*
X152120036Y-64100673D01*
X152069468Y-64148888D01*
X152000861Y-64162110D01*
X151955023Y-64148468D01*
X151809726Y-64072210D01*
X151644556Y-64031500D01*
X151474444Y-64031500D01*
X151309273Y-64072210D01*
X151158650Y-64151263D01*
X151074034Y-64226227D01*
X151034021Y-64261676D01*
X151031316Y-64264072D01*
X150934682Y-64404068D01*
X150934682Y-64404069D01*
X150874360Y-64563124D01*
X150874359Y-64563129D01*
X150859311Y-64687055D01*
X150831688Y-64751233D01*
X150823896Y-64759788D01*
X150252187Y-65331499D01*
X150159003Y-65424682D01*
X150159001Y-65424685D01*
X150093109Y-65538811D01*
X150059001Y-65666107D01*
X150059001Y-65836071D01*
X150039316Y-65903110D01*
X149986512Y-65948865D01*
X149917354Y-65958809D01*
X149877376Y-65945868D01*
X149809726Y-65910362D01*
X149644557Y-65869653D01*
X149474445Y-65869653D01*
X149309274Y-65910363D01*
X149158651Y-65989416D01*
X149031317Y-66102225D01*
X148934683Y-66242221D01*
X148874361Y-66401278D01*
X148874360Y-66401283D01*
X148853856Y-66570153D01*
X148874360Y-66739023D01*
X148874361Y-66739027D01*
X148879464Y-66752482D01*
X148884830Y-66822146D01*
X148851681Y-66883651D01*
X148851202Y-66884132D01*
X146093905Y-69641431D01*
X146032582Y-69674916D01*
X146006224Y-69677750D01*
X144312500Y-69677750D01*
X144245461Y-69658065D01*
X144199706Y-69605261D01*
X144188500Y-69553750D01*
X144188500Y-69319989D01*
X144181010Y-69268586D01*
X144178573Y-69251857D01*
X144127198Y-69146767D01*
X144127196Y-69146765D01*
X144127196Y-69146764D01*
X144044485Y-69064053D01*
X143939391Y-69012676D01*
X143871261Y-69002750D01*
X143871260Y-69002750D01*
X143504740Y-69002750D01*
X143504739Y-69002750D01*
X143436608Y-69012676D01*
X143331514Y-69064053D01*
X143248803Y-69146764D01*
X143197426Y-69251858D01*
X143187500Y-69319989D01*
X143187500Y-70915573D01*
X143167815Y-70982612D01*
X143115011Y-71028367D01*
X143045853Y-71038311D01*
X142982297Y-71009286D01*
X142975819Y-71003254D01*
X142954819Y-70982254D01*
X142921334Y-70920931D01*
X142918500Y-70894573D01*
X142918500Y-69319989D01*
X142911010Y-69268586D01*
X142908573Y-69251857D01*
X142857198Y-69146767D01*
X142857196Y-69146765D01*
X142857196Y-69146764D01*
X142774485Y-69064053D01*
X142669391Y-69012676D01*
X142601261Y-69002750D01*
X142601260Y-69002750D01*
X142234740Y-69002750D01*
X142234739Y-69002750D01*
X142166608Y-69012676D01*
X142061514Y-69064053D01*
X141978803Y-69146764D01*
X141927426Y-69251858D01*
X141917500Y-69319989D01*
X141917500Y-70776943D01*
X141897815Y-70843982D01*
X141845011Y-70889737D01*
X141775853Y-70899681D01*
X141712297Y-70870656D01*
X141705819Y-70864624D01*
X141684819Y-70843624D01*
X141651334Y-70782301D01*
X141648500Y-70755943D01*
X141648500Y-69319989D01*
X141641010Y-69268586D01*
X141638573Y-69251857D01*
X141587198Y-69146767D01*
X141587196Y-69146765D01*
X141587196Y-69146764D01*
X141504485Y-69064053D01*
X141399391Y-69012676D01*
X141331261Y-69002750D01*
X141331260Y-69002750D01*
X140964740Y-69002750D01*
X140964739Y-69002750D01*
X140896608Y-69012676D01*
X140791514Y-69064053D01*
X140708803Y-69146764D01*
X140657426Y-69251858D01*
X140647500Y-69319989D01*
X140647500Y-70707598D01*
X140627815Y-70774637D01*
X140575011Y-70820392D01*
X140505853Y-70830336D01*
X140442297Y-70801311D01*
X140435819Y-70795279D01*
X140414819Y-70774279D01*
X140381334Y-70712956D01*
X140378500Y-70686598D01*
X140378500Y-69137360D01*
X140378500Y-69137359D01*
X140372086Y-69113423D01*
X140344392Y-69010065D01*
X140315725Y-68960412D01*
X140278500Y-68895937D01*
X140185314Y-68802751D01*
X139682063Y-68299500D01*
X139624999Y-68266554D01*
X139567936Y-68233608D01*
X139504288Y-68216554D01*
X139440641Y-68199500D01*
X139440640Y-68199500D01*
X133358676Y-68199500D01*
X133291637Y-68179815D01*
X133270995Y-68163181D01*
X132542316Y-67434502D01*
X132542314Y-67434500D01*
X132482903Y-67400199D01*
X132428187Y-67368608D01*
X132363031Y-67351150D01*
X132300892Y-67334500D01*
X132300891Y-67334500D01*
X131852887Y-67334500D01*
X131785848Y-67314815D01*
X131740093Y-67262011D01*
X131728906Y-67212675D01*
X131726804Y-67092867D01*
X131724284Y-66949259D01*
X131742789Y-66881887D01*
X131745164Y-66878194D01*
X131760539Y-66855185D01*
X131771867Y-66838231D01*
X131771868Y-66838229D01*
X131783499Y-66779752D01*
X131783500Y-66779750D01*
X131783500Y-65890249D01*
X131783499Y-65890247D01*
X131771776Y-65831307D01*
X131778003Y-65761715D01*
X131793354Y-65741586D01*
X132582001Y-65741586D01*
X132592494Y-65844297D01*
X132647641Y-66010719D01*
X132647643Y-66010724D01*
X132739684Y-66159945D01*
X132863654Y-66283915D01*
X133012875Y-66375956D01*
X133012880Y-66375958D01*
X133179302Y-66431105D01*
X133179309Y-66431106D01*
X133282019Y-66441599D01*
X133531999Y-66441599D01*
X134032000Y-66441599D01*
X134281972Y-66441599D01*
X134281986Y-66441598D01*
X134384697Y-66431105D01*
X134551119Y-66375958D01*
X134551124Y-66375956D01*
X134700345Y-66283915D01*
X134824315Y-66159945D01*
X134849633Y-66118899D01*
X135268000Y-66118899D01*
X135270899Y-66155739D01*
X135270900Y-66155745D01*
X135316716Y-66313443D01*
X135316717Y-66313446D01*
X135400314Y-66454802D01*
X135400321Y-66454811D01*
X135516438Y-66570928D01*
X135516447Y-66570935D01*
X135657801Y-66654531D01*
X135815514Y-66700350D01*
X135815511Y-66700350D01*
X135817998Y-66700545D01*
X135818000Y-66700545D01*
X135818000Y-65478250D01*
X135268000Y-65478250D01*
X135268000Y-66118899D01*
X134849633Y-66118899D01*
X134916356Y-66010724D01*
X134916358Y-66010719D01*
X134971505Y-65844297D01*
X134971506Y-65844290D01*
X134981999Y-65741586D01*
X134982000Y-65741573D01*
X134982000Y-65591600D01*
X134032000Y-65591600D01*
X134032000Y-66441599D01*
X133531999Y-66441599D01*
X133532000Y-66441598D01*
X133532000Y-65591600D01*
X132582001Y-65591600D01*
X132582001Y-65741586D01*
X131793354Y-65741586D01*
X131819082Y-65707849D01*
X131940190Y-65617186D01*
X132026350Y-65502093D01*
X132026354Y-65502086D01*
X132076596Y-65367379D01*
X132076598Y-65367372D01*
X132082999Y-65307844D01*
X132083000Y-65307827D01*
X132083000Y-65085000D01*
X131813423Y-65085000D01*
X131746384Y-65065315D01*
X131700629Y-65012511D01*
X131689442Y-64963175D01*
X131685021Y-64711175D01*
X131703527Y-64643801D01*
X131755520Y-64597127D01*
X131809002Y-64585000D01*
X132083000Y-64585000D01*
X132083000Y-64362172D01*
X132082999Y-64362155D01*
X132076598Y-64302627D01*
X132076596Y-64302620D01*
X132026354Y-64167913D01*
X132026350Y-64167906D01*
X131940190Y-64052812D01*
X131934559Y-64047181D01*
X131901074Y-63985858D01*
X131906058Y-63916166D01*
X131947930Y-63860233D01*
X132013394Y-63835816D01*
X132022240Y-63835500D01*
X132176108Y-63835500D01*
X132208200Y-63839725D01*
X132217064Y-63842100D01*
X132348849Y-63842100D01*
X132821520Y-63842100D01*
X132888559Y-63861785D01*
X132922031Y-63898228D01*
X132923689Y-63897005D01*
X132929206Y-63904481D01*
X132929207Y-63904482D01*
X132983527Y-63978084D01*
X133009851Y-64013751D01*
X133092601Y-64074823D01*
X133134852Y-64130470D01*
X133140311Y-64200126D01*
X133107244Y-64261676D01*
X133057974Y-64292298D01*
X133012883Y-64307240D01*
X133012875Y-64307243D01*
X132863654Y-64399284D01*
X132739684Y-64523254D01*
X132647643Y-64672475D01*
X132647641Y-64672480D01*
X132592494Y-64838902D01*
X132592493Y-64838909D01*
X132582000Y-64941613D01*
X132582000Y-65091600D01*
X134981999Y-65091600D01*
X134981999Y-64941628D01*
X134981998Y-64941613D01*
X134971505Y-64838902D01*
X134916358Y-64672480D01*
X134916356Y-64672475D01*
X134824315Y-64523254D01*
X134730842Y-64429781D01*
X134697357Y-64368458D01*
X134702341Y-64298766D01*
X134744213Y-64242833D01*
X134809677Y-64218416D01*
X134818523Y-64218100D01*
X135144000Y-64218100D01*
X135211039Y-64237785D01*
X135256794Y-64290589D01*
X135268000Y-64342100D01*
X135268000Y-64978250D01*
X136194000Y-64978250D01*
X136261039Y-64997935D01*
X136306794Y-65050739D01*
X136318000Y-65102250D01*
X136318000Y-66700545D01*
X136318001Y-66700545D01*
X136320486Y-66700350D01*
X136478198Y-66654531D01*
X136619552Y-66570935D01*
X136619561Y-66570928D01*
X136735678Y-66454811D01*
X136735687Y-66454800D01*
X136787419Y-66367325D01*
X136838487Y-66319641D01*
X136907229Y-66307137D01*
X136971818Y-66333782D01*
X136981337Y-66342320D01*
X136981513Y-66342445D01*
X136981514Y-66342445D01*
X136981517Y-66342448D01*
X137086607Y-66393823D01*
X137120673Y-66398786D01*
X137154739Y-66403750D01*
X137154740Y-66403750D01*
X137521261Y-66403750D01*
X137543971Y-66400441D01*
X137589393Y-66393823D01*
X137694483Y-66342448D01*
X137777198Y-66259733D01*
X137828573Y-66154643D01*
X137838500Y-66086510D01*
X137838500Y-64369990D01*
X137837361Y-64362172D01*
X137832846Y-64331183D01*
X137842659Y-64262006D01*
X137888315Y-64209116D01*
X137955317Y-64189305D01*
X138022393Y-64208864D01*
X138043231Y-64225624D01*
X138073692Y-64256085D01*
X138107177Y-64317408D01*
X138108717Y-64361635D01*
X138108639Y-64362172D01*
X138107606Y-64369266D01*
X138107500Y-64369991D01*
X138107500Y-66086510D01*
X138117426Y-66154641D01*
X138168803Y-66259735D01*
X138251514Y-66342446D01*
X138251515Y-66342446D01*
X138251517Y-66342448D01*
X138356607Y-66393823D01*
X138390673Y-66398786D01*
X138424739Y-66403750D01*
X138424740Y-66403750D01*
X138791261Y-66403750D01*
X138813971Y-66400441D01*
X138859393Y-66393823D01*
X138964483Y-66342448D01*
X139047198Y-66259733D01*
X139098573Y-66154643D01*
X139108500Y-66086510D01*
X139108500Y-64369990D01*
X139107358Y-64362155D01*
X139098573Y-64301858D01*
X139098573Y-64301857D01*
X139047198Y-64196767D01*
X139047196Y-64196765D01*
X139047196Y-64196764D01*
X139027161Y-64176729D01*
X138995067Y-64121139D01*
X138981208Y-64069414D01*
X138981207Y-64069412D01*
X138928480Y-63978087D01*
X137787113Y-62836720D01*
X137710218Y-62792324D01*
X137695789Y-62783993D01*
X137644857Y-62770346D01*
X137593927Y-62756700D01*
X137593926Y-62756700D01*
X135828055Y-62756700D01*
X135761016Y-62737015D01*
X135740374Y-62720381D01*
X134891515Y-61871522D01*
X134891513Y-61871520D01*
X134845850Y-61845156D01*
X134800189Y-61818793D01*
X134749257Y-61805146D01*
X134698327Y-61791500D01*
X134698326Y-61791500D01*
X132703855Y-61791500D01*
X132636816Y-61771815D01*
X132616174Y-61755181D01*
X132375515Y-61514522D01*
X132375513Y-61514520D01*
X132329850Y-61488156D01*
X132284189Y-61461793D01*
X132233257Y-61448146D01*
X132182327Y-61434500D01*
X132182326Y-61434500D01*
X131894066Y-61434500D01*
X131827027Y-61414815D01*
X131781272Y-61362011D01*
X131772449Y-61334691D01*
X131771868Y-61331770D01*
X131771867Y-61331769D01*
X131727551Y-61265446D01*
X131677299Y-61231868D01*
X131659798Y-61210926D01*
X131659182Y-61211554D01*
X131623000Y-61176000D01*
X124638000Y-61176000D01*
X124636023Y-61176000D01*
X124579054Y-61207106D01*
X124564856Y-61209341D01*
X124563254Y-61209498D01*
X124504770Y-61221131D01*
X124504769Y-61221132D01*
X124438447Y-61265447D01*
X124394132Y-61331769D01*
X124394131Y-61331770D01*
X124382500Y-61390247D01*
X124382500Y-62279752D01*
X124394131Y-62338229D01*
X124394132Y-62338230D01*
X124438447Y-62404552D01*
X124482762Y-62434162D01*
X124504769Y-62448867D01*
X124538191Y-62455515D01*
X124600101Y-62487898D01*
X124634676Y-62548613D01*
X124638000Y-62577132D01*
X124638000Y-62592867D01*
X124618315Y-62659906D01*
X124565511Y-62705661D01*
X124538192Y-62714484D01*
X124504770Y-62721132D01*
X124504769Y-62721132D01*
X124438447Y-62765447D01*
X124394132Y-62831769D01*
X124394131Y-62831770D01*
X124382500Y-62890247D01*
X124382500Y-63779748D01*
X124394224Y-63838694D01*
X124387995Y-63908285D01*
X124346918Y-63962149D01*
X124225809Y-64052812D01*
X124139649Y-64167906D01*
X124139645Y-64167913D01*
X124089403Y-64302620D01*
X124089401Y-64302627D01*
X124083000Y-64362155D01*
X124083000Y-64585000D01*
X124514000Y-64585000D01*
X124581039Y-64604685D01*
X124626794Y-64657489D01*
X124638000Y-64709000D01*
X124638000Y-64961000D01*
X124618315Y-65028039D01*
X124565511Y-65073794D01*
X124514000Y-65085000D01*
X124083000Y-65085000D01*
X124083000Y-65307844D01*
X124089401Y-65367372D01*
X124089403Y-65367379D01*
X124139645Y-65502086D01*
X124139649Y-65502093D01*
X124225809Y-65617187D01*
X124231441Y-65622819D01*
X124264926Y-65684142D01*
X124259942Y-65753834D01*
X124218070Y-65809767D01*
X124152606Y-65834184D01*
X124143760Y-65834500D01*
X122617500Y-65834500D01*
X122550461Y-65814815D01*
X122504706Y-65762011D01*
X122493500Y-65710500D01*
X122493500Y-61305949D01*
X122513185Y-61238910D01*
X122529819Y-61218268D01*
X123238933Y-60509154D01*
X132172001Y-60509154D01*
X132182319Y-60610152D01*
X132236546Y-60773800D01*
X132236551Y-60773811D01*
X132327052Y-60920534D01*
X132327055Y-60920538D01*
X132448961Y-61042444D01*
X132448965Y-61042447D01*
X132595688Y-61132948D01*
X132595699Y-61132953D01*
X132759347Y-61187180D01*
X132860352Y-61197499D01*
X132897000Y-61197499D01*
X133397000Y-61197499D01*
X133433640Y-61197499D01*
X133433654Y-61197498D01*
X133534652Y-61187180D01*
X133698300Y-61132953D01*
X133698311Y-61132948D01*
X133845034Y-61042447D01*
X133845038Y-61042444D01*
X133966944Y-60920538D01*
X133966947Y-60920534D01*
X134057448Y-60773811D01*
X134057453Y-60773800D01*
X134111680Y-60610152D01*
X134114061Y-60586844D01*
X134404000Y-60586844D01*
X134410401Y-60646372D01*
X134410403Y-60646379D01*
X134460645Y-60781086D01*
X134460649Y-60781093D01*
X134546809Y-60896187D01*
X134546812Y-60896190D01*
X134661906Y-60982350D01*
X134661913Y-60982354D01*
X134796620Y-61032596D01*
X134796627Y-61032598D01*
X134856155Y-61038999D01*
X134856172Y-61039000D01*
X135054000Y-61039000D01*
X135054000Y-60539000D01*
X134404000Y-60539000D01*
X134404000Y-60586844D01*
X134114061Y-60586844D01*
X134121999Y-60509154D01*
X134122000Y-60509141D01*
X134122000Y-60410000D01*
X133397000Y-60410000D01*
X133397000Y-61197499D01*
X132897000Y-61197499D01*
X132897000Y-60410000D01*
X132172001Y-60410000D01*
X132172001Y-60509154D01*
X123238933Y-60509154D01*
X124711268Y-59036819D01*
X124772591Y-59003334D01*
X124798949Y-59000500D01*
X126325460Y-59000500D01*
X126392499Y-59020185D01*
X126399093Y-59024730D01*
X126437113Y-59052790D01*
X126437115Y-59052791D01*
X126437118Y-59052793D01*
X126479845Y-59067744D01*
X126565299Y-59097646D01*
X126595730Y-59100500D01*
X126595734Y-59100500D01*
X126916500Y-59100500D01*
X126954469Y-59108051D01*
X126954845Y-59106812D01*
X126960667Y-59108578D01*
X126960672Y-59108580D01*
X126960676Y-59108580D01*
X126960677Y-59108581D01*
X127096004Y-59135500D01*
X127096007Y-59135500D01*
X129987995Y-59135500D01*
X130079837Y-59117231D01*
X130123328Y-59108580D01*
X130123335Y-59108576D01*
X130129155Y-59106812D01*
X130129530Y-59108051D01*
X130167500Y-59100500D01*
X130304270Y-59100500D01*
X130334699Y-59097646D01*
X130334701Y-59097646D01*
X130398790Y-59075219D01*
X130462882Y-59052793D01*
X130572150Y-58972150D01*
X130572152Y-58972146D01*
X130572488Y-58971812D01*
X130572946Y-58971561D01*
X130579626Y-58966632D01*
X130580301Y-58967546D01*
X130633814Y-58938332D01*
X130660163Y-58935500D01*
X132450507Y-58935500D01*
X132517546Y-58955185D01*
X132550276Y-58985865D01*
X132586494Y-59034939D01*
X132610464Y-59100568D01*
X132595148Y-59168739D01*
X132551821Y-59214110D01*
X132448962Y-59277554D01*
X132327055Y-59399461D01*
X132327052Y-59399465D01*
X132236551Y-59546188D01*
X132236546Y-59546199D01*
X132182319Y-59709847D01*
X132172000Y-59810845D01*
X132172000Y-59910000D01*
X134121999Y-59910000D01*
X134121999Y-59810860D01*
X134121998Y-59810845D01*
X134111680Y-59709847D01*
X134057453Y-59546199D01*
X134057448Y-59546188D01*
X133969496Y-59403597D01*
X133951055Y-59336205D01*
X133971977Y-59269541D01*
X134025619Y-59224772D01*
X134075034Y-59214500D01*
X134464760Y-59214500D01*
X134531799Y-59234185D01*
X134577554Y-59286989D01*
X134587498Y-59356147D01*
X134558473Y-59419703D01*
X134552441Y-59426181D01*
X134546809Y-59431812D01*
X134460649Y-59546906D01*
X134460645Y-59546913D01*
X134410403Y-59681620D01*
X134410401Y-59681627D01*
X134404000Y-59741155D01*
X134404000Y-59789000D01*
X135180000Y-59789000D01*
X135247039Y-59808685D01*
X135292794Y-59861489D01*
X135304000Y-59913000D01*
X135304000Y-59915000D01*
X135284315Y-59982039D01*
X135231511Y-60027794D01*
X135180000Y-60039000D01*
X134404000Y-60039000D01*
X134404000Y-60086827D01*
X134404001Y-60086846D01*
X134410871Y-60150745D01*
X134410871Y-60177255D01*
X134404001Y-60241153D01*
X134404000Y-60241172D01*
X134404000Y-60289000D01*
X135180000Y-60289000D01*
X135247039Y-60308685D01*
X135292794Y-60361489D01*
X135304000Y-60413000D01*
X135304000Y-61039000D01*
X135501828Y-61039000D01*
X135501844Y-61038999D01*
X135561372Y-61032598D01*
X135561379Y-61032596D01*
X135696086Y-60982354D01*
X135696093Y-60982350D01*
X135811187Y-60896190D01*
X135811190Y-60896187D01*
X135897350Y-60781093D01*
X135897354Y-60781086D01*
X135947596Y-60646379D01*
X135949385Y-60629746D01*
X135976123Y-60565194D01*
X136033515Y-60525346D01*
X136072675Y-60519000D01*
X136553999Y-60519000D01*
X136554004Y-60518998D01*
X136557532Y-60517537D01*
X136557533Y-60517537D01*
X136702322Y-60372747D01*
X136763645Y-60339262D01*
X136833337Y-60344246D01*
X136889268Y-60386114D01*
X136896809Y-60396187D01*
X136896812Y-60396190D01*
X137004950Y-60477143D01*
X137046821Y-60533077D01*
X137051428Y-60552949D01*
X137052311Y-60552774D01*
X137065131Y-60617229D01*
X137065132Y-60617230D01*
X137109447Y-60683552D01*
X137175769Y-60727867D01*
X137175770Y-60727868D01*
X137234247Y-60739499D01*
X137234250Y-60739500D01*
X137234252Y-60739500D01*
X137823750Y-60739500D01*
X137823751Y-60739499D01*
X137843418Y-60735587D01*
X137882228Y-60727868D01*
X137882229Y-60727867D01*
X137882231Y-60727867D01*
X137882231Y-60727866D01*
X137891709Y-60723941D01*
X137939166Y-60714500D01*
X140993500Y-60714500D01*
X141060539Y-60734185D01*
X141106294Y-60786989D01*
X141117500Y-60838500D01*
X141117500Y-62606324D01*
X141097815Y-62673363D01*
X141081181Y-62694005D01*
X140747502Y-63027683D01*
X140747500Y-63027686D01*
X140681608Y-63141812D01*
X140647500Y-63269108D01*
X140647500Y-66086510D01*
X140657426Y-66154641D01*
X140708803Y-66259735D01*
X140791514Y-66342446D01*
X140791515Y-66342446D01*
X140791517Y-66342448D01*
X140896607Y-66393823D01*
X140930673Y-66398786D01*
X140964739Y-66403750D01*
X140964740Y-66403750D01*
X141331261Y-66403750D01*
X141353971Y-66400441D01*
X141399393Y-66393823D01*
X141504483Y-66342448D01*
X141587198Y-66259733D01*
X141638573Y-66154643D01*
X141648500Y-66086510D01*
X141648500Y-64369990D01*
X141648500Y-63593676D01*
X141668185Y-63526637D01*
X141684819Y-63505995D01*
X141705819Y-63484995D01*
X141767142Y-63451510D01*
X141836834Y-63456494D01*
X141892767Y-63498366D01*
X141917184Y-63563830D01*
X141917500Y-63572676D01*
X141917500Y-66086510D01*
X141927426Y-66154641D01*
X141978803Y-66259735D01*
X142061514Y-66342446D01*
X142061515Y-66342446D01*
X142061517Y-66342448D01*
X142166607Y-66393823D01*
X142200673Y-66398786D01*
X142234739Y-66403750D01*
X142234740Y-66403750D01*
X142601261Y-66403750D01*
X142623971Y-66400441D01*
X142669393Y-66393823D01*
X142774483Y-66342448D01*
X142857198Y-66259733D01*
X142908573Y-66154643D01*
X142918500Y-66086510D01*
X142918500Y-64369990D01*
X142918500Y-62418676D01*
X142938185Y-62351637D01*
X142954819Y-62330995D01*
X143771294Y-61514520D01*
X144596500Y-60689314D01*
X144662392Y-60575186D01*
X144696500Y-60447892D01*
X144696500Y-60316107D01*
X144696500Y-60215595D01*
X144716185Y-60148556D01*
X144768989Y-60102801D01*
X144779523Y-60098561D01*
X144858882Y-60070793D01*
X144968150Y-59990150D01*
X145048793Y-59880882D01*
X145080944Y-59789000D01*
X145093646Y-59752701D01*
X145093646Y-59752699D01*
X145096500Y-59722269D01*
X145096500Y-58913730D01*
X145093646Y-58883300D01*
X145093646Y-58883298D01*
X145057435Y-58779815D01*
X145048793Y-58755118D01*
X144968150Y-58645850D01*
X144858882Y-58565207D01*
X144858880Y-58565206D01*
X144730700Y-58520353D01*
X144700270Y-58517500D01*
X144700266Y-58517500D01*
X143871833Y-58517500D01*
X143804794Y-58497815D01*
X143784152Y-58481181D01*
X143633152Y-58330181D01*
X143599667Y-58268858D01*
X143604651Y-58199166D01*
X143646523Y-58143233D01*
X143711987Y-58118816D01*
X143720833Y-58118500D01*
X144700270Y-58118500D01*
X144730699Y-58115646D01*
X144730701Y-58115646D01*
X144794790Y-58093219D01*
X144858882Y-58070793D01*
X144968150Y-57990150D01*
X145048793Y-57880882D01*
X145048793Y-57880881D01*
X145054311Y-57873405D01*
X145056285Y-57874862D01*
X145095580Y-57834485D01*
X145156480Y-57818500D01*
X146873500Y-57818500D01*
X146940539Y-57838185D01*
G37*
%TD.AperFunction*%
%TA.AperFunction,Conductor*%
G36*
X140622588Y-58620185D02*
G01*
X140668343Y-58672989D01*
X140678287Y-58742147D01*
X140672590Y-58765455D01*
X140631353Y-58883298D01*
X140631353Y-58883300D01*
X140628500Y-58913730D01*
X140628500Y-59722269D01*
X140631353Y-59752699D01*
X140631353Y-59752701D01*
X140673445Y-59872989D01*
X140676207Y-59880882D01*
X140702027Y-59915868D01*
X140725998Y-59981495D01*
X140710683Y-60049665D01*
X140660943Y-60098733D01*
X140602257Y-60113500D01*
X138428000Y-60113500D01*
X138360961Y-60093815D01*
X138342791Y-60072846D01*
X138340319Y-60075319D01*
X138304000Y-60039000D01*
X137528000Y-60039000D01*
X137460961Y-60019315D01*
X137415206Y-59966511D01*
X137404000Y-59915000D01*
X137404000Y-59913000D01*
X137423685Y-59845961D01*
X137476489Y-59800206D01*
X137528000Y-59789000D01*
X138304000Y-59789000D01*
X138304000Y-59741172D01*
X138303999Y-59741155D01*
X138297598Y-59681627D01*
X138297596Y-59681620D01*
X138247354Y-59546913D01*
X138247350Y-59546906D01*
X138161190Y-59431812D01*
X138053048Y-59350856D01*
X138011178Y-59294922D01*
X138006587Y-59275047D01*
X138005689Y-59275226D01*
X137990485Y-59198790D01*
X137991762Y-59198535D01*
X137985680Y-59141991D01*
X137992694Y-59118100D01*
X137992867Y-59117231D01*
X138004500Y-59058748D01*
X138004500Y-58914833D01*
X138024185Y-58847794D01*
X138040819Y-58827152D01*
X138231152Y-58636819D01*
X138292475Y-58603334D01*
X138318833Y-58600500D01*
X140555549Y-58600500D01*
X140622588Y-58620185D01*
G37*
%TD.AperFunction*%
%TA.AperFunction,Conductor*%
G36*
X137980247Y-57838185D02*
G01*
X138026002Y-57890989D01*
X138035946Y-57960147D01*
X138006921Y-58023703D01*
X137975208Y-58049887D01*
X137958492Y-58059537D01*
X137958487Y-58059541D01*
X137465848Y-58552181D01*
X137404525Y-58585666D01*
X137378167Y-58588500D01*
X137234247Y-58588500D01*
X137175770Y-58600131D01*
X137175769Y-58600132D01*
X137109447Y-58644447D01*
X137065132Y-58710769D01*
X137059407Y-58739550D01*
X137027020Y-58801460D01*
X136966304Y-58836033D01*
X136896535Y-58832292D01*
X136870249Y-58815728D01*
X136853999Y-58809000D01*
X135854001Y-58809000D01*
X135827668Y-58819903D01*
X135827545Y-58819607D01*
X135796561Y-58836524D01*
X135726870Y-58831536D01*
X135670938Y-58789661D01*
X135648592Y-58739547D01*
X135642868Y-58710770D01*
X135642867Y-58710769D01*
X135598552Y-58644447D01*
X135532230Y-58600132D01*
X135532229Y-58600131D01*
X135473752Y-58588500D01*
X135473748Y-58588500D01*
X134884252Y-58588500D01*
X134884247Y-58588500D01*
X134825771Y-58600131D01*
X134816291Y-58604059D01*
X134768834Y-58613500D01*
X133975676Y-58613500D01*
X133908637Y-58593815D01*
X133862882Y-58541011D01*
X133852938Y-58471853D01*
X133881963Y-58408297D01*
X133887995Y-58401819D01*
X134434995Y-57854819D01*
X134496318Y-57821334D01*
X134522676Y-57818500D01*
X137913208Y-57818500D01*
X137980247Y-57838185D01*
G37*
%TD.AperFunction*%
%TD*%
M02*
